<svg width="113" height="113" viewBox="0 0 113 113" fill="none" xmlns="http://www.w3.org/2000/svg">
<path d="M75.0818 73.0154C73.3425 71.832 71.448 70.8853 69.4498 70.2012C68.2604 69.7635 67.1 69.2534 65.9752 68.674C67.266 66.1595 67.6159 63.2799 66.9639 60.5379C66.3119 57.796 64.6994 55.366 62.4081 53.6724L59.9615 56.872C61.3703 57.9161 62.3946 59.3819 62.8798 61.048C63.365 62.714 63.2847 64.4898 62.651 66.1071C61.8862 65.2952 61.156 64.4526 60.4622 63.5814C59.1572 61.8458 57.6373 60.2764 55.9374 58.9093C49.8716 54.4398 42.3576 56.5694 36.3208 64.4645C27.134 76.4792 28.2725 88.5457 34.6793 93.269L34.6826 93.2714C36.1386 94.2281 37.7574 94.9211 39.4623 95.3175C40.5043 95.5479 41.5029 95.9376 42.4215 96.4724C43.2032 97.1897 43.865 98.0234 44.3825 98.9428C45.246 100.439 46.3754 101.771 47.7171 102.876C54.1232 107.593 66.2474 105.299 75.4342 93.2843C79.9481 87.3809 82.5639 78.5284 75.0818 73.0154ZM50.1637 99.6759C49.2198 98.8491 48.4254 97.8713 47.8141 96.7841C47.0534 95.4504 46.0557 94.2612 44.868 93.2728C43.5712 92.4317 42.1316 91.825 40.6172 91.4813C39.3804 91.2078 38.1999 90.7304 37.1259 90.0693L37.1291 90.0717C32.3226 86.5277 31.9238 76.8794 39.5802 66.8661C41.787 63.9801 47.5603 57.7391 53.4909 62.1089C54.9138 63.2778 56.1862 64.6126 57.2799 66.0838C58.534 67.7495 59.9863 69.2621 61.6059 70.5895L62.4061 71.1791C64.124 72.3233 65.9856 73.2444 67.9445 73.9192C69.6022 74.4831 71.1789 75.2547 72.6353 76.215C79.1819 81.0387 73.4004 89.2796 72.1747 90.8826C64.5183 100.896 54.9693 103.214 50.1637 99.6759Z" fill="black"/>
<path d="M70.5048 67.8782L68.8751 66.6774L70.0984 65.0776C70.7472 64.229 71.7129 63.6682 72.783 63.5185C73.8531 63.3689 74.9399 63.6426 75.8044 64.2796L77.4341 65.4804L76.2108 67.0802C75.562 67.9288 74.5963 68.4896 73.5262 68.6393C72.4561 68.7889 71.3693 68.5152 70.5048 67.8782Z" fill="black"/>
<path d="M34.0164 18L34.0164 46" stroke="black" stroke-width="4" stroke-linecap="round"/>
<path d="M56 10L56 38" stroke="black" stroke-width="4" stroke-linecap="round"/>
<path d="M77 18L77 46" stroke="black" stroke-width="4" stroke-linecap="round"/>
</svg>
