<svg width="208" height="310" viewBox="0 0 208 310" fill="none" xmlns="http://www.w3.org/2000/svg">
<path d="M2 68.0865L1.73215 66.7796C1.11152 66.9068 0.665941 67.4529 0.665941 68.0865H2ZM206 94.5039H207.334C207.334 93.9039 206.933 93.3777 206.355 93.218L206 94.5039ZM34.2105 47.0603L34.5657 45.7744C33.9011 45.5909 33.2061 45.944 32.9625 46.589L34.2105 47.0603ZM167.884 308L167.51 309.28C168.076 309.446 168.684 309.22 169.004 308.724L167.884 308ZM206 288.052L206.203 289.37C206.854 289.27 207.334 288.71 207.334 288.052H206ZM178 101.513L177.676 100.218C177.417 100.283 177.183 100.424 177.005 100.624L178 101.513ZM41.1895 78.658L40.842 79.946L40.842 79.946L41.1895 78.658ZM92.1895 12.0166L92.3882 10.6975L92.1895 12.0166ZM58.3684 53.7321L58.0133 55.018L58.0133 55.018L58.3684 53.7321ZM113.126 2.3124L112.925 3.63125L113.126 2.3124ZM163.589 82.7913L163.945 81.5053L163.945 81.5053L163.589 82.7913ZM2 232.5H0.665941C0.665941 232.935 0.878206 233.343 1.23465 233.592C1.5911 233.842 2.04692 233.902 2.4559 233.753L2 232.5ZM20.5 201.5H21.8341C21.8341 200.899 21.4332 200.373 20.8546 200.214C20.2759 200.054 19.662 200.301 19.3544 200.816L20.5 201.5ZM20.5 228.5H19.1659C19.1659 229.211 19.7239 229.797 20.4342 229.832L20.5 228.5ZM61 230.5L61.9287 231.457C62.3102 231.088 62.4357 230.527 62.2484 230.029C62.061 229.532 61.5965 229.193 61.0658 229.167L61 230.5ZM44.5 246.5L43.5713 245.542C43.3035 245.802 43.1566 246.162 43.1664 246.535C43.1762 246.908 43.3417 247.26 43.6228 247.505L44.5 246.5ZM72 270.5L71.9701 271.833C72.5315 271.846 73.0407 271.506 73.2438 270.982C73.4469 270.459 73.3003 269.864 72.8772 269.495L72 270.5ZM37 269.716L35.8428 269.052C35.6394 269.406 35.6098 269.834 35.7624 270.214C35.9151 270.593 36.2332 270.881 36.6255 270.996L37 269.716ZM13 228.5L14.3082 228.238C14.2319 227.857 13.993 227.528 13.654 227.337C13.3149 227.146 12.9096 227.113 12.5441 227.246L13 228.5ZM15.5 241L14.1918 241.261C14.2994 241.799 14.7254 242.217 15.2655 242.313L15.5 241ZM29.5 243.5H30.8341C30.8341 242.853 30.3708 242.3 29.7345 242.186L29.5 243.5ZM29.5 257.5H28.1659C28.1659 258.098 28.5642 258.623 29.1403 258.784L29.5 257.5ZM42 261L43.1572 261.664C43.3619 261.307 43.3905 260.875 43.2347 260.494C43.0788 260.114 42.7559 259.826 42.3597 259.715L42 261ZM180.727 72.5875C181.328 73.0142 182.161 72.8733 182.587 72.2727C183.014 71.6721 182.873 70.8392 182.273 70.4125L180.727 72.5875ZM167.884 308H169.218V112.834H167.884H166.55V308H167.884ZM206 94.5039H204.666V288.052H206H207.334V94.5039H206ZM206 288.052L205.797 286.733L177.797 291.046L178 292.365L178.203 293.683L206.203 289.37L206 288.052ZM178 292.365L176.88 291.64L166.764 307.275L167.884 308L169.004 308.724L179.12 293.09L178 292.365ZM167.884 112.834L168.879 113.723L178.995 102.401L178 101.513L177.005 100.624L166.889 111.945L167.884 112.834ZM178 101.513L178.324 102.807L206.324 95.798L206 94.5039L205.676 93.2098L177.676 100.218L178 101.513ZM178 292.365H179.334V101.513H178H176.666V292.365H178ZM34.2105 47.0603L32.9625 46.589L27.0573 62.2238L28.3053 62.6952L29.5533 63.1665L35.4585 47.5317L34.2105 47.0603ZM28.3053 62.6952L28.0374 61.3883L1.73215 66.7796L2 68.0865L2.26785 69.3934L28.5731 64.0021L28.3053 62.6952ZM2 68.0865L1.65255 69.3745L27.9578 76.4704L28.3053 75.1824L28.6527 73.8944L2.34745 66.7984L2 68.0865ZM28.3053 62.6952H26.9712V75.1824H28.3053H29.6393V62.6952H28.3053ZM34.2105 47.0603H32.8765V76.7754H34.2105H35.5446V47.0603H34.2105ZM28.3053 75.1824L27.9578 76.4704L40.842 79.946L41.1895 78.658L41.5369 77.37L28.6527 73.8944L28.3053 75.1824ZM41.1895 78.658L42.5172 78.7876C43.6829 66.8459 45.6852 48.8036 52.6549 34.561C56.1293 27.4609 60.7977 21.3936 67.1303 17.484C73.4394 13.5888 81.523 11.759 91.9908 13.3358L92.1895 12.0166L92.3882 10.6975C81.3823 9.03959 72.6448 10.9437 65.7286 15.2137C58.8359 19.4692 53.8746 25.9983 50.2583 33.3882C43.0464 48.1259 41.0223 66.6389 39.8617 78.5284L41.1895 78.658ZM41.1895 78.658L40.842 79.946L139.084 106.447L139.432 105.159L139.779 103.871L41.5369 77.37L41.1895 78.658ZM139.432 105.159L139.084 106.447L167.537 114.122L167.884 112.834L168.232 111.546L139.779 103.871L139.432 105.159ZM92.1895 12.0166L91.9908 13.3358C113.181 16.5278 125.971 33.6809 132.862 53.1671C139.754 72.654 140.571 94.0317 138.13 104.866L139.432 105.159L140.733 105.452C143.303 94.0449 142.406 72.1514 135.378 52.2775C128.349 32.4028 115.013 14.1055 92.3882 10.6975L92.1895 12.0166ZM58.3684 53.7321L58.7236 52.4462L34.5657 45.7744L34.2105 47.0603L33.8554 48.3463L58.0133 55.018L58.3684 53.7321ZM58.3684 53.7321L59.7017 53.6864C59.2696 41.0686 65.5188 27.4533 75.4966 17.5166C85.4651 7.58916 98.9754 1.50616 112.925 3.63125L113.126 2.3124L113.327 0.993557C98.3263 -1.29162 84.0102 5.27251 73.6139 15.6261C63.2267 25.9705 56.5725 40.2701 57.0351 53.7778L58.3684 53.7321ZM206 94.5039L206.355 93.218L163.945 81.5053L163.589 82.7913L163.234 84.0772L205.645 95.7898L206 94.5039ZM163.589 82.7913L163.945 81.5053L58.7236 52.4462L58.3684 53.7321L58.0133 55.018L163.234 84.0772L163.589 82.7913ZM2 68.0865H0.665941V232.5H2H3.33406V68.0865H2ZM2 232.5L3.14557 233.183L21.6456 202.183L20.5 201.5L19.3544 200.816L0.854427 231.816L2 232.5ZM20.5 201.5H19.1659V228.5H20.5H21.8341V201.5H20.5ZM20.5 228.5L20.4342 229.832L60.9342 231.832L61 230.5L61.0658 229.167L20.5658 227.167L20.5 228.5ZM61 230.5L60.0713 229.542L43.5713 245.542L44.5 246.5L45.4287 247.457L61.9287 231.457L61 230.5ZM44.5 246.5L43.6228 247.505L71.1228 271.505L72 270.5L72.8772 269.495L45.3772 245.495L44.5 246.5ZM37 269.716L36.6255 270.996L167.51 309.28L167.884 308L168.259 306.719L37.3745 268.435L37 269.716ZM72 270.5L72.0299 269.166L37.0299 268.382L37 269.716L36.9701 271.049L71.9701 271.833L72 270.5ZM2 232.5L2.4559 233.753L13.4559 229.753L13 228.5L12.5441 227.246L1.5441 231.246L2 232.5ZM13 228.5L11.6918 228.761L14.1918 241.261L15.5 241L16.8082 240.738L14.3082 228.238L13 228.5ZM15.5 241L15.2655 242.313L29.2655 244.813L29.5 243.5L29.7345 242.186L15.7345 239.686L15.5 241ZM29.5 243.5H28.1659V257.5H29.5H30.8341V243.5H29.5ZM29.5 257.5L29.1403 258.784L41.6403 262.284L42 261L42.3597 259.715L29.8597 256.215L29.5 257.5ZM42 261L40.8428 260.336L35.8428 269.052L37 269.716L38.1572 270.379L43.1572 261.664L42 261ZM113.126 2.3124L112.925 3.63125C137.627 7.39419 149.672 20.9644 157.955 35.3907C162.151 42.699 165.286 50.0368 168.711 56.6861C172.078 63.2208 175.694 69.0113 180.727 72.5875L181.5 71.5L182.273 70.4125C177.806 67.2387 174.433 61.9667 171.083 55.4642C167.792 49.0764 164.483 41.4024 160.269 34.0622C151.731 19.1916 139.089 4.91795 113.327 0.993557L113.126 2.3124Z" fill="black"/>
</svg>
