<svg width="309" height="266" viewBox="0 0 309 266" fill="none" xmlns="http://www.w3.org/2000/svg">
<path d="M79.6513 193.086C74.9889 173.361 92.3618 149.825 105.576 140.653C108.71 138.477 112.824 138.654 117.335 140.356C119.655 141.231 122.081 142.511 124.532 144.081C126.804 145.537 129.098 147.243 131.351 149.109C133.147 150.596 134.916 152.185 136.627 153.83C139.778 156.86 142.732 160.081 145.29 163.211C145.975 164.049 146.632 164.88 147.256 165.7C148.145 166.866 148.969 168.009 149.716 169.111C150.552 170.344 151.292 171.527 151.92 172.637C152.743 174.09 153.375 175.419 153.781 176.574C154.733 179.28 154.779 182.673 154.09 186.421C153.569 189.252 152.63 192.286 151.345 195.381C150.534 197.335 149.585 199.313 148.517 201.28C147.396 203.344 146.143 205.395 144.781 207.393C142.931 210.106 140.878 212.72 138.676 215.13C137.219 216.726 135.696 218.232 134.124 219.619C132.505 221.047 130.834 222.349 129.127 223.492C128.084 224.189 127.029 224.828 125.964 225.4C123.299 226.83 120.471 227.525 117.576 227.604C115.241 227.668 112.863 227.333 110.491 226.66C96.6433 222.735 83.0208 207.34 79.6513 193.086Z" fill="url(#paint0_linear_438_411)"/>
<path d="M117.335 140.356C112.824 138.654 108.71 138.477 105.576 140.653C92.3618 149.825 74.9889 173.361 79.6513 193.086C83.0208 207.34 96.6433 222.735 110.491 226.66M117.335 140.356C105.891 148.382 85.0359 170.002 93.1624 192.272C101.289 214.542 108.101 224.477 110.491 226.66M117.335 140.356C119.655 141.231 122.081 142.511 124.532 144.081M110.491 226.66C112.863 227.333 115.241 227.668 117.576 227.604M124.532 144.081C115.01 150.474 96.8634 167.157 100.458 182.749C104.952 202.24 108.444 213.958 117.576 227.604M124.532 144.081C126.804 145.537 129.098 147.243 131.351 149.109M117.576 227.604C120.471 227.525 123.299 226.83 125.964 225.4C127.029 224.828 128.084 224.189 129.127 223.492M131.351 149.109C122.414 154.843 105.54 169.567 109.548 182.589C114.557 198.866 119.433 214.467 129.127 223.492M131.351 149.109C133.147 150.596 134.916 152.185 136.627 153.83M129.127 223.492C130.834 222.349 132.505 221.047 134.124 219.619M136.627 153.83C128.4 159.288 112.576 172.45 115.089 181.435C118.23 192.666 125.338 210.38 134.124 219.619M136.627 153.83C139.778 156.86 142.732 160.081 145.29 163.211M134.124 219.619C135.696 218.232 137.219 216.726 138.676 215.13M140.493 158.145C132.994 162.014 118.749 171.976 121.77 180.88C125.546 192.009 131.677 208.369 138.676 215.13M138.676 215.13C140.878 212.72 142.931 210.106 144.781 207.393M145.29 163.211C140.093 166.382 130.052 174.591 131.469 182.055C133.239 191.386 139 202.812 144.781 207.393M145.29 163.211C145.975 164.049 146.632 164.88 147.256 165.7M144.781 207.393C146.143 205.395 147.396 203.344 148.517 201.28M147.256 165.7C142.676 168.765 134.403 177.027 137.949 185.552C141.495 194.077 146.471 199.589 148.517 201.28M147.256 165.7C148.145 166.866 148.969 168.009 149.716 169.111M148.517 201.28C149.585 199.313 150.534 197.335 151.345 195.381M149.716 169.111C146.653 171.722 141.387 178.527 144.82 184.86C148.254 191.192 150.6 194.513 151.345 195.381M149.716 169.111C150.552 170.344 151.292 171.527 151.92 172.637M151.345 195.381C152.63 192.286 153.569 189.252 154.09 186.421M151.92 172.637C152.743 174.09 153.375 175.419 153.781 176.574C154.733 179.28 154.779 182.673 154.09 186.421M151.92 172.637C150.92 174.187 149.306 178.216 150.852 181.931C152.398 185.647 153.655 186.473 154.09 186.421" stroke="black" stroke-width="2"/>
<circle cx="78.9019" cy="173.439" r="4" transform="rotate(144.207 78.9019 173.439)" fill="white"/>
<circle cx="78.2039" cy="173.326" r="2.5" transform="rotate(144.207 78.2039 173.326)" fill="black"/>
<circle cx="77.3561" cy="191.813" r="4" transform="rotate(144.207 77.3561 191.813)" fill="white"/>
<circle cx="76.6581" cy="191.7" r="2.5" transform="rotate(144.207 76.6581 191.7)" fill="black"/>
<circle opacity="0.05" cx="96.2978" cy="180.298" r="9.2138" fill="#FFCDCD" stroke="black" stroke-width="2.16795"/>
<circle opacity="0.05" cx="135.588" cy="193.588" r="6.50386" fill="#FFCDCD" stroke="black" stroke-width="2.16795"/>
<circle opacity="0.05" cx="119.298" cy="165.298" r="9.2138" fill="#FFCDCD" stroke="black" stroke-width="2.16795"/>
<circle opacity="0.05" cx="110.336" cy="210.336" r="3.25193" fill="#FFCDCD" stroke="black" stroke-width="2.16795"/>
<path d="M193.181 78.136C211.824 70.1851 237.974 83.2993 249.261 94.7595C251.938 97.4784 252.464 101.562 251.555 106.296C251.087 108.732 250.239 111.34 249.108 114.023C248.06 116.51 246.77 119.061 245.314 121.599C244.154 123.62 242.89 125.634 241.56 127.6C239.11 131.221 236.439 134.681 233.79 137.734C233.081 138.551 232.373 139.34 231.672 140.095C230.674 141.169 229.688 142.175 228.73 143.099C227.657 144.132 226.617 145.063 225.63 145.871C224.338 146.929 223.136 147.778 222.066 148.375C219.562 149.773 216.227 150.396 212.416 150.355C209.538 150.324 206.388 149.914 203.119 149.174C201.056 148.708 198.945 148.109 196.826 147.391C194.601 146.638 192.366 145.753 190.166 144.751C187.177 143.389 184.253 141.811 181.503 140.051C179.683 138.887 177.939 137.642 176.305 136.329C174.622 134.977 173.055 133.552 171.638 132.064C170.773 131.156 169.964 130.224 169.22 129.272C167.357 126.89 166.191 124.221 165.62 121.381C165.159 119.092 165.085 116.691 165.344 114.239C166.855 99.9257 179.708 83.8821 193.181 78.136Z" fill="url(#paint1_linear_438_411)"/>
<path d="M251.555 106.296C252.464 101.562 251.938 97.4784 249.261 94.7595C237.974 83.2993 211.824 70.1851 193.181 78.136C179.708 83.8821 166.855 99.9257 165.344 114.239M251.555 106.296C241.698 96.3858 216.845 79.5139 196.282 91.3116C175.72 103.109 167.089 111.512 165.344 114.239M251.555 106.296C251.087 108.732 250.239 111.34 249.108 114.023M165.344 114.239C165.085 116.691 165.159 119.092 165.62 121.381M249.108 114.023C241.189 105.727 221.661 90.6846 206.908 96.8807C188.466 104.626 177.513 110.061 165.62 121.381M249.108 114.023C248.06 116.51 246.77 119.061 245.314 121.598M165.62 121.381C166.191 124.221 167.357 126.89 169.22 129.272C169.964 130.224 170.773 131.156 171.638 132.064M245.314 121.598C238.143 113.767 220.763 99.6451 208.613 105.81C193.425 113.517 178.882 120.976 171.638 132.064M245.314 121.598C244.154 123.62 242.89 125.634 241.56 127.6M171.638 132.064C173.055 133.552 174.622 134.977 176.305 136.329M241.56 127.6C234.782 120.422 219.119 107.069 210.693 111.074C200.16 116.081 183.914 126.099 176.305 136.329M241.56 127.6C239.11 131.221 236.439 134.681 233.79 137.734M176.305 136.329C177.939 137.642 179.683 138.887 181.503 140.051M237.966 132.145C232.877 125.413 220.636 113.071 212.376 117.563C202.052 123.178 186.974 132.004 181.503 140.051M181.503 140.051C184.253 141.811 187.177 143.389 190.166 144.751M233.79 137.734C229.781 133.152 219.983 124.655 212.868 127.321C203.976 130.653 193.697 138.274 190.166 144.751M233.79 137.734C233.081 138.551 232.373 139.34 231.672 140.095M190.166 144.751C192.366 145.753 194.601 146.638 196.826 147.391M231.672 140.095C227.872 136.103 218.323 129.357 210.526 134.301C202.729 139.246 198.144 145.088 196.826 147.391M231.672 140.095C230.674 141.169 229.688 142.175 228.73 143.099M196.826 147.391C198.945 148.109 201.056 148.708 203.119 149.174M228.73 143.099C225.636 140.525 218.034 136.494 212.377 140.955C206.721 145.415 203.849 148.293 203.119 149.174M228.73 143.099C227.657 144.132 226.617 145.063 225.63 145.871M203.119 149.174C206.388 149.914 209.538 150.324 212.416 150.355M225.63 145.871C224.338 146.929 223.136 147.778 222.066 148.375C219.562 149.773 216.227 150.396 212.416 150.355M225.63 145.871C223.932 145.149 219.688 144.244 216.289 146.4C212.891 148.556 212.291 149.935 212.416 150.355" stroke="black" stroke-width="2"/>
<circle cx="212.414" cy="74.0544" r="4" transform="rotate(-135.59 212.414 74.0544)" fill="white"/>
<circle cx="212.407" cy="73.3475" r="2.5" transform="rotate(-135.59 212.407 73.3475)" fill="black"/>
<circle cx="194.045" cy="75.6579" r="4" transform="rotate(-135.59 194.045 75.6579)" fill="white"/>
<circle cx="194.038" cy="74.951" r="2.5" transform="rotate(-135.59 194.038 74.951)" fill="black"/>
<circle opacity="0.05" cx="219.298" cy="127.298" r="9.2138" fill="#FFCDCD" stroke="black" stroke-width="2.16795"/>
<circle opacity="0.05" cx="196.04" cy="133.253" r="3.25193" fill="#FFCDCD" stroke="black" stroke-width="2.16795"/>
<circle opacity="0.05" cx="190.588" cy="99.5878" r="6.50386" fill="#FFCDCD" stroke="black" stroke-width="2.16795"/>
<circle opacity="0.05" cx="222.298" cy="99.2978" r="9.2138" fill="#FFCDCD" stroke="black" stroke-width="2.16795"/>
<path d="M137.883 85.625C130.129 104.351 102.272 113.282 86.1893 112.993C82.3738 112.925 79.1403 110.376 76.4771 106.357C75.1069 104.29 73.8877 101.833 72.8179 99.1256C71.8263 96.6159 70.9631 93.8904 70.227 91.059C69.6406 88.803 69.1348 86.4798 68.7091 84.1448C67.9251 79.8438 67.4127 75.5028 67.168 71.4687C67.1025 70.3881 67.0562 69.3296 67.029 68.2997C66.9903 66.8335 66.9904 65.4254 67.029 64.0947C67.0722 62.6056 67.1638 61.2134 67.3033 59.945C67.4858 58.2855 67.7504 56.838 68.0966 55.6628C68.9069 52.9113 70.8538 50.1327 73.6053 47.495C75.683 45.5032 78.2196 43.5916 81.0721 41.8327C82.8728 40.7224 84.7993 39.6729 86.8159 38.7023C88.9324 37.6837 91.148 36.752 93.4211 35.9284C96.5087 34.8097 99.7025 33.8904 102.898 33.223C105.014 32.7813 107.13 32.45 109.216 32.2444C111.364 32.0328 113.481 31.9543 115.534 32.0257C116.788 32.0693 118.018 32.1688 119.216 32.3279C122.214 32.7259 124.914 33.8165 127.309 35.4454C129.24 36.7588 130.973 38.4222 132.504 40.3547C141.441 51.6371 143.487 72.0918 137.883 85.625Z" fill="url(#paint2_linear_438_411)"/>
<path d="M76.4771 106.357C79.1403 110.376 82.3738 112.925 86.1893 112.993C102.272 113.282 130.129 104.351 137.883 85.625C143.487 72.0918 141.441 51.6371 132.504 40.3547M76.4771 106.357C90.4535 106.539 120.015 101.2 126.448 78.3829C132.881 55.566 133.166 43.5237 132.504 40.3547M76.4771 106.357C75.1069 104.29 73.8877 101.833 72.8179 99.1256M132.504 40.3547C130.973 38.4222 129.24 36.7588 127.309 35.4454M72.8179 99.1256C84.2807 99.5097 108.757 96.5904 114.96 81.84C122.714 63.4021 126.735 51.855 127.309 35.4454M72.8179 99.1256C71.8263 96.6159 70.9631 93.8904 70.227 91.059M127.309 35.4454C124.914 33.8165 122.214 32.7259 119.216 32.3279C118.018 32.1688 116.788 32.0693 115.534 32.0257M70.227 91.059C80.8303 91.6352 103.128 89.5609 107.493 76.6544C112.95 60.5212 118.119 45.0156 115.534 32.0257M70.227 91.059C69.6406 88.803 69.1348 86.4798 68.7091 84.1448M115.534 32.0257C113.481 31.9543 111.364 32.0328 109.216 32.2444M68.7091 84.1448C78.5739 84.5289 99.1074 83.1076 102.324 74.3496C106.345 63.4021 110.94 44.8769 109.216 32.2444M68.7091 84.1448C67.9251 79.8438 67.4127 75.5028 67.168 71.4687M109.216 32.2444C107.13 32.45 105.014 32.7813 102.898 33.223M68.0966 78.3829C76.4424 79.6313 93.8232 79.881 96.5802 70.8925C100.026 59.6569 104.621 42.8007 102.898 33.223M102.898 33.223C99.7025 33.8904 96.5087 34.8097 93.4211 35.9284M67.168 71.4687C73.2387 71.9358 86.184 71.1492 89.4005 64.2664C93.4211 55.6628 95.4314 43.0258 93.4211 35.9284M67.168 71.4687C67.1025 70.3881 67.0562 69.3296 67.029 68.2997M93.4211 35.9284C91.148 36.752 88.9324 37.6837 86.8159 38.7023M67.029 68.2997C72.5368 68.4917 84.0798 66.6287 86.1893 57.6402C88.2988 48.6518 87.486 41.2698 86.8159 38.7023M67.029 68.2997C66.9903 66.8335 66.9904 65.4254 67.029 64.0947M86.8159 38.7023C84.7993 39.6729 82.8728 40.7224 81.0721 41.8327M67.029 64.0947C71.0399 63.7678 79.2916 61.3278 80.2106 54.1831C81.1296 47.0384 81.1679 42.9726 81.0721 41.8327M67.029 64.0947C67.0722 62.6056 67.1638 61.2134 67.3033 59.945M81.0721 41.8327C78.2196 43.5916 75.683 45.5032 73.6053 47.495M67.3033 59.945C67.4858 58.2855 67.7504 56.838 68.0966 55.6628C68.9069 52.9113 70.8538 50.1327 73.6053 47.495M67.3033 59.945C69.021 59.2728 72.6863 56.9488 73.6053 53.0308C74.5243 49.1127 73.9882 47.7077 73.6053 47.495" stroke="black" stroke-width="2"/>
<circle cx="127" cy="102" r="4" fill="white"/>
<circle cx="127.5" cy="102.5" r="2.5" fill="black"/>
<circle cx="139" cy="88" r="4" fill="white"/>
<circle cx="139.5" cy="88.5" r="2.5" fill="black"/>
<circle opacity="0.05" cx="120.336" cy="53.3359" r="3.25193" fill="#FFCDCD" stroke="black" stroke-width="2.16795"/>
<circle opacity="0.05" cx="95.2978" cy="59.2978" r="9.2138" fill="#FFCDCD" stroke="black" stroke-width="2.16795"/>
<circle opacity="0.05" cx="82.2978" cy="81.2978" r="9.2138" fill="#FFCDCD" stroke="black" stroke-width="2.16795"/>
<circle opacity="0.05" cx="112.588" cy="89.5878" r="6.50386" fill="#FFCDCD" stroke="black" stroke-width="2.16795"/>
<defs>
<linearGradient id="paint0_linear_438_411" x1="154.034" y1="177.506" x2="77.4542" y2="187.836" gradientUnits="userSpaceOnUse">
<stop stop-color="#827767"/>
<stop offset="1" stop-color="#E7DFD2"/>
</linearGradient>
<linearGradient id="paint1_linear_438_411" x1="221.192" y1="148.783" x2="197.981" y2="75.0776" gradientUnits="userSpaceOnUse">
<stop stop-color="#827767"/>
<stop offset="1" stop-color="#E7DFD2"/>
</linearGradient>
<linearGradient id="paint2_linear_438_411" x1="68.4359" y1="54.7593" x2="136.595" y2="91.1683" gradientUnits="userSpaceOnUse">
<stop stop-color="#827767"/>
<stop offset="1" stop-color="#E7DFD2"/>
</linearGradient>
</defs>
</svg>
