<svg width="409" height="266" viewBox="0 0 409 266" fill="none" xmlns="http://www.w3.org/2000/svg">
<path d="M12.9502 92.3496L12.0391 91.9033L12.0361 91.9014C12.0325 91.8996 12.0262 91.8968 12.0176 91.8926C12.0002 91.8839 11.9729 91.87 11.9365 91.8516C11.8639 91.8148 11.7546 91.7592 11.6143 91.6855C11.3327 91.5378 10.9256 91.3194 10.4365 91.04C9.45505 90.4793 8.15695 89.6827 6.86719 88.7354C5.56766 87.7808 4.33252 86.7128 3.4375 85.6172C2.52268 84.4972 2.11035 83.5297 2.11035 82.7471V26.0156C2.11035 25.7163 2.35301 25.4736 2.65234 25.4736H5.63281C5.93214 25.4736 6.1748 25.7163 6.1748 26.0156V63.1465C6.17492 65.2416 7.87369 66.9402 9.96875 66.9404H12.002C14.0971 66.9403 15.7958 65.2416 15.7959 63.1465V26.0156C15.7959 25.7163 16.0386 25.4736 16.3379 25.4736H19.3184C19.6177 25.4736 19.8604 25.7163 19.8604 26.0156V63.1465C19.8605 65.2417 21.5591 66.9404 23.6543 66.9404H25.6865C27.7818 66.9404 29.4804 65.2417 29.4805 63.1465V26.0156C29.4805 25.7164 29.7233 25.4738 30.0225 25.4736H33.0039C33.3031 25.4738 33.5459 25.7164 33.5459 26.0156V82.7471C33.5459 83.5297 33.1336 84.4972 32.2188 85.6172C31.3237 86.7129 30.0886 87.7808 28.7891 88.7354C27.4992 89.6828 26.2003 90.4793 25.2188 91.04C24.7299 91.3193 24.3235 91.5379 24.042 91.6855C23.9016 91.7592 23.7924 91.8148 23.7197 91.8516C23.6834 91.8699 23.656 91.8839 23.6387 91.8926C23.6302 91.8968 23.6238 91.8995 23.6201 91.9014L23.6162 91.9033L22.7061 92.3496V93.3633C22.7061 111.993 24.0604 140.143 25.4121 164.924C26.7677 189.775 28.1142 211.152 28.1143 216.401C28.1143 219.277 28.3776 221.6 27.8818 224.04C27.42 226.313 26.2751 228.641 23.3037 231.066C21.6492 232.417 20.5077 233.345 19.5811 233.95C18.6636 234.549 18.1731 234.681 17.8281 234.681C17.4832 234.681 16.9926 234.549 16.0752 233.95C15.1486 233.345 14.0069 232.417 12.3525 231.066C9.38117 228.641 8.23621 226.313 7.77441 224.04C7.27867 221.6 7.54199 219.277 7.54199 216.401C7.54201 211.152 8.8876 189.775 10.2432 164.924C11.5949 140.143 12.9502 111.993 12.9502 93.3633V92.3496Z" fill="#E7E7E7" stroke="black" stroke-width="3.25193"/>
<path d="M206.982 25.4736C249.342 25.4737 287.622 37.5852 315.269 57.084C342.921 76.5858 359.823 103.375 359.823 132.787C359.823 162.199 342.921 188.988 315.269 208.49C287.622 227.989 249.342 240.101 206.982 240.101C164.623 240.101 126.343 227.989 98.6951 208.49C71.0431 188.988 54.1414 162.199 54.1414 132.787C54.1414 103.375 71.0432 76.5858 98.6951 57.084C126.343 37.5853 164.623 25.4736 206.982 25.4736Z" fill="white" stroke="black" stroke-width="3.25193"/>
<path d="M206.982 46.0684C243.559 46.0684 276.649 55.8122 300.579 71.5371C324.512 87.265 339.227 108.931 339.227 132.786C339.227 156.641 324.513 178.308 300.579 194.036C276.649 209.761 243.559 219.505 206.982 219.505C170.405 219.505 137.315 209.761 113.385 194.036C89.4513 178.308 74.7368 156.641 74.7368 132.786C74.737 108.931 89.4514 87.265 113.385 71.5371C137.315 55.8122 170.404 46.0684 206.982 46.0684Z" fill="white" stroke="#D6D6D6" stroke-width="1.08398"/>
<path d="M160.139 81.8515C163.081 81.2983 166.255 80.9522 167.417 80.9522L172.837 80.9522C174.714 80.9522 176.089 81.2984 177.173 81.8403C178.733 82.6203 180.283 83.2837 180.967 85.0923C181.746 87.157 181.371 89.8926 180.425 91.5961C179.518 93.2283 179.238 93.6029 177.453 94.9508C174.965 96.8291 170.942 99.0122 166.378 100.021C160.108 101.407 156.211 101.432 153.867 101.894C145.921 103.461 143.499 105.349 141.943 106.23C139.593 107.56 135.929 109.996 132.73 113.276C127.663 118.469 126.067 120.418 124.435 122.456C123.226 123.965 121.838 125.544 120.756 127.646C119.607 129.879 117.965 133.428 116.958 138.47C115.928 143.627 116.49 147.055 117.076 149.047C117.554 150.673 118.393 153.171 119.258 155.335C120.461 158.346 122.33 163.484 120.213 165.036C119.969 165.215 118.988 165.423 118.638 165.307C117.012 164.765 117.012 164.223 115.928 163.139C115.235 162.446 113.213 159.376 110.064 152.02C107.541 146.128 105.598 142.007 106.347 134.788C106.709 131.301 107.892 125.396 111.195 117.936C112.774 114.367 114.566 111.381 117.123 108.043C119.68 104.704 122.904 101.121 125.316 98.7146C127.728 96.3079 129.281 95.1136 132.949 92.9784C136.617 90.8431 142.179 87.7515 145.713 86.1184C150.511 83.9017 154.429 82.9252 160.139 81.8515Z" fill="#F7DCAC"/>
<path d="M298.286 158.82C300.762 155.808 301.288 155.541 302.372 154.457L303.998 152.831C305.082 151.747 305.152 151.373 306.166 149.037C306.739 147.144 306.519 144.851 306.595 143.508C306.728 141.136 306.708 139.457 306.708 138.197C306.708 137.123 307.145 136.407 308.334 136.038C309.035 135.821 310.267 136.399 310.502 136.581C311.469 137.332 312.125 138.069 312.67 139.291C313.241 140.571 313.793 144.612 311.586 150.131C310.446 152.983 309.61 154.586 307.863 156.637C305.836 159.018 303.236 162.054 301.399 163.363C299.849 164.466 297.944 166.003 296.382 165.822C295.985 165.776 295.539 165.634 295.462 165.245C295.288 164.366 296.226 161.326 298.286 158.82Z" fill="#F7DCAC"/>
<path d="M272.679 181.584C275.837 179.318 276.001 179.508 276.898 178.856C277.146 178.676 278.524 177.772 279.323 177.276C279.636 177.082 280.15 176.688 281.234 176.146C281.934 175.796 282.267 175.556 282.935 175.277C283.559 175.016 284.195 174.498 285.352 174.681C285.844 174.759 286.257 174.91 286.44 175.23C286.654 175.604 286.758 176.377 286.654 176.688C286.446 177.312 285.943 177.834 285.528 178.424C284.849 179.39 283.963 180.479 282.714 181.469L282.704 181.477C281.2 182.67 279.159 184.288 277.077 185.128C275.862 185.618 275.183 185.689 274.694 185.748C273.624 185.877 272.614 186.032 271.959 185.748C271.776 185.668 270.979 185.172 270.937 184.818C270.834 183.965 271.216 183.367 271.552 182.841L271.556 182.835C272.021 182.108 272.047 182.038 272.679 181.584Z" fill="#F7DCAC"/>
<path d="M387.822 25.4912C389.733 27.2148 391.815 30.0949 393.89 33.8271C396.108 37.8163 398.247 42.6454 400.114 47.7607C403.861 58.0297 406.434 69.2387 406.434 76.9297C406.434 83.1819 405.406 99.6186 403.745 115.77C402.915 123.836 401.93 131.799 400.841 138.355C400.297 141.635 399.73 144.543 399.148 146.929C398.559 149.342 397.979 151.119 397.436 152.194L397.222 152.619L397.27 153.092C399.232 172.299 401.236 209.141 401.236 216.401C401.236 219.279 401.501 221.599 401.001 224.038C400.537 226.309 399.385 228.636 396.39 231.062C394.724 232.413 393.573 233.342 392.639 233.947C391.715 234.547 391.216 234.682 390.862 234.682C390.508 234.682 390.01 234.546 389.085 233.947C388.151 233.342 387.001 232.413 385.334 231.062C382.34 228.636 381.188 226.309 380.723 224.038C380.224 221.599 380.489 219.279 380.489 216.401C380.489 210.048 381.76 168.219 383.631 153.127L383.644 153.023L383.643 152.919L383.48 119.387V29.1631C383.481 29.1479 383.482 29.116 383.486 29.0703C383.494 28.9785 383.511 28.8337 383.548 28.6543C383.623 28.2895 383.772 27.8164 384.056 27.3555C384.524 26.5975 385.5 25.6304 387.822 25.4912Z" fill="#E7E7E7" stroke="black" stroke-width="3.25193"/>
<path d="M129.651 193.086C124.989 173.361 142.362 149.825 155.575 140.653C158.71 138.477 162.824 138.654 167.335 140.356C169.655 141.231 172.081 142.511 174.532 144.081C176.804 145.537 179.098 147.243 181.351 149.109C183.146 150.596 184.915 152.185 186.626 153.83C189.778 156.86 192.732 160.081 195.29 163.211C195.975 164.049 196.632 164.88 197.256 165.7C198.145 166.866 198.969 168.009 199.716 169.111C200.551 170.344 201.291 171.527 201.92 172.637C202.743 174.09 203.374 175.419 203.781 176.574C204.733 179.28 204.779 182.673 204.09 186.421C203.569 189.252 202.63 192.286 201.345 195.381C200.533 197.335 199.585 199.313 198.516 201.28C197.395 203.344 196.143 205.395 194.781 207.393C192.931 210.106 190.878 212.72 188.676 215.13C187.219 216.726 185.696 218.232 184.123 219.619C182.505 221.047 180.834 222.349 179.126 223.492C178.084 224.189 177.029 224.828 175.964 225.4C173.299 226.83 170.471 227.525 167.576 227.604C165.241 227.668 162.863 227.333 160.491 226.66C146.643 222.735 133.021 207.34 129.651 193.086Z" fill="url(#paint0_linear_438_475)"/>
<path d="M167.335 140.356C162.824 138.654 158.71 138.477 155.575 140.653C142.362 149.825 124.989 173.361 129.651 193.086C133.021 207.34 146.643 222.735 160.491 226.66M167.335 140.356C155.891 148.382 135.036 170.002 143.162 192.272C151.289 214.542 158.101 224.477 160.491 226.66M167.335 140.356C169.655 141.231 172.081 142.511 174.532 144.081M160.491 226.66C162.863 227.333 165.241 227.668 167.576 227.604M174.532 144.081C165.009 150.474 146.863 167.157 150.458 182.749C154.952 202.24 158.444 213.958 167.576 227.604M174.532 144.081C176.804 145.537 179.098 147.243 181.351 149.109M167.576 227.604C170.471 227.525 173.299 226.83 175.964 225.4C177.029 224.828 178.084 224.189 179.126 223.492M181.351 149.109C172.414 154.843 155.54 169.567 159.548 182.589C164.557 198.866 169.433 214.467 179.126 223.492M181.351 149.109C183.146 150.596 184.915 152.185 186.626 153.83M179.126 223.492C180.834 222.349 182.505 221.047 184.123 219.619M186.626 153.83C178.4 159.288 162.576 172.45 165.089 181.435C168.23 192.666 175.338 210.38 184.123 219.619M186.626 153.83C189.778 156.86 192.732 160.081 195.29 163.211M184.123 219.619C185.696 218.232 187.219 216.726 188.676 215.13M190.493 158.145C182.993 162.014 168.749 171.976 171.77 180.88C175.546 192.009 181.677 208.369 188.676 215.13M188.676 215.13C190.878 212.72 192.931 210.106 194.781 207.393M195.29 163.211C190.093 166.382 180.052 174.591 181.469 182.055C183.239 191.386 188.999 202.812 194.781 207.393M195.29 163.211C195.975 164.049 196.632 164.88 197.256 165.7M194.781 207.393C196.143 205.395 197.395 203.344 198.516 201.28M197.256 165.7C192.676 168.765 184.403 177.027 187.949 185.552C191.495 194.077 196.471 199.589 198.516 201.28M197.256 165.7C198.145 166.866 198.969 168.009 199.716 169.111M198.516 201.28C199.585 199.313 200.533 197.335 201.345 195.381M199.716 169.111C196.653 171.722 191.387 178.527 194.82 184.86C198.253 191.192 200.6 194.513 201.345 195.381M199.716 169.111C200.551 170.344 201.291 171.527 201.92 172.637M201.345 195.381C202.63 192.286 203.569 189.252 204.09 186.421M201.92 172.637C202.743 174.09 203.374 175.419 203.781 176.574C204.733 179.28 204.779 182.673 204.09 186.421M201.92 172.637C200.92 174.187 199.306 178.216 200.852 181.931C202.398 185.647 203.655 186.473 204.09 186.421" stroke="black" stroke-width="2"/>
<circle cx="128.902" cy="173.439" r="4" transform="rotate(144.207 128.902 173.439)" fill="white"/>
<path d="M128.948 175.208L128.592 171" stroke="black" stroke-width="1.5" stroke-linecap="round"/>
<path d="M127 174.249L130.542 171.949" stroke="black" stroke-width="1.5" stroke-linecap="round"/>
<circle cx="127.356" cy="191.813" r="4" transform="rotate(144.207 127.356 191.813)" fill="white"/>
<path d="M127.898 193.89L125.642 190.32" stroke="black" stroke-width="1.5" stroke-linecap="round"/>
<path d="M125.728 193.937L127.81 190.263" stroke="black" stroke-width="1.5" stroke-linecap="round"/>
<circle opacity="0.05" cx="146.298" cy="180.298" r="9.2138" fill="#FFCDCD" stroke="black" stroke-width="2.16795"/>
<circle opacity="0.05" cx="185.588" cy="193.588" r="6.50386" fill="#FFCDCD" stroke="black" stroke-width="2.16795"/>
<circle opacity="0.05" cx="169.298" cy="165.298" r="9.2138" fill="#FFCDCD" stroke="black" stroke-width="2.16795"/>
<circle opacity="0.05" cx="160.336" cy="210.336" r="3.25193" fill="#FFCDCD" stroke="black" stroke-width="2.16795"/>
<path d="M243.181 78.136C261.824 70.1851 287.974 83.2993 299.261 94.7595C301.938 97.4784 302.464 101.562 301.555 106.296C301.087 108.732 300.239 111.34 299.108 114.023C298.06 116.51 296.77 119.061 295.314 121.599C294.154 123.62 292.89 125.634 291.56 127.6C289.11 131.221 286.439 134.681 283.79 137.734C283.081 138.551 282.373 139.34 281.672 140.095C280.674 141.169 279.688 142.175 278.73 143.099C277.657 144.132 276.617 145.063 275.63 145.871C274.338 146.929 273.136 147.778 272.066 148.375C269.562 149.773 266.227 150.396 262.416 150.355C259.538 150.324 256.388 149.914 253.119 149.174C251.056 148.708 248.945 148.109 246.826 147.391C244.601 146.638 242.366 145.753 240.166 144.751C237.177 143.389 234.253 141.811 231.503 140.051C229.683 138.887 227.939 137.642 226.305 136.329C224.622 134.977 223.055 133.552 221.638 132.064C220.773 131.156 219.964 130.224 219.22 129.272C217.357 126.89 216.191 124.221 215.62 121.381C215.159 119.092 215.085 116.691 215.344 114.239C216.855 99.9257 229.708 83.8821 243.181 78.136Z" fill="url(#paint1_linear_438_475)"/>
<path d="M301.555 106.296C302.464 101.562 301.938 97.4784 299.261 94.7595C287.974 83.2993 261.824 70.1851 243.181 78.136C229.708 83.8821 216.855 99.9257 215.344 114.239M301.555 106.296C291.698 96.3858 266.845 79.5139 246.282 91.3116C225.72 103.109 217.089 111.512 215.344 114.239M301.555 106.296C301.087 108.732 300.239 111.34 299.108 114.023M215.344 114.239C215.085 116.691 215.159 119.092 215.62 121.381M299.108 114.023C291.189 105.727 271.661 90.6846 256.908 96.8807C238.466 104.626 227.513 110.061 215.62 121.381M299.108 114.023C298.06 116.51 296.77 119.061 295.314 121.598M215.62 121.381C216.191 124.221 217.357 126.89 219.22 129.272C219.964 130.224 220.773 131.156 221.638 132.064M295.314 121.598C288.143 113.767 270.763 99.6451 258.613 105.81C243.425 113.517 228.882 120.976 221.638 132.064M295.314 121.598C294.154 123.62 292.89 125.634 291.56 127.6M221.638 132.064C223.055 133.552 224.622 134.977 226.305 136.329M291.56 127.6C284.782 120.422 269.119 107.069 260.693 111.074C250.16 116.081 233.914 126.099 226.305 136.329M291.56 127.6C289.11 131.221 286.439 134.681 283.79 137.734M226.305 136.329C227.939 137.642 229.683 138.887 231.503 140.051M287.966 132.145C282.877 125.413 270.636 113.071 262.376 117.563C252.052 123.178 236.974 132.004 231.503 140.051M231.503 140.051C234.253 141.811 237.177 143.389 240.166 144.751M283.79 137.734C279.781 133.152 269.983 124.655 262.868 127.321C253.976 130.653 243.697 138.274 240.166 144.751M283.79 137.734C283.081 138.551 282.373 139.34 281.672 140.095M240.166 144.751C242.366 145.753 244.601 146.638 246.826 147.391M281.672 140.095C277.872 136.103 268.323 129.357 260.526 134.301C252.729 139.246 248.144 145.088 246.826 147.391M281.672 140.095C280.674 141.169 279.688 142.175 278.73 143.099M246.826 147.391C248.945 148.109 251.056 148.708 253.119 149.174M278.73 143.099C275.636 140.525 268.034 136.494 262.377 140.955C256.721 145.415 253.849 148.293 253.119 149.174M278.73 143.099C277.657 144.132 276.617 145.063 275.63 145.871M253.119 149.174C256.388 149.914 259.538 150.324 262.416 150.355M275.63 145.871C274.338 146.929 273.136 147.778 272.066 148.375C269.562 149.773 266.227 150.396 262.416 150.355M275.63 145.871C273.932 145.149 269.688 144.244 266.289 146.4C262.891 148.556 262.291 149.935 262.416 150.355" stroke="black" stroke-width="2"/>
<circle cx="262.414" cy="74.0544" r="4" transform="rotate(-135.59 262.414 74.0544)" fill="white"/>
<path d="M261 75.168L264.74 73.2069" stroke="black" stroke-width="1.5" stroke-linecap="round"/>
<path d="M261.128 73L264.622 75.3722" stroke="black" stroke-width="1.5" stroke-linecap="round"/>
<circle cx="244.045" cy="75.6579" r="4" transform="rotate(-135.59 244.045 75.6579)" fill="white"/>
<path d="M242.73 77.2666L245.406 73.9996" stroke="black" stroke-width="1.5" stroke-linecap="round"/>
<path d="M242 75.2217L246.143 76.0395" stroke="black" stroke-width="1.5" stroke-linecap="round"/>
<circle opacity="0.05" cx="269.298" cy="127.298" r="9.2138" fill="#FFCDCD" stroke="black" stroke-width="2.16795"/>
<circle opacity="0.05" cx="246.04" cy="133.253" r="3.25193" fill="#FFCDCD" stroke="black" stroke-width="2.16795"/>
<circle opacity="0.05" cx="240.588" cy="99.5878" r="6.50386" fill="#FFCDCD" stroke="black" stroke-width="2.16795"/>
<circle opacity="0.05" cx="272.298" cy="99.2978" r="9.2138" fill="#FFCDCD" stroke="black" stroke-width="2.16795"/>
<path d="M187.883 85.625C180.129 104.351 152.272 113.282 136.189 112.993C132.374 112.925 129.14 110.376 126.477 106.357C125.107 104.29 123.888 101.833 122.818 99.1256C121.826 96.6159 120.963 93.8904 120.227 91.059C119.641 88.803 119.135 86.4798 118.709 84.1448C117.925 79.8438 117.413 75.5028 117.168 71.4687C117.103 70.3881 117.056 69.3296 117.029 68.2997C116.99 66.8335 116.99 65.4254 117.029 64.0947C117.072 62.6056 117.164 61.2134 117.303 59.945C117.486 58.2855 117.75 56.838 118.097 55.6628C118.907 52.9113 120.854 50.1327 123.605 47.495C125.683 45.5032 128.22 43.5916 131.072 41.8327C132.873 40.7224 134.799 39.6729 136.816 38.7023C138.932 37.6837 141.148 36.752 143.421 35.9284C146.509 34.8097 149.703 33.8904 152.898 33.223C155.014 32.7813 157.13 32.45 159.216 32.2444C161.364 32.0328 163.481 31.9543 165.534 32.0257C166.788 32.0693 168.018 32.1688 169.216 32.3279C172.214 32.7259 174.914 33.8165 177.309 35.4454C179.24 36.7588 180.973 38.4222 182.504 40.3547C191.441 51.6371 193.487 72.0918 187.883 85.625Z" fill="url(#paint2_linear_438_475)"/>
<path d="M126.477 106.357C129.14 110.376 132.374 112.925 136.189 112.993C152.272 113.282 180.129 104.351 187.883 85.625C193.487 72.0918 191.441 51.6371 182.504 40.3547M126.477 106.357C140.454 106.539 170.015 101.2 176.448 78.3829C182.881 55.566 183.166 43.5237 182.504 40.3547M126.477 106.357C125.107 104.29 123.888 101.833 122.818 99.1256M182.504 40.3547C180.973 38.4222 179.24 36.7588 177.309 35.4454M122.818 99.1256C134.281 99.5097 158.757 96.5904 164.96 81.84C172.714 63.4021 176.735 51.855 177.309 35.4454M122.818 99.1256C121.826 96.6159 120.963 93.8904 120.227 91.059M177.309 35.4454C174.914 33.8165 172.214 32.7259 169.216 32.3279C168.018 32.1688 166.788 32.0693 165.534 32.0257M120.227 91.059C130.83 91.6352 153.128 89.5609 157.493 76.6544C162.95 60.5212 168.119 45.0156 165.534 32.0257M120.227 91.059C119.641 88.803 119.135 86.4798 118.709 84.1448M165.534 32.0257C163.481 31.9543 161.364 32.0328 159.216 32.2444M118.709 84.1448C128.574 84.5289 149.107 83.1076 152.324 74.3496C156.345 63.4021 160.94 44.8769 159.216 32.2444M118.709 84.1448C117.925 79.8438 117.413 75.5028 117.168 71.4687M159.216 32.2444C157.13 32.45 155.014 32.7813 152.898 33.223M118.097 78.3829C126.442 79.6313 143.823 79.881 146.58 70.8925C150.026 59.6569 154.621 42.8007 152.898 33.223M152.898 33.223C149.703 33.8904 146.509 34.8097 143.421 35.9284M117.168 71.4687C123.239 71.9358 136.184 71.1492 139.401 64.2664C143.421 55.6628 145.431 43.0258 143.421 35.9284M117.168 71.4687C117.103 70.3881 117.056 69.3296 117.029 68.2997M143.421 35.9284C141.148 36.752 138.932 37.6837 136.816 38.7023M117.029 68.2997C122.537 68.4917 134.08 66.6287 136.189 57.6402C138.299 48.6518 137.486 41.2698 136.816 38.7023M117.029 68.2997C116.99 66.8335 116.99 65.4254 117.029 64.0947M136.816 38.7023C134.799 39.6729 132.873 40.7224 131.072 41.8327M117.029 64.0947C121.04 63.7678 129.292 61.3278 130.211 54.1831C131.13 47.0384 131.168 42.9726 131.072 41.8327M117.029 64.0947C117.072 62.6056 117.164 61.2134 117.303 59.945M131.072 41.8327C128.22 43.5916 125.683 45.5032 123.605 47.495M117.303 59.945C117.486 58.2855 117.75 56.838 118.097 55.6628C118.907 52.9113 120.854 50.1327 123.605 47.495M117.303 59.945C119.021 59.2728 122.686 56.9488 123.605 53.0308C124.524 49.1127 123.988 47.7077 123.605 47.495" stroke="black" stroke-width="2"/>
<circle cx="177" cy="102" r="4" fill="white"/>
<path d="M176.437 104.027L177.708 100" stroke="black" stroke-width="1.5" stroke-linecap="round"/>
<path d="M175 102.4L179.151 101.621" stroke="black" stroke-width="1.5" stroke-linecap="round"/>
<circle cx="189" cy="88" r="4" fill="white"/>
<path d="M188.437 90.0273L189.708 86" stroke="black" stroke-width="1.5" stroke-linecap="round"/>
<path d="M187 88.4004L191.151 87.6207" stroke="black" stroke-width="1.5" stroke-linecap="round"/>
<circle opacity="0.05" cx="170.336" cy="53.3359" r="3.25193" fill="#FFCDCD" stroke="black" stroke-width="2.16795"/>
<circle opacity="0.05" cx="145.298" cy="59.2978" r="9.2138" fill="#FFCDCD" stroke="black" stroke-width="2.16795"/>
<circle opacity="0.05" cx="132.298" cy="81.2978" r="9.2138" fill="#FFCDCD" stroke="black" stroke-width="2.16795"/>
<circle opacity="0.05" cx="162.588" cy="89.5878" r="6.50386" fill="#FFCDCD" stroke="black" stroke-width="2.16795"/>
<defs>
<linearGradient id="paint0_linear_438_475" x1="204.034" y1="177.506" x2="127.454" y2="187.836" gradientUnits="userSpaceOnUse">
<stop stop-color="#827767"/>
<stop offset="1" stop-color="#E7DFD2"/>
</linearGradient>
<linearGradient id="paint1_linear_438_475" x1="271.192" y1="148.783" x2="247.981" y2="75.0776" gradientUnits="userSpaceOnUse">
<stop stop-color="#827767"/>
<stop offset="1" stop-color="#E7DFD2"/>
</linearGradient>
<linearGradient id="paint2_linear_438_475" x1="118.436" y1="54.7593" x2="186.595" y2="91.1683" gradientUnits="userSpaceOnUse">
<stop stop-color="#827767"/>
<stop offset="1" stop-color="#E7DFD2"/>
</linearGradient>
</defs>
</svg>
