<svg width="409" height="267" viewBox="0 0 409 267" fill="none" xmlns="http://www.w3.org/2000/svg">
<path d="M12.7012 92.8711L11.79 92.4248L11.7871 92.4229C11.7835 92.421 11.7771 92.4183 11.7686 92.4141C11.7512 92.4054 11.7238 92.3914 11.6875 92.373C11.6149 92.3363 11.5056 92.2807 11.3652 92.207C11.0837 92.0593 10.6765 91.8409 10.1875 91.5615C9.20603 91.0008 7.90792 90.2042 6.61816 89.2568C5.31864 88.3023 4.0835 87.2343 3.18848 86.1387C2.27366 85.0187 1.86133 84.0512 1.86133 83.2686V26.5371C1.86133 26.2378 2.10399 25.9951 2.40332 25.9951H5.38379C5.68312 25.9951 5.92578 26.2378 5.92578 26.5371V63.668C5.92589 65.7631 7.62467 67.4617 9.71973 67.4619H11.7529C13.848 67.4617 15.5468 65.7631 15.5469 63.668V26.5371C15.5469 26.2378 15.7895 25.9951 16.0889 25.9951H19.0693C19.3687 25.9951 19.6113 26.2378 19.6113 26.5371V63.668C19.6114 65.7632 21.3101 67.4619 23.4053 67.4619H25.4375C27.5328 67.4619 29.2313 65.7632 29.2314 63.668V26.5371C29.2314 26.2379 29.4742 25.9953 29.7734 25.9951H32.7549C33.0541 25.9952 33.2969 26.2379 33.2969 26.5371V83.2686C33.2969 84.0512 32.8845 85.0187 31.9697 86.1387C31.0747 87.2343 29.8396 88.3023 28.54 89.2568C27.2502 90.2043 25.9512 91.0008 24.9697 91.5615C24.4809 91.8408 24.0745 92.0593 23.793 92.207C23.6526 92.2807 23.5434 92.3363 23.4707 92.373C23.4344 92.3914 23.407 92.4054 23.3896 92.4141C23.3811 92.4183 23.3748 92.421 23.3711 92.4229L23.3672 92.4248L22.457 92.8711V93.8848C22.457 112.515 23.8113 140.664 25.1631 165.445C26.5186 190.296 27.8652 211.674 27.8652 216.923C27.8652 219.798 28.1285 222.121 27.6328 224.562C27.171 226.835 26.0261 229.163 23.0547 231.588C21.4002 232.938 20.2587 233.867 19.332 234.472C18.4146 235.071 17.9241 235.202 17.5791 235.202C17.2341 235.202 16.7436 235.071 15.8262 234.472C14.8996 233.867 13.7579 232.938 12.1035 231.588C9.13215 229.163 7.98719 226.835 7.52539 224.562C7.02965 222.121 7.29297 219.798 7.29297 216.923C7.29299 211.674 8.63858 190.296 9.99414 165.445C11.3459 140.664 12.7012 112.515 12.7012 93.8848V92.8711Z" fill="#E7E7E7" stroke="black" stroke-width="3.25193"/>
<path d="M206.733 25.9951C249.093 25.9951 287.373 38.1067 315.02 57.6055C342.672 77.1073 359.574 103.897 359.574 133.309C359.574 162.721 342.672 189.51 315.02 209.012C287.373 228.511 249.093 240.622 206.733 240.622C164.374 240.622 126.094 228.511 98.446 209.012C70.7941 189.51 53.8923 162.721 53.8923 133.309C53.8924 103.897 70.7942 77.1073 98.446 57.6055C126.094 38.1067 164.374 25.9951 206.733 25.9951Z" fill="white" stroke="black" stroke-width="3.25193"/>
<path d="M206.733 46.5898C243.31 46.5898 276.4 56.3337 300.33 72.0586C324.263 87.7865 338.978 109.453 338.978 133.308C338.978 157.163 324.264 178.83 300.33 194.558C276.4 210.282 243.31 220.026 206.733 220.026C170.155 220.026 137.066 210.283 113.136 194.558C89.2023 178.83 74.4878 157.163 74.4878 133.308C74.4879 109.453 89.2024 87.7865 113.136 72.0586C137.066 56.3337 170.155 46.5899 206.733 46.5898Z" fill="white" stroke="#D6D6D6" stroke-width="1.08398"/>
<path d="M159.89 82.373C162.832 81.8198 166.006 81.4736 167.168 81.4736L172.588 81.4736C174.465 81.4736 175.84 81.8198 176.924 82.3618C178.484 83.1418 180.034 83.8052 180.718 85.6138C181.497 87.6784 181.122 90.414 180.176 92.1176C179.269 93.7498 178.989 94.1244 177.204 95.4722C174.716 97.3505 170.693 99.5337 166.129 100.543C159.859 101.929 155.961 101.953 153.618 102.415C145.672 103.982 143.25 105.871 141.694 106.751C139.344 108.081 135.68 110.518 132.481 113.797C127.414 118.991 125.818 120.939 124.186 122.977C122.977 124.486 121.589 126.066 120.507 128.167C119.358 130.4 117.716 133.95 116.709 138.992C115.679 144.148 116.241 147.577 116.827 149.568C117.305 151.194 118.144 153.692 119.009 155.857C120.212 158.868 122.081 164.006 119.964 165.558C119.72 165.737 118.739 165.945 118.389 165.828C116.763 165.286 116.763 164.744 115.679 163.66C114.986 162.967 112.964 159.897 109.815 152.541C107.292 146.65 105.349 142.529 106.098 135.309C106.46 131.822 107.643 125.918 110.946 118.457C112.525 114.889 114.317 111.903 116.874 108.564C119.431 105.226 122.655 101.643 125.067 99.2361C127.479 96.8294 129.032 95.6351 132.7 93.4998C136.368 91.3646 141.93 88.273 145.464 86.6399C150.262 84.4232 154.18 83.4467 159.89 82.373Z" fill="#F7DCAC"/>
<path d="M298.037 159.341C300.513 156.329 301.039 156.062 302.123 154.978L303.749 153.352C304.833 152.268 304.903 151.895 305.917 149.559C306.49 147.666 306.27 145.372 306.346 144.03C306.479 141.658 306.459 139.978 306.459 138.719C306.459 137.644 306.896 136.929 308.085 136.56C308.786 136.343 310.018 136.92 310.253 137.102C311.22 137.853 311.876 138.591 312.421 139.812C312.992 141.093 313.544 145.133 311.337 150.652C310.197 153.504 309.361 155.107 307.614 157.158C305.587 159.539 302.987 162.576 301.15 163.884C299.6 164.988 297.695 166.525 296.133 166.343C295.735 166.297 295.29 166.156 295.213 165.766C295.039 164.887 295.977 161.847 298.037 159.341Z" fill="#F7DCAC"/>
<path d="M272.43 182.105C275.588 179.84 275.752 180.029 276.649 179.377C276.897 179.197 278.275 178.293 279.074 177.798C279.387 177.604 279.901 177.209 280.985 176.667C281.685 176.318 282.018 176.078 282.686 175.799C283.31 175.538 283.946 175.019 285.103 175.202C285.595 175.28 286.008 175.431 286.191 175.751C286.405 176.125 286.509 176.898 286.405 177.209C286.197 177.833 285.694 178.355 285.279 178.946C284.6 179.911 283.714 181 282.465 181.991L282.455 181.998C280.951 183.191 278.91 184.81 276.828 185.65C275.613 186.14 274.934 186.21 274.445 186.269C273.375 186.399 272.365 186.554 271.71 186.269C271.527 186.19 270.73 185.694 270.688 185.339C270.585 184.486 270.967 183.888 271.303 183.363L271.307 183.356C271.772 182.629 271.797 182.559 272.43 182.105Z" fill="#F7DCAC"/>
<path d="M387.573 26.0127C389.484 27.7363 391.566 30.6164 393.641 34.3486C395.859 38.3378 397.998 43.1668 399.865 48.2822C403.612 58.5512 406.185 69.7602 406.185 77.4512C406.185 83.7034 405.157 100.14 403.496 116.291C402.666 124.358 401.681 132.32 400.592 138.877C400.048 142.156 399.481 145.065 398.899 147.45C398.31 149.864 397.73 151.64 397.187 152.716L396.973 153.141L397.021 153.613C398.983 172.821 400.987 209.663 400.987 216.923C400.987 219.8 401.252 222.121 400.752 224.56C400.288 226.83 399.136 229.158 396.141 231.584C394.475 232.934 393.324 233.863 392.39 234.469C391.466 235.068 390.967 235.203 390.613 235.203C390.259 235.203 389.761 235.068 388.836 234.469C387.902 233.863 386.752 232.934 385.085 231.584C382.091 229.158 380.939 226.83 380.474 224.56C379.975 222.121 380.24 219.8 380.24 216.923C380.24 210.57 381.511 168.741 383.382 153.648L383.395 153.545L383.394 153.44L383.231 119.908V29.6846C383.232 29.6693 383.233 29.6375 383.237 29.5918C383.245 29.5 383.262 29.3552 383.299 29.1758C383.374 28.811 383.523 28.3379 383.807 27.877C384.275 27.119 385.251 26.1519 387.573 26.0127Z" fill="#E7E7E7" stroke="black" stroke-width="3.25193"/>
<path d="M297.219 75.8576L300.471 94.8272C298.303 137.753 267.048 150.652 251.692 151.736C283.777 131.357 289.631 105.306 288.547 94.8272C257.762 94.8272 233.083 88.6844 224.592 85.6131L242.478 66.1015L224.592 41.1703C238.901 35.9672 257.654 40.0863 265.241 42.7963L277.165 50.3841L288.547 60.1399L297.219 75.8576Z" fill="#FF8585"/>
<path d="M112.401 75.8576L109.149 94.8272C111.317 137.753 142.571 150.652 157.928 151.736C125.842 131.357 119.988 105.306 121.072 94.8272C151.857 94.8272 176.536 88.6844 185.027 85.6131L167.141 66.1015L185.027 41.1703C170.719 35.9672 151.966 40.0863 144.378 42.7963L132.454 50.3841L121.072 60.1399L112.401 75.8576Z" fill="#FF8585"/>
<path d="M269.578 174.499C274.347 170.163 287.463 170.163 293.425 170.705L271.204 181.003C268.674 180.642 264.808 178.835 269.578 174.499Z" fill="#FF8585"/>
<path d="M264.699 207.019L267.951 199.973C270.661 199.612 278.358 200.298 287.463 205.935C296.568 211.572 298.845 220.93 298.845 224.904C295.773 222.556 288.764 217.1 285.295 214.065C281.826 211.03 270.119 208.103 264.699 207.019Z" fill="#FF8585"/>
<path d="M145.738 207.989L142.888 200.771C140.203 200.258 132.48 200.51 123.072 205.625C113.663 210.74 110.863 219.955 110.64 223.923C113.838 221.751 121.144 216.699 124.778 213.864C128.412 211.029 140.266 208.766 145.738 207.989Z" fill="#FF8585"/>
<path d="M137.971 181.515C133.997 176.44 121.067 174.239 115.098 173.773L135.277 187.655C137.831 187.723 141.945 186.59 137.971 181.515Z" fill="#FF8585"/>
<path d="M108.787 95.5532C112.718 95.5532 116.519 95.4887 120.186 95.3702M300.29 95.5532C296.371 95.5532 292.581 95.489 288.925 95.3713M185.388 143.429V124.279M223.689 143.429V124.279M120.186 95.3702C161.186 94.0455 185.388 85.9781 185.388 85.9781L166.238 66.8278L185.388 41.5495C177.695 38.8525 169.516 37.8236 161.395 38.5314C153.273 39.2391 145.395 41.6671 138.284 45.6542C131.174 49.6412 124.993 55.096 120.153 61.6559C115.313 68.2158 111.924 75.7308 110.212 83.7013C108.5 91.6718 108.504 99.9153 110.224 107.884C111.944 115.853 115.34 123.365 120.186 129.92C125.033 136.475 131.219 141.924 138.333 145.904C145.448 149.884 153.328 152.304 161.451 153.004C157.566 151.136 146.763 143.904 134.622 129.92C122.482 115.935 119.94 101.06 120.186 95.3702ZM288.925 95.3713C247.905 94.0499 223.689 85.9781 223.689 85.9781L242.839 66.8278L223.689 41.5495C231.382 38.8525 239.561 37.8236 247.683 38.5314C255.804 39.2391 263.682 41.6671 270.793 45.6542C277.904 49.6412 284.084 55.096 288.925 61.6559C293.765 68.2158 297.153 75.7308 298.865 83.7013C300.577 91.6718 300.573 99.9153 298.853 107.884C297.134 115.853 293.738 123.365 288.891 129.92C284.045 136.475 277.858 141.924 270.744 145.904C263.629 149.884 255.749 152.304 247.627 153.004C257.111 148.484 266.806 141.152 274.997 131.141C284.753 119.217 288.618 102.958 288.925 95.3713Z" stroke="black" stroke-width="2.89422" stroke-linecap="round" stroke-linejoin="round"/>
<path d="M204.539 229.602C241.556 229.602 271.565 210.311 271.565 186.514C271.565 162.717 241.556 143.426 204.539 143.426C167.521 143.426 137.513 162.717 137.513 186.514C137.513 210.311 167.521 229.602 204.539 229.602Z" fill="white"/>
<path d="M204.539 229.602C241.556 229.602 271.565 210.311 271.565 186.514C271.565 162.717 241.556 143.426 204.539 143.426C167.521 143.426 137.513 162.717 137.513 186.514C137.513 210.311 167.521 229.602 204.539 229.602Z" fill="#FF8585"/>
<path d="M204.539 229.602C241.556 229.602 271.565 210.311 271.565 186.514C271.565 162.717 241.556 143.426 204.539 143.426C167.521 143.426 137.513 162.717 137.513 186.514C137.513 210.311 167.521 229.602 204.539 229.602Z" stroke="black" stroke-width="2.89422" stroke-linecap="round" stroke-linejoin="round"/>
<path d="M137.513 181.726C137.513 181.726 127.938 172.151 108.787 172.151C115.773 175.282 131.153 183.062 136.79 189.132L137.874 181.726M147.088 209.186C144.559 209.005 136.898 209.511 126.492 212.98C116.086 216.449 110.353 225.506 108.787 229.602C108.787 213.324 123.764 201.598 140.042 201.598L147.088 208.645M271.565 181.726C271.565 181.726 281.14 172.151 300.29 172.151C295.834 170.043 283.344 167.561 269.035 174.499L271.565 181.726ZM269.035 199.972C285.313 199.972 300.29 213.324 300.29 229.602C298.544 226.048 293.425 218.129 285.295 214.064C276.081 209.457 270.119 208.102 264.699 207.018L269.035 199.972Z" stroke="black" stroke-width="2.89422" stroke-linecap="round" stroke-linejoin="round"/>
<path d="M190.447 163.118L194.138 165.286L199.841 162.034L204.203 165.286L208.9 162.396L212.927 165.286L218.63 162.396" stroke="black" stroke-width="2.89422" stroke-linecap="round" stroke-linejoin="round"/>
<circle cx="185.569" cy="130.057" r="6.68272" fill="white" stroke="black" stroke-width="2.89422"/>
<circle cx="223.508" cy="130.057" r="6.68272" fill="white" stroke="black" stroke-width="2.89422"/>
<g opacity="0.05">
<circle cx="137.874" cy="70.4374" r="9.2138" fill="#FFCDCD" stroke="black" stroke-width="2.16795"/>
<circle cx="150.882" cy="182.088" r="9.2138" fill="#FFCDCD" stroke="black" stroke-width="2.16795"/>
<circle cx="182.317" cy="165.828" r="9.2138" fill="#FFCDCD" stroke="black" stroke-width="2.16795"/>
<circle cx="164.432" cy="50.3837" r="6.50386" fill="#FFCDCD" stroke="black" stroke-width="2.16795"/>
<circle cx="254.402" cy="55.8037" r="3.25193" fill="#FFCDCD" stroke="black" stroke-width="2.16795"/>
<circle cx="178.523" cy="212.98" r="3.25193" fill="#FFCDCD" stroke="black" stroke-width="2.16795"/>
<circle cx="222.966" cy="162.034" r="3.25193" fill="#FFCDCD" stroke="black" stroke-width="2.16795"/>
<circle cx="289.089" cy="87.2392" r="6.50386" fill="#FFCDCD" stroke="black" stroke-width="2.16795"/>
<circle cx="202.371" cy="198.889" r="6.50386" fill="#FFCDCD" stroke="black" stroke-width="2.16795"/>
<circle cx="236.516" cy="207.018" r="9.2138" fill="#FFCDCD" stroke="black" stroke-width="2.16795"/>
<circle cx="261.447" cy="80.1933" r="9.2138" fill="#FFCDCD" stroke="black" stroke-width="2.16795"/>
<circle cx="244.104" cy="175.584" r="9.2138" fill="#FFCDCD" stroke="black" stroke-width="2.16795"/>
</g>
<path d="M183.385 131.837L188.805 128.585" stroke="black" stroke-width="2.16795" stroke-linecap="round"/>
<path d="M220.798 131.837L226.218 128.585" stroke="black" stroke-width="2.16795" stroke-linecap="round"/>
<path d="M183.389 128.589L188.813 131.833" stroke="black" stroke-width="2.16795" stroke-linecap="round"/>
<path d="M220.802 128.589L226.226 131.833" stroke="black" stroke-width="2.16795" stroke-linecap="round"/>
</svg>
