<svg width="231" height="267" viewBox="0 0 231 267" fill="none" xmlns="http://www.w3.org/2000/svg">
<path d="M208.353 74.9123L211.605 93.8818C209.437 136.807 178.182 149.706 162.826 150.79C194.911 130.412 200.765 104.36 199.681 93.8818C168.896 93.8818 144.217 87.7391 135.726 84.6678L153.612 65.1562L135.726 40.225C150.035 35.0219 168.788 39.141 176.375 41.851L188.299 49.4388L199.681 59.1946L208.353 74.9123Z" fill="#FF8585"/>
<path d="M23.5348 74.9123L20.2829 93.8818C22.4508 136.807 53.7055 149.706 69.0618 150.79C36.9761 130.412 31.1226 104.36 32.2066 93.8818C62.9916 93.8818 87.6701 87.7391 96.1613 84.6678L78.2756 65.1562L96.1613 40.225C81.8528 35.0219 63.1 39.141 55.5121 41.851L43.5884 49.4388L32.2066 59.1946L23.5348 74.9123Z" fill="#FF8585"/>
<path d="M180.711 173.554C185.481 169.218 198.597 169.218 204.559 169.76L182.337 180.058C179.808 179.697 175.942 177.89 180.711 173.554Z" fill="#FF8585"/>
<path d="M175.833 206.074L179.085 199.028C181.795 198.666 189.492 199.353 198.597 204.99C207.702 210.626 209.979 219.985 209.979 223.959C206.907 221.611 199.898 216.155 196.429 213.119C192.96 210.084 181.253 207.158 175.833 206.074Z" fill="#FF8585"/>
<path d="M56.872 207.044L54.0221 199.826C51.3368 199.313 43.6141 199.565 34.2057 204.679C24.7973 209.794 21.9975 219.01 21.7737 222.978C24.9724 220.806 32.2782 215.753 35.9124 212.918C39.5465 210.084 51.3997 207.821 56.872 207.044Z" fill="#FF8585"/>
<path d="M49.1051 180.57C45.1308 175.495 32.2007 173.294 26.2324 172.828L46.4107 186.709C48.9647 186.777 53.0793 185.645 49.1051 180.57Z" fill="#FF8585"/>
<path d="M19.9216 94.6079C23.8521 94.6079 27.6534 94.5433 31.3204 94.4249M211.424 94.6079C207.506 94.6079 203.716 94.5437 200.059 94.4259M96.5227 142.484V123.333M134.823 142.484V123.333M31.3204 94.4249C72.3202 93.1002 96.5227 85.0327 96.5227 85.0327L77.3724 65.8825L96.5227 40.6041C88.8294 37.9071 80.6503 36.8783 72.5288 37.586C64.4074 38.2938 56.5295 40.7218 49.4187 44.7089C42.308 48.6959 36.1272 54.1507 31.287 60.7106C26.4469 67.2705 23.0583 74.7854 21.3465 82.7559C19.6346 90.7264 19.6386 98.97 21.3583 106.939C23.078 114.908 26.4739 122.419 31.3204 128.974C36.167 135.53 42.3531 140.978 49.4678 144.958C56.5824 148.939 64.4627 151.359 72.5848 152.059C68.7006 150.191 57.8969 142.959 45.7563 128.974C33.6158 114.99 31.0738 100.115 31.3204 94.4249ZM200.059 94.4259C159.039 93.1046 134.823 85.0327 134.823 85.0327L153.973 65.8825L134.823 40.6041C142.516 37.9071 150.696 36.8783 158.817 37.586C166.938 38.2938 174.816 40.7218 181.927 44.7089C189.038 48.6959 195.219 54.1507 200.059 60.7106C204.899 67.2705 208.288 74.7854 209.999 82.7559C211.711 90.7264 211.707 98.97 209.988 106.939C208.268 114.908 204.872 122.419 200.025 128.974C195.179 135.53 188.993 140.978 181.878 144.958C174.763 148.939 166.883 151.359 158.761 152.059C168.246 147.539 177.94 140.207 186.131 130.195C195.887 118.271 199.752 102.013 200.059 94.4259Z" stroke="black" stroke-width="2.89422" stroke-linecap="round" stroke-linejoin="round"/>
<path d="M115.673 228.657C152.69 228.657 182.699 209.365 182.699 185.569C182.699 161.772 152.69 142.48 115.673 142.48C78.6555 142.48 48.647 161.772 48.647 185.569C48.647 209.365 78.6555 228.657 115.673 228.657Z" fill="white"/>
<path d="M115.673 228.657C152.69 228.657 182.699 209.365 182.699 185.569C182.699 161.772 152.69 142.48 115.673 142.48C78.6555 142.48 48.647 161.772 48.647 185.569C48.647 209.365 78.6555 228.657 115.673 228.657Z" fill="#FF8585"/>
<path d="M115.673 228.657C152.69 228.657 182.699 209.365 182.699 185.569C182.699 161.772 152.69 142.48 115.673 142.48C78.6555 142.48 48.647 161.772 48.647 185.569C48.647 209.365 78.6555 228.657 115.673 228.657Z" stroke="black" stroke-width="2.89422" stroke-linecap="round" stroke-linejoin="round"/>
<path d="M48.647 180.781C48.647 180.781 39.0719 171.206 19.9216 171.206C26.9072 174.337 42.2876 182.117 47.9243 188.187L49.0083 180.781M58.2221 208.241C55.6928 208.06 48.0327 208.566 37.6265 212.035C27.2203 215.503 21.4873 224.561 19.9216 228.656C19.9216 212.379 34.8985 200.653 51.1762 200.653L58.2221 207.699M182.699 180.781C182.699 180.781 192.274 171.206 211.424 171.206C206.968 169.098 194.478 166.616 180.169 173.553L182.699 180.781ZM180.169 199.027C196.447 199.027 211.424 212.379 211.424 228.656C209.678 225.103 204.559 217.184 196.429 213.119C187.215 208.512 181.253 207.157 175.834 206.073L180.169 199.027Z" stroke="black" stroke-width="2.89422" stroke-linecap="round" stroke-linejoin="round"/>
<path d="M101.581 162.172L105.272 164.34L110.976 161.088L115.337 164.34L120.034 161.449L124.061 164.34L129.764 161.449" stroke="black" stroke-width="2.89422" stroke-linecap="round" stroke-linejoin="round"/>
<circle cx="96.7032" cy="129.111" r="6.68272" fill="white" stroke="black" stroke-width="2.89422"/>
<circle cx="134.642" cy="129.111" r="6.68272" fill="white" stroke="black" stroke-width="2.89422"/>
<circle cx="96.7032" cy="129.111" r="2.70994" fill="black"/>
<circle cx="134.642" cy="129.111" r="2.70994" fill="black"/>
<g opacity="0.05">
<circle cx="49.0082" cy="69.4921" r="9.2138" fill="#FFCDCD" stroke="black" stroke-width="2.16795"/>
<circle cx="62.0159" cy="181.142" r="9.2138" fill="#FFCDCD" stroke="black" stroke-width="2.16795"/>
<circle cx="93.4512" cy="164.882" r="9.2138" fill="#FFCDCD" stroke="black" stroke-width="2.16795"/>
<circle cx="75.5656" cy="49.4384" r="6.50386" fill="#FFCDCD" stroke="black" stroke-width="2.16795"/>
<circle cx="165.536" cy="54.8584" r="3.25193" fill="#FFCDCD" stroke="black" stroke-width="2.16795"/>
<circle cx="89.6573" cy="212.035" r="3.25193" fill="#FFCDCD" stroke="black" stroke-width="2.16795"/>
<circle cx="134.1" cy="161.088" r="3.25193" fill="#FFCDCD" stroke="black" stroke-width="2.16795"/>
<circle cx="200.223" cy="86.2939" r="6.50386" fill="#FFCDCD" stroke="black" stroke-width="2.16795"/>
<circle cx="113.505" cy="197.943" r="6.50386" fill="#FFCDCD" stroke="black" stroke-width="2.16795"/>
<circle cx="147.65" cy="206.073" r="9.2138" fill="#FFCDCD" stroke="black" stroke-width="2.16795"/>
<circle cx="172.582" cy="79.248" r="9.2138" fill="#FFCDCD" stroke="black" stroke-width="2.16795"/>
<circle cx="155.238" cy="174.638" r="9.2138" fill="#FFCDCD" stroke="black" stroke-width="2.16795"/>
</g>
</svg>
