<svg width="362" height="257" viewBox="0 0 362 257" fill="none" xmlns="http://www.w3.org/2000/svg">
<path d="M312.975 48.5861C320.364 46.742 359.911 99.7349 359.911 99.7349L310.798 87.0996L280.043 208.378L269.041 206.599C267.986 211.413 267.135 215.875 266.536 219.869L228.719 218.819L206.204 254.685C142.229 229.347 41.0167 176.816 2.57373 148.313C47.7884 166.262 120.804 187.692 151.9 192.721C148.642 185.306 124.091 79.6651 112.223 27.7717C128.375 43.0072 153.363 66.2125 177.465 87.8713C176.042 68.4817 174.066 33.7205 171.945 2.98776C193.875 33.3783 241.237 94.8946 262.141 120.898C281.249 90.1328 305.585 50.4301 312.975 48.5861Z" fill="url(#paint0_linear_340_24)"/>
<path d="M244.463 150.962C249.537 141.457 256.24 130.399 262.141 120.898M266.536 219.869L228.719 218.819M266.536 219.869C263.789 209.295 248.534 163.101 241.25 141.325M266.536 219.869C267.135 215.875 267.986 211.413 269.041 206.599M228.719 218.819L206.204 254.685M228.719 218.819C226.891 213.289 222.254 200.856 218.33 195.36M206.204 254.685C189.46 237.12 155.158 200.136 151.9 192.721M206.204 254.685C142.229 229.347 41.0167 176.816 2.57373 148.313C47.7884 166.262 120.804 187.692 151.9 192.721M151.9 192.721C148.642 185.306 124.091 79.6651 112.223 27.7717M151.9 192.721C168.024 195.328 215.428 197.929 218.33 195.36M112.223 27.7717C128.375 43.0072 153.363 66.2125 177.465 87.8713M112.223 27.7717C130.639 69.2434 190.634 156.777 218.33 195.36M241.25 141.325C239.141 158.543 221.232 192.79 218.33 195.36M241.25 141.325C233.577 135.526 224.838 130.061 210.799 116.648M310.798 87.0996L306.908 86.0987C296.913 112.837 277.075 169.935 269.041 206.599M310.798 87.0996L359.911 99.7349C359.911 99.7349 320.364 46.742 312.975 48.5861C305.585 50.4301 281.249 90.1328 262.141 120.898M310.798 87.0996L280.043 208.378L269.041 206.599M262.141 120.898C241.237 94.8946 193.875 33.3783 171.945 2.98776M171.945 2.98776C174.066 33.7205 176.042 68.4817 177.465 87.8713M171.945 2.98776C179.832 34.6083 203.45 104.466 210.799 116.648M177.465 87.8713C187.45 96.844 201.809 108.883 210.799 116.648" stroke="black" stroke-width="2.67" stroke-linejoin="round"/>
<defs>
<linearGradient id="paint0_linear_340_24" x1="200.08" y1="7.53742" x2="161.288" y2="247.421" gradientUnits="userSpaceOnUse">
<stop stop-color="#ECDAFF"/>
<stop offset="1" stop-color="#FFE8CF"/>
</linearGradient>
</defs>
</svg>
