<svg width="113" height="113" viewBox="0 0 113 113" fill="none" xmlns="http://www.w3.org/2000/svg">
<path d="M19.1723 95.5793C21.716 97.713 24.9299 98.8825 28.25 98.8825C31.5701 98.8825 34.784 97.713 37.3277 95.5793C39.8716 93.445 41.5823 90.4825 42.1592 87.2123C42.7361 83.9421 42.1423 80.5731 40.4822 77.6971L30.6183 62.5033C30.3616 62.1098 30.0108 61.7866 29.5977 61.5629C29.1845 61.3392 28.7222 61.222 28.2524 61.222C27.7825 61.222 27.3202 61.3392 26.907 61.5629C26.4939 61.7866 26.1431 62.1098 25.8864 62.5033L16.0083 77.6971C14.3488 80.5736 13.7558 83.9429 14.3336 87.2132C14.9113 90.4835 16.6276 93.4456 19.1723 95.5793ZM75.6723 95.5793C78.216 97.713 81.4299 98.8825 84.75 98.8825C88.0701 98.8825 91.284 97.713 93.8277 95.5793C96.3716 93.445 98.0823 90.4825 98.6592 87.2123C99.2361 83.9421 98.6423 80.5731 96.9823 77.6971L87.1183 62.5033C86.8616 62.1098 86.5108 61.7866 86.0977 61.5629C85.6846 61.3392 85.2222 61.222 84.7524 61.222C84.2825 61.222 83.8202 61.3392 83.407 61.5629C82.9939 61.7866 82.6431 62.1098 82.3864 62.5033L72.5083 77.6971C70.8488 80.5736 70.2558 83.9429 70.8336 87.2132C71.4113 90.4835 73.1229 93.4456 75.6676 95.5793H75.6723ZM47.4223 48.496C49.966 50.6297 53.1799 51.7992 56.5 51.7992C59.8201 51.7992 63.034 50.6297 65.5777 48.496C68.1216 46.3617 69.8323 43.3992 70.4092 40.129C70.9861 36.8587 70.3923 33.4898 68.7322 30.6138L58.8683 15.42C58.6116 15.0265 58.2608 14.7033 57.8477 14.4796C57.4345 14.2558 56.9722 14.1387 56.5024 14.1387C56.0325 14.1387 55.5702 14.2558 55.157 14.4796C54.7439 14.7033 54.3931 15.0265 54.1364 15.42L44.2583 30.6138C42.5988 33.4903 42.0058 36.8596 42.5836 40.1299C43.1613 43.4001 44.8776 46.3623 47.4223 48.496Z" stroke="black" stroke-width="4" stroke-linecap="round" stroke-linejoin="round"/>
</svg>
