<svg width="113" height="113" viewBox="0 0 113 113" fill="none" xmlns="http://www.w3.org/2000/svg">
<path d="M35.293 20.3496C40.9325 20.3479 46.3492 22.5168 50.4258 26.3936L50.8164 26.7744L50.8203 26.7783L55.8184 31.6074L56.0615 31.8418L56.3047 31.6074L61.3027 26.79L61.3066 26.7861C65.4306 22.6848 71.0119 20.3845 76.8281 20.3887C82.4628 20.3928 87.8736 22.5598 91.9502 26.4297L92.3408 26.8096C96.4454 30.93 98.75 36.5092 98.75 42.3252C98.7499 47.96 96.5864 53.3723 92.7188 57.4512L92.3398 57.8418L92.3379 57.8428L58.0312 92.6846C57.7776 92.9421 57.475 93.1465 57.1416 93.2861C56.8082 93.4257 56.4503 93.498 56.0889 93.498C55.7274 93.498 55.3696 93.4257 55.0361 93.2861C54.7862 93.1815 54.5533 93.0408 54.3457 92.8682L54.1465 92.6846L19.7852 57.8271L19.7842 57.8262L19.4033 57.4355C15.5239 53.3613 13.3513 47.9463 13.3496 42.3066C13.3478 36.4852 15.6594 30.9018 19.7744 26.7842C23.8895 22.6666 29.4716 20.3515 35.293 20.3496ZM35.2998 25.8174C30.9238 25.817 26.7265 27.5545 23.6318 30.6484C20.5373 33.7425 18.7983 37.9394 18.7979 42.3154C18.7975 46.6906 20.535 50.887 23.6279 53.9814V53.9824L55.8125 86.6318L56.0615 86.8848L56.3115 86.6318L88.4668 54.0137L88.4678 54.0146L88.4824 53.999C90.0155 52.4678 91.2321 50.6498 92.0625 48.6484C92.8929 46.6471 93.321 44.5017 93.3223 42.335C93.3235 40.1681 92.8983 38.0219 92.0703 36.0195C91.2423 34.0171 90.0274 32.1972 88.4961 30.6641C86.9649 29.1311 85.1468 27.9143 83.1455 27.084C81.1442 26.2536 78.9987 25.8255 76.832 25.8242C74.6652 25.8229 72.519 26.2491 70.5166 27.0771C68.5149 27.9049 66.6949 29.1179 65.1621 30.6484L65.1309 30.6777L65.124 30.6846L54.0586 41.3389L53.8018 41.5859L54.0537 41.8379L64.1426 51.9385C64.6532 52.4496 64.9395 53.1427 64.9395 53.8652C64.9394 54.4974 64.7202 55.1069 64.3232 55.5918L64.1426 55.792L57.9902 61.9434C57.4787 62.4548 56.7849 62.7422 56.0615 62.7422C55.3383 62.7421 54.6442 62.4548 54.1328 61.9434C53.6215 61.4319 53.334 60.7379 53.334 60.0146C53.3341 59.2914 53.6214 58.5974 54.1328 58.0859L58.1123 54.1064L58.3604 53.8594L58.1123 53.6123L47.9893 43.4775V43.4766C47.7333 43.2205 47.5305 42.9162 47.3936 42.5811C47.2565 42.2456 47.1879 41.8857 47.1914 41.5234C47.1949 41.1612 47.2706 40.8034 47.4141 40.4707C47.5216 40.2212 47.6654 39.9894 47.8408 39.7832L48.0264 39.5859H48.0273L51.8721 35.875L52.1328 35.623L51.8711 35.3711L47 30.6846L46.9668 30.6504C43.8727 27.5558 39.6758 25.8178 35.2998 25.8174Z" fill="#F04E4E" stroke="white" stroke-width="0.7"/>
</svg>
