<svg width="46" height="42" viewBox="0 0 46 42" fill="none" xmlns="http://www.w3.org/2000/svg">
<path d="M34.0323 0C37.375 0 40.2057 1.26813 42.5244 3.80438C44.8432 6.34064 46.0017 9.40135 46 12.9865C46 14.0388 45.8841 15.0877 45.6524 16.1332C45.4207 17.1788 45.0502 18.1897 44.5408 19.1661H31.3209L26.7464 12.1341H24.357L20.0713 25.1003L15.9876 19.1661H1.45667C0.948963 18.1897 0.578407 17.1863 0.345 16.156C0.115 15.1273 0 14.0927 0 13.0523C0 9.42159 1.1483 6.33895 3.44489 3.80438C5.74148 1.26981 8.56111 0.00168634 11.9038 0C13.6518 0 15.3333 0.352445 16.9484 1.05734C18.5619 1.76054 20.0057 2.77993 21.2801 4.11551L23 5.91653L24.6228 4.21417C25.9193 2.84486 27.3828 1.80017 29.0132 1.0801C30.6437 0.360033 32.3167 0 34.0323 0ZM22.9361 42L4.58978 23.7142C4.26948 23.3971 3.96111 23.0708 3.66467 22.7352C3.36993 22.403 3.09989 22.0565 2.85456 21.6956H14.6178L19.32 28.6948H21.6967L25.9312 15.6653L29.9997 21.6956H43.1327C42.8873 22.0464 42.6173 22.3887 42.3226 22.7226C42.0278 23.0565 41.7246 23.382 41.4128 23.699L22.9361 42Z" fill="#F04E4E"/>
</svg>
