<svg width="290" height="246" viewBox="0 0 290 246" fill="none" xmlns="http://www.w3.org/2000/svg">
<path d="M6.30791 199.485C-5.29209 168.685 7.78845 33.5494 30.5661 13.0496C38.6738 5.75266 54.1587 2.632 82.066 2.15731C89.6791 2.02782 95.233 1.88 103.566 2.15724C138.81 3.32983 194.049 9.15107 227.066 15.5752C236.6 17.4302 239.531 18.2319 247.566 20.3488C270.248 26.3246 285.787 33.1871 287.566 40.0496C294.566 67.0496 263.308 222.985 243.808 237.985C238.881 241.775 229.709 244.108 207.308 244.173C198.562 244.198 193.943 244.693 183.808 244.173C144.421 242.15 84.7499 234.851 50.8078 225.049C44.064 223.101 37.8425 221.007 32.3079 218.77C18.56 213.212 9.05126 206.769 6.30791 199.485Z" fill="white"/>
<path d="M32.3079 218.77C18.56 213.212 9.05126 206.769 6.30791 199.485C-5.29209 168.685 7.78845 33.5494 30.5661 13.0496C38.6738 5.75266 54.1587 2.632 82.066 2.15731M32.3079 218.77C36.3079 153.592 48.066 54.5488 82.066 2.15731M32.3079 218.77C37.8425 221.007 44.064 223.101 50.8078 225.049M82.066 2.15731C89.6791 2.02782 95.233 1.88 103.566 2.15724M82.066 2.15731C77.9692 17.4249 75.273 39.0908 78.1885 60.5271M50.8078 225.049C84.7499 234.851 144.421 242.15 183.808 244.173M50.8078 225.049C54.9533 177.296 62.3693 117.704 78.1885 60.5271M103.566 2.15724C138.81 3.32983 194.049 9.15107 227.066 15.5752M103.566 2.15724C92.3994 37.2878 86.666 109.349 153.066 116.549C219.466 123.749 230.066 52.2331 227.066 15.5752M183.808 244.173C193.943 244.693 198.562 244.198 207.308 244.173M183.808 244.173C197.025 212.238 209.955 174.507 218.914 110.049M227.066 15.5752C236.6 17.4302 239.531 18.2319 247.566 20.3488M227.066 15.5752C226.744 27.9553 225.688 43.4953 224.735 56.0488M207.308 244.173C229.709 244.108 238.881 241.775 243.808 237.985C263.308 222.985 294.566 67.0496 287.566 40.0496C285.787 33.1871 270.248 26.3246 247.566 20.3488M207.308 244.173C226.308 194.485 250.566 90.5488 247.566 20.3488M247.566 20.3488C247.566 63.0821 227.866 145.649 149.066 134.049C101.011 126.975 82.7454 94.0316 78.1885 60.5271" stroke="black" stroke-width="2.66812"/>
<path d="M15.905 10.3497C20.8355 10.654 32.8055 10.4007 41.2417 6.95311" stroke="black" stroke-linecap="round"/>
<path d="M251 147.5C254.5 145.333 262.8 139.4 268 133" stroke="black" stroke-linecap="round"/>
<path d="M14.8826 181.632C16.4244 185.449 20.8644 194.635 26.2899 200.845" stroke="black" stroke-linecap="round"/>
<path d="M264.771 139.246C263.908 138.374 261.546 136.307 259 135.014" stroke="black" stroke-linecap="round"/>
<path d="M20.6816 196.603C21.6875 195.901 24.1257 193.923 25.8313 191.634" stroke="black" stroke-linecap="round"/>
<path d="M260.771 142.246C259.908 141.374 257.546 139.307 255 138.014" stroke="black" stroke-linecap="round"/>
<path d="M18.4033 192.153C19.4092 191.451 21.8473 189.473 23.553 187.183" stroke="black" stroke-linecap="round"/>
<path d="M249 145.5C252.5 143.333 260.8 137.4 266 131" stroke="black" stroke-linecap="round"/>
<path d="M17.1929 180C18.7347 183.817 23.1747 193.003 28.6002 199.213" stroke="black" stroke-linecap="round"/>
<line x1="74" y1="34" x2="100" y2="34" stroke="black" stroke-width="2" stroke-linecap="round"/>
<path d="M87 42.35L85.55 41.03C80.4 36.36 77 33.27 77 29.5C77 26.41 79.42 24 82.5 24C84.24 24 85.91 24.81 87 26.08C88.09 24.81 89.76 24 91.5 24C94.58 24 97 26.41 97 29.5C97 33.27 93.6 36.36 88.45 41.03L87 42.35Z" fill="#F24040"/>
</svg>
