<svg width="287" height="338" viewBox="0 0 287 338" fill="none" xmlns="http://www.w3.org/2000/svg">
<path d="M54.0083 146.749L2 276.508L220.341 336L263 201.5L285 36.6648L70.8758 2L54.0083 146.749Z" fill="url(#paint0_radial_294_12)" stroke="black" stroke-width="2.67" stroke-linecap="round"/>
<path d="M80 100.5L89.5 31.5L149.5 42L139.5 113.5L80 100.5Z" stroke="black" stroke-width="2.67" stroke-linecap="round"/>
<path d="M186 218.163L154.5 299.663L205.5 314L232.5 230.5L186 218.163Z" stroke="black" stroke-width="2.67" stroke-linecap="round"/>
<path d="M168.562 56C168.557 56.1263 168.793 56.5181 169.246 57.112C170.068 58.1899 174.127 58.2233 176.91 57.9284C178.724 57.7361 180.512 57.3487 182.146 57.3224C184.668 57.282 187.73 57.5302 190.193 58.7479C191.657 59.4718 193.986 61.1602 195.564 62.1048C197.773 63.4264 200.24 63.6338 203.178 63.6016C205.113 63.5804 208.131 62.83 212.222 61.9531C217.145 60.8976 219.514 61.5884 221.038 61.846C223.352 62.2371 225.237 63.6191 226.696 64.8366C227.904 65.8442 229.733 67.5796 230.972 68.6984C232.358 69.9493 235.721 70.9143 237.666 71.2908C239.264 71.6002 241.1 70.9626 242.388 70.7288C243.858 70.8229 244.545 71.1709 245.102 71.5776C245.351 71.7811 245.532 71.9787 245.902 72.3821" stroke="black" stroke-width="2.67" stroke-linecap="round"/>
<path d="M168 76C168 76.1264 168.126 76.4445 168.571 77.0805C169.265 78.074 170.864 78.8699 173.534 79.4131C175.228 79.7578 177.721 79.5137 179.465 79.4179C182.163 79.2697 184.526 79.0653 186.886 79.1918C189.28 79.32 190.661 81.418 193.12 83.3061C194.814 84.6056 199.642 84.4297 202.098 84.0801C203.169 83.9276 204.52 83.2189 205.707 83.057C206.529 82.9448 207.524 82.4525 214.495 82.7035C217.459 82.8103 219.076 84.0389 221.254 85.6692C222.28 86.7268 223.172 87.4912 226.162 88.3227C227.312 88.453 228.767 88.453 230.265 88.2614" stroke="black" stroke-width="2.67" stroke-linecap="round"/>
<path d="M163 97.7815C164.964 97.4654 169.943 96.8236 171.808 97.0458C173.494 97.2467 175.001 99.0536 177.802 100.808C179.893 102.117 183.478 102.504 187.05 102.983C191.054 103.52 193.519 102.51 195.05 102.22C198.645 101.541 200.608 103.59 201.759 104.292C203.057 105.084 204.566 105.123 209.338 105.73C211.179 105.965 213.594 105.828 216.064 105.607C218.534 105.385 221 104.943 223.155 104.715C227.066 104.301 229.284 104.613 230.049 104.9C231.909 105.597 233.434 107.292 234.424 108.822C235.201 110.022 236.371 111.187 237.549 112.144C238.612 113.007 239.758 112.917 241.565 112.727C243.059 112.57 245.711 112.158 247.806 111.963C251.345 111.632 253.106 112.02 253.868 112.624C255.137 113.419 256.298 114.001 256.967 114.256C257.257 114.384 257.447 114.511 257.834 114.449" stroke="black" stroke-width="2.67" stroke-linecap="round"/>
<path d="M54.314 189.016C55.6708 188.76 58.4125 188.929 60.2489 189.824C61.5854 190.475 62.0853 193.104 63.9243 195.123C65.5902 196.951 67.81 196.962 70.0336 197.436C74.2227 198.33 75.5095 196.885 78.7424 196.285C84.3249 195.248 88.5079 196.451 89.2324 196.963C90.6604 197.971 92.3448 199.86 93.7657 201.536C94.6031 202.524 95.1763 203.63 96.1586 204.402C98.3523 206.126 102 205 105 206C107.568 206.856 109.198 208.934 109.837 209.191C110.221 209.278 110.729 209.278 111.252 209.021" stroke="black" stroke-width="2.67" stroke-linecap="round"/>
<path d="M49 209C49.1693 209 52.8959 209 58.7065 209.085C62.564 209.141 63.7014 210.79 65.961 213.095C67.4307 214.594 70.7751 217.018 73.8695 218.955C76.4261 220.556 80.2751 220.711 83.7838 220.756C85.4618 220.777 87.6258 219.521 90.7536 219.217C94.1587 218.886 98.7519 223.871 99.7791 224.685C100.942 225.607 101.917 226.692 102.815 227.719C103.634 228.656 104.651 229.683 106.06 230.755C107.87 232.132 112.997 231.57 116.957 231.144C119.349 230.887 121.568 233.35 123.416 234.901C124.15 235.516 125.254 235.843 128.183 236.227C134.582 236.695 139.022 237.041 139.533 237.211C139.791 237.297 140.045 237.382 140.307 237.982" stroke="black" stroke-width="2.67" stroke-linecap="round"/>
<path d="M41 226C41 227.611 41.1693 230.868 42.0208 231.938C42.8146 232.935 44.0752 233.01 45.3063 233.138C47.9622 233.414 51.0745 233.012 54.6498 232.756C59.9052 232.379 63.9036 232.838 65.4399 233.179C67.9853 233.744 70.0591 235.741 71.4736 237.023C72.7128 238.147 73.3985 239.332 75.1439 240.826C77.1789 242.568 80.2286 243.097 83.0832 243.353C86.5175 243.662 90.1415 243.187 93.595 242.802C95.3497 242.607 97.1795 242.437 98.1757 242.756C100.5 243.5 100.749 246.57 102.038 249.037C102.335 249.604 104.335 250.104 108.378 251.212C114.285 252.831 117.85 251.117 120 251.212C126.5 251.5 129 254 129.5 255C130 256 130.204 256.569 130.5 257C130.796 257.431 131.183 257.968 131.658 258.184C132.132 258.401 132.471 258.486 133.333 258.573" stroke="black" stroke-width="2.67" stroke-linecap="round"/>
<defs>
<radialGradient id="paint0_radial_294_12" cx="0" cy="0" r="1" gradientUnits="userSpaceOnUse" gradientTransform="translate(143.5 169) rotate(90) scale(167 141.5)">
<stop stop-color="#F7F3ED"/>
<stop offset="1" stop-color="#FFF2DE"/>
</radialGradient>
</defs>
</svg>
