<svg width="318" height="247" viewBox="0 0 318 247" fill="none" xmlns="http://www.w3.org/2000/svg">
<path d="M14.3079 199.485C2.70791 168.685 15.7884 33.5494 38.5661 13.0496C46.6738 5.75266 62.1587 2.632 90.066 2.15731C97.6791 2.02782 103.233 1.88 111.566 2.15724C146.81 3.32983 202.049 9.15107 235.066 15.5752C244.6 17.4302 247.531 18.2319 255.566 20.3488C278.248 26.3246 293.787 33.1871 295.566 40.0496C302.566 67.0496 271.308 222.985 251.808 237.985C246.881 241.775 237.709 244.108 215.308 244.173C206.562 244.198 201.943 244.693 191.808 244.173C152.421 242.15 92.7499 234.851 58.8078 225.049C52.064 223.101 45.8425 221.007 40.3079 218.77C26.56 213.212 17.0513 206.769 14.3079 199.485Z" fill="white"/>
<path d="M40.3079 218.77C26.56 213.212 17.0513 206.769 14.3079 199.485C2.70791 168.685 15.7884 33.5494 38.5661 13.0496C46.6738 5.75266 62.1587 2.632 90.066 2.15731M40.3079 218.77C44.3079 153.592 56.066 54.5488 90.066 2.15731M40.3079 218.77C45.8425 221.007 52.064 223.101 58.8078 225.049M90.066 2.15731C97.6791 2.02782 103.233 1.88 111.566 2.15724M90.066 2.15731C85.9692 17.4249 83.273 39.0908 86.1885 60.5271M58.8078 225.049C92.7499 234.851 152.421 242.15 191.808 244.173M58.8078 225.049C62.9533 177.296 70.3693 117.704 86.1885 60.5271M111.566 2.15724C146.81 3.32983 202.049 9.15107 235.066 15.5752M111.566 2.15724C100.399 37.2878 94.666 109.349 161.066 116.549C227.466 123.749 238.066 52.2331 235.066 15.5752M191.808 244.173C201.943 244.693 206.562 244.198 215.308 244.173M191.808 244.173C205.025 212.238 217.955 174.507 226.914 110.049M235.066 15.5752C244.6 17.4302 247.531 18.2319 255.566 20.3488M235.066 15.5752C234.744 27.9553 233.688 43.4953 232.735 56.0488M215.308 244.173C237.709 244.108 246.881 241.775 251.808 237.985C271.308 222.985 302.566 67.0496 295.566 40.0496C293.787 33.1871 278.248 26.3246 255.566 20.3488M215.308 244.173C234.308 194.485 258.566 90.5488 255.566 20.3488M255.566 20.3488C255.566 63.0821 235.866 145.649 157.066 134.049C109.011 126.975 90.7454 94.0316 86.1885 60.5271" stroke="black" stroke-width="2.66812"/>
<path d="M23.905 10.3497C28.8355 10.654 40.8055 10.4007 49.2417 6.95311" stroke="black" stroke-linecap="round"/>
<path d="M259 147.5C262.5 145.333 270.8 139.4 276 133" stroke="black" stroke-linecap="round"/>
<path d="M22.8826 181.632C24.4244 185.449 28.8644 194.635 34.2899 200.845" stroke="black" stroke-linecap="round"/>
<path d="M272.771 139.246C271.908 138.374 269.546 136.307 267 135.014" stroke="black" stroke-linecap="round"/>
<path d="M28.6816 196.603C29.6875 195.901 32.1257 193.923 33.8313 191.634" stroke="black" stroke-linecap="round"/>
<path d="M268.771 142.246C267.908 141.374 265.546 139.307 263 138.014" stroke="black" stroke-linecap="round"/>
<path d="M26.4033 192.153C27.4092 191.451 29.8473 189.473 31.553 187.183" stroke="black" stroke-linecap="round"/>
<path d="M257 145.5C260.5 143.333 268.8 137.4 274 131" stroke="black" stroke-linecap="round"/>
<path d="M25.1929 180C26.7347 183.817 31.1747 193.003 36.6002 199.213" stroke="black" stroke-linecap="round"/>
<path d="M286.359 71.5099C285.317 67.5277 282.084 57.8506 277.495 50.9996" stroke="black" stroke-linecap="round"/>
<path d="M282.516 55.9212C281.429 56.4898 278.758 58.1403 276.775 60.1939" stroke="black" stroke-linecap="round"/>
<path d="M284.208 60.6263C283.121 61.1948 280.451 62.8454 278.467 64.8989" stroke="black" stroke-linecap="round"/>
<path d="M283.86 72.8341C282.817 68.8519 279.585 59.1748 274.995 52.3238" stroke="black" stroke-linecap="round"/>
<path d="M9.60827 93.4499C6.87231 93.8692 3.24953 94.146 2 94.146V246.5H315.22V98.339C313.937 96.6366 312.692 95.3913 311.641 94.4835C309.761 93.0222 308.503 92.3262 306.953 92.1186C304.02 92.0494 301.474 92.0933 294.697 94.538C288.577 96.7456 277.37 100.897 271.409 103.186C265.449 105.476 264.757 105.891 264.34 106.383C263.922 106.876 263.784 107.43 263.501 107.635C263.218 107.84 262.796 107.721 262.382 107.562C260.56 106.859 256.589 104.872 251.811 105.61C245.456 106.591 241.8 108.053 237.146 107.492C235.406 107.283 230.873 104.778 219.778 100.461L219.307 100.277C212.277 97.5416 202.736 93.8288 197.48 92.5924C190.393 90.9257 186.478 88.4256 183.548 89.7475C182.154 90.3764 178.98 93.0152 174.525 95.4856C171.39 97.2237 169.86 99.4262 156.954 100.09C150.224 100.436 139.843 100.559 134.443 100.364C128.626 100.155 127.709 99.9954 126.946 99.4523C124.982 98.0539 122.263 96.9352 119.885 94.907C117.007 92.452 113.692 89.3158 107.738 86.8501C97.9577 82.7996 90.9691 79.657 89.7666 80.0301C87.9489 80.5941 85.3578 79.7651 77.9422 82.1287C73.9693 83.395 72.538 86.238 69.9042 86.4601C63.1932 87.0262 59.6794 89.4804 51.22 89.7454C44.5929 89.9529 40.6046 89.1179 39.381 88.4812C37.6325 87.5713 35.1931 86.2879 32.8796 85.3364C30.5043 84.3594 27.6621 83.2813 25.4747 83.7346C23.7954 84.0827 19.9298 84.1445 16.4555 86.9549C14.294 88.7034 13.0912 92.9161 9.60827 93.4499Z" fill="white"/>
<path d="M9.60827 93.4499C6.87231 93.8692 3.24953 94.146 2 94.146V246.5H315.22V98.339C313.937 96.6366 312.692 95.3913 311.641 94.4835C309.761 93.0222 308.503 92.3262 306.953 92.1186C304.02 92.0494 301.474 92.0933 294.697 94.538C288.577 96.7456 277.37 100.897 271.409 103.186C265.449 105.476 264.757 105.891 264.34 106.383C263.922 106.876 263.784 107.43 263.501 107.635C263.218 107.84 262.796 107.721 262.382 107.562C260.56 106.859 256.589 104.872 251.811 105.61C245.456 106.591 241.8 108.053 237.146 107.492C235.406 107.283 230.873 104.778 219.778 100.461L219.307 100.277C212.277 97.5416 202.736 93.8288 197.48 92.5924C190.393 90.9257 186.478 88.4256 183.548 89.7475C182.154 90.3764 178.98 93.0152 174.525 95.4856C171.39 97.2237 169.86 99.4262 156.954 100.09C150.224 100.436 139.843 100.559 134.443 100.364C128.626 100.155 127.709 99.9954 126.946 99.4523C124.982 98.0539 122.263 96.9352 119.885 94.907C117.007 92.452 113.692 89.3158 107.738 86.8501C97.9577 82.7996 90.9691 79.657 89.7666 80.0301C87.9489 80.5941 85.3578 79.7651 77.9422 82.1287C73.9693 83.395 72.538 86.238 69.9042 86.4601C63.1932 87.0262 59.6794 89.4804 51.22 89.7454C44.5929 89.9529 40.6046 89.1179 39.381 88.4812C37.6325 87.5713 35.1931 86.2879 32.8796 85.3364C30.5043 84.3594 27.6621 83.2813 25.4747 83.7346C23.7954 84.0827 19.9298 84.1445 16.4555 86.9549C14.294 88.7034 13.0912 92.9161 9.60827 93.4499Z" fill="url(#paint0_radial_420_57)"/>
<path d="M2 94.6362C3.24953 94.6362 6.87231 94.3595 9.60827 93.9402C13.0912 93.4064 14.294 89.1936 16.4555 87.4451C19.9298 84.6347 23.7954 84.5729 25.4747 84.2249C27.6621 83.7716 30.5043 84.8496 32.8796 85.8266C35.1931 86.7781 37.6325 88.0615 39.381 88.9714C40.6046 89.6082 44.5929 90.4432 51.22 90.2356C59.6794 89.9707 63.1932 87.5164 69.9042 86.9504C72.538 86.7282 73.9693 83.8852 77.9422 82.6189C85.3578 80.2554 87.9489 81.0843 89.7666 80.5203C90.9691 80.1472 97.9577 83.2898 107.738 87.3403C113.692 89.806 117.007 92.9422 119.885 95.3972C122.263 97.4254 124.982 98.5441 126.946 99.9425C127.709 100.486 128.626 100.645 134.443 100.854C139.843 101.049 150.224 100.926 156.954 100.58C169.86 99.9164 171.39 97.7139 174.525 95.9759C178.98 93.5054 182.154 90.8667 183.548 90.2377C186.478 88.9158 190.393 91.4159 197.48 93.0827C202.854 94.3468 212.709 98.2003 219.778 100.951C230.873 105.268 235.406 107.773 237.146 107.983C241.8 108.543 245.456 107.081 251.811 106.1C256.589 105.362 260.56 107.349 262.382 108.052C262.796 108.212 263.218 108.331 263.501 108.125C263.784 107.92 263.922 107.366 264.34 106.874C264.757 106.381 265.449 105.966 271.409 103.676C277.37 101.387 288.577 97.2359 294.697 95.0282C301.474 92.5836 304.02 92.5397 306.953 92.6089C308.503 92.8164 309.761 93.5125 311.641 94.9737C312.692 95.8815 313.937 97.1269 315.22 98.8292" stroke="black" stroke-width="4" stroke-linecap="round"/>
<path d="M29.2343 126.509C30.2632 123.741 31.9389 121.59 32.656 121.233C33.1461 120.743 34.703 119.547 35.1859 119.064C36.1445 118.105 37.6004 117.63 39.2725 117.691C41.5573 117.99 43.5618 117.62 46.7809 118.412C49.4927 119.078 53.3222 119.941 53.3181 122.262C53.3163 123.28 53.1253 124.347 52.4118 124.72C51.0279 125.442 47.6589 128.435 43.8168 128.743C38.6022 129.162 30.9196 129.573 29.5893 127.954C29.2901 127.59 29.0222 127.08 29.2343 126.509Z" fill="#AF9E8B" stroke="black" stroke-width="2" stroke-linecap="round"/>
<path d="M205.634 120.082C207.959 118.262 210.513 117.306 211.311 117.377C211.985 117.216 213.938 117.011 214.602 116.853C215.92 116.538 217.41 116.894 218.803 117.822C220.593 119.272 222.495 120.006 224.823 122.365C226.785 124.353 229.596 127.093 228.378 129.068C227.844 129.934 227.123 130.744 226.32 130.688C224.762 130.579 220.325 131.366 216.89 129.618C212.228 127.245 205.466 123.575 205.18 121.499C205.116 121.032 205.154 120.457 205.634 120.082Z" fill="#AF9E8B" stroke="black" stroke-width="2" stroke-linecap="round"/>
<path d="M29.8393 87.5584C32.1646 85.7386 34.7185 84.7824 35.5163 84.8537C36.1904 84.6926 38.1432 84.4879 38.8074 84.3292C40.1259 84.0141 41.6155 84.3707 43.0082 85.2981C44.7985 86.7488 46.7001 87.4828 49.0289 89.842C50.9907 91.8294 53.8021 94.5691 52.5839 96.5445C52.0496 97.411 51.3283 98.2204 50.5253 98.1644C48.968 98.0558 44.5307 98.8429 41.0957 97.0945C36.4336 94.7215 29.6718 91.0513 29.3855 88.9756C29.3211 88.5089 29.36 87.9336 29.8393 87.5584Z" fill="#AF9E8B" stroke="black" stroke-width="2" stroke-linecap="round"/>
<path d="M283.379 135.231C272.983 135.404 267.977 134.687 267.26 134.568C266.892 134.445 265.094 133.966 264.916 133.6C264.737 132.64 264.979 131.321 265.883 129.877C266.543 129.158 276.36 130.823 282.523 128.139C284.327 127.353 286.047 125.6 288.419 125.072C294.324 123.756 299.752 123.206 300.176 125.025C300.414 126.045 299.778 128.94 297.765 130.249C294.98 132.059 289.792 135.124 283.379 135.231Z" fill="#AF9E8B" stroke="black" stroke-width="2" stroke-linecap="round"/>
<path d="M133.536 140.551C141.871 136.124 145.408 136 146.908 135.5C148.09 135.106 149.061 134.445 149.423 134.203L149.423 134.203C150.142 133.724 151.223 133.003 153.028 131.74C154.83 130.718 156.234 129.786 158.614 129.52C161.829 129.162 167.367 128.789 169.847 130.308C170.925 130.967 171.923 131.634 172.002 132.717C172.121 134.337 172.165 135.847 171.575 137.043C169.829 140.586 167.097 144.573 162.119 147.258C157.558 149.717 152.847 152.337 148.666 153.072C144.592 153.79 141.45 154.211 138.637 153.844C134.498 153.303 130.859 152.716 129.044 151.436C127.427 150.298 126.336 149.21 126.474 148.316C126.595 147.537 126.029 144.539 133.536 140.551Z" fill="#AF9E8B" stroke="black" stroke-width="2" stroke-linecap="round"/>
<path d="M85.375 109.353C84.3914 111.323 84.0355 112.979 83.9083 114C83.8459 114.5 84.1822 115.423 84.3112 115.466C84.5674 115.552 85.0386 115.938 85.5952 116.387C86.1531 116.837 86.706 117.26 87.2862 117.521C87.9506 117.82 89.9869 118.577 91.9336 119.191C92.745 119.447 94.4086 119.785 96.4544 119.509C97.8822 119.316 98.9023 119.136 99.5726 118.629C100.878 117.643 101.795 116.873 101.901 116.19C102.157 114.546 102.308 111.256 101.62 110.091C101.127 109.256 100.707 108.006 98.1243 106.901C96.9295 106.39 95.68 106.122 93.7902 106.157C92.5781 106.18 90.8621 106.129 89.883 106.351C87.984 106.781 86.3139 107.471 85.375 109.353Z" fill="#AF9E8B" stroke="black" stroke-width="2" stroke-linecap="round"/>
<path d="M304.376 94.3433C304.687 92.2834 304.401 90.8891 304.117 90.0956C303.978 89.7069 303.196 89.3119 303.028 89.3746C302.694 89.499 301.982 89.57 301.144 89.6588C300.305 89.7484 299.482 89.8526 298.697 90.0878C297.797 90.357 295.108 91.2928 292.583 92.2621C291.531 92.6661 289.452 93.6234 287.188 95.2765C285.609 96.4302 284.498 97.2839 283.932 98.1118C282.831 99.724 282.089 100.91 282.255 101.456C282.653 102.77 283.869 105.143 285.163 105.453C286.089 105.675 287.107 106.235 290.579 105.148C292.185 104.645 293.753 103.936 295.937 102.561C297.338 101.678 299.356 100.486 300.401 99.6335C302.429 97.9794 304.08 96.3098 304.376 94.3433Z" fill="#AF9E8B" stroke="black" stroke-width="2" stroke-linecap="round"/>
<defs>
<radialGradient id="paint0_radial_420_57" cx="0" cy="0" r="1" gradientUnits="userSpaceOnUse" gradientTransform="translate(158.408 80) rotate(89.9305) scale(166.5 313.22)">
<stop stop-color="#855B2E"/>
<stop offset="0.481091" stop-color="white"/>
</radialGradient>
</defs>
</svg>
