<svg width="314" height="245" viewBox="0 0 314 245" fill="none" xmlns="http://www.w3.org/2000/svg">
<g clip-path="url(#clip0_428_59)">
<path d="M12.3079 257.485C0.707909 226.685 13.7884 91.5494 36.5661 71.0496C44.6738 63.7527 60.1587 60.632 88.066 60.1573C95.6791 60.0278 101.233 59.88 109.566 60.1572C144.81 61.3298 200.049 67.1511 233.066 73.5752C242.6 75.4302 245.531 76.2319 253.566 78.3488C276.248 84.3246 291.787 91.1871 293.566 98.0496C300.566 125.05 269.308 280.985 249.808 295.985C244.881 299.775 235.709 302.108 213.308 302.173C204.562 302.198 199.943 302.693 189.808 302.173C150.421 300.15 90.7499 292.851 56.8078 283.049C50.064 281.101 43.8425 279.007 38.3079 276.77C24.56 271.212 15.0513 264.769 12.3079 257.485Z" fill="white"/>
<path d="M38.3079 276.77C24.56 271.212 15.0513 264.769 12.3079 257.485C0.707909 226.685 13.7884 91.5494 36.5661 71.0496C44.6738 63.7527 60.1587 60.632 88.066 60.1573M38.3079 276.77C42.3079 211.592 54.066 112.549 88.066 60.1573M38.3079 276.77C43.8425 279.007 50.064 281.101 56.8078 283.049M88.066 60.1573C95.6791 60.0278 101.233 59.88 109.566 60.1572M88.066 60.1573C83.9692 75.4249 81.273 97.0908 84.1885 118.527M56.8078 283.049C90.7499 292.851 150.421 300.15 189.808 302.173M56.8078 283.049C60.9533 235.296 68.3693 175.704 84.1885 118.527M109.566 60.1572C144.81 61.3298 200.049 67.1511 233.066 73.5752M109.566 60.1572C98.3994 95.2878 92.666 167.349 159.066 174.549C225.466 181.749 236.066 110.233 233.066 73.5752M189.808 302.173C199.943 302.693 204.562 302.198 213.308 302.173M189.808 302.173C203.025 270.238 215.955 232.507 224.914 168.049M233.066 73.5752C242.6 75.4302 245.531 76.2319 253.566 78.3488M233.066 73.5752C232.744 85.9553 231.688 101.495 230.735 114.049M213.308 302.173C235.709 302.108 244.881 299.775 249.808 295.985C269.308 280.985 300.566 125.05 293.566 98.0496C291.787 91.1871 276.248 84.3246 253.566 78.3488M213.308 302.173C232.308 252.485 256.566 148.549 253.566 78.3488M253.566 78.3488C253.566 121.082 233.866 203.649 155.066 192.049C107.011 184.975 88.7454 152.032 84.1885 118.527" stroke="black" stroke-width="2.66812"/>
<path d="M21.905 68.3497C26.8355 68.654 38.8055 68.4007 47.2417 64.9531" stroke="black" stroke-linecap="round"/>
<path d="M257 205.5C260.5 203.333 268.8 197.4 274 191" stroke="black" stroke-linecap="round"/>
<path d="M20.8826 239.632C22.4244 243.449 26.8644 252.635 32.2899 258.845" stroke="black" stroke-linecap="round"/>
<path d="M270.771 197.246C269.908 196.374 267.546 194.307 265 193.014" stroke="black" stroke-linecap="round"/>
<path d="M266.771 200.246C265.908 199.374 263.546 197.307 261 196.014" stroke="black" stroke-linecap="round"/>
<path d="M24.4033 250.153C25.4092 249.451 27.8473 247.473 29.553 245.183" stroke="black" stroke-linecap="round"/>
<path d="M255 203.5C258.5 201.333 266.8 195.4 272 189" stroke="black" stroke-linecap="round"/>
<path d="M23.1929 238C24.7347 241.817 29.1747 251.003 34.6002 257.213" stroke="black" stroke-linecap="round"/>
<path d="M284.359 129.51C283.317 125.528 280.084 115.851 275.495 109" stroke="black" stroke-linecap="round"/>
<path d="M280.516 113.921C279.429 114.49 276.758 116.14 274.775 118.194" stroke="black" stroke-linecap="round"/>
<path d="M282.208 118.626C281.121 119.195 278.451 120.845 276.467 122.899" stroke="black" stroke-linecap="round"/>
<path d="M281.86 130.834C280.817 126.852 277.585 117.175 272.995 110.324" stroke="black" stroke-linecap="round"/>
<path d="M7.60827 151.45C4.87231 151.869 1.24953 152.146 0 152.146V304.5H313.22V156.339C311.937 154.637 310.692 153.391 309.641 152.484C307.761 151.022 306.503 150.326 304.953 150.119C302.02 150.049 299.474 150.093 292.697 152.538C286.577 154.746 275.37 158.897 269.409 161.186C263.449 163.476 262.757 163.891 262.34 164.383C261.922 164.876 261.784 165.43 261.501 165.635C261.218 165.84 260.796 165.721 260.382 165.562C258.56 164.859 254.589 162.872 249.811 163.61C243.456 164.591 239.8 166.053 235.146 165.492C233.406 165.283 228.873 162.778 217.778 158.461L217.307 158.277C210.277 155.542 200.736 151.829 195.48 150.592C188.393 148.926 184.478 146.426 181.548 147.747C180.154 148.376 176.98 151.015 172.525 153.486C169.39 155.224 167.86 157.426 154.954 158.09C148.224 158.436 137.843 158.559 132.443 158.364C126.626 158.155 125.709 157.995 124.946 157.452C122.982 156.054 120.263 154.935 117.885 152.907C115.007 150.452 111.692 147.316 105.738 144.85C95.9577 140.8 88.9691 137.657 87.7666 138.03C85.9489 138.594 83.3578 137.765 75.9422 140.129C71.9693 141.395 70.538 144.238 67.9042 144.46C61.1932 145.026 57.6794 147.48 49.22 147.745C42.5929 147.953 38.6046 147.118 37.381 146.481C35.6325 145.571 33.1931 144.288 30.8796 143.336C28.5043 142.359 25.6621 141.281 23.4747 141.735C21.7954 142.083 17.9298 142.144 14.4555 144.955C12.294 146.703 11.0912 150.916 7.60827 151.45Z" fill="white"/>
<path d="M7.60827 151.45C4.87231 151.869 1.24953 152.146 0 152.146V304.5H313.22V156.339C311.937 154.637 310.692 153.391 309.641 152.484C307.761 151.022 306.503 150.326 304.953 150.119C302.02 150.049 299.474 150.093 292.697 152.538C286.577 154.746 275.37 158.897 269.409 161.186C263.449 163.476 262.757 163.891 262.34 164.383C261.922 164.876 261.784 165.43 261.501 165.635C261.218 165.84 260.796 165.721 260.382 165.562C258.56 164.859 254.589 162.872 249.811 163.61C243.456 164.591 239.8 166.053 235.146 165.492C233.406 165.283 228.873 162.778 217.778 158.461L217.307 158.277C210.277 155.542 200.736 151.829 195.48 150.592C188.393 148.926 184.478 146.426 181.548 147.747C180.154 148.376 176.98 151.015 172.525 153.486C169.39 155.224 167.86 157.426 154.954 158.09C148.224 158.436 137.843 158.559 132.443 158.364C126.626 158.155 125.709 157.995 124.946 157.452C122.982 156.054 120.263 154.935 117.885 152.907C115.007 150.452 111.692 147.316 105.738 144.85C95.9577 140.8 88.9691 137.657 87.7666 138.03C85.9489 138.594 83.3578 137.765 75.9422 140.129C71.9693 141.395 70.538 144.238 67.9042 144.46C61.1932 145.026 57.6794 147.48 49.22 147.745C42.5929 147.953 38.6046 147.118 37.381 146.481C35.6325 145.571 33.1931 144.288 30.8796 143.336C28.5043 142.359 25.6621 141.281 23.4747 141.735C21.7954 142.083 17.9298 142.144 14.4555 144.955C12.294 146.703 11.0912 150.916 7.60827 151.45Z" fill="url(#paint0_radial_428_59)"/>
<path d="M0 152.636C1.24953 152.636 4.87231 152.359 7.60827 151.94C11.0912 151.406 12.294 147.194 14.4555 145.445C17.9298 142.635 21.7954 142.573 23.4747 142.225C25.6621 141.772 28.5043 142.85 30.8796 143.827C33.1931 144.778 35.6325 146.062 37.381 146.971C38.6046 147.608 42.5929 148.443 49.22 148.236C57.6794 147.971 61.1932 145.516 67.9042 144.95C70.538 144.728 71.9693 141.885 75.9422 140.619C83.3578 138.255 85.9489 139.084 87.7666 138.52C88.9691 138.147 95.9577 141.29 105.738 145.34C111.692 147.806 115.007 150.942 117.885 153.397C120.263 155.425 122.982 156.544 124.946 157.942C125.709 158.486 126.626 158.645 132.443 158.854C137.843 159.049 148.224 158.926 154.954 158.58C167.86 157.916 169.39 155.714 172.525 153.976C176.98 151.505 180.154 148.867 181.548 148.238C184.478 146.916 188.393 149.416 195.48 151.083C200.854 152.347 210.709 156.2 217.778 158.951C228.873 163.268 233.406 165.773 235.146 165.983C239.8 166.543 243.456 165.081 249.811 164.1C254.589 163.362 258.56 165.349 260.382 166.052C260.796 166.212 261.218 166.331 261.501 166.125C261.784 165.92 261.922 165.366 262.34 164.874C262.757 164.381 263.449 163.966 269.409 161.676C275.37 159.387 286.577 155.236 292.697 153.028C299.474 150.584 302.02 150.54 304.953 150.609C306.503 150.816 307.761 151.512 309.641 152.974C310.692 153.882 311.937 155.127 313.22 156.829" stroke="black" stroke-width="4" stroke-linecap="round"/>
<path d="M27.2343 184.509C28.2632 181.741 29.9389 179.59 30.656 179.233C31.1461 178.743 32.703 177.547 33.1859 177.064C34.1445 176.105 35.6004 175.63 37.2725 175.691C39.5573 175.99 41.5618 175.62 44.7809 176.412C47.4927 177.078 51.3222 177.941 51.3181 180.262C51.3163 181.28 51.1253 182.347 50.4118 182.72C49.0279 183.442 45.6589 186.435 41.8168 186.743C36.6022 187.162 28.9196 187.573 27.5893 185.954C27.2901 185.59 27.0222 185.08 27.2343 184.509Z" fill="#AF9E8B" stroke="black" stroke-width="2" stroke-linecap="round"/>
<path d="M203.634 178.082C205.959 176.262 208.513 175.306 209.311 175.377C209.985 175.216 211.938 175.011 212.602 174.853C213.92 174.538 215.41 174.894 216.803 175.822C218.593 177.272 220.495 178.006 222.823 180.365C224.785 182.353 227.596 185.093 226.378 187.068C225.844 187.934 225.123 188.744 224.32 188.688C222.762 188.579 218.325 189.366 214.89 187.618C210.228 185.245 203.466 181.575 203.18 179.499C203.116 179.032 203.154 178.457 203.634 178.082Z" fill="#AF9E8B" stroke="black" stroke-width="2" stroke-linecap="round"/>
<path d="M27.8393 145.558C30.1646 143.739 32.7185 142.782 33.5163 142.854C34.1904 142.693 36.1432 142.488 36.8074 142.329C38.1259 142.014 39.6155 142.371 41.0082 143.298C42.7985 144.749 44.7001 145.483 47.0289 147.842C48.9907 149.829 51.8021 152.569 50.5839 154.544C50.0496 155.411 49.3283 156.22 48.5253 156.164C46.968 156.056 42.5307 156.843 39.0957 155.094C34.4336 152.721 27.6718 149.051 27.3855 146.976C27.3211 146.509 27.36 145.934 27.8393 145.558Z" fill="#AF9E8B" stroke="black" stroke-width="2" stroke-linecap="round"/>
<path d="M281.379 193.231C270.983 193.404 265.977 192.687 265.26 192.568C264.892 192.445 263.094 191.966 262.916 191.6C262.737 190.64 262.979 189.321 263.883 187.877C264.543 187.158 274.36 188.823 280.523 186.139C282.327 185.353 284.047 183.6 286.419 183.072C292.324 181.756 297.752 181.206 298.176 183.025C298.414 184.045 297.778 186.94 295.765 188.249C292.98 190.059 287.792 193.124 281.379 193.231Z" fill="#AF9E8B" stroke="black" stroke-width="2" stroke-linecap="round"/>
<path d="M131.536 198.551C139.871 194.124 143.408 194 144.908 193.5C146.09 193.106 147.061 192.445 147.423 192.203L147.423 192.203C148.142 191.724 149.223 191.003 151.028 189.74C152.83 188.718 154.234 187.786 156.614 187.52C159.829 187.162 165.367 186.789 167.847 188.308C168.925 188.967 169.923 189.634 170.002 190.717C170.121 192.337 170.165 193.847 169.575 195.043C167.829 198.586 165.097 202.573 160.119 205.258C155.558 207.717 150.847 210.337 146.666 211.072C142.592 211.79 139.45 212.211 136.637 211.844C132.498 211.303 128.859 210.716 127.044 209.436C125.427 208.298 124.336 207.21 124.474 206.316C124.595 205.537 124.029 202.539 131.536 198.551Z" fill="#AF9E8B" stroke="black" stroke-width="2" stroke-linecap="round"/>
<path d="M83.375 167.353C82.3914 169.323 82.0355 170.979 81.9083 172C81.8459 172.5 82.1822 173.423 82.3112 173.466C82.5674 173.552 83.0386 173.938 83.5952 174.387C84.1531 174.837 84.706 175.26 85.2862 175.521C85.9506 175.82 87.9869 176.577 89.9336 177.191C90.745 177.447 92.4086 177.785 94.4544 177.509C95.8822 177.316 96.9023 177.136 97.5726 176.629C98.8778 175.643 99.7949 174.873 99.9011 174.19C100.157 172.546 100.308 169.256 99.6199 168.091C99.1269 167.256 98.7066 166.006 96.1243 164.901C94.9295 164.39 93.68 164.122 91.7902 164.157C90.5781 164.18 88.8621 164.129 87.883 164.351C85.984 164.781 84.3139 165.471 83.375 167.353Z" fill="#AF9E8B" stroke="black" stroke-width="2" stroke-linecap="round"/>
<path d="M302.376 152.343C302.687 150.283 302.401 148.889 302.117 148.096C301.978 147.707 301.196 147.312 301.028 147.375C300.694 147.499 299.982 147.57 299.144 147.659C298.305 147.748 297.482 147.853 296.697 148.088C295.797 148.357 293.108 149.293 290.583 150.262C289.531 150.666 287.452 151.623 285.188 153.277C283.609 154.43 282.498 155.284 281.932 156.112C280.831 157.724 280.089 158.91 280.255 159.456C280.653 160.77 281.869 163.143 283.163 163.453C284.089 163.675 285.107 164.235 288.579 163.148C290.185 162.645 291.753 161.936 293.937 160.561C295.338 159.678 297.356 158.486 298.401 157.634C300.429 155.979 302.08 154.31 302.376 152.343Z" fill="#AF9E8B" stroke="black" stroke-width="2" stroke-linecap="round"/>
<ellipse cx="50.7609" cy="34.2979" rx="6.71001" ry="2.684" transform="rotate(-29.2784 50.7609 34.2979)" fill="black"/>
<path d="M47.8954 28.2717C48.9073 27.7045 49.9406 27.4498 50.7792 27.4744C51.6292 27.4994 52.1856 27.8006 52.4285 28.2335C52.6713 28.6666 52.6384 29.2991 52.2163 30.0375C51.7998 30.7657 51.0435 31.5145 50.0317 32.0819C49.0197 32.6493 47.9858 32.9043 47.1471 32.8797C46.2969 32.8546 45.7402 32.5528 45.4973 32.1197C45.2547 31.6866 45.288 31.0548 45.7101 30.3166C46.1265 29.5882 46.8834 28.8391 47.8954 28.2717Z" fill="white" stroke="black"/>
<path d="M52.2712 36.0745C53.283 35.5072 54.3164 35.2525 55.1549 35.2771C56.0049 35.3022 56.5613 35.6033 56.8042 36.0363C57.0471 36.4694 57.0142 37.1018 56.592 37.8402C56.1755 38.5685 55.4192 39.3173 54.4074 39.8846C53.3954 40.452 52.3615 40.7071 51.5229 40.6824C50.6726 40.6574 50.1159 40.3555 49.8731 39.9224C49.6304 39.4893 49.6637 38.8575 50.0858 38.1193C50.5022 37.3909 51.2592 36.6419 52.2712 36.0745Z" fill="white" stroke="black"/>
<ellipse cx="271.853" cy="63.2495" rx="6.65477" ry="2.66191" transform="rotate(-137.319 271.853 63.2495)" fill="black"/>
<path d="M267.054 67.7977C266.208 67.0181 265.651 66.1224 265.416 65.3249C265.179 64.5161 265.293 63.9001 265.625 63.5396C265.958 63.1792 266.562 63.0166 267.387 63.1877C268.201 63.3565 269.14 63.8391 269.985 64.6188C270.831 65.3984 271.387 66.2947 271.622 67.0923C271.859 67.9009 271.746 68.5163 271.413 68.8769C271.081 69.2374 270.476 69.4007 269.651 69.2295C268.837 69.0607 267.899 68.5773 267.054 67.7977Z" fill="white" stroke="black"/>
<path d="M273.069 61.2762C272.224 60.4966 271.666 59.601 271.432 58.8034C271.195 57.9946 271.309 57.3786 271.641 57.0181C271.974 56.6577 272.578 56.4951 273.403 56.6662C274.217 56.835 275.155 57.3177 276.001 58.0973C276.846 58.877 277.403 59.7732 277.637 60.5708C277.874 61.3794 277.761 61.9949 277.429 62.3554C277.096 62.7159 276.492 62.8792 275.666 62.708C274.852 62.5392 273.915 62.0558 273.069 61.2762Z" fill="white" stroke="black"/>
</g>
<defs>
<radialGradient id="paint0_radial_428_59" cx="0" cy="0" r="1" gradientUnits="userSpaceOnUse" gradientTransform="translate(156.408 138) rotate(89.9305) scale(166.5 313.22)">
<stop stop-color="#855B2E"/>
<stop offset="0.481091" stop-color="white"/>
</radialGradient>
<clipPath id="clip0_428_59">
<rect width="313.22" height="244.5" fill="white"/>
</clipPath>
</defs>
</svg>
