<svg width="208" height="310" viewBox="0 0 208 310" fill="none" xmlns="http://www.w3.org/2000/svg">
<path d="M2 259.478V68.0867L28.3053 62.6954L34.2105 47.0605L58.3684 53.7323L163.589 82.7915L206 94.5041V288.052L178 292.365L167.884 308L2 259.478Z" fill="white"/>
<path d="M2 68.0867V259.478L167.884 308M2 68.0867L28.3053 62.6954M2 68.0867L28.3053 75.1826M167.884 112.835V308M167.884 112.835L178 101.513M167.884 112.835L139.432 105.159L41.1895 78.6582L28.3053 75.1826M206 94.5041V288.052L178 292.365M206 94.5041L178 101.513M206 94.5041L163.589 82.7915L58.3684 53.7323L34.2105 47.0605M34.2105 47.0605L28.3053 62.6954M34.2105 47.0605V76.7756M167.884 308L178 292.365M178 292.365V101.513M28.3053 62.6954V75.1826" stroke="black" stroke-width="2.66812"/>
<path d="M2 68.0868V259.478L167.884 308M2 68.0868L28.3053 62.6955M2 68.0868L28.3053 75.1827M167.884 112.835V308M167.884 112.835L178 101.513M167.884 112.835L139.432 105.159M206 94.5042V288.052L178 292.365M206 94.5042L178 101.513M206 94.5042L163.589 82.7916M34.2105 47.0607L28.3053 62.6955M34.2105 47.0607V76.7757M34.2105 47.0607L58.3684 53.7324M167.884 308L178 292.365M178 292.365V101.513M28.3053 62.6955V75.1827M28.3053 75.1827L41.1895 78.6583M41.1895 78.6583C43.5158 54.8272 49.2421 5.54758 92.1895 12.017C136.004 18.6169 144.442 82.9178 139.432 105.159M41.1895 78.6583L139.432 105.159M58.3684 53.7324C57.4737 27.607 84.0694 -1.33496 113.126 2.31271C143.189 6.08671 166.274 28.1911 163.589 82.7916M58.3684 53.7324L163.589 82.7916" stroke="black" stroke-width="2.66812"/>
</svg>
