<svg width="260" height="249" viewBox="0 0 260 249" fill="none" xmlns="http://www.w3.org/2000/svg">
<path d="M4.67536 18.3101C22.1782 16.1756 36.426 14.6635 41.7622 14.5746C46.8869 43.4752 60.1671 100.791 73.084 104.138C73.3853 104.189 73.6907 104.237 74 104.284C95.7559 107.576 136.932 101.891 155 95.2525C155.293 95.1448 155.581 95.0367 155.862 94.9285C167.861 89.0496 151.654 34.3257 141.817 7.10403C149.821 5.23634 169.031 1.6077 181.838 2.0346C197.847 2.56823 277.357 181.866 253.878 213.616C230.398 245.367 86.3198 253.905 52.9683 241.631C26.2871 231.813 -7.86481 54.5963 4.67536 18.3101Z" fill="white"/>
<path d="M41.7622 14.5746C36.426 14.6635 22.1782 16.1756 4.67536 18.3101C-7.86481 54.5963 26.2871 231.813 52.9683 241.631C86.3198 253.905 230.398 245.367 253.878 213.616C277.357 181.866 197.847 2.56823 181.838 2.0346C169.031 1.6077 149.821 5.23634 141.817 7.10403M41.7622 14.5746C43.3631 39.8327 50.567 93.1242 63.374 101.022C65.8359 102.54 69.5031 103.604 74 104.284M41.7622 14.5746C47.0081 44.1589 60.8 103.519 74 104.284M141.817 7.10403C153.112 32.5401 172.767 85.2265 161.027 92.4838C159.527 93.4109 157.482 94.3407 155 95.2526M141.817 7.10403C151.878 34.944 168.6 91.5497 155 95.2526M74 104.284C95.7559 107.576 136.932 101.891 155 95.2526M63.374 157.5C57.1416 171.5 67.3 191 76.5 199C88 209 213.126 193 220.626 181.5C228.126 170 214.5 140 206 137C197.5 134 72.5 137 63.374 157.5Z" stroke="black" stroke-width="2.66812"/>
<path d="M76.5 199C67.3 191 57.1416 171.5 63.374 157.5C72.5 137 197.5 134 206 137C214.5 140 228.126 170 220.626 181.5C213.126 193 88 209 76.5 199Z" fill="white" stroke="black" stroke-width="2.66812"/>
</svg>
