<svg width="409" height="266" viewBox="0 0 409 266" fill="none" xmlns="http://www.w3.org/2000/svg">
<path d="M12.9502 92.3496L12.0391 91.9033L12.0361 91.9014C12.0325 91.8996 12.0262 91.8968 12.0176 91.8926C12.0002 91.8839 11.9729 91.87 11.9365 91.8516C11.8639 91.8148 11.7546 91.7592 11.6143 91.6855C11.3327 91.5378 10.9256 91.3194 10.4365 91.04C9.45505 90.4793 8.15695 89.6827 6.86719 88.7354C5.56766 87.7808 4.33252 86.7128 3.4375 85.6172C2.52268 84.4972 2.11035 83.5297 2.11035 82.7471V26.0156C2.11035 25.7163 2.35301 25.4736 2.65234 25.4736H5.63281C5.93214 25.4736 6.1748 25.7163 6.1748 26.0156V63.1465C6.17492 65.2416 7.87369 66.9402 9.96875 66.9404H12.002C14.0971 66.9403 15.7958 65.2416 15.7959 63.1465V26.0156C15.7959 25.7163 16.0386 25.4736 16.3379 25.4736H19.3184C19.6177 25.4736 19.8604 25.7163 19.8604 26.0156V63.1465C19.8605 65.2417 21.5591 66.9404 23.6543 66.9404H25.6865C27.7818 66.9404 29.4804 65.2417 29.4805 63.1465V26.0156C29.4805 25.7164 29.7233 25.4738 30.0225 25.4736H33.0039C33.3031 25.4738 33.5459 25.7164 33.5459 26.0156V82.7471C33.5459 83.5297 33.1336 84.4972 32.2188 85.6172C31.3237 86.7129 30.0886 87.7808 28.7891 88.7354C27.4992 89.6828 26.2003 90.4793 25.2188 91.04C24.7299 91.3193 24.3235 91.5379 24.042 91.6855C23.9016 91.7592 23.7924 91.8148 23.7197 91.8516C23.6834 91.8699 23.656 91.8839 23.6387 91.8926C23.6302 91.8968 23.6238 91.8995 23.6201 91.9014L23.6162 91.9033L22.7061 92.3496V93.3633C22.7061 111.993 24.0604 140.143 25.4121 164.924C26.7677 189.775 28.1142 211.152 28.1143 216.401C28.1143 219.277 28.3776 221.6 27.8818 224.04C27.42 226.313 26.2751 228.641 23.3037 231.066C21.6492 232.417 20.5077 233.345 19.5811 233.95C18.6636 234.549 18.1731 234.681 17.8281 234.681C17.4832 234.681 16.9926 234.549 16.0752 233.95C15.1486 233.345 14.0069 232.417 12.3525 231.066C9.38117 228.641 8.23621 226.313 7.77441 224.04C7.27867 221.6 7.54199 219.277 7.54199 216.401C7.54201 211.152 8.8876 189.775 10.2432 164.924C11.5949 140.143 12.9502 111.993 12.9502 93.3633V92.3496Z" fill="#E7E7E7" stroke="black" stroke-width="3.25193"/>
<path d="M244.082 227.661L373.225 113.118L371.863 134.456L382.33 134.256L367.422 204.001L365.302 237.194L351.833 236.135L341.998 259.739L253.902 244.839L263.889 229.219L244.082 227.661Z" fill="white"/>
<path d="M263.889 229.219L244.082 227.661L373.225 113.118L371.863 134.456M263.889 229.219L253.902 244.839L341.998 259.739L351.833 236.135M263.889 229.219L351.833 236.135M351.833 236.135L365.302 237.194L367.422 204.001M367.422 204.001L382.33 134.256L371.863 134.456M367.422 204.001L371.863 134.456" stroke="black" stroke-width="2.5"/>
<path d="M206.982 25.4736C249.341 25.4737 287.621 37.5852 315.269 57.084C342.921 76.5858 359.823 103.375 359.823 132.787C359.823 162.199 342.921 188.988 315.269 208.49C287.621 227.989 249.341 240.101 206.982 240.101C164.622 240.101 126.342 227.989 98.6948 208.49C71.0429 188.988 54.1411 162.199 54.1411 132.787C54.1412 103.375 71.0429 76.5858 98.6948 57.084C126.342 37.5853 164.623 25.4736 206.982 25.4736Z" fill="white" stroke="black" stroke-width="3.25193"/>
<path d="M206.982 46.0693C243.559 46.0693 276.649 55.8132 300.579 71.5381C324.512 87.266 339.227 108.932 339.227 132.787C339.227 156.642 324.513 178.309 300.579 194.037C276.649 209.762 243.559 219.506 206.982 219.506C170.405 219.506 137.315 209.762 113.385 194.037C89.4513 178.309 74.7368 156.642 74.7368 132.787C74.737 108.932 89.4514 87.266 113.385 71.5381C137.315 55.8132 170.404 46.0693 206.982 46.0693Z" fill="white" stroke="#D6D6D6" stroke-width="1.08398"/>
<path d="M160.139 81.8515C163.081 81.2983 166.255 80.9522 167.417 80.9522L172.837 80.9522C174.714 80.9522 176.089 81.2984 177.173 81.8403C178.733 82.6203 180.283 83.2837 180.967 85.0923C181.746 87.157 181.371 89.8926 180.425 91.5961C179.518 93.2283 179.238 93.6029 177.453 94.9508C174.965 96.8291 170.942 99.0122 166.378 100.021C160.108 101.407 156.211 101.432 153.867 101.894C145.921 103.461 143.499 105.349 141.943 106.23C139.593 107.56 135.929 109.996 132.73 113.276C127.663 118.469 126.067 120.418 124.435 122.456C123.226 123.965 121.838 125.544 120.756 127.646C119.607 129.879 117.965 133.428 116.958 138.47C115.928 143.627 116.49 147.055 117.076 149.047C117.554 150.673 118.393 153.171 119.258 155.335C120.461 158.346 122.33 163.484 120.213 165.036C119.969 165.215 118.988 165.423 118.638 165.307C117.012 164.765 117.012 164.223 115.928 163.139C115.235 162.446 113.213 159.376 110.064 152.02C107.541 146.128 105.598 142.007 106.347 134.788C106.709 131.301 107.892 125.396 111.195 117.936C112.774 114.367 114.566 111.381 117.123 108.043C119.68 104.704 122.904 101.121 125.316 98.7146C127.728 96.3079 129.281 95.1136 132.949 92.9784C136.617 90.8431 142.179 87.7515 145.713 86.1184C150.511 83.9017 154.429 82.9252 160.139 81.8515Z" fill="#F7DCAC"/>
<path d="M298.286 158.82C300.762 155.808 301.288 155.541 302.372 154.457L303.998 152.831C305.082 151.747 305.152 151.373 306.166 149.037C306.739 147.144 306.519 144.851 306.595 143.508C306.728 141.136 306.708 139.457 306.708 138.197C306.708 137.123 307.145 136.407 308.334 136.038C309.035 135.821 310.267 136.399 310.502 136.581C311.469 137.332 312.124 138.069 312.67 139.291C313.241 140.571 313.792 144.612 311.586 150.131C310.445 152.983 309.609 154.586 307.863 156.637C305.836 159.018 303.236 162.054 301.398 163.363C299.849 164.466 297.944 166.003 296.382 165.822C295.984 165.776 295.539 165.634 295.462 165.245C295.287 164.366 296.226 161.326 298.286 158.82Z" fill="#F7DCAC"/>
<path d="M272.679 181.584C275.837 179.318 276.001 179.508 276.898 178.856C277.146 178.676 278.524 177.772 279.323 177.276C279.636 177.082 280.15 176.688 281.234 176.146C281.934 175.796 282.267 175.556 282.935 175.277C283.559 175.016 284.195 174.498 285.352 174.681C285.844 174.759 286.257 174.91 286.44 175.23C286.654 175.604 286.758 176.377 286.654 176.688C286.446 177.312 285.943 177.834 285.528 178.424C284.849 179.39 283.963 180.479 282.714 181.469L282.704 181.477C281.2 182.67 279.159 184.288 277.077 185.128C275.862 185.618 275.183 185.689 274.694 185.748C273.624 185.877 272.614 186.032 271.959 185.748C271.776 185.668 270.979 185.172 270.937 184.818C270.834 183.965 271.216 183.367 271.552 182.841L271.556 182.835C272.021 182.108 272.047 182.038 272.679 181.584Z" fill="#F7DCAC"/>
<path d="M387.822 25.4912C389.733 27.2148 391.815 30.0949 393.89 33.8271C396.108 37.8163 398.247 42.6454 400.114 47.7607C403.861 58.0297 406.434 69.2387 406.434 76.9297C406.434 83.1819 405.406 99.6186 403.744 115.77C402.914 123.836 401.929 131.799 400.841 138.355C400.297 141.635 399.73 144.543 399.148 146.929C398.559 149.342 397.978 151.119 397.436 152.194L397.222 152.619L397.27 153.092C399.232 172.299 401.236 209.141 401.236 216.401C401.236 219.279 401.5 221.599 401.001 224.038C400.537 226.309 399.384 228.636 396.39 231.062C394.723 232.413 393.573 233.342 392.639 233.947C391.714 234.547 391.216 234.682 390.862 234.682C390.507 234.682 390.009 234.546 389.085 233.947C388.151 233.342 387.001 232.413 385.334 231.062C382.34 228.636 381.188 226.309 380.723 224.038C380.224 221.599 380.489 219.279 380.489 216.401C380.489 210.048 381.76 168.219 383.631 153.127L383.644 153.023L383.643 152.919L383.48 119.387V29.1631C383.48 29.1479 383.482 29.116 383.486 29.0703C383.494 28.9785 383.511 28.8337 383.548 28.6543C383.623 28.2895 383.771 27.8164 384.056 27.3555C384.524 26.5975 385.5 25.6304 387.822 25.4912Z" fill="#E7E7E7" stroke="black" stroke-width="3.25193"/>
</svg>
