<svg width="114" height="113" viewBox="0 0 114 113" fill="none" xmlns="http://www.w3.org/2000/svg">
<path fill-rule="evenodd" clip-rule="evenodd" d="M57 99.5474C68.4169 99.5474 79.3663 95.012 87.4393 86.939C95.5123 78.866 100.048 67.9167 100.048 56.4998C100.048 45.0828 95.5123 34.1335 87.4393 26.0605C79.3663 17.9875 68.4169 13.4521 57 13.4521C45.5831 13.4521 34.6337 17.9875 26.5607 26.0605C18.4877 34.1335 13.9524 45.0828 13.9524 56.4998C13.9524 67.9167 18.4877 78.866 26.5607 86.939C34.6337 95.012 45.5831 99.5474 57 99.5474Z" stroke="black" stroke-width="4" stroke-linecap="round" stroke-linejoin="round"/>
<path d="M44 48C46.7614 48 49 45.7614 49 43C49 40.2386 46.7614 38 44 38C41.2386 38 39 40.2386 39 43C39 45.7614 41.2386 48 44 48Z" fill="black"/>
<path d="M70 48C72.7614 48 75 45.7614 75 43C75 40.2386 72.7614 38 70 38C67.2386 38 65 40.2386 65 43C65 45.7614 67.2386 48 70 48Z" fill="black"/>
<path d="M40.8571 72.6428C44.1001 65.4682 49.481 63 57 63C65 63 69.8981 65.47 73.1429 72.6428" stroke="black" stroke-width="4" stroke-linecap="round" stroke-linejoin="round"/>
</svg>
