<svg width="409" height="266" viewBox="0 0 409 266" fill="none" xmlns="http://www.w3.org/2000/svg">
<path d="M13.375 92.3496L12.4639 91.9033L12.4609 91.9014C12.4573 91.8996 12.451 91.8968 12.4424 91.8926C12.425 91.8839 12.3977 91.87 12.3613 91.8516C12.2887 91.8148 12.1794 91.7592 12.0391 91.6855C11.7575 91.5378 11.3504 91.3194 10.8613 91.04C9.87986 90.4793 8.58175 89.6827 7.29199 88.7354C5.99247 87.7808 4.75732 86.7128 3.8623 85.6172C2.94749 84.4972 2.53516 83.5297 2.53516 82.7471V26.0156C2.53516 25.7163 2.77782 25.4736 3.07715 25.4736H6.05762C6.35695 25.4736 6.59961 25.7163 6.59961 26.0156V63.1465C6.59972 65.2416 8.29849 66.9402 10.3936 66.9404H12.4268C14.5219 66.9403 16.2206 65.2416 16.2207 63.1465V26.0156C16.2207 25.7163 16.4634 25.4736 16.7627 25.4736H19.7432C20.0425 25.4736 20.2852 25.7163 20.2852 26.0156V63.1465C20.2853 65.2417 21.9839 66.9404 24.0791 66.9404H26.1113C28.2066 66.9404 29.9052 65.2417 29.9053 63.1465V26.0156C29.9053 25.7164 30.1481 25.4738 30.4473 25.4736H33.4287C33.7279 25.4738 33.9707 25.7164 33.9707 26.0156V82.7471C33.9707 83.5297 33.5584 84.4972 32.6436 85.6172C31.7485 86.7129 30.5134 87.7808 29.2139 88.7354C27.924 89.6828 26.6251 90.4793 25.6436 91.04C25.1547 91.3193 24.7483 91.5379 24.4668 91.6855C24.3264 91.7592 24.2172 91.8148 24.1445 91.8516C24.1082 91.8699 24.0808 91.8839 24.0635 91.8926C24.055 91.8968 24.0486 91.8995 24.0449 91.9014L24.041 91.9033L23.1309 92.3496V93.3633C23.1309 111.993 24.4852 140.143 25.8369 164.924C27.1925 189.775 28.539 211.152 28.5391 216.401C28.5391 219.277 28.8024 221.6 28.3066 224.04C27.8448 226.313 26.6999 228.641 23.7285 231.066C22.074 232.417 20.9325 233.345 20.0059 233.95C19.0884 234.549 18.5979 234.681 18.2529 234.681C17.908 234.681 17.4174 234.549 16.5 233.95C15.5734 233.345 14.4317 232.417 12.7773 231.066C9.80598 228.641 8.66102 226.313 8.19922 224.04C7.70347 221.6 7.9668 219.277 7.9668 216.401C7.96682 211.152 9.31241 189.775 10.668 164.924C12.0197 140.143 13.375 111.993 13.375 93.3633V92.3496Z" fill="#E7E7E7" stroke="black" stroke-width="3.25193"/>
<path d="M207.407 25.4736C249.766 25.4737 288.046 37.5852 315.694 57.084C343.346 76.5858 360.247 103.375 360.248 132.787C360.248 162.199 343.346 188.988 315.694 208.49C288.046 227.989 249.766 240.101 207.407 240.101C165.047 240.101 126.767 227.989 99.1196 208.49C71.4677 188.988 54.5659 162.199 54.5659 132.787C54.566 103.375 71.4677 76.5858 99.1196 57.084C126.767 37.5853 165.047 25.4736 207.407 25.4736Z" fill="white" stroke="black" stroke-width="3.25193"/>
<path d="M207.407 46.0693C243.984 46.0693 277.074 55.8132 301.003 71.5381C324.937 87.266 339.652 108.932 339.652 132.787C339.652 156.642 324.937 178.309 301.003 194.037C277.074 209.762 243.984 219.506 207.407 219.506C170.829 219.506 137.739 209.762 113.81 194.037C89.8761 178.309 75.1616 156.642 75.1616 132.787C75.1618 108.932 89.8762 87.266 113.81 71.5381C137.739 55.8132 170.829 46.0693 207.407 46.0693Z" fill="white" stroke="#D6D6D6" stroke-width="1.08398"/>
<path d="M160.564 81.8515C163.506 81.2983 166.68 80.9522 167.842 80.9522L173.262 80.9522C175.139 80.9522 176.513 81.2984 177.597 81.8403C179.157 82.6203 180.708 83.2837 181.391 85.0923C182.171 87.157 181.796 89.8926 180.849 91.5961C179.943 93.2283 179.663 93.6029 177.878 94.9508C175.389 96.8291 171.367 99.0122 166.803 100.021C160.533 101.407 156.635 101.432 154.292 101.894C146.346 103.461 143.924 105.349 142.368 106.23C140.018 107.56 136.354 109.996 133.154 113.276C128.088 118.469 126.492 120.418 124.86 122.456C123.651 123.965 122.262 125.544 121.181 127.646C120.032 129.879 118.39 133.428 117.383 138.47C116.353 143.627 116.915 147.055 117.5 149.047C117.979 150.673 118.818 153.171 119.683 155.335C120.886 158.346 122.754 163.484 120.638 165.036C120.394 165.215 119.413 165.423 119.063 165.307C117.437 164.765 117.437 164.223 116.353 163.139C115.66 162.446 113.638 159.376 110.489 152.02C107.966 146.128 106.022 142.007 106.772 134.788C107.134 131.301 108.317 125.396 111.619 117.936C113.199 114.367 114.991 111.381 117.548 108.043C120.104 104.704 123.329 101.121 125.741 98.7146C128.153 96.3079 129.706 95.1136 133.374 92.9784C137.042 90.8431 142.604 87.7515 146.138 86.1184C150.935 83.9017 154.854 82.9252 160.564 81.8515Z" fill="#F7DCAC"/>
<path d="M298.711 158.82C301.187 155.808 301.713 155.541 302.797 154.457L304.423 152.831C305.507 151.747 305.577 151.373 306.591 149.037C307.163 147.144 306.944 144.851 307.019 143.508C307.153 141.136 307.133 139.457 307.133 138.197C307.133 137.123 307.569 136.407 308.759 136.038C309.459 135.821 310.692 136.399 310.927 136.581C311.894 137.332 312.549 138.069 313.094 139.291C313.666 140.571 314.217 144.612 312.01 150.131C310.87 152.983 310.034 154.586 308.288 156.637C306.261 159.018 303.661 162.054 301.823 163.363C300.274 164.466 298.369 166.003 296.806 165.822C296.409 165.776 295.964 165.634 295.886 165.245C295.712 164.366 296.651 161.326 298.711 158.82Z" fill="#F7DCAC"/>
<path d="M273.104 181.584C276.262 179.318 276.426 179.508 277.323 178.856C277.571 178.676 278.949 177.772 279.748 177.276C280.061 177.082 280.575 176.688 281.659 176.146C282.358 175.796 282.692 175.556 283.359 175.277C283.984 175.016 284.62 174.498 285.777 174.681C286.269 174.759 286.682 174.91 286.865 175.23C287.079 175.604 287.183 176.377 287.079 176.688C286.871 177.312 286.368 177.834 285.953 178.424C285.274 179.39 284.388 180.479 283.139 181.469L283.129 181.477C281.624 182.67 279.584 184.288 277.502 185.128C276.287 185.618 275.608 185.689 275.119 185.748C274.049 185.877 273.039 186.032 272.384 185.748C272.201 185.668 271.404 185.172 271.361 184.818C271.259 183.965 271.641 183.367 271.977 182.841L271.981 182.835C272.445 182.108 272.471 182.038 273.104 181.584Z" fill="#F7DCAC"/>
<path d="M388.246 25.4912C390.158 27.2148 392.24 30.0949 394.315 33.8271C396.533 37.8163 398.672 42.6454 400.538 47.7607C404.286 58.0297 406.859 69.2387 406.859 76.9297C406.859 83.1819 405.831 99.6186 404.169 115.77C403.339 123.836 402.354 131.799 401.266 138.355C400.722 141.635 400.154 144.543 399.573 146.929C398.984 149.342 398.403 151.119 397.861 152.194L397.647 152.619L397.695 153.092C399.656 172.299 401.66 209.141 401.66 216.401C401.66 219.279 401.925 221.599 401.426 224.038C400.961 226.309 399.809 228.636 396.815 231.062C395.148 232.413 393.998 233.342 393.064 233.947C392.139 234.547 391.641 234.682 391.286 234.682C390.932 234.682 390.434 234.546 389.51 233.947C388.576 233.342 387.425 232.413 385.759 231.062C382.764 228.636 381.612 226.309 381.148 224.038C380.649 221.599 380.913 219.279 380.913 216.401C380.913 210.048 382.185 168.219 384.056 153.127L384.069 153.023L384.068 152.919L383.905 119.387V29.1631C383.905 29.1479 383.906 29.116 383.91 29.0703C383.919 28.9785 383.936 28.8337 383.973 28.6543C384.048 28.2895 384.196 27.8164 384.481 27.3555C384.948 26.5975 385.924 25.6304 388.246 25.4912Z" fill="#E7E7E7" stroke="black" stroke-width="3.25193"/>
<path d="M115.399 112.645C132.45 99.04 160.777 73.2079 193.844 65.3423L183.41 29.2676C209.337 33.5965 235.264 52.3168 245.43 60.3627C329.476 64.0539 360.776 118.166 360.776 132.338C352.737 135.198 340.343 140.809 342.078 144.711C343.812 148.613 351.158 147.782 356.241 146.337C344.908 167.805 311.392 201.417 245.175 204.327C234.833 212.534 209.122 231.112 183.41 235.409L193.844 199.334C160.744 191.443 132.287 165.546 115.268 151.928C110.39 156.392 105.249 160.567 99.8725 164.432C76.1629 181.542 47.7778 183.661 47.7778 183.661C47.7778 183.661 55.192 150.466 74.7479 132.229C55.192 113.998 47.7778 80.8029 47.7778 80.8029C47.7778 80.8029 76.1629 82.9223 99.8725 100.032C105.295 103.931 110.479 108.142 115.399 112.645Z" fill="url(#paint0_linear_434_130)" stroke="black" stroke-width="2.89422" stroke-linejoin="round"/>
<path d="M283.666 197.129C272.169 177.56 266.114 155.336 266.114 132.71C266.114 110.084 272.169 87.8602 283.666 68.291" stroke="black" stroke-width="2.89422" stroke-miterlimit="20" stroke-linecap="round"/>
<g opacity="0.05">
<circle cx="145.878" cy="119.779" r="9.2138" fill="#FFCDCD" stroke="black" stroke-width="2.16795"/>
<circle cx="166.473" cy="151.215" r="9.2138" fill="#FFCDCD" stroke="black" stroke-width="2.16795"/>
<circle cx="212" cy="125.199" r="9.2138" fill="#FFCDCD" stroke="black" stroke-width="2.16795"/>
<circle cx="190.863" cy="101.894" r="6.50386" fill="#FFCDCD" stroke="black" stroke-width="2.16795"/>
<circle cx="212.542" cy="78.0459" r="3.25193" fill="#FFCDCD" stroke="black" stroke-width="2.16795"/>
<circle cx="194.115" cy="176.688" r="3.25193" fill="#FFCDCD" stroke="black" stroke-width="2.16795"/>
<circle cx="251.566" cy="145.253" r="3.25193" fill="#FFCDCD" stroke="black" stroke-width="2.16795"/>
<circle cx="254.818" cy="117.069" r="6.50386" fill="#FFCDCD" stroke="black" stroke-width="2.16795"/>
<circle cx="220.13" cy="161.513" r="6.50386" fill="#FFCDCD" stroke="black" stroke-width="2.16795"/>
<circle cx="257.528" cy="182.65" r="9.2138" fill="#FFCDCD" stroke="black" stroke-width="2.16795"/>
<circle cx="239.1" cy="84.0077" r="9.2138" fill="#FFCDCD" stroke="black" stroke-width="2.16795"/>
<circle cx="282.459" cy="129.535" r="9.2138" fill="#FFCDCD" stroke="black" stroke-width="2.16795"/>
</g>
<path d="M300.232 125.197L316.488 113.818" stroke="black" stroke-width="2.16795" stroke-linecap="round"/>
<path d="M299.776 114.546L316.961 124.468" stroke="black" stroke-width="2.16795" stroke-linecap="round"/>
<defs>
<linearGradient id="paint0_linear_434_130" x1="204.277" y1="29.2676" x2="204.277" y2="235.409" gradientUnits="userSpaceOnUse">
<stop offset="0.0240385" stop-color="#393939"/>
<stop offset="0.380488" stop-color="#999999"/>
<stop offset="0.591346" stop-color="white"/>
</linearGradient>
</defs>
</svg>
