<svg width="409" height="266" viewBox="0 0 409 266" fill="none" xmlns="http://www.w3.org/2000/svg">
<path d="M12.9502 92.3496L12.0391 91.9033L12.0361 91.9014C12.0325 91.8996 12.0262 91.8968 12.0176 91.8926C12.0002 91.8839 11.9729 91.87 11.9365 91.8516C11.8639 91.8148 11.7546 91.7592 11.6143 91.6855C11.3327 91.5378 10.9256 91.3194 10.4365 91.04C9.45505 90.4793 8.15695 89.6827 6.86719 88.7354C5.56766 87.7808 4.33252 86.7128 3.4375 85.6172C2.52268 84.4972 2.11035 83.5297 2.11035 82.7471V26.0156C2.11035 25.7163 2.35301 25.4736 2.65234 25.4736H5.63281C5.93214 25.4736 6.1748 25.7163 6.1748 26.0156V63.1465C6.17492 65.2416 7.87369 66.9402 9.96875 66.9404H12.002C14.0971 66.9403 15.7958 65.2416 15.7959 63.1465V26.0156C15.7959 25.7163 16.0386 25.4736 16.3379 25.4736H19.3184C19.6177 25.4736 19.8604 25.7163 19.8604 26.0156V63.1465C19.8605 65.2417 21.5591 66.9404 23.6543 66.9404H25.6865C27.7818 66.9404 29.4804 65.2417 29.4805 63.1465V26.0156C29.4805 25.7164 29.7233 25.4738 30.0225 25.4736H33.0039C33.3031 25.4738 33.5459 25.7164 33.5459 26.0156V82.7471C33.5459 83.5297 33.1336 84.4972 32.2188 85.6172C31.3237 86.7129 30.0886 87.7808 28.7891 88.7354C27.4992 89.6828 26.2003 90.4793 25.2188 91.04C24.7299 91.3193 24.3235 91.5379 24.042 91.6855C23.9016 91.7592 23.7924 91.8148 23.7197 91.8516C23.6834 91.8699 23.656 91.8839 23.6387 91.8926C23.6302 91.8968 23.6238 91.8995 23.6201 91.9014L23.6162 91.9033L22.7061 92.3496V93.3633C22.7061 111.993 24.0604 140.143 25.4121 164.924C26.7677 189.775 28.1142 211.152 28.1143 216.401C28.1143 219.277 28.3776 221.6 27.8818 224.04C27.42 226.313 26.2751 228.641 23.3037 231.066C21.6492 232.417 20.5077 233.345 19.5811 233.95C18.6636 234.549 18.1731 234.681 17.8281 234.681C17.4832 234.681 16.9926 234.549 16.0752 233.95C15.1486 233.345 14.0069 232.417 12.3525 231.066C9.38117 228.641 8.23621 226.313 7.77441 224.04C7.27867 221.6 7.54199 219.277 7.54199 216.401C7.54201 211.152 8.8876 189.775 10.2432 164.924C11.5949 140.143 12.9502 111.993 12.9502 93.3633V92.3496Z" fill="#E7E7E7" stroke="black" stroke-width="3.25193"/>
<path d="M206.982 25.4736C249.342 25.4737 287.622 37.5852 315.269 57.084C342.921 76.5858 359.823 103.375 359.823 132.787C359.823 162.199 342.921 188.988 315.269 208.49C287.622 227.989 249.342 240.101 206.982 240.101C164.623 240.101 126.343 227.989 98.6951 208.49C71.0431 188.988 54.1414 162.199 54.1414 132.787C54.1414 103.375 71.0432 76.5858 98.6951 57.084C126.343 37.5853 164.623 25.4736 206.982 25.4736Z" fill="white" stroke="black" stroke-width="3.25193"/>
<path d="M206.982 46.0684C243.559 46.0684 276.649 55.8122 300.579 71.5371C324.512 87.265 339.227 108.931 339.227 132.786C339.227 156.641 324.513 178.308 300.579 194.036C276.649 209.761 243.559 219.505 206.982 219.505C170.405 219.505 137.315 209.761 113.385 194.036C89.4513 178.308 74.7368 156.641 74.7368 132.786C74.737 108.931 89.4514 87.265 113.385 71.5371C137.315 55.8122 170.404 46.0684 206.982 46.0684Z" fill="white" stroke="#D6D6D6" stroke-width="1.08398"/>
<path d="M160.139 81.8515C163.081 81.2983 166.255 80.9522 167.417 80.9522L172.837 80.9522C174.714 80.9522 176.089 81.2984 177.173 81.8403C178.733 82.6203 180.283 83.2837 180.967 85.0923C181.746 87.157 181.371 89.8926 180.425 91.5961C179.518 93.2283 179.238 93.6029 177.453 94.9508C174.965 96.8291 170.942 99.0122 166.378 100.021C160.108 101.407 156.211 101.432 153.867 101.894C145.921 103.461 143.499 105.349 141.943 106.23C139.593 107.56 135.929 109.996 132.73 113.276C127.663 118.469 126.067 120.418 124.435 122.456C123.226 123.965 121.838 125.544 120.756 127.646C119.607 129.879 117.965 133.428 116.958 138.47C115.928 143.627 116.49 147.055 117.076 149.047C117.554 150.673 118.393 153.171 119.258 155.335C120.461 158.346 122.33 163.484 120.213 165.036C119.969 165.215 118.988 165.423 118.638 165.307C117.012 164.765 117.012 164.223 115.928 163.139C115.235 162.446 113.213 159.376 110.064 152.02C107.541 146.128 105.598 142.007 106.347 134.788C106.709 131.301 107.892 125.396 111.195 117.936C112.774 114.367 114.566 111.381 117.123 108.043C119.68 104.704 122.904 101.121 125.316 98.7146C127.728 96.3079 129.281 95.1136 132.949 92.9784C136.617 90.8431 142.179 87.7515 145.713 86.1184C150.511 83.9017 154.429 82.9252 160.139 81.8515Z" fill="#F7DCAC"/>
<path d="M298.286 158.82C300.762 155.808 301.288 155.541 302.372 154.457L303.998 152.831C305.082 151.747 305.152 151.373 306.166 149.037C306.739 147.144 306.519 144.851 306.595 143.508C306.728 141.136 306.708 139.457 306.708 138.197C306.708 137.123 307.145 136.407 308.334 136.038C309.035 135.821 310.267 136.399 310.502 136.581C311.469 137.332 312.125 138.069 312.67 139.291C313.241 140.571 313.793 144.612 311.586 150.131C310.446 152.983 309.61 154.586 307.863 156.637C305.836 159.018 303.236 162.054 301.399 163.363C299.849 164.466 297.944 166.003 296.382 165.822C295.985 165.776 295.539 165.634 295.462 165.245C295.288 164.366 296.226 161.326 298.286 158.82Z" fill="#F7DCAC"/>
<path d="M272.679 181.584C275.837 179.318 276.001 179.508 276.898 178.856C277.146 178.676 278.524 177.772 279.323 177.276C279.636 177.082 280.15 176.688 281.234 176.146C281.934 175.796 282.267 175.556 282.935 175.277C283.559 175.016 284.195 174.498 285.352 174.681C285.844 174.759 286.257 174.91 286.44 175.23C286.654 175.604 286.758 176.377 286.654 176.688C286.446 177.312 285.943 177.834 285.528 178.424C284.849 179.39 283.963 180.479 282.714 181.469L282.704 181.477C281.2 182.67 279.159 184.288 277.077 185.128C275.862 185.618 275.183 185.689 274.694 185.748C273.624 185.877 272.614 186.032 271.959 185.748C271.776 185.668 270.979 185.172 270.937 184.818C270.834 183.965 271.216 183.367 271.552 182.841L271.556 182.835C272.021 182.108 272.047 182.038 272.679 181.584Z" fill="#F7DCAC"/>
<path d="M387.822 25.4912C389.733 27.2148 391.815 30.0949 393.89 33.8271C396.108 37.8163 398.247 42.6454 400.114 47.7607C403.861 58.0297 406.434 69.2387 406.434 76.9297C406.434 83.1819 405.406 99.6186 403.745 115.77C402.915 123.836 401.93 131.799 400.841 138.355C400.297 141.635 399.73 144.543 399.148 146.929C398.559 149.342 397.979 151.119 397.436 152.194L397.222 152.619L397.27 153.092C399.232 172.299 401.236 209.141 401.236 216.401C401.236 219.279 401.501 221.599 401.001 224.038C400.537 226.309 399.385 228.636 396.39 231.062C394.724 232.413 393.573 233.342 392.639 233.947C391.715 234.547 391.216 234.682 390.862 234.682C390.508 234.682 390.01 234.546 389.085 233.947C388.151 233.342 387.001 232.413 385.334 231.062C382.34 228.636 381.188 226.309 380.723 224.038C380.224 221.599 380.489 219.279 380.489 216.401C380.489 210.048 381.76 168.219 383.631 153.127L383.644 153.023L383.643 152.919L383.48 119.387V29.1631C383.481 29.1479 383.482 29.116 383.486 29.0703C383.494 28.9785 383.511 28.8337 383.548 28.6543C383.623 28.2895 383.772 27.8164 384.056 27.3555C384.524 26.5975 385.5 25.6304 387.822 25.4912Z" fill="#E7E7E7" stroke="black" stroke-width="3.25193"/>
<g clip-path="url(#clip0_438_254)">
<path d="M129 62.5L175.5 51.5C181.9 75.5 161.5 82.5 150.5 83C146.333 83.3333 138.5 85.6 140.5 92C142.5 98.4 148.333 98.3333 151 97.5C177.142 95.5 187.226 87 189 83C193.8 84.2 191 92.1667 189 96C195.8 96 195.833 103 195 106.5L185 103.5L160 107.5C148.167 111.5 122.9 114.8 116.5 96C110.1 77.2 122.167 65.8333 129 62.5Z" fill="#FFB06C"/>
<mask id="path-9-inside-1_438_254" fill="white">
<path d="M179.823 52.3317C180.894 59.5121 179.201 66.8313 175.086 72.8124C170.971 78.7935 164.741 82.9913 157.652 84.5587L146.462 87.018C145.349 87.2626 144.379 87.9393 143.765 88.8992C143.151 89.8591 142.943 91.0236 143.188 92.1366C143.433 93.2495 144.109 94.2197 145.069 94.8337C146.029 95.4477 147.194 95.6552 148.307 95.4106L167.889 91.1069C168.631 90.9438 169.408 91.0821 170.048 91.4915C170.688 91.9008 171.139 92.5476 171.302 93.2896C171.465 94.0315 171.327 94.8079 170.917 95.4478C170.508 96.0878 169.861 96.5389 169.119 96.702L152.334 100.391L153.563 105.986L169.144 102.115C169.886 101.952 170.662 102.091 171.302 102.5C171.942 102.909 172.393 103.556 172.556 104.298C172.719 105.04 172.581 105.816 172.171 106.456C171.762 107.096 171.115 107.547 170.373 107.71L146.4 113.426C138.981 115.056 131.217 113.673 124.818 109.579C118.419 105.486 113.907 99.0179 112.277 91.5984C110.646 84.1788 112.03 76.4154 116.123 70.0159C120.216 63.6165 126.684 59.1052 134.104 57.4746L174.668 48.5596C175.781 48.315 176.752 47.6384 177.366 46.6784C177.98 45.7185 178.187 44.554 177.942 43.4411C177.698 42.3281 177.021 41.358 176.061 40.7439C175.101 40.1299 173.937 39.9224 172.824 40.167L143.45 46.6227C141.224 47.1119 138.895 46.6968 136.975 45.4688C135.055 44.2407 133.702 42.3004 133.213 40.0745C133.049 39.3325 133.188 38.5562 133.597 37.9163C134.007 37.2763 134.653 36.8252 135.395 36.6621C136.137 36.4991 136.914 36.6374 137.554 37.0468C138.193 37.4561 138.645 38.1029 138.808 38.8448C138.971 39.5868 139.422 40.2336 140.062 40.6429C140.702 41.0523 141.478 41.1906 142.22 41.0276L171.594 34.5719C173.823 34.0843 176.151 34.3713 178.194 35.3856C180.238 36.3999 181.874 38.0808 182.833 40.1507C183.792 42.2206 184.017 44.5557 183.469 46.7703C182.922 48.985 181.636 50.9468 179.823 52.3317ZM127.927 104.761L137.72 93.9102L137.6 93.3647C137.404 92.4814 137.328 91.5757 137.375 90.6721L117.366 86.3998C117.513 90.0868 118.552 93.6831 120.394 96.8806C122.236 100.078 124.825 102.781 127.941 104.758L127.927 104.761ZM140.935 98.8967L133.366 107.294C137.185 108.509 141.257 108.694 145.171 107.83L147.968 107.216L146.649 101.211C144.553 101.052 142.56 100.242 140.949 98.8936L140.935 98.8967ZM142.525 82.4469L138.131 62.4549L135.334 63.0697C131.042 64.0179 127.113 66.1789 124.015 69.2957C120.916 72.4124 118.778 76.3537 117.855 80.6506L139.344 85.2355C140.194 84.0903 141.278 83.1395 142.525 82.4469ZM174.324 54.5006L143.726 61.2252L148.03 80.8081L156.423 78.9636C161.871 77.7594 166.693 74.6115 169.988 70.1089C173.283 65.6064 174.825 60.0575 174.324 54.5006Z"/>
</mask>
<path d="M179.823 52.3317C180.894 59.5121 179.201 66.8313 175.086 72.8124C170.971 78.7935 164.741 82.9913 157.652 84.5587L146.462 87.018C145.349 87.2626 144.379 87.9393 143.765 88.8992C143.151 89.8591 142.943 91.0236 143.188 92.1366C143.433 93.2495 144.109 94.2197 145.069 94.8337C146.029 95.4477 147.194 95.6552 148.307 95.4106L167.889 91.1069C168.631 90.9438 169.408 91.0821 170.048 91.4915C170.688 91.9008 171.139 92.5476 171.302 93.2896C171.465 94.0315 171.327 94.8079 170.917 95.4478C170.508 96.0878 169.861 96.5389 169.119 96.702L152.334 100.391L153.563 105.986L169.144 102.115C169.886 101.952 170.662 102.091 171.302 102.5C171.942 102.909 172.393 103.556 172.556 104.298C172.719 105.04 172.581 105.816 172.171 106.456C171.762 107.096 171.115 107.547 170.373 107.71L146.4 113.426C138.981 115.056 131.217 113.673 124.818 109.579C118.419 105.486 113.907 99.0179 112.277 91.5984C110.646 84.1788 112.03 76.4154 116.123 70.0159C120.216 63.6165 126.684 59.1052 134.104 57.4746L174.668 48.5596C175.781 48.315 176.752 47.6384 177.366 46.6784C177.98 45.7185 178.187 44.554 177.942 43.4411C177.698 42.3281 177.021 41.358 176.061 40.7439C175.101 40.1299 173.937 39.9224 172.824 40.167L143.45 46.6227C141.224 47.1119 138.895 46.6968 136.975 45.4688C135.055 44.2407 133.702 42.3004 133.213 40.0745C133.049 39.3325 133.188 38.5562 133.597 37.9163C134.007 37.2763 134.653 36.8252 135.395 36.6621C136.137 36.4991 136.914 36.6374 137.554 37.0468C138.193 37.4561 138.645 38.1029 138.808 38.8448C138.971 39.5868 139.422 40.2336 140.062 40.6429C140.702 41.0523 141.478 41.1906 142.22 41.0276L171.594 34.5719C173.823 34.0843 176.151 34.3713 178.194 35.3856C180.238 36.3999 181.874 38.0808 182.833 40.1507C183.792 42.2206 184.017 44.5557 183.469 46.7703C182.922 48.985 181.636 50.9468 179.823 52.3317ZM127.927 104.761L137.72 93.9102L137.6 93.3647C137.404 92.4814 137.328 91.5757 137.375 90.6721L117.366 86.3998C117.513 90.0868 118.552 93.6831 120.394 96.8806C122.236 100.078 124.825 102.781 127.941 104.758L127.927 104.761ZM140.935 98.8967L133.366 107.294C137.185 108.509 141.257 108.694 145.171 107.83L147.968 107.216L146.649 101.211C144.553 101.052 142.56 100.242 140.949 98.8936L140.935 98.8967ZM142.525 82.4469L138.131 62.4549L135.334 63.0697C131.042 64.0179 127.113 66.1789 124.015 69.2957C120.916 72.4124 118.778 76.3537 117.855 80.6506L139.344 85.2355C140.194 84.0903 141.278 83.1395 142.525 82.4469ZM174.324 54.5006L143.726 61.2252L148.03 80.8081L156.423 78.9636C161.871 77.7594 166.693 74.6115 169.988 70.1089C173.283 65.6064 174.825 60.0575 174.324 54.5006Z" fill="black"/>
<path d="M179.823 52.3317L179.216 51.537L178.747 51.8953L178.834 52.4791L179.823 52.3317ZM157.652 84.5587L157.867 85.5354L157.868 85.5351L157.652 84.5587ZM143.188 92.1366L142.211 92.3512L143.188 92.1366ZM152.334 100.391L152.119 99.4142L151.142 99.6289L151.357 100.606L152.334 100.391ZM153.563 105.986L152.587 106.201L152.807 107.204L153.805 106.957L153.563 105.986ZM169.144 102.115L168.929 101.139L168.916 101.142L168.902 101.145L169.144 102.115ZM170.373 107.71L170.159 106.734L170.15 106.736L170.141 106.738L170.373 107.71ZM146.4 113.426L146.615 114.402L146.624 114.4L146.632 114.398L146.4 113.426ZM112.277 91.5984L111.3 91.813L112.277 91.5984ZM174.668 48.5596L174.883 49.5363L174.668 48.5596ZM135.395 36.6621L135.181 35.6854L135.395 36.6621ZM142.22 41.0276L142.435 42.0043L142.22 41.0276ZM171.594 34.5719L171.381 33.595L171.38 33.5952L171.594 34.5719ZM127.927 104.761L127.184 104.091C126.893 104.414 126.844 104.888 127.062 105.264C127.281 105.64 127.717 105.831 128.141 105.738L127.927 104.761ZM137.72 93.9102L138.462 94.5802L138.807 94.1981L138.697 93.6955L137.72 93.9102ZM137.6 93.3647L138.577 93.15L138.576 93.1478L137.6 93.3647ZM137.375 90.6721L138.373 90.7238L138.418 89.8722L137.584 89.6942L137.375 90.6721ZM117.366 86.3998L117.575 85.4218L116.316 85.1529L116.367 86.4396L117.366 86.3998ZM127.941 104.758L128.155 105.735C128.551 105.648 128.855 105.331 128.926 104.932C128.996 104.533 128.819 104.131 128.477 103.914L127.941 104.758ZM140.935 98.8967L140.72 97.92L140.407 97.9889L140.192 98.2272L140.935 98.8967ZM133.366 107.294L132.623 106.625L131.585 107.777L133.063 108.247L133.366 107.294ZM145.171 107.83L144.956 106.854L144.955 106.854L145.171 107.83ZM147.968 107.216L148.183 108.192L149.16 107.978L148.945 107.001L147.968 107.216ZM146.649 101.211L147.626 100.997L147.466 100.271L146.724 100.214L146.649 101.211ZM140.949 98.8936L141.59 98.1266L141.214 97.8115L140.734 97.917L140.949 98.8936ZM142.525 82.4469L143.011 83.321L143.661 82.9594L143.502 82.2322L142.525 82.4469ZM138.131 62.4549L139.108 62.2402L138.893 61.2635L137.917 61.4782L138.131 62.4549ZM135.334 63.0697L135.119 62.093L135.118 62.0933L135.334 63.0697ZM117.855 80.6506L116.877 80.4406L116.667 81.4196L117.646 81.6286L117.855 80.6506ZM139.344 85.2355L139.135 86.2135L139.764 86.3477L140.147 85.8315L139.344 85.2355ZM174.324 54.5006L175.32 54.4109L175.219 53.2802L174.11 53.5239L174.324 54.5006ZM143.726 61.2252L143.512 60.2485L142.535 60.4632L142.75 61.4399L143.726 61.2252ZM148.03 80.8081L147.053 81.0227L147.268 81.9994L148.245 81.7848L148.03 80.8081ZM156.423 78.9636L156.637 79.9403L156.639 79.94L156.423 78.9636ZM179.823 52.3317L178.834 52.4791C179.867 59.4092 178.233 66.4731 174.262 72.2456L175.086 72.8124L175.91 73.3792C180.168 67.1895 181.92 59.6151 180.812 52.1842L179.823 52.3317ZM175.086 72.8124L174.262 72.2456C170.291 78.0181 164.278 82.0695 157.436 83.5823L157.652 84.5587L157.868 85.5351C165.204 83.913 171.651 79.5689 175.91 73.3792L175.086 72.8124ZM157.652 84.5587L157.438 83.582L146.248 86.0413L146.462 87.018L146.677 87.9947L157.867 85.5354L157.652 84.5587ZM146.462 87.018L146.248 86.0413C144.876 86.3428 143.68 87.177 142.923 88.3603L143.765 88.8992L144.607 89.438C145.079 88.7015 145.823 88.1823 146.677 87.9947L146.462 87.018ZM143.765 88.8992L142.923 88.3603C142.166 89.5437 141.91 90.9792 142.211 92.3512L143.188 92.1366L144.165 91.9219C143.977 91.068 144.136 90.1745 144.607 89.438L143.765 88.8992ZM143.188 92.1366L142.211 92.3512C142.513 93.7232 143.347 94.9192 144.53 95.6761L145.069 94.8337L145.608 93.9913C144.872 93.5202 144.352 92.7758 144.165 91.9219L143.188 92.1366ZM145.069 94.8337L144.53 95.6761C145.714 96.433 147.149 96.6889 148.521 96.3873L148.307 95.4106L148.092 94.4339C147.238 94.6216 146.345 94.4624 145.608 93.9913L145.069 94.8337ZM148.307 95.4106L148.521 96.3873L168.104 92.0835L167.889 91.1069L167.675 90.1302L148.092 94.4339L148.307 95.4106ZM167.889 91.1069L168.104 92.0835C168.587 91.9774 169.092 92.0675 169.509 92.3339L170.048 91.4915L170.587 90.6491C169.723 90.0968 168.676 89.9102 167.675 90.1302L167.889 91.1069ZM170.048 91.4915L169.509 92.3339C169.925 92.6003 170.219 93.0213 170.325 93.5042L171.302 93.2896L172.279 93.0749C172.059 92.0739 171.45 91.2013 170.587 90.6491L170.048 91.4915ZM171.302 93.2896L170.325 93.5042C170.431 93.9872 170.341 94.4925 170.075 94.909L170.917 95.4478L171.76 95.9867C172.312 95.1233 172.499 94.0759 172.279 93.0749L171.302 93.2896ZM170.917 95.4478L170.075 94.909C169.808 95.3255 169.387 95.6191 168.904 95.7253L169.119 96.702L169.334 97.6786C170.335 97.4587 171.207 96.85 171.76 95.9867L170.917 95.4478ZM169.119 96.702L168.904 95.7253L152.119 99.4142L152.334 100.391L152.548 101.368L169.334 97.6786L169.119 96.702ZM152.334 100.391L151.357 100.606L152.587 106.201L153.563 105.986L154.54 105.771L153.311 100.176L152.334 100.391ZM153.563 105.986L153.805 106.957L169.385 103.086L169.144 102.115L168.902 101.145L153.322 105.016L153.563 105.986ZM169.144 102.115L169.358 103.092C169.841 102.986 170.346 103.076 170.763 103.342L171.302 102.5L171.841 101.658C170.977 101.105 169.93 100.919 168.929 101.139L169.144 102.115ZM171.302 102.5L170.763 103.342C171.18 103.609 171.473 104.03 171.579 104.513L172.556 104.298L173.533 104.083C173.313 103.082 172.704 102.21 171.841 101.658L171.302 102.5ZM172.556 104.298L171.579 104.513C171.685 104.996 171.595 105.501 171.329 105.917L172.171 106.456L173.014 106.995C173.566 106.132 173.753 105.084 173.533 104.083L172.556 104.298ZM172.171 106.456L171.329 105.917C171.063 106.334 170.642 106.628 170.159 106.734L170.373 107.71L170.588 108.687C171.589 108.467 172.461 107.859 173.014 106.995L172.171 106.456ZM170.373 107.71L170.141 106.738L146.169 112.453L146.4 113.426L146.632 114.398L170.605 108.683L170.373 107.71ZM146.4 113.426L146.186 112.449C139.025 114.023 131.533 112.687 125.357 108.737L124.818 109.579L124.279 110.422C130.902 114.658 138.937 116.09 146.615 114.402L146.4 113.426ZM124.818 109.579L125.357 108.737C119.181 104.786 114.827 98.5442 113.253 91.3837L112.277 91.5984L111.3 91.813C112.988 99.4916 117.656 106.185 124.279 110.422L124.818 109.579ZM112.277 91.5984L113.253 91.3837C111.68 84.2232 113.015 76.7308 116.966 70.5548L116.123 70.0159L115.281 69.4771C111.044 76.0999 109.613 84.1344 111.3 91.813L112.277 91.5984ZM116.123 70.0159L116.966 70.5548C120.916 64.3787 127.158 60.025 134.319 58.4513L134.104 57.4746L133.889 56.4979C126.211 58.1855 119.517 62.8542 115.281 69.4771L116.123 70.0159ZM134.104 57.4746L134.319 58.4513L174.883 49.5363L174.668 48.5596L174.454 47.5829L133.889 56.4979L134.104 57.4746ZM174.668 48.5596L174.883 49.5363C176.255 49.2348 177.451 48.4006 178.208 47.2173L177.366 46.6784L176.523 46.1396C176.052 46.8761 175.308 47.3953 174.454 47.5829L174.668 48.5596ZM177.366 46.6784L178.208 47.2173C178.965 46.034 179.221 44.5984 178.919 43.2264L177.942 43.4411L176.966 43.6557C177.153 44.5096 176.994 45.4031 176.523 46.1396L177.366 46.6784ZM177.942 43.4411L178.919 43.2264C178.618 41.8545 177.783 40.6585 176.6 39.9015L176.061 40.7439L175.522 41.5864C176.259 42.0575 176.778 42.8018 176.966 43.6557L177.942 43.4411ZM176.061 40.7439L176.6 39.9015C175.417 39.1446 173.981 38.8888 172.609 39.1903L172.824 40.167L173.039 41.1437C173.892 40.956 174.786 41.1153 175.522 41.5864L176.061 40.7439ZM172.824 40.167L172.609 39.1903L143.235 45.646L143.45 46.6227L143.664 47.5994L173.039 41.1437L172.824 40.167ZM143.45 46.6227L143.235 45.646C141.268 46.0782 139.21 45.7115 137.514 44.6264L136.975 45.4688L136.436 46.3112C138.579 47.6821 141.179 48.1455 143.664 47.5994L143.45 46.6227ZM136.975 45.4688L137.514 44.6264C135.817 43.5412 134.622 41.8267 134.189 39.8599L133.213 40.0745L132.236 40.2892C132.782 42.7741 134.293 44.9402 136.436 46.3112L136.975 45.4688ZM133.213 40.0745L134.189 39.8599C134.083 39.3769 134.173 38.8716 134.44 38.4551L133.597 37.9163L132.755 37.3774C132.203 38.2408 132.016 39.2882 132.236 40.2892L133.213 40.0745ZM133.597 37.9163L134.44 38.4551C134.706 38.0386 135.127 37.745 135.61 37.6388L135.395 36.6621L135.181 35.6854C134.18 35.9054 133.307 36.514 132.755 37.3774L133.597 37.9163ZM135.395 36.6621L135.61 37.6388C136.093 37.5327 136.598 37.6227 137.015 37.8892L137.554 37.0468L138.092 36.2044C137.229 35.6521 136.182 35.4654 135.181 35.6854L135.395 36.6621ZM137.554 37.0468L137.015 37.8892C137.431 38.1556 137.725 38.5766 137.831 39.0595L138.808 38.8448L139.784 38.6302C139.564 37.6292 138.956 36.7566 138.092 36.2044L137.554 37.0468ZM138.808 38.8448L137.831 39.0595C138.051 40.0605 138.66 40.9331 139.523 41.4853L140.062 40.6429L140.601 39.8005C140.184 39.5341 139.89 39.1131 139.784 38.6302L138.808 38.8448ZM140.062 40.6429L139.523 41.4853C140.386 42.0376 141.434 42.2243 142.435 42.0043L142.22 41.0276L142.005 40.0509C141.522 40.157 141.017 40.067 140.601 39.8005L140.062 40.6429ZM142.22 41.0276L142.435 42.0043L171.809 35.5486L171.594 34.5719L171.38 33.5952L142.005 40.0509L142.22 41.0276ZM171.594 34.5719L171.808 35.5488C173.814 35.1098 175.91 35.3682 177.75 36.2814L178.194 35.3856L178.639 34.4899C176.392 33.3744 173.831 33.0588 171.381 33.595L171.594 34.5719ZM178.194 35.3856L177.75 36.2814C179.589 37.1945 181.062 38.7077 181.926 40.5711L182.833 40.1507L183.741 39.7303C182.686 37.454 180.886 35.6054 178.639 34.4899L178.194 35.3856ZM182.833 40.1507L181.926 40.5711C182.789 42.4345 182.991 44.5367 182.499 46.5304L183.469 46.7703L184.44 47.0102C185.042 44.5747 184.795 42.0067 183.741 39.7303L182.833 40.1507ZM183.469 46.7703L182.499 46.5304C182.006 48.5242 180.848 50.2903 179.216 51.537L179.823 52.3317L180.43 53.1263C182.424 51.6033 183.838 49.4458 184.44 47.0102L183.469 46.7703ZM127.927 104.761L128.669 105.431L138.462 94.5802L137.72 93.9102L136.977 93.2402L127.184 104.091L127.927 104.761ZM137.72 93.9102L138.697 93.6955L138.577 93.15L137.6 93.3647L136.623 93.5793L136.743 94.1248L137.72 93.9102ZM137.6 93.3647L138.576 93.1478C138.4 92.3527 138.331 91.5373 138.373 90.7238L137.375 90.6721L136.376 90.6204C136.325 91.6141 136.408 92.6102 136.624 93.5815L137.6 93.3647ZM137.375 90.6721L137.584 89.6942L117.575 85.4218L117.366 86.3998L117.157 87.3777L137.166 91.6501L137.375 90.6721ZM117.366 86.3998L116.367 86.4396C116.521 90.2882 117.605 94.0421 119.527 97.3797L120.394 96.8806L121.26 96.3814C119.499 93.3241 118.506 89.8853 118.365 86.3599L117.366 86.3998ZM120.394 96.8806L119.527 97.3797C121.45 100.717 124.153 103.539 127.405 105.603L127.941 104.758L128.477 103.914C125.498 102.024 123.022 99.4388 121.26 96.3814L120.394 96.8806ZM127.941 104.758L127.726 103.782L127.712 103.785L127.927 104.761L128.141 105.738L128.155 105.735L127.941 104.758ZM140.935 98.8967L140.192 98.2272L132.623 106.625L133.366 107.294L134.109 107.964L141.677 99.5662L140.935 98.8967ZM133.366 107.294L133.063 108.247C137.05 109.515 141.301 109.708 145.386 108.807L145.171 107.83L144.955 106.854C141.214 107.679 137.321 107.502 133.669 106.341L133.366 107.294ZM145.171 107.83L145.385 108.807L148.183 108.192L147.968 107.216L147.754 106.239L144.956 106.854L145.171 107.83ZM147.968 107.216L148.945 107.001L147.626 100.997L146.649 101.211L145.672 101.426L146.992 107.43L147.968 107.216ZM146.649 101.211L146.724 100.214C144.837 100.071 143.042 99.3411 141.59 98.1266L140.949 98.8936L140.307 99.6606C142.079 101.143 144.27 102.034 146.573 102.209L146.649 101.211ZM140.949 98.8936L140.734 97.917L140.72 97.92L140.935 98.8967L141.149 99.8734L141.163 99.8703L140.949 98.8936ZM142.525 82.4469L143.502 82.2322L139.108 62.2402L138.131 62.4549L137.154 62.6695L141.548 82.6615L142.525 82.4469ZM138.131 62.4549L137.917 61.4782L135.119 62.093L135.334 63.0697L135.548 64.0464L138.346 63.4316L138.131 62.4549ZM135.334 63.0697L135.118 62.0933C130.639 63.0828 126.539 65.338 123.306 68.5906L124.015 69.2957L124.724 70.0007C127.688 67.0198 131.445 64.953 135.549 64.0462L135.334 63.0697ZM124.015 69.2957L123.306 68.5906C120.072 71.8433 117.841 75.9563 116.877 80.4406L117.855 80.6506L118.833 80.8607C119.716 76.7511 121.76 72.9816 124.724 70.0007L124.015 69.2957ZM117.855 80.6506L117.646 81.6286L139.135 86.2135L139.344 85.2355L139.552 84.2576L118.064 79.6726L117.855 80.6506ZM139.344 85.2355L140.147 85.8315C140.912 84.8005 141.888 83.9446 143.011 83.321L142.525 82.4469L142.039 81.5727C140.668 82.3345 139.475 83.3801 138.541 84.6396L139.344 85.2355ZM174.324 54.5006L174.11 53.5239L143.512 60.2485L143.726 61.2252L143.941 62.2019L174.539 55.4773L174.324 54.5006ZM143.726 61.2252L142.75 61.4399L147.053 81.0227L148.03 80.8081L149.007 80.5934L144.703 61.0106L143.726 61.2252ZM148.03 80.8081L148.245 81.7848L156.637 79.9403L156.423 78.9636L156.208 77.9869L147.815 79.8314L148.03 80.8081ZM156.423 78.9636L156.639 79.94C162.324 78.6833 167.357 75.3983 170.795 70.6995L169.988 70.1089L169.181 69.5184C166.03 73.8248 161.417 76.8354 156.207 77.9872L156.423 78.9636ZM169.988 70.1089L170.795 70.6995C174.234 66.0007 175.842 60.2101 175.32 54.4109L174.324 54.5006L173.328 54.5902C173.807 59.905 172.332 65.212 169.181 69.5184L169.988 70.1089Z" fill="white" mask="url(#path-9-inside-1_438_254)"/>
<path d="M187.798 81.6367C186.298 89.6367 173.465 92.9699 167.298 94.1367L170.298 105.302C186.154 102.247 192.298 104.637 194.798 106.637C197.198 97.0367 190.131 95.8034 186.298 95.6367C195.098 92.0367 191.131 85.4701 187.798 81.6367Z" stroke="white" stroke-width="5.7" stroke-linejoin="round"/>
<path d="M187.798 81.6367C186.298 89.6367 173.465 92.9699 167.298 94.1367L170.298 105.302C186.154 102.247 192.298 104.637 194.798 106.637C197.198 97.0367 190.132 95.8034 186.298 95.6367C195.098 92.0367 191.132 85.4701 187.798 81.6367Z" stroke="black" stroke-width="4" stroke-linejoin="round"/>
<path d="M152.385 68.8369L157.805 65.585" stroke="black" stroke-width="2.16795" stroke-linecap="round"/>
<path d="M152.389 65.5889L157.813 68.8328" stroke="black" stroke-width="2.16795" stroke-linecap="round"/>
<circle opacity="0.05" cx="160.336" cy="66.3359" r="3.25193" fill="#FFCDCD" stroke="black" stroke-width="2.16795"/>
<circle opacity="0.05" cx="135.298" cy="72.2978" r="9.2138" fill="#FFCDCD" stroke="black" stroke-width="2.16795"/>
<circle opacity="0.05" cx="122.298" cy="94.2978" r="9.2138" fill="#FFCDCD" stroke="black" stroke-width="2.16795"/>
<circle opacity="0.05" cx="152.588" cy="102.588" r="6.50386" fill="#FFCDCD" stroke="black" stroke-width="2.16795"/>
</g>
<g clip-path="url(#clip1_438_254)">
<path d="M149 158.5L195.5 147.5C201.9 171.5 181.5 178.5 170.5 179C166.333 179.333 158.5 181.6 160.5 188C162.5 194.4 168.333 194.333 171 193.5C197.142 191.5 207.226 183 209 179C213.8 180.2 211 188.167 209 192C215.8 192 215.833 199 215 202.5L205 199.5L180 203.5C168.167 207.5 142.9 210.8 136.5 192C130.1 173.2 142.167 161.833 149 158.5Z" fill="#FFB06C"/>
<mask id="path-20-inside-2_438_254" fill="white">
<path d="M199.823 148.332C200.894 155.512 199.201 162.831 195.086 168.812C190.971 174.793 184.741 178.991 177.652 180.559L166.462 183.018C165.349 183.263 164.379 183.939 163.765 184.899C163.151 185.859 162.943 187.024 163.188 188.137C163.433 189.249 164.109 190.22 165.069 190.834C166.029 191.448 167.194 191.655 168.307 191.411L187.889 187.107C188.631 186.944 189.408 187.082 190.048 187.491C190.688 187.901 191.139 188.548 191.302 189.29C191.465 190.032 191.327 190.808 190.917 191.448C190.508 192.088 189.861 192.539 189.119 192.702L172.334 196.391L173.563 201.986L189.144 198.115C189.886 197.952 190.662 198.091 191.302 198.5C191.942 198.909 192.393 199.556 192.556 200.298C192.719 201.04 192.581 201.816 192.171 202.456C191.762 203.096 191.115 203.547 190.373 203.71L166.4 209.426C158.981 211.056 151.217 209.673 144.818 205.579C138.419 201.486 133.907 195.018 132.277 187.598C130.646 180.179 132.03 172.415 136.123 166.016C140.216 159.616 146.684 155.105 154.104 153.475L194.668 144.56C195.781 144.315 196.752 143.638 197.366 142.678C197.98 141.719 198.187 140.554 197.942 139.441C197.698 138.328 197.021 137.358 196.061 136.744C195.101 136.13 193.937 135.922 192.824 136.167L163.45 142.623C161.224 143.112 158.895 142.697 156.975 141.469C155.055 140.241 153.702 138.3 153.213 136.075C153.049 135.333 153.188 134.556 153.597 133.916C154.007 133.276 154.653 132.825 155.395 132.662C156.137 132.499 156.914 132.637 157.554 133.047C158.193 133.456 158.645 134.103 158.808 134.845C158.971 135.587 159.422 136.234 160.062 136.643C160.702 137.052 161.478 137.191 162.22 137.028L191.594 130.572C193.823 130.084 196.151 130.371 198.194 131.386C200.238 132.4 201.874 134.081 202.833 136.151C203.792 138.221 204.017 140.556 203.469 142.77C202.922 144.985 201.636 146.947 199.823 148.332ZM147.927 200.761L157.72 189.91L157.6 189.365C157.404 188.481 157.328 187.576 157.375 186.672L137.366 182.4C137.513 186.087 138.552 189.683 140.394 192.881C142.236 196.078 144.825 198.781 147.941 200.758L147.927 200.761ZM160.935 194.897L153.366 203.294C157.185 204.509 161.257 204.694 165.171 203.83L167.968 203.216L166.649 197.211C164.553 197.052 162.56 196.242 160.949 194.894L160.935 194.897ZM162.525 178.447L158.131 158.455L155.334 159.07C151.042 160.018 147.113 162.179 144.015 165.296C140.916 168.412 138.778 172.354 137.855 176.651L159.344 181.236C160.194 180.09 161.278 179.14 162.525 178.447ZM194.324 150.501L163.726 157.225L168.03 176.808L176.423 174.964C181.871 173.759 186.693 170.612 189.988 166.109C193.283 161.606 194.825 156.058 194.324 150.501Z"/>
</mask>
<path d="M199.823 148.332C200.894 155.512 199.201 162.831 195.086 168.812C190.971 174.793 184.741 178.991 177.652 180.559L166.462 183.018C165.349 183.263 164.379 183.939 163.765 184.899C163.151 185.859 162.943 187.024 163.188 188.137C163.433 189.249 164.109 190.22 165.069 190.834C166.029 191.448 167.194 191.655 168.307 191.411L187.889 187.107C188.631 186.944 189.408 187.082 190.048 187.491C190.688 187.901 191.139 188.548 191.302 189.29C191.465 190.032 191.327 190.808 190.917 191.448C190.508 192.088 189.861 192.539 189.119 192.702L172.334 196.391L173.563 201.986L189.144 198.115C189.886 197.952 190.662 198.091 191.302 198.5C191.942 198.909 192.393 199.556 192.556 200.298C192.719 201.04 192.581 201.816 192.171 202.456C191.762 203.096 191.115 203.547 190.373 203.71L166.4 209.426C158.981 211.056 151.217 209.673 144.818 205.579C138.419 201.486 133.907 195.018 132.277 187.598C130.646 180.179 132.03 172.415 136.123 166.016C140.216 159.616 146.684 155.105 154.104 153.475L194.668 144.56C195.781 144.315 196.752 143.638 197.366 142.678C197.98 141.719 198.187 140.554 197.942 139.441C197.698 138.328 197.021 137.358 196.061 136.744C195.101 136.13 193.937 135.922 192.824 136.167L163.45 142.623C161.224 143.112 158.895 142.697 156.975 141.469C155.055 140.241 153.702 138.3 153.213 136.075C153.049 135.333 153.188 134.556 153.597 133.916C154.007 133.276 154.653 132.825 155.395 132.662C156.137 132.499 156.914 132.637 157.554 133.047C158.193 133.456 158.645 134.103 158.808 134.845C158.971 135.587 159.422 136.234 160.062 136.643C160.702 137.052 161.478 137.191 162.22 137.028L191.594 130.572C193.823 130.084 196.151 130.371 198.194 131.386C200.238 132.4 201.874 134.081 202.833 136.151C203.792 138.221 204.017 140.556 203.469 142.77C202.922 144.985 201.636 146.947 199.823 148.332ZM147.927 200.761L157.72 189.91L157.6 189.365C157.404 188.481 157.328 187.576 157.375 186.672L137.366 182.4C137.513 186.087 138.552 189.683 140.394 192.881C142.236 196.078 144.825 198.781 147.941 200.758L147.927 200.761ZM160.935 194.897L153.366 203.294C157.185 204.509 161.257 204.694 165.171 203.83L167.968 203.216L166.649 197.211C164.553 197.052 162.56 196.242 160.949 194.894L160.935 194.897ZM162.525 178.447L158.131 158.455L155.334 159.07C151.042 160.018 147.113 162.179 144.015 165.296C140.916 168.412 138.778 172.354 137.855 176.651L159.344 181.236C160.194 180.09 161.278 179.14 162.525 178.447ZM194.324 150.501L163.726 157.225L168.03 176.808L176.423 174.964C181.871 173.759 186.693 170.612 189.988 166.109C193.283 161.606 194.825 156.058 194.324 150.501Z" fill="black"/>
<path d="M199.823 148.332L199.216 147.537L198.747 147.895L198.834 148.479L199.823 148.332ZM177.652 180.559L177.867 181.535L177.868 181.535L177.652 180.559ZM163.188 188.137L162.211 188.351L163.188 188.137ZM172.334 196.391L172.119 195.414L171.142 195.629L171.357 196.606L172.334 196.391ZM173.563 201.986L172.587 202.201L172.807 203.204L173.805 202.957L173.563 201.986ZM189.144 198.115L188.929 197.139L188.916 197.142L188.902 197.145L189.144 198.115ZM190.373 203.71L190.159 202.734L190.15 202.736L190.141 202.738L190.373 203.71ZM166.4 209.426L166.615 210.402L166.624 210.4L166.632 210.398L166.4 209.426ZM132.277 187.598L131.3 187.813L132.277 187.598ZM194.668 144.56L194.883 145.536L194.668 144.56ZM155.395 132.662L155.181 131.685L155.395 132.662ZM162.22 137.028L162.435 138.004L162.22 137.028ZM191.594 130.572L191.381 129.595L191.38 129.595L191.594 130.572ZM147.927 200.761L147.184 200.091C146.893 200.414 146.844 200.888 147.062 201.264C147.281 201.64 147.717 201.831 148.141 201.738L147.927 200.761ZM157.72 189.91L158.462 190.58L158.807 190.198L158.697 189.696L157.72 189.91ZM157.6 189.365L158.577 189.15L158.576 189.148L157.6 189.365ZM157.375 186.672L158.373 186.724L158.418 185.872L157.584 185.694L157.375 186.672ZM137.366 182.4L137.575 181.422L136.316 181.153L136.367 182.44L137.366 182.4ZM147.941 200.758L148.155 201.735C148.551 201.648 148.855 201.331 148.926 200.932C148.996 200.533 148.819 200.131 148.477 199.914L147.941 200.758ZM160.935 194.897L160.72 193.92L160.407 193.989L160.192 194.227L160.935 194.897ZM153.366 203.294L152.623 202.625L151.585 203.777L153.063 204.247L153.366 203.294ZM165.171 203.83L164.956 202.854L164.955 202.854L165.171 203.83ZM167.968 203.216L168.183 204.192L169.16 203.978L168.945 203.001L167.968 203.216ZM166.649 197.211L167.626 196.997L167.466 196.271L166.724 196.214L166.649 197.211ZM160.949 194.894L161.59 194.127L161.214 193.812L160.734 193.917L160.949 194.894ZM162.525 178.447L163.011 179.321L163.661 178.959L163.502 178.232L162.525 178.447ZM158.131 158.455L159.108 158.24L158.893 157.264L157.917 157.478L158.131 158.455ZM155.334 159.07L155.119 158.093L155.118 158.093L155.334 159.07ZM137.855 176.651L136.877 176.441L136.667 177.42L137.646 177.629L137.855 176.651ZM159.344 181.236L159.135 182.214L159.764 182.348L160.147 181.832L159.344 181.236ZM194.324 150.501L195.32 150.411L195.219 149.28L194.11 149.524L194.324 150.501ZM163.726 157.225L163.512 156.249L162.535 156.463L162.75 157.44L163.726 157.225ZM168.03 176.808L167.053 177.023L167.268 177.999L168.245 177.785L168.03 176.808ZM176.423 174.964L176.637 175.94L176.639 175.94L176.423 174.964ZM199.823 148.332L198.834 148.479C199.867 155.409 198.233 162.473 194.262 168.246L195.086 168.812L195.91 169.379C200.168 163.189 201.92 155.615 200.812 148.184L199.823 148.332ZM195.086 168.812L194.262 168.246C190.291 174.018 184.278 178.07 177.436 179.582L177.652 180.559L177.868 181.535C185.204 179.913 191.651 175.569 195.91 169.379L195.086 168.812ZM177.652 180.559L177.438 179.582L166.248 182.041L166.462 183.018L166.677 183.995L177.867 181.535L177.652 180.559ZM166.462 183.018L166.248 182.041C164.876 182.343 163.68 183.177 162.923 184.36L163.765 184.899L164.607 185.438C165.079 184.702 165.823 184.182 166.677 183.995L166.462 183.018ZM163.765 184.899L162.923 184.36C162.166 185.544 161.91 186.979 162.211 188.351L163.188 188.137L164.165 187.922C163.977 187.068 164.136 186.175 164.607 185.438L163.765 184.899ZM163.188 188.137L162.211 188.351C162.513 189.723 163.347 190.919 164.53 191.676L165.069 190.834L165.608 189.991C164.872 189.52 164.352 188.776 164.165 187.922L163.188 188.137ZM165.069 190.834L164.53 191.676C165.714 192.433 167.149 192.689 168.521 192.387L168.307 191.411L168.092 190.434C167.238 190.622 166.345 190.462 165.608 189.991L165.069 190.834ZM168.307 191.411L168.521 192.387L188.104 188.084L187.889 187.107L187.675 186.13L168.092 190.434L168.307 191.411ZM187.889 187.107L188.104 188.084C188.587 187.977 189.092 188.067 189.509 188.334L190.048 187.491L190.587 186.649C189.723 186.097 188.676 185.91 187.675 186.13L187.889 187.107ZM190.048 187.491L189.509 188.334C189.925 188.6 190.219 189.021 190.325 189.504L191.302 189.29L192.279 189.075C192.059 188.074 191.45 187.201 190.587 186.649L190.048 187.491ZM191.302 189.29L190.325 189.504C190.431 189.987 190.341 190.492 190.075 190.909L190.917 191.448L191.76 191.987C192.312 191.123 192.499 190.076 192.279 189.075L191.302 189.29ZM190.917 191.448L190.075 190.909C189.808 191.326 189.387 191.619 188.904 191.725L189.119 192.702L189.334 193.679C190.335 193.459 191.207 192.85 191.76 191.987L190.917 191.448ZM189.119 192.702L188.904 191.725L172.119 195.414L172.334 196.391L172.548 197.368L189.334 193.679L189.119 192.702ZM172.334 196.391L171.357 196.606L172.587 202.201L173.563 201.986L174.54 201.771L173.311 196.176L172.334 196.391ZM173.563 201.986L173.805 202.957L189.385 199.086L189.144 198.115L188.902 197.145L173.322 201.016L173.563 201.986ZM189.144 198.115L189.358 199.092C189.841 198.986 190.346 199.076 190.763 199.342L191.302 198.5L191.841 197.658C190.977 197.105 189.93 196.919 188.929 197.139L189.144 198.115ZM191.302 198.5L190.763 199.342C191.18 199.609 191.473 200.03 191.579 200.513L192.556 200.298L193.533 200.083C193.313 199.082 192.704 198.21 191.841 197.658L191.302 198.5ZM192.556 200.298L191.579 200.513C191.685 200.996 191.595 201.501 191.329 201.917L192.171 202.456L193.014 202.995C193.566 202.132 193.753 201.084 193.533 200.083L192.556 200.298ZM192.171 202.456L191.329 201.917C191.063 202.334 190.642 202.628 190.159 202.734L190.373 203.71L190.588 204.687C191.589 204.467 192.461 203.859 193.014 202.995L192.171 202.456ZM190.373 203.71L190.141 202.738L166.169 208.453L166.4 209.426L166.632 210.398L190.605 204.683L190.373 203.71ZM166.4 209.426L166.186 208.449C159.025 210.023 151.533 208.687 145.357 204.737L144.818 205.579L144.279 206.422C150.902 210.658 158.937 212.09 166.615 210.402L166.4 209.426ZM144.818 205.579L145.357 204.737C139.181 200.786 134.827 194.544 133.253 187.384L132.277 187.598L131.3 187.813C132.988 195.492 137.656 202.185 144.279 206.422L144.818 205.579ZM132.277 187.598L133.253 187.384C131.68 180.223 133.015 172.731 136.966 166.555L136.123 166.016L135.281 165.477C131.044 172.1 129.613 180.134 131.3 187.813L132.277 187.598ZM136.123 166.016L136.966 166.555C140.916 160.379 147.158 156.025 154.319 154.451L154.104 153.475L153.889 152.498C146.211 154.185 139.517 158.854 135.281 165.477L136.123 166.016ZM154.104 153.475L154.319 154.451L194.883 145.536L194.668 144.56L194.454 143.583L153.889 152.498L154.104 153.475ZM194.668 144.56L194.883 145.536C196.255 145.235 197.451 144.401 198.208 143.217L197.366 142.678L196.523 142.14C196.052 142.876 195.308 143.395 194.454 143.583L194.668 144.56ZM197.366 142.678L198.208 143.217C198.965 142.034 199.221 140.598 198.919 139.226L197.942 139.441L196.966 139.656C197.153 140.51 196.994 141.403 196.523 142.14L197.366 142.678ZM197.942 139.441L198.919 139.226C198.618 137.854 197.783 136.658 196.6 135.902L196.061 136.744L195.522 137.586C196.259 138.057 196.778 138.802 196.966 139.656L197.942 139.441ZM196.061 136.744L196.6 135.902C195.417 135.145 193.981 134.889 192.609 135.19L192.824 136.167L193.039 137.144C193.892 136.956 194.786 137.115 195.522 137.586L196.061 136.744ZM192.824 136.167L192.609 135.19L163.235 141.646L163.45 142.623L163.664 143.599L193.039 137.144L192.824 136.167ZM163.45 142.623L163.235 141.646C161.268 142.078 159.21 141.711 157.514 140.626L156.975 141.469L156.436 142.311C158.579 143.682 161.179 144.145 163.664 143.599L163.45 142.623ZM156.975 141.469L157.514 140.626C155.817 139.541 154.622 137.827 154.189 135.86L153.213 136.075L152.236 136.289C152.782 138.774 154.293 140.94 156.436 142.311L156.975 141.469ZM153.213 136.075L154.189 135.86C154.083 135.377 154.173 134.872 154.44 134.455L153.597 133.916L152.755 133.377C152.203 134.241 152.016 135.288 152.236 136.289L153.213 136.075ZM153.597 133.916L154.44 134.455C154.706 134.039 155.127 133.745 155.61 133.639L155.395 132.662L155.181 131.685C154.18 131.905 153.307 132.514 152.755 133.377L153.597 133.916ZM155.395 132.662L155.61 133.639C156.093 133.533 156.598 133.623 157.015 133.889L157.554 133.047L158.092 132.204C157.229 131.652 156.182 131.465 155.181 131.685L155.395 132.662ZM157.554 133.047L157.015 133.889C157.431 134.156 157.725 134.577 157.831 135.06L158.808 134.845L159.784 134.63C159.564 133.629 158.956 132.757 158.092 132.204L157.554 133.047ZM158.808 134.845L157.831 135.06C158.051 136.06 158.66 136.933 159.523 137.485L160.062 136.643L160.601 135.801C160.184 135.534 159.89 135.113 159.784 134.63L158.808 134.845ZM160.062 136.643L159.523 137.485C160.386 138.038 161.434 138.224 162.435 138.004L162.22 137.028L162.005 136.051C161.522 136.157 161.017 136.067 160.601 135.801L160.062 136.643ZM162.22 137.028L162.435 138.004L191.809 131.549L191.594 130.572L191.38 129.595L162.005 136.051L162.22 137.028ZM191.594 130.572L191.808 131.549C193.814 131.11 195.91 131.368 197.75 132.281L198.194 131.386L198.639 130.49C196.392 129.374 193.831 129.059 191.381 129.595L191.594 130.572ZM198.194 131.386L197.75 132.281C199.589 133.194 201.062 134.708 201.926 136.571L202.833 136.151L203.741 135.73C202.686 133.454 200.886 131.605 198.639 130.49L198.194 131.386ZM202.833 136.151L201.926 136.571C202.789 138.435 202.991 140.537 202.499 142.53L203.469 142.77L204.44 143.01C205.042 140.575 204.795 138.007 203.741 135.73L202.833 136.151ZM203.469 142.77L202.499 142.53C202.006 144.524 200.848 146.29 199.216 147.537L199.823 148.332L200.43 149.126C202.424 147.603 203.838 145.446 204.44 143.01L203.469 142.77ZM147.927 200.761L148.669 201.431L158.462 190.58L157.72 189.91L156.977 189.24L147.184 200.091L147.927 200.761ZM157.72 189.91L158.697 189.696L158.577 189.15L157.6 189.365L156.623 189.579L156.743 190.125L157.72 189.91ZM157.6 189.365L158.576 189.148C158.4 188.353 158.331 187.537 158.373 186.724L157.375 186.672L156.376 186.62C156.325 187.614 156.408 188.61 156.624 189.582L157.6 189.365ZM157.375 186.672L157.584 185.694L137.575 181.422L137.366 182.4L137.157 183.378L157.166 187.65L157.375 186.672ZM137.366 182.4L136.367 182.44C136.521 186.288 137.605 190.042 139.527 193.38L140.394 192.881L141.26 192.381C139.499 189.324 138.506 185.885 138.365 182.36L137.366 182.4ZM140.394 192.881L139.527 193.38C141.45 196.717 144.153 199.539 147.405 201.603L147.941 200.758L148.477 199.914C145.498 198.024 143.022 195.439 141.26 192.381L140.394 192.881ZM147.941 200.758L147.726 199.782L147.712 199.785L147.927 200.761L148.141 201.738L148.155 201.735L147.941 200.758ZM160.935 194.897L160.192 194.227L152.623 202.625L153.366 203.294L154.109 203.964L161.677 195.566L160.935 194.897ZM153.366 203.294L153.063 204.247C157.05 205.515 161.301 205.708 165.386 204.807L165.171 203.83L164.955 202.854C161.214 203.679 157.321 203.502 153.669 202.341L153.366 203.294ZM165.171 203.83L165.385 204.807L168.183 204.192L167.968 203.216L167.754 202.239L164.956 202.854L165.171 203.83ZM167.968 203.216L168.945 203.001L167.626 196.997L166.649 197.211L165.672 197.426L166.992 203.43L167.968 203.216ZM166.649 197.211L166.724 196.214C164.837 196.071 163.042 195.341 161.59 194.127L160.949 194.894L160.307 195.661C162.079 197.143 164.27 198.034 166.573 198.209L166.649 197.211ZM160.949 194.894L160.734 193.917L160.72 193.92L160.935 194.897L161.149 195.873L161.163 195.87L160.949 194.894ZM162.525 178.447L163.502 178.232L159.108 158.24L158.131 158.455L157.154 158.67L161.548 178.662L162.525 178.447ZM158.131 158.455L157.917 157.478L155.119 158.093L155.334 159.07L155.548 160.046L158.346 159.432L158.131 158.455ZM155.334 159.07L155.118 158.093C150.639 159.083 146.539 161.338 143.306 164.591L144.015 165.296L144.724 166.001C147.688 163.02 151.445 160.953 155.549 160.046L155.334 159.07ZM144.015 165.296L143.306 164.591C140.072 167.843 137.841 171.956 136.877 176.441L137.855 176.651L138.833 176.861C139.716 172.751 141.76 168.982 144.724 166.001L144.015 165.296ZM137.855 176.651L137.646 177.629L159.135 182.214L159.344 181.236L159.552 180.258L138.064 175.673L137.855 176.651ZM159.344 181.236L160.147 181.832C160.912 180.8 161.888 179.945 163.011 179.321L162.525 178.447L162.039 177.573C160.668 178.335 159.475 179.38 158.541 180.64L159.344 181.236ZM194.324 150.501L194.11 149.524L163.512 156.249L163.726 157.225L163.941 158.202L194.539 151.477L194.324 150.501ZM163.726 157.225L162.75 157.44L167.053 177.023L168.03 176.808L169.007 176.593L164.703 157.011L163.726 157.225ZM168.03 176.808L168.245 177.785L176.637 175.94L176.423 174.964L176.208 173.987L167.815 175.831L168.03 176.808ZM176.423 174.964L176.639 175.94C182.324 174.683 187.357 171.398 190.795 166.699L189.988 166.109L189.181 165.518C186.03 169.825 181.417 172.835 176.207 173.987L176.423 174.964ZM189.988 166.109L190.795 166.699C194.234 162.001 195.842 156.21 195.32 150.411L194.324 150.501L193.328 150.59C193.807 155.905 192.332 161.212 189.181 165.518L189.988 166.109Z" fill="white" mask="url(#path-20-inside-2_438_254)"/>
<path d="M207.798 177.637C206.298 185.637 193.465 188.97 187.298 190.137L190.298 201.302C206.154 198.247 212.298 200.637 214.798 202.637C217.198 193.037 210.131 191.803 206.298 191.637C215.098 188.037 211.131 181.47 207.798 177.637Z" stroke="white" stroke-width="5.7" stroke-linejoin="round"/>
<path d="M207.798 177.637C206.298 185.637 193.465 188.97 187.298 190.137L190.298 201.302C206.154 198.247 212.298 200.637 214.798 202.637C217.198 193.037 210.132 191.803 206.298 191.637C215.098 188.037 211.132 181.47 207.798 177.637Z" stroke="black" stroke-width="4" stroke-linejoin="round"/>
<path d="M172.385 164.837L177.805 161.585" stroke="black" stroke-width="2.16795" stroke-linecap="round"/>
<path d="M172.389 161.589L177.813 164.833" stroke="black" stroke-width="2.16795" stroke-linecap="round"/>
<circle opacity="0.05" cx="144.298" cy="181.298" r="9.2138" fill="#FFCDCD" stroke="black" stroke-width="2.16795"/>
<circle opacity="0.05" cx="200.588" cy="191.588" r="6.50386" fill="#FFCDCD" stroke="black" stroke-width="2.16795"/>
<circle opacity="0.05" cx="167.298" cy="166.298" r="9.2138" fill="#FFCDCD" stroke="black" stroke-width="2.16795"/>
<circle opacity="0.05" cx="163.336" cy="199.336" r="3.25193" fill="#FFCDCD" stroke="black" stroke-width="2.16795"/>
</g>
<g clip-path="url(#clip2_438_254)">
<path d="M291.196 102.5L244.696 91.5C238.296 115.5 258.696 122.5 269.696 123C273.863 123.333 281.696 125.6 279.696 132C277.696 138.4 271.863 138.333 269.196 137.5C243.054 135.5 232.97 127 231.196 123C226.396 124.2 229.196 132.167 231.196 136C224.396 136 224.363 143 225.196 146.5L235.196 143.5L260.196 147.5C272.029 151.5 297.296 154.8 303.696 136C310.096 117.2 298.029 105.833 291.196 102.5Z" fill="#FFB06C"/>
<mask id="path-31-inside-3_438_254" fill="white">
<path d="M240.373 92.3317C239.303 99.5121 240.995 106.831 245.11 112.812C249.225 118.793 255.455 122.991 262.544 124.559L273.734 127.018C274.847 127.263 275.817 127.939 276.431 128.899C277.045 129.859 277.253 131.024 277.008 132.137C276.763 133.249 276.087 134.22 275.127 134.834C274.167 135.448 273.002 135.655 271.889 135.411L252.307 131.107C251.565 130.944 250.788 131.082 250.148 131.491C249.508 131.901 249.057 132.548 248.894 133.29C248.731 134.032 248.87 134.808 249.279 135.448C249.688 136.088 250.335 136.539 251.077 136.702L267.862 140.391L266.633 145.986L251.052 142.115C250.31 141.952 249.534 142.091 248.894 142.5C248.254 142.909 247.803 143.556 247.64 144.298C247.477 145.04 247.615 145.816 248.025 146.456C248.434 147.096 249.081 147.547 249.823 147.71L273.796 153.426C281.215 155.056 288.979 153.673 295.378 149.579C301.777 145.486 306.289 139.018 307.919 131.598C309.55 124.179 308.166 116.415 304.073 110.016C299.98 103.616 293.512 99.1052 286.092 97.4746L245.528 88.5596C244.415 88.315 243.445 87.6384 242.831 86.6784C242.216 85.7185 242.009 84.554 242.254 83.4411C242.498 82.3281 243.175 81.358 244.135 80.7439C245.095 80.1299 246.259 79.9224 247.372 80.167L276.746 86.6227C278.972 87.1119 281.301 86.6968 283.221 85.4688C285.141 84.2407 286.494 82.3004 286.983 80.0745C287.147 79.3325 287.008 78.5562 286.599 77.9163C286.19 77.2763 285.543 76.8252 284.801 76.6621C284.059 76.4991 283.282 76.6374 282.643 77.0468C282.003 77.4561 281.551 78.1029 281.388 78.8448C281.225 79.5868 280.774 80.2336 280.134 80.6429C279.494 81.0523 278.718 81.1906 277.976 81.0276L248.602 74.5719C246.373 74.0843 244.045 74.3713 242.002 75.3856C239.958 76.3999 238.322 78.0808 237.363 80.1507C236.404 82.2206 236.179 84.5557 236.727 86.7703C237.274 88.985 238.56 90.9468 240.373 92.3317ZM292.269 144.761L282.476 133.91L282.596 133.365C282.792 132.481 282.868 131.576 282.821 130.672L302.83 126.4C302.683 130.087 301.644 133.683 299.802 136.881C297.96 140.078 295.371 142.781 292.255 144.758L292.269 144.761ZM279.261 138.897L286.83 147.294C283.011 148.509 278.939 148.694 275.025 147.83L272.228 147.216L273.547 141.211C275.643 141.052 277.636 140.242 279.247 138.894L279.261 138.897ZM277.671 122.447L282.065 102.455L284.862 103.07C289.154 104.018 293.083 106.179 296.181 109.296C299.28 112.412 301.418 116.354 302.341 120.651L280.852 125.236C280.002 124.09 278.918 123.14 277.671 122.447ZM245.872 94.5006L276.47 101.225L272.166 120.808L263.773 118.964C258.325 117.759 253.503 114.612 250.208 110.109C246.913 105.606 245.371 100.058 245.872 94.5006Z"/>
</mask>
<path d="M240.373 92.3317C239.303 99.5121 240.995 106.831 245.11 112.812C249.225 118.793 255.455 122.991 262.544 124.559L273.734 127.018C274.847 127.263 275.817 127.939 276.431 128.899C277.045 129.859 277.253 131.024 277.008 132.137C276.763 133.249 276.087 134.22 275.127 134.834C274.167 135.448 273.002 135.655 271.889 135.411L252.307 131.107C251.565 130.944 250.788 131.082 250.148 131.491C249.508 131.901 249.057 132.548 248.894 133.29C248.731 134.032 248.87 134.808 249.279 135.448C249.688 136.088 250.335 136.539 251.077 136.702L267.862 140.391L266.633 145.986L251.052 142.115C250.31 141.952 249.534 142.091 248.894 142.5C248.254 142.909 247.803 143.556 247.64 144.298C247.477 145.04 247.615 145.816 248.025 146.456C248.434 147.096 249.081 147.547 249.823 147.71L273.796 153.426C281.215 155.056 288.979 153.673 295.378 149.579C301.777 145.486 306.289 139.018 307.919 131.598C309.55 124.179 308.166 116.415 304.073 110.016C299.98 103.616 293.512 99.1052 286.092 97.4746L245.528 88.5596C244.415 88.315 243.445 87.6384 242.831 86.6784C242.216 85.7185 242.009 84.554 242.254 83.4411C242.498 82.3281 243.175 81.358 244.135 80.7439C245.095 80.1299 246.259 79.9224 247.372 80.167L276.746 86.6227C278.972 87.1119 281.301 86.6968 283.221 85.4688C285.141 84.2407 286.494 82.3004 286.983 80.0745C287.147 79.3325 287.008 78.5562 286.599 77.9163C286.19 77.2763 285.543 76.8252 284.801 76.6621C284.059 76.4991 283.282 76.6374 282.643 77.0468C282.003 77.4561 281.551 78.1029 281.388 78.8448C281.225 79.5868 280.774 80.2336 280.134 80.6429C279.494 81.0523 278.718 81.1906 277.976 81.0276L248.602 74.5719C246.373 74.0843 244.045 74.3713 242.002 75.3856C239.958 76.3999 238.322 78.0808 237.363 80.1507C236.404 82.2206 236.179 84.5557 236.727 86.7703C237.274 88.985 238.56 90.9468 240.373 92.3317ZM292.269 144.761L282.476 133.91L282.596 133.365C282.792 132.481 282.868 131.576 282.821 130.672L302.83 126.4C302.683 130.087 301.644 133.683 299.802 136.881C297.96 140.078 295.371 142.781 292.255 144.758L292.269 144.761ZM279.261 138.897L286.83 147.294C283.011 148.509 278.939 148.694 275.025 147.83L272.228 147.216L273.547 141.211C275.643 141.052 277.636 140.242 279.247 138.894L279.261 138.897ZM277.671 122.447L282.065 102.455L284.862 103.07C289.154 104.018 293.083 106.179 296.181 109.296C299.28 112.412 301.418 116.354 302.341 120.651L280.852 125.236C280.002 124.09 278.918 123.14 277.671 122.447ZM245.872 94.5006L276.47 101.225L272.166 120.808L263.773 118.964C258.325 117.759 253.503 114.612 250.208 110.109C246.913 105.606 245.371 100.058 245.872 94.5006Z" fill="black"/>
<path d="M240.373 92.3317L240.98 91.537L241.449 91.8953L241.362 92.4791L240.373 92.3317ZM262.544 124.559L262.329 125.535L262.328 125.535L262.544 124.559ZM277.008 132.137L277.985 132.351L277.008 132.137ZM267.862 140.391L268.077 139.414L269.054 139.629L268.839 140.606L267.862 140.391ZM266.633 145.986L267.609 146.201L267.389 147.204L266.391 146.957L266.633 145.986ZM251.052 142.115L251.267 141.139L251.28 141.142L251.294 141.145L251.052 142.115ZM249.823 147.71L250.037 146.734L250.046 146.736L250.055 146.738L249.823 147.71ZM273.796 153.426L273.581 154.402L273.572 154.4L273.564 154.398L273.796 153.426ZM307.919 131.598L308.896 131.813L307.919 131.598ZM245.528 88.5596L245.313 89.5363L245.528 88.5596ZM284.801 76.6621L285.015 75.6854L284.801 76.6621ZM277.976 81.0276L277.761 82.0043L277.976 81.0276ZM248.602 74.5719L248.816 73.595L248.816 73.5952L248.602 74.5719ZM292.269 144.761L293.012 144.091C293.303 144.414 293.352 144.888 293.134 145.264C292.915 145.64 292.479 145.831 292.055 145.738L292.269 144.761ZM282.476 133.91L281.734 134.58L281.389 134.198L281.499 133.696L282.476 133.91ZM282.596 133.365L281.619 133.15L281.62 133.148L282.596 133.365ZM282.821 130.672L281.823 130.724L281.778 129.872L282.612 129.694L282.821 130.672ZM302.83 126.4L302.621 125.422L303.88 125.153L303.829 126.44L302.83 126.4ZM292.255 144.758L292.041 145.735C291.645 145.648 291.341 145.331 291.27 144.932C291.2 144.533 291.377 144.131 291.719 143.914L292.255 144.758ZM279.261 138.897L279.476 137.92L279.789 137.989L280.004 138.227L279.261 138.897ZM286.83 147.294L287.573 146.625L288.611 147.777L287.133 148.247L286.83 147.294ZM275.025 147.83L275.24 146.854L275.241 146.854L275.025 147.83ZM272.228 147.216L272.013 148.192L271.036 147.978L271.251 147.001L272.228 147.216ZM273.547 141.211L272.571 140.997L272.73 140.271L273.472 140.214L273.547 141.211ZM279.247 138.894L278.606 138.127L278.982 137.812L279.462 137.917L279.247 138.894ZM277.671 122.447L277.185 123.321L276.535 122.959L276.694 122.232L277.671 122.447ZM282.065 102.455L281.088 102.24L281.303 101.264L282.28 101.478L282.065 102.455ZM284.862 103.07L285.077 102.093L285.078 102.093L284.862 103.07ZM302.341 120.651L303.319 120.441L303.529 121.42L302.55 121.629L302.341 120.651ZM280.852 125.236L281.061 126.214L280.432 126.348L280.049 125.832L280.852 125.236ZM245.872 94.5006L244.876 94.4109L244.977 93.2802L246.086 93.5239L245.872 94.5006ZM276.47 101.225L276.684 100.249L277.661 100.463L277.446 101.44L276.47 101.225ZM272.166 120.808L273.143 121.023L272.928 121.999L271.951 121.785L272.166 120.808ZM263.773 118.964L263.559 119.94L263.558 119.94L263.773 118.964ZM240.373 92.3317L241.362 92.4791C240.329 99.4092 241.963 106.473 245.934 112.246L245.11 112.812L244.286 113.379C240.028 107.189 238.276 99.6151 239.384 92.1842L240.373 92.3317ZM245.11 112.812L245.934 112.246C249.905 118.018 255.918 122.07 262.76 123.582L262.544 124.559L262.328 125.535C254.992 123.913 248.545 119.569 244.286 113.379L245.11 112.812ZM262.544 124.559L262.758 123.582L273.949 126.041L273.734 127.018L273.519 127.995L262.329 125.535L262.544 124.559ZM273.734 127.018L273.949 126.041C275.321 126.343 276.517 127.177 277.273 128.36L276.431 128.899L275.589 129.438C275.118 128.702 274.373 128.182 273.519 127.995L273.734 127.018ZM276.431 128.899L277.273 128.36C278.03 129.544 278.286 130.979 277.985 132.351L277.008 132.137L276.031 131.922C276.219 131.068 276.06 130.175 275.589 129.438L276.431 128.899ZM277.008 132.137L277.985 132.351C277.683 133.723 276.849 134.919 275.666 135.676L275.127 134.834L274.588 133.991C275.324 133.52 275.844 132.776 276.031 131.922L277.008 132.137ZM275.127 134.834L275.666 135.676C274.482 136.433 273.047 136.689 271.675 136.387L271.889 135.411L272.104 134.434C272.958 134.622 273.851 134.462 274.588 133.991L275.127 134.834ZM271.889 135.411L271.675 136.387L252.092 132.084L252.307 131.107L252.521 130.13L272.104 134.434L271.889 135.411ZM252.307 131.107L252.092 132.084C251.609 131.977 251.104 132.067 250.687 132.334L250.148 131.491L249.609 130.649C250.473 130.097 251.52 129.91 252.521 130.13L252.307 131.107ZM250.148 131.491L250.687 132.334C250.271 132.6 249.977 133.021 249.871 133.504L248.894 133.29L247.918 133.075C248.138 132.074 248.746 131.201 249.609 130.649L250.148 131.491ZM248.894 133.29L249.871 133.504C249.765 133.987 249.855 134.492 250.121 134.909L249.279 135.448L248.436 135.987C247.884 135.123 247.698 134.076 247.918 133.075L248.894 133.29ZM249.279 135.448L250.121 134.909C250.388 135.326 250.809 135.619 251.292 135.725L251.077 136.702L250.862 137.679C249.861 137.459 248.989 136.85 248.436 135.987L249.279 135.448ZM251.077 136.702L251.292 135.725L268.077 139.414L267.862 140.391L267.648 141.368L250.862 137.679L251.077 136.702ZM267.862 140.391L268.839 140.606L267.609 146.201L266.633 145.986L265.656 145.771L266.886 140.176L267.862 140.391ZM266.633 145.986L266.391 146.957L250.811 143.086L251.052 142.115L251.294 141.145L266.874 145.016L266.633 145.986ZM251.052 142.115L250.838 143.092C250.355 142.986 249.85 143.076 249.433 143.342L248.894 142.5L248.355 141.658C249.219 141.105 250.266 140.919 251.267 141.139L251.052 142.115ZM248.894 142.5L249.433 143.342C249.017 143.609 248.723 144.03 248.617 144.513L247.64 144.298L246.663 144.083C246.883 143.082 247.492 142.21 248.355 141.658L248.894 142.5ZM247.64 144.298L248.617 144.513C248.511 144.996 248.601 145.501 248.867 145.917L248.025 146.456L247.182 146.995C246.63 146.132 246.443 145.084 246.663 144.083L247.64 144.298ZM248.025 146.456L248.867 145.917C249.134 146.334 249.555 146.628 250.037 146.734L249.823 147.71L249.608 148.687C248.607 148.467 247.735 147.859 247.182 146.995L248.025 146.456ZM249.823 147.71L250.055 146.738L274.027 152.453L273.796 153.426L273.564 154.398L249.591 148.683L249.823 147.71ZM273.796 153.426L274.01 152.449C281.171 154.023 288.663 152.687 294.839 148.737L295.378 149.579L295.917 150.422C289.294 154.658 281.26 156.09 273.581 154.402L273.796 153.426ZM295.378 149.579L294.839 148.737C301.015 144.786 305.369 138.544 306.943 131.384L307.919 131.598L308.896 131.813C307.208 139.492 302.54 146.185 295.917 150.422L295.378 149.579ZM307.919 131.598L306.943 131.384C308.516 124.223 307.181 116.731 303.231 110.555L304.073 110.016L304.915 109.477C309.152 116.1 310.584 124.134 308.896 131.813L307.919 131.598ZM304.073 110.016L303.231 110.555C299.28 104.379 293.038 100.025 285.877 98.4513L286.092 97.4746L286.307 96.4979C293.985 98.1855 300.679 102.854 304.915 109.477L304.073 110.016ZM286.092 97.4746L285.877 98.4513L245.313 89.5363L245.528 88.5596L245.742 87.5829L286.307 96.4979L286.092 97.4746ZM245.528 88.5596L245.313 89.5363C243.941 89.2348 242.745 88.4006 241.988 87.2173L242.831 86.6784L243.673 86.1396C244.144 86.8761 244.888 87.3953 245.742 87.5829L245.528 88.5596ZM242.831 86.6784L241.988 87.2173C241.231 86.034 240.975 84.5984 241.277 83.2264L242.254 83.4411L243.23 83.6557C243.043 84.5096 243.202 85.4031 243.673 86.1396L242.831 86.6784ZM242.254 83.4411L241.277 83.2264C241.578 81.8545 242.413 80.6585 243.596 79.9015L244.135 80.7439L244.674 81.5864C243.937 82.0575 243.418 82.8018 243.23 83.6557L242.254 83.4411ZM244.135 80.7439L243.596 79.9015C244.779 79.1446 246.215 78.8888 247.587 79.1903L247.372 80.167L247.157 81.1437C246.304 80.956 245.41 81.1153 244.674 81.5864L244.135 80.7439ZM247.372 80.167L247.587 79.1903L276.961 85.646L276.746 86.6227L276.532 87.5994L247.157 81.1437L247.372 80.167ZM276.746 86.6227L276.961 85.646C278.928 86.0782 280.986 85.7115 282.682 84.6264L283.221 85.4688L283.76 86.3112C281.617 87.6821 279.017 88.1455 276.532 87.5994L276.746 86.6227ZM283.221 85.4688L282.682 84.6264C284.379 83.5412 285.575 81.8267 286.007 79.8599L286.983 80.0745L287.96 80.2892C287.414 82.7741 285.903 84.9402 283.76 86.3112L283.221 85.4688ZM286.983 80.0745L286.007 79.8599C286.113 79.3769 286.023 78.8716 285.756 78.4551L286.599 77.9163L287.441 77.3774C287.994 78.2408 288.18 79.2882 287.96 80.2892L286.983 80.0745ZM286.599 77.9163L285.756 78.4551C285.49 78.0386 285.069 77.745 284.586 77.6388L284.801 76.6621L285.015 75.6854C286.016 75.9054 286.889 76.514 287.441 77.3774L286.599 77.9163ZM284.801 76.6621L284.586 77.6388C284.103 77.5327 283.598 77.6227 283.181 77.8892L282.643 77.0468L282.104 76.2044C282.967 75.6521 284.014 75.4654 285.015 75.6854L284.801 76.6621ZM282.643 77.0468L283.181 77.8892C282.765 78.1556 282.471 78.5766 282.365 79.0595L281.388 78.8448L280.412 78.6302C280.632 77.6292 281.24 76.7566 282.104 76.2044L282.643 77.0468ZM281.388 78.8448L282.365 79.0595C282.145 80.0605 281.536 80.9331 280.673 81.4853L280.134 80.6429L279.595 79.8005C280.012 79.5341 280.306 79.1131 280.412 78.6302L281.388 78.8448ZM280.134 80.6429L280.673 81.4853C279.81 82.0376 278.762 82.2243 277.761 82.0043L277.976 81.0276L278.191 80.0509C278.674 80.157 279.179 80.067 279.595 79.8005L280.134 80.6429ZM277.976 81.0276L277.761 82.0043L248.387 75.5486L248.602 74.5719L248.816 73.5952L278.191 80.0509L277.976 81.0276ZM248.602 74.5719L248.388 75.5488C246.382 75.1098 244.286 75.3682 242.446 76.2814L242.002 75.3856L241.557 74.4899C243.804 73.3744 246.365 73.0588 248.816 73.595L248.602 74.5719ZM242.002 75.3856L242.446 76.2814C240.607 77.1945 239.134 78.7077 238.27 80.5711L237.363 80.1507L236.456 79.7303C237.51 77.454 239.31 75.6054 241.557 74.4899L242.002 75.3856ZM237.363 80.1507L238.27 80.5711C237.407 82.4345 237.205 84.5367 237.697 86.5304L236.727 86.7703L235.756 87.0102C235.154 84.5747 235.401 82.0067 236.456 79.7303L237.363 80.1507ZM236.727 86.7703L237.697 86.5304C238.19 88.5242 239.348 90.2903 240.98 91.537L240.373 92.3317L239.766 93.1263C237.772 91.6033 236.358 89.4458 235.756 87.0102L236.727 86.7703ZM292.269 144.761L291.527 145.431L281.734 134.58L282.476 133.91L283.219 133.24L293.012 144.091L292.269 144.761ZM282.476 133.91L281.499 133.696L281.619 133.15L282.596 133.365L283.573 133.579L283.453 134.125L282.476 133.91ZM282.596 133.365L281.62 133.148C281.797 132.353 281.865 131.537 281.823 130.724L282.821 130.672L283.82 130.62C283.871 131.614 283.788 132.61 283.572 133.582L282.596 133.365ZM282.821 130.672L282.612 129.694L302.621 125.422L302.83 126.4L303.039 127.378L283.03 131.65L282.821 130.672ZM302.83 126.4L303.829 126.44C303.676 130.288 302.591 134.042 300.669 137.38L299.802 136.881L298.936 136.381C300.697 133.324 301.69 129.885 301.831 126.36L302.83 126.4ZM299.802 136.881L300.669 137.38C298.746 140.717 296.043 143.539 292.791 145.603L292.255 144.758L291.719 143.914C294.698 142.024 297.175 139.439 298.936 136.381L299.802 136.881ZM292.255 144.758L292.47 143.782L292.484 143.785L292.269 144.761L292.055 145.738L292.041 145.735L292.255 144.758ZM279.261 138.897L280.004 138.227L287.573 146.625L286.83 147.294L286.087 147.964L278.519 139.566L279.261 138.897ZM286.83 147.294L287.133 148.247C283.146 149.515 278.895 149.708 274.81 148.807L275.025 147.83L275.241 146.854C278.982 147.679 282.875 147.502 286.527 146.341L286.83 147.294ZM275.025 147.83L274.811 148.807L272.013 148.192L272.228 147.216L272.442 146.239L275.24 146.854L275.025 147.83ZM272.228 147.216L271.251 147.001L272.571 140.997L273.547 141.211L274.524 141.426L273.204 147.43L272.228 147.216ZM273.547 141.211L273.472 140.214C275.359 140.071 277.154 139.341 278.606 138.127L279.247 138.894L279.889 139.661C278.117 141.143 275.926 142.034 273.623 142.209L273.547 141.211ZM279.247 138.894L279.462 137.917L279.476 137.92L279.261 138.897L279.047 139.873L279.033 139.87L279.247 138.894ZM277.671 122.447L276.694 122.232L281.088 102.24L282.065 102.455L283.042 102.67L278.648 122.662L277.671 122.447ZM282.065 102.455L282.28 101.478L285.077 102.093L284.862 103.07L284.648 104.046L281.85 103.432L282.065 102.455ZM284.862 103.07L285.078 102.093C289.557 103.083 293.657 105.338 296.89 108.591L296.181 109.296L295.472 110.001C292.509 107.02 288.751 104.953 284.647 104.046L284.862 103.07ZM296.181 109.296L296.89 108.591C300.124 111.843 302.355 115.956 303.319 120.441L302.341 120.651L301.363 120.861C300.481 116.751 298.436 112.982 295.472 110.001L296.181 109.296ZM302.341 120.651L302.55 121.629L281.061 126.214L280.852 125.236L280.644 124.258L302.132 119.673L302.341 120.651ZM280.852 125.236L280.049 125.832C279.284 124.8 278.308 123.945 277.185 123.321L277.671 122.447L278.157 121.573C279.528 122.335 280.721 123.38 281.655 124.64L280.852 125.236ZM245.872 94.5006L246.086 93.5239L276.684 100.249L276.47 101.225L276.255 102.202L245.657 95.4773L245.872 94.5006ZM276.47 101.225L277.446 101.44L273.143 121.023L272.166 120.808L271.189 120.593L275.493 101.011L276.47 101.225ZM272.166 120.808L271.951 121.785L263.559 119.94L263.773 118.964L263.988 117.987L272.381 119.831L272.166 120.808ZM263.773 118.964L263.558 119.94C257.872 118.683 252.839 115.398 249.401 110.699L250.208 110.109L251.015 109.518C254.166 113.825 258.779 116.835 263.989 117.987L263.773 118.964ZM250.208 110.109L249.401 110.699C245.962 106.001 244.354 100.21 244.876 94.4109L245.872 94.5006L246.868 94.5902C246.389 99.905 247.864 105.212 251.015 109.518L250.208 110.109Z" fill="white" mask="url(#path-31-inside-3_438_254)"/>
<path d="M232.398 121.637C233.898 129.637 246.731 132.97 252.898 134.137L249.898 145.302C234.042 142.247 227.898 144.637 225.398 146.637C222.998 137.037 230.065 135.803 233.898 135.637C225.098 132.037 229.065 125.47 232.398 121.637Z" stroke="white" stroke-width="5.7" stroke-linejoin="round"/>
<path d="M232.398 121.637C233.898 129.637 246.731 132.97 252.898 134.137L249.898 145.302C234.042 142.247 227.898 144.637 225.398 146.637C222.998 137.037 230.064 135.803 233.898 135.637C225.098 132.037 229.064 125.47 232.398 121.637Z" stroke="black" stroke-width="4" stroke-linejoin="round"/>
<path d="M262.385 108.837L267.805 105.585" stroke="black" stroke-width="2.16795" stroke-linecap="round"/>
<path d="M262.389 105.589L267.813 108.833" stroke="black" stroke-width="2.16795" stroke-linecap="round"/>
<circle opacity="0.05" cx="287.298" cy="136.298" r="9.2138" fill="#FFCDCD" stroke="black" stroke-width="2.16795"/>
<circle opacity="0.05" cx="264.04" cy="142.253" r="3.25193" fill="#FFCDCD" stroke="black" stroke-width="2.16795"/>
<circle opacity="0.05" cx="258.588" cy="108.588" r="6.50386" fill="#FFCDCD" stroke="black" stroke-width="2.16795"/>
<circle opacity="0.05" cx="290.298" cy="108.298" r="9.2138" fill="#FFCDCD" stroke="black" stroke-width="2.16795"/>
</g>
<defs>
<clipPath id="clip0_438_254">
<rect width="91.658" height="91.658" fill="white" transform="translate(95 39.6748) rotate(-12.395)"/>
</clipPath>
<clipPath id="clip1_438_254">
<rect width="91.658" height="91.658" fill="white" transform="translate(115 135.675) rotate(-12.395)"/>
</clipPath>
<clipPath id="clip2_438_254">
<rect width="91.658" height="91.658" fill="white" transform="matrix(-0.976691 -0.21465 -0.21465 0.976691 325.196 79.6748)"/>
</clipPath>
</defs>
</svg>
