<svg width="309" height="266" viewBox="0 0 309 266" fill="none" xmlns="http://www.w3.org/2000/svg">
<path d="M73 62.5L119.5 51.5C125.9 75.5 105.5 82.5 94.5 83C90.3333 83.3333 82.5 85.6 84.5 92C86.5 98.4 92.3333 98.3333 95 97.5C121.142 95.5 131.226 87 133 83C137.8 84.2 135 92.1667 133 96C139.8 96 139.833 103 139 106.5L129 103.5L104 107.5C92.1667 111.5 66.9 114.8 60.5 96C54.1 77.2 66.1666 65.8333 73 62.5Z" fill="url(#paint0_linear_438_253)"/>
<mask id="path-2-inside-1_438_253" fill="white">
<path d="M123.823 52.3317C124.894 59.5121 123.201 66.8313 119.086 72.8124C114.971 78.7935 108.741 82.9913 101.652 84.5587L90.4622 87.018C89.3492 87.2626 88.379 87.9393 87.765 88.8992C87.151 89.8591 86.9435 91.0236 87.1881 92.1366C87.4327 93.2495 88.1093 94.2197 89.0693 94.8337C90.0292 95.4477 91.1937 95.6552 92.3066 95.4106L111.889 91.1069C112.631 90.9438 113.408 91.0821 114.048 91.4915C114.688 91.9008 115.139 92.5476 115.302 93.2896C115.465 94.0315 115.327 94.8079 114.917 95.4478C114.508 96.0878 113.861 96.5389 113.119 96.702L96.3338 100.391L97.5635 105.986L113.144 102.115C113.886 101.952 114.662 102.091 115.302 102.5C115.942 102.909 116.393 103.556 116.556 104.298C116.719 105.04 116.581 105.816 116.171 106.456C115.762 107.096 115.115 107.547 114.373 107.71L90.4005 113.426C82.9809 115.056 75.2175 113.673 68.8181 109.579C62.4186 105.486 57.9074 99.0179 56.2767 91.5984C54.6461 84.1788 56.0297 76.4154 60.1231 70.0159C64.2165 63.6165 70.6844 59.1052 78.104 57.4746L118.668 48.5596C119.781 48.315 120.752 47.6384 121.366 46.6784C121.98 45.7185 122.187 44.554 121.942 43.4411C121.698 42.3281 121.021 41.358 120.061 40.7439C119.101 40.1299 117.937 39.9224 116.824 40.167L87.4497 46.6227C85.2238 47.1119 82.8948 46.6968 80.975 45.4688C79.0551 44.2407 77.7017 42.3004 77.2126 40.0745C77.0495 39.3325 77.1879 38.5562 77.5972 37.9163C78.0065 37.2763 78.6533 36.8252 79.3953 36.6621C80.1372 36.4991 80.9136 36.6374 81.5535 37.0468C82.1935 37.4561 82.6446 38.1029 82.8077 38.8448C82.9707 39.5868 83.4218 40.2336 84.0618 40.6429C84.7017 41.0523 85.4781 41.1906 86.22 41.0276L115.594 34.5719C117.823 34.0843 120.151 34.3713 122.194 35.3856C124.238 36.3999 125.874 38.0808 126.833 40.1507C127.792 42.2206 128.017 44.5557 127.469 46.7703C126.922 48.985 125.636 50.9468 123.823 52.3317ZM71.9268 104.761L81.7199 93.9102L81.6 93.3647C81.4037 92.4814 81.328 91.5757 81.3748 90.6721L61.3662 86.3998C61.5133 90.0868 62.5522 93.6831 64.394 96.8806C66.2357 100.078 68.8253 102.781 71.9408 104.758L71.9268 104.761ZM84.9346 98.8967L77.3663 107.294C81.1854 108.509 85.2573 108.694 89.1708 107.83L91.9684 107.216L90.6488 101.211C88.5535 101.052 86.5604 100.242 84.9486 98.8936L84.9346 98.8967ZM86.5249 82.4469L82.1312 62.4549L79.3336 63.0697C75.0422 64.0179 71.1134 66.1789 68.0148 69.2957C64.9162 72.4124 62.7781 76.3537 61.8549 80.6506L83.3436 85.2355C84.1936 84.0903 85.2782 83.1395 86.5249 82.4469ZM118.324 54.5006L87.7263 61.2252L92.03 80.8081L100.423 78.9636C105.871 77.7594 110.693 74.6115 113.988 70.1089C117.283 65.6064 118.825 60.0575 118.324 54.5006Z"/>
</mask>
<path d="M123.823 52.3317C124.894 59.5121 123.201 66.8313 119.086 72.8124C114.971 78.7935 108.741 82.9913 101.652 84.5587L90.4622 87.018C89.3492 87.2626 88.379 87.9393 87.765 88.8992C87.151 89.8591 86.9435 91.0236 87.1881 92.1366C87.4327 93.2495 88.1093 94.2197 89.0693 94.8337C90.0292 95.4477 91.1937 95.6552 92.3066 95.4106L111.889 91.1069C112.631 90.9438 113.408 91.0821 114.048 91.4915C114.688 91.9008 115.139 92.5476 115.302 93.2896C115.465 94.0315 115.327 94.8079 114.917 95.4478C114.508 96.0878 113.861 96.5389 113.119 96.702L96.3338 100.391L97.5635 105.986L113.144 102.115C113.886 101.952 114.662 102.091 115.302 102.5C115.942 102.909 116.393 103.556 116.556 104.298C116.719 105.04 116.581 105.816 116.171 106.456C115.762 107.096 115.115 107.547 114.373 107.71L90.4005 113.426C82.9809 115.056 75.2175 113.673 68.8181 109.579C62.4186 105.486 57.9074 99.0179 56.2767 91.5984C54.6461 84.1788 56.0297 76.4154 60.1231 70.0159C64.2165 63.6165 70.6844 59.1052 78.104 57.4746L118.668 48.5596C119.781 48.315 120.752 47.6384 121.366 46.6784C121.98 45.7185 122.187 44.554 121.942 43.4411C121.698 42.3281 121.021 41.358 120.061 40.7439C119.101 40.1299 117.937 39.9224 116.824 40.167L87.4497 46.6227C85.2238 47.1119 82.8948 46.6968 80.975 45.4688C79.0551 44.2407 77.7017 42.3004 77.2126 40.0745C77.0495 39.3325 77.1879 38.5562 77.5972 37.9163C78.0065 37.2763 78.6533 36.8252 79.3953 36.6621C80.1372 36.4991 80.9136 36.6374 81.5535 37.0468C82.1935 37.4561 82.6446 38.1029 82.8077 38.8448C82.9707 39.5868 83.4218 40.2336 84.0618 40.6429C84.7017 41.0523 85.4781 41.1906 86.22 41.0276L115.594 34.5719C117.823 34.0843 120.151 34.3713 122.194 35.3856C124.238 36.3999 125.874 38.0808 126.833 40.1507C127.792 42.2206 128.017 44.5557 127.469 46.7703C126.922 48.985 125.636 50.9468 123.823 52.3317ZM71.9268 104.761L81.7199 93.9102L81.6 93.3647C81.4037 92.4814 81.328 91.5757 81.3748 90.6721L61.3662 86.3998C61.5133 90.0868 62.5522 93.6831 64.394 96.8806C66.2357 100.078 68.8253 102.781 71.9408 104.758L71.9268 104.761ZM84.9346 98.8967L77.3663 107.294C81.1854 108.509 85.2573 108.694 89.1708 107.83L91.9684 107.216L90.6488 101.211C88.5535 101.052 86.5604 100.242 84.9486 98.8936L84.9346 98.8967ZM86.5249 82.4469L82.1312 62.4549L79.3336 63.0697C75.0422 64.0179 71.1134 66.1789 68.0148 69.2957C64.9162 72.4124 62.7781 76.3537 61.8549 80.6506L83.3436 85.2355C84.1936 84.0903 85.2782 83.1395 86.5249 82.4469ZM118.324 54.5006L87.7263 61.2252L92.03 80.8081L100.423 78.9636C105.871 77.7594 110.693 74.6115 113.988 70.1089C117.283 65.6064 118.825 60.0575 118.324 54.5006Z" fill="black"/>
<path d="M123.823 52.3317L123.216 51.537L122.747 51.8953L122.834 52.4791L123.823 52.3317ZM101.652 84.5587L101.867 85.5354L101.868 85.5351L101.652 84.5587ZM87.1881 92.1366L86.2114 92.3512L87.1881 92.1366ZM96.3338 100.391L96.1192 99.4142L95.1425 99.6289L95.3571 100.606L96.3338 100.391ZM97.5635 105.986L96.5868 106.201L96.8074 107.204L97.8046 106.957L97.5635 105.986ZM113.144 102.115L112.929 101.139L112.916 101.142L112.902 101.145L113.144 102.115ZM114.373 107.71L114.159 106.734L114.15 106.736L114.141 106.738L114.373 107.71ZM90.4005 113.426L90.6151 114.402L90.6238 114.4L90.6324 114.398L90.4005 113.426ZM56.2767 91.5984L55.3001 91.813L56.2767 91.5984ZM118.668 48.5596L118.883 49.5363L118.668 48.5596ZM79.3953 36.6621L79.1806 35.6854L79.3953 36.6621ZM86.22 41.0276L86.4347 42.0043L86.22 41.0276ZM115.594 34.5719L115.381 33.595L115.38 33.5952L115.594 34.5719ZM71.9268 104.761L71.1844 104.091C70.8931 104.414 70.8437 104.888 71.0622 105.264C71.2806 105.64 71.7168 105.831 72.1414 105.738L71.9268 104.761ZM81.7199 93.9102L82.4622 94.5802L82.807 94.1981L82.6965 93.6955L81.7199 93.9102ZM81.6 93.3647L82.5767 93.15L82.5762 93.1478L81.6 93.3647ZM81.3748 90.6721L82.3735 90.7238L82.4176 89.8722L81.5836 89.6942L81.3748 90.6721ZM61.3662 86.3998L61.575 85.4218L60.3156 85.1529L60.367 86.4396L61.3662 86.3998ZM71.9408 104.758L72.1554 105.735C72.5511 105.648 72.8552 105.331 72.9256 104.932C72.9959 104.533 72.8186 104.131 72.4766 103.914L71.9408 104.758ZM84.9346 98.8967L84.72 97.92L84.4066 97.9889L84.1918 98.2272L84.9346 98.8967ZM77.3663 107.294L76.6235 106.625L75.5849 107.777L77.0633 108.247L77.3663 107.294ZM89.1708 107.83L88.9562 106.854L88.9555 106.854L89.1708 107.83ZM91.9684 107.216L92.183 108.192L93.1597 107.978L92.9451 107.001L91.9684 107.216ZM90.6488 101.211L91.6255 100.997L91.4659 100.271L90.7245 100.214L90.6488 101.211ZM84.9486 98.8936L85.5902 98.1266L85.2136 97.8115L84.734 97.917L84.9486 98.8936ZM86.5249 82.4469L87.0105 83.321L87.6614 82.9594L87.5016 82.2322L86.5249 82.4469ZM82.1312 62.4549L83.1079 62.2402L82.8932 61.2635L81.9165 61.4782L82.1312 62.4549ZM79.3336 63.0697L79.119 62.093L79.1179 62.0933L79.3336 63.0697ZM61.8549 80.6506L60.8772 80.4406L60.6669 81.4196L61.6463 81.6286L61.8549 80.6506ZM83.3436 85.2355L83.1349 86.2135L83.7635 86.3477L84.1466 85.8315L83.3436 85.2355ZM118.324 54.5006L119.32 54.4109L119.219 53.2802L118.11 53.5239L118.324 54.5006ZM87.7263 61.2252L87.5116 60.2485L86.5349 60.4632L86.7496 61.4399L87.7263 61.2252ZM92.03 80.8081L91.0534 81.0227L91.268 81.9994L92.2447 81.7848L92.03 80.8081ZM100.423 78.9636L100.637 79.9403L100.639 79.94L100.423 78.9636ZM123.823 52.3317L122.834 52.4791C123.867 59.4092 122.233 66.4731 118.262 72.2456L119.086 72.8124L119.91 73.3792C124.168 67.1895 125.92 59.6151 124.812 52.1842L123.823 52.3317ZM119.086 72.8124L118.262 72.2456C114.291 78.0181 108.278 82.0695 101.436 83.5823L101.652 84.5587L101.868 85.5351C109.204 83.913 115.651 79.5689 119.91 73.3792L119.086 72.8124ZM101.652 84.5587L101.438 83.582L90.2475 86.0413L90.4622 87.018L90.6768 87.9947L101.867 85.5354L101.652 84.5587ZM90.4622 87.018L90.2475 86.0413C88.8755 86.3428 87.6795 87.177 86.9226 88.3603L87.765 88.8992L88.6074 89.438C89.0785 88.7015 89.8229 88.1823 90.6768 87.9947L90.4622 87.018ZM87.765 88.8992L86.9226 88.3603C86.1657 89.5437 85.9099 90.9792 86.2114 92.3512L87.1881 92.1366L88.1648 91.9219C87.9771 91.068 88.1363 90.1745 88.6074 89.438L87.765 88.8992ZM87.1881 92.1366L86.2114 92.3512C86.5129 93.7232 87.3471 94.9192 88.5304 95.6761L89.0693 94.8337L89.6081 93.9913C88.8716 93.5202 88.3524 92.7758 88.1648 91.9219L87.1881 92.1366ZM89.0693 94.8337L88.5304 95.6761C89.7138 96.433 91.1493 96.6889 92.5213 96.3873L92.3066 95.4106L92.092 94.4339C91.2381 94.6216 90.3446 94.4624 89.6081 93.9913L89.0693 94.8337ZM92.3066 95.4106L92.5213 96.3873L112.104 92.0835L111.889 91.1069L111.675 90.1302L92.092 94.4339L92.3066 95.4106ZM111.889 91.1069L112.104 92.0835C112.587 91.9774 113.092 92.0675 113.509 92.3339L114.048 91.4915L114.587 90.6491C113.723 90.0968 112.676 89.9102 111.675 90.1302L111.889 91.1069ZM114.048 91.4915L113.509 92.3339C113.925 92.6003 114.219 93.0213 114.325 93.5042L115.302 93.2896L116.279 93.0749C116.059 92.0739 115.45 91.2013 114.587 90.6491L114.048 91.4915ZM115.302 93.2896L114.325 93.5042C114.431 93.9872 114.341 94.4925 114.075 94.909L114.917 95.4478L115.76 95.9867C116.312 95.1233 116.499 94.0759 116.279 93.0749L115.302 93.2896ZM114.917 95.4478L114.075 94.909C113.808 95.3255 113.387 95.6191 112.904 95.7253L113.119 96.702L113.334 97.6786C114.335 97.4587 115.207 96.85 115.76 95.9867L114.917 95.4478ZM113.119 96.702L112.904 95.7253L96.1192 99.4142L96.3338 100.391L96.5485 101.368L113.334 97.6786L113.119 96.702ZM96.3338 100.391L95.3571 100.606L96.5868 106.201L97.5635 105.986L98.5402 105.771L97.3105 100.176L96.3338 100.391ZM97.5635 105.986L97.8046 106.957L113.385 103.086L113.144 102.115L112.902 101.145L97.3224 105.016L97.5635 105.986ZM113.144 102.115L113.358 103.092C113.841 102.986 114.346 103.076 114.763 103.342L115.302 102.5L115.841 101.658C114.977 101.105 113.93 100.919 112.929 101.139L113.144 102.115ZM115.302 102.5L114.763 103.342C115.18 103.609 115.473 104.03 115.579 104.513L116.556 104.298L117.533 104.083C117.313 103.082 116.704 102.21 115.841 101.658L115.302 102.5ZM116.556 104.298L115.579 104.513C115.685 104.996 115.595 105.501 115.329 105.917L116.171 106.456L117.014 106.995C117.566 106.132 117.753 105.084 117.533 104.083L116.556 104.298ZM116.171 106.456L115.329 105.917C115.063 106.334 114.642 106.628 114.159 106.734L114.373 107.71L114.588 108.687C115.589 108.467 116.461 107.859 117.014 106.995L116.171 106.456ZM114.373 107.71L114.141 106.738L90.1686 112.453L90.4005 113.426L90.6324 114.398L114.605 108.683L114.373 107.71ZM90.4005 113.426L90.1858 112.449C83.0253 114.023 75.5329 112.687 69.3569 108.737L68.8181 109.579L68.2792 110.422C74.9021 114.658 82.9365 116.09 90.6151 114.402L90.4005 113.426ZM68.8181 109.579L69.3569 108.737C63.1809 104.786 58.8271 98.5442 57.2534 91.3837L56.2767 91.5984L55.3001 91.813C56.9876 99.4916 61.6563 106.185 68.2792 110.422L68.8181 109.579ZM56.2767 91.5984L57.2534 91.3837C55.6797 84.2232 57.015 76.7308 60.9655 70.5548L60.1231 70.0159L59.2807 69.4771C55.0444 76.0999 53.6125 84.1344 55.3001 91.813L56.2767 91.5984ZM60.1231 70.0159L60.9655 70.5548C64.916 64.3787 71.1581 60.025 78.3186 58.4513L78.104 57.4746L77.8893 56.4979C70.2107 58.1855 63.517 62.8542 59.2807 69.4771L60.1231 70.0159ZM78.104 57.4746L78.3186 58.4513L118.883 49.5363L118.668 48.5596L118.454 47.5829L77.8893 56.4979L78.104 57.4746ZM118.668 48.5596L118.883 49.5363C120.255 49.2348 121.451 48.4006 122.208 47.2173L121.366 46.6784L120.523 46.1396C120.052 46.8761 119.308 47.3953 118.454 47.5829L118.668 48.5596ZM121.366 46.6784L122.208 47.2173C122.965 46.034 123.221 44.5984 122.919 43.2264L121.942 43.4411L120.966 43.6557C121.153 44.5096 120.994 45.4031 120.523 46.1396L121.366 46.6784ZM121.942 43.4411L122.919 43.2264C122.618 41.8545 121.783 40.6585 120.6 39.9015L120.061 40.7439L119.522 41.5864C120.259 42.0575 120.778 42.8018 120.966 43.6557L121.942 43.4411ZM120.061 40.7439L120.6 39.9015C119.417 39.1446 117.981 38.8888 116.609 39.1903L116.824 40.167L117.039 41.1437C117.892 40.956 118.786 41.1153 119.522 41.5864L120.061 40.7439ZM116.824 40.167L116.609 39.1903L87.235 45.646L87.4497 46.6227L87.6643 47.5994L117.039 41.1437L116.824 40.167ZM87.4497 46.6227L87.235 45.646C85.2682 46.0782 83.2102 45.7115 81.5138 44.6264L80.975 45.4688L80.4361 46.3112C82.5794 47.6821 85.1794 48.1455 87.6643 47.5994L87.4497 46.6227ZM80.975 45.4688L81.5138 44.6264C79.8174 43.5412 78.6215 41.8267 78.1893 39.8599L77.2126 40.0745L76.2359 40.2892C76.782 42.7741 78.2929 44.9402 80.4361 46.3112L80.975 45.4688ZM77.2126 40.0745L78.1893 39.8599C78.0831 39.3769 78.1732 38.8716 78.4396 38.4551L77.5972 37.9163L76.7548 37.3774C76.2025 38.2408 76.0159 39.2882 76.2359 40.2892L77.2126 40.0745ZM77.5972 37.9163L78.4396 38.4551C78.706 38.0386 79.127 37.745 79.6099 37.6388L79.3953 36.6621L79.1806 35.6854C78.1796 35.9054 77.307 36.514 76.7548 37.3774L77.5972 37.9163ZM79.3953 36.6621L79.6099 37.6388C80.0929 37.5327 80.5982 37.6227 81.0147 37.8892L81.5535 37.0468L82.0924 36.2044C81.229 35.6521 80.1816 35.4654 79.1806 35.6854L79.3953 36.6621ZM81.5535 37.0468L81.0147 37.8892C81.4312 38.1556 81.7248 38.5766 81.831 39.0595L82.8077 38.8448L83.7843 38.6302C83.5644 37.6292 82.9557 36.7566 82.0924 36.2044L81.5535 37.0468ZM82.8077 38.8448L81.831 39.0595C82.051 40.0605 82.6596 40.9331 83.5229 41.4853L84.0618 40.6429L84.6006 39.8005C84.1841 39.5341 83.8905 39.1131 83.7843 38.6302L82.8077 38.8448ZM84.0618 40.6429L83.5229 41.4853C84.3863 42.0376 85.4337 42.2243 86.4347 42.0043L86.22 41.0276L86.0054 40.0509C85.5225 40.157 85.0172 40.067 84.6006 39.8005L84.0618 40.6429ZM86.22 41.0276L86.4347 42.0043L115.809 35.5486L115.594 34.5719L115.38 33.5952L86.0054 40.0509L86.22 41.0276ZM115.594 34.5719L115.808 35.5488C117.814 35.1098 119.91 35.3682 121.75 36.2814L122.194 35.3856L122.639 34.4899C120.392 33.3744 117.831 33.0588 115.381 33.595L115.594 34.5719ZM122.194 35.3856L121.75 36.2814C123.589 37.1945 125.062 38.7077 125.926 40.5711L126.833 40.1507L127.741 39.7303C126.686 37.454 124.886 35.6054 122.639 34.4899L122.194 35.3856ZM126.833 40.1507L125.926 40.5711C126.789 42.4345 126.991 44.5367 126.499 46.5304L127.469 46.7703L128.44 47.0102C129.042 44.5747 128.795 42.0067 127.741 39.7303L126.833 40.1507ZM127.469 46.7703L126.499 46.5304C126.006 48.5242 124.848 50.2903 123.216 51.537L123.823 52.3317L124.43 53.1263C126.424 51.6033 127.838 49.4458 128.44 47.0102L127.469 46.7703ZM71.9268 104.761L72.6691 105.431L82.4622 94.5802L81.7199 93.9102L80.9775 93.2402L71.1844 104.091L71.9268 104.761ZM81.7199 93.9102L82.6965 93.6955L82.5767 93.15L81.6 93.3647L80.6233 93.5793L80.7432 94.1248L81.7199 93.9102ZM81.6 93.3647L82.5762 93.1478C82.3995 92.3527 82.3313 91.5373 82.3735 90.7238L81.3748 90.6721L80.3761 90.6204C80.3247 91.6141 80.408 92.6102 80.6238 93.5815L81.6 93.3647ZM81.3748 90.6721L81.5836 89.6942L61.575 85.4218L61.3662 86.3998L61.1573 87.3777L81.166 91.6501L81.3748 90.6721ZM61.3662 86.3998L60.367 86.4396C60.5205 90.2882 61.605 94.0421 63.5274 97.3797L64.394 96.8806L65.2605 96.3814C63.4995 93.3241 62.506 89.8853 62.3654 86.3599L61.3662 86.3998ZM64.394 96.8806L63.5274 97.3797C65.4499 100.717 68.1529 103.539 71.4049 105.603L71.9408 104.758L72.4766 103.914C69.4976 102.024 67.0215 99.4388 65.2605 96.3814L64.394 96.8806ZM71.9408 104.758L71.7261 103.782L71.7121 103.785L71.9268 104.761L72.1414 105.738L72.1554 105.735L71.9408 104.758ZM84.9346 98.8967L84.1918 98.2272L76.6235 106.625L77.3663 107.294L78.1091 107.964L85.6774 99.5662L84.9346 98.8967ZM77.3663 107.294L77.0633 108.247C81.0501 109.515 85.3009 109.708 89.3862 108.807L89.1708 107.83L88.9555 106.854C85.2138 107.679 81.3207 107.502 77.6693 106.341L77.3663 107.294ZM89.1708 107.83L89.3855 108.807L92.183 108.192L91.9684 107.216L91.7537 106.239L88.9562 106.854L89.1708 107.83ZM91.9684 107.216L92.9451 107.001L91.6255 100.997L90.6488 101.211L89.6721 101.426L90.9917 107.43L91.9684 107.216ZM90.6488 101.211L90.7245 100.214C88.8372 100.071 87.042 99.3411 85.5902 98.1266L84.9486 98.8936L84.307 99.6606C86.0787 101.143 88.2698 102.034 90.5731 102.209L90.6488 101.211ZM84.9486 98.8936L84.734 97.917L84.72 97.92L84.9346 98.8967L85.1493 99.8734L85.1633 99.8703L84.9486 98.8936ZM86.5249 82.4469L87.5016 82.2322L83.1079 62.2402L82.1312 62.4549L81.1545 62.6695L85.5482 82.6615L86.5249 82.4469ZM82.1312 62.4549L81.9165 61.4782L79.119 62.093L79.3336 63.0697L79.5483 64.0464L82.3458 63.4316L82.1312 62.4549ZM79.3336 63.0697L79.1179 62.0933C74.6393 63.0828 70.5393 65.338 67.3056 68.5906L68.0148 69.2957L68.724 70.0007C71.6875 67.0198 75.445 64.953 79.5494 64.0462L79.3336 63.0697ZM68.0148 69.2957L67.3056 68.5906C64.0719 71.8433 61.8406 75.9563 60.8772 80.4406L61.8549 80.6506L62.8326 80.8607C63.7155 76.7511 65.7604 72.9816 68.724 70.0007L68.0148 69.2957ZM61.8549 80.6506L61.6463 81.6286L83.1349 86.2135L83.3436 85.2355L83.5523 84.2576L62.0636 79.6726L61.8549 80.6506ZM83.3436 85.2355L84.1466 85.8315C84.9118 84.8005 85.8882 83.9446 87.0105 83.321L86.5249 82.4469L86.0392 81.5727C84.6681 82.3345 83.4754 83.3801 82.5406 84.6396L83.3436 85.2355ZM118.324 54.5006L118.11 53.5239L87.5116 60.2485L87.7263 61.2252L87.9409 62.2019L118.539 55.4773L118.324 54.5006ZM87.7263 61.2252L86.7496 61.4399L91.0534 81.0227L92.03 80.8081L93.0067 80.5934L88.703 61.0106L87.7263 61.2252ZM92.03 80.8081L92.2447 81.7848L100.637 79.9403L100.423 78.9636L100.208 77.9869L91.8154 79.8314L92.03 80.8081ZM100.423 78.9636L100.639 79.94C106.324 78.6833 111.357 75.3983 114.795 70.6995L113.988 70.1089L113.181 69.5184C110.03 73.8248 105.417 76.8354 100.207 77.9872L100.423 78.9636ZM113.988 70.1089L114.795 70.6995C118.234 66.0007 119.842 60.2101 119.32 54.4109L118.324 54.5006L117.328 54.5902C117.807 59.905 116.332 65.212 113.181 69.5184L113.988 70.1089Z" fill="white" mask="url(#path-2-inside-1_438_253)"/>
<path d="M131.798 81.6367C130.298 89.6367 117.465 92.9699 111.298 94.1367L114.298 105.302C130.154 102.247 136.298 104.637 138.798 106.637C141.198 97.0367 134.132 95.8034 130.298 95.6367C139.098 92.0367 135.132 85.4701 131.798 81.6367Z" stroke="white" stroke-width="5.7" stroke-linejoin="round"/>
<path d="M131.798 81.6367C130.298 89.6367 117.465 92.9699 111.298 94.1367L114.298 105.302C130.154 102.247 136.298 104.637 138.798 106.637C141.198 97.0367 134.132 95.8034 130.298 95.6367C139.098 92.0367 135.132 85.4701 131.798 81.6367Z" stroke="black" stroke-width="4" stroke-linejoin="round"/>
<circle cx="99" cy="67" r="3" fill="black"/>
<circle opacity="0.05" cx="111.336" cy="65.3359" r="3.25193" fill="#FFCDCD" stroke="black" stroke-width="2.16795"/>
<circle opacity="0.05" cx="86.2978" cy="71.2978" r="9.2138" fill="#FFCDCD" stroke="black" stroke-width="2.16795"/>
<circle opacity="0.05" cx="73.2978" cy="93.2978" r="9.2138" fill="#FFCDCD" stroke="black" stroke-width="2.16795"/>
<circle opacity="0.05" cx="103.588" cy="101.588" r="6.50386" fill="#FFCDCD" stroke="black" stroke-width="2.16795"/>
<path d="M93 158.5L139.5 147.5C145.9 171.5 125.5 178.5 114.5 179C110.333 179.333 102.5 181.6 104.5 188C106.5 194.4 112.333 194.333 115 193.5C141.142 191.5 151.226 183 153 179C157.8 180.2 155 188.167 153 192C159.8 192 159.833 199 159 202.5L149 199.5L124 203.5C112.167 207.5 86.9 210.8 80.5 192C74.1 173.2 86.1666 161.833 93 158.5Z" fill="url(#paint1_linear_438_253)"/>
<mask id="path-12-inside-2_438_253" fill="white">
<path d="M143.823 148.332C144.894 155.512 143.201 162.831 139.086 168.812C134.971 174.793 128.741 178.991 121.652 180.559L110.462 183.018C109.349 183.263 108.379 183.939 107.765 184.899C107.151 185.859 106.943 187.024 107.188 188.137C107.433 189.249 108.109 190.22 109.069 190.834C110.029 191.448 111.194 191.655 112.307 191.411L131.889 187.107C132.631 186.944 133.408 187.082 134.048 187.491C134.688 187.901 135.139 188.548 135.302 189.29C135.465 190.032 135.327 190.808 134.917 191.448C134.508 192.088 133.861 192.539 133.119 192.702L116.334 196.391L117.563 201.986L133.144 198.115C133.886 197.952 134.662 198.091 135.302 198.5C135.942 198.909 136.393 199.556 136.556 200.298C136.719 201.04 136.581 201.816 136.171 202.456C135.762 203.096 135.115 203.547 134.373 203.71L110.4 209.426C102.981 211.056 95.2175 209.673 88.8181 205.579C82.4186 201.486 77.9074 195.018 76.2767 187.598C74.6461 180.179 76.0297 172.415 80.1231 166.016C84.2165 159.616 90.6844 155.105 98.104 153.475L138.668 144.56C139.781 144.315 140.752 143.638 141.366 142.678C141.98 141.719 142.187 140.554 141.942 139.441C141.698 138.328 141.021 137.358 140.061 136.744C139.101 136.13 137.937 135.922 136.824 136.167L107.45 142.623C105.224 143.112 102.895 142.697 100.975 141.469C99.0551 140.241 97.7017 138.3 97.2126 136.075C97.0495 135.333 97.1879 134.556 97.5972 133.916C98.0065 133.276 98.6533 132.825 99.3953 132.662C100.137 132.499 100.914 132.637 101.554 133.047C102.193 133.456 102.645 134.103 102.808 134.845C102.971 135.587 103.422 136.234 104.062 136.643C104.702 137.052 105.478 137.191 106.22 137.028L135.594 130.572C137.823 130.084 140.151 130.371 142.194 131.386C144.238 132.4 145.874 134.081 146.833 136.151C147.792 138.221 148.017 140.556 147.469 142.77C146.922 144.985 145.636 146.947 143.823 148.332ZM91.9268 200.761L101.72 189.91L101.6 189.365C101.404 188.481 101.328 187.576 101.375 186.672L81.3662 182.4C81.5133 186.087 82.5522 189.683 84.394 192.881C86.2357 196.078 88.8253 198.781 91.9408 200.758L91.9268 200.761ZM104.935 194.897L97.3663 203.294C101.185 204.509 105.257 204.694 109.171 203.83L111.968 203.216L110.649 197.211C108.553 197.052 106.56 196.242 104.949 194.894L104.935 194.897ZM106.525 178.447L102.131 158.455L99.3336 159.07C95.0422 160.018 91.1134 162.179 88.0148 165.296C84.9162 168.412 82.7781 172.354 81.8549 176.651L103.344 181.236C104.194 180.09 105.278 179.14 106.525 178.447ZM138.324 150.501L107.726 157.225L112.03 176.808L120.423 174.964C125.871 173.759 130.693 170.612 133.988 166.109C137.283 161.606 138.825 156.058 138.324 150.501Z"/>
</mask>
<path d="M143.823 148.332C144.894 155.512 143.201 162.831 139.086 168.812C134.971 174.793 128.741 178.991 121.652 180.559L110.462 183.018C109.349 183.263 108.379 183.939 107.765 184.899C107.151 185.859 106.943 187.024 107.188 188.137C107.433 189.249 108.109 190.22 109.069 190.834C110.029 191.448 111.194 191.655 112.307 191.411L131.889 187.107C132.631 186.944 133.408 187.082 134.048 187.491C134.688 187.901 135.139 188.548 135.302 189.29C135.465 190.032 135.327 190.808 134.917 191.448C134.508 192.088 133.861 192.539 133.119 192.702L116.334 196.391L117.563 201.986L133.144 198.115C133.886 197.952 134.662 198.091 135.302 198.5C135.942 198.909 136.393 199.556 136.556 200.298C136.719 201.04 136.581 201.816 136.171 202.456C135.762 203.096 135.115 203.547 134.373 203.71L110.4 209.426C102.981 211.056 95.2175 209.673 88.8181 205.579C82.4186 201.486 77.9074 195.018 76.2767 187.598C74.6461 180.179 76.0297 172.415 80.1231 166.016C84.2165 159.616 90.6844 155.105 98.104 153.475L138.668 144.56C139.781 144.315 140.752 143.638 141.366 142.678C141.98 141.719 142.187 140.554 141.942 139.441C141.698 138.328 141.021 137.358 140.061 136.744C139.101 136.13 137.937 135.922 136.824 136.167L107.45 142.623C105.224 143.112 102.895 142.697 100.975 141.469C99.0551 140.241 97.7017 138.3 97.2126 136.075C97.0495 135.333 97.1879 134.556 97.5972 133.916C98.0065 133.276 98.6533 132.825 99.3953 132.662C100.137 132.499 100.914 132.637 101.554 133.047C102.193 133.456 102.645 134.103 102.808 134.845C102.971 135.587 103.422 136.234 104.062 136.643C104.702 137.052 105.478 137.191 106.22 137.028L135.594 130.572C137.823 130.084 140.151 130.371 142.194 131.386C144.238 132.4 145.874 134.081 146.833 136.151C147.792 138.221 148.017 140.556 147.469 142.77C146.922 144.985 145.636 146.947 143.823 148.332ZM91.9268 200.761L101.72 189.91L101.6 189.365C101.404 188.481 101.328 187.576 101.375 186.672L81.3662 182.4C81.5133 186.087 82.5522 189.683 84.394 192.881C86.2357 196.078 88.8253 198.781 91.9408 200.758L91.9268 200.761ZM104.935 194.897L97.3663 203.294C101.185 204.509 105.257 204.694 109.171 203.83L111.968 203.216L110.649 197.211C108.553 197.052 106.56 196.242 104.949 194.894L104.935 194.897ZM106.525 178.447L102.131 158.455L99.3336 159.07C95.0422 160.018 91.1134 162.179 88.0148 165.296C84.9162 168.412 82.7781 172.354 81.8549 176.651L103.344 181.236C104.194 180.09 105.278 179.14 106.525 178.447ZM138.324 150.501L107.726 157.225L112.03 176.808L120.423 174.964C125.871 173.759 130.693 170.612 133.988 166.109C137.283 161.606 138.825 156.058 138.324 150.501Z" fill="black"/>
<path d="M143.823 148.332L143.216 147.537L142.747 147.895L142.834 148.479L143.823 148.332ZM121.652 180.559L121.867 181.535L121.868 181.535L121.652 180.559ZM107.188 188.137L106.211 188.351L107.188 188.137ZM116.334 196.391L116.119 195.414L115.142 195.629L115.357 196.606L116.334 196.391ZM117.563 201.986L116.587 202.201L116.807 203.204L117.805 202.957L117.563 201.986ZM133.144 198.115L132.929 197.139L132.916 197.142L132.902 197.145L133.144 198.115ZM134.373 203.71L134.159 202.734L134.15 202.736L134.141 202.738L134.373 203.71ZM110.4 209.426L110.615 210.402L110.624 210.4L110.632 210.398L110.4 209.426ZM76.2767 187.598L75.3001 187.813L76.2767 187.598ZM138.668 144.56L138.883 145.536L138.668 144.56ZM99.3953 132.662L99.1806 131.685L99.3953 132.662ZM106.22 137.028L106.435 138.004L106.22 137.028ZM135.594 130.572L135.381 129.595L135.38 129.595L135.594 130.572ZM91.9268 200.761L91.1844 200.091C90.8931 200.414 90.8437 200.888 91.0622 201.264C91.2806 201.64 91.7168 201.831 92.1414 201.738L91.9268 200.761ZM101.72 189.91L102.462 190.58L102.807 190.198L102.697 189.696L101.72 189.91ZM101.6 189.365L102.577 189.15L102.576 189.148L101.6 189.365ZM101.375 186.672L102.373 186.724L102.418 185.872L101.584 185.694L101.375 186.672ZM81.3662 182.4L81.575 181.422L80.3156 181.153L80.367 182.44L81.3662 182.4ZM91.9408 200.758L92.1554 201.735C92.5511 201.648 92.8552 201.331 92.9256 200.932C92.9959 200.533 92.8186 200.131 92.4766 199.914L91.9408 200.758ZM104.935 194.897L104.72 193.92L104.407 193.989L104.192 194.227L104.935 194.897ZM97.3663 203.294L96.6235 202.625L95.5849 203.777L97.0633 204.247L97.3663 203.294ZM109.171 203.83L108.956 202.854L108.955 202.854L109.171 203.83ZM111.968 203.216L112.183 204.192L113.16 203.978L112.945 203.001L111.968 203.216ZM110.649 197.211L111.626 196.997L111.466 196.271L110.724 196.214L110.649 197.211ZM104.949 194.894L105.59 194.127L105.214 193.812L104.734 193.917L104.949 194.894ZM106.525 178.447L107.011 179.321L107.661 178.959L107.502 178.232L106.525 178.447ZM102.131 158.455L103.108 158.24L102.893 157.264L101.917 157.478L102.131 158.455ZM99.3336 159.07L99.119 158.093L99.1179 158.093L99.3336 159.07ZM81.8549 176.651L80.8772 176.441L80.6669 177.42L81.6463 177.629L81.8549 176.651ZM103.344 181.236L103.135 182.214L103.764 182.348L104.147 181.832L103.344 181.236ZM138.324 150.501L139.32 150.411L139.219 149.28L138.11 149.524L138.324 150.501ZM107.726 157.225L107.512 156.249L106.535 156.463L106.75 157.44L107.726 157.225ZM112.03 176.808L111.053 177.023L111.268 177.999L112.245 177.785L112.03 176.808ZM120.423 174.964L120.637 175.94L120.639 175.94L120.423 174.964ZM143.823 148.332L142.834 148.479C143.867 155.409 142.233 162.473 138.262 168.246L139.086 168.812L139.91 169.379C144.168 163.189 145.92 155.615 144.812 148.184L143.823 148.332ZM139.086 168.812L138.262 168.246C134.291 174.018 128.278 178.07 121.436 179.582L121.652 180.559L121.868 181.535C129.204 179.913 135.651 175.569 139.91 169.379L139.086 168.812ZM121.652 180.559L121.438 179.582L110.248 182.041L110.462 183.018L110.677 183.995L121.867 181.535L121.652 180.559ZM110.462 183.018L110.248 182.041C108.876 182.343 107.68 183.177 106.923 184.36L107.765 184.899L108.607 185.438C109.079 184.702 109.823 184.182 110.677 183.995L110.462 183.018ZM107.765 184.899L106.923 184.36C106.166 185.544 105.91 186.979 106.211 188.351L107.188 188.137L108.165 187.922C107.977 187.068 108.136 186.175 108.607 185.438L107.765 184.899ZM107.188 188.137L106.211 188.351C106.513 189.723 107.347 190.919 108.53 191.676L109.069 190.834L109.608 189.991C108.872 189.52 108.352 188.776 108.165 187.922L107.188 188.137ZM109.069 190.834L108.53 191.676C109.714 192.433 111.149 192.689 112.521 192.387L112.307 191.411L112.092 190.434C111.238 190.622 110.345 190.462 109.608 189.991L109.069 190.834ZM112.307 191.411L112.521 192.387L132.104 188.084L131.889 187.107L131.675 186.13L112.092 190.434L112.307 191.411ZM131.889 187.107L132.104 188.084C132.587 187.977 133.092 188.067 133.509 188.334L134.048 187.491L134.587 186.649C133.723 186.097 132.676 185.91 131.675 186.13L131.889 187.107ZM134.048 187.491L133.509 188.334C133.925 188.6 134.219 189.021 134.325 189.504L135.302 189.29L136.279 189.075C136.059 188.074 135.45 187.201 134.587 186.649L134.048 187.491ZM135.302 189.29L134.325 189.504C134.431 189.987 134.341 190.492 134.075 190.909L134.917 191.448L135.76 191.987C136.312 191.123 136.499 190.076 136.279 189.075L135.302 189.29ZM134.917 191.448L134.075 190.909C133.808 191.326 133.387 191.619 132.904 191.725L133.119 192.702L133.334 193.679C134.335 193.459 135.207 192.85 135.76 191.987L134.917 191.448ZM133.119 192.702L132.904 191.725L116.119 195.414L116.334 196.391L116.548 197.368L133.334 193.679L133.119 192.702ZM116.334 196.391L115.357 196.606L116.587 202.201L117.563 201.986L118.54 201.771L117.311 196.176L116.334 196.391ZM117.563 201.986L117.805 202.957L133.385 199.086L133.144 198.115L132.902 197.145L117.322 201.016L117.563 201.986ZM133.144 198.115L133.358 199.092C133.841 198.986 134.346 199.076 134.763 199.342L135.302 198.5L135.841 197.658C134.977 197.105 133.93 196.919 132.929 197.139L133.144 198.115ZM135.302 198.5L134.763 199.342C135.18 199.609 135.473 200.03 135.579 200.513L136.556 200.298L137.533 200.083C137.313 199.082 136.704 198.21 135.841 197.658L135.302 198.5ZM136.556 200.298L135.579 200.513C135.685 200.996 135.595 201.501 135.329 201.917L136.171 202.456L137.014 202.995C137.566 202.132 137.753 201.084 137.533 200.083L136.556 200.298ZM136.171 202.456L135.329 201.917C135.063 202.334 134.642 202.628 134.159 202.734L134.373 203.71L134.588 204.687C135.589 204.467 136.461 203.859 137.014 202.995L136.171 202.456ZM134.373 203.71L134.141 202.738L110.169 208.453L110.4 209.426L110.632 210.398L134.605 204.683L134.373 203.71ZM110.4 209.426L110.186 208.449C103.025 210.023 95.5329 208.687 89.3569 204.737L88.8181 205.579L88.2792 206.422C94.9021 210.658 102.937 212.09 110.615 210.402L110.4 209.426ZM88.8181 205.579L89.3569 204.737C83.1809 200.786 78.8271 194.544 77.2534 187.384L76.2767 187.598L75.3001 187.813C76.9876 195.492 81.6563 202.185 88.2792 206.422L88.8181 205.579ZM76.2767 187.598L77.2534 187.384C75.6797 180.223 77.015 172.731 80.9655 166.555L80.1231 166.016L79.2807 165.477C75.0444 172.1 73.6125 180.134 75.3001 187.813L76.2767 187.598ZM80.1231 166.016L80.9655 166.555C84.916 160.379 91.1581 156.025 98.3186 154.451L98.104 153.475L97.8893 152.498C90.2107 154.185 83.517 158.854 79.2807 165.477L80.1231 166.016ZM98.104 153.475L98.3186 154.451L138.883 145.536L138.668 144.56L138.454 143.583L97.8893 152.498L98.104 153.475ZM138.668 144.56L138.883 145.536C140.255 145.235 141.451 144.401 142.208 143.217L141.366 142.678L140.523 142.14C140.052 142.876 139.308 143.395 138.454 143.583L138.668 144.56ZM141.366 142.678L142.208 143.217C142.965 142.034 143.221 140.598 142.919 139.226L141.942 139.441L140.966 139.656C141.153 140.51 140.994 141.403 140.523 142.14L141.366 142.678ZM141.942 139.441L142.919 139.226C142.618 137.854 141.783 136.658 140.6 135.902L140.061 136.744L139.522 137.586C140.259 138.057 140.778 138.802 140.966 139.656L141.942 139.441ZM140.061 136.744L140.6 135.902C139.417 135.145 137.981 134.889 136.609 135.19L136.824 136.167L137.039 137.144C137.892 136.956 138.786 137.115 139.522 137.586L140.061 136.744ZM136.824 136.167L136.609 135.19L107.235 141.646L107.45 142.623L107.664 143.599L137.039 137.144L136.824 136.167ZM107.45 142.623L107.235 141.646C105.268 142.078 103.21 141.711 101.514 140.626L100.975 141.469L100.436 142.311C102.579 143.682 105.179 144.145 107.664 143.599L107.45 142.623ZM100.975 141.469L101.514 140.626C99.8174 139.541 98.6215 137.827 98.1893 135.86L97.2126 136.075L96.2359 136.289C96.782 138.774 98.2929 140.94 100.436 142.311L100.975 141.469ZM97.2126 136.075L98.1893 135.86C98.0831 135.377 98.1732 134.872 98.4396 134.455L97.5972 133.916L96.7548 133.377C96.2025 134.241 96.0159 135.288 96.2359 136.289L97.2126 136.075ZM97.5972 133.916L98.4396 134.455C98.706 134.039 99.127 133.745 99.6099 133.639L99.3953 132.662L99.1806 131.685C98.1796 131.905 97.307 132.514 96.7548 133.377L97.5972 133.916ZM99.3953 132.662L99.6099 133.639C100.093 133.533 100.598 133.623 101.015 133.889L101.554 133.047L102.092 132.204C101.229 131.652 100.182 131.465 99.1806 131.685L99.3953 132.662ZM101.554 133.047L101.015 133.889C101.431 134.156 101.725 134.577 101.831 135.06L102.808 134.845L103.784 134.63C103.564 133.629 102.956 132.757 102.092 132.204L101.554 133.047ZM102.808 134.845L101.831 135.06C102.051 136.06 102.66 136.933 103.523 137.485L104.062 136.643L104.601 135.801C104.184 135.534 103.89 135.113 103.784 134.63L102.808 134.845ZM104.062 136.643L103.523 137.485C104.386 138.038 105.434 138.224 106.435 138.004L106.22 137.028L106.005 136.051C105.522 136.157 105.017 136.067 104.601 135.801L104.062 136.643ZM106.22 137.028L106.435 138.004L135.809 131.549L135.594 130.572L135.38 129.595L106.005 136.051L106.22 137.028ZM135.594 130.572L135.808 131.549C137.814 131.11 139.91 131.368 141.75 132.281L142.194 131.386L142.639 130.49C140.392 129.374 137.831 129.059 135.381 129.595L135.594 130.572ZM142.194 131.386L141.75 132.281C143.589 133.194 145.062 134.708 145.926 136.571L146.833 136.151L147.741 135.73C146.686 133.454 144.886 131.605 142.639 130.49L142.194 131.386ZM146.833 136.151L145.926 136.571C146.789 138.435 146.991 140.537 146.499 142.53L147.469 142.77L148.44 143.01C149.042 140.575 148.795 138.007 147.741 135.73L146.833 136.151ZM147.469 142.77L146.499 142.53C146.006 144.524 144.848 146.29 143.216 147.537L143.823 148.332L144.43 149.126C146.424 147.603 147.838 145.446 148.44 143.01L147.469 142.77ZM91.9268 200.761L92.6691 201.431L102.462 190.58L101.72 189.91L100.977 189.24L91.1844 200.091L91.9268 200.761ZM101.72 189.91L102.697 189.696L102.577 189.15L101.6 189.365L100.623 189.579L100.743 190.125L101.72 189.91ZM101.6 189.365L102.576 189.148C102.4 188.353 102.331 187.537 102.373 186.724L101.375 186.672L100.376 186.62C100.325 187.614 100.408 188.61 100.624 189.582L101.6 189.365ZM101.375 186.672L101.584 185.694L81.575 181.422L81.3662 182.4L81.1573 183.378L101.166 187.65L101.375 186.672ZM81.3662 182.4L80.367 182.44C80.5205 186.288 81.605 190.042 83.5274 193.38L84.394 192.881L85.2605 192.381C83.4995 189.324 82.506 185.885 82.3654 182.36L81.3662 182.4ZM84.394 192.881L83.5274 193.38C85.4499 196.717 88.1529 199.539 91.4049 201.603L91.9408 200.758L92.4766 199.914C89.4976 198.024 87.0215 195.439 85.2605 192.381L84.394 192.881ZM91.9408 200.758L91.7261 199.782L91.7121 199.785L91.9268 200.761L92.1414 201.738L92.1554 201.735L91.9408 200.758ZM104.935 194.897L104.192 194.227L96.6235 202.625L97.3663 203.294L98.1091 203.964L105.677 195.566L104.935 194.897ZM97.3663 203.294L97.0633 204.247C101.05 205.515 105.301 205.708 109.386 204.807L109.171 203.83L108.955 202.854C105.214 203.679 101.321 203.502 97.6693 202.341L97.3663 203.294ZM109.171 203.83L109.385 204.807L112.183 204.192L111.968 203.216L111.754 202.239L108.956 202.854L109.171 203.83ZM111.968 203.216L112.945 203.001L111.626 196.997L110.649 197.211L109.672 197.426L110.992 203.43L111.968 203.216ZM110.649 197.211L110.724 196.214C108.837 196.071 107.042 195.341 105.59 194.127L104.949 194.894L104.307 195.661C106.079 197.143 108.27 198.034 110.573 198.209L110.649 197.211ZM104.949 194.894L104.734 193.917L104.72 193.92L104.935 194.897L105.149 195.873L105.163 195.87L104.949 194.894ZM106.525 178.447L107.502 178.232L103.108 158.24L102.131 158.455L101.154 158.67L105.548 178.662L106.525 178.447ZM102.131 158.455L101.917 157.478L99.119 158.093L99.3336 159.07L99.5483 160.046L102.346 159.432L102.131 158.455ZM99.3336 159.07L99.1179 158.093C94.6393 159.083 90.5393 161.338 87.3056 164.591L88.0148 165.296L88.724 166.001C91.6875 163.02 95.445 160.953 99.5494 160.046L99.3336 159.07ZM88.0148 165.296L87.3056 164.591C84.0719 167.843 81.8406 171.956 80.8772 176.441L81.8549 176.651L82.8326 176.861C83.7155 172.751 85.7604 168.982 88.724 166.001L88.0148 165.296ZM81.8549 176.651L81.6463 177.629L103.135 182.214L103.344 181.236L103.552 180.258L82.0636 175.673L81.8549 176.651ZM103.344 181.236L104.147 181.832C104.912 180.8 105.888 179.945 107.011 179.321L106.525 178.447L106.039 177.573C104.668 178.335 103.475 179.38 102.541 180.64L103.344 181.236ZM138.324 150.501L138.11 149.524L107.512 156.249L107.726 157.225L107.941 158.202L138.539 151.477L138.324 150.501ZM107.726 157.225L106.75 157.44L111.053 177.023L112.03 176.808L113.007 176.593L108.703 157.011L107.726 157.225ZM112.03 176.808L112.245 177.785L120.637 175.94L120.423 174.964L120.208 173.987L111.815 175.831L112.03 176.808ZM120.423 174.964L120.639 175.94C126.324 174.683 131.357 171.398 134.795 166.699L133.988 166.109L133.181 165.518C130.03 169.825 125.417 172.835 120.207 173.987L120.423 174.964ZM133.988 166.109L134.795 166.699C138.234 162.001 139.842 156.21 139.32 150.411L138.324 150.501L137.328 150.59C137.807 155.905 136.332 161.212 133.181 165.518L133.988 166.109Z" fill="white" mask="url(#path-12-inside-2_438_253)"/>
<path d="M151.798 177.637C150.298 185.637 137.465 188.97 131.298 190.137L134.298 201.302C150.154 198.247 156.298 200.637 158.798 202.637C161.198 193.037 154.132 191.803 150.298 191.637C159.098 188.037 155.132 181.47 151.798 177.637Z" stroke="white" stroke-width="5.7" stroke-linejoin="round"/>
<path d="M151.798 177.637C150.298 185.637 137.465 188.97 131.298 190.137L134.298 201.302C150.154 198.247 156.298 200.637 158.798 202.637C161.198 193.037 154.132 191.803 150.298 191.637C159.098 188.037 155.132 181.47 151.798 177.637Z" stroke="black" stroke-width="4" stroke-linejoin="round"/>
<circle cx="119" cy="163" r="3" fill="black"/>
<circle opacity="0.05" cx="91.2978" cy="181.298" r="9.2138" fill="#FFCDCD" stroke="black" stroke-width="2.16795"/>
<circle opacity="0.05" cx="147.588" cy="191.588" r="6.50386" fill="#FFCDCD" stroke="black" stroke-width="2.16795"/>
<circle opacity="0.05" cx="114.298" cy="166.298" r="9.2138" fill="#FFCDCD" stroke="black" stroke-width="2.16795"/>
<circle opacity="0.05" cx="110.336" cy="199.336" r="3.25193" fill="#FFCDCD" stroke="black" stroke-width="2.16795"/>
<path d="M235.196 102.5L188.696 91.5C182.296 115.5 202.696 122.5 213.696 123C217.863 123.333 225.696 125.6 223.696 132C221.696 138.4 215.863 138.333 213.196 137.5C187.054 135.5 176.97 127 175.196 123C170.396 124.2 173.196 132.167 175.196 136C168.396 136 168.363 143 169.196 146.5L179.196 143.5L204.196 147.5C216.029 151.5 241.296 154.8 247.696 136C254.096 117.2 242.029 105.833 235.196 102.5Z" fill="url(#paint2_linear_438_253)"/>
<mask id="path-22-inside-3_438_253" fill="white">
<path d="M184.373 92.3317C183.303 99.5121 184.995 106.831 189.11 112.812C193.225 118.793 199.455 122.991 206.544 124.559L217.734 127.018C218.847 127.263 219.817 127.939 220.431 128.899C221.045 129.859 221.253 131.024 221.008 132.137C220.763 133.249 220.087 134.22 219.127 134.834C218.167 135.448 217.002 135.655 215.889 135.411L196.307 131.107C195.565 130.944 194.788 131.082 194.148 131.491C193.508 131.901 193.057 132.548 192.894 133.29C192.731 134.032 192.87 134.808 193.279 135.448C193.688 136.088 194.335 136.539 195.077 136.702L211.862 140.391L210.633 145.986L195.052 142.115C194.31 141.952 193.534 142.091 192.894 142.5C192.254 142.909 191.803 143.556 191.64 144.298C191.477 145.04 191.615 145.816 192.025 146.456C192.434 147.096 193.081 147.547 193.823 147.71L217.796 153.426C225.215 155.056 232.979 153.673 239.378 149.579C245.777 145.486 250.289 139.018 251.919 131.598C253.55 124.179 252.166 116.415 248.073 110.016C243.98 103.616 237.512 99.1052 230.092 97.4746L189.528 88.5596C188.415 88.315 187.445 87.6384 186.831 86.6784C186.216 85.7185 186.009 84.554 186.254 83.4411C186.498 82.3281 187.175 81.358 188.135 80.7439C189.095 80.1299 190.259 79.9224 191.372 80.167L220.746 86.6227C222.972 87.1119 225.301 86.6968 227.221 85.4688C229.141 84.2407 230.494 82.3004 230.983 80.0745C231.147 79.3325 231.008 78.5562 230.599 77.9163C230.19 77.2763 229.543 76.8252 228.801 76.6621C228.059 76.4991 227.282 76.6374 226.643 77.0468C226.003 77.4561 225.551 78.1029 225.388 78.8448C225.225 79.5868 224.774 80.2336 224.134 80.6429C223.494 81.0523 222.718 81.1906 221.976 81.0276L192.602 74.5719C190.373 74.0843 188.045 74.3713 186.002 75.3856C183.958 76.3999 182.322 78.0808 181.363 80.1507C180.404 82.2206 180.179 84.5557 180.727 86.7703C181.274 88.985 182.56 90.9468 184.373 92.3317ZM236.269 144.761L226.476 133.91L226.596 133.365C226.792 132.481 226.868 131.576 226.821 130.672L246.83 126.4C246.683 130.087 245.644 133.683 243.802 136.881C241.96 140.078 239.371 142.781 236.255 144.758L236.269 144.761ZM223.261 138.897L230.83 147.294C227.011 148.509 222.939 148.694 219.025 147.83L216.228 147.216L217.547 141.211C219.643 141.052 221.636 140.242 223.247 138.894L223.261 138.897ZM221.671 122.447L226.065 102.455L228.862 103.07C233.154 104.018 237.083 106.179 240.181 109.296C243.28 112.412 245.418 116.354 246.341 120.651L224.852 125.236C224.002 124.09 222.918 123.14 221.671 122.447ZM189.872 94.5006L220.47 101.225L216.166 120.808L207.773 118.964C202.325 117.759 197.503 114.612 194.208 110.109C190.913 105.606 189.371 100.058 189.872 94.5006Z"/>
</mask>
<path d="M184.373 92.3317C183.303 99.5121 184.995 106.831 189.11 112.812C193.225 118.793 199.455 122.991 206.544 124.559L217.734 127.018C218.847 127.263 219.817 127.939 220.431 128.899C221.045 129.859 221.253 131.024 221.008 132.137C220.763 133.249 220.087 134.22 219.127 134.834C218.167 135.448 217.002 135.655 215.889 135.411L196.307 131.107C195.565 130.944 194.788 131.082 194.148 131.491C193.508 131.901 193.057 132.548 192.894 133.29C192.731 134.032 192.87 134.808 193.279 135.448C193.688 136.088 194.335 136.539 195.077 136.702L211.862 140.391L210.633 145.986L195.052 142.115C194.31 141.952 193.534 142.091 192.894 142.5C192.254 142.909 191.803 143.556 191.64 144.298C191.477 145.04 191.615 145.816 192.025 146.456C192.434 147.096 193.081 147.547 193.823 147.71L217.796 153.426C225.215 155.056 232.979 153.673 239.378 149.579C245.777 145.486 250.289 139.018 251.919 131.598C253.55 124.179 252.166 116.415 248.073 110.016C243.98 103.616 237.512 99.1052 230.092 97.4746L189.528 88.5596C188.415 88.315 187.445 87.6384 186.831 86.6784C186.216 85.7185 186.009 84.554 186.254 83.4411C186.498 82.3281 187.175 81.358 188.135 80.7439C189.095 80.1299 190.259 79.9224 191.372 80.167L220.746 86.6227C222.972 87.1119 225.301 86.6968 227.221 85.4688C229.141 84.2407 230.494 82.3004 230.983 80.0745C231.147 79.3325 231.008 78.5562 230.599 77.9163C230.19 77.2763 229.543 76.8252 228.801 76.6621C228.059 76.4991 227.282 76.6374 226.643 77.0468C226.003 77.4561 225.551 78.1029 225.388 78.8448C225.225 79.5868 224.774 80.2336 224.134 80.6429C223.494 81.0523 222.718 81.1906 221.976 81.0276L192.602 74.5719C190.373 74.0843 188.045 74.3713 186.002 75.3856C183.958 76.3999 182.322 78.0808 181.363 80.1507C180.404 82.2206 180.179 84.5557 180.727 86.7703C181.274 88.985 182.56 90.9468 184.373 92.3317ZM236.269 144.761L226.476 133.91L226.596 133.365C226.792 132.481 226.868 131.576 226.821 130.672L246.83 126.4C246.683 130.087 245.644 133.683 243.802 136.881C241.96 140.078 239.371 142.781 236.255 144.758L236.269 144.761ZM223.261 138.897L230.83 147.294C227.011 148.509 222.939 148.694 219.025 147.83L216.228 147.216L217.547 141.211C219.643 141.052 221.636 140.242 223.247 138.894L223.261 138.897ZM221.671 122.447L226.065 102.455L228.862 103.07C233.154 104.018 237.083 106.179 240.181 109.296C243.28 112.412 245.418 116.354 246.341 120.651L224.852 125.236C224.002 124.09 222.918 123.14 221.671 122.447ZM189.872 94.5006L220.47 101.225L216.166 120.808L207.773 118.964C202.325 117.759 197.503 114.612 194.208 110.109C190.913 105.606 189.371 100.058 189.872 94.5006Z" fill="black"/>
<path d="M184.373 92.3317L184.98 91.537L185.449 91.8953L185.362 92.4791L184.373 92.3317ZM206.544 124.559L206.329 125.535L206.328 125.535L206.544 124.559ZM221.008 132.137L221.985 132.351L221.008 132.137ZM211.862 140.391L212.077 139.414L213.054 139.629L212.839 140.606L211.862 140.391ZM210.633 145.986L211.609 146.201L211.389 147.204L210.391 146.957L210.633 145.986ZM195.052 142.115L195.267 141.139L195.28 141.142L195.294 141.145L195.052 142.115ZM193.823 147.71L194.037 146.734L194.046 146.736L194.055 146.738L193.823 147.71ZM217.796 153.426L217.581 154.402L217.572 154.4L217.564 154.398L217.796 153.426ZM251.919 131.598L252.896 131.813L251.919 131.598ZM189.528 88.5596L189.313 89.5363L189.528 88.5596ZM228.801 76.6621L229.015 75.6854L228.801 76.6621ZM221.976 81.0276L221.761 82.0043L221.976 81.0276ZM192.602 74.5719L192.816 73.595L192.816 73.5952L192.602 74.5719ZM236.269 144.761L237.012 144.091C237.303 144.414 237.352 144.888 237.134 145.264C236.915 145.64 236.479 145.831 236.055 145.738L236.269 144.761ZM226.476 133.91L225.734 134.58L225.389 134.198L225.499 133.696L226.476 133.91ZM226.596 133.365L225.619 133.15L225.62 133.148L226.596 133.365ZM226.821 130.672L225.823 130.724L225.778 129.872L226.612 129.694L226.821 130.672ZM246.83 126.4L246.621 125.422L247.88 125.153L247.829 126.44L246.83 126.4ZM236.255 144.758L236.041 145.735C235.645 145.648 235.341 145.331 235.27 144.932C235.2 144.533 235.377 144.131 235.719 143.914L236.255 144.758ZM223.261 138.897L223.476 137.92L223.789 137.989L224.004 138.227L223.261 138.897ZM230.83 147.294L231.573 146.625L232.611 147.777L231.133 148.247L230.83 147.294ZM219.025 147.83L219.24 146.854L219.241 146.854L219.025 147.83ZM216.228 147.216L216.013 148.192L215.036 147.978L215.251 147.001L216.228 147.216ZM217.547 141.211L216.571 140.997L216.73 140.271L217.472 140.214L217.547 141.211ZM223.247 138.894L222.606 138.127L222.982 137.812L223.462 137.917L223.247 138.894ZM221.671 122.447L221.185 123.321L220.535 122.959L220.694 122.232L221.671 122.447ZM226.065 102.455L225.088 102.24L225.303 101.264L226.28 101.478L226.065 102.455ZM228.862 103.07L229.077 102.093L229.078 102.093L228.862 103.07ZM246.341 120.651L247.319 120.441L247.529 121.42L246.55 121.629L246.341 120.651ZM224.852 125.236L225.061 126.214L224.432 126.348L224.049 125.832L224.852 125.236ZM189.872 94.5006L188.876 94.4109L188.977 93.2802L190.086 93.5239L189.872 94.5006ZM220.47 101.225L220.684 100.249L221.661 100.463L221.446 101.44L220.47 101.225ZM216.166 120.808L217.143 121.023L216.928 121.999L215.951 121.785L216.166 120.808ZM207.773 118.964L207.559 119.94L207.558 119.94L207.773 118.964ZM184.373 92.3317L185.362 92.4791C184.329 99.4092 185.963 106.473 189.934 112.246L189.11 112.812L188.286 113.379C184.028 107.189 182.276 99.6151 183.384 92.1842L184.373 92.3317ZM189.11 112.812L189.934 112.246C193.905 118.018 199.918 122.07 206.76 123.582L206.544 124.559L206.328 125.535C198.992 123.913 192.545 119.569 188.286 113.379L189.11 112.812ZM206.544 124.559L206.758 123.582L217.949 126.041L217.734 127.018L217.519 127.995L206.329 125.535L206.544 124.559ZM217.734 127.018L217.949 126.041C219.321 126.343 220.517 127.177 221.273 128.36L220.431 128.899L219.589 129.438C219.118 128.702 218.373 128.182 217.519 127.995L217.734 127.018ZM220.431 128.899L221.273 128.36C222.03 129.544 222.286 130.979 221.985 132.351L221.008 132.137L220.031 131.922C220.219 131.068 220.06 130.175 219.589 129.438L220.431 128.899ZM221.008 132.137L221.985 132.351C221.683 133.723 220.849 134.919 219.666 135.676L219.127 134.834L218.588 133.991C219.324 133.52 219.844 132.776 220.031 131.922L221.008 132.137ZM219.127 134.834L219.666 135.676C218.482 136.433 217.047 136.689 215.675 136.387L215.889 135.411L216.104 134.434C216.958 134.622 217.851 134.462 218.588 133.991L219.127 134.834ZM215.889 135.411L215.675 136.387L196.092 132.084L196.307 131.107L196.521 130.13L216.104 134.434L215.889 135.411ZM196.307 131.107L196.092 132.084C195.609 131.977 195.104 132.067 194.687 132.334L194.148 131.491L193.609 130.649C194.473 130.097 195.52 129.91 196.521 130.13L196.307 131.107ZM194.148 131.491L194.687 132.334C194.271 132.6 193.977 133.021 193.871 133.504L192.894 133.29L191.918 133.075C192.138 132.074 192.746 131.201 193.609 130.649L194.148 131.491ZM192.894 133.29L193.871 133.504C193.765 133.987 193.855 134.492 194.121 134.909L193.279 135.448L192.436 135.987C191.884 135.123 191.698 134.076 191.918 133.075L192.894 133.29ZM193.279 135.448L194.121 134.909C194.388 135.326 194.809 135.619 195.292 135.725L195.077 136.702L194.862 137.679C193.861 137.459 192.989 136.85 192.436 135.987L193.279 135.448ZM195.077 136.702L195.292 135.725L212.077 139.414L211.862 140.391L211.648 141.368L194.862 137.679L195.077 136.702ZM211.862 140.391L212.839 140.606L211.609 146.201L210.633 145.986L209.656 145.771L210.886 140.176L211.862 140.391ZM210.633 145.986L210.391 146.957L194.811 143.086L195.052 142.115L195.294 141.145L210.874 145.016L210.633 145.986ZM195.052 142.115L194.838 143.092C194.355 142.986 193.85 143.076 193.433 143.342L192.894 142.5L192.355 141.658C193.219 141.105 194.266 140.919 195.267 141.139L195.052 142.115ZM192.894 142.5L193.433 143.342C193.017 143.609 192.723 144.03 192.617 144.513L191.64 144.298L190.663 144.083C190.883 143.082 191.492 142.21 192.355 141.658L192.894 142.5ZM191.64 144.298L192.617 144.513C192.511 144.996 192.601 145.501 192.867 145.917L192.025 146.456L191.182 146.995C190.63 146.132 190.443 145.084 190.663 144.083L191.64 144.298ZM192.025 146.456L192.867 145.917C193.134 146.334 193.555 146.628 194.037 146.734L193.823 147.71L193.608 148.687C192.607 148.467 191.735 147.859 191.182 146.995L192.025 146.456ZM193.823 147.71L194.055 146.738L218.027 152.453L217.796 153.426L217.564 154.398L193.591 148.683L193.823 147.71ZM217.796 153.426L218.01 152.449C225.171 154.023 232.663 152.687 238.839 148.737L239.378 149.579L239.917 150.422C233.294 154.658 225.26 156.09 217.581 154.402L217.796 153.426ZM239.378 149.579L238.839 148.737C245.015 144.786 249.369 138.544 250.943 131.384L251.919 131.598L252.896 131.813C251.208 139.492 246.54 146.185 239.917 150.422L239.378 149.579ZM251.919 131.598L250.943 131.384C252.516 124.223 251.181 116.731 247.231 110.555L248.073 110.016L248.915 109.477C253.152 116.1 254.584 124.134 252.896 131.813L251.919 131.598ZM248.073 110.016L247.231 110.555C243.28 104.379 237.038 100.025 229.877 98.4513L230.092 97.4746L230.307 96.4979C237.985 98.1855 244.679 102.854 248.915 109.477L248.073 110.016ZM230.092 97.4746L229.877 98.4513L189.313 89.5363L189.528 88.5596L189.742 87.5829L230.307 96.4979L230.092 97.4746ZM189.528 88.5596L189.313 89.5363C187.941 89.2348 186.745 88.4006 185.988 87.2173L186.831 86.6784L187.673 86.1396C188.144 86.8761 188.888 87.3953 189.742 87.5829L189.528 88.5596ZM186.831 86.6784L185.988 87.2173C185.231 86.034 184.975 84.5984 185.277 83.2264L186.254 83.4411L187.23 83.6557C187.043 84.5096 187.202 85.4031 187.673 86.1396L186.831 86.6784ZM186.254 83.4411L185.277 83.2264C185.578 81.8545 186.413 80.6585 187.596 79.9015L188.135 80.7439L188.674 81.5864C187.937 82.0575 187.418 82.8018 187.23 83.6557L186.254 83.4411ZM188.135 80.7439L187.596 79.9015C188.779 79.1446 190.215 78.8888 191.587 79.1903L191.372 80.167L191.157 81.1437C190.304 80.956 189.41 81.1153 188.674 81.5864L188.135 80.7439ZM191.372 80.167L191.587 79.1903L220.961 85.646L220.746 86.6227L220.532 87.5994L191.157 81.1437L191.372 80.167ZM220.746 86.6227L220.961 85.646C222.928 86.0782 224.986 85.7115 226.682 84.6264L227.221 85.4688L227.76 86.3112C225.617 87.6821 223.017 88.1455 220.532 87.5994L220.746 86.6227ZM227.221 85.4688L226.682 84.6264C228.379 83.5412 229.575 81.8267 230.007 79.8599L230.983 80.0745L231.96 80.2892C231.414 82.7741 229.903 84.9402 227.76 86.3112L227.221 85.4688ZM230.983 80.0745L230.007 79.8599C230.113 79.3769 230.023 78.8716 229.756 78.4551L230.599 77.9163L231.441 77.3774C231.994 78.2408 232.18 79.2882 231.96 80.2892L230.983 80.0745ZM230.599 77.9163L229.756 78.4551C229.49 78.0386 229.069 77.745 228.586 77.6388L228.801 76.6621L229.015 75.6854C230.016 75.9054 230.889 76.514 231.441 77.3774L230.599 77.9163ZM228.801 76.6621L228.586 77.6388C228.103 77.5327 227.598 77.6227 227.181 77.8892L226.643 77.0468L226.104 76.2044C226.967 75.6521 228.014 75.4654 229.015 75.6854L228.801 76.6621ZM226.643 77.0468L227.181 77.8892C226.765 78.1556 226.471 78.5766 226.365 79.0595L225.388 78.8448L224.412 78.6302C224.632 77.6292 225.24 76.7566 226.104 76.2044L226.643 77.0468ZM225.388 78.8448L226.365 79.0595C226.145 80.0605 225.536 80.9331 224.673 81.4853L224.134 80.6429L223.595 79.8005C224.012 79.5341 224.306 79.1131 224.412 78.6302L225.388 78.8448ZM224.134 80.6429L224.673 81.4853C223.81 82.0376 222.762 82.2243 221.761 82.0043L221.976 81.0276L222.191 80.0509C222.674 80.157 223.179 80.067 223.595 79.8005L224.134 80.6429ZM221.976 81.0276L221.761 82.0043L192.387 75.5486L192.602 74.5719L192.816 73.5952L222.191 80.0509L221.976 81.0276ZM192.602 74.5719L192.388 75.5488C190.382 75.1098 188.286 75.3682 186.446 76.2814L186.002 75.3856L185.557 74.4899C187.804 73.3744 190.365 73.0588 192.816 73.595L192.602 74.5719ZM186.002 75.3856L186.446 76.2814C184.607 77.1945 183.134 78.7077 182.27 80.5711L181.363 80.1507L180.456 79.7303C181.51 77.454 183.31 75.6054 185.557 74.4899L186.002 75.3856ZM181.363 80.1507L182.27 80.5711C181.407 82.4345 181.205 84.5367 181.697 86.5304L180.727 86.7703L179.756 87.0102C179.154 84.5747 179.401 82.0067 180.456 79.7303L181.363 80.1507ZM180.727 86.7703L181.697 86.5304C182.19 88.5242 183.348 90.2903 184.98 91.537L184.373 92.3317L183.766 93.1263C181.772 91.6033 180.358 89.4458 179.756 87.0102L180.727 86.7703ZM236.269 144.761L235.527 145.431L225.734 134.58L226.476 133.91L227.219 133.24L237.012 144.091L236.269 144.761ZM226.476 133.91L225.499 133.696L225.619 133.15L226.596 133.365L227.573 133.579L227.453 134.125L226.476 133.91ZM226.596 133.365L225.62 133.148C225.797 132.353 225.865 131.537 225.823 130.724L226.821 130.672L227.82 130.62C227.871 131.614 227.788 132.61 227.572 133.582L226.596 133.365ZM226.821 130.672L226.612 129.694L246.621 125.422L246.83 126.4L247.039 127.378L227.03 131.65L226.821 130.672ZM246.83 126.4L247.829 126.44C247.676 130.288 246.591 134.042 244.669 137.38L243.802 136.881L242.936 136.381C244.697 133.324 245.69 129.885 245.831 126.36L246.83 126.4ZM243.802 136.881L244.669 137.38C242.746 140.717 240.043 143.539 236.791 145.603L236.255 144.758L235.719 143.914C238.698 142.024 241.175 139.439 242.936 136.381L243.802 136.881ZM236.255 144.758L236.47 143.782L236.484 143.785L236.269 144.761L236.055 145.738L236.041 145.735L236.255 144.758ZM223.261 138.897L224.004 138.227L231.573 146.625L230.83 147.294L230.087 147.964L222.519 139.566L223.261 138.897ZM230.83 147.294L231.133 148.247C227.146 149.515 222.895 149.708 218.81 148.807L219.025 147.83L219.241 146.854C222.982 147.679 226.875 147.502 230.527 146.341L230.83 147.294ZM219.025 147.83L218.811 148.807L216.013 148.192L216.228 147.216L216.442 146.239L219.24 146.854L219.025 147.83ZM216.228 147.216L215.251 147.001L216.571 140.997L217.547 141.211L218.524 141.426L217.204 147.43L216.228 147.216ZM217.547 141.211L217.472 140.214C219.359 140.071 221.154 139.341 222.606 138.127L223.247 138.894L223.889 139.661C222.117 141.143 219.926 142.034 217.623 142.209L217.547 141.211ZM223.247 138.894L223.462 137.917L223.476 137.92L223.261 138.897L223.047 139.873L223.033 139.87L223.247 138.894ZM221.671 122.447L220.694 122.232L225.088 102.24L226.065 102.455L227.042 102.67L222.648 122.662L221.671 122.447ZM226.065 102.455L226.28 101.478L229.077 102.093L228.862 103.07L228.648 104.046L225.85 103.432L226.065 102.455ZM228.862 103.07L229.078 102.093C233.557 103.083 237.657 105.338 240.89 108.591L240.181 109.296L239.472 110.001C236.509 107.02 232.751 104.953 228.647 104.046L228.862 103.07ZM240.181 109.296L240.89 108.591C244.124 111.843 246.355 115.956 247.319 120.441L246.341 120.651L245.363 120.861C244.481 116.751 242.436 112.982 239.472 110.001L240.181 109.296ZM246.341 120.651L246.55 121.629L225.061 126.214L224.852 125.236L224.644 124.258L246.132 119.673L246.341 120.651ZM224.852 125.236L224.049 125.832C223.284 124.8 222.308 123.945 221.185 123.321L221.671 122.447L222.157 121.573C223.528 122.335 224.721 123.38 225.655 124.64L224.852 125.236ZM189.872 94.5006L190.086 93.5239L220.684 100.249L220.47 101.225L220.255 102.202L189.657 95.4773L189.872 94.5006ZM220.47 101.225L221.446 101.44L217.143 121.023L216.166 120.808L215.189 120.593L219.493 101.011L220.47 101.225ZM216.166 120.808L215.951 121.785L207.559 119.94L207.773 118.964L207.988 117.987L216.381 119.831L216.166 120.808ZM207.773 118.964L207.558 119.94C201.872 118.683 196.839 115.398 193.401 110.699L194.208 110.109L195.015 109.518C198.166 113.825 202.779 116.835 207.989 117.987L207.773 118.964ZM194.208 110.109L193.401 110.699C189.962 106.001 188.354 100.21 188.876 94.4109L189.872 94.5006L190.868 94.5902C190.389 99.905 191.864 105.212 195.015 109.518L194.208 110.109Z" fill="white" mask="url(#path-22-inside-3_438_253)"/>
<path d="M176.398 121.637C177.898 129.637 190.731 132.97 196.898 134.137L193.898 145.302C178.042 142.247 171.898 144.637 169.398 146.637C166.998 137.037 174.064 135.803 177.898 135.637C169.098 132.037 173.065 125.47 176.398 121.637Z" stroke="white" stroke-width="5.7" stroke-linejoin="round"/>
<path d="M176.398 121.637C177.898 129.637 190.731 132.97 196.898 134.137L193.898 145.302C178.042 142.247 171.898 144.637 169.398 146.637C166.998 137.037 174.064 135.803 177.898 135.637C169.098 132.037 173.065 125.47 176.398 121.637Z" stroke="black" stroke-width="4" stroke-linejoin="round"/>
<circle cx="3" cy="3" r="3" transform="matrix(-1 0 0 1 212.196 104)" fill="black"/>
<circle opacity="0.05" cx="230.298" cy="139.298" r="9.2138" fill="#FFCDCD" stroke="black" stroke-width="2.16795"/>
<circle opacity="0.05" cx="207.04" cy="145.253" r="3.25193" fill="#FFCDCD" stroke="black" stroke-width="2.16795"/>
<circle opacity="0.05" cx="201.588" cy="111.588" r="6.50386" fill="#FFCDCD" stroke="black" stroke-width="2.16795"/>
<circle opacity="0.05" cx="233.298" cy="111.298" r="9.2138" fill="#FFCDCD" stroke="black" stroke-width="2.16795"/>
<defs>
<linearGradient id="paint0_linear_438_253" x1="99.0285" y1="51.5" x2="99.0285" y2="110.594" gradientUnits="userSpaceOnUse">
<stop stop-color="#D7CDC4"/>
<stop offset="1" stop-color="#D4CDC7"/>
</linearGradient>
<linearGradient id="paint1_linear_438_253" x1="119.028" y1="147.5" x2="119.028" y2="206.594" gradientUnits="userSpaceOnUse">
<stop stop-color="#D7CDC4"/>
<stop offset="1" stop-color="#D4CDC7"/>
</linearGradient>
<linearGradient id="paint2_linear_438_253" x1="209.168" y1="91.5" x2="209.168" y2="150.594" gradientUnits="userSpaceOnUse">
<stop stop-color="#D7CDC4"/>
<stop offset="1" stop-color="#D4CDC7"/>
</linearGradient>
</defs>
</svg>
