<svg width="114" height="114" viewBox="0 0 114 114" fill="none" xmlns="http://www.w3.org/2000/svg">
<path d="M56.0498 15C64.177 15 71.7697 17.3133 78.2012 21.2949C78.139 21.4303 78.0794 21.5657 78.0205 21.7002L77.8467 22.1055L77.8428 22.1152C77.2881 23.4767 76.6044 25.423 76.5771 27.4941C70.7496 23.4451 63.6828 21.0723 56.0498 21.0723C36.1756 21.0724 20.0724 37.1756 20.0723 57.0498C20.0723 76.9241 36.1756 93.0282 56.0498 93.0283C75.9241 93.0283 92.0283 76.9241 92.0283 57.0498C92.0283 51.5653 90.7999 46.3556 88.5967 41.6992C89.3907 41.834 90.2044 41.9062 91.0283 41.9062C92.4277 41.9062 93.7791 41.7023 95.0645 41.3311C97.0262 46.18 98.0996 51.4879 98.0996 57.0498C98.0996 80.2759 79.2759 99.0996 56.0498 99.0996C32.8238 99.0995 14 80.2759 14 57.0498C14.0001 33.8238 32.8238 15.0001 56.0498 15ZM90.7607 15.1436C90.8995 14.9527 91.1571 14.9527 91.2959 15.1436L91.2998 15.1494L91.3047 15.1553C92.3886 16.5977 94.1135 18.991 95.5625 21.4287C96.2874 22.6482 96.9321 23.8601 97.3926 24.957C97.8623 26.0758 98.0996 26.9825 98.0996 27.6211C98.0996 30.6936 96.0566 33.2931 93.1982 34.1924L92.9189 34.2734C92.3113 34.4362 91.6763 34.5254 91.0283 34.5254C87.1036 34.5254 83.9561 31.4206 83.9561 27.6211C83.9561 26.9838 84.1948 26.0736 84.665 24.9707L84.666 24.9717L84.8174 24.6182L84.8164 24.6172C86.2622 21.3237 89.1529 17.2755 90.75 15.1572L90.7559 15.1504L90.7607 15.1436Z" fill="black" stroke="white" stroke-width="2"/>
<circle cx="44.6" cy="49.0996" r="4.5" fill="black"/>
<circle cx="68.6" cy="49.0996" r="4.5" fill="black"/>
<path d="M56.1 77.5996C45.7812 77.5996 40.1 70.5996 40.1 65.5996H72.1C72.1 70.0996 66.6 77.5996 56.1 77.5996Z" fill="black"/>
</svg>
