<svg width="314" height="245" viewBox="0 0 314 245" fill="none" xmlns="http://www.w3.org/2000/svg">
<g clip-path="url(#clip0_428_49)">
<path d="M39.3079 276.77C25.56 271.212 16.0513 264.769 13.3079 257.485C1.70791 226.685 14.7884 91.5494 37.5661 71.0496C45.6738 63.7527 61.1587 60.632 89.066 60.1573M39.3079 276.77C43.3079 211.592 55.066 112.549 89.066 60.1573M39.3079 276.77C44.8425 279.007 51.064 281.101 57.8078 283.049M89.066 60.1573C96.6791 60.0278 102.233 59.88 110.566 60.1572M89.066 60.1573C84.9692 75.4249 82.273 97.0908 85.1885 118.527M57.8078 283.049C91.7499 292.851 151.421 300.15 190.808 302.173M57.8078 283.049C61.9533 235.296 69.3693 175.704 85.1885 118.527M110.566 60.1572C145.81 61.3298 201.049 67.1511 234.066 73.5752M110.566 60.1572C99.3994 95.2878 93.666 167.349 160.066 174.549C226.466 181.749 237.066 110.233 234.066 73.5752M190.808 302.173C200.943 302.693 205.562 302.198 214.308 302.173M190.808 302.173C204.025 270.238 216.955 232.507 225.914 168.049M234.066 73.5752C243.6 75.4302 246.531 76.2319 254.566 78.3488M234.066 73.5752C233.744 85.9553 232.688 101.495 231.735 114.049M214.308 302.173C236.709 302.108 245.881 299.775 250.808 295.985C270.308 280.985 301.566 125.05 294.566 98.0496C292.787 91.1871 277.248 84.3246 254.566 78.3488M214.308 302.173C233.308 252.485 257.566 148.549 254.566 78.3488M254.566 78.3488C254.566 121.082 234.866 203.649 156.066 192.049C108.011 184.975 89.7454 152.032 85.1885 118.527" stroke="url(#paint0_linear_428_49)" stroke-width="2.66812"/>
<path d="M8.20007 151.45C5.46411 151.869 1.84132 152.146 0.591797 152.146V304.5H313.812V156.339C312.529 154.637 311.283 153.391 310.233 152.484C308.353 151.022 307.095 150.326 305.545 150.119C302.612 150.049 300.066 150.093 293.289 152.538C287.169 154.746 275.961 158.897 270.001 161.186C264.04 163.476 263.349 163.891 262.931 164.383C262.514 164.876 262.376 165.43 262.093 165.635C261.81 165.84 261.388 165.721 260.973 165.562C259.151 164.859 255.18 162.872 250.403 163.61C244.048 164.591 240.392 166.053 235.737 165.492C233.997 165.283 229.465 162.778 218.37 158.461L217.899 158.277C210.869 155.542 201.328 151.829 196.071 150.592C188.985 148.926 185.07 146.426 182.14 147.747C180.746 148.376 177.572 151.015 173.117 153.486C169.982 155.224 168.452 157.426 155.546 158.09C148.816 158.436 138.435 158.559 133.035 158.364C127.217 158.155 126.301 157.995 125.538 157.452C123.574 156.054 120.855 154.935 118.477 152.907C115.598 150.452 112.283 147.316 106.33 144.85C96.5495 140.8 89.5609 137.657 88.3584 138.03C86.5407 138.594 83.9496 137.765 76.534 140.129C72.5611 141.395 71.1298 144.238 68.496 144.46C61.785 145.026 58.2712 147.48 49.8118 147.745C43.1847 147.953 39.1964 147.118 37.9727 146.481C36.2243 145.571 33.7849 144.288 31.4714 143.336C29.0961 142.359 26.2539 141.281 24.0665 141.735C22.3872 142.083 18.5216 142.144 15.0473 144.955C12.8858 146.703 11.683 150.916 8.20007 151.45Z" fill="white"/>
<path d="M8.20007 151.45C5.46411 151.869 1.84132 152.146 0.591797 152.146V304.5H313.812V156.339C312.529 154.637 311.283 153.391 310.233 152.484C308.353 151.022 307.095 150.326 305.545 150.119C302.612 150.049 300.066 150.093 293.289 152.538C287.169 154.746 275.961 158.897 270.001 161.186C264.04 163.476 263.349 163.891 262.931 164.383C262.514 164.876 262.376 165.43 262.093 165.635C261.81 165.84 261.388 165.721 260.973 165.562C259.151 164.859 255.18 162.872 250.403 163.61C244.048 164.591 240.392 166.053 235.737 165.492C233.997 165.283 229.465 162.778 218.37 158.461L217.899 158.277C210.869 155.542 201.328 151.829 196.071 150.592C188.985 148.926 185.07 146.426 182.14 147.747C180.746 148.376 177.572 151.015 173.117 153.486C169.982 155.224 168.452 157.426 155.546 158.09C148.816 158.436 138.435 158.559 133.035 158.364C127.217 158.155 126.301 157.995 125.538 157.452C123.574 156.054 120.855 154.935 118.477 152.907C115.598 150.452 112.283 147.316 106.33 144.85C96.5495 140.8 89.5609 137.657 88.3584 138.03C86.5407 138.594 83.9496 137.765 76.534 140.129C72.5611 141.395 71.1298 144.238 68.496 144.46C61.785 145.026 58.2712 147.48 49.8118 147.745C43.1847 147.953 39.1964 147.118 37.9727 146.481C36.2243 145.571 33.7849 144.288 31.4714 143.336C29.0961 142.359 26.2539 141.281 24.0665 141.735C22.3872 142.083 18.5216 142.144 15.0473 144.955C12.8858 146.703 11.683 150.916 8.20007 151.45Z" fill="url(#paint1_radial_428_49)"/>
<path d="M0.591797 152.636C1.84132 152.636 5.46411 152.359 8.20007 151.94C11.683 151.406 12.8858 147.194 15.0473 145.445C18.5216 142.635 22.3872 142.573 24.0665 142.225C26.2539 141.772 29.0961 142.85 31.4714 143.827C33.7849 144.778 36.2243 146.062 37.9727 146.971C39.1964 147.608 43.1847 148.443 49.8118 148.236C58.2712 147.971 61.785 145.516 68.496 144.95C71.1298 144.728 72.5611 141.885 76.534 140.619C83.9496 138.255 86.5407 139.084 88.3584 138.52C89.5609 138.147 96.5495 141.29 106.33 145.34C112.283 147.806 115.598 150.942 118.477 153.397C120.855 155.425 123.574 156.544 125.538 157.942C126.301 158.486 127.217 158.645 133.035 158.854C138.435 159.049 148.816 158.926 155.546 158.58C168.452 157.916 169.982 155.714 173.117 153.976C177.572 151.505 180.746 148.867 182.14 148.238C185.07 146.916 188.985 149.416 196.071 151.083C201.446 152.347 211.3 156.2 218.37 158.951C229.465 163.268 233.997 165.773 235.737 165.983C240.392 166.543 244.048 165.081 250.403 164.1C255.18 163.362 259.151 165.349 260.973 166.052C261.388 166.212 261.81 166.331 262.093 166.125C262.376 165.92 262.514 165.366 262.931 164.874C263.349 164.381 264.041 163.966 270.001 161.676C275.961 159.387 287.169 155.236 293.289 153.028C300.066 150.584 302.612 150.54 305.545 150.609C307.095 150.816 308.353 151.512 310.233 152.974C311.283 153.882 312.529 155.127 313.812 156.829" stroke="black" stroke-width="4" stroke-linecap="round"/>
<path d="M27.8261 184.509C28.8549 181.741 30.5307 179.59 31.2478 179.233C31.7379 178.743 33.2948 177.547 33.7777 177.064C34.7363 176.105 36.1922 175.63 37.8643 175.691C40.1491 175.99 42.1536 175.62 45.3727 176.412C48.0845 177.078 51.914 177.941 51.9099 180.262C51.9081 181.28 51.7171 182.347 51.0035 182.72C49.6197 183.442 46.2507 186.435 42.4086 186.743C37.194 187.162 29.5114 187.573 28.181 185.954C27.8819 185.59 27.614 185.08 27.8261 184.509Z" fill="#AF9E8B" stroke="black" stroke-width="2" stroke-linecap="round"/>
<path d="M204.226 178.082C206.551 176.262 209.105 175.306 209.903 175.377C210.577 175.216 212.529 175.011 213.194 174.853C214.512 174.538 216.002 174.894 217.394 175.822C219.185 177.272 221.086 178.006 223.415 180.365C225.377 182.353 228.188 185.093 226.97 187.068C226.436 187.934 225.715 188.744 224.912 188.688C223.354 188.579 218.917 189.366 215.482 187.618C210.82 185.245 204.058 181.575 203.772 179.499C203.707 179.032 203.746 178.457 204.226 178.082Z" fill="#AF9E8B" stroke="black" stroke-width="2" stroke-linecap="round"/>
<path d="M28.4311 145.558C30.7564 143.739 33.3103 142.782 34.1081 142.854C34.7822 142.693 36.735 142.488 37.3992 142.329C38.7177 142.014 40.2073 142.371 41.6 143.298C43.3903 144.749 45.2919 145.483 47.6207 147.842C49.5825 149.829 52.3939 152.569 51.1757 154.544C50.6414 155.411 49.9201 156.22 49.1171 156.164C47.5598 156.056 43.1225 156.843 39.6875 155.094C35.0254 152.721 28.2636 149.051 27.9773 146.976C27.9129 146.509 27.9518 145.934 28.4311 145.558Z" fill="#AF9E8B" stroke="black" stroke-width="2" stroke-linecap="round"/>
<path d="M281.971 193.231C271.574 193.404 266.569 192.687 265.852 192.568C265.484 192.445 263.686 191.966 263.507 191.6C263.329 190.64 263.57 189.321 264.475 187.877C265.134 187.158 274.951 188.823 281.115 186.139C282.919 185.353 284.639 183.6 287.011 183.072C292.916 181.756 298.344 181.206 298.768 183.025C299.006 184.045 298.37 186.94 296.357 188.249C293.572 190.059 288.384 193.124 281.971 193.231Z" fill="#AF9E8B" stroke="black" stroke-width="2" stroke-linecap="round"/>
<path d="M132.128 198.551C140.463 194.124 144 194 145.5 193.5C146.681 193.106 147.653 192.445 148.015 192.203L148.015 192.203C148.734 191.724 149.815 191.003 151.62 189.74C153.422 188.718 154.826 187.786 157.206 187.52C160.421 187.162 165.958 186.789 168.439 188.308C169.516 188.967 170.514 189.634 170.594 190.717C170.713 192.337 170.757 193.847 170.167 195.043C168.421 198.586 165.688 202.573 160.711 205.258C156.15 207.717 151.439 210.337 147.258 211.072C143.184 211.79 140.041 212.211 137.229 211.844C133.09 211.303 129.451 210.716 127.636 209.436C126.019 208.298 124.927 207.21 125.066 206.316C125.187 205.537 124.62 202.539 132.128 198.551Z" fill="#AF9E8B" stroke="black" stroke-width="2" stroke-linecap="round"/>
<path d="M83.9668 167.353C82.9832 169.323 82.6273 170.979 82.5 172C82.4377 172.5 82.774 173.423 82.903 173.466C83.1592 173.552 83.6304 173.938 84.187 174.387C84.7449 174.837 85.2978 175.26 85.878 175.521C86.5424 175.82 88.5787 176.577 90.5253 177.191C91.3368 177.447 93.0004 177.785 95.0462 177.509C96.474 177.316 97.4941 177.136 98.1644 176.629C99.4696 175.643 100.387 174.873 100.493 174.19C100.748 172.546 100.9 169.256 100.212 168.091C99.7187 167.256 99.2984 166.006 96.7161 164.901C95.5213 164.39 94.2718 164.122 92.382 164.157C91.1699 164.18 89.4539 164.129 88.4748 164.351C86.5758 164.781 84.9057 165.471 83.9668 167.353Z" fill="#AF9E8B" stroke="black" stroke-width="2" stroke-linecap="round"/>
<path d="M302.968 152.343C303.279 150.283 302.992 148.889 302.709 148.096C302.57 147.707 301.788 147.312 301.619 147.375C301.285 147.499 300.574 147.57 299.736 147.659C298.897 147.748 298.074 147.853 297.289 148.088C296.389 148.357 293.7 149.293 291.175 150.262C290.122 150.666 288.044 151.623 285.78 153.277C284.2 154.43 283.09 155.284 282.524 156.112C281.423 157.724 280.681 158.91 280.847 159.456C281.245 160.77 282.461 163.143 283.754 163.453C284.681 163.675 285.699 164.235 289.171 163.148C290.777 162.645 292.345 161.936 294.529 160.561C295.929 159.678 297.947 158.486 298.993 157.634C301.02 155.979 302.672 154.31 302.968 152.343Z" fill="#AF9E8B" stroke="black" stroke-width="2" stroke-linecap="round"/>
<ellipse cx="51.3527" cy="34.2979" rx="6.71001" ry="2.684" transform="rotate(-29.2784 51.3527 34.2979)" fill="black"/>
<path d="M48.4872 28.2717C49.4991 27.7045 50.5324 27.4498 51.371 27.4744C52.221 27.4994 52.7774 27.8006 53.0203 28.2335C53.2631 28.6666 53.2302 29.2991 52.8081 30.0375C52.3916 30.7657 51.6353 31.5145 50.6235 32.0819C49.6115 32.6493 48.5776 32.9043 47.7389 32.8797C46.8887 32.8546 46.332 32.5528 46.0891 32.1197C45.8465 31.6866 45.8798 31.0548 46.3019 30.3166C46.7183 29.5882 47.4752 28.8391 48.4872 28.2717Z" fill="white" stroke="black"/>
<path d="M52.863 36.0745C53.8748 35.5072 54.9082 35.2525 55.7467 35.2771C56.5967 35.3022 57.1531 35.6033 57.396 36.0363C57.6389 36.4694 57.606 37.1018 57.1838 37.8402C56.7673 38.5685 56.011 39.3173 54.9992 39.8846C53.9872 40.452 52.9533 40.7071 52.1147 40.6824C51.2644 40.6574 50.7077 40.3555 50.4649 39.9224C50.2222 39.4893 50.2555 38.8575 50.6776 38.1193C51.094 37.3909 51.851 36.6419 52.863 36.0745Z" fill="white" stroke="black"/>
<ellipse cx="272.445" cy="63.2495" rx="6.65477" ry="2.66191" transform="rotate(-137.319 272.445 63.2495)" fill="black"/>
<path d="M267.645 67.7977C266.8 67.0181 266.242 66.1224 266.008 65.3249C265.771 64.5161 265.885 63.9001 266.217 63.5396C266.55 63.1792 267.154 63.0166 267.979 63.1877C268.793 63.3565 269.731 63.8391 270.577 64.6188C271.422 65.3984 271.979 66.2947 272.213 67.0923C272.451 67.9009 272.337 68.5163 272.005 68.8769C271.673 69.2374 271.068 69.4007 270.242 69.2295C269.429 69.0607 268.491 68.5773 267.645 67.7977Z" fill="white" stroke="black"/>
<path d="M273.661 61.2762C272.816 60.4966 272.258 59.601 272.024 58.8034C271.787 57.9946 271.9 57.3786 272.233 57.0181C272.565 56.6577 273.17 56.4951 273.995 56.6662C274.809 56.835 275.747 57.3177 276.592 58.0973C277.438 58.877 277.995 59.7732 278.229 60.5708C278.466 61.3794 278.353 61.9949 278.021 62.3554C277.688 62.7159 277.083 62.8792 276.258 62.708C275.444 62.5392 274.506 62.0558 273.661 61.2762Z" fill="white" stroke="black"/>
</g>
<defs>
<linearGradient id="paint0_linear_428_49" x1="152.284" y1="60" x2="152.284" y2="302.41" gradientUnits="userSpaceOnUse">
<stop/>
<stop offset="1"/>
</linearGradient>
<radialGradient id="paint1_radial_428_49" cx="0" cy="0" r="1" gradientUnits="userSpaceOnUse" gradientTransform="translate(157 138) rotate(89.9305) scale(166.5 313.22)">
<stop stop-color="#855B2E"/>
<stop offset="0.481091" stop-color="white"/>
</radialGradient>
<clipPath id="clip0_428_49">
<rect width="313.22" height="244.5" fill="white" transform="translate(0.591797)"/>
</clipPath>
</defs>
</svg>
