<svg width="318" height="247" viewBox="0 0 318 247" fill="none" xmlns="http://www.w3.org/2000/svg">
<path d="M41.3079 218.77C27.56 213.212 18.0513 206.769 15.3079 199.485C3.70791 168.685 16.7884 33.5494 39.5661 13.0496C47.6738 5.75266 63.1587 2.632 91.066 2.15731M41.3079 218.77C45.3079 153.592 57.066 54.5488 91.066 2.15731M41.3079 218.77C46.8425 221.007 53.064 223.101 59.8078 225.049M91.066 2.15731C98.6791 2.02782 104.233 1.88 112.566 2.15724M91.066 2.15731C86.9692 17.4249 84.273 39.0908 87.1885 60.5271M59.8078 225.049C93.7499 234.851 153.421 242.15 192.808 244.173M59.8078 225.049C63.9533 177.296 71.3693 117.704 87.1885 60.5271M112.566 2.15724C147.81 3.32983 203.049 9.15107 236.066 15.5752M112.566 2.15724C101.399 37.2878 95.666 109.349 162.066 116.549C228.466 123.749 239.066 52.2331 236.066 15.5752M192.808 244.173C202.943 244.693 207.562 244.198 216.308 244.173M192.808 244.173C206.025 212.238 218.955 174.507 227.914 110.049M236.066 15.5752C245.6 17.4302 248.531 18.2319 256.566 20.3488M236.066 15.5752C235.744 27.9553 234.688 43.4953 233.735 56.0488M216.308 244.173C238.709 244.108 247.881 241.775 252.808 237.985C272.308 222.985 303.566 67.0496 296.566 40.0496C294.787 33.1871 279.248 26.3246 256.566 20.3488M216.308 244.173C235.308 194.485 259.566 90.5488 256.566 20.3488M256.566 20.3488C256.566 63.0821 236.866 145.649 158.066 134.049C110.011 126.975 91.7454 94.0316 87.1885 60.5271" stroke="url(#paint0_linear_419_56)" stroke-width="2.66812"/>
<path d="M10.2001 93.4499C7.46411 93.8692 3.84132 94.146 2.5918 94.146V246.5H315.812V98.339C314.529 96.6366 313.283 95.3913 312.233 94.4835C310.353 93.0222 309.095 92.3262 307.545 92.1186C304.612 92.0494 302.066 92.0933 295.289 94.538C289.169 96.7456 277.961 100.897 272.001 103.186C266.04 105.476 265.349 105.891 264.931 106.383C264.514 106.876 264.376 107.43 264.093 107.635C263.81 107.84 263.388 107.721 262.973 107.562C261.151 106.859 257.18 104.872 252.403 105.61C246.048 106.591 242.392 108.053 237.737 107.492C235.997 107.283 231.465 104.778 220.37 100.461L219.899 100.277C212.869 97.5416 203.328 93.8288 198.071 92.5924C190.985 90.9257 187.07 88.4256 184.14 89.7475C182.746 90.3764 179.572 93.0152 175.117 95.4856C171.982 97.2237 170.452 99.4262 157.546 100.09C150.816 100.436 140.435 100.559 135.035 100.364C129.217 100.155 128.301 99.9954 127.538 99.4523C125.574 98.0539 122.855 96.9352 120.477 94.907C117.598 92.452 114.283 89.3158 108.33 86.8501C98.5495 82.7996 91.5609 79.657 90.3584 80.0301C88.5407 80.5941 85.9496 79.7651 78.534 82.1287C74.5611 83.395 73.1298 86.238 70.496 86.4601C63.785 87.0262 60.2712 89.4804 51.8118 89.7454C45.1847 89.9529 41.1964 89.1179 39.9727 88.4812C38.2243 87.5713 35.7849 86.2879 33.4714 85.3364C31.0961 84.3594 28.2539 83.2813 26.0665 83.7346C24.3872 84.0827 20.5216 84.1445 17.0473 86.9549C14.8858 88.7034 13.683 92.9161 10.2001 93.4499Z" fill="white"/>
<path d="M10.2001 93.4499C7.46411 93.8692 3.84132 94.146 2.5918 94.146V246.5H315.812V98.339C314.529 96.6366 313.283 95.3913 312.233 94.4835C310.353 93.0222 309.095 92.3262 307.545 92.1186C304.612 92.0494 302.066 92.0933 295.289 94.538C289.169 96.7456 277.961 100.897 272.001 103.186C266.04 105.476 265.349 105.891 264.931 106.383C264.514 106.876 264.376 107.43 264.093 107.635C263.81 107.84 263.388 107.721 262.973 107.562C261.151 106.859 257.18 104.872 252.403 105.61C246.048 106.591 242.392 108.053 237.737 107.492C235.997 107.283 231.465 104.778 220.37 100.461L219.899 100.277C212.869 97.5416 203.328 93.8288 198.071 92.5924C190.985 90.9257 187.07 88.4256 184.14 89.7475C182.746 90.3764 179.572 93.0152 175.117 95.4856C171.982 97.2237 170.452 99.4262 157.546 100.09C150.816 100.436 140.435 100.559 135.035 100.364C129.217 100.155 128.301 99.9954 127.538 99.4523C125.574 98.0539 122.855 96.9352 120.477 94.907C117.598 92.452 114.283 89.3158 108.33 86.8501C98.5495 82.7996 91.5609 79.657 90.3584 80.0301C88.5407 80.5941 85.9496 79.7651 78.534 82.1287C74.5611 83.395 73.1298 86.238 70.496 86.4601C63.785 87.0262 60.2712 89.4804 51.8118 89.7454C45.1847 89.9529 41.1964 89.1179 39.9727 88.4812C38.2243 87.5713 35.7849 86.2879 33.4714 85.3364C31.0961 84.3594 28.2539 83.2813 26.0665 83.7346C24.3872 84.0827 20.5216 84.1445 17.0473 86.9549C14.8858 88.7034 13.683 92.9161 10.2001 93.4499Z" fill="url(#paint1_radial_419_56)"/>
<path d="M2.5918 94.6362C3.84132 94.6362 7.46411 94.3595 10.2001 93.9402C13.683 93.4064 14.8858 89.1936 17.0473 87.4451C20.5216 84.6347 24.3872 84.5729 26.0665 84.2249C28.2539 83.7716 31.0961 84.8496 33.4714 85.8266C35.7849 86.7781 38.2243 88.0615 39.9727 88.9714C41.1964 89.6082 45.1847 90.4432 51.8118 90.2356C60.2712 89.9707 63.785 87.5164 70.496 86.9504C73.1298 86.7282 74.5611 83.8852 78.534 82.6189C85.9496 80.2554 88.5407 81.0843 90.3584 80.5203C91.5609 80.1472 98.5495 83.2898 108.33 87.3403C114.283 89.806 117.598 92.9422 120.477 95.3972C122.855 97.4254 125.574 98.5441 127.538 99.9425C128.301 100.486 129.217 100.645 135.035 100.854C140.435 101.049 150.816 100.926 157.546 100.58C170.452 99.9164 171.982 97.7139 175.117 95.9759C179.572 93.5054 182.746 90.8667 184.14 90.2377C187.07 88.9158 190.985 91.4159 198.071 93.0827C203.446 94.3468 213.3 98.2003 220.37 100.951C231.465 105.268 235.997 107.773 237.737 107.983C242.392 108.543 246.048 107.081 252.403 106.1C257.18 105.362 261.151 107.349 262.973 108.052C263.388 108.212 263.81 108.331 264.093 108.125C264.376 107.92 264.514 107.366 264.931 106.874C265.349 106.381 266.041 105.966 272.001 103.676C277.961 101.387 289.169 97.2359 295.289 95.0282C302.066 92.5836 304.612 92.5397 307.545 92.6089C309.095 92.8164 310.353 93.5125 312.233 94.9737C313.283 95.8815 314.529 97.1269 315.812 98.8292" stroke="black" stroke-width="4" stroke-linecap="round"/>
<path d="M29.8261 126.509C30.8549 123.741 32.5307 121.59 33.2478 121.233C33.7379 120.743 35.2948 119.547 35.7777 119.064C36.7363 118.105 38.1922 117.63 39.8643 117.691C42.1491 117.99 44.1536 117.62 47.3727 118.412C50.0845 119.078 53.914 119.941 53.9099 122.262C53.9081 123.28 53.7171 124.347 53.0035 124.72C51.6197 125.442 48.2507 128.435 44.4086 128.743C39.194 129.162 31.5114 129.573 30.181 127.954C29.8819 127.59 29.614 127.08 29.8261 126.509Z" fill="#AF9E8B" stroke="black" stroke-width="2" stroke-linecap="round"/>
<path d="M206.226 120.082C208.551 118.262 211.105 117.306 211.903 117.377C212.577 117.216 214.529 117.011 215.194 116.853C216.512 116.538 218.002 116.894 219.394 117.822C221.185 119.272 223.086 120.006 225.415 122.365C227.377 124.353 230.188 127.093 228.97 129.068C228.436 129.934 227.715 130.744 226.912 130.688C225.354 130.579 220.917 131.366 217.482 129.618C212.82 127.245 206.058 123.575 205.772 121.499C205.707 121.032 205.746 120.457 206.226 120.082Z" fill="#AF9E8B" stroke="black" stroke-width="2" stroke-linecap="round"/>
<path d="M30.4311 87.5584C32.7564 85.7386 35.3103 84.7824 36.1081 84.8537C36.7822 84.6926 38.735 84.4879 39.3992 84.3292C40.7177 84.0141 42.2073 84.3707 43.6 85.2981C45.3903 86.7488 47.2919 87.4828 49.6207 89.842C51.5825 91.8294 54.3939 94.5691 53.1757 96.5445C52.6414 97.411 51.9201 98.2204 51.1171 98.1644C49.5598 98.0558 45.1225 98.8429 41.6875 97.0945C37.0254 94.7215 30.2636 91.0513 29.9773 88.9756C29.9129 88.5089 29.9518 87.9336 30.4311 87.5584Z" fill="#AF9E8B" stroke="black" stroke-width="2" stroke-linecap="round"/>
<path d="M283.971 135.231C273.574 135.404 268.569 134.687 267.852 134.568C267.484 134.445 265.686 133.966 265.507 133.6C265.329 132.64 265.57 131.321 266.475 129.877C267.134 129.158 276.951 130.823 283.115 128.139C284.919 127.353 286.639 125.6 289.011 125.072C294.916 123.756 300.344 123.206 300.768 125.025C301.006 126.045 300.37 128.94 298.357 130.249C295.572 132.059 290.384 135.124 283.971 135.231Z" fill="#AF9E8B" stroke="black" stroke-width="2" stroke-linecap="round"/>
<path d="M134.128 140.551C142.463 136.124 146 136 147.5 135.5C148.681 135.106 149.653 134.445 150.015 134.203L150.015 134.203C150.734 133.724 151.815 133.003 153.62 131.74C155.422 130.718 156.826 129.786 159.206 129.52C162.421 129.162 167.958 128.789 170.439 130.308C171.516 130.967 172.514 131.634 172.594 132.717C172.713 134.337 172.757 135.847 172.167 137.043C170.421 140.586 167.688 144.573 162.711 147.258C158.15 149.717 153.439 152.337 149.258 153.072C145.184 153.79 142.041 154.211 139.229 153.844C135.09 153.303 131.451 152.716 129.636 151.436C128.019 150.298 126.927 149.21 127.066 148.316C127.187 147.537 126.62 144.539 134.128 140.551Z" fill="#AF9E8B" stroke="black" stroke-width="2" stroke-linecap="round"/>
<path d="M85.9668 109.353C84.9832 111.323 84.6273 112.979 84.5 114C84.4377 114.5 84.774 115.423 84.903 115.466C85.1592 115.552 85.6304 115.938 86.187 116.387C86.7449 116.837 87.2978 117.26 87.878 117.521C88.5424 117.82 90.5787 118.577 92.5253 119.191C93.3368 119.447 95.0004 119.785 97.0462 119.509C98.474 119.316 99.4941 119.136 100.164 118.629C101.47 117.643 102.387 116.873 102.493 116.19C102.748 114.546 102.9 111.256 102.212 110.091C101.719 109.256 101.298 108.006 98.7161 106.901C97.5213 106.39 96.2718 106.122 94.382 106.157C93.1699 106.18 91.4539 106.129 90.4748 106.351C88.5758 106.781 86.9057 107.471 85.9668 109.353Z" fill="#AF9E8B" stroke="black" stroke-width="2" stroke-linecap="round"/>
<path d="M304.968 94.3433C305.279 92.2834 304.992 90.8891 304.709 90.0956C304.57 89.7069 303.788 89.3119 303.619 89.3746C303.285 89.499 302.574 89.57 301.736 89.6588C300.897 89.7484 300.074 89.8526 299.289 90.0878C298.389 90.357 295.7 91.2928 293.175 92.2621C292.122 92.6661 290.044 93.6234 287.78 95.2765C286.2 96.4302 285.09 97.2839 284.524 98.1118C283.423 99.724 282.681 100.91 282.847 101.456C283.245 102.77 284.461 105.143 285.754 105.453C286.681 105.675 287.699 106.235 291.171 105.148C292.777 104.645 294.345 103.936 296.529 102.561C297.929 101.678 299.947 100.486 300.993 99.6335C303.02 97.9794 304.672 96.3098 304.968 94.3433Z" fill="#AF9E8B" stroke="black" stroke-width="2" stroke-linecap="round"/>
<defs>
<linearGradient id="paint0_linear_419_56" x1="154.284" y1="2" x2="154.284" y2="244.41" gradientUnits="userSpaceOnUse">
<stop/>
<stop offset="1"/>
</linearGradient>
<radialGradient id="paint1_radial_419_56" cx="0" cy="0" r="1" gradientUnits="userSpaceOnUse" gradientTransform="translate(159 80) rotate(89.9305) scale(166.5 313.22)">
<stop stop-color="#855B2E"/>
<stop offset="0.481091" stop-color="white"/>
</radialGradient>
</defs>
</svg>
