<svg width="46" height="20" viewBox="0 0 46 20" fill="none" xmlns="http://www.w3.org/2000/svg">
<path d="M38.7598 12.3506C38.934 12.3507 39.1053 12.3904 39.2607 12.4658L39.4111 12.5537C39.5547 12.6526 39.6734 12.7823 39.7588 12.9326L39.833 13.0898C40.9898 16.11 43.1949 17.3447 44.5 17.3447C44.7668 17.3447 45.0239 17.4378 45.2285 17.6055L45.3135 17.6816C45.5291 17.8973 45.6504 18.1902 45.6504 18.4951C45.6503 18.7619 45.5572 19.0191 45.3896 19.2236L45.3135 19.3086C45.0978 19.5242 44.805 19.6445 44.5 19.6445C42.6354 19.6445 40.5606 18.5009 39.0361 16.4141L38.7568 16.0312L38.4727 16.4121C36.905 18.5169 34.6918 19.6444 32.3799 19.6445C30.0656 19.6445 27.8479 18.5168 26.2803 16.4062L25.999 16.0283L25.7178 16.4062C24.1501 18.5149 21.9331 19.6444 19.6191 19.6445C17.3087 19.6445 15.0929 18.5188 13.5273 16.416L13.2441 16.0352L12.9639 16.4189C11.4414 18.5056 9.36646 19.6514 7.5 19.6514C7.19528 19.6513 6.90307 19.5298 6.6875 19.3145C6.47184 19.0988 6.35061 18.806 6.35059 18.501C6.35059 18.196 6.47182 17.9032 6.6875 17.6875C6.90307 17.4721 7.19523 17.3507 7.5 17.3506C8.76247 17.3506 10.8733 16.1917 12.0557 13.3682L12.167 13.0898C12.2293 12.9268 12.328 12.7806 12.4541 12.6621L12.5898 12.5527C12.7815 12.421 13.0087 12.3507 13.2412 12.3506C13.474 12.3506 13.7018 12.4208 13.8936 12.5527C14.0373 12.6517 14.1557 12.7822 14.2412 12.9326L14.3154 13.0898C15.4478 16.0436 17.6179 17.3447 19.623 17.3447C21.5655 17.3446 23.6599 16.1235 24.8184 13.3623L24.9277 13.0898C25.0112 12.8731 25.1581 12.6862 25.3496 12.5547C25.5412 12.4231 25.7686 12.3535 26.001 12.3535C26.2334 12.3535 26.4608 12.4231 26.6523 12.5547C26.796 12.6533 26.9144 12.7835 27 12.9336L27.0742 13.0898C28.2066 16.0436 30.3767 17.3447 32.3818 17.3447C34.3243 17.3445 36.4188 16.1215 37.5771 13.3623L37.6865 13.0898C37.7489 12.9267 37.8474 12.7806 37.9736 12.6621L38.1084 12.5537C38.2521 12.4547 38.4159 12.3904 38.5869 12.3643L38.7598 12.3506ZM32.7617 0.349609C33.1765 0.349717 33.5552 0.575359 33.7588 0.930664L33.835 1.08984C34.9918 4.10958 37.1969 5.34473 38.502 5.34473C38.7687 5.34479 39.0259 5.43696 39.2305 5.60449L39.3145 5.68164C39.5301 5.89726 39.6513 6.18922 39.6514 6.49414C39.6514 6.76107 39.5593 7.01897 39.3916 7.22363L39.3145 7.30762C39.0989 7.52308 38.8068 7.64446 38.502 7.64453C36.6374 7.64453 34.5625 6.50084 33.0381 4.41406L32.7578 4.03027L32.4746 4.41113C30.9068 6.51629 28.6931 7.64453 26.3809 7.64453C24.0668 7.64444 21.8499 6.51407 20.2822 4.40527L20.001 4.02734L19.7197 4.40527C18.152 6.51421 15.9343 7.64453 13.6201 7.64453C11.3098 7.64438 9.09478 6.51772 7.5293 4.41309L7.24609 4.03223L6.96582 4.41602C5.44131 6.50494 3.36648 7.65039 1.5 7.65039C1.23313 7.65038 0.976117 7.55731 0.771484 7.38965L0.686523 7.31348C0.470982 7.09782 0.349609 6.80491 0.349609 6.5C0.349696 6.23326 0.442766 5.97603 0.610352 5.77148L0.686523 5.6875C0.902187 5.47184 1.19501 5.3506 1.5 5.35059C2.76254 5.35059 4.87332 4.19112 6.05566 1.36719L6.16699 1.08887C6.22941 0.925781 6.32785 0.779605 6.4541 0.661133L6.58887 0.552734C6.73275 0.45372 6.89716 0.389329 7.06836 0.363281L7.24121 0.349609C7.41574 0.349609 7.58746 0.389363 7.74316 0.464844L7.89355 0.552734C8.03738 0.651761 8.15576 0.78204 8.24121 0.932617L8.31543 1.08887V1.08984C9.44783 4.04334 11.618 5.34473 13.623 5.34473C15.5658 5.34454 17.6584 4.12067 18.8184 1.36133L18.9277 1.08984C19.0112 0.872951 19.1581 0.686273 19.3496 0.554688C19.5412 0.423088 19.7685 0.352539 20.001 0.352539C20.2334 0.352561 20.4608 0.423109 20.6523 0.554688C20.796 0.653435 20.9144 0.783379 21 0.933594L21.0742 1.08984C22.2066 4.04314 24.3759 5.3446 26.3809 5.34473C28.3236 5.34473 30.4187 4.12108 31.5771 1.36133L31.6865 1.08984V1.08887C31.7697 0.871706 31.9169 0.684618 32.1084 0.552734C32.2517 0.4541 32.4163 0.389486 32.5879 0.363281L32.7617 0.349609Z" fill="black" stroke="white" stroke-width="0.7"/>
</svg>
