<svg width="53" height="57" viewBox="0 0 53 57" fill="none" xmlns="http://www.w3.org/2000/svg">
<path d="M21.9366 23.6797C21.5164 23.5863 21.3652 23.2014 21.1293 22.8723C20.1492 21.5054 18.9366 20.3469 17.6615 19.2577C15.4671 17.3834 13.0365 15.9979 10.1937 15.423C5.17701 14.4083 2.59462 16.1089 1.29485 21.0192C-0.0250038 26.0053 3.27894 28.7933 7.36811 31.3125C10.7402 33.39 13.9976 33.5877 17.8083 33.5877C18.3981 33.5877 19.0379 33.5187 19.6247 33.5877C20.3808 33.6767 19.2205 36.9686 19.1293 37.4041C18.5434 40.2033 18.3037 42.876 18.3037 45.7342C18.3037 48.1742 17.8634 51.1103 19.2945 53.257C20.1784 54.5828 22.1952 55.4996 23.7714 55.1652C27.1036 54.4584 28.7602 51.3972 30.175 48.6149C31.6875 45.6402 33.2842 41.2092 32.1749 37.8812" stroke="#8484FF" stroke-width="2" stroke-linecap="round"/>
<path d="M21.917 23.9516C21.9304 23.523 21.9785 23.1812 22.0957 22.7504C22.8259 20.0665 23.8619 17.4362 24.9271 14.8712C26.4225 11.2703 28.1933 7.67404 30.7972 4.73256C32.1306 3.22631 33.7509 1.77709 35.7664 1.32918C37.4015 0.965825 39.2721 0.925252 40.9358 1.10039C43.8588 1.40807 47.0357 3.48826 47.5996 6.50574C48.5359 11.5161 46.4505 16.8889 44.5966 21.4491C43.4629 24.2377 41.5509 26.9448 39.3199 28.9709C38.7878 29.4542 38.1529 29.7831 37.6254 30.2578C37.372 30.4859 37.1938 30.7894 36.8175 30.7726C36.5726 30.7618 35.5917 30.1037 36.0024 30.029C36.3833 29.9598 37.0021 30.15 37.3466 30.2149C38.5305 30.4382 39.7045 30.7036 40.8643 31.03C42.3983 31.4617 43.8832 32.0334 45.4045 32.5029C46.6522 32.888 47.9247 33.2075 49.1225 33.7399C50.6216 34.4061 51.2428 35.6995 51.5821 37.2076C51.9009 38.6244 52.0519 40.4802 51.3247 41.7764C49.6209 44.8136 45.5885 44.1347 42.7019 43.6997C39.7601 43.2565 36.6959 42.191 34.5438 40.039C34.0756 39.5708 33.1473 38.8189 32.8564 38.2372" stroke="#8484FF" stroke-width="2" stroke-linecap="round"/>
</svg>
