<svg width="125" height="81" viewBox="0 0 125 81" fill="none" xmlns="http://www.w3.org/2000/svg">
<path d="M5.29091 53.4494C5.60901 53.8769 5.88263 54.3347 6.16219 54.7879C5.847 54.6827 5.53044 54.5855 5.20359 54.5006C3.84997 54.1491 2.94226 53.5715 2.25935 52.3422C2.14257 52.132 1.89416 51.6434 2.04979 51.3888C2.1562 51.2146 2.8985 51.531 3.00676 51.5774C3.94255 51.9784 4.68573 52.6361 5.29091 53.4494Z" fill="#F7F7F7"/>
<path d="M6.56221 55.4471C6.53517 55.3119 6.3905 55.1534 6.32471 55.049C5.98636 54.5122 5.67027 53.9592 5.29091 53.4494C4.68573 52.6361 3.94255 51.9784 3.00676 51.5774C2.8985 51.531 2.1562 51.2146 2.04979 51.3888C1.89416 51.6434 2.14257 52.132 2.25935 52.3422C2.94226 53.5715 3.84997 54.1491 5.20359 54.5006C5.74092 54.6402 6.25043 54.8129 6.77176 55.0001C7.29861 55.1892 6.96235 54.252 6.95338 53.9663C6.90199 52.3292 7.35172 50.7552 8.05703 49.2862C8.29484 48.7909 8.70992 47.9491 9.31436 47.7914C9.97146 47.62 10.2015 48.9138 10.2015 49.3246C10.2015 50.0524 9.86518 50.7487 9.57282 51.3992C9.15452 52.3299 8.57224 53.1242 7.95226 53.9279C7.86323 54.0433 6.90126 55.5224 6.87654 55.51" stroke="#8484FF" stroke-width="2.57163" stroke-linecap="round"/>
<path d="M25.2985 58.331C22.656 54.2517 21.6936 49.5485 21.5488 48.2512L20.8736 42.2025C20.4878 38.7461 21.0854 36.9821 20.9722 35.9677C20.7939 34.3707 20.8169 32.802 20.6388 31.2065C20.4063 29.1231 20.758 27.9435 21.4455 26.0099L21.4467 26.0063C22.0633 24.2721 22.3256 23.5345 24.4335 23.2992C27.0909 23.0026 29.1401 23.3052 31.6509 24.2655C32.8313 24.717 34.0791 25.0204 35.2871 25.3894C37.2427 25.9868 38.9456 27.2301 40.7842 28.0994C44.1753 29.7029 47.8873 30.8004 51.1679 32.5862C51.9005 32.985 52.6463 33.8189 53.5177 33.7216C54.3705 33.6264 55.3629 33.328 56.1432 32.9883C63.3025 29.8722 71.0574 28.5411 77.9117 24.7036C80.0313 23.5169 82.2623 22.5632 84.4928 21.6097L84.6885 21.526C85.4063 21.219 86.0479 20.8236 86.8187 20.6939C87.097 20.6471 87.0764 19.8989 87.1009 19.6719C87.3801 17.0843 89.3117 14.562 90.6519 12.4412C92.7601 9.10515 95.0752 6.20986 97.9525 3.50424L98.0071 3.45285C98.9718 2.54504 100.175 1.41296 101.669 1.90076C102.693 2.23473 103.089 2.65187 103.899 3.33577C104.297 3.67214 104.622 4.05752 105.008 4.40054C105.516 4.85257 105.571 5.56238 106.031 6.06927C107.227 7.38781 108.309 9.19435 108.751 10.9162C110.632 18.2488 111.767 26.0896 111.337 33.6949C111.056 38.6691 109.89 43.5674 108.922 48.4367C107.997 53.0905 105.978 57.9339 102.753 61.4954C99.9775 64.5599 95.7919 67.2876 91.8651 68.5656C87.6236 69.9461 84.0679 72.771 79.9272 74.3113C77.7519 75.1205 75.413 75.2554 73.1276 75.5105C70.7205 75.7792 68.3022 76.1403 65.8833 76.2751C60.6295 76.5678 55.7326 76.8775 50.5651 75.6958C46.5811 74.7848 42.2425 74.2222 38.9049 71.6046C37.1084 70.1958 35.4279 68.4747 33.7499 66.9304C32.1426 65.4513 30.2337 64.2581 28.7026 62.7285C26.9376 60.9652 26.6518 60.4201 25.2985 58.331Z" fill="#F7F7F7" stroke="#8484FF" stroke-width="2.12818" stroke-linecap="round"/>
<path d="M26.3366 68.055C25.5747 68.1401 27.7883 67.5227 28.4318 67.1058C30.2612 65.9208 31.9008 64.4624 33.7275 63.2791C35.0481 62.4236 36.5246 61.7673 38.0954 61.592" stroke="#8484FF" stroke-width="2.12818" stroke-linecap="round"/>
<path d="M37.3846 74.7458C39.3009 73.2842 40.22 70.3674 41.0556 68.195C41.298 67.5648 41.6536 66.9859 41.7938 66.3297" stroke="#8484FF" stroke-width="2.12818" stroke-linecap="round"/>
<path d="M105.915 35.5988C110.802 35.0533 115.733 34.5029 120.59 33.9608" stroke="#8484FF" stroke-width="2.12818" stroke-linecap="round"/>
<path d="M104.898 44.2306C108.35 43.8451 111.825 44.9023 115.202 45.5456C116.988 45.8855 118.829 46.0625 120.596 46.4403" stroke="#8484FF" stroke-width="2.12818" stroke-linecap="round"/>
<path d="M54.2568 49.7121C54.2229 49.571 54.2702 50.756 54.2914 50.9458C54.3674 51.6271 54.3208 52.7595 54.9634 53.2198C55.2938 53.4565 55.8852 53.3545 56.1178 53.0394C56.7057 52.2429 56.4861 50.9211 56.4326 50.0078C56.3976 49.4114 56.3298 48.4815 55.7324 48.1495C55.3366 47.9295 54.7084 47.8648 54.5246 48.3645C54.3886 48.7341 54.5962 50.975 54.857 50.4702" stroke="#8484FF" stroke-width="2.12818" stroke-linecap="round"/>
<path d="M81.6523 45.3428C81.0145 46.0311 80.5753 45.6229 80.2755 44.8706C80.2566 44.8557 80.2369 44.8382 80.2163 44.8181C79.6132 44.2287 79.2043 39.4731 80.3561 40.0003C81.2167 40.3942 81.721 41.2708 81.8566 42.1706C81.9781 42.9768 82.2737 44.6721 81.6523 45.3428Z" fill="#F7F7F7"/>
<path d="M79.6714 41.737C79.7278 42.2419 80.1071 47.0105 81.6523 45.3428C82.2737 44.6721 81.9781 42.9768 81.8566 42.1706C81.721 41.2708 81.2167 40.3942 80.3561 40.0003C79.2043 39.4731 79.6132 44.2287 80.2163 44.8181C80.8267 45.4145 80.692 43.6929 80.6724 43.5015C80.6118 42.9064 80.6575 41.8723 80.0537 41.5603" stroke="#8484FF" stroke-width="2.12818" stroke-linecap="round"/>
<path d="M67.0898 58.687C68.4042 58.5403 70.5076 58.6549 71.0586 57.157C71.3531 56.3566 71.3563 55.3328 71.3049 54.4939C71.2973 54.3711 71.1594 53.3128 71.2806 53.4096C72.0802 54.0486 72.5725 55.012 73.3768 55.6475C74.395 56.4519 75.8947 56.659 77.154 56.4692C78.0739 56.3306 79.6983 55.1842 79.5747 54.0771" stroke="#8484FF" stroke-width="2.12818" stroke-linecap="round"/>
</svg>
