<svg width="629" height="77" viewBox="0 0 629 77" fill="none" xmlns="http://www.w3.org/2000/svg">
<path d="M13.3551 14.4201C14.8002 17.4293 15.9013 20.4215 17.7666 23.1497" stroke="#8484FF" stroke-width="2" stroke-linecap="round"/>
<path d="M2.91321 22.3078C4.55198 23.0019 6.39415 23.7614 7.68019 24.1178C9.61819 24.6549 11.05 25.1875 12.9403 26.0101" stroke="#8484FF" stroke-width="2" stroke-linecap="round"/>
<path d="M1.20186 34.2612C3.48967 34.6928 6.68149 33.7158 9.06507 33.6081" stroke="#8484FF" stroke-width="2" stroke-linecap="round"/>
<path d="M612.596 69C613.5 70 614.743 71.6544 615.5 73C616.171 74.1923 616.5 74.5 617.588 75.8649" stroke="#8484FF" stroke-width="2" stroke-linecap="round"/>
<path d="M616.399 64.8287C618 65.5 624.953 67.5029 626.5 68" stroke="#8484FF" stroke-width="2" stroke-linecap="round"/>
<path d="M619 58.4063C621.419 55.9868 624.366 55.0153 627.412 54" stroke="#8484FF" stroke-width="2" stroke-linecap="round"/>
<path d="M583.195 3.7489C583.195 6.26314 583.477 9.0372 582.05 11.2575C581.699 11.8039 581.374 12.355 581.134 12.9628C580.716 14.0206 581.326 13.9163 582.292 13.8028C584.963 13.4885 587.297 12.548 589.711 14.2864C590.628 14.9463 591.324 15.7671 591.786 16.7935C591.867 16.9734 592.358 17.968 592.358 17.7225" stroke="#8484FF" stroke-width="2" stroke-linecap="round"/>
<path d="M583.883 1C583.883 2.95703 584.085 4.98223 584.901 6.77779C585.437 7.95686 587.173 8.58524 588.35 8.89037C589.819 9.27122 591.762 9.24671 593.275 9.24671C594.106 9.24671 595.758 8.9344 596.571 9.25943C596.75 9.33098 595.936 9.74811 595.922 9.75576C594.986 10.2663 594.048 10.9147 593.453 11.8174C592.753 12.8782 592.63 13.8111 592.41 15.0245C592.13 16.559 593.046 17.7136 593.046 19.0969" stroke="#8484FF" stroke-width="2" stroke-linecap="round"/>
</svg>
