<svg width="146" height="160" viewBox="0 0 146 160" fill="none" xmlns="http://www.w3.org/2000/svg">
<path d="M73.3529 148.143C75.1137 147.422 77.909 146.367 79.728 145.815C84.7392 144.742 89.0234 143.648 93.9633 142.288C99.6496 140.722 105.418 137.361 109.479 133.065C114.537 127.716 116.893 121.363 117.141 114.045C117.258 110.573 116.529 107.25 115.788 103.88C115.183 101.126 114.566 98.1657 113.255 95.648C111.99 93.2186 110.223 91.3419 108.232 89.4884C104.744 86.2428 101.287 82.9625 97.8849 79.6264C95.762 77.5449 93.2327 75.3464 91.4663 72.9395C90.3141 71.3695 89.1449 70.0269 87.6821 68.7079C77.6249 59.639 65.8248 52.4817 53.074 47.8634C47.2792 45.7646 40.5334 44.016 35.3012 48.2819C30.9169 51.8565 28.3794 58.6858 26.2709 63.7065C24.5018 67.9193 22.8015 72.197 21.8731 76.6855C21.7018 77.5139 21.7773 77.9716 21.4091 78.7079C20.245 81.0362 19.4801 83.7833 18.77 86.2675C17.1625 91.891 15.824 97.5404 14.6651 103.272C13.7605 107.745 12.8454 112.575 13.5494 117.143C14.4066 122.704 15.9181 128.296 17.6003 133.653C19.4294 139.477 21.8853 144.942 24.5666 150.407C25.0858 151.466 25.5663 151.55 26.6572 152.053C35.338 156.06 44.178 155.215 53.3427 153.343C60.0092 151.981 67.0298 150.734 73.3529 148.143Z" stroke="#8484FF" stroke-width="1.59456" stroke-linecap="round"/>
<path d="M57.4996 152.231C57.087 150.776 56.3611 149.402 55.725 148.036C54.4685 145.339 53.2303 142.642 52.0755 139.899C50.5488 136.273 49.0013 132.764 48.1745 128.906C47.5171 125.838 46.7544 122.192 48.6979 119.411C50.1788 117.292 51.7072 115.372 53.7753 113.782C56.0897 112.003 58.4392 111.237 61.2476 110.635C62.8216 110.298 64.4114 110.112 65.9821 109.775C66.7469 109.611 68.0279 109.236 68.7644 109.66C70.4182 110.611 70.5593 113.669 70.899 115.254C71.8626 119.751 72.6676 124.319 73.9435 128.74C75.1127 132.792 76.8069 136.539 78.4202 140.417C78.8075 141.348 79.484 142.135 79.8073 143.124C79.9376 143.523 80.4379 144.194 80.8309 144.296" stroke="#8484FF" stroke-width="1.59456" stroke-linecap="round"/>
<path d="M49.0768 126.025C48.6679 126.185 48.7236 125.973 48.8486 125.587C49.3376 124.074 49.9625 122.585 50.5739 121.12C51.517 118.86 52.5626 116.637 53.7097 114.474C54.1861 113.575 54.6763 112.674 55.4151 111.962C55.4538 111.925 55.662 111.685 55.6815 111.868C55.7927 112.911 55.1245 114.277 54.8472 115.23C52.7322 122.493 51.0807 129.948 50.724 137.524C50.6264 139.595 50.5877 141.69 50.7195 143.762C50.7619 144.429 50.8161 145.151 51.0209 145.794C51.205 146.372 51.611 145.151 51.6175 145.136C52.8309 142.345 53.6211 139.387 54.3828 136.447C55.7969 130.991 56.8822 125.227 59.3442 120.112C59.7212 119.329 60.4762 117.585 61.4563 117.337C61.6965 117.276 61.7135 117.902 61.7186 118.049C61.7307 118.401 61.6301 118.752 61.5387 119.087C60.9998 121.065 60.5733 123.055 60.1932 125.07C59.1022 130.854 58.1082 136.725 57.6145 142.595C57.6048 142.711 57.2893 146.7 57.6916 146.682C57.8072 146.676 57.7915 146.472 57.824 146.361C57.9759 145.842 58.0659 145.446 58.1791 144.888C58.8946 141.367 59.2641 137.78 59.8594 134.237C60.7531 128.919 61.9185 123.579 63.9577 118.569C64.1774 118.029 64.813 115.948 65.6331 115.832C65.9144 115.793 65.8997 116.554 65.8987 116.617C65.8874 117.335 65.7462 118.274 65.6289 118.942C65.172 121.546 64.5405 124.12 63.9815 126.703C62.7081 132.586 61.4123 138.627 61.1856 144.665C61.1377 145.94 61.0977 147.299 61.3675 148.558C61.5287 149.31 61.1017 147.041 61.0428 146.274C61.0133 145.891 61.176 145.595 61.3421 145.253C62.1425 143.607 62.9108 141.944 63.7331 140.308C64.1497 139.48 69.4803 128.584 70.8121 129.446C70.9447 129.531 70.9586 129.818 70.9803 129.946C71.198 131.232 71.1485 132.564 71.0691 133.859C70.9311 136.109 70.6323 138.346 70.4388 140.591C70.2121 143.22 70.1291 145.855 69.9917 148.49C69.9446 149.394 69.9011 150.299 69.8477 151.203C69.8441 151.265 69.7285 151.92 69.8036 151.993C69.8566 152.045 69.8671 151.859 69.8943 151.791C70.0341 151.438 70.0494 151.404 70.2261 151.006C70.7742 149.774 71.3118 148.539 71.8261 147.292C72.3737 145.965 72.9029 144.266 74.0502 143.304C74.3898 143.019 74.6894 142.99 74.8437 143.451C75.1818 144.461 75.1915 145.483 75.156 146.53C75.139 147.034 75.2282 147.213 75.6615 146.812C76.4621 146.069 76.878 144.974 77.5125 144.098C77.599 143.979 77.892 143.883 77.8173 143.899" stroke="#8484FF" stroke-width="1.59456" stroke-linecap="round"/>
<path d="M56.6753 8.62539L55.5441 8.42101C55.4795 8.35836 55.4382 8.28604 55.4203 8.20406C55.3955 8.11827 55.3898 8.03854 55.4034 7.96489C55.4169 7.89124 55.4459 7.83057 55.4902 7.78288C55.5276 7.73138 55.5781 7.70514 55.6417 7.70416L57.0697 7.90984L58.6665 4.96362C58.7368 4.88518 58.818 4.84427 58.91 4.84089C59.002 4.83752 59.0806 4.85834 59.1459 4.90336C59.222 4.94527 59.2778 5.00757 59.3133 5.09026C59.3527 5.16604 59.3637 5.24421 59.3463 5.32478C59.2144 5.53147 59.0783 5.7539 58.938 5.99207C58.8015 6.22332 58.6631 6.45802 58.5228 6.69618C58.3933 6.93124 58.2691 7.16475 58.1503 7.39671C58.0352 7.62175 57.9367 7.83332 57.8545 8.03142L59.822 8.26403C59.934 8.28972 60.0044 8.34201 60.033 8.42089C60.0654 8.49285 60.0676 8.57067 60.0395 8.65434C60.0222 8.73491 59.9806 8.80214 59.9148 8.85603C59.8491 8.90992 59.774 8.93164 59.6896 8.92119L57.4601 8.74696C57.422 8.8161 57.334 8.98393 57.1961 9.25045C57.0621 9.51006 56.9013 9.81807 56.7139 10.1745C56.5265 10.5309 56.3257 10.9115 56.1116 11.3163C55.8975 11.721 55.6933 12.0997 55.499 12.4523C55.3115 12.8087 55.1454 13.1183 55.0006 13.381C54.8666 13.6406 54.7805 13.805 54.7424 13.8741C54.6028 14.0946 54.4742 14.1725 54.3567 14.1077C54.2392 14.043 54.1418 13.9172 54.0645 13.7303L56.6753 8.62539ZM60.1163 16.782C60.2666 16.5583 60.4477 16.2706 60.6597 15.9187C60.8717 15.5668 61.0866 15.185 61.3045 14.7733C61.5293 14.3654 61.7438 13.9518 61.9479 13.5325C62.1557 13.1062 62.3269 12.7139 62.4615 12.3553C62.6029 12.0006 62.6946 11.6952 62.7367 11.4389C62.7895 11.1796 62.7698 11.011 62.6775 10.9331C62.4944 10.742 62.2686 10.6446 62.0003 10.6409C61.7426 10.6341 61.4591 10.6987 61.1498 10.8347C60.8443 10.9638 60.526 11.1488 60.1948 11.39C59.8674 11.6241 59.539 11.8848 59.2095 12.1719C58.8907 12.4559 58.5804 12.7491 58.2785 13.0514C57.9874 13.3506 57.7288 13.6318 57.5027 13.8947C57.2766 14.1577 57.0873 14.3869 56.9346 14.5821C56.7926 14.7743 56.7079 14.9034 56.6805 14.9694C56.6321 14.9427 56.5642 14.9188 56.4767 14.8976C56.4 14.8734 56.3251 14.8456 56.2522 14.8144C56.1754 14.7902 56.1132 14.7559 56.0655 14.7116C56.0285 14.6641 56.0291 14.6059 56.0672 14.5367L60.595 5.90484C60.6293 5.84262 60.6779 5.81984 60.7408 5.8365C60.8076 5.84624 60.8736 5.87362 60.9389 5.91864C61.0043 5.96366 61.0604 6.01714 61.1074 6.07909C61.1544 6.14104 61.1806 6.19156 61.1861 6.23064L57.6256 12.8132C57.7319 12.7186 57.8885 12.557 58.0955 12.3286C58.3095 12.104 58.5578 11.8578 58.8406 11.59C59.1234 11.3222 59.4342 11.0609 59.773 10.806C60.1156 10.5441 60.4684 10.3374 60.8314 10.1859C61.205 10.0313 61.5843 9.95645 61.9692 9.9613C62.3611 9.96995 62.7445 10.1002 63.1195 10.3519C63.2058 10.4896 63.2669 10.6405 63.3027 10.8045C63.3493 10.9653 63.3572 11.1635 63.3266 11.399C63.3067 11.6314 63.2443 11.908 63.1396 12.2288C63.0418 12.5535 62.8936 12.945 62.695 13.4035C62.4964 13.8619 62.2398 14.401 61.9253 15.0208C61.6176 15.6444 61.2424 16.3661 60.7997 17.1857C60.7522 17.2226 60.686 17.2447 60.6009 17.2519C60.512 17.266 60.4257 17.259 60.3421 17.2309C60.2653 17.2066 60.2019 17.1582 60.1518 17.0855C60.1017 17.0128 60.0899 16.9116 60.1163 16.782ZM64.7705 11.2078C64.8234 11.2099 64.8813 11.2193 64.9443 11.236C65.0072 11.2526 65.0628 11.2743 65.1112 11.301C65.1665 11.3315 65.2127 11.3704 65.2496 11.4178C65.2866 11.4652 65.3037 11.5242 65.3008 11.5948C65.0532 12.0442 64.788 12.5335 64.5053 13.0627C64.2333 13.5888 63.9557 14.1253 63.6723 14.6722C63.3996 15.216 63.1273 15.7509 62.8553 16.2771C62.5834 16.8032 62.3324 17.2913 62.1023 17.7414C62.0521 17.8489 61.9806 17.9132 61.8879 17.9342C61.7952 17.9552 61.7108 17.9448 61.6348 17.9028C61.5656 17.8647 61.5152 17.8009 61.4834 17.7113C61.4479 17.6286 61.4606 17.5319 61.5216 17.4213L64.7705 11.2078ZM65.8121 9.02369C65.8616 8.93382 65.9251 8.8922 66.0026 8.89884C66.0838 8.89857 66.1625 8.91939 66.2385 8.96131C66.3906 9.04514 66.4554 9.14843 66.4328 9.27119C66.4209 9.39084 66.3788 9.51634 66.3064 9.6477C66.2192 9.7078 66.1315 9.73608 66.0433 9.73254C65.9551 9.729 65.8787 9.69591 65.8141 9.63325C65.7564 9.5744 65.7209 9.49172 65.7075 9.38518C65.701 9.28246 65.7359 9.16196 65.8121 9.02369ZM65.8394 12.0404C65.8845 11.975 65.9426 11.935 66.0139 11.9202C66.0851 11.9054 66.1538 11.9116 66.2198 11.939C66.2896 11.9595 66.348 12.0007 66.395 12.0626C66.4458 12.1177 66.4786 12.1808 66.4934 12.2521L64.176 16.383C64.5817 15.9577 64.9698 15.5316 65.3402 15.1048C65.7214 14.6749 66.1001 14.3068 66.4763 14.0003C66.8563 13.687 67.2378 13.4691 67.6208 13.3467C68.0075 13.2173 68.4109 13.2459 68.831 13.4323C69.0567 13.5297 69.2072 13.6983 69.2824 13.938C69.3614 14.1708 69.3857 14.4456 69.3553 14.7624C69.3318 15.083 69.2629 15.437 69.1484 15.8246C69.0377 16.2053 68.9003 16.5938 68.736 16.9899C68.5824 17.383 68.4131 17.772 68.2281 18.1567C68.0431 18.5415 67.8664 18.8948 67.698 19.2166C67.5296 19.5384 67.3753 19.8184 67.235 20.0566C67.1016 20.2986 67.001 20.473 66.9331 20.5798C66.82 20.6706 66.6916 20.699 66.5481 20.665C66.4077 20.6417 66.3273 20.5343 66.3067 20.3426C66.3722 20.2075 66.4925 19.9809 66.6678 19.6629C66.8469 19.3379 67.0439 18.9642 67.2587 18.5418C67.4804 18.1232 67.6978 17.6797 67.9109 17.2112C68.1348 16.7397 68.3134 16.2929 68.447 15.8707C68.5912 15.4454 68.6682 15.0687 68.6778 14.7405C68.6982 14.4092 68.6176 14.171 68.4362 14.0259C68.2786 13.903 68.0578 13.903 67.7737 14.0259C67.4966 14.1525 67.1848 14.3503 66.8384 14.619C66.4988 14.8916 66.1415 15.2129 65.7662 15.583C65.3979 15.9568 65.0438 16.3295 64.7038 16.701C64.3708 17.0763 64.0706 17.4246 63.8033 17.746C63.5361 18.0674 63.3387 18.3192 63.2113 18.5014C63.16 18.5452 63.0938 18.5673 63.0125 18.5676C62.9312 18.5678 62.8526 18.547 62.7765 18.5051C62.7036 18.4739 62.6367 18.4235 62.5759 18.354C62.522 18.2882 62.4987 18.2078 62.5061 18.1127L65.8394 12.0404ZM72.0681 12.269C72.3148 12.1976 72.4754 12.2006 72.55 12.2778C72.6316 12.3588 72.6527 12.4921 72.6135 12.6778L69.4505 18.4654L74.137 16.3162C74.2545 16.381 74.3398 16.4551 74.393 16.5385C74.4569 16.6188 74.4508 16.7281 74.3746 16.8663L69.5563 19.1322L71.7706 22.3267C71.7761 22.3657 71.7737 22.4275 71.7632 22.5118C71.7635 22.5931 71.7446 22.6683 71.7065 22.7375C71.6722 22.7997 71.6137 22.8486 71.531 22.8841C71.4521 22.9127 71.3451 22.8943 71.2099 22.8288L68.9812 19.4642L68.0495 21.1545C67.9364 21.2454 67.8426 21.2929 67.7682 21.2969C67.6939 21.301 67.6328 21.2809 67.5852 21.2366C67.5337 21.1992 67.4917 21.1445 67.4592 21.0726C67.4337 21.0044 67.4097 20.9416 67.3873 20.8842L72.0681 12.269ZM75.3689 17.0493C75.4218 17.0514 75.4797 17.0608 75.5427 17.0775C75.6056 17.0942 75.6612 17.1158 75.7096 17.1425C75.765 17.173 75.8111 17.2119 75.8481 17.2593C75.885 17.3068 75.9021 17.3657 75.8993 17.4363C75.6516 17.8857 75.3864 18.375 75.1037 18.9042C74.8317 19.4303 74.5541 19.9668 74.2707 20.5137C73.998 21.0575 73.7257 21.5924 73.4537 22.1186C73.1818 22.6447 72.9308 23.1328 72.7007 23.5829C72.6505 23.6904 72.579 23.7547 72.4863 23.7757C72.3936 23.7967 72.3092 23.7863 72.2332 23.7443C72.164 23.7062 72.1136 23.6424 72.0818 23.5528C72.0463 23.4701 72.059 23.3734 72.12 23.2628L75.3689 17.0493ZM76.4105 14.8652C76.46 14.7753 76.5235 14.7337 76.601 14.7404C76.6822 14.7401 76.7609 14.7609 76.837 14.8028C76.9891 14.8866 77.0538 14.9899 77.0312 15.1127C77.0193 15.2323 76.9772 15.3579 76.9048 15.4892C76.8176 15.5493 76.7299 15.5776 76.6417 15.5741C76.5535 15.5705 76.4771 15.5374 76.4125 15.4748C76.3548 15.4159 76.3193 15.3332 76.3059 15.2267C76.2994 15.124 76.3343 15.0035 76.4105 14.8652ZM76.4379 17.8819C76.4829 17.8165 76.541 17.7765 76.6123 17.7617C76.6835 17.7469 76.7522 17.7532 76.8182 17.7805C76.888 17.801 76.9465 17.8422 76.9934 17.9042C77.0442 17.9592 77.077 18.0223 77.0918 18.0936L74.7744 22.2246C75.1801 21.7992 75.5682 21.3731 75.9386 20.9463C76.3198 20.5164 76.6985 20.1483 77.0747 19.8418C77.4547 19.5285 77.8362 19.3106 78.2192 19.1882C78.6059 19.0588 79.0093 19.0874 79.4294 19.2738C79.6551 19.3712 79.8056 19.5398 79.8808 19.7795C79.9598 20.0123 79.9841 20.2871 79.9537 20.6039C79.9302 20.9245 79.8613 21.2786 79.7468 21.6661C79.6361 22.0468 79.4987 22.4353 79.3344 22.8315C79.1808 23.2245 79.0115 23.6135 78.8265 23.9982C78.6415 24.383 78.4648 24.7363 78.2964 25.0581C78.128 25.3799 77.9737 25.6599 77.8334 25.8981C77.7 26.1401 77.5994 26.3145 77.5315 26.4213C77.4184 26.5121 77.29 26.5405 77.1465 26.5065C77.0061 26.4832 76.9257 26.3758 76.9051 26.1842C76.9706 26.049 77.091 25.8224 77.2662 25.5044C77.4453 25.1794 77.6423 24.8058 77.8571 24.3833C78.0788 23.9647 78.2962 23.5212 78.5093 23.0527C78.7332 22.5812 78.9119 22.1344 79.0454 21.7122C79.1896 21.2869 79.2666 20.9102 79.2762 20.582C79.2966 20.2507 79.216 20.0125 79.0346 19.8675C78.877 19.7445 78.6562 19.7445 78.3721 19.8674C78.095 19.9941 77.7832 20.1918 77.4368 20.4605C77.0972 20.7331 76.7399 21.0544 76.3646 21.4245C75.9963 21.7984 75.6422 22.171 75.3022 22.5425C74.9692 22.9178 74.669 23.2661 74.4018 23.5875C74.1345 23.9089 73.9371 24.1607 73.8097 24.3429C73.7585 24.3867 73.6922 24.4088 73.6109 24.4091C73.5297 24.4094 73.451 24.3885 73.3749 24.3466C73.302 24.3154 73.2351 24.265 73.1743 24.1955C73.1204 24.1297 73.0972 24.0493 73.1045 23.9542L76.4379 17.8819ZM77.0575 29.7835C77.5843 30.0378 78.0808 30.1673 78.547 30.1719C79.0094 30.1833 79.4439 30.0983 79.8504 29.9167C80.2569 29.7352 80.6333 29.4694 80.9795 29.1194C81.3256 28.7693 81.6493 28.3619 81.9507 27.897C82.1429 27.5973 82.3037 27.3299 82.4333 27.0949C82.5736 26.8567 82.6902 26.637 82.783 26.4358C82.8866 26.2315 82.981 26.0357 83.0663 25.8483C83.1515 25.661 83.2406 25.4667 83.3335 25.2655C83.4263 25.0643 83.5268 24.8492 83.6349 24.6204C83.7538 24.3884 83.8932 24.1273 84.0532 23.8369C83.1841 24.6288 82.4405 25.242 81.8224 25.6765C81.2044 26.1111 80.6836 26.4099 80.2601 26.5731C79.8436 26.7401 79.5145 26.7976 79.2728 26.7455C79.038 26.6972 78.8674 26.5897 78.761 26.4229C78.6585 26.2492 78.6121 26.0389 78.622 25.7919C78.6358 25.5381 78.6825 25.298 78.7622 25.0715C78.9666 24.7335 79.2418 24.3894 79.588 24.0394C79.938 23.6824 80.3203 23.3568 80.7348 23.0625C81.1532 22.7613 81.5856 22.5084 82.0319 22.3037C82.4821 22.0921 82.9129 21.9645 83.3245 21.921C83.7361 21.8774 84.1051 21.9275 84.4314 22.0714C84.7647 22.219 85.0237 22.5014 85.2083 22.9187C85.219 22.9156 85.184 22.9954 85.1033 23.1583C85.0295 23.3249 84.9252 23.5468 84.7904 23.8241C84.6625 24.1051 84.5065 24.4292 84.3221 24.7964C84.1485 25.1604 83.9654 25.5417 83.7728 25.9403C83.5801 26.3389 83.384 26.7355 83.1845 27.1303C82.9918 27.5289 82.8144 27.8998 82.6522 28.2431C82.3048 28.8899 81.8822 29.4276 81.3845 29.8564C80.8868 30.2851 80.3656 30.5928 79.8211 30.7794C79.2835 30.9699 78.7493 31.0315 78.2185 30.9642C77.6946 30.9008 77.2292 30.6984 76.8225 30.3571C76.8017 30.3456 76.7748 30.3128 76.7416 30.2584C76.7154 30.2079 76.7018 30.1508 76.7008 30.0872C76.7067 30.0274 76.7357 29.9667 76.7876 29.9052C76.8357 29.8506 76.9257 29.81 77.0575 29.7835ZM79.3061 25.3848C79.245 25.6756 79.2767 25.8553 79.4011 25.9239C79.5294 25.9856 79.7172 25.9719 79.9645 25.8829C80.2226 25.7908 80.5219 25.6403 80.8624 25.4313C81.2029 25.2224 81.5587 24.9858 81.9296 24.7216C82.3113 24.4542 82.688 24.1796 83.0597 23.8978C83.4352 23.609 83.7832 23.3456 84.1037 23.1076C84.1494 23.0246 84.1706 22.9371 84.1672 22.8451C84.1746 22.75 84.1049 22.6801 83.9583 22.6354C83.7212 22.5587 83.4512 22.5496 83.1486 22.6082C82.8566 22.6636 82.5541 22.7628 82.241 22.9056C81.9317 23.0416 81.6209 23.2129 81.3088 23.4194C81.0074 23.6229 80.7248 23.8412 80.4611 24.0744C80.2011 24.3007 79.9676 24.5281 79.7606 24.7565C79.5605 24.9887 79.409 25.1981 79.3061 25.3848ZM89.2628 32.9548C89.0054 32.7678 88.8382 32.5315 88.7613 32.2457C88.6914 31.9638 88.6788 31.6594 88.7237 31.3326C88.7686 31.0059 88.8615 30.6739 89.0022 30.3369C89.1536 29.9967 89.322 29.6749 89.5073 29.3714C89.7909 28.9058 90.1289 28.4971 90.521 28.1454C90.9201 27.7975 91.3213 27.5274 91.7248 27.3351C92.1389 27.1397 92.5319 27.0318 92.9037 27.0114C93.2862 26.9879 93.6009 27.0712 93.8476 27.2613C94.1082 27.459 94.2621 27.7195 94.3092 28.043C94.3632 28.3702 94.3471 28.7264 94.261 29.1116C94.1749 29.4968 94.0336 29.8921 93.8371 30.2976C93.6445 30.6962 93.4353 31.0676 93.2095 31.4119C92.9501 31.8007 92.6506 32.1314 92.3111 32.404C91.9716 32.6766 91.6207 32.8798 91.2585 33.0137C90.9032 33.1513 90.5472 33.2165 90.1907 33.2093C89.8449 33.199 89.5356 33.1141 89.2628 32.9548ZM93.4181 27.7952C93.2052 27.6418 92.9509 27.5963 92.6552 27.6586C92.3701 27.7178 92.07 27.8454 91.7547 28.0412C91.4502 28.2339 91.147 28.4814 90.8452 28.7838C90.5472 29.0792 90.2856 29.3902 90.0605 29.7168C89.8957 29.9505 89.7443 30.2006 89.6064 30.4671C89.4685 30.7336 89.3682 30.9893 89.3054 31.2341C89.2495 31.4827 89.2456 31.7104 89.2939 31.9173C89.3528 32.121 89.4895 32.282 89.7038 32.4001C89.8728 32.5023 90.0849 32.5426 90.3402 32.521C90.6024 32.5033 90.8736 32.4364 91.1538 32.3205C91.4379 32.1976 91.7164 32.0357 91.9895 31.8346C92.2694 31.6374 92.5083 31.4085 92.706 31.1479C92.9182 30.8773 93.0963 30.5788 93.2401 30.2525C93.3946 29.923 93.5047 29.6006 93.5704 29.2853C93.6429 28.9737 93.6669 28.685 93.6422 28.419C93.6283 28.1499 93.5536 27.942 93.4181 27.7952ZM94.1851 30.4759C94.043 30.4066 93.9538 30.3394 93.9176 30.2743C93.8813 30.2093 93.8731 30.1507 93.8928 30.0985C93.9164 30.0393 93.9572 29.9897 94.0154 29.9497C94.0773 29.9027 94.1389 29.8645 94.2002 29.8352L95.7636 29.9668C95.9851 29.4669 96.2238 28.9766 96.4798 28.4957C96.7427 28.0187 97.0186 27.6164 97.3073 27.2888C97.5998 26.9542 97.8985 26.7313 98.2033 26.6198C98.5188 26.5053 98.838 26.564 99.1608 26.796C99.3267 26.8875 99.4518 27.0285 99.536 27.2192C99.624 27.4029 99.6761 27.6028 99.6921 27.819C99.7151 28.039 99.7062 28.2594 99.6656 28.4804C99.6318 28.7052 99.573 28.8936 99.4892 29.0457C99.4442 29.111 99.3895 29.153 99.3252 29.1716C99.2646 29.1833 99.2064 29.1828 99.1503 29.1699C99.0981 29.1501 99.0463 29.1216 98.9948 29.0842C98.954 29.0437 98.9274 29.002 98.915 28.9591C99.0245 28.6949 99.092 28.4662 99.1174 28.2729C99.1498 28.0834 99.1527 27.9228 99.1262 27.791C99.1104 27.6561 99.074 27.5504 99.017 27.4739C98.96 27.3974 98.9038 27.344 98.8485 27.3135C98.6235 27.1985 98.4137 27.1865 98.2193 27.2776C98.0318 27.3726 97.841 27.5469 97.6471 27.8006C97.457 28.0473 97.2588 28.3662 97.0523 28.7572C96.8565 29.145 96.6395 29.5797 96.4011 30.0613L99.0869 30.487C99.1363 30.5773 99.1538 30.6681 99.1396 30.7594C99.1291 30.8438 99.0355 30.9319 98.8587 31.0237L96.0996 30.7064L93.9244 35.3889C93.8801 35.4366 93.8188 35.4659 93.7407 35.4769C93.6663 35.481 93.5927 35.4675 93.5197 35.4363C93.443 35.412 93.383 35.3654 93.3398 35.2966C93.2998 35.2384 93.2976 35.1606 93.3333 35.0631L95.4782 30.6072L94.1851 30.4759ZM104.832 41.4548C104.815 41.2563 104.858 41.0318 104.959 40.7815C105.068 40.5351 105.19 40.282 105.324 40.0224C105.469 39.7597 105.61 39.5039 105.747 39.255C105.895 39.003 105.997 38.7757 106.055 38.5731C105.338 39.1061 104.723 39.4931 104.212 39.734C103.711 39.9718 103.292 40.1105 102.955 40.15C102.628 40.1863 102.372 40.1443 102.186 40.0237C102.004 39.8963 101.876 39.7357 101.803 39.542C101.74 39.3451 101.718 39.1393 101.738 38.9246C101.761 38.7029 101.812 38.5107 101.893 38.3478C101.99 38.0585 102.159 37.742 102.403 37.3984C102.657 37.0518 102.948 36.7119 103.276 36.3788C103.611 36.0495 103.967 35.7458 104.346 35.4678C104.735 35.1866 105.117 34.9687 105.49 34.8141C105.871 34.6633 106.225 34.5927 106.553 34.6024C106.886 34.6051 107.165 34.7276 107.392 34.9699C107.538 35.0323 107.648 35.102 107.723 35.1792C107.808 35.2533 107.861 35.3455 107.881 35.4559C107.902 35.5662 107.887 35.6982 107.839 35.8517C107.794 35.9983 107.722 36.1791 107.621 36.3941C107.238 37.0571 106.941 37.637 106.73 38.1338C106.526 38.6344 106.36 39.0835 106.231 39.4811C106.102 39.8787 105.988 40.2398 105.89 40.5645C105.799 40.893 105.675 41.2166 105.518 41.5353C105.457 41.6459 105.381 41.7171 105.292 41.7488C105.206 41.7737 105.125 41.7739 105.048 41.7496C104.967 41.7323 104.904 41.6926 104.857 41.6307C104.816 41.5725 104.808 41.5139 104.832 41.4548ZM107.117 35.8863C107.073 35.5736 106.944 35.3812 106.732 35.3091C106.519 35.237 106.259 35.2512 105.951 35.352C105.654 35.4496 105.327 35.6167 104.972 35.8532C104.62 36.0829 104.279 36.3501 103.948 36.6549C103.618 36.9596 103.319 37.2815 103.051 37.6205C102.794 37.9565 102.604 38.2757 102.483 38.5782C102.408 38.9426 102.423 39.1941 102.527 39.3325C102.631 39.4709 102.791 39.5321 103.007 39.5161C103.227 39.4931 103.485 39.4098 103.78 39.2662C104.076 39.1226 104.374 38.9579 104.674 38.7721C104.979 38.5794 105.264 38.3806 105.53 38.1758C105.807 37.9678 106.035 37.7915 106.214 37.6467L107.117 35.8863ZM112.616 42.4189C112.793 42.1469 112.975 41.8733 113.163 41.5982C113.35 41.3231 113.546 41.0659 113.75 40.8268C113.958 40.5807 114.173 40.3615 114.396 40.169C114.62 39.9766 114.85 39.8286 115.087 39.7251C115.332 39.6253 115.583 39.5789 115.84 39.5857C116.105 39.5963 116.377 39.6832 116.656 39.8463C116.85 39.953 116.953 40.1179 116.965 40.341C116.981 40.5572 116.947 40.7907 116.863 41.0417C116.786 41.2966 116.68 41.545 116.547 41.7869C116.42 42.0327 116.315 42.2317 116.231 42.3838C116.105 42.3681 116.015 42.3185 115.962 42.2351C115.916 42.1556 115.893 42.0575 115.894 41.9409C115.906 41.8213 115.929 41.6897 115.963 41.5462C115.997 41.4027 116.034 41.2611 116.075 41.1215C116.123 40.9856 116.16 40.8528 116.187 40.7231C116.22 40.5973 116.235 40.4883 116.232 40.3964C116.138 40.2725 116.007 40.2231 115.84 40.2482C115.673 40.2732 115.493 40.3455 115.301 40.465C115.113 40.5776 114.913 40.7286 114.7 40.9179C114.495 41.111 114.298 41.3134 114.109 41.5248C113.924 41.7294 113.753 41.9328 113.597 42.135C113.44 42.3372 113.32 42.5143 113.236 42.6664C113.129 42.8776 113.026 43.1137 112.927 43.3748C112.832 43.6289 112.765 43.8806 112.727 44.1299C112.689 44.3792 112.69 44.6142 112.731 44.8349C112.775 45.0487 112.883 45.2297 113.053 45.3778C113.316 45.5226 113.56 45.6031 113.786 45.6192C114.022 45.6322 114.235 45.6054 114.425 45.5388C114.625 45.4692 114.806 45.3704 114.967 45.2426C115.127 45.1148 115.274 44.9793 115.407 44.8363C115.544 44.6863 115.662 44.5444 115.763 44.4107C115.875 44.2738 115.971 44.1646 116.052 44.0831C116.258 44.1338 116.395 44.2134 116.461 44.3221C116.534 44.4346 116.55 44.5288 116.508 44.6049C116.333 44.9229 116.102 45.2104 115.816 45.4675C115.534 45.7176 115.221 45.91 114.876 46.0445C114.539 46.1829 114.183 46.2481 113.808 46.2402C113.434 46.2322 113.064 46.1273 112.698 45.9253C112.386 45.7539 112.184 45.5161 112.09 45.212C112 44.901 111.973 44.5749 112.008 44.2335C112.049 43.896 112.13 43.5618 112.249 43.231C112.375 42.9039 112.497 42.6332 112.616 42.4189ZM117.355 44.8826C117.284 44.8974 117.188 44.8671 117.068 44.7916C116.958 44.713 116.862 44.6244 116.781 44.5257C116.708 44.4309 116.672 44.3394 116.676 44.2512C116.683 44.1561 116.772 44.0926 116.943 44.0605C117.014 44.0457 117.082 44.0467 117.145 44.0633C117.218 44.0769 117.286 44.092 117.349 44.1086C117.423 44.1222 117.487 44.1212 117.54 44.1057C117.601 44.094 117.656 44.052 117.704 43.9798C117.883 43.6725 118.082 43.3678 118.303 43.0657C118.53 42.7675 118.777 42.5247 119.042 42.3375C119.308 42.1503 119.596 42.0435 119.908 42.0172C120.227 41.9946 120.567 42.1054 120.928 42.3496C121.067 42.4258 121.203 42.5461 121.338 42.7105C121.476 42.868 121.595 43.0458 121.693 43.2441C121.795 43.4355 121.862 43.6396 121.896 43.8564C121.934 44.0664 121.919 44.2654 121.851 44.4535C121.861 44.5493 121.786 44.6205 121.625 44.667C121.464 44.7136 121.254 44.7511 120.995 44.7796C120.74 44.8011 120.459 44.8128 120.151 44.8146C119.844 44.8164 119.547 44.8151 119.261 44.8107C118.982 44.8101 118.735 44.809 118.519 44.8074C118.304 44.8058 118.162 44.809 118.095 44.8169C117.988 45.1094 117.876 45.4176 117.761 45.7416C117.645 46.0655 117.564 46.3767 117.517 46.6751C117.469 46.9736 117.466 47.2419 117.506 47.4803C117.556 47.7155 117.685 47.8902 117.893 48.0046C118.185 48.193 118.469 48.2909 118.745 48.2984C119.027 48.3097 119.29 48.2655 119.534 48.1658C119.779 48.0661 120.001 47.9319 120.202 47.7633C120.41 47.5985 120.589 47.4308 120.737 47.2601C120.892 47.0932 121.012 46.9479 121.099 46.8241C121.196 46.6973 121.255 46.6308 121.276 46.6246C121.375 46.625 121.462 46.6726 121.536 46.7674C121.613 46.8554 121.613 46.9861 121.536 47.1596C121.394 47.4331 121.166 47.7083 120.851 47.9854C120.536 48.2625 120.188 48.4853 119.806 48.6537C119.432 48.8259 119.043 48.9181 118.64 48.9302C118.247 48.9392 117.897 48.8227 117.589 48.5806C117.24 48.3794 117.015 48.1248 116.914 47.8169C116.818 47.5021 116.783 47.1721 116.811 46.827C116.85 46.4788 116.927 46.1339 117.043 45.7923C117.16 45.4507 117.264 45.1475 117.355 44.8826ZM121.301 44.1506C121.248 43.7244 121.13 43.407 120.947 43.1983C120.765 42.9896 120.543 42.8358 120.282 42.737C120.126 42.6778 119.96 42.6764 119.784 42.733C119.613 42.7826 119.443 42.8783 119.274 43.0199C119.11 43.1546 118.953 43.325 118.803 43.531C118.658 43.7301 118.532 43.9494 118.427 44.189L121.301 44.1506ZM120.532 49.9865C121.037 49.021 121.466 48.2026 121.818 47.5313C122.17 46.86 122.462 46.3047 122.695 45.8653C122.928 45.4259 123.108 45.0834 123.235 44.8376C123.372 44.5887 123.469 44.4036 123.527 44.2822C123.592 44.1647 123.63 44.0956 123.642 44.0748C123.657 44.0472 123.666 44.0299 123.67 44.023C123.711 43.9646 123.771 43.9299 123.849 43.9189C123.927 43.9079 123.999 43.9161 124.066 43.9435C124.142 43.9677 124.204 44.0108 124.251 44.0728C124.298 44.1347 124.318 44.2045 124.312 44.2819L123.028 46.6842C123.395 46.2643 123.78 45.9583 124.183 45.766C124.594 45.5775 124.993 45.4734 125.383 45.4537C125.776 45.4271 126.144 45.4719 126.485 45.5881C126.834 45.708 127.129 45.8665 127.372 46.0635C127.451 46.1338 127.495 46.208 127.506 46.2862C127.524 46.3682 127.514 46.4437 127.476 46.5129C127.449 46.5789 127.397 46.6316 127.321 46.671C127.256 46.7072 127.185 46.722 127.108 46.7154C126.808 46.5232 126.499 46.3889 126.18 46.3125C125.873 46.233 125.565 46.203 125.257 46.2224C124.959 46.2388 124.671 46.2961 124.391 46.3944C124.119 46.4965 123.875 46.6281 123.66 46.7891C123.343 47.0201 123.062 47.2933 122.816 47.6085C122.581 47.9206 122.363 48.2422 122.163 48.5733C121.969 48.9083 121.792 49.2298 121.631 49.5378C121.477 49.8496 121.334 50.1176 121.201 50.342C121.153 50.4142 121.086 50.4539 121 50.4611C120.926 50.4652 120.851 50.4463 120.775 50.4044C120.702 50.3732 120.637 50.3193 120.58 50.2429C120.534 50.1633 120.518 50.0778 120.532 49.9865ZM127.857 47.8584L126.726 47.654C126.661 47.5914 126.62 47.519 126.602 47.4371C126.577 47.3513 126.571 47.2715 126.585 47.1979C126.598 47.1242 126.627 47.0636 126.672 47.0159C126.709 46.9644 126.76 46.9381 126.823 46.9372L128.251 47.1428L129.848 44.1966C129.918 44.1182 129.999 44.0773 130.091 44.0739C130.183 44.0705 130.262 44.0913 130.327 44.1363C130.403 44.1783 130.459 44.2406 130.495 44.3233C130.534 44.399 130.545 44.4772 130.528 44.5578C130.396 44.7645 130.26 44.9869 130.119 45.2251C129.983 45.4563 129.845 45.691 129.704 45.9292C129.575 46.1642 129.451 46.3977 129.332 46.6297C129.217 46.8547 129.118 47.0663 129.036 47.2644L131.003 47.497C131.115 47.5227 131.186 47.575 131.214 47.6539C131.247 47.7258 131.249 47.8037 131.221 47.8873C131.204 47.9679 131.162 48.0351 131.096 48.089C131.031 48.1429 130.955 48.1646 130.871 48.1542L128.642 47.98C128.603 48.0491 128.515 48.2169 128.378 48.4834C128.244 48.7431 128.083 49.0511 127.895 49.4075C127.708 49.7639 127.507 50.1445 127.293 50.5492C127.079 50.954 126.875 51.3327 126.68 51.6853C126.493 52.0417 126.327 52.3513 126.182 52.614C126.048 52.8736 125.962 53.038 125.924 53.1071C125.784 53.3276 125.656 53.4055 125.538 53.3407C125.421 53.276 125.323 53.1501 125.246 52.9633L127.857 47.8584ZM130.529 55.6185C130.513 55.4199 130.555 55.1955 130.657 54.9452C130.766 54.6987 130.887 54.4457 131.021 54.1861C131.166 53.9233 131.307 53.6675 131.444 53.4187C131.592 53.1667 131.695 52.9394 131.753 52.7367C131.035 53.2697 130.421 53.6567 129.909 53.8977C129.409 54.1355 128.99 54.2742 128.653 54.3136C128.326 54.35 128.07 54.3079 127.884 54.1874C127.702 54.06 127.574 53.8994 127.5 53.7056C127.438 53.5088 127.416 53.303 127.435 53.0882C127.458 52.8666 127.51 52.6743 127.591 52.5115C127.687 52.2221 127.857 51.9056 128.1 51.5621C128.355 51.2154 128.646 50.8756 128.973 50.5425C129.308 50.2132 129.665 49.9095 130.043 49.6314C130.433 49.3502 130.814 49.1324 131.188 48.9778C131.568 48.827 131.923 48.7564 132.251 48.766C132.583 48.7687 132.863 48.8912 133.09 49.1335C133.235 49.1959 133.346 49.2657 133.42 49.3429C133.506 49.417 133.559 49.5092 133.579 49.6195C133.599 49.7299 133.585 49.8618 133.536 50.0153C133.492 50.1619 133.419 50.3427 133.319 50.5578C132.935 51.2208 132.638 51.8006 132.427 52.2974C132.224 52.798 132.057 53.2471 131.928 53.6448C131.799 54.0424 131.686 54.4035 131.588 54.7282C131.497 55.0566 131.373 55.3802 131.215 55.699C131.154 55.8096 131.079 55.8808 130.989 55.9125C130.903 55.9373 130.822 55.9376 130.745 55.9133C130.665 55.8959 130.601 55.8563 130.554 55.7943C130.514 55.7362 130.506 55.6776 130.529 55.6185ZM132.814 50.05C132.77 49.7373 132.642 49.5449 132.429 49.4727C132.217 49.4006 131.956 49.4149 131.649 49.5156C131.351 49.6132 131.025 49.7803 130.669 50.0169C130.317 50.2466 129.976 50.5138 129.646 50.8185C129.316 51.1233 129.017 51.4452 128.749 51.7842C128.491 52.1201 128.302 52.4393 128.18 52.7418C128.106 53.1063 128.12 53.3577 128.224 53.4962C128.328 53.6346 128.488 53.6958 128.704 53.6797C128.924 53.6568 129.182 53.5735 129.478 53.4299C129.773 53.2863 130.071 53.1216 130.372 52.9358C130.676 52.743 130.962 52.5443 131.228 52.3394C131.505 52.1315 131.733 51.9551 131.912 51.8104L132.814 50.05ZM135.102 49.9721C135.155 49.9742 135.212 49.9836 135.275 50.0003C135.338 50.0169 135.394 50.0386 135.442 50.0653C135.498 50.0958 135.544 50.1347 135.581 50.1821C135.618 50.2295 135.635 50.2885 135.632 50.3591C135.384 50.8085 135.119 51.2978 134.836 51.827C134.564 52.3531 134.287 52.8896 134.003 53.4365C133.731 53.9803 133.458 54.5152 133.186 55.0414C132.914 55.5675 132.663 56.0556 132.433 56.5057C132.383 56.6132 132.312 56.6775 132.219 56.6985C132.126 56.7195 132.042 56.709 131.966 56.6671C131.897 56.629 131.846 56.5652 131.815 56.4756C131.779 56.3929 131.792 56.2962 131.853 56.1856L135.102 49.9721ZM136.143 47.788C136.193 47.6981 136.256 47.6565 136.334 47.6631C136.415 47.6629 136.494 47.6837 136.57 47.7256C136.722 47.8094 136.787 47.9127 136.764 48.0355C136.752 48.1551 136.71 48.2806 136.638 48.412C136.55 48.4721 136.463 48.5004 136.374 48.4968C136.286 48.4933 136.21 48.4602 136.145 48.3975C136.088 48.3387 136.052 48.256 136.039 48.1495C136.032 48.0468 136.067 47.9263 136.143 47.788ZM136.171 50.8047C136.216 50.7393 136.274 50.6993 136.345 50.6845C136.416 50.6697 136.485 50.6759 136.551 50.7033C136.621 50.7238 136.679 50.765 136.726 50.8269C136.777 50.882 136.81 50.9451 136.825 51.0164L134.507 55.1473C134.913 54.722 135.301 54.2959 135.671 53.8691C136.053 53.4392 136.431 53.0711 136.807 52.7646C137.187 52.4513 137.569 52.2334 137.952 52.111C138.339 51.9816 138.742 52.0102 139.162 52.1966C139.388 52.294 139.538 52.4626 139.613 52.7023C139.692 52.9351 139.717 53.2099 139.686 53.5267C139.663 53.8473 139.594 54.2013 139.479 54.5889C139.369 54.9696 139.231 55.3581 139.067 55.7542C138.914 56.1473 138.744 56.5363 138.559 56.921C138.374 57.3058 138.197 57.6591 138.029 57.9809C137.861 58.3027 137.706 58.5827 137.566 58.8209C137.433 59.0629 137.332 59.2373 137.264 59.3441C137.151 59.4349 137.023 59.4633 136.879 59.4293C136.739 59.406 136.658 59.2986 136.638 59.1069C136.703 58.9718 136.824 58.7452 136.999 58.4272C137.178 58.1022 137.375 57.7285 137.59 57.3061C137.811 56.8875 138.029 56.444 138.242 55.9755C138.466 55.504 138.645 55.0572 138.778 54.635C138.922 54.2097 138.999 53.833 139.009 53.5048C139.029 53.1735 138.949 52.9353 138.767 52.7902C138.61 52.6673 138.389 52.6673 138.105 52.7902C137.828 52.9168 137.516 53.1146 137.169 53.3833C136.83 53.6559 136.473 53.9772 136.097 54.3473C135.729 54.7211 135.375 55.0938 135.035 55.4653C134.702 55.8406 134.402 56.1889 134.134 56.5103C133.867 56.8317 133.67 57.0835 133.542 57.2657C133.491 57.3095 133.425 57.3316 133.344 57.3319C133.262 57.3321 133.184 57.3113 133.108 57.2694C133.035 57.2382 132.968 57.1878 132.907 57.1183C132.853 57.0525 132.83 56.9721 132.837 56.877L136.171 50.8047ZM52.7308 36.5228C52.716 36.4516 52.7403 36.3748 52.8036 36.2926C52.8632 36.2172 52.9328 36.1564 53.0124 36.1101C53.0881 36.0708 53.1663 36.0598 53.2469 36.0771C53.3167 36.0976 53.3595 36.1753 53.3753 36.3102C53.4241 36.6796 53.5267 36.984 53.6832 37.2235C53.8358 37.4699 54.0276 37.6207 54.2586 37.6759C54.4827 37.7273 54.7412 37.667 55.0343 37.495C55.3274 37.323 55.6388 37.0034 55.9684 36.5361C56.2767 36.075 56.587 35.561 56.8995 34.9941C57.2157 34.4203 57.5327 33.8288 57.8504 33.2197C58.1681 32.6106 58.4877 31.9981 58.8092 31.3821C59.1414 30.763 59.4722 30.1791 59.8016 29.6306C59.849 29.5936 59.908 29.5765 59.9785 29.5794C60.0529 29.5753 60.1212 29.5904 60.1834 29.6247C60.2456 29.659 60.2968 29.7052 60.3368 29.7633C60.3876 29.8184 60.4063 29.8827 60.3927 29.9564C60.0321 30.5779 59.6991 31.174 59.3935 31.7447C59.0918 32.3085 58.7919 32.8689 58.494 33.4258C58.203 33.9865 57.8959 34.5518 57.5727 35.1218C57.2602 35.6887 56.9042 36.2857 56.5045 36.9127C56.3857 37.1447 56.2216 37.3607 56.0121 37.5607C55.8027 37.7608 55.5736 37.9229 55.3249 38.0472C55.0761 38.1715 54.8222 38.2479 54.5631 38.2764C54.2933 38.3079 54.0386 38.2712 53.799 38.1662C53.5595 38.0612 53.3461 37.876 53.1589 37.6106C52.9678 37.352 52.8252 36.9895 52.7308 36.5228ZM60.6902 28.4844C60.5772 28.395 60.5206 28.3097 60.5203 28.2285C60.5238 28.1403 60.5585 28.0692 60.6243 28.0153C60.7007 27.9583 60.7888 27.9212 60.8884 27.904C60.9949 27.8907 61.0912 27.9122 61.1773 27.9686C61.2534 28.0105 61.2773 28.0733 61.2492 28.157C61.2212 28.2407 61.1957 28.3033 61.1728 28.3447C61.0585 28.5521 60.8976 28.5987 60.6902 28.4844ZM59.5169 33.5569C59.4456 33.5717 59.3497 33.5413 59.2291 33.4658C59.1192 33.3872 59.0238 33.2986 58.9429 33.2C58.869 33.1051 58.8338 33.0136 58.8374 32.9255C58.8447 32.8303 58.9338 32.7668 59.1047 32.7348C59.176 32.72 59.243 32.7209 59.306 32.7376C59.3796 32.7511 59.4479 32.7662 59.5109 32.7829C59.5845 32.7964 59.6481 32.7954 59.7018 32.7799C59.7623 32.7682 59.817 32.7263 59.8658 32.654C60.0442 32.3467 60.2437 32.042 60.4642 31.74C60.6917 31.4417 60.9382 31.199 61.2036 31.0118C61.4691 30.8245 61.7578 30.7178 62.0697 30.6914C62.3886 30.6689 62.7287 30.7797 63.0899 31.0238C63.2281 31.1 63.3646 31.2203 63.4994 31.3847C63.6379 31.5422 63.7562 31.7201 63.8542 31.9183C63.9561 32.1097 64.0239 32.3138 64.0576 32.5307C64.0951 32.7406 64.08 32.9397 64.0124 33.1277C64.0227 33.2236 63.9474 33.2947 63.7866 33.3413C63.6257 33.3878 63.4157 33.4253 63.1567 33.4538C62.9014 33.4754 62.6201 33.487 62.3126 33.4888C62.0052 33.4906 61.7084 33.4893 61.4224 33.4849C61.1433 33.4843 60.896 33.4832 60.6806 33.4817C60.4651 33.4801 60.3237 33.4832 60.2562 33.4911C60.1491 33.7836 60.0378 34.0919 59.9223 34.4158C59.8069 34.7398 59.7255 35.051 59.6782 35.3494C59.6309 35.6478 59.6272 35.9162 59.6671 36.1545C59.7177 36.3897 59.8467 36.5645 60.0541 36.6788C60.3469 36.8672 60.6309 36.9652 60.9062 36.9727C61.1884 36.984 61.4516 36.9398 61.6959 36.8401C61.9402 36.7403 62.1628 36.6062 62.3639 36.4376C62.5719 36.2728 62.75 36.105 62.8982 35.9343C63.0533 35.7674 63.1739 35.6221 63.2602 35.4984C63.3571 35.3715 63.4163 35.305 63.4378 35.2988C63.5367 35.2992 63.6231 35.3469 63.697 35.4417C63.7747 35.5296 63.7748 35.6603 63.6972 35.8339C63.5555 36.1073 63.3271 36.3826 63.0122 36.6597C62.6972 36.9368 62.3491 37.1595 61.9678 37.3279C61.5935 37.5002 61.2046 37.5923 60.8014 37.6044C60.4088 37.6134 60.0584 37.4969 59.7501 37.2549C59.4014 37.0536 59.1766 36.7991 59.0759 36.4912C58.979 36.1764 58.9445 35.8464 58.9725 35.5013C59.0112 35.153 59.0887 34.8081 59.2048 34.4665C59.321 34.1249 59.425 33.8217 59.5169 33.5569ZM63.4628 32.8248C63.4092 32.3987 63.2912 32.0813 63.1088 31.8725C62.9264 31.6638 62.7047 31.5101 62.4436 31.4113C62.287 31.352 62.121 31.3506 61.9456 31.4072C61.774 31.4569 61.6042 31.5525 61.4359 31.6941C61.2715 31.8289 61.1146 31.9992 60.965 32.2052C60.8192 32.4043 60.6938 32.6236 60.5888 32.8632L63.4628 32.8248ZM67.4036 30.2376C67.4603 30.2328 67.5171 30.228 67.5738 30.2232C67.6412 30.2153 67.7011 30.2213 67.7533 30.241C67.8093 30.2539 67.8489 30.2802 67.872 30.32C67.902 30.3636 67.9118 30.4276 67.9014 30.512L63.2481 39.1017C63.1754 39.1518 63.1057 39.172 63.039 39.1622C62.9684 39.1594 62.9093 39.1358 62.8616 39.0915C62.8101 39.0541 62.7697 39.0048 62.7404 38.9436C62.7179 38.8861 62.7132 38.8294 62.726 38.7734L67.4036 30.2376ZM68.7206 30.9635C68.7774 30.9587 68.8341 30.9539 68.8908 30.9491C68.9583 30.9412 69.0181 30.9472 69.0703 30.9669C69.1263 30.9798 69.1659 31.0061 69.189 31.0459C69.2191 31.0895 69.2289 31.1535 69.2184 31.2379L64.5651 39.8276C64.4925 39.8777 64.4228 39.8979 64.356 39.8881C64.2855 39.8853 64.2263 39.8617 64.1787 39.8174C64.1272 39.78 64.0867 39.7307 64.0574 39.6695C64.035 39.612 64.0302 39.5553 64.043 39.4993L68.7206 30.9635ZM67.4739 41.566L68.0571 35.0866C68.0475 34.9732 68.0794 34.8826 68.1528 34.8149C68.23 34.7402 68.3165 34.6978 68.4123 34.6875C68.5081 34.6772 68.5971 34.7037 68.6794 34.7671C68.7723 34.8273 68.8283 34.9303 68.8472 35.0759L68.2404 40.6905L71.9833 36.0338C72.0362 36.0359 72.0941 36.0453 72.1571 36.0619C72.2269 36.0824 72.2876 36.1113 72.3391 36.1487C72.3975 36.1899 72.4414 36.2412 72.4707 36.3024C72.5 36.3637 72.5007 36.4361 72.4726 36.5198C72.2856 36.7773 72.0394 37.1013 71.734 37.4918C71.4286 37.8823 71.1087 38.2829 70.7743 38.6935C70.4436 39.0971 70.1225 39.4835 69.8109 39.8526C69.51 40.2185 69.2722 40.5111 69.0973 40.7302C68.9897 40.8601 68.8465 41.0381 68.6678 41.2641C68.493 41.4833 68.2979 41.7228 68.0825 41.9826C67.8741 42.2463 67.653 42.5166 67.4193 42.7934C67.1887 43.0809 66.9658 43.3546 66.7504 43.6145C66.542 43.8782 66.3453 44.1124 66.1605 44.3169C65.9787 44.5322 65.8305 44.7029 65.7159 44.8291C65.6564 44.9044 65.5806 44.9438 65.4886 44.9471C65.3966 44.9505 65.311 44.9259 65.2319 44.8733C65.1527 44.8206 65.0885 44.7491 65.0391 44.6588C64.9966 44.5723 64.9967 44.4822 65.0393 44.3886L67.4739 41.566ZM77.0187 41.5673C76.8766 41.498 76.7875 41.4309 76.7512 41.3658C76.7149 41.3008 76.7067 41.2421 76.7265 41.1899C76.75 41.1308 76.7909 41.0812 76.849 41.0411C76.911 40.9942 76.9726 40.956 77.0338 40.9267L78.5973 41.0583C78.8187 40.5584 79.0574 40.068 79.3134 39.5872C79.5764 39.1101 79.8522 38.7078 80.1409 38.3802C80.4335 38.0457 80.7321 37.8227 81.0369 37.7113C81.3524 37.5968 81.6716 37.6555 81.9944 37.8875C82.1603 37.9789 82.2854 38.12 82.3696 38.3106C82.4576 38.4944 82.5097 38.6943 82.5257 38.9105C82.5487 39.1304 82.5399 39.3509 82.4992 39.5719C82.4655 39.7966 82.4067 39.9851 82.3228 40.1372C82.2778 40.2025 82.2231 40.2445 82.1588 40.2631C82.0983 40.2748 82.04 40.2742 81.984 40.2614C81.9318 40.2416 81.8799 40.213 81.8284 40.1756C81.7877 40.1351 81.7611 40.0934 81.7486 40.0505C81.8582 39.7864 81.9256 39.5577 81.9511 39.3644C81.9834 39.1749 81.9863 39.0143 81.9598 38.8825C81.944 38.7476 81.9076 38.6419 81.8506 38.5654C81.7936 38.4889 81.7375 38.4354 81.6822 38.4049C81.4571 38.2899 81.2474 38.278 81.0529 38.3691C80.8654 38.464 80.6747 38.6384 80.4808 38.892C80.2907 39.1388 80.0924 39.4577 79.8859 39.8486C79.6902 40.2365 79.4731 40.6712 79.2347 41.1527L81.9205 41.5785C81.9699 41.6688 81.9875 41.7596 81.9732 41.8509C81.9628 41.9353 81.8691 42.0234 81.6923 42.1152L78.9333 41.7978L76.758 46.4804C76.7137 46.5281 76.6525 46.5574 76.5743 46.5684C76.4999 46.5725 76.4263 46.5589 76.3533 46.5277C76.2766 46.5034 76.2166 46.4569 76.1735 46.388C76.1334 46.3299 76.1312 46.2521 76.1669 46.1546L78.3119 41.6987L77.0187 41.5673ZM82.3652 41.4585C82.4182 41.4606 82.4761 41.47 82.539 41.4867C82.6019 41.5033 82.6576 41.525 82.706 41.5517C82.7613 41.5822 82.8074 41.6211 82.8444 41.6685C82.8814 41.7159 82.8984 41.7749 82.8956 41.8455C82.6479 42.2949 82.3827 42.7842 82.1 43.3134C81.8281 43.8395 81.5504 44.376 81.267 44.9229C80.9943 45.4667 80.722 46.0016 80.4501 46.5278C80.1781 47.0539 79.9271 47.542 79.6971 47.9921C79.6468 48.0996 79.5753 48.1639 79.4826 48.1849C79.3899 48.2059 79.3055 48.1955 79.2295 48.1535C79.1604 48.1154 79.1099 48.0516 79.0782 47.962C79.0426 47.8793 79.0554 47.7826 79.1163 47.672L82.3652 41.4585ZM83.4068 39.2744C83.4563 39.1845 83.5198 39.1429 83.5973 39.1495C83.6786 39.1493 83.7572 39.1701 83.8333 39.212C83.9854 39.2958 84.0501 39.3991 84.0276 39.5219C84.0157 39.6415 83.9736 39.767 83.9012 39.8984C83.8139 39.9585 83.7263 39.9868 83.6381 39.9832C83.5499 39.9797 83.4735 39.9466 83.4089 39.884C83.3512 39.8251 83.3156 39.7424 83.3022 39.6359C83.2957 39.5332 83.3306 39.4127 83.4068 39.2744ZM84.9605 39.9144C85.0172 39.9096 85.0739 39.9048 85.1306 39.9C85.1981 39.8921 85.2579 39.8981 85.3101 39.9178C85.3661 39.9307 85.4057 39.957 85.4288 39.9968C85.4589 40.0404 85.4687 40.1044 85.4582 40.1888L80.805 48.7785C80.7323 48.8286 80.6626 48.8488 80.5958 48.839C80.5253 48.8362 80.4662 48.8126 80.4185 48.7683C80.367 48.7309 80.3266 48.6816 80.2972 48.6203C80.2748 48.5629 80.27 48.5062 80.2829 48.4502L84.9605 39.9144ZM86.2775 40.6403C86.3342 40.6355 86.3909 40.6307 86.4477 40.6259C86.5151 40.618 86.5749 40.624 86.6271 40.6437C86.6832 40.6566 86.7227 40.6829 86.7459 40.7227C86.7759 40.7663 86.7857 40.8303 86.7753 40.9147L82.122 49.5044C82.0493 49.5545 81.9796 49.5747 81.9129 49.5649C81.8423 49.5621 81.7832 49.5385 81.7355 49.4942C81.684 49.4568 81.6436 49.4075 81.6142 49.3463C81.5918 49.2888 81.587 49.2321 81.5999 49.1761L86.2775 40.6403ZM84.6026 47.3833C84.5313 47.3981 84.4354 47.3678 84.3147 47.2923C84.2048 47.2137 84.1094 47.125 84.0286 47.0264C83.9547 46.9316 83.9195 46.8401 83.923 46.7519C83.9304 46.6568 84.0195 46.5932 84.1904 46.5612C84.2616 46.5464 84.3287 46.5473 84.3916 46.564C84.4653 46.5775 84.5336 46.5926 84.5965 46.6093C84.6702 46.6229 84.7338 46.6219 84.7874 46.6064C84.848 46.5947 84.9026 46.5527 84.9515 46.4804C85.1299 46.1732 85.3293 45.8685 85.5499 45.5664C85.7774 45.2681 86.0239 45.0254 86.2893 44.8382C86.5547 44.651 86.8434 44.5442 87.1554 44.5178C87.4743 44.4953 87.8143 44.6061 88.1755 44.8503C88.3138 44.9265 88.4503 45.0468 88.585 45.2112C88.7236 45.3687 88.8419 45.5465 88.9399 45.7448C89.0418 45.9361 89.1095 46.1402 89.1432 46.3571C89.1807 46.5671 89.1657 46.7661 89.0981 46.9542C89.1084 47.05 89.0331 47.1212 88.8722 47.1677C88.7114 47.2142 88.5014 47.2518 88.2423 47.2802C87.9871 47.3018 87.7057 47.3135 87.3983 47.3153C87.0908 47.3171 86.7941 47.3158 86.5081 47.3114C86.229 47.3108 85.9817 47.3097 85.7662 47.3081C85.5508 47.3065 85.4093 47.3097 85.3419 47.3176C85.2347 47.6101 85.1234 47.9183 85.008 48.2422C84.8925 48.5662 84.8112 48.8774 84.7638 49.1758C84.7165 49.4742 84.7128 49.7426 84.7528 49.9809C84.8034 50.2161 84.9324 50.3909 85.1398 50.5052C85.4326 50.6936 85.7166 50.7916 85.9919 50.7991C86.2741 50.8104 86.5373 50.7662 86.7816 50.6665C87.0258 50.5668 87.2485 50.4326 87.4496 50.264C87.6576 50.0992 87.8357 49.9315 87.9838 49.7608C88.1389 49.5938 88.2596 49.4485 88.3458 49.3248C88.4428 49.198 88.502 49.1314 88.5234 49.1252C88.6223 49.1257 88.7087 49.1733 88.7827 49.2681C88.8604 49.356 88.8605 49.4868 88.7828 49.6603C88.6411 49.9337 88.4128 50.209 88.0978 50.4861C87.7829 50.7632 87.4348 50.9859 87.0535 51.1544C86.6791 51.3266 86.2903 51.4188 85.887 51.4309C85.4945 51.4399 85.1441 51.3233 84.8358 51.0813C84.487 50.8801 84.2623 50.6255 84.1616 50.3176C84.0647 50.0028 84.0302 49.6728 84.0582 49.3277C84.0969 48.9795 84.1743 48.6345 84.2905 48.293C84.4067 47.9514 84.5107 47.6481 84.6026 47.3833ZM88.5485 46.6512C88.4949 46.2251 88.3769 45.9077 88.1945 45.699C88.0121 45.4903 87.7903 45.3365 87.5293 45.2377C87.3727 45.1784 87.2067 45.1771 87.0313 45.2336C86.8597 45.2833 86.6898 45.3789 86.5216 45.5206C86.3572 45.6553 86.2002 45.8257 86.0506 46.0317C85.9048 46.2307 85.7795 46.4501 85.6744 46.6896L88.5485 46.6512ZM91.7131 52.3164C91.5417 52.4474 91.3172 52.585 91.0393 52.7293C90.7615 52.8736 90.4671 52.9908 90.1561 53.0807C89.8451 53.1707 89.5286 53.2216 89.2066 53.2335C88.8953 53.2422 88.6118 53.176 88.356 53.035C88.2454 52.9741 88.1631 52.9107 88.1092 52.8449C88.0622 52.783 88.0244 52.7126 87.9958 52.6337C87.9779 52.5517 87.9691 52.4613 87.9696 52.3624C87.97 52.2635 87.9658 52.1485 87.9569 52.0174C88.0852 51.6374 88.2621 51.2347 88.4877 50.8091C88.7201 50.3874 88.989 49.9813 89.2944 49.5907C89.6067 49.204 89.9421 48.8571 90.3007 48.5499C90.67 48.2397 91.0484 48.0111 91.4359 47.8641C91.8303 47.7209 92.2258 47.682 92.6224 47.7474C93.0298 47.8097 93.4261 48.0146 93.8114 48.3622C94.0929 47.9495 94.3365 47.5159 94.542 47.0613C94.7513 46.5997 94.977 46.1247 95.2192 45.6363C95.2573 45.5671 95.3151 45.5359 95.3925 45.5425C95.4738 45.5423 95.5544 45.5596 95.6342 45.5946C95.7248 45.6265 95.8028 45.665 95.8681 45.71C95.9403 45.7588 95.9811 45.7993 95.9904 45.8315C95.6406 46.4499 95.3193 47.0165 95.0266 47.5312C94.7408 48.0497 94.4702 48.5405 94.2149 49.0037C93.9634 49.46 93.7196 49.9025 93.4833 50.3311C93.2471 50.7598 93.0051 51.1988 92.7574 51.6482C92.5167 52.1014 92.2591 52.5768 91.9847 53.0746C91.7173 53.5762 91.4197 54.1243 91.092 54.7188C91.0656 54.8485 91.0038 54.9361 90.9066 54.9817C90.8163 55.031 90.7274 55.0451 90.6399 55.024C90.5524 55.0028 90.4786 54.9486 90.4185 54.8614C90.3653 54.778 90.3608 54.6718 90.4048 54.5429L91.7131 52.3164ZM93.0615 48.6925C92.8216 48.5062 92.5327 48.4416 92.1948 48.4987C91.8676 48.5527 91.5264 48.6892 91.1714 48.9082C90.8202 49.1202 90.4772 49.3909 90.1425 49.7201C89.8116 50.0425 89.5278 50.3774 89.2913 50.7248C89.0655 51.069 88.9037 51.4035 88.8059 51.7281C88.7081 52.0528 88.7185 52.32 88.8373 52.5297C89.0102 52.6249 89.2119 52.6595 89.4426 52.6334C89.6772 52.6005 89.9184 52.5306 90.1665 52.424C90.4215 52.3212 90.6741 52.19 90.9243 52.0304C91.1852 51.8678 91.425 51.7025 91.6437 51.5346C91.8625 51.3667 92.0455 51.2062 92.193 51.0531C92.3512 50.897 92.457 50.7705 92.5103 50.6737C92.5522 50.5976 92.6265 50.4628 92.7332 50.2693C92.8399 50.0757 92.9347 49.871 93.0176 49.6553C93.1073 49.4434 93.163 49.2442 93.1846 49.0578C93.2131 48.8752 93.1721 48.7535 93.0615 48.6925ZM101.14 57.5121C100.968 57.643 100.744 57.7806 100.466 57.9249C100.188 58.0692 99.8936 58.1864 99.5826 58.2764C99.2716 58.3664 98.9551 58.4173 98.6331 58.4291C98.3219 58.4378 98.0383 58.3717 97.7825 58.2307C97.6719 58.1697 97.5897 58.1063 97.5358 58.0406C97.4888 57.9786 97.451 57.9082 97.4224 57.8293C97.4044 57.7474 97.3957 57.6569 97.3961 57.558C97.3966 57.4591 97.3924 57.3441 97.3835 57.213C97.5118 56.833 97.6887 56.4303 97.9142 56.0047C98.1467 55.583 98.4156 55.1769 98.721 54.7864C99.0333 54.3996 99.3687 54.0527 99.7273 53.7456C100.097 53.4353 100.475 53.2067 100.862 53.0597C101.257 52.9166 101.652 52.8777 102.049 52.943C102.456 53.0053 102.853 53.2102 103.238 53.5578C103.52 53.1451 103.763 52.7115 103.969 52.2569C104.178 51.7954 104.404 51.3204 104.646 50.8319C104.684 50.7628 104.742 50.7315 104.819 50.7382C104.9 50.7379 104.981 50.7553 105.061 50.7903C105.151 50.8222 105.229 50.8606 105.295 50.9056C105.367 50.9545 105.408 50.995 105.417 51.0271C105.067 51.6455 104.746 52.2121 104.453 52.7268C104.167 53.2453 103.897 53.7362 103.642 54.1994C103.39 54.6557 103.146 55.0981 102.91 55.5268C102.674 55.9554 102.432 56.3944 102.184 56.8438C101.943 57.297 101.686 57.7725 101.411 58.2702C101.144 58.7718 100.846 59.3199 100.519 59.9145C100.492 60.0441 100.43 60.1317 100.333 60.1773C100.243 60.2267 100.154 60.2408 100.066 60.2196C99.979 60.1984 99.9052 60.1442 99.8451 60.057C99.7919 59.9736 99.7873 59.8675 99.8314 59.7385L101.14 57.5121ZM102.488 53.8881C102.248 53.7018 101.959 53.6373 101.621 53.6944C101.294 53.7484 100.953 53.8848 100.598 54.1038C100.247 54.3158 99.9038 54.5865 99.569 54.9158C99.2381 55.2382 98.9544 55.573 98.7179 55.9204C98.4921 56.2646 98.3303 56.5991 98.2325 56.9238C98.1346 57.2484 98.1451 57.5156 98.2639 57.7253C98.4367 57.8206 98.6385 57.8552 98.8692 57.8291C99.1037 57.7961 99.345 57.7263 99.5931 57.6196C99.8481 57.5168 100.101 57.3856 100.351 57.226C100.612 57.0634 100.852 56.8981 101.07 56.7302C101.289 56.5623 101.472 56.4019 101.62 56.2488C101.778 56.0926 101.884 55.9661 101.937 55.8693C101.979 55.7933 102.053 55.6585 102.16 55.4649C102.267 55.2713 102.361 55.0666 102.444 54.8509C102.534 54.639 102.59 54.4398 102.611 54.2534C102.64 54.0709 102.599 53.9491 102.488 53.8881ZM102.419 60.7592C102.162 60.5722 101.994 60.3358 101.918 60.0501C101.848 59.7681 101.835 59.4638 101.88 59.137C101.925 58.8102 102.018 58.4783 102.158 58.1412C102.31 57.801 102.478 57.4792 102.664 57.1757C102.947 56.7101 103.285 56.3015 103.677 55.9497C104.076 55.6018 104.478 55.3317 104.881 55.1395C105.295 54.9441 105.688 54.8362 106.06 54.8158C106.443 54.7922 106.757 54.8755 107.004 55.0656C107.265 55.2633 107.418 55.5239 107.465 55.8473C107.519 56.1745 107.503 56.5307 107.417 56.9159C107.331 57.3011 107.19 57.6965 106.993 58.102C106.801 58.5006 106.592 58.872 106.366 59.2162C106.106 59.6051 105.807 59.9358 105.467 60.2084C105.128 60.4809 104.777 60.6841 104.415 60.818C104.059 60.9557 103.704 61.0209 103.347 61.0137C103.001 61.0033 102.692 60.9185 102.419 60.7592ZM106.574 55.5996C106.362 55.4462 106.107 55.4006 105.811 55.463C105.526 55.5222 105.226 55.6497 104.911 55.8455C104.607 56.0382 104.303 56.2858 104.001 56.5881C103.703 56.8835 103.442 57.1946 103.217 57.5212C103.052 57.7548 102.901 58.0049 102.763 58.2714C102.625 58.538 102.524 58.7936 102.462 59.0384C102.406 59.2871 102.402 59.5148 102.45 59.7216C102.509 59.9254 102.646 60.0863 102.86 60.2045C103.029 60.3066 103.241 60.347 103.496 60.3254C103.759 60.3076 104.03 60.2408 104.31 60.1248C104.594 60.002 104.873 59.84 105.146 59.639C105.426 59.4418 105.665 59.2128 105.862 58.9523C106.074 58.6817 106.253 58.3832 106.396 58.0568C106.551 57.7274 106.661 57.405 106.727 57.0896C106.799 56.7781 106.823 56.4893 106.798 56.2233C106.785 55.9543 106.71 55.7463 106.574 55.5996ZM108.561 56.1404C108.606 56.075 108.664 56.035 108.736 56.0202C108.807 56.0054 108.876 56.0116 108.942 56.039C109.012 56.0595 109.07 56.1007 109.117 56.1626C109.168 56.2177 109.201 56.2808 109.215 56.3521L106.898 60.483C107.304 60.0577 107.692 59.6316 108.062 59.2048C108.443 58.7749 108.822 58.4067 109.198 58.1003C109.578 57.787 109.96 57.5691 110.343 57.4467C110.729 57.3173 111.133 57.3459 111.553 57.5323C111.779 57.6297 111.929 57.7983 112.004 58.038C112.083 58.2708 112.108 58.5456 112.077 58.8624C112.054 59.183 111.985 59.537 111.87 59.9246C111.76 60.3053 111.622 60.6937 111.458 61.0899C111.304 61.483 111.135 61.872 110.95 62.2567C110.765 62.6415 110.588 62.9948 110.42 63.3166C110.252 63.6384 110.097 63.9184 109.957 64.1566C109.824 64.3986 109.723 64.573 109.655 64.6798C109.542 64.7706 109.414 64.799 109.27 64.765C109.13 64.7417 109.049 64.6343 109.029 64.4426C109.094 64.3075 109.214 64.0809 109.39 63.7629C109.569 63.4379 109.766 63.0642 109.981 62.6418C110.202 62.2232 110.42 61.7797 110.633 61.3112C110.857 60.8397 111.035 60.3929 111.169 59.9707C111.313 59.5454 111.39 59.1687 111.4 58.8405C111.42 58.5092 111.34 58.271 111.158 58.1259C111 58.003 110.78 58.003 110.496 58.1259C110.218 58.2525 109.907 58.4503 109.56 58.719C109.221 58.9916 108.863 59.3129 108.488 59.683C108.12 60.0568 107.766 60.4295 107.426 60.801C107.093 61.1763 106.793 61.5246 106.525 61.846C106.258 62.1674 106.061 62.4192 105.933 62.6013C105.882 62.6452 105.816 62.6673 105.734 62.6676C105.653 62.6678 105.574 62.647 105.498 62.6051C105.425 62.5739 105.359 62.5235 105.298 62.454C105.244 62.3882 105.221 62.3078 105.228 62.2127L108.561 56.1404ZM116.398 60.5408C116.428 60.5032 116.473 60.4697 116.535 60.4403C116.607 60.4079 116.676 60.3965 116.743 60.4063C116.816 60.4198 116.876 60.4664 116.923 60.546C116.98 60.6225 117.01 60.7473 117.014 60.9206C116.692 61.4377 116.364 61.951 116.03 62.4605C115.705 62.9668 115.4 63.4793 115.115 63.9978C114.84 64.5132 114.594 65.0404 114.378 65.5794C114.169 66.1222 114.02 66.6797 113.929 67.252C113.91 67.3042 113.87 67.3362 113.809 67.3479C113.745 67.3665 113.674 67.3637 113.597 67.3394C113.517 67.322 113.444 67.2908 113.379 67.2458C113.313 67.2008 113.275 67.1392 113.264 67.061L113.856 65.1291C113.778 65.2038 113.627 65.2913 113.4 65.3918C113.18 65.496 112.934 65.5904 112.662 65.6749C112.401 65.7562 112.143 65.8165 111.887 65.8557C111.635 65.888 111.441 65.8714 111.306 65.8059C110.969 65.6476 110.776 65.3925 110.727 65.0407C110.678 64.689 110.718 64.2878 110.849 63.8373C110.991 63.3837 111.193 62.9042 111.453 62.3988C111.714 61.8934 111.98 61.4094 112.253 60.947C112.526 60.4845 112.778 60.0688 113.008 59.7C113.238 59.3312 113.393 59.0512 113.471 58.86C113.522 58.8161 113.58 58.7937 113.643 58.7927C113.714 58.7955 113.78 58.8141 113.843 58.8484C113.905 58.8827 113.956 58.9289 113.996 58.987C114.043 59.049 114.065 59.1152 114.062 59.1858C113.946 59.4285 113.788 59.7242 113.587 60.073C113.386 60.4218 113.171 60.7947 112.943 61.1919C112.719 61.5822 112.5 61.9797 112.286 62.3845C112.079 62.7931 111.904 63.1748 111.763 63.5295C111.625 63.8773 111.537 64.1846 111.498 64.4516C111.47 64.7155 111.527 64.905 111.671 65.0203C111.789 65.0851 111.927 65.1119 112.087 65.1006C112.246 65.0893 112.417 65.0573 112.599 65.0046C112.785 64.9449 112.97 64.871 113.154 64.783C113.342 64.6881 113.511 64.5924 113.664 64.4961C113.82 64.3928 113.954 64.2957 114.068 64.2049C114.181 64.114 114.258 64.0394 114.299 63.981C114.352 63.9018 114.435 63.7762 114.547 63.6041C114.664 63.425 114.789 63.2233 114.922 62.999C115.065 62.7716 115.212 62.5284 115.364 62.2695C115.523 62.0144 115.668 61.7747 115.801 61.5503C115.944 61.3229 116.066 61.1193 116.165 60.9396C116.275 60.7567 116.352 60.6238 116.398 60.5408ZM118.001 62.9795L116.87 62.7751C116.806 62.7124 116.764 62.6401 116.746 62.5581C116.722 62.4723 116.716 62.3926 116.73 62.319C116.743 62.2453 116.772 62.1846 116.816 62.1369C116.854 62.0855 116.904 62.0592 116.968 62.0582L118.396 62.2639L119.993 59.3177C120.063 59.2392 120.144 59.1983 120.236 59.195C120.328 59.1916 120.407 59.2124 120.472 59.2574C120.548 59.2993 120.604 59.3616 120.639 59.4443C120.679 59.5201 120.69 59.5983 120.672 59.6788C120.541 59.8855 120.404 60.108 120.264 60.3461C120.128 60.5774 119.989 60.8121 119.849 61.0503C119.719 61.2853 119.595 61.5188 119.476 61.7508C119.361 61.9758 119.263 62.1874 119.181 62.3855L121.148 62.6181C121.26 62.6438 121.33 62.6961 121.359 62.775C121.392 62.8469 121.394 62.9247 121.366 63.0084C121.348 63.089 121.307 63.1562 121.241 63.2101C121.175 63.264 121.1 63.2857 121.016 63.2753L118.786 63.101C118.748 63.1702 118.66 63.338 118.522 63.6045C118.388 63.8641 118.227 64.1721 118.04 64.5285C117.853 64.8849 117.652 65.2655 117.438 65.6703C117.224 66.0751 117.019 66.4538 116.825 66.8064C116.638 67.1628 116.472 67.4724 116.327 67.7351C116.193 67.9947 116.107 68.1591 116.068 68.2282C115.929 68.4487 115.8 68.5266 115.683 68.4618C115.565 68.397 115.468 68.2712 115.391 68.0844L118.001 62.9795Z" fill="black"/>
</svg>
