<svg width="92" height="88" viewBox="0 0 92 88" fill="none" xmlns="http://www.w3.org/2000/svg">
<path d="M19.082 62.2899C18.7828 58.3348 19.5342 54.2787 20.1915 50.3908C20.2893 49.8119 20.7195 45.3898 21.754 45.3116C22.7545 45.2359 23.8368 49.1252 24.022 49.7961C24.3771 51.0816 24.6353 52.448 24.736 53.7791C24.8197 54.8858 27.9039 53.8557 28.5816 53.7394C30.9235 53.3375 33.2714 53.1424 35.6371 52.9635C36.2945 52.9137 36.0691 52.6515 36.17 52.0619C36.5008 50.1289 37.3008 48.1256 38.4706 46.541C39.0103 45.8101 39.369 44.8786 40.1735 44.3847C40.4101 44.2395 41.1928 43.9638 41.4513 44.1984C42.0653 44.7556 42.1171 45.9114 42.6009 46.5874C43.2864 47.5453 43.1078 49.0191 43.1919 50.1312C43.4067 52.9708 43.4612 55.8255 43.6751 58.6532C43.8037 60.3536 43.9115 62.0569 44.0611 63.7555C44.1431 64.6873 44.5217 65.5748 44.5914 66.4965" stroke="#8484FF" stroke-width="2" stroke-linecap="round"/>
<path d="M19.0618 62.5191C19.2889 65.5211 18.7415 68.3826 18.4742 71.3574C18.3462 72.7805 18.5121 74.2031 18.3144 75.6204C18.218 76.3122 17.9187 77.19 17.4975 77.7379C17.1287 78.2176 16.8785 78.9117 16.5671 79.4452C16.1627 80.1383 15.9487 80.8451 15.5973 81.5553C15.0221 82.7179 14.539 84.2892 16.4499 84.1873C18.5584 84.0748 20.0752 81.9716 22.1773 81.8126C24.5892 81.6301 26.998 81.6211 29.4154 81.5442C31.6254 81.474 33.8667 81.3851 36.0717 81.2183C36.7205 81.1693 37.0792 80.6858 37.6649 80.7235C39.0277 80.8111 40.3917 81.0645 41.7363 81.2847C45.0122 81.8213 48.2733 82.3727 51.5848 82.6462C55.6836 82.9848 59.8932 83.1935 64.0078 82.9818C66.4523 82.856 68.9642 82.3177 71.3572 81.8358C73.9713 81.3093 76.5857 80.79 79.2715 80.9452C80.515 81.0171 81.8732 81.1573 83.0668 81.5464C83.5395 81.7005 83.7733 81.8075 84.2415 81.5591C85.0916 81.1079 86.434 80.2519 86.2098 79.1451C86.1531 78.8653 84.786 78.0352 85.0905 77.8529" stroke="#8484FF" stroke-width="2" stroke-linecap="round"/>
<path d="M44.6406 65.495C43.9371 56.1958 41.7027 45.1206 47.3846 36.8503C48.5194 35.1985 49.9011 33.7171 51.6957 32.7807C53.74 31.7141 56.0274 31.148 58.2984 30.822C61.9814 30.2933 65.5334 30.2408 69.1624 31.0978C71.6938 31.6956 74.2148 33.116 75.8098 35.1822C77.0297 36.7625 77.9801 38.633 78.9742 40.3613C79.4931 41.2634 79.8456 42.0915 79.9504 43.1172C80.1312 44.8868 81.0035 46.4698 81.1366 48.2302C81.2242 49.3883 80.936 50.5909 80.5994 51.697C80.0484 53.5079 78.6666 54.9277 77.0596 55.8985C74.1595 57.6505 71.1714 58.6464 67.7894 58.8267C66.2507 58.9088 64.7597 58.6664 63.2794 58.2542C61.6841 57.8101 60.1145 57.2926 59.0214 55.9813C56.9737 53.525 56.7065 49.3533 59.2438 47.0945C60.347 46.1125 62.4137 45.2638 63.9083 45.5996C64.5375 45.741 65.4698 46.2601 65.7312 46.883" stroke="#8484FF" stroke-width="2" stroke-linecap="round"/>
<path d="M43.8491 58.2448C43.9918 60.1315 43.9875 62.0246 44.0763 63.9142C44.1113 64.6595 44.0424 65.6884 44.3833 66.3741C44.6761 66.963 45.3029 67.4582 45.7777 67.8991C46.7905 68.8395 47.9897 69.7453 49.2348 70.3397C50.2031 70.802 51.2264 71.1541 52.2194 71.5601C52.7755 71.7875 53.4465 72.1249 54.0689 72.0943C55.7586 72.0111 57.4746 71.733 59.1711 71.6046C61.1889 71.452 63.2403 71.6242 65.1912 70.9879C66.4938 70.5631 67.7781 70.2425 69.1014 69.8971C69.6309 69.7588 70.0813 69.5349 70.6264 69.4936" stroke="#8484FF" stroke-width="2" stroke-linecap="round"/>
<path d="M69.7876 70.0174C70.8097 69.0259 72.1793 68.3128 73.2838 67.411C75.4269 65.6615 76.5056 63.1129 77.2605 60.5103C77.736 58.8712 77.9699 57.039 77.8405 55.329" stroke="#8484FF" stroke-width="2" stroke-linecap="round"/>
<path d="M75.2057 66.6489C76.6692 66.5382 78.1639 66.7102 79.6149 66.886C81.7293 67.1422 83.9126 67.3717 85.9858 67.8753C87.8034 68.3168 89.5762 69.3608 90.2885 71.1629C90.4954 71.6862 90.5662 72.1879 90.6085 72.7469C90.6472 73.2595 90.7453 73.7453 90.4403 74.1975C89.6427 75.3796 88.4487 75.1873 87.2146 75.4494C86.594 75.5813 86.0438 75.8308 85.4734 76.0926C85.2745 76.1838 85.1315 76.3925 84.9192 76.4569C84.2415 76.6622 85.0381 77.4168 85.185 77.7671" stroke="#8484FF" stroke-width="2" stroke-linecap="round"/>
<path d="M25.3259 60.4338C25.2664 60.3892 25.3068 61.3802 25.359 61.5668C25.4177 61.7764 25.5117 61.6642 25.5586 61.5216C25.7483 60.9458 25.7681 60.3108 25.7412 59.7105C25.7298 59.4555 25.7448 59.1453 25.6796 58.8955C25.6466 58.7693 25.5601 58.9771 25.5566 59.0101C25.5162 59.3964 25.4782 59.7622 25.5075 60.1493" stroke="#8484FF" stroke-width="2" stroke-linecap="round"/>
<path d="M33.9202 58.6331C33.9642 59.2151 34.0083 59.7971 34.0523 60.379C34.0841 60.7998 34.5412 60.4825 34.652 60.2547C34.883 59.7796 35.028 58.6475 34.3138 58.468" stroke="#8484FF" stroke-width="2" stroke-linecap="round"/>
<path d="M28.7594 64.1466C28.9067 64.1678 29.0625 64.4259 29.2022 64.4998C29.4956 64.6551 29.8581 64.6965 30.1824 64.6459C30.822 64.5462 31.3479 64.0893 31.7586 63.6113" stroke="#8484FF" stroke-width="2" stroke-linecap="round"/>
<path d="M6.87769 36.5294C6.79659 36.3364 6.67877 36.0239 6.52424 35.5919C6.37661 35.1469 6.20564 34.6436 6.01134 34.0822C5.82393 33.5077 5.62582 32.8984 5.417 32.2543C5.20818 31.6101 4.99705 30.9939 4.78362 30.4056C4.57708 29.8044 4.36937 29.2525 4.16049 28.75C3.96157 28.2445 3.78482 27.8465 3.63023 27.5562C3.55375 27.3073 3.5856 27.1449 3.72578 27.0692C3.87285 26.9804 4.05208 26.9253 4.26347 26.904C4.58254 27.6232 4.85032 28.282 5.06682 28.8802C5.29328 29.4753 5.48491 30.0103 5.64172 30.4852C5.80543 30.9471 5.9458 31.3508 6.06284 31.6962C6.18677 32.0286 6.30576 32.2918 6.41979 32.4856C6.25475 31.5228 6.13752 30.698 6.0681 30.011C5.99868 29.324 5.97096 28.7549 5.98492 28.3039C6.00578 27.8398 6.07179 27.4871 6.18293 27.2459C6.29102 26.9948 6.44004 26.8236 6.63001 26.7326C6.80312 26.6576 7.01675 26.75 7.27091 27.0097C7.52201 27.2595 7.78418 27.5985 8.05742 28.0267C8.34061 28.4518 8.61613 28.9229 8.88397 29.44C9.15871 29.944 9.39632 30.4159 9.5968 30.8556C9.62634 29.7459 9.66039 28.8636 9.69894 28.2088C9.74745 27.551 9.81045 27.0467 9.88794 26.696C9.96237 26.3353 10.0571 26.0937 10.172 25.9712C10.2969 25.8457 10.4504 25.7603 10.6327 25.7152C10.8748 25.6518 11.0961 25.6982 11.2967 25.8545C11.5042 25.9978 11.6982 26.2215 11.8788 26.5256C12.0564 26.8198 12.2259 27.1763 12.3873 27.5953C12.5556 28.0013 12.7217 28.4352 12.8854 28.8971C13.059 29.3559 13.2407 29.8231 13.4305 30.2988C13.6271 30.7614 13.8375 31.1981 14.0618 31.6086C14.286 32.0192 14.5359 32.3892 14.8115 32.7187C15.084 33.0381 15.3914 33.276 15.7337 33.4324C15.6991 33.6392 15.642 33.8256 15.5623 33.9918C15.4795 34.148 15.3612 34.2062 15.2072 34.1663C14.8603 34.0658 14.5284 33.8191 14.2115 33.4261C13.9015 33.02 13.603 32.5451 13.3161 32.0012C13.0291 31.4574 12.7659 30.8844 12.5264 30.2823C12.2839 29.6703 12.0631 29.1116 11.8642 28.606C11.6653 28.1005 11.4889 27.6861 11.3351 27.3628C11.1913 27.0365 11.078 26.8806 10.9953 26.8952C10.6943 26.944 10.5348 27.4889 10.5167 28.5297C10.5087 29.5674 10.5467 31.0922 10.6309 33.1041C10.6209 33.2489 10.5903 33.3618 10.5389 33.443C10.4845 33.5142 10.4225 33.5605 10.3528 33.5819C10.2831 33.6033 10.2072 33.6048 10.1253 33.5864C10.0403 33.558 9.96219 33.5167 9.89099 33.4622C9.51907 32.7483 9.17625 32.0582 8.86252 31.3918C8.55874 30.7223 8.28442 30.1309 8.03955 29.6177C7.79469 29.1045 7.57696 28.6974 7.38639 28.3963C7.20577 28.0922 7.06261 27.9455 6.95692 27.9562C6.86119 27.9638 6.80217 28.0909 6.77986 28.3375C6.76445 28.5711 6.77504 28.8893 6.81164 29.2921C6.84518 29.685 6.89669 30.1541 6.96617 30.6994C7.04254 31.2317 7.12617 31.8054 7.21706 32.4204C7.30795 33.0354 7.39999 33.6719 7.49316 34.3298C7.58327 34.9777 7.66189 35.6237 7.72903 36.2678C7.71368 36.3597 7.67229 36.4378 7.60487 36.5021C7.54051 36.5764 7.46352 36.6273 7.37391 36.6548C7.29425 36.6793 7.20847 36.6839 7.11658 36.6685C7.02468 36.6532 6.94505 36.6068 6.87769 36.5294ZM18.6781 33.0671L13.0689 26.5686C12.9526 26.4736 12.8959 26.3602 12.8991 26.2285C12.8991 26.0868 12.9382 25.9658 13.0164 25.8655C13.0945 25.7652 13.2014 25.7051 13.337 25.6853C13.4794 25.6524 13.6284 25.6938 13.7838 25.8095L18.5512 31.5369L17.5698 23.7145C17.6204 23.6663 17.6824 23.62 17.756 23.5756C17.8395 23.5281 17.9226 23.4972 18.0053 23.4826C18.098 23.4651 18.1868 23.4705 18.2718 23.4988C18.3568 23.5272 18.4261 23.5931 18.4797 23.6965C18.5523 24.1101 18.6336 24.6409 18.7237 25.2888C18.8138 25.9367 18.9001 26.6077 18.9825 27.3016C19.0619 27.9855 19.1336 28.6445 19.1977 29.2787C19.2687 29.8998 19.3279 30.3938 19.3752 30.7607C19.3996 30.982 19.437 31.2811 19.4874 31.6579C19.5347 32.0248 19.5828 32.4295 19.6317 32.8722C19.6905 33.3118 19.7439 33.7694 19.792 34.2451C19.853 34.7276 19.908 35.1902 19.9568 35.6328C20.0156 36.0725 20.0572 36.4738 20.0816 36.8368C20.1189 37.2067 20.1449 37.5039 20.1593 37.7283C20.1761 37.8539 20.1439 37.9619 20.0627 38.0522C19.9815 38.1425 19.8796 38.2011 19.7571 38.2278C19.6345 38.2546 19.5078 38.25 19.3768 38.2139C19.2558 38.1748 19.1705 38.0921 19.1207 37.9657L18.6781 33.0671ZM25.631 17.4454C25.5943 17.3259 25.6031 17.2306 25.6575 17.1594C25.7119 17.0882 25.7858 17.0273 25.8793 16.9768C25.9727 16.9263 26.0742 16.8842 26.1838 16.8506C26.2933 16.8169 26.3864 16.7829 26.463 16.7485L26.9494 18.3317C27.609 17.8893 28.1517 17.51 28.5777 17.1939C29.0005 16.8678 29.3863 16.5804 29.7348 16.3316C30.0803 16.0729 30.4205 15.8322 30.7552 15.6094C31.0869 15.3767 31.4899 15.1276 31.964 14.8621C32.0437 14.8376 32.1107 14.8606 32.165 14.9311C32.2194 15.0016 32.2557 15.0667 32.2741 15.1264C32.3139 15.2559 32.2763 15.3818 32.1614 15.5043L27.2845 19.2095L29.0253 23.9707C29.701 23.2618 30.2688 22.6623 30.7285 22.1724C31.1981 21.6793 31.5851 21.2717 31.8892 20.9494C32.1934 20.6271 32.4282 20.3806 32.5937 20.2099C32.7692 20.0361 32.899 19.909 32.9833 19.8286C33.0676 19.7482 33.1182 19.7 33.135 19.6839C33.1519 19.6679 33.1653 19.6583 33.1752 19.6552C33.2557 19.5978 33.3169 19.5844 33.359 19.6151C33.3981 19.6358 33.4283 19.681 33.4497 19.7507C33.4712 19.8204 33.4807 19.9046 33.4784 20.0034C33.486 20.0992 33.4871 20.1914 33.4817 20.2803C33.4533 20.3653 33.3257 20.5352 33.099 20.7902C32.8821 21.0421 32.6182 21.3357 32.3071 21.671C31.996 22.0063 31.6647 22.3642 31.313 22.7447C30.9682 23.1122 30.6437 23.457 30.3396 23.7793C30.0453 24.0986 29.8032 24.3746 29.6132 24.6073C29.4232 24.8401 29.3358 24.9813 29.3511 25.0311L30.5937 28.9156C30.6365 29.055 30.6453 29.1722 30.62 29.2671C30.5947 29.3621 30.5272 29.4264 30.4177 29.4601C30.2982 29.4968 30.1413 29.3761 29.9469 29.098C29.7593 28.8069 29.5512 28.4132 29.3224 27.9168C29.0905 27.4105 28.8457 26.8264 28.5879 26.1646C28.327 25.4929 28.0699 24.7982 27.8167 24.0805C27.5635 23.3628 27.3168 22.6485 27.0766 21.9377C26.8334 21.2169 26.6135 20.5544 26.4169 19.9501C26.2203 19.3457 26.0532 18.8195 25.9155 18.3715C25.7778 17.9234 25.683 17.6147 25.631 17.4454ZM33.9133 18.3333C33.9638 18.2851 34.0259 18.2387 34.0994 18.1944C34.173 18.15 34.2446 18.1171 34.3143 18.0956C34.3939 18.0712 34.4732 18.0632 34.5521 18.0716C34.631 18.0801 34.7026 18.118 34.7669 18.1854C34.9657 18.8327 35.1864 19.5331 35.4289 20.2868C35.6782 21.0275 35.9322 21.7831 36.1907 22.5536C36.4562 23.3112 36.7136 24.0603 36.963 24.8009C37.2123 25.5416 37.4449 26.2275 37.6606 26.8587C37.7165 27.005 37.7118 27.1317 37.6467 27.2389C37.5815 27.3461 37.4942 27.4165 37.3847 27.4502C37.2851 27.4808 37.1783 27.47 37.0642 27.4179C36.9531 27.3757 36.8732 27.275 36.8242 27.1157L33.9133 18.3333ZM32.7978 15.3414C32.7581 15.212 32.7769 15.1136 32.8543 15.0462C32.9286 14.9689 33.0205 14.9134 33.13 14.8798C33.3491 14.8125 33.5065 14.8458 33.6021 14.9799C33.7047 15.1009 33.7851 15.2561 33.8432 15.4452C33.8202 15.5831 33.7665 15.6922 33.6822 15.7726C33.598 15.853 33.4965 15.895 33.3778 15.8988C33.269 15.8995 33.158 15.8574 33.0447 15.7723C32.9413 15.6842 32.859 15.5406 32.7978 15.3414ZM40.5782 30.5554C41.3028 30.2892 41.8811 29.9371 42.3132 29.4993C42.7484 29.0713 43.0664 28.5813 43.2673 28.0292C43.4682 27.4771 43.5615 26.8763 43.5472 26.2269C43.5329 25.5774 43.4436 24.8966 43.2792 24.1843C43.1714 23.727 43.0655 23.3291 42.9614 22.9906C42.8643 22.639 42.763 22.3269 42.6574 22.0542C42.5587 21.7685 42.4596 21.4993 42.3602 21.2465C42.2607 20.9937 42.1582 20.731 42.0526 20.4583C41.947 20.1856 41.8353 19.893 41.7175 19.5805C41.6066 19.255 41.4869 18.8831 41.3584 18.4649C41.3118 20.0157 41.211 21.2836 41.0559 22.2684C40.9008 23.2532 40.7064 24.0213 40.4726 24.5726C40.2487 25.1208 40.0012 25.4857 39.73 25.6671C39.4688 25.8454 39.2103 25.9085 38.9545 25.8563C38.6957 25.7942 38.4537 25.6451 38.2287 25.4091C38.0006 25.1632 37.8157 24.8985 37.6741 24.6151C37.5411 24.1111 37.4674 23.5344 37.4531 22.885C37.4358 22.2256 37.4778 21.5643 37.5791 20.9011C37.6774 20.228 37.8343 19.5859 38.0497 18.9748C38.2621 18.3538 38.5365 17.8281 38.8729 17.3979C39.2093 16.9676 39.5954 16.6637 40.0312 16.4862C40.477 16.3056 40.9825 16.3192 41.5476 16.527C41.5545 16.514 41.5981 16.6205 41.6784 16.8464C41.7687 17.0693 41.8834 17.3719 42.0227 17.7541C42.1719 18.1332 42.336 18.5786 42.515 19.0903C42.7009 19.5889 42.8944 20.1125 43.0956 20.6609C43.2968 21.2093 43.493 21.7593 43.6843 22.3108C43.8855 22.8592 44.0745 23.3678 44.2512 23.8366C44.5457 24.7595 44.6678 25.6537 44.6177 26.5191C44.5676 27.3845 44.3812 28.161 44.0585 28.8486C43.7457 29.5331 43.314 30.0962 42.7631 30.5379C42.2223 30.9765 41.6034 31.2321 40.9064 31.3046C40.8766 31.3137 40.8206 31.3091 40.7387 31.2907C40.6667 31.2692 40.6001 31.2298 40.5389 31.1723C40.4876 31.1118 40.4566 31.0287 40.4459 30.923C40.4383 30.8273 40.4824 30.7047 40.5782 30.5554ZM38.4703 24.3868C38.69 24.7116 38.8895 24.8465 39.0687 24.7914C39.2449 24.7264 39.4042 24.5358 39.5468 24.2195C39.6963 23.8903 39.8282 23.4684 39.9425 22.9538C40.0568 22.4391 40.1589 21.8847 40.2487 21.2905C40.3455 20.6832 40.4307 20.074 40.5045 19.4629C40.5752 18.8418 40.6447 18.2701 40.7131 17.7478C40.6764 17.6283 40.6128 17.528 40.5225 17.4468C40.4391 17.3525 40.3089 17.3544 40.1319 17.4524C39.8416 17.6069 39.5853 17.8546 39.3631 18.1953C39.1478 18.523 38.9642 18.9009 38.8124 19.3289C38.6575 19.747 38.5348 20.1988 38.4442 20.6843C38.3606 21.1568 38.3083 21.6251 38.2874 22.0892C38.2635 22.5434 38.2649 22.9734 38.2915 23.3793C38.3281 23.7821 38.3877 24.118 38.4703 24.3868ZM46.1108 24.4094C45.7957 23.3838 45.5108 22.4034 45.2561 21.4682C45.0114 20.5299 44.774 19.633 44.5438 18.7775C44.3137 17.922 44.0842 17.1043 43.8555 16.3246C43.6238 15.5349 43.3649 14.7808 43.0787 14.0623C43.0381 14.1075 42.9937 14.1757 42.9454 14.2668C42.9071 14.3548 42.8638 14.4444 42.8155 14.5355C42.7771 14.6236 42.7323 14.7082 42.681 14.7894C42.6266 14.8606 42.5745 14.9038 42.5247 14.9191C42.445 14.9436 42.3612 14.9367 42.2731 14.8983C42.1919 14.847 42.1361 14.7715 42.1055 14.672L42.0917 14.6272C42.0886 14.6172 42.089 14.6007 42.0929 14.5778C42.1488 14.4407 42.1998 14.2343 42.2459 13.9586C42.3019 13.6799 42.3629 13.3996 42.4289 13.1178C42.5048 12.8329 42.58 12.581 42.6544 12.362C42.7356 12.13 42.8261 11.9987 42.9256 11.9681C43.0252 11.9375 43.1075 11.9394 43.1726 11.9739C43.2377 12.0084 43.2959 12.0559 43.3472 12.1164C43.4084 12.1739 43.4662 12.2379 43.5206 12.3083C43.5849 12.3758 43.6645 12.4221 43.7594 12.4474C44.0368 12.1443 44.3532 11.8618 44.7087 11.6C45.0611 11.3283 45.4288 11.1063 45.8118 10.9342C46.2016 10.749 46.5919 10.6182 46.9825 10.5418C47.3701 10.4554 47.7411 10.4394 48.0957 10.494C48.4602 10.5454 48.7948 10.6769 49.0996 10.8884C49.4043 11.0999 49.6557 11.404 49.8539 11.8008C50.0123 12.3515 50.0105 12.9133 49.8487 13.4861C49.6869 14.0589 49.4431 14.6132 49.1174 15.1492C48.7886 15.6752 48.4128 16.1721 47.9899 16.6399C47.5639 17.0977 47.167 17.5084 46.7992 17.872C46.4284 18.2257 46.1235 18.5101 45.8845 18.7252C45.6454 18.9403 45.5405 19.0597 45.5696 19.0835L46.9082 24.1317C46.9326 24.2114 46.9162 24.2818 46.8587 24.3431C46.7982 24.3944 46.7231 24.4338 46.6335 24.4613C46.5408 24.4789 46.4451 24.4865 46.3463 24.4842C46.2444 24.4719 46.1659 24.447 46.1108 24.4094ZM45.2483 18.038C45.698 17.6927 46.1584 17.3115 46.6296 16.8943C47.1008 16.4771 47.5264 16.0358 47.9064 15.5703C48.2834 15.0949 48.5884 14.598 48.8214 14.0796C49.0614 13.5482 49.1634 12.9937 49.1277 12.4163C48.8736 11.8732 48.5241 11.5338 48.0792 11.398C47.6412 11.2493 47.1683 11.2529 46.6605 11.409C46.1596 11.552 45.659 11.8202 45.1587 12.2137C44.6654 12.5941 44.2379 13.0469 43.8762 13.5721L45.2483 18.038ZM56.1167 21.3841C55.913 21.2178 55.7393 20.9715 55.5954 20.6452C55.4615 20.3158 55.333 19.9685 55.2099 19.6031C55.0936 19.2247 54.9804 18.8563 54.8703 18.4979C54.767 18.1264 54.6458 17.8204 54.5065 17.5798C54.3536 18.7492 54.1568 19.6869 53.916 20.393C53.6822 21.086 53.4292 21.6105 53.1572 21.9665C52.8921 22.3095 52.6171 22.5138 52.3321 22.5796C52.0442 22.6354 51.7746 22.6092 51.5234 22.5012C51.2792 22.3801 51.064 22.2119 50.878 21.9966C50.689 21.7713 50.5543 21.5458 50.4739 21.3198C50.288 20.9628 50.1438 20.5113 50.0414 19.9652C49.9459 19.4061 49.8906 18.8183 49.8755 18.2018C49.8704 17.5822 49.9097 16.9653 49.9934 16.3512C50.084 15.724 50.2275 15.1623 50.4237 14.6661C50.63 14.1668 50.8882 13.766 51.1985 13.4636C51.5057 13.1513 51.8784 12.9986 52.3164 13.0057C52.5095 12.9246 52.6768 12.8841 52.8185 12.8841C52.9671 12.8712 53.103 12.9057 53.2263 12.9877C53.3495 13.0697 53.4617 13.2041 53.5627 13.391C53.6607 13.568 53.7655 13.8028 53.8772 14.0954C54.154 15.0673 54.4313 15.8812 54.7091 16.5368C54.9968 17.1895 55.2699 17.7594 55.5286 18.2465C55.7873 18.7337 56.0257 19.1727 56.2438 19.5633C56.4718 19.9509 56.6647 20.3657 56.8223 20.8077C56.8712 20.967 56.8696 21.1037 56.8175 21.2178C56.7623 21.3219 56.688 21.3992 56.5945 21.4497C56.5041 21.5102 56.408 21.5343 56.3062 21.522C56.2143 21.5067 56.1511 21.4607 56.1167 21.3841ZM52.9329 14.1076C52.596 13.8624 52.2958 13.8075 52.0323 13.943C51.7688 14.0784 51.5435 14.3384 51.3565 14.7227C51.1764 15.0941 51.0353 15.557 50.9332 16.1114C50.8281 16.6559 50.7685 17.2245 50.7545 17.8173C50.7405 18.4101 50.7712 18.9891 50.8468 19.5543C50.9293 20.1065 51.0582 20.5791 51.2334 20.972C51.5105 21.3773 51.7624 21.5941 51.989 21.6225C52.2157 21.651 52.4206 21.5553 52.6038 21.3356C52.7838 21.1059 52.9413 20.7851 53.0763 20.3731C53.2112 19.9611 53.3286 19.5273 53.4283 19.0717C53.525 18.6061 53.5983 18.1531 53.6483 17.7128C53.7051 17.2594 53.747 16.8815 53.7739 16.579L52.9329 14.1076ZM53.9782 8.57211C54.0257 8.51392 54.0732 8.45574 54.1207 8.39755C54.1751 8.32635 54.2356 8.27506 54.3023 8.24369C54.3658 8.20236 54.4271 8.18898 54.4861 8.20355C54.555 8.21507 54.6247 8.26449 54.6951 8.35183L58.5708 20.6464C58.5516 20.7613 58.5067 20.8459 58.4362 20.9002C58.3688 20.9645 58.2922 20.999 58.2064 21.0035C58.1237 21.018 58.0399 21.0111 57.9549 20.9827C57.8798 20.9513 57.8217 20.9038 57.7803 20.8402L53.9782 8.57211Z" fill="black"/>
</svg>
