<svg width="76" height="65" viewBox="0 0 76 65" fill="none" xmlns="http://www.w3.org/2000/svg">
<path d="M40.2171 18.0267C39.9672 15.7777 37.0694 13.1649 35.566 11.8252C33.4106 9.90438 31.0801 7.96514 28.4758 6.68245C27.694 6.29737 24.4704 4.39273 23.56 5.01863C21.7807 6.2419 22.0016 11.455 22.6714 13.1108C24.0663 16.5594 28.4274 17.9219 31.7657 18.367C35.0246 18.8015 38.5863 18.6663 41.7486 19.3691C42.5767 19.5531 42.5316 14.0971 42.675 13.4134C43.4749 9.59851 45.5909 5.73567 48.9332 3.5817C51.0339 2.2279 53.9822 0.867534 56.5528 1.01034C58.5283 1.1201 58.3121 5.57271 58.2166 6.8148C57.7238 13.2203 50.1207 15.4703 46.5131 19.8796C45.7312 20.8352 45.4838 20.409 44.0741 20.409C40.1567 20.409 36.4583 19.9599 32.5976 19.388C29.0841 18.8675 26.2866 23.218 24.3919 25.8542C23.2972 27.3773 22.3413 28.7424 22.0285 30.6187C21.5749 33.3407 26.6621 32.598 27.9653 32.2447C32.0432 31.1395 35.72 27.5116 39.4797 25.5328C40.4609 25.0164 42.6613 24.2178 43.2044 23.1316C43.2641 23.0122 43.28 22.3766 43.28 22.8858C43.28 24.8322 43.2425 26.7824 43.2989 28.728C43.392 31.9392 44.1101 36.1617 47.4396 37.69C53.2149 40.3409 51.6173 30.4085 50.6916 27.6314C50.0613 25.7407 49.3065 23.3048 48.2337 21.619C47.8983 21.092 48.274 21.3059 48.6118 21.5056C50.2621 22.4807 51.7335 23.7214 53.4142 24.6441C56.239 26.195 59.8314 27.7119 63.1702 27.1777C64.6629 26.9388 66.389 25.2646 66.4222 23.7366C66.5757 16.6766 59.6767 15.4757 53.8302 16.0603C51.5762 16.2857 49.49 18.0267 47.3639 18.0267" stroke="#8484FF" stroke-width="1.5" stroke-linecap="round"/>
<path d="M38.1905 48.8115C38.1905 45.194 37.8361 41.2963 38.9594 37.8089C39.6982 35.5157 41.6176 33 44.2589 33C45.7389 33 45.4043 35.5365 45.3243 36.4243C45.1361 38.5153 43.8424 40.2739 42.7673 42.0004C41.6438 43.8045 40.4084 45.5558 39.3949 47.4268C39.007 48.1429 38.6938 48.9087 38.2275 49.5787C38.1289 49.7205 38.0313 50.0446 38.033 50.0371C38.3682 48.5139 40.1381 46.8825 41.0996 45.7428C42.5507 44.0226 44.0237 42.1787 46.0841 41.1864C48.1019 40.2146 50.6087 39.8628 52.8288 39.886C55.0529 39.9091 55.5146 42.4437 54.4594 44.0961C51.4782 48.7647 45.0787 49.6985 40.0434 49.981C39.6339 50.004 39.2213 49.9904 38.8112 49.9904C37.8878 49.9904 40.658 49.9904 41.5814 49.9904C43.7968 49.9904 45.9309 50.2002 47.9 51.3002C48.7137 51.7548 50.1802 52.164 50.3459 53.293C50.6057 55.0639 49.9917 56.2306 48.9469 57.5593C48.1541 58.5674 47.1714 59.7233 45.8617 59.9638C43.5622 60.386 42.4498 58.7112 41.0255 57.2318C39.8181 55.9777 39.0302 54.4481 38.1997 52.9281C37.7659 52.134 37.7033 51.1931 37.2733 50.4114C37.1223 50.1371 37.1047 51.5899 37.088 51.7212C36.8795 53.3586 36.4826 54.9759 36.0225 56.5582C35.3501 58.8706 34.2405 61.0853 32.6872 62.9202C31.8355 63.9264 31.2643 64.4347 30.1764 63.5284C28.1972 61.8794 27.4576 59.8218 27.7861 57.2412C28.1867 54.095 30.3244 52.2014 32.9651 50.795C34.0009 50.2433 35.6447 49.2923 36.8563 49.1483C38.5406 48.9482 33.4371 49.3499 31.77 49.036C29.8634 48.6771 27.4024 47.3183 26.1926 45.7708C24.9687 44.2053 24.9638 42.1199 25.016 40.2228C25.0647 38.4524 26.8282 37.5025 28.3513 37.1915C32.8724 36.2681 35.6781 41.2194 37.0138 44.8446C37.5984 46.4311 37.4774 48.3818 38.1905 49.8219" stroke="#8484FF" stroke-width="1.5" stroke-linecap="round"/>
<path d="M66.4217 31.3555C66.4217 29.5305 66.1977 27.9914 64.984 26.5792C64.5987 26.1308 64.1372 25.8349 63.722 25.429C63.3706 25.0854 63.1188 24.6344 62.6757 24.3907C60.7794 23.3477 59.6697 26.3529 60.3355 27.7613C61.4378 30.0932 64.3855 30.8767 66.3419 32.2741C66.5 32.387 66.5659 31.7899 66.5735 31.7469C66.7549 30.7192 67.2434 29.9031 67.8275 29.0552C68.7089 27.7758 69.7954 26.6365 71.3099 26.1159C71.9281 25.9034 73.3212 25.6052 73.8898 26.06C74.8175 26.8022 74.8841 28.1439 74.6166 29.199C73.9397 31.869 70.643 32.6495 68.2987 32.6495C67.5734 32.6495 66.8266 32.6959 66.1102 32.5616C64.4097 32.2428 62.9853 31.2045 61.3578 30.6686C60.2805 30.3139 59.0056 30.2495 57.8754 30.3571C57.216 30.4199 56.8978 31.2819 56.6454 31.7869C56.4041 32.2693 56.0334 33.2265 56.246 33.7677C56.572 34.5974 58.6654 34.6623 59.377 34.6623C60.4624 34.6623 61.6926 34.8224 62.7556 34.5824C63.4101 34.4346 64.2228 34.459 64.8403 34.199C65.1625 34.0633 65.4947 33.841 65.8467 33.7996C65.9728 33.7848 64.8176 37.2833 64.6326 37.8012C63.97 39.6564 63.5463 41.4262 63.5463 43.4003C63.5463 43.952 63.4298 46.0714 64.4968 45.6367C68.4093 44.0428 68.8678 39.4318 69.1214 35.8444C69.1651 35.2267 69.0981 34.1118 68.6102 33.6239C68.5944 33.608 68.7268 34.4802 68.754 34.5824C69.0731 35.7791 69.7276 36.884 70.5352 37.8172C71.1003 38.4702 72.748 40.1096 73.754 40.1096C74.4103 40.1096 74.3351 37.545 74.3291 37.1064C74.3069 35.4861 72.991 34.814 71.5895 34.3827C70.6726 34.1006 68.978 34.0556 68.2907 33.3683" stroke="#8484FF" stroke-width="1.5" stroke-linecap="round"/>
<path d="M13.2272 24.6533C13.3068 22.9339 13.4408 20.2403 13.4922 18.4464C13.5182 17.5405 13.6405 16.3571 13.3806 15.4405C13.1933 14.78 12.7404 14.1621 12.0974 13.8853C10.9499 13.3912 10.1191 14.3641 9.7192 15.3638C9.14898 16.7894 9.00049 18.3092 9.58669 19.7575C10.1745 21.2098 10.7595 22.6849 11.1489 24.207C11.2315 24.5298 11.3542 24.8402 11.4418 25.1555C11.4669 25.2458 10.3954 24.8444 10.3678 24.8347C8.78947 24.2789 7.26513 23.6679 5.5696 23.6491C3.60958 23.6273 2.09681 24.7617 1.70594 26.7595C1.30049 28.8318 2.89447 29.7436 4.75363 29.6677C6.54166 29.5948 8.01098 28.0673 9.52393 27.2268C10.1108 26.9007 9.51405 28.508 9.46116 28.7611C9.07335 30.6171 8.93895 32.8132 9.21009 34.6961C9.35365 35.693 9.79729 37.0793 10.842 37.5067C11.809 37.9022 12.3391 36.943 12.6972 36.2025C13.9815 33.5462 13.7838 29.977 13.6108 27.1222C13.6042 27.0145 13.3874 26.0498 13.6317 26.2156C14.7241 26.9569 15.5016 28.2495 16.3655 29.2214C17.0424 29.9829 19.7628 32.0727 20.3826 30.1769C21.2641 27.4807 18.6669 25.3972 16.3655 24.6812C15.81 24.5084 14.9796 24.6083 14.4825 24.3744C14.2577 24.2686 14.6744 24.2716 14.6987 24.2698C15.4587 24.2135 16.1512 23.8334 16.8258 23.5096C18.5934 22.6611 20.5807 21.6314 21.6101 19.883C22.1377 18.987 22.5444 17.5164 22.1262 16.5006C21.755 15.5991 20.7005 15.3658 19.8108 15.5172C18.2368 15.7852 16.8249 18.0236 16.0168 19.2554C15.1172 20.6268 14.3179 22.0953 13.6038 23.5235" stroke="#8484FF" stroke-width="1.5" stroke-linecap="round"/>
</svg>
