<svg width="1200" height="56" viewBox="0 0 1200 56" fill="none" xmlns="http://www.w3.org/2000/svg">
<g clip-path="url(#clip0_31_391)">
<line y1="55.5" x2="1200" y2="55.5" stroke="black"/>
<path d="M-166.69 39L-166.21 36.84H-159.22C-157.84 36.84 -156.57 36.57 -155.41 36.03C-154.25 35.49 -153.24 34.75 -152.38 33.81C-151.52 32.87 -150.86 31.8 -150.4 30.6C-149.92 29.4 -149.68 28.14 -149.68 26.82C-149.68 25.42 -149.95 24.18 -150.49 23.1C-151.03 22 -151.79 21.14 -152.77 20.52C-153.73 19.88 -154.87 19.56 -156.19 19.56H-162.28L-161.8 17.4H-155.95C-154.19 17.4 -152.66 17.8 -151.36 18.6C-150.04 19.4 -149.01 20.5 -148.27 21.9C-147.53 23.28 -147.16 24.86 -147.16 26.64C-147.16 28.26 -147.47 29.82 -148.09 31.32C-148.69 32.8 -149.54 34.12 -150.64 35.28C-151.74 36.42 -153.04 37.33 -154.54 38.01C-156.02 38.67 -157.63 39 -159.37 39H-166.69ZM-168.16 39L-163.21 17.4H-160.75L-165.7 39H-168.16ZM-145.631 39L-140.651 17.4H-138.191L-143.171 39H-145.631ZM-144.371 39L-143.891 36.84H-130.691L-131.171 39H-144.371ZM-142.031 28.83L-141.551 26.67H-129.431L-129.911 28.83H-142.031ZM-139.901 19.56L-139.391 17.4H-126.431L-126.941 19.56H-139.901ZM-119.54 39.27C-120.76 39.27 -121.86 39.1 -122.84 38.76C-123.82 38.42 -124.66 37.93 -125.36 37.29C-126.04 36.65 -126.57 35.89 -126.95 35.01C-127.31 34.11 -127.49 33.11 -127.49 32.01H-125.09C-125.09 32.81 -124.96 33.53 -124.7 34.17C-124.44 34.79 -124.07 35.32 -123.59 35.76C-123.09 36.2 -122.49 36.54 -121.79 36.78C-121.07 37 -120.26 37.11 -119.36 37.11C-117.84 37.11 -116.67 36.78 -115.85 36.12C-115.01 35.46 -114.59 34.55 -114.59 33.39C-114.59 32.61 -114.8 31.95 -115.22 31.41C-115.62 30.87 -116.26 30.38 -117.14 29.94L-120.41 28.29C-121.87 27.55 -122.93 26.77 -123.59 25.95C-124.23 25.13 -124.55 24.15 -124.55 23.01C-124.55 21.81 -124.24 20.76 -123.62 19.86C-123 18.96 -122.14 18.26 -121.04 17.76C-119.94 17.24 -118.68 16.98 -117.26 16.98C-116.18 16.98 -115.22 17.13 -114.38 17.43C-113.54 17.71 -112.83 18.14 -112.25 18.72C-111.65 19.28 -111.19 19.97 -110.87 20.79C-110.55 21.59 -110.38 22.52 -110.36 23.58H-112.73C-112.75 22.6 -112.94 21.78 -113.3 21.12C-113.66 20.46 -114.19 19.97 -114.89 19.65C-115.59 19.31 -116.46 19.14 -117.5 19.14C-118.46 19.14 -119.29 19.28 -119.99 19.56C-120.67 19.84 -121.2 20.24 -121.58 20.76C-121.94 21.28 -122.12 21.92 -122.12 22.68C-122.12 23.36 -121.92 23.96 -121.52 24.48C-121.1 25 -120.42 25.49 -119.48 25.95L-116 27.69C-114.7 28.33 -113.74 29.08 -113.12 29.94C-112.5 30.8 -112.19 31.84 -112.19 33.06C-112.19 34.3 -112.49 35.39 -113.09 36.33C-113.69 37.25 -114.54 37.97 -115.64 38.49C-116.74 39.01 -118.04 39.27 -119.54 39.27ZM-99.3618 39L-95.0418 20.13L-94.4418 20.37C-94.8018 20.87 -95.3818 21.35 -96.1818 21.81C-96.9618 22.25 -97.8418 22.62 -98.8218 22.92C-99.7818 23.2 -100.732 23.35 -101.672 23.37L-101.162 21.09C-100.202 21.03 -99.2518 20.85 -98.3118 20.55C-97.3718 20.25 -96.5018 19.84 -95.7018 19.32C-94.9018 18.78 -94.2518 18.14 -93.7518 17.4H-91.9818L-96.9618 39H-99.3618ZM-85.2053 39.3C-86.3653 39.3 -87.3953 39.13 -88.2953 38.79C-89.1753 38.43 -89.9153 37.96 -90.5153 37.38C-91.0953 36.78 -91.5253 36.11 -91.8053 35.37C-92.0653 34.63 -92.1453 33.87 -92.0453 33.09H-89.5253C-89.5653 33.79 -89.4253 34.45 -89.1053 35.07C-88.7853 35.69 -88.2953 36.19 -87.6353 36.57C-86.9753 36.95 -86.1553 37.14 -85.1753 37.14C-84.5353 37.14 -83.9453 37.04 -83.4053 36.84C-82.8453 36.64 -82.3553 36.36 -81.9353 36C-81.4953 35.62 -81.1253 35.18 -80.8253 34.68C-80.5053 34.18 -80.2653 33.64 -80.1053 33.06C-79.9453 32.46 -79.8653 31.84 -79.8653 31.2C-79.8653 29.78 -80.2453 28.71 -81.0053 27.99C-81.7653 27.27 -82.8053 26.91 -84.1253 26.91C-84.9253 26.91 -85.6753 27.06 -86.3753 27.36C-87.0553 27.64 -87.6153 28.1 -88.0553 28.74H-90.2453L-86.6753 17.4H-75.2453L-75.7253 19.56H-85.6853L-84.6353 18.66L-87.3353 27.36L-87.6653 26.67C-87.2053 26.13 -86.6053 25.71 -85.8653 25.41C-85.1053 25.09 -84.2553 24.93 -83.3153 24.93C-82.0953 24.93 -81.0253 25.19 -80.1053 25.71C-79.1853 26.23 -78.4753 26.97 -77.9753 27.93C-77.4553 28.87 -77.1953 29.99 -77.1953 31.29C-77.1953 32.21 -77.3253 33.07 -77.5853 33.87C-77.8453 34.67 -78.2153 35.41 -78.6953 36.09C-79.1553 36.75 -79.7153 37.32 -80.3753 37.8C-81.0353 38.28 -81.7753 38.65 -82.5953 38.91C-83.3953 39.17 -84.2653 39.3 -85.2053 39.3ZM-72.7738 39C-71.7138 35.6 -70.1538 32.24 -68.0938 28.92C-66.0338 25.58 -63.3738 22.17 -60.1138 18.69L-59.8438 19.56H-72.4738L-71.9938 17.4H-57.4138L-57.8338 19.2C-59.9738 21.54 -61.8238 23.8 -63.3838 25.98C-64.9438 28.16 -66.2538 30.32 -67.3138 32.46C-68.3738 34.58 -69.2438 36.76 -69.9238 39H-72.7738ZM-57.7614 39L-57.2814 36.96H-50.5014C-49.4214 36.96 -48.4914 36.78 -47.7114 36.42C-46.9114 36.04 -46.3014 35.5 -45.8814 34.8C-45.4414 34.1 -45.2214 33.28 -45.2214 32.34C-45.2214 31.2 -45.5414 30.31 -46.1814 29.67C-46.8214 29.01 -47.7014 28.68 -48.8214 28.68H-55.4214L-54.9714 26.7H-48.6414C-47.5614 26.7 -46.6314 26.53 -45.8514 26.19C-45.0714 25.85 -44.4714 25.38 -44.0514 24.78C-43.6314 24.16 -43.4214 23.42 -43.4214 22.56C-43.4214 21.6 -43.7114 20.84 -44.2914 20.28C-44.8714 19.72 -45.6614 19.44 -46.6614 19.44H-53.3214L-52.8414 17.4H-46.2414C-44.6414 17.4 -43.3614 17.86 -42.4014 18.78C-41.4214 19.7 -40.9314 20.9 -40.9314 22.38C-40.9314 23.26 -41.1114 24.07 -41.4714 24.81C-41.8314 25.53 -42.3214 26.15 -42.9414 26.67C-43.5614 27.19 -44.2714 27.58 -45.0714 27.84C-45.8714 28.1 -46.7214 28.19 -47.6214 28.11L-47.2914 27.51C-45.8714 27.65 -44.7514 28.18 -43.9314 29.1C-43.1114 30.02 -42.7014 31.19 -42.7014 32.61C-42.7014 33.89 -43.0414 35.01 -43.7214 35.97C-44.3814 36.93 -45.3114 37.68 -46.5114 38.22C-47.7114 38.74 -49.1114 39 -50.7114 39H-57.7614ZM-59.3514 39L-54.4014 17.4H-51.9414L-56.8914 39H-59.3514ZM-32.8333 31.86L-32.3533 29.82H-19.5733L-20.0533 31.86H-32.8333ZM-2.4693 39.27C-3.6893 39.27 -4.7893 39.1 -5.7693 38.76C-6.7493 38.42 -7.5893 37.93 -8.2893 37.29C-8.9693 36.65 -9.4993 35.89 -9.8793 35.01C-10.2393 34.11 -10.4193 33.11 -10.4193 32.01H-8.0193C-8.0193 32.81 -7.8893 33.53 -7.6293 34.17C-7.3693 34.79 -6.9993 35.32 -6.5193 35.76C-6.0193 36.2 -5.4193 36.54 -4.7193 36.78C-3.9993 37 -3.1893 37.11 -2.2893 37.11C-0.769297 37.11 0.400703 36.78 1.2207 36.12C2.0607 35.46 2.4807 34.55 2.4807 33.39C2.4807 32.61 2.2707 31.95 1.8507 31.41C1.4507 30.87 0.810704 30.38 -0.069296 29.94L-3.3393 28.29C-4.7993 27.55 -5.8593 26.77 -6.5193 25.95C-7.1593 25.13 -7.4793 24.15 -7.4793 23.01C-7.4793 21.81 -7.1693 20.76 -6.5493 19.86C-5.9293 18.96 -5.0693 18.26 -3.9693 17.76C-2.8693 17.24 -1.6093 16.98 -0.189296 16.98C0.890704 16.98 1.8507 17.13 2.6907 17.43C3.5307 17.71 4.2407 18.14 4.8207 18.72C5.4207 19.28 5.8807 19.97 6.2007 20.79C6.5207 21.59 6.6907 22.52 6.7107 23.58H4.3407C4.3207 22.6 4.1307 21.78 3.7707 21.12C3.4107 20.46 2.8807 19.97 2.1807 19.65C1.4807 19.31 0.610704 19.14 -0.429297 19.14C-1.3893 19.14 -2.2193 19.28 -2.9193 19.56C-3.5993 19.84 -4.1293 20.24 -4.5093 20.76C-4.8693 21.28 -5.0493 21.92 -5.0493 22.68C-5.0493 23.36 -4.8493 23.96 -4.4493 24.48C-4.0293 25 -3.3493 25.49 -2.4093 25.95L1.0707 27.69C2.3707 28.33 3.3307 29.08 3.9507 29.94C4.5707 30.8 4.8807 31.84 4.8807 33.06C4.8807 34.3 4.5807 35.39 3.9807 36.33C3.3807 37.25 2.5307 37.97 1.4307 38.49C0.330703 39.01 -0.969297 39.27 -2.4693 39.27ZM14.3441 39.3C13.0441 39.3 11.9041 39.02 10.9241 38.46C9.94406 37.9 9.18406 37.12 8.64406 36.12C8.10406 35.1 7.83406 33.92 7.83406 32.58C7.83406 31.56 7.97406 30.59 8.25406 29.67C8.55406 28.75 8.96406 27.91 9.48406 27.15C10.0041 26.39 10.6241 25.73 11.3441 25.17C12.0641 24.61 12.8541 24.18 13.7141 23.88C14.5741 23.56 15.4841 23.4 16.4441 23.4C17.6841 23.4 18.7641 23.65 19.6841 24.15C20.6241 24.65 21.3441 25.35 21.8441 26.25C22.3641 27.15 22.6241 28.2 22.6241 29.4C22.6241 29.86 22.5741 30.32 22.4741 30.78C22.3941 31.22 22.2541 31.65 22.0541 32.07H9.66406L10.1141 30.06H21.0041L19.9841 31.68C20.1641 30.94 20.2441 30.21 20.2241 29.49C20.2241 28.75 20.0841 28.08 19.8041 27.48C19.5441 26.86 19.1341 26.37 18.5741 26.01C18.0141 25.63 17.2641 25.44 16.3241 25.44C15.6641 25.44 15.0341 25.56 14.4341 25.8C13.8341 26.04 13.2841 26.38 12.7841 26.82C12.2841 27.24 11.8441 27.75 11.4641 28.35C11.0841 28.93 10.7941 29.58 10.5941 30.3C10.3941 31 10.2941 31.74 10.2941 32.52C10.2941 34 10.6841 35.16 11.4641 36C12.2441 36.84 13.3141 37.26 14.6741 37.26C15.5941 37.26 16.3941 37.06 17.0741 36.66C17.7541 36.24 18.3341 35.61 18.8141 34.77H21.0941C20.3541 36.29 19.4141 37.43 18.2741 38.19C17.1341 38.93 15.8241 39.3 14.3441 39.3ZM30.7384 39.33C29.5184 39.33 28.4584 39.06 27.5584 38.52C26.6584 37.96 25.9584 37.19 25.4584 36.21C24.9584 35.21 24.7084 34.05 24.7084 32.73C24.7084 31.69 24.8484 30.71 25.1284 29.79C25.4284 28.87 25.8384 28.02 26.3584 27.24C26.8984 26.46 27.5284 25.79 28.2484 25.23C28.9684 24.67 29.7584 24.24 30.6184 23.94C31.4784 23.62 32.3884 23.46 33.3484 23.46C34.1684 23.46 34.9184 23.59 35.5984 23.85C36.2784 24.11 36.8684 24.48 37.3684 24.96C37.8684 25.42 38.2584 25.98 38.5384 26.64C38.8184 27.28 38.9584 27.99 38.9584 28.77H36.7384C36.7184 28.09 36.5584 27.51 36.2584 27.03C35.9584 26.55 35.5484 26.18 35.0284 25.92C34.5084 25.64 33.8884 25.5 33.1684 25.5C32.4884 25.5 31.8484 25.62 31.2484 25.86C30.6484 26.1 30.0984 26.45 29.5984 26.91C29.0984 27.35 28.6684 27.87 28.3084 28.47C27.9484 29.07 27.6684 29.74 27.4684 30.48C27.2684 31.22 27.1684 32 27.1684 32.82C27.1684 34.24 27.4984 35.35 28.1584 36.15C28.8184 36.93 29.7484 37.32 30.9484 37.32C32.0284 37.32 32.9884 37.02 33.8284 36.42C34.6684 35.82 35.2784 35 35.6584 33.96H37.8784C37.3384 35.6 36.4184 36.91 35.1184 37.89C33.8384 38.85 32.3784 39.33 30.7384 39.33ZM46.3159 39.27C44.6159 39.27 43.4659 38.84 42.8659 37.98C42.2659 37.1 42.1359 35.93 42.4759 34.47L45.7759 20.13L48.3859 19.23L44.7859 34.83C44.6059 35.65 44.6859 36.26 45.0259 36.66C45.3859 37.04 46.0559 37.23 47.0359 37.23C47.4359 37.23 47.7759 37.21 48.0559 37.17C48.3559 37.11 48.6059 37.04 48.8059 36.96L48.3559 39C48.1359 39.08 47.8559 39.14 47.5159 39.18C47.1759 39.24 46.7759 39.27 46.3159 39.27ZM41.3359 25.74L41.7859 23.7H51.8659L51.4159 25.74H41.3359ZM51.4745 39L54.9845 23.7H57.3845L53.8745 39H51.4745ZM55.5245 20.22L56.1245 17.4H58.8845L58.2845 20.22H55.5245ZM65.6722 39.3C64.3922 39.3 63.2622 39.02 62.2822 38.46C61.3022 37.88 60.5322 37.08 59.9722 36.06C59.4322 35.04 59.1622 33.86 59.1622 32.52C59.1622 31.26 59.3822 30.08 59.8222 28.98C60.2822 27.88 60.9022 26.91 61.6822 26.07C62.4822 25.23 63.4022 24.58 64.4422 24.12C65.4822 23.64 66.6022 23.4 67.8022 23.4C69.1222 23.4 70.2722 23.68 71.2522 24.24C72.2322 24.8 72.9922 25.59 73.5322 26.61C74.0722 27.61 74.3422 28.78 74.3422 30.12C74.3422 31.38 74.1122 32.57 73.6522 33.69C73.1922 34.79 72.5622 35.76 71.7622 36.6C70.9622 37.44 70.0422 38.1 69.0022 38.58C67.9622 39.06 66.8522 39.3 65.6722 39.3ZM65.7922 37.26C66.6122 37.26 67.3922 37.08 68.1322 36.72C68.8722 36.34 69.5222 35.83 70.0822 35.19C70.6422 34.53 71.0822 33.77 71.4022 32.91C71.7222 32.05 71.8822 31.13 71.8822 30.15C71.8822 28.71 71.5022 27.57 70.7422 26.73C70.0022 25.87 68.9822 25.44 67.6822 25.44C66.8422 25.44 66.0522 25.62 65.3122 25.98C64.5922 26.34 63.9522 26.84 63.3922 27.48C62.8522 28.12 62.4222 28.87 62.1022 29.73C61.7822 30.57 61.6222 31.48 61.6222 32.46C61.6222 33.92 62.0022 35.09 62.7622 35.97C63.5222 36.83 64.5322 37.26 65.7922 37.26ZM76.1717 39L79.6817 23.7H81.9317L81.1217 27.3H81.2717L78.5717 39H76.1717ZM87.0917 39L89.2517 29.61C89.5717 28.25 89.4717 27.22 88.9517 26.52C88.4317 25.8 87.5717 25.44 86.3717 25.44C84.9517 25.44 83.7117 25.9 82.6517 26.82C81.6117 27.72 80.9017 28.96 80.5217 30.54L80.9717 26.79C81.7317 25.71 82.6417 24.88 83.7017 24.3C84.7817 23.7 85.9117 23.4 87.0917 23.4C88.8917 23.4 90.2117 23.95 91.0517 25.05C91.8917 26.15 92.1017 27.63 91.6817 29.49L89.4917 39H87.0917ZM98.9066 39L99.3866 36.9C102.047 35.1 104.297 33.5 106.137 32.1C107.997 30.7 109.487 29.44 110.607 28.32C111.747 27.18 112.577 26.14 113.097 25.2C113.617 24.26 113.877 23.37 113.877 22.53C113.877 21.51 113.547 20.72 112.887 20.16C112.247 19.58 111.337 19.29 110.157 19.29C108.877 19.29 107.777 19.67 106.857 20.43C105.937 21.17 105.247 22.25 104.787 23.67H102.267C102.847 21.59 103.847 19.99 105.267 18.87C106.687 17.73 108.397 17.16 110.397 17.16C111.657 17.16 112.737 17.38 113.637 17.82C114.557 18.24 115.267 18.84 115.767 19.62C116.267 20.4 116.517 21.32 116.517 22.38C116.517 23.44 116.247 24.52 115.707 25.62C115.167 26.72 114.317 27.89 113.157 29.13C111.997 30.35 110.467 31.69 108.567 33.15C106.687 34.61 104.397 36.23 101.697 38.01L101.397 36.84H113.727L113.217 39H98.9066ZM124.11 31.86L124.59 29.82H137.37L136.89 31.86H124.11ZM154.474 39.27C153.254 39.27 152.154 39.1 151.174 38.76C150.194 38.42 149.354 37.93 148.654 37.29C147.974 36.65 147.444 35.89 147.064 35.01C146.704 34.11 146.524 33.11 146.524 32.01H148.924C148.924 32.81 149.054 33.53 149.314 34.17C149.574 34.79 149.944 35.32 150.424 35.76C150.924 36.2 151.524 36.54 152.224 36.78C152.944 37 153.754 37.11 154.654 37.11C156.174 37.11 157.344 36.78 158.164 36.12C159.004 35.46 159.424 34.55 159.424 33.39C159.424 32.61 159.214 31.95 158.794 31.41C158.394 30.87 157.754 30.38 156.874 29.94L153.604 28.29C152.144 27.55 151.084 26.77 150.424 25.95C149.784 25.13 149.464 24.15 149.464 23.01C149.464 21.81 149.774 20.76 150.394 19.86C151.014 18.96 151.874 18.26 152.974 17.76C154.074 17.24 155.334 16.98 156.754 16.98C157.834 16.98 158.794 17.13 159.634 17.43C160.474 17.71 161.184 18.14 161.764 18.72C162.364 19.28 162.824 19.97 163.144 20.79C163.464 21.59 163.634 22.52 163.654 23.58H161.284C161.264 22.6 161.074 21.78 160.714 21.12C160.354 20.46 159.824 19.97 159.124 19.65C158.424 19.31 157.554 19.14 156.514 19.14C155.554 19.14 154.724 19.28 154.024 19.56C153.344 19.84 152.814 20.24 152.434 20.76C152.074 21.28 151.894 21.92 151.894 22.68C151.894 23.36 152.094 23.96 152.494 24.48C152.914 25 153.594 25.49 154.534 25.95L158.014 27.69C159.314 28.33 160.274 29.08 160.894 29.94C161.514 30.8 161.824 31.84 161.824 33.06C161.824 34.3 161.524 35.39 160.924 36.33C160.324 37.25 159.474 37.97 158.374 38.49C157.274 39.01 155.974 39.27 154.474 39.27ZM172.366 39.27C171.346 39.27 170.456 39.08 169.696 38.7C168.936 38.3 168.346 37.75 167.926 37.05C167.506 36.35 167.286 35.55 167.266 34.65L167.746 34.62L165.286 45.15H162.886L167.836 23.7H170.086L169.366 26.76L169.216 26.64C169.796 25.6 170.586 24.8 171.586 24.24C172.606 23.68 173.726 23.4 174.946 23.4C176.726 23.4 178.126 23.97 179.146 25.11C180.166 26.23 180.676 27.77 180.676 29.73C180.676 31.05 180.456 32.29 180.016 33.45C179.596 34.59 178.996 35.6 178.216 36.48C177.456 37.34 176.576 38.02 175.576 38.52C174.576 39.02 173.506 39.27 172.366 39.27ZM172.276 37.17C173.116 37.17 173.896 36.99 174.616 36.63C175.336 36.25 175.966 35.74 176.506 35.1C177.046 34.44 177.466 33.68 177.766 32.82C178.066 31.96 178.216 31.05 178.216 30.09C178.216 28.67 177.866 27.55 177.166 26.73C176.486 25.91 175.526 25.5 174.286 25.5C173.626 25.5 172.986 25.62 172.366 25.86C171.766 26.1 171.216 26.44 170.716 26.88C170.216 27.3 169.776 27.81 169.396 28.41C169.016 28.99 168.726 29.63 168.526 30.33C168.326 31.03 168.226 31.76 168.226 32.52C168.226 33.96 168.596 35.1 169.336 35.94C170.076 36.76 171.056 37.17 172.276 37.17ZM182.489 39L186.029 23.7H188.279L187.379 27.6H187.529L184.889 39H182.489ZM186.839 30.51L187.259 26.85C187.779 25.83 188.519 25 189.479 24.36C190.459 23.72 191.539 23.4 192.719 23.4C193.059 23.4 193.349 23.43 193.589 23.49C193.829 23.53 194.019 23.58 194.159 23.64L193.619 25.95C193.459 25.89 193.209 25.84 192.869 25.8C192.549 25.74 192.239 25.71 191.939 25.71C190.639 25.71 189.549 26.12 188.669 26.94C187.789 27.76 187.179 28.95 186.839 30.51ZM193.506 39L197.016 23.7H199.416L195.906 39H193.506ZM197.556 20.22L198.156 17.4H200.916L200.316 20.22H197.556ZM200.742 39L204.252 23.7H206.502L205.692 27.3H205.842L203.142 39H200.742ZM211.662 39L213.822 29.61C214.142 28.25 214.042 27.22 213.522 26.52C213.002 25.8 212.142 25.44 210.942 25.44C209.522 25.44 208.282 25.9 207.222 26.82C206.182 27.72 205.472 28.96 205.092 30.54L205.542 26.79C206.302 25.71 207.212 24.88 208.272 24.3C209.352 23.7 210.482 23.4 211.662 23.4C213.462 23.4 214.782 23.95 215.622 25.05C216.462 26.15 216.672 27.63 216.252 29.49L214.062 39H211.662ZM224.341 45.45C223.061 45.45 221.931 45.26 220.951 44.88C219.991 44.5 219.231 43.96 218.671 43.26C218.111 42.56 217.791 41.74 217.711 40.8H219.931C220.131 41.76 220.631 42.43 221.431 42.81C222.251 43.21 223.231 43.41 224.371 43.41C225.671 43.41 226.791 43.03 227.731 42.27C228.691 41.51 229.341 40.39 229.681 38.91L230.371 35.94L230.521 36.33C229.921 37.29 229.131 38.03 228.151 38.55C227.191 39.05 226.121 39.3 224.941 39.3C223.161 39.3 221.761 38.73 220.741 37.59C219.721 36.45 219.211 34.91 219.211 32.97C219.211 31.65 219.421 30.42 219.841 29.28C220.281 28.12 220.881 27.11 221.641 26.25C222.421 25.37 223.311 24.68 224.311 24.18C225.311 23.68 226.381 23.43 227.521 23.43C228.501 23.43 229.361 23.61 230.101 23.97C230.841 24.33 231.431 24.83 231.871 25.47C232.311 26.11 232.561 26.85 232.621 27.69L232.321 27.99L233.341 23.7H235.591L232.021 39.15C231.561 41.15 230.651 42.7 229.291 43.8C227.951 44.9 226.301 45.45 224.341 45.45ZM225.601 37.2C226.261 37.2 226.891 37.08 227.491 36.84C228.111 36.6 228.671 36.27 229.171 35.85C229.671 35.41 230.111 34.9 230.491 34.32C230.871 33.72 231.161 33.07 231.361 32.37C231.561 31.67 231.661 30.94 231.661 30.18C231.661 28.74 231.291 27.61 230.551 26.79C229.831 25.95 228.851 25.53 227.611 25.53C226.491 25.53 225.481 25.85 224.581 26.49C223.681 27.13 222.971 27.99 222.451 29.07C221.931 30.13 221.671 31.31 221.671 32.61C221.671 34.01 222.021 35.13 222.721 35.97C223.421 36.79 224.381 37.2 225.601 37.2ZM241.67 39L242.15 36.9C244.81 35.1 247.06 33.5 248.9 32.1C250.76 30.7 252.25 29.44 253.37 28.32C254.51 27.18 255.34 26.14 255.86 25.2C256.38 24.26 256.64 23.37 256.64 22.53C256.64 21.51 256.31 20.72 255.65 20.16C255.01 19.58 254.1 19.29 252.92 19.29C251.64 19.29 250.54 19.67 249.62 20.43C248.7 21.17 248.01 22.25 247.55 23.67H245.03C245.61 21.59 246.61 19.99 248.03 18.87C249.45 17.73 251.16 17.16 253.16 17.16C254.42 17.16 255.5 17.38 256.4 17.82C257.32 18.24 258.03 18.84 258.53 19.62C259.03 20.4 259.28 21.32 259.28 22.38C259.28 23.44 259.01 24.52 258.47 25.62C257.93 26.72 257.08 27.89 255.92 29.13C254.76 30.35 253.23 31.69 251.33 33.15C249.45 34.61 247.16 36.23 244.46 38.01L244.16 36.84H256.49L255.98 39H241.67ZM268.118 39.27C266.638 39.27 265.368 38.91 264.308 38.19C263.248 37.45 262.438 36.44 261.878 35.16C261.318 33.88 261.038 32.42 261.038 30.78C261.038 29.84 261.128 28.85 261.308 27.81C261.508 26.77 261.798 25.74 262.178 24.72C262.558 23.7 263.028 22.74 263.588 21.84C264.168 20.92 264.838 20.11 265.598 19.41C266.358 18.71 267.208 18.16 268.148 17.76C269.108 17.34 270.148 17.13 271.268 17.13C272.748 17.13 274.018 17.48 275.078 18.18C276.138 18.88 276.958 19.86 277.538 21.12C278.118 22.38 278.408 23.84 278.408 25.5C278.408 26.44 278.308 27.43 278.108 28.47C277.908 29.51 277.618 30.55 277.238 31.59C276.858 32.61 276.378 33.58 275.798 34.5C275.218 35.42 274.548 36.24 273.788 36.96C273.028 37.68 272.168 38.25 271.208 38.67C270.268 39.07 269.238 39.27 268.118 39.27ZM268.208 37.11C269.108 37.11 269.918 36.92 270.638 36.54C271.358 36.14 271.998 35.61 272.558 34.95C273.118 34.27 273.598 33.51 273.998 32.67C274.418 31.83 274.758 30.96 275.018 30.06C275.278 29.16 275.468 28.29 275.588 27.45C275.728 26.59 275.798 25.81 275.798 25.11C275.798 23.27 275.388 21.84 274.568 20.82C273.748 19.8 272.628 19.29 271.208 19.29C270.308 19.29 269.488 19.49 268.748 19.89C268.028 20.27 267.388 20.79 266.828 21.45C266.288 22.09 265.818 22.82 265.418 23.64C265.018 24.46 264.688 25.32 264.428 26.22C264.168 27.1 263.978 27.96 263.858 28.8C263.738 29.64 263.678 30.41 263.678 31.11C263.678 32.93 264.068 34.39 264.848 35.49C265.628 36.57 266.748 37.11 268.208 37.11ZM278.233 39L278.713 36.9C281.373 35.1 283.623 33.5 285.463 32.1C287.323 30.7 288.813 29.44 289.933 28.32C291.073 27.18 291.903 26.14 292.423 25.2C292.943 24.26 293.203 23.37 293.203 22.53C293.203 21.51 292.873 20.72 292.213 20.16C291.573 19.58 290.663 19.29 289.483 19.29C288.203 19.29 287.103 19.67 286.183 20.43C285.263 21.17 284.573 22.25 284.113 23.67H281.593C282.173 21.59 283.173 19.99 284.593 18.87C286.013 17.73 287.723 17.16 289.723 17.16C290.983 17.16 292.063 17.38 292.963 17.82C293.883 18.24 294.593 18.84 295.093 19.62C295.593 20.4 295.843 21.32 295.843 22.38C295.843 23.44 295.573 24.52 295.033 25.62C294.493 26.72 293.643 27.89 292.483 29.13C291.323 30.35 289.793 31.69 287.893 33.15C286.013 34.61 283.723 36.23 281.023 38.01L280.723 36.84H293.053L292.543 39H278.233ZM302.89 39.3C301.73 39.3 300.7 39.13 299.8 38.79C298.92 38.43 298.18 37.96 297.58 37.38C297 36.78 296.57 36.11 296.29 35.37C296.03 34.63 295.95 33.87 296.05 33.09H298.57C298.53 33.79 298.67 34.45 298.99 35.07C299.31 35.69 299.8 36.19 300.46 36.57C301.12 36.95 301.94 37.14 302.92 37.14C303.56 37.14 304.15 37.04 304.69 36.84C305.25 36.64 305.74 36.36 306.16 36C306.6 35.62 306.97 35.18 307.27 34.68C307.59 34.18 307.83 33.64 307.99 33.06C308.15 32.46 308.23 31.84 308.23 31.2C308.23 29.78 307.85 28.71 307.09 27.99C306.33 27.27 305.29 26.91 303.97 26.91C303.17 26.91 302.42 27.06 301.72 27.36C301.04 27.64 300.48 28.1 300.04 28.74H297.85L301.42 17.4H312.85L312.37 19.56H302.41L303.46 18.66L300.76 27.36L300.43 26.67C300.89 26.13 301.49 25.71 302.23 25.41C302.99 25.09 303.84 24.93 304.78 24.93C306 24.93 307.07 25.19 307.99 25.71C308.91 26.23 309.62 26.97 310.12 27.93C310.64 28.87 310.9 29.99 310.9 31.29C310.9 32.21 310.77 33.07 310.51 33.87C310.25 34.67 309.88 35.41 309.4 36.09C308.94 36.75 308.38 37.32 307.72 37.8C307.06 38.28 306.32 38.65 305.5 38.91C304.7 39.17 303.83 39.3 302.89 39.3ZM320.663 31.86L321.143 29.82H333.923L333.443 31.86H320.663ZM344.277 39L344.757 36.84H351.747C353.127 36.84 354.397 36.57 355.557 36.03C356.717 35.49 357.727 34.75 358.587 33.81C359.447 32.87 360.107 31.8 360.567 30.6C361.047 29.4 361.287 28.14 361.287 26.82C361.287 25.42 361.017 24.18 360.477 23.1C359.937 22 359.177 21.14 358.197 20.52C357.237 19.88 356.097 19.56 354.777 19.56H348.687L349.167 17.4H355.017C356.777 17.4 358.307 17.8 359.607 18.6C360.927 19.4 361.957 20.5 362.697 21.9C363.437 23.28 363.807 24.86 363.807 26.64C363.807 28.26 363.497 29.82 362.877 31.32C362.277 32.8 361.427 34.12 360.327 35.28C359.227 36.42 357.927 37.33 356.427 38.01C354.947 38.67 353.337 39 351.597 39H344.277ZM342.807 39L347.757 17.4H350.217L345.267 39H342.807ZM365.335 39L370.315 17.4H372.775L367.795 39H365.335ZM366.595 39L367.075 36.84H380.275L379.795 39H366.595ZM368.935 28.83L369.415 26.67H381.535L381.055 28.83H368.935ZM371.065 19.56L371.575 17.4H384.535L384.025 19.56H371.065ZM391.427 39.27C390.207 39.27 389.107 39.1 388.127 38.76C387.147 38.42 386.307 37.93 385.607 37.29C384.927 36.65 384.397 35.89 384.017 35.01C383.657 34.11 383.477 33.11 383.477 32.01H385.877C385.877 32.81 386.007 33.53 386.267 34.17C386.527 34.79 386.897 35.32 387.377 35.76C387.877 36.2 388.477 36.54 389.177 36.78C389.897 37 390.707 37.11 391.607 37.11C393.127 37.11 394.297 36.78 395.117 36.12C395.957 35.46 396.377 34.55 396.377 33.39C396.377 32.61 396.167 31.95 395.747 31.41C395.347 30.87 394.707 30.38 393.827 29.94L390.557 28.29C389.097 27.55 388.037 26.77 387.377 25.95C386.737 25.13 386.417 24.15 386.417 23.01C386.417 21.81 386.727 20.76 387.347 19.86C387.967 18.96 388.827 18.26 389.927 17.76C391.027 17.24 392.287 16.98 393.707 16.98C394.787 16.98 395.747 17.13 396.587 17.43C397.427 17.71 398.137 18.14 398.717 18.72C399.317 19.28 399.777 19.97 400.097 20.79C400.417 21.59 400.587 22.52 400.607 23.58H398.237C398.217 22.6 398.027 21.78 397.667 21.12C397.307 20.46 396.777 19.97 396.077 19.65C395.377 19.31 394.507 19.14 393.467 19.14C392.507 19.14 391.677 19.28 390.977 19.56C390.297 19.84 389.767 20.24 389.387 20.76C389.027 21.28 388.847 21.92 388.847 22.68C388.847 23.36 389.047 23.96 389.447 24.48C389.867 25 390.547 25.49 391.487 25.95L394.967 27.69C396.267 28.33 397.227 29.08 397.847 29.94C398.467 30.8 398.777 31.84 398.777 33.06C398.777 34.3 398.477 35.39 397.877 36.33C397.277 37.25 396.427 37.97 395.327 38.49C394.227 39.01 392.927 39.27 391.427 39.27ZM411.605 39L415.925 20.13L416.525 20.37C416.165 20.87 415.585 21.35 414.785 21.81C414.005 22.25 413.125 22.62 412.145 22.92C411.185 23.2 410.235 23.35 409.295 23.37L409.805 21.09C410.765 21.03 411.715 20.85 412.655 20.55C413.595 20.25 414.465 19.84 415.265 19.32C416.065 18.78 416.715 18.14 417.215 17.4H418.985L414.005 39H411.605ZM425.761 39.3C424.601 39.3 423.571 39.13 422.671 38.79C421.791 38.43 421.051 37.96 420.451 37.38C419.871 36.78 419.441 36.11 419.161 35.37C418.901 34.63 418.821 33.87 418.921 33.09H421.441C421.401 33.79 421.541 34.45 421.861 35.07C422.181 35.69 422.671 36.19 423.331 36.57C423.991 36.95 424.811 37.14 425.791 37.14C426.431 37.14 427.021 37.04 427.561 36.84C428.121 36.64 428.611 36.36 429.031 36C429.471 35.62 429.841 35.18 430.141 34.68C430.461 34.18 430.701 33.64 430.861 33.06C431.021 32.46 431.101 31.84 431.101 31.2C431.101 29.78 430.721 28.71 429.961 27.99C429.201 27.27 428.161 26.91 426.841 26.91C426.041 26.91 425.291 27.06 424.591 27.36C423.911 27.64 423.351 28.1 422.911 28.74H420.721L424.291 17.4H435.721L435.241 19.56H425.281L426.331 18.66L423.631 27.36L423.301 26.67C423.761 26.13 424.361 25.71 425.101 25.41C425.861 25.09 426.711 24.93 427.651 24.93C428.871 24.93 429.941 25.19 430.861 25.71C431.781 26.23 432.491 26.97 432.991 27.93C433.511 28.87 433.771 29.99 433.771 31.29C433.771 32.21 433.641 33.07 433.381 33.87C433.121 34.67 432.751 35.41 432.271 36.09C431.811 36.75 431.251 37.32 430.591 37.8C429.931 38.28 429.191 38.65 428.371 38.91C427.571 39.17 426.701 39.3 425.761 39.3ZM438.193 39C439.253 35.6 440.813 32.24 442.873 28.92C444.933 25.58 447.593 22.17 450.853 18.69L451.123 19.56H438.493L438.973 17.4H453.553L453.133 19.2C450.993 21.54 449.143 23.8 447.583 25.98C446.023 28.16 444.713 30.32 443.653 32.46C442.593 34.58 441.723 36.76 441.043 39H438.193ZM453.205 39L453.685 36.96H460.465C461.545 36.96 462.475 36.78 463.255 36.42C464.055 36.04 464.665 35.5 465.085 34.8C465.525 34.1 465.745 33.28 465.745 32.34C465.745 31.2 465.425 30.31 464.785 29.67C464.145 29.01 463.265 28.68 462.145 28.68H455.545L455.995 26.7H462.325C463.405 26.7 464.335 26.53 465.115 26.19C465.895 25.85 466.495 25.38 466.915 24.78C467.335 24.16 467.545 23.42 467.545 22.56C467.545 21.6 467.255 20.84 466.675 20.28C466.095 19.72 465.305 19.44 464.305 19.44H457.645L458.125 17.4H464.725C466.325 17.4 467.605 17.86 468.565 18.78C469.545 19.7 470.035 20.9 470.035 22.38C470.035 23.26 469.855 24.07 469.495 24.81C469.135 25.53 468.645 26.15 468.025 26.67C467.405 27.19 466.695 27.58 465.895 27.84C465.095 28.1 464.245 28.19 463.345 28.11L463.675 27.51C465.095 27.65 466.215 28.18 467.035 29.1C467.855 30.02 468.265 31.19 468.265 32.61C468.265 33.89 467.925 35.01 467.245 35.97C466.585 36.93 465.655 37.68 464.455 38.22C463.255 38.74 461.855 39 460.255 39H453.205ZM451.615 39L456.565 17.4H459.025L454.075 39H451.615ZM478.134 31.86L478.614 29.82H491.394L490.914 31.86H478.134ZM508.498 39.27C507.278 39.27 506.178 39.1 505.198 38.76C504.218 38.42 503.378 37.93 502.678 37.29C501.998 36.65 501.468 35.89 501.088 35.01C500.728 34.11 500.548 33.11 500.548 32.01H502.948C502.948 32.81 503.078 33.53 503.338 34.17C503.598 34.79 503.968 35.32 504.448 35.76C504.948 36.2 505.548 36.54 506.248 36.78C506.968 37 507.778 37.11 508.678 37.11C510.198 37.11 511.368 36.78 512.188 36.12C513.028 35.46 513.448 34.55 513.448 33.39C513.448 32.61 513.238 31.95 512.818 31.41C512.418 30.87 511.778 30.38 510.898 29.94L507.628 28.29C506.168 27.55 505.108 26.77 504.448 25.95C503.808 25.13 503.488 24.15 503.488 23.01C503.488 21.81 503.798 20.76 504.418 19.86C505.038 18.96 505.898 18.26 506.998 17.76C508.098 17.24 509.358 16.98 510.778 16.98C511.858 16.98 512.818 17.13 513.658 17.43C514.498 17.71 515.208 18.14 515.788 18.72C516.388 19.28 516.848 19.97 517.168 20.79C517.488 21.59 517.658 22.52 517.678 23.58H515.308C515.288 22.6 515.098 21.78 514.738 21.12C514.378 20.46 513.848 19.97 513.148 19.65C512.448 19.31 511.578 19.14 510.538 19.14C509.578 19.14 508.748 19.28 508.048 19.56C507.368 19.84 506.838 20.24 506.458 20.76C506.098 21.28 505.918 21.92 505.918 22.68C505.918 23.36 506.118 23.96 506.518 24.48C506.938 25 507.618 25.49 508.558 25.95L512.038 27.69C513.338 28.33 514.298 29.08 514.918 29.94C515.538 30.8 515.848 31.84 515.848 33.06C515.848 34.3 515.548 35.39 514.948 36.33C514.348 37.25 513.498 37.97 512.398 38.49C511.298 39.01 509.998 39.27 508.498 39.27ZM525.311 39.3C524.011 39.3 522.871 39.02 521.891 38.46C520.911 37.9 520.151 37.12 519.611 36.12C519.071 35.1 518.801 33.92 518.801 32.58C518.801 31.56 518.941 30.59 519.221 29.67C519.521 28.75 519.931 27.91 520.451 27.15C520.971 26.39 521.591 25.73 522.311 25.17C523.031 24.61 523.821 24.18 524.681 23.88C525.541 23.56 526.451 23.4 527.411 23.4C528.651 23.4 529.731 23.65 530.651 24.15C531.591 24.65 532.311 25.35 532.811 26.25C533.331 27.15 533.591 28.2 533.591 29.4C533.591 29.86 533.541 30.32 533.441 30.78C533.361 31.22 533.221 31.65 533.021 32.07H520.631L521.081 30.06H531.971L530.951 31.68C531.131 30.94 531.211 30.21 531.191 29.49C531.191 28.75 531.051 28.08 530.771 27.48C530.511 26.86 530.101 26.37 529.541 26.01C528.981 25.63 528.231 25.44 527.291 25.44C526.631 25.44 526.001 25.56 525.401 25.8C524.801 26.04 524.251 26.38 523.751 26.82C523.251 27.24 522.811 27.75 522.431 28.35C522.051 28.93 521.761 29.58 521.561 30.3C521.361 31 521.261 31.74 521.261 32.52C521.261 34 521.651 35.16 522.431 36C523.211 36.84 524.281 37.26 525.641 37.26C526.561 37.26 527.361 37.06 528.041 36.66C528.721 36.24 529.301 35.61 529.781 34.77H532.061C531.321 36.29 530.381 37.43 529.241 38.19C528.101 38.93 526.791 39.3 525.311 39.3ZM541.705 39.33C540.485 39.33 539.425 39.06 538.525 38.52C537.625 37.96 536.925 37.19 536.425 36.21C535.925 35.21 535.675 34.05 535.675 32.73C535.675 31.69 535.815 30.71 536.095 29.79C536.395 28.87 536.805 28.02 537.325 27.24C537.865 26.46 538.495 25.79 539.215 25.23C539.935 24.67 540.725 24.24 541.585 23.94C542.445 23.62 543.355 23.46 544.315 23.46C545.135 23.46 545.885 23.59 546.565 23.85C547.245 24.11 547.835 24.48 548.335 24.96C548.835 25.42 549.225 25.98 549.505 26.64C549.785 27.28 549.925 27.99 549.925 28.77H547.705C547.685 28.09 547.525 27.51 547.225 27.03C546.925 26.55 546.515 26.18 545.995 25.92C545.475 25.64 544.855 25.5 544.135 25.5C543.455 25.5 542.815 25.62 542.215 25.86C541.615 26.1 541.065 26.45 540.565 26.91C540.065 27.35 539.635 27.87 539.275 28.47C538.915 29.07 538.635 29.74 538.435 30.48C538.235 31.22 538.135 32 538.135 32.82C538.135 34.24 538.465 35.35 539.125 36.15C539.785 36.93 540.715 37.32 541.915 37.32C542.995 37.32 543.955 37.02 544.795 36.42C545.635 35.82 546.245 35 546.625 33.96H548.845C548.305 35.6 547.385 36.91 546.085 37.89C544.805 38.85 543.345 39.33 541.705 39.33ZM557.283 39.27C555.583 39.27 554.433 38.84 553.833 37.98C553.233 37.1 553.103 35.93 553.443 34.47L556.743 20.13L559.353 19.23L555.753 34.83C555.573 35.65 555.653 36.26 555.993 36.66C556.353 37.04 557.023 37.23 558.003 37.23C558.403 37.23 558.743 37.21 559.023 37.17C559.323 37.11 559.573 37.04 559.773 36.96L559.323 39C559.103 39.08 558.823 39.14 558.483 39.18C558.143 39.24 557.743 39.27 557.283 39.27ZM552.303 25.74L552.753 23.7H562.833L562.383 25.74H552.303ZM562.441 39L565.951 23.7H568.351L564.841 39H562.441ZM566.491 20.22L567.091 17.4H569.851L569.251 20.22H566.491ZM576.639 39.3C575.359 39.3 574.229 39.02 573.249 38.46C572.269 37.88 571.499 37.08 570.939 36.06C570.399 35.04 570.129 33.86 570.129 32.52C570.129 31.26 570.349 30.08 570.789 28.98C571.249 27.88 571.869 26.91 572.649 26.07C573.449 25.23 574.369 24.58 575.409 24.12C576.449 23.64 577.569 23.4 578.769 23.4C580.089 23.4 581.239 23.68 582.219 24.24C583.199 24.8 583.959 25.59 584.499 26.61C585.039 27.61 585.309 28.78 585.309 30.12C585.309 31.38 585.079 32.57 584.619 33.69C584.159 34.79 583.529 35.76 582.729 36.6C581.929 37.44 581.009 38.1 579.969 38.58C578.929 39.06 577.819 39.3 576.639 39.3ZM576.759 37.26C577.579 37.26 578.359 37.08 579.099 36.72C579.839 36.34 580.489 35.83 581.049 35.19C581.609 34.53 582.049 33.77 582.369 32.91C582.689 32.05 582.849 31.13 582.849 30.15C582.849 28.71 582.469 27.57 581.709 26.73C580.969 25.87 579.949 25.44 578.649 25.44C577.809 25.44 577.019 25.62 576.279 25.98C575.559 26.34 574.919 26.84 574.359 27.48C573.819 28.12 573.389 28.87 573.069 29.73C572.749 30.57 572.589 31.48 572.589 32.46C572.589 33.92 572.969 35.09 573.729 35.97C574.489 36.83 575.499 37.26 576.759 37.26ZM587.139 39L590.649 23.7H592.899L592.089 27.3H592.239L589.539 39H587.139ZM598.059 39L600.219 29.61C600.539 28.25 600.439 27.22 599.919 26.52C599.399 25.8 598.539 25.44 597.339 25.44C595.919 25.44 594.679 25.9 593.619 26.82C592.579 27.72 591.869 28.96 591.489 30.54L591.939 26.79C592.699 25.71 593.609 24.88 594.669 24.3C595.749 23.7 596.879 23.4 598.059 23.4C599.859 23.4 601.179 23.95 602.019 25.05C602.859 26.15 603.069 27.63 602.649 29.49L600.459 39H598.059ZM609.873 39L610.353 36.9C613.013 35.1 615.263 33.5 617.103 32.1C618.963 30.7 620.453 29.44 621.573 28.32C622.713 27.18 623.543 26.14 624.063 25.2C624.583 24.26 624.843 23.37 624.843 22.53C624.843 21.51 624.513 20.72 623.853 20.16C623.213 19.58 622.303 19.29 621.123 19.29C619.843 19.29 618.743 19.67 617.823 20.43C616.903 21.17 616.213 22.25 615.753 23.67H613.233C613.813 21.59 614.813 19.99 616.233 18.87C617.653 17.73 619.363 17.16 621.363 17.16C622.623 17.16 623.703 17.38 624.603 17.82C625.523 18.24 626.233 18.84 626.733 19.62C627.233 20.4 627.483 21.32 627.483 22.38C627.483 23.44 627.213 24.52 626.673 25.62C626.133 26.72 625.283 27.89 624.123 29.13C622.963 30.35 621.433 31.69 619.533 33.15C617.653 34.61 615.363 36.23 612.663 38.01L612.363 36.84H624.693L624.183 39H609.873ZM635.077 31.86L635.557 29.82H648.337L647.857 31.86H635.077ZM665.441 39.27C664.221 39.27 663.121 39.1 662.141 38.76C661.161 38.42 660.321 37.93 659.621 37.29C658.941 36.65 658.411 35.89 658.031 35.01C657.671 34.11 657.491 33.11 657.491 32.01H659.891C659.891 32.81 660.021 33.53 660.281 34.17C660.541 34.79 660.911 35.32 661.391 35.76C661.891 36.2 662.491 36.54 663.191 36.78C663.911 37 664.721 37.11 665.621 37.11C667.141 37.11 668.311 36.78 669.131 36.12C669.971 35.46 670.391 34.55 670.391 33.39C670.391 32.61 670.181 31.95 669.761 31.41C669.361 30.87 668.721 30.38 667.841 29.94L664.571 28.29C663.111 27.55 662.051 26.77 661.391 25.95C660.751 25.13 660.431 24.15 660.431 23.01C660.431 21.81 660.741 20.76 661.361 19.86C661.981 18.96 662.841 18.26 663.941 17.76C665.041 17.24 666.301 16.98 667.721 16.98C668.801 16.98 669.761 17.13 670.601 17.43C671.441 17.71 672.151 18.14 672.731 18.72C673.331 19.28 673.791 19.97 674.111 20.79C674.431 21.59 674.601 22.52 674.621 23.58H672.251C672.231 22.6 672.041 21.78 671.681 21.12C671.321 20.46 670.791 19.97 670.091 19.65C669.391 19.31 668.521 19.14 667.481 19.14C666.521 19.14 665.691 19.28 664.991 19.56C664.311 19.84 663.781 20.24 663.401 20.76C663.041 21.28 662.861 21.92 662.861 22.68C662.861 23.36 663.061 23.96 663.461 24.48C663.881 25 664.561 25.49 665.501 25.95L668.981 27.69C670.281 28.33 671.241 29.08 671.861 29.94C672.481 30.8 672.791 31.84 672.791 33.06C672.791 34.3 672.491 35.39 671.891 36.33C671.291 37.25 670.441 37.97 669.341 38.49C668.241 39.01 666.941 39.27 665.441 39.27ZM683.333 39.27C682.313 39.27 681.423 39.08 680.663 38.7C679.903 38.3 679.313 37.75 678.893 37.05C678.473 36.35 678.253 35.55 678.233 34.65L678.713 34.62L676.253 45.15H673.853L678.803 23.7H681.053L680.333 26.76L680.183 26.64C680.763 25.6 681.553 24.8 682.553 24.24C683.573 23.68 684.693 23.4 685.913 23.4C687.693 23.4 689.093 23.97 690.113 25.11C691.133 26.23 691.643 27.77 691.643 29.73C691.643 31.05 691.423 32.29 690.983 33.45C690.563 34.59 689.963 35.6 689.183 36.48C688.423 37.34 687.543 38.02 686.543 38.52C685.543 39.02 684.473 39.27 683.333 39.27ZM683.243 37.17C684.083 37.17 684.863 36.99 685.583 36.63C686.303 36.25 686.933 35.74 687.473 35.1C688.013 34.44 688.433 33.68 688.733 32.82C689.033 31.96 689.183 31.05 689.183 30.09C689.183 28.67 688.833 27.55 688.133 26.73C687.453 25.91 686.493 25.5 685.253 25.5C684.593 25.5 683.953 25.62 683.333 25.86C682.733 26.1 682.183 26.44 681.683 26.88C681.183 27.3 680.743 27.81 680.363 28.41C679.983 28.99 679.693 29.63 679.493 30.33C679.293 31.03 679.193 31.76 679.193 32.52C679.193 33.96 679.563 35.1 680.303 35.94C681.043 36.76 682.023 37.17 683.243 37.17ZM693.456 39L696.996 23.7H699.246L698.346 27.6H698.496L695.856 39H693.456ZM697.806 30.51L698.226 26.85C698.746 25.83 699.486 25 700.446 24.36C701.426 23.72 702.506 23.4 703.686 23.4C704.026 23.4 704.316 23.43 704.556 23.49C704.796 23.53 704.986 23.58 705.126 23.64L704.586 25.95C704.426 25.89 704.176 25.84 703.836 25.8C703.516 25.74 703.206 25.71 702.906 25.71C701.606 25.71 700.516 26.12 699.636 26.94C698.756 27.76 698.146 28.95 697.806 30.51ZM704.473 39L707.983 23.7H710.383L706.873 39H704.473ZM708.523 20.22L709.123 17.4H711.883L711.283 20.22H708.523ZM711.709 39L715.219 23.7H717.469L716.659 27.3H716.809L714.109 39H711.709ZM722.629 39L724.789 29.61C725.109 28.25 725.009 27.22 724.489 26.52C723.969 25.8 723.109 25.44 721.909 25.44C720.489 25.44 719.249 25.9 718.189 26.82C717.149 27.72 716.439 28.96 716.059 30.54L716.509 26.79C717.269 25.71 718.179 24.88 719.239 24.3C720.319 23.7 721.449 23.4 722.629 23.4C724.429 23.4 725.749 23.95 726.589 25.05C727.429 26.15 727.639 27.63 727.219 29.49L725.029 39H722.629ZM735.308 45.45C734.028 45.45 732.898 45.26 731.918 44.88C730.958 44.5 730.198 43.96 729.638 43.26C729.078 42.56 728.758 41.74 728.678 40.8H730.898C731.098 41.76 731.598 42.43 732.398 42.81C733.218 43.21 734.198 43.41 735.338 43.41C736.638 43.41 737.758 43.03 738.698 42.27C739.658 41.51 740.308 40.39 740.648 38.91L741.338 35.94L741.488 36.33C740.888 37.29 740.098 38.03 739.118 38.55C738.158 39.05 737.088 39.3 735.908 39.3C734.128 39.3 732.728 38.73 731.708 37.59C730.688 36.45 730.178 34.91 730.178 32.97C730.178 31.65 730.388 30.42 730.808 29.28C731.248 28.12 731.848 27.11 732.608 26.25C733.388 25.37 734.278 24.68 735.278 24.18C736.278 23.68 737.348 23.43 738.488 23.43C739.468 23.43 740.328 23.61 741.068 23.97C741.808 24.33 742.398 24.83 742.838 25.47C743.278 26.11 743.528 26.85 743.588 27.69L743.288 27.99L744.308 23.7H746.558L742.988 39.15C742.528 41.15 741.618 42.7 740.258 43.8C738.918 44.9 737.268 45.45 735.308 45.45ZM736.568 37.2C737.228 37.2 737.858 37.08 738.458 36.84C739.078 36.6 739.638 36.27 740.138 35.85C740.638 35.41 741.078 34.9 741.458 34.32C741.838 33.72 742.128 33.07 742.328 32.37C742.528 31.67 742.628 30.94 742.628 30.18C742.628 28.74 742.258 27.61 741.518 26.79C740.798 25.95 739.818 25.53 738.578 25.53C737.458 25.53 736.448 25.85 735.548 26.49C734.648 27.13 733.938 27.99 733.418 29.07C732.898 30.13 732.638 31.31 732.638 32.61C732.638 34.01 732.988 35.13 733.688 35.97C734.388 36.79 735.348 37.2 736.568 37.2ZM752.637 39L753.117 36.9C755.777 35.1 758.027 33.5 759.867 32.1C761.727 30.7 763.217 29.44 764.337 28.32C765.477 27.18 766.307 26.14 766.827 25.2C767.347 24.26 767.607 23.37 767.607 22.53C767.607 21.51 767.277 20.72 766.617 20.16C765.977 19.58 765.067 19.29 763.887 19.29C762.607 19.29 761.507 19.67 760.587 20.43C759.667 21.17 758.977 22.25 758.517 23.67H755.997C756.577 21.59 757.577 19.99 758.997 18.87C760.417 17.73 762.127 17.16 764.127 17.16C765.387 17.16 766.467 17.38 767.367 17.82C768.287 18.24 768.997 18.84 769.497 19.62C769.997 20.4 770.247 21.32 770.247 22.38C770.247 23.44 769.977 24.52 769.437 25.62C768.897 26.72 768.047 27.89 766.887 29.13C765.727 30.35 764.197 31.69 762.297 33.15C760.417 34.61 758.127 36.23 755.427 38.01L755.127 36.84H767.457L766.947 39H752.637ZM779.085 39.27C777.605 39.27 776.335 38.91 775.275 38.19C774.215 37.45 773.405 36.44 772.845 35.16C772.285 33.88 772.005 32.42 772.005 30.78C772.005 29.84 772.095 28.85 772.275 27.81C772.475 26.77 772.765 25.74 773.145 24.72C773.525 23.7 773.995 22.74 774.555 21.84C775.135 20.92 775.805 20.11 776.565 19.41C777.325 18.71 778.175 18.16 779.115 17.76C780.075 17.34 781.115 17.13 782.235 17.13C783.715 17.13 784.985 17.48 786.045 18.18C787.105 18.88 787.925 19.86 788.505 21.12C789.085 22.38 789.375 23.84 789.375 25.5C789.375 26.44 789.275 27.43 789.075 28.47C788.875 29.51 788.585 30.55 788.205 31.59C787.825 32.61 787.345 33.58 786.765 34.5C786.185 35.42 785.515 36.24 784.755 36.96C783.995 37.68 783.135 38.25 782.175 38.67C781.235 39.07 780.205 39.27 779.085 39.27ZM779.175 37.11C780.075 37.11 780.885 36.92 781.605 36.54C782.325 36.14 782.965 35.61 783.525 34.95C784.085 34.27 784.565 33.51 784.965 32.67C785.385 31.83 785.725 30.96 785.985 30.06C786.245 29.16 786.435 28.29 786.555 27.45C786.695 26.59 786.765 25.81 786.765 25.11C786.765 23.27 786.355 21.84 785.535 20.82C784.715 19.8 783.595 19.29 782.175 19.29C781.275 19.29 780.455 19.49 779.715 19.89C778.995 20.27 778.355 20.79 777.795 21.45C777.255 22.09 776.785 22.82 776.385 23.64C775.985 24.46 775.655 25.32 775.395 26.22C775.135 27.1 774.945 27.96 774.825 28.8C774.705 29.64 774.645 30.41 774.645 31.11C774.645 32.93 775.035 34.39 775.815 35.49C776.595 36.57 777.715 37.11 779.175 37.11ZM789.2 39L789.68 36.9C792.34 35.1 794.59 33.5 796.43 32.1C798.29 30.7 799.78 29.44 800.9 28.32C802.04 27.18 802.87 26.14 803.39 25.2C803.91 24.26 804.17 23.37 804.17 22.53C804.17 21.51 803.84 20.72 803.18 20.16C802.54 19.58 801.63 19.29 800.45 19.29C799.17 19.29 798.07 19.67 797.15 20.43C796.23 21.17 795.54 22.25 795.08 23.67H792.56C793.14 21.59 794.14 19.99 795.56 18.87C796.98 17.73 798.69 17.16 800.69 17.16C801.95 17.16 803.03 17.38 803.93 17.82C804.85 18.24 805.56 18.84 806.06 19.62C806.56 20.4 806.81 21.32 806.81 22.38C806.81 23.44 806.54 24.52 806 25.62C805.46 26.72 804.61 27.89 803.45 29.13C802.29 30.35 800.76 31.69 798.86 33.15C796.98 34.61 794.69 36.23 791.99 38.01L791.69 36.84H804.02L803.51 39H789.2ZM813.857 39.3C812.697 39.3 811.667 39.13 810.767 38.79C809.887 38.43 809.147 37.96 808.547 37.38C807.967 36.78 807.537 36.11 807.257 35.37C806.997 34.63 806.917 33.87 807.017 33.09H809.537C809.497 33.79 809.637 34.45 809.957 35.07C810.277 35.69 810.767 36.19 811.427 36.57C812.087 36.95 812.907 37.14 813.887 37.14C814.527 37.14 815.117 37.04 815.657 36.84C816.217 36.64 816.707 36.36 817.127 36C817.567 35.62 817.937 35.18 818.237 34.68C818.557 34.18 818.797 33.64 818.957 33.06C819.117 32.46 819.197 31.84 819.197 31.2C819.197 29.78 818.817 28.71 818.057 27.99C817.297 27.27 816.257 26.91 814.937 26.91C814.137 26.91 813.387 27.06 812.687 27.36C812.007 27.64 811.447 28.1 811.007 28.74H808.817L812.387 17.4H823.817L823.337 19.56H813.377L814.427 18.66L811.727 27.36L811.397 26.67C811.857 26.13 812.457 25.71 813.197 25.41C813.957 25.09 814.807 24.93 815.747 24.93C816.967 24.93 818.037 25.19 818.957 25.71C819.877 26.23 820.587 26.97 821.087 27.93C821.607 28.87 821.867 29.99 821.867 31.29C821.867 32.21 821.737 33.07 821.477 33.87C821.217 34.67 820.847 35.41 820.367 36.09C819.907 36.75 819.347 37.32 818.687 37.8C818.027 38.28 817.287 38.65 816.467 38.91C815.667 39.17 814.797 39.3 813.857 39.3ZM831.63 31.86L832.11 29.82H844.89L844.41 31.86H831.63ZM855.244 39L855.724 36.84H862.714C864.094 36.84 865.364 36.57 866.524 36.03C867.684 35.49 868.694 34.75 869.554 33.81C870.414 32.87 871.074 31.8 871.534 30.6C872.014 29.4 872.254 28.14 872.254 26.82C872.254 25.42 871.984 24.18 871.444 23.1C870.904 22 870.144 21.14 869.164 20.52C868.204 19.88 867.064 19.56 865.744 19.56H859.654L860.134 17.4H865.984C867.744 17.4 869.274 17.8 870.574 18.6C871.894 19.4 872.924 20.5 873.664 21.9C874.404 23.28 874.774 24.86 874.774 26.64C874.774 28.26 874.464 29.82 873.844 31.32C873.244 32.8 872.394 34.12 871.294 35.28C870.194 36.42 868.894 37.33 867.394 38.01C865.914 38.67 864.304 39 862.564 39H855.244ZM853.774 39L858.724 17.4H861.184L856.234 39H853.774ZM876.302 39L881.282 17.4H883.742L878.762 39H876.302ZM877.562 39L878.042 36.84H891.242L890.762 39H877.562ZM879.902 28.83L880.382 26.67H892.502L892.022 28.83H879.902ZM882.032 19.56L882.542 17.4H895.502L894.992 19.56H882.032ZM902.394 39.27C901.174 39.27 900.074 39.1 899.094 38.76C898.114 38.42 897.274 37.93 896.574 37.29C895.894 36.65 895.364 35.89 894.984 35.01C894.624 34.11 894.444 33.11 894.444 32.01H896.844C896.844 32.81 896.974 33.53 897.234 34.17C897.494 34.79 897.864 35.32 898.344 35.76C898.844 36.2 899.444 36.54 900.144 36.78C900.864 37 901.674 37.11 902.574 37.11C904.094 37.11 905.264 36.78 906.084 36.12C906.924 35.46 907.344 34.55 907.344 33.39C907.344 32.61 907.134 31.95 906.714 31.41C906.314 30.87 905.674 30.38 904.794 29.94L901.524 28.29C900.064 27.55 899.004 26.77 898.344 25.95C897.704 25.13 897.384 24.15 897.384 23.01C897.384 21.81 897.694 20.76 898.314 19.86C898.934 18.96 899.794 18.26 900.894 17.76C901.994 17.24 903.254 16.98 904.674 16.98C905.754 16.98 906.714 17.13 907.554 17.43C908.394 17.71 909.104 18.14 909.684 18.72C910.284 19.28 910.744 19.97 911.064 20.79C911.384 21.59 911.554 22.52 911.574 23.58H909.204C909.184 22.6 908.994 21.78 908.634 21.12C908.274 20.46 907.744 19.97 907.044 19.65C906.344 19.31 905.474 19.14 904.434 19.14C903.474 19.14 902.644 19.28 901.944 19.56C901.264 19.84 900.734 20.24 900.354 20.76C899.994 21.28 899.814 21.92 899.814 22.68C899.814 23.36 900.014 23.96 900.414 24.48C900.834 25 901.514 25.49 902.454 25.95L905.934 27.69C907.234 28.33 908.194 29.08 908.814 29.94C909.434 30.8 909.744 31.84 909.744 33.06C909.744 34.3 909.444 35.39 908.844 36.33C908.244 37.25 907.394 37.97 906.294 38.49C905.194 39.01 903.894 39.27 902.394 39.27ZM922.572 39L926.892 20.13L927.492 20.37C927.132 20.87 926.552 21.35 925.752 21.81C924.972 22.25 924.092 22.62 923.112 22.92C922.152 23.2 921.202 23.35 920.262 23.37L920.772 21.09C921.732 21.03 922.682 20.85 923.622 20.55C924.562 20.25 925.432 19.84 926.232 19.32C927.032 18.78 927.682 18.14 928.182 17.4H929.952L924.972 39H922.572ZM936.728 39.3C935.568 39.3 934.538 39.13 933.638 38.79C932.758 38.43 932.018 37.96 931.418 37.38C930.838 36.78 930.408 36.11 930.128 35.37C929.868 34.63 929.788 33.87 929.888 33.09H932.408C932.368 33.79 932.508 34.45 932.828 35.07C933.148 35.69 933.638 36.19 934.298 36.57C934.958 36.95 935.778 37.14 936.758 37.14C937.398 37.14 937.988 37.04 938.528 36.84C939.088 36.64 939.578 36.36 939.998 36C940.438 35.62 940.808 35.18 941.108 34.68C941.428 34.18 941.668 33.64 941.828 33.06C941.988 32.46 942.068 31.84 942.068 31.2C942.068 29.78 941.688 28.71 940.928 27.99C940.168 27.27 939.128 26.91 937.808 26.91C937.008 26.91 936.258 27.06 935.558 27.36C934.878 27.64 934.318 28.1 933.878 28.74H931.688L935.258 17.4H946.688L946.208 19.56H936.248L937.298 18.66L934.598 27.36L934.268 26.67C934.728 26.13 935.328 25.71 936.068 25.41C936.828 25.09 937.678 24.93 938.618 24.93C939.838 24.93 940.908 25.19 941.828 25.71C942.748 26.23 943.458 26.97 943.958 27.93C944.478 28.87 944.738 29.99 944.738 31.29C944.738 32.21 944.608 33.07 944.348 33.87C944.088 34.67 943.718 35.41 943.238 36.09C942.778 36.75 942.218 37.32 941.558 37.8C940.898 38.28 940.158 38.65 939.338 38.91C938.538 39.17 937.668 39.3 936.728 39.3ZM949.16 39C950.22 35.6 951.78 32.24 953.84 28.92C955.9 25.58 958.56 22.17 961.82 18.69L962.09 19.56H949.46L949.94 17.4H964.52L964.1 19.2C961.96 21.54 960.11 23.8 958.55 25.98C956.99 28.16 955.68 30.32 954.62 32.46C953.56 34.58 952.69 36.76 952.01 39H949.16ZM964.172 39L964.652 36.96H971.432C972.512 36.96 973.442 36.78 974.222 36.42C975.022 36.04 975.632 35.5 976.052 34.8C976.492 34.1 976.712 33.28 976.712 32.34C976.712 31.2 976.392 30.31 975.752 29.67C975.112 29.01 974.232 28.68 973.112 28.68H966.512L966.962 26.7H973.292C974.372 26.7 975.302 26.53 976.082 26.19C976.862 25.85 977.462 25.38 977.882 24.78C978.302 24.16 978.512 23.42 978.512 22.56C978.512 21.6 978.222 20.84 977.642 20.28C977.062 19.72 976.272 19.44 975.272 19.44H968.612L969.092 17.4H975.692C977.292 17.4 978.572 17.86 979.532 18.78C980.512 19.7 981.002 20.9 981.002 22.38C981.002 23.26 980.822 24.07 980.462 24.81C980.102 25.53 979.612 26.15 978.992 26.67C978.372 27.19 977.662 27.58 976.862 27.84C976.062 28.1 975.212 28.19 974.312 28.11L974.642 27.51C976.062 27.65 977.182 28.18 978.002 29.1C978.822 30.02 979.232 31.19 979.232 32.61C979.232 33.89 978.892 35.01 978.212 35.97C977.552 36.93 976.622 37.68 975.422 38.22C974.222 38.74 972.822 39 971.222 39H964.172ZM962.582 39L967.532 17.4H969.992L965.042 39H962.582ZM989.1 31.86L989.58 29.82H1002.36L1001.88 31.86H989.1ZM1019.46 39.27C1018.24 39.27 1017.14 39.1 1016.16 38.76C1015.18 38.42 1014.34 37.93 1013.64 37.29C1012.96 36.65 1012.43 35.89 1012.05 35.01C1011.69 34.11 1011.51 33.11 1011.51 32.01H1013.91C1013.91 32.81 1014.04 33.53 1014.3 34.17C1014.56 34.79 1014.93 35.32 1015.41 35.76C1015.91 36.2 1016.51 36.54 1017.21 36.78C1017.93 37 1018.74 37.11 1019.64 37.11C1021.16 37.11 1022.33 36.78 1023.15 36.12C1023.99 35.46 1024.41 34.55 1024.41 33.39C1024.41 32.61 1024.2 31.95 1023.78 31.41C1023.38 30.87 1022.74 30.38 1021.86 29.94L1018.59 28.29C1017.13 27.55 1016.07 26.77 1015.41 25.95C1014.77 25.13 1014.45 24.15 1014.45 23.01C1014.45 21.81 1014.76 20.76 1015.38 19.86C1016 18.96 1016.86 18.26 1017.96 17.76C1019.06 17.24 1020.32 16.98 1021.74 16.98C1022.82 16.98 1023.78 17.13 1024.62 17.43C1025.46 17.71 1026.17 18.14 1026.75 18.72C1027.35 19.28 1027.81 19.97 1028.13 20.79C1028.45 21.59 1028.62 22.52 1028.64 23.58H1026.27C1026.25 22.6 1026.06 21.78 1025.7 21.12C1025.34 20.46 1024.81 19.97 1024.11 19.65C1023.41 19.31 1022.54 19.14 1021.5 19.14C1020.54 19.14 1019.71 19.28 1019.01 19.56C1018.33 19.84 1017.8 20.24 1017.42 20.76C1017.06 21.28 1016.88 21.92 1016.88 22.68C1016.88 23.36 1017.08 23.96 1017.48 24.48C1017.9 25 1018.58 25.49 1019.52 25.95L1023 27.69C1024.3 28.33 1025.26 29.08 1025.88 29.94C1026.5 30.8 1026.81 31.84 1026.81 33.06C1026.81 34.3 1026.51 35.39 1025.91 36.33C1025.31 37.25 1024.46 37.97 1023.36 38.49C1022.26 39.01 1020.96 39.27 1019.46 39.27ZM1036.28 39.3C1034.98 39.3 1033.84 39.02 1032.86 38.46C1031.88 37.9 1031.12 37.12 1030.58 36.12C1030.04 35.1 1029.77 33.92 1029.77 32.58C1029.77 31.56 1029.91 30.59 1030.19 29.67C1030.49 28.75 1030.9 27.91 1031.42 27.15C1031.94 26.39 1032.56 25.73 1033.28 25.17C1034 24.61 1034.79 24.18 1035.65 23.88C1036.51 23.56 1037.42 23.4 1038.38 23.4C1039.62 23.4 1040.7 23.65 1041.62 24.15C1042.56 24.65 1043.28 25.35 1043.78 26.25C1044.3 27.15 1044.56 28.2 1044.56 29.4C1044.56 29.86 1044.51 30.32 1044.41 30.78C1044.33 31.22 1044.19 31.65 1043.99 32.07H1031.6L1032.05 30.06H1042.94L1041.92 31.68C1042.1 30.94 1042.18 30.21 1042.16 29.49C1042.16 28.75 1042.02 28.08 1041.74 27.48C1041.48 26.86 1041.07 26.37 1040.51 26.01C1039.95 25.63 1039.2 25.44 1038.26 25.44C1037.6 25.44 1036.97 25.56 1036.37 25.8C1035.77 26.04 1035.22 26.38 1034.72 26.82C1034.22 27.24 1033.78 27.75 1033.4 28.35C1033.02 28.93 1032.73 29.58 1032.53 30.3C1032.33 31 1032.23 31.74 1032.23 32.52C1032.23 34 1032.62 35.16 1033.4 36C1034.18 36.84 1035.25 37.26 1036.61 37.26C1037.53 37.26 1038.33 37.06 1039.01 36.66C1039.69 36.24 1040.27 35.61 1040.75 34.77H1043.03C1042.29 36.29 1041.35 37.43 1040.21 38.19C1039.07 38.93 1037.76 39.3 1036.28 39.3ZM1052.67 39.33C1051.45 39.33 1050.39 39.06 1049.49 38.52C1048.59 37.96 1047.89 37.19 1047.39 36.21C1046.89 35.21 1046.64 34.05 1046.64 32.73C1046.64 31.69 1046.78 30.71 1047.06 29.79C1047.36 28.87 1047.77 28.02 1048.29 27.24C1048.83 26.46 1049.46 25.79 1050.18 25.23C1050.9 24.67 1051.69 24.24 1052.55 23.94C1053.41 23.62 1054.32 23.46 1055.28 23.46C1056.1 23.46 1056.85 23.59 1057.53 23.85C1058.21 24.11 1058.8 24.48 1059.3 24.96C1059.8 25.42 1060.19 25.98 1060.47 26.64C1060.75 27.28 1060.89 27.99 1060.89 28.77H1058.67C1058.65 28.09 1058.49 27.51 1058.19 27.03C1057.89 26.55 1057.48 26.18 1056.96 25.92C1056.44 25.64 1055.82 25.5 1055.1 25.5C1054.42 25.5 1053.78 25.62 1053.18 25.86C1052.58 26.1 1052.03 26.45 1051.53 26.91C1051.03 27.35 1050.6 27.87 1050.24 28.47C1049.88 29.07 1049.6 29.74 1049.4 30.48C1049.2 31.22 1049.1 32 1049.1 32.82C1049.1 34.24 1049.43 35.35 1050.09 36.15C1050.75 36.93 1051.68 37.32 1052.88 37.32C1053.96 37.32 1054.92 37.02 1055.76 36.42C1056.6 35.82 1057.21 35 1057.59 33.96H1059.81C1059.27 35.6 1058.35 36.91 1057.05 37.89C1055.77 38.85 1054.31 39.33 1052.67 39.33ZM1068.25 39.27C1066.55 39.27 1065.4 38.84 1064.8 37.98C1064.2 37.1 1064.07 35.93 1064.41 34.47L1067.71 20.13L1070.32 19.23L1066.72 34.83C1066.54 35.65 1066.62 36.26 1066.96 36.66C1067.32 37.04 1067.99 37.23 1068.97 37.23C1069.37 37.23 1069.71 37.21 1069.99 37.17C1070.29 37.11 1070.54 37.04 1070.74 36.96L1070.29 39C1070.07 39.08 1069.79 39.14 1069.45 39.18C1069.11 39.24 1068.71 39.27 1068.25 39.27ZM1063.27 25.74L1063.72 23.7H1073.8L1073.35 25.74H1063.27ZM1073.41 39L1076.92 23.7H1079.32L1075.81 39H1073.41ZM1077.46 20.22L1078.06 17.4H1080.82L1080.22 20.22H1077.46ZM1087.61 39.3C1086.33 39.3 1085.2 39.02 1084.22 38.46C1083.24 37.88 1082.47 37.08 1081.91 36.06C1081.37 35.04 1081.1 33.86 1081.1 32.52C1081.1 31.26 1081.32 30.08 1081.76 28.98C1082.22 27.88 1082.84 26.91 1083.62 26.07C1084.42 25.23 1085.34 24.58 1086.38 24.12C1087.42 23.64 1088.54 23.4 1089.74 23.4C1091.06 23.4 1092.21 23.68 1093.19 24.24C1094.17 24.8 1094.93 25.59 1095.47 26.61C1096.01 27.61 1096.28 28.78 1096.28 30.12C1096.28 31.38 1096.05 32.57 1095.59 33.69C1095.13 34.79 1094.5 35.76 1093.7 36.6C1092.9 37.44 1091.98 38.1 1090.94 38.58C1089.9 39.06 1088.79 39.3 1087.61 39.3ZM1087.73 37.26C1088.55 37.26 1089.33 37.08 1090.07 36.72C1090.81 36.34 1091.46 35.83 1092.02 35.19C1092.58 34.53 1093.02 33.77 1093.34 32.91C1093.66 32.05 1093.82 31.13 1093.82 30.15C1093.82 28.71 1093.44 27.57 1092.68 26.73C1091.94 25.87 1090.92 25.44 1089.62 25.44C1088.78 25.44 1087.99 25.62 1087.25 25.98C1086.53 26.34 1085.89 26.84 1085.33 27.48C1084.79 28.12 1084.36 28.87 1084.04 29.73C1083.72 30.57 1083.56 31.48 1083.56 32.46C1083.56 33.92 1083.94 35.09 1084.7 35.97C1085.46 36.83 1086.47 37.26 1087.73 37.26ZM1098.11 39L1101.62 23.7H1103.87L1103.06 27.3H1103.21L1100.51 39H1098.11ZM1109.03 39L1111.19 29.61C1111.51 28.25 1111.41 27.22 1110.89 26.52C1110.37 25.8 1109.51 25.44 1108.31 25.44C1106.89 25.44 1105.65 25.9 1104.59 26.82C1103.55 27.72 1102.84 28.96 1102.46 30.54L1102.91 26.79C1103.67 25.71 1104.58 24.88 1105.64 24.3C1106.72 23.7 1107.85 23.4 1109.03 23.4C1110.83 23.4 1112.15 23.95 1112.99 25.05C1113.83 26.15 1114.04 27.63 1113.62 29.49L1111.43 39H1109.03ZM1120.84 39L1121.32 36.9C1123.98 35.1 1126.23 33.5 1128.07 32.1C1129.93 30.7 1131.42 29.44 1132.54 28.32C1133.68 27.18 1134.51 26.14 1135.03 25.2C1135.55 24.26 1135.81 23.37 1135.81 22.53C1135.81 21.51 1135.48 20.72 1134.82 20.16C1134.18 19.58 1133.27 19.29 1132.09 19.29C1130.81 19.29 1129.71 19.67 1128.79 20.43C1127.87 21.17 1127.18 22.25 1126.72 23.67H1124.2C1124.78 21.59 1125.78 19.99 1127.2 18.87C1128.62 17.73 1130.33 17.16 1132.33 17.16C1133.59 17.16 1134.67 17.38 1135.57 17.82C1136.49 18.24 1137.2 18.84 1137.7 19.62C1138.2 20.4 1138.45 21.32 1138.45 22.38C1138.45 23.44 1138.18 24.52 1137.64 25.62C1137.1 26.72 1136.25 27.89 1135.09 29.13C1133.93 30.35 1132.4 31.69 1130.5 33.15C1128.62 34.61 1126.33 36.23 1123.63 38.01L1123.33 36.84H1135.66L1135.15 39H1120.84ZM1146.04 31.86L1146.52 29.82H1159.3L1158.82 31.86H1146.04ZM1176.41 39.27C1175.19 39.27 1174.09 39.1 1173.11 38.76C1172.13 38.42 1171.29 37.93 1170.59 37.29C1169.91 36.65 1169.38 35.89 1169 35.01C1168.64 34.11 1168.46 33.11 1168.46 32.01H1170.86C1170.86 32.81 1170.99 33.53 1171.25 34.17C1171.51 34.79 1171.88 35.32 1172.36 35.76C1172.86 36.2 1173.46 36.54 1174.16 36.78C1174.88 37 1175.69 37.11 1176.59 37.11C1178.11 37.11 1179.28 36.78 1180.1 36.12C1180.94 35.46 1181.36 34.55 1181.36 33.39C1181.36 32.61 1181.15 31.95 1180.73 31.41C1180.33 30.87 1179.69 30.38 1178.81 29.94L1175.54 28.29C1174.08 27.55 1173.02 26.77 1172.36 25.95C1171.72 25.13 1171.4 24.15 1171.4 23.01C1171.4 21.81 1171.71 20.76 1172.33 19.86C1172.95 18.96 1173.81 18.26 1174.91 17.76C1176.01 17.24 1177.27 16.98 1178.69 16.98C1179.77 16.98 1180.73 17.13 1181.57 17.43C1182.41 17.71 1183.12 18.14 1183.7 18.72C1184.3 19.28 1184.76 19.97 1185.08 20.79C1185.4 21.59 1185.57 22.52 1185.59 23.58H1183.22C1183.2 22.6 1183.01 21.78 1182.65 21.12C1182.29 20.46 1181.76 19.97 1181.06 19.65C1180.36 19.31 1179.49 19.14 1178.45 19.14C1177.49 19.14 1176.66 19.28 1175.96 19.56C1175.28 19.84 1174.75 20.24 1174.37 20.76C1174.01 21.28 1173.83 21.92 1173.83 22.68C1173.83 23.36 1174.03 23.96 1174.43 24.48C1174.85 25 1175.53 25.49 1176.47 25.95L1179.95 27.69C1181.25 28.33 1182.21 29.08 1182.83 29.94C1183.45 30.8 1183.76 31.84 1183.76 33.06C1183.76 34.3 1183.46 35.39 1182.86 36.33C1182.26 37.25 1181.41 37.97 1180.31 38.49C1179.21 39.01 1177.91 39.27 1176.41 39.27ZM1194.3 39.27C1193.28 39.27 1192.39 39.08 1191.63 38.7C1190.87 38.3 1190.28 37.75 1189.86 37.05C1189.44 36.35 1189.22 35.55 1189.2 34.65L1189.68 34.62L1187.22 45.15H1184.82L1189.77 23.7H1192.02L1191.3 26.76L1191.15 26.64C1191.73 25.6 1192.52 24.8 1193.52 24.24C1194.54 23.68 1195.66 23.4 1196.88 23.4C1198.66 23.4 1200.06 23.97 1201.08 25.11C1202.1 26.23 1202.61 27.77 1202.61 29.73C1202.61 31.05 1202.39 32.29 1201.95 33.45C1201.53 34.59 1200.93 35.6 1200.15 36.48C1199.39 37.34 1198.51 38.02 1197.51 38.52C1196.51 39.02 1195.44 39.27 1194.3 39.27ZM1194.21 37.17C1195.05 37.17 1195.83 36.99 1196.55 36.63C1197.27 36.25 1197.9 35.74 1198.44 35.1C1198.98 34.44 1199.4 33.68 1199.7 32.82C1200 31.96 1200.15 31.05 1200.15 30.09C1200.15 28.67 1199.8 27.55 1199.1 26.73C1198.42 25.91 1197.46 25.5 1196.22 25.5C1195.56 25.5 1194.92 25.62 1194.3 25.86C1193.7 26.1 1193.15 26.44 1192.65 26.88C1192.15 27.3 1191.71 27.81 1191.33 28.41C1190.95 28.99 1190.66 29.63 1190.46 30.33C1190.26 31.03 1190.16 31.76 1190.16 32.52C1190.16 33.96 1190.53 35.1 1191.27 35.94C1192.01 36.76 1192.99 37.17 1194.21 37.17ZM1204.42 39L1207.96 23.7H1210.21L1209.31 27.6H1209.46L1206.82 39H1204.42ZM1208.77 30.51L1209.19 26.85C1209.71 25.83 1210.45 25 1211.41 24.36C1212.39 23.72 1213.47 23.4 1214.65 23.4C1214.99 23.4 1215.28 23.43 1215.52 23.49C1215.76 23.53 1215.95 23.58 1216.09 23.64L1215.55 25.95C1215.39 25.89 1215.14 25.84 1214.8 25.8C1214.48 25.74 1214.17 25.71 1213.87 25.71C1212.57 25.71 1211.48 26.12 1210.6 26.94C1209.72 27.76 1209.11 28.95 1208.77 30.51ZM1215.44 39L1218.95 23.7H1221.35L1217.84 39H1215.44ZM1219.49 20.22L1220.09 17.4H1222.85L1222.25 20.22H1219.49ZM1222.68 39L1226.19 23.7H1228.44L1227.63 27.3H1227.78L1225.08 39H1222.68ZM1233.6 39L1235.76 29.61C1236.08 28.25 1235.98 27.22 1235.46 26.52C1234.94 25.8 1234.08 25.44 1232.88 25.44C1231.46 25.44 1230.22 25.9 1229.16 26.82C1228.12 27.72 1227.41 28.96 1227.03 30.54L1227.48 26.79C1228.24 25.71 1229.15 24.88 1230.21 24.3C1231.29 23.7 1232.42 23.4 1233.6 23.4C1235.4 23.4 1236.72 23.95 1237.56 25.05C1238.4 26.15 1238.61 27.63 1238.19 29.49L1236 39H1233.6ZM1246.27 45.45C1244.99 45.45 1243.86 45.26 1242.88 44.88C1241.92 44.5 1241.16 43.96 1240.6 43.26C1240.04 42.56 1239.72 41.74 1239.64 40.8H1241.86C1242.06 41.76 1242.56 42.43 1243.36 42.81C1244.18 43.21 1245.16 43.41 1246.3 43.41C1247.6 43.41 1248.72 43.03 1249.66 42.27C1250.62 41.51 1251.27 40.39 1251.61 38.91L1252.3 35.94L1252.45 36.33C1251.85 37.29 1251.06 38.03 1250.08 38.55C1249.12 39.05 1248.05 39.3 1246.87 39.3C1245.09 39.3 1243.69 38.73 1242.67 37.59C1241.65 36.45 1241.14 34.91 1241.14 32.97C1241.14 31.65 1241.35 30.42 1241.77 29.28C1242.21 28.12 1242.81 27.11 1243.57 26.25C1244.35 25.37 1245.24 24.68 1246.24 24.18C1247.24 23.68 1248.31 23.43 1249.45 23.43C1250.43 23.43 1251.29 23.61 1252.03 23.97C1252.77 24.33 1253.36 24.83 1253.8 25.47C1254.24 26.11 1254.49 26.85 1254.55 27.69L1254.25 27.99L1255.27 23.7H1257.52L1253.95 39.15C1253.49 41.15 1252.58 42.7 1251.22 43.8C1249.88 44.9 1248.23 45.45 1246.27 45.45ZM1247.53 37.2C1248.19 37.2 1248.82 37.08 1249.42 36.84C1250.04 36.6 1250.6 36.27 1251.1 35.85C1251.6 35.41 1252.04 34.9 1252.42 34.32C1252.8 33.72 1253.09 33.07 1253.29 32.37C1253.49 31.67 1253.59 30.94 1253.59 30.18C1253.59 28.74 1253.22 27.61 1252.48 26.79C1251.76 25.95 1250.78 25.53 1249.54 25.53C1248.42 25.53 1247.41 25.85 1246.51 26.49C1245.61 27.13 1244.9 27.99 1244.38 29.07C1243.86 30.13 1243.6 31.31 1243.6 32.61C1243.6 34.01 1243.95 35.13 1244.65 35.97C1245.35 36.79 1246.31 37.2 1247.53 37.2ZM1263.6 39L1264.08 36.9C1266.74 35.1 1268.99 33.5 1270.83 32.1C1272.69 30.7 1274.18 29.44 1275.3 28.32C1276.44 27.18 1277.27 26.14 1277.79 25.2C1278.31 24.26 1278.57 23.37 1278.57 22.53C1278.57 21.51 1278.24 20.72 1277.58 20.16C1276.94 19.58 1276.03 19.29 1274.85 19.29C1273.57 19.29 1272.47 19.67 1271.55 20.43C1270.63 21.17 1269.94 22.25 1269.48 23.67H1266.96C1267.54 21.59 1268.54 19.99 1269.96 18.87C1271.38 17.73 1273.09 17.16 1275.09 17.16C1276.35 17.16 1277.43 17.38 1278.33 17.82C1279.25 18.24 1279.96 18.84 1280.46 19.62C1280.96 20.4 1281.21 21.32 1281.21 22.38C1281.21 23.44 1280.94 24.52 1280.4 25.62C1279.86 26.72 1279.01 27.89 1277.85 29.13C1276.69 30.35 1275.16 31.69 1273.26 33.15C1271.38 34.61 1269.09 36.23 1266.39 38.01L1266.09 36.84H1278.42L1277.91 39H1263.6ZM1290.05 39.27C1288.57 39.27 1287.3 38.91 1286.24 38.19C1285.18 37.45 1284.37 36.44 1283.81 35.16C1283.25 33.88 1282.97 32.42 1282.97 30.78C1282.97 29.84 1283.06 28.85 1283.24 27.81C1283.44 26.77 1283.73 25.74 1284.11 24.72C1284.49 23.7 1284.96 22.74 1285.52 21.84C1286.1 20.92 1286.77 20.11 1287.53 19.41C1288.29 18.71 1289.14 18.16 1290.08 17.76C1291.04 17.34 1292.08 17.13 1293.2 17.13C1294.68 17.13 1295.95 17.48 1297.01 18.18C1298.07 18.88 1298.89 19.86 1299.47 21.12C1300.05 22.38 1300.34 23.84 1300.34 25.5C1300.34 26.44 1300.24 27.43 1300.04 28.47C1299.84 29.51 1299.55 30.55 1299.17 31.59C1298.79 32.61 1298.31 33.58 1297.73 34.5C1297.15 35.42 1296.48 36.24 1295.72 36.96C1294.96 37.68 1294.1 38.25 1293.14 38.67C1292.2 39.07 1291.17 39.27 1290.05 39.27ZM1290.14 37.11C1291.04 37.11 1291.85 36.92 1292.57 36.54C1293.29 36.14 1293.93 35.61 1294.49 34.95C1295.05 34.27 1295.53 33.51 1295.93 32.67C1296.35 31.83 1296.69 30.96 1296.95 30.06C1297.21 29.16 1297.4 28.29 1297.52 27.45C1297.66 26.59 1297.73 25.81 1297.73 25.11C1297.73 23.27 1297.32 21.84 1296.5 20.82C1295.68 19.8 1294.56 19.29 1293.14 19.29C1292.24 19.29 1291.42 19.49 1290.68 19.89C1289.96 20.27 1289.32 20.79 1288.76 21.45C1288.22 22.09 1287.75 22.82 1287.35 23.64C1286.95 24.46 1286.62 25.32 1286.36 26.22C1286.1 27.1 1285.91 27.96 1285.79 28.8C1285.67 29.64 1285.61 30.41 1285.61 31.11C1285.61 32.93 1286 34.39 1286.78 35.49C1287.56 36.57 1288.68 37.11 1290.14 37.11ZM1300.17 39L1300.65 36.9C1303.31 35.1 1305.56 33.5 1307.4 32.1C1309.26 30.7 1310.75 29.44 1311.87 28.32C1313.01 27.18 1313.84 26.14 1314.36 25.2C1314.88 24.26 1315.14 23.37 1315.14 22.53C1315.14 21.51 1314.81 20.72 1314.15 20.16C1313.51 19.58 1312.6 19.29 1311.42 19.29C1310.14 19.29 1309.04 19.67 1308.12 20.43C1307.2 21.17 1306.51 22.25 1306.05 23.67H1303.53C1304.11 21.59 1305.11 19.99 1306.53 18.87C1307.95 17.73 1309.66 17.16 1311.66 17.16C1312.92 17.16 1314 17.38 1314.9 17.82C1315.82 18.24 1316.53 18.84 1317.03 19.62C1317.53 20.4 1317.78 21.32 1317.78 22.38C1317.78 23.44 1317.51 24.52 1316.97 25.62C1316.43 26.72 1315.58 27.89 1314.42 29.13C1313.26 30.35 1311.73 31.69 1309.83 33.15C1307.95 34.61 1305.66 36.23 1302.96 38.01L1302.66 36.84H1314.99L1314.48 39H1300.17ZM1324.82 39.3C1323.66 39.3 1322.63 39.13 1321.73 38.79C1320.85 38.43 1320.11 37.96 1319.51 37.38C1318.93 36.78 1318.5 36.11 1318.22 35.37C1317.96 34.63 1317.88 33.87 1317.98 33.09H1320.5C1320.46 33.79 1320.6 34.45 1320.92 35.07C1321.24 35.69 1321.73 36.19 1322.39 36.57C1323.05 36.95 1323.87 37.14 1324.85 37.14C1325.49 37.14 1326.08 37.04 1326.62 36.84C1327.18 36.64 1327.67 36.36 1328.09 36C1328.53 35.62 1328.9 35.18 1329.2 34.68C1329.52 34.18 1329.76 33.64 1329.92 33.06C1330.08 32.46 1330.16 31.84 1330.16 31.2C1330.16 29.78 1329.78 28.71 1329.02 27.99C1328.26 27.27 1327.22 26.91 1325.9 26.91C1325.1 26.91 1324.35 27.06 1323.65 27.36C1322.97 27.64 1322.41 28.1 1321.97 28.74H1319.78L1323.35 17.4H1334.78L1334.3 19.56H1324.34L1325.39 18.66L1322.69 27.36L1322.36 26.67C1322.82 26.13 1323.42 25.71 1324.16 25.41C1324.92 25.09 1325.77 24.93 1326.71 24.93C1327.93 24.93 1329 25.19 1329.92 25.71C1330.84 26.23 1331.55 26.97 1332.05 27.93C1332.57 28.87 1332.83 29.99 1332.83 31.29C1332.83 32.21 1332.7 33.07 1332.44 33.87C1332.18 34.67 1331.81 35.41 1331.33 36.09C1330.87 36.75 1330.31 37.32 1329.65 37.8C1328.99 38.28 1328.25 38.65 1327.43 38.91C1326.63 39.17 1325.76 39.3 1324.82 39.3Z" fill="black"/>
</g>
<defs>
<clipPath id="clip0_31_391">
<rect width="1200" height="56" fill="white"/>
</clipPath>
</defs>
</svg>
