<svg width="103" height="59" viewBox="0 0 103 59" fill="none" xmlns="http://www.w3.org/2000/svg">
<path d="M5.66124 51.8081C5.00931 49.3862 4.45563 47.3747 4.00022 45.7735C3.54192 44.1609 3.16869 42.8592 2.88054 41.8684C2.58951 40.8662 2.372 40.1295 2.22803 39.6583C2.08116 39.1757 1.98896 38.8606 1.95143 38.7129C1.90812 38.5426 1.9189 38.3947 1.98378 38.2694C2.06001 38.1412 2.15636 38.0684 2.27282 38.0508C2.3864 38.022 2.51017 38.057 2.64415 38.156C2.77524 38.2435 2.87966 38.4165 2.95743 38.6748L6.67708 51.0238L13.6724 47.5769C14.4333 47.3835 14.6803 47.6653 14.4133 48.4224L6.32448 52.4194C6.00647 52.5002 5.78539 52.2964 5.66124 51.8081ZM17.7896 49.4322C17.3209 49.4909 16.8999 49.4045 16.5266 49.1729C16.1647 48.9384 15.8423 48.6214 15.5593 48.2217C15.2764 47.8221 15.0401 47.3683 14.8505 46.8603C14.6694 46.338 14.5252 45.8185 14.418 45.3016C14.2528 44.5093 14.2043 43.7236 14.2722 42.9445C14.3516 42.1626 14.5122 41.4628 14.7542 40.8451C15.0047 40.2131 15.3209 39.6974 15.7031 39.298C16.0937 38.8843 16.5191 38.6552 16.9793 38.6108C17.4623 38.5606 17.8934 38.6867 18.2726 38.9894C18.6632 39.2891 19.0073 39.6913 19.3049 40.1961C19.6025 40.7008 19.8506 41.2725 20.0492 41.9113C20.245 42.5386 20.3952 43.1534 20.4999 43.7555C20.6135 44.44 20.6246 45.1022 20.5334 45.7421C20.4421 46.382 20.2682 46.9582 20.0116 47.4708C19.7663 47.9806 19.4469 48.4124 19.0532 48.7664C18.668 49.1062 18.2468 49.3281 17.7896 49.4322ZM17.0558 39.6252C16.6695 39.675 16.3477 39.8838 16.0905 40.2514C15.8418 40.6049 15.646 41.0476 15.5032 41.5797C15.3688 42.0975 15.2915 42.6733 15.2713 43.3072C15.2482 43.9298 15.2804 44.5322 15.368 45.1145C15.4265 45.5349 15.5163 45.9595 15.6373 46.3882C15.7584 46.8169 15.9091 47.1957 16.0895 47.5247C16.2812 47.8508 16.5082 48.1015 16.7704 48.2766C17.041 48.4376 17.3524 48.4733 17.7044 48.3838C17.9913 48.323 18.262 48.1514 18.5167 47.869C18.7828 47.5837 19.0088 47.236 19.1947 46.826C19.3778 46.4046 19.5153 45.9465 19.6071 45.4516C19.7103 44.9538 19.7368 44.4634 19.6865 43.9804C19.6419 43.4718 19.5319 42.9678 19.3565 42.4682C19.1896 41.9545 18.9818 41.4934 18.7329 41.0851C18.4953 40.6739 18.2282 40.3368 17.9316 40.0736C17.6434 39.7962 17.3515 39.6467 17.0558 39.6252ZM24.4508 47.7389C23.9821 47.7976 23.5611 47.7111 23.1878 47.4796C22.8259 47.2451 22.5035 46.928 22.2205 46.5284C21.9376 46.1288 21.7013 45.6749 21.5117 45.1669C21.3305 44.6447 21.1864 44.1251 21.0792 43.6083C20.914 42.8159 20.8654 42.0302 20.9334 41.2512C21.0127 40.4693 21.1734 39.7694 21.4154 39.1517C21.6658 38.5198 21.9821 38.0041 22.3642 37.6046C22.7548 37.191 23.1803 36.9619 23.6405 36.9174C24.1235 36.8672 24.5546 36.9934 24.9338 37.296C25.3244 37.5957 25.6685 37.998 25.9661 38.5027C26.2637 39.0075 26.5118 39.5792 26.7104 40.2179C26.9062 40.8453 27.0564 41.46 27.1611 42.0622C27.2747 42.7467 27.2858 43.4089 27.1946 44.0487C27.1033 44.6886 26.9294 45.2649 26.6728 45.7775C26.4275 46.2872 26.108 46.7191 25.7144 47.0731C25.3292 47.4128 24.908 47.6348 24.4508 47.7389ZM23.717 37.9318C23.3307 37.9817 23.0089 38.1904 22.7517 38.5581C22.503 38.9115 22.3072 39.3543 22.1644 39.8863C22.03 40.4041 21.9527 40.98 21.9325 41.6139C21.9094 42.2364 21.9416 42.8389 22.0292 43.4212C22.0877 43.8416 22.1775 44.2661 22.2985 44.6948C22.4196 45.1235 22.5703 45.5024 22.7507 45.8314C22.9424 46.1575 23.1694 46.4081 23.4315 46.5833C23.7022 46.7442 24.0135 46.7799 24.3656 46.6904C24.6525 46.6296 24.9232 46.458 25.1779 46.1756C25.4439 45.8903 25.6699 45.5427 25.8559 45.1327C26.039 44.7113 26.1764 44.2532 26.2683 43.7582C26.3715 43.2604 26.3979 42.7701 26.3477 42.2871C26.3031 41.7785 26.1931 41.2744 26.0177 40.7749C25.8508 40.2611 25.6429 39.8001 25.394 39.3918C25.1565 38.9806 24.8894 38.6434 24.5928 38.3803C24.3046 38.1029 24.0127 37.9534 23.717 37.9318ZM25.4603 32.4465C25.6551 32.1189 25.8322 31.959 25.9914 31.9669C26.1619 31.9719 26.3201 32.0949 26.466 32.3359L28.9124 41.8165L31.809 34.7321C32.0021 34.683 32.1697 34.6767 32.312 34.7131C32.4627 34.7352 32.567 34.8598 32.6247 35.087L29.7035 42.4315L35.3445 43.6456C35.3901 43.6823 35.4501 43.7517 35.5244 43.8538C35.6072 43.9415 35.663 44.0422 35.6919 44.1558C35.7178 44.258 35.7041 44.3703 35.6506 44.4928C35.5942 44.6038 35.4595 44.6925 35.2466 44.7587L29.4174 43.3749L30.1233 46.1518C30.0929 46.3651 30.0394 46.5116 29.963 46.5915C29.8866 46.6714 29.8001 46.7116 29.7034 46.7119C29.6097 46.7237 29.5087 46.707 29.4005 46.662C29.3037 46.614 29.214 46.5703 29.1314 46.5309L25.4603 32.4465ZM50.8821 40.9109C50.6625 40.7128 50.4809 40.4265 50.3373 40.0519C50.205 39.6744 50.0798 39.277 49.9616 38.8596C49.8519 38.428 49.7451 38.0078 49.6412 37.5989C49.5457 37.1758 49.4264 36.8253 49.2831 36.5473C49.0467 37.8528 48.7737 38.8956 48.4642 39.6756C48.1631 40.4413 47.8499 41.0167 47.5245 41.4017C47.2077 41.7724 46.8874 41.9869 46.5636 42.045C46.2369 42.0918 45.9355 42.0475 45.6592 41.9122C45.3915 41.7626 45.159 41.5617 44.9619 41.3095C44.7619 41.046 44.623 40.7851 44.5453 40.5267C44.356 40.1153 44.219 39.6 44.1341 38.9808C44.0577 38.3472 44.0281 37.6837 44.0452 36.9901C44.0737 36.2937 44.152 35.6027 44.28 34.9172C44.4165 34.2175 44.6088 33.5943 44.8567 33.0476C45.116 32.498 45.4284 32.0619 45.7937 31.7393C46.1562 31.4053 46.5834 31.2544 47.0752 31.2865C47.2966 31.2061 47.4869 31.1698 47.6461 31.1777C47.8137 31.1713 47.9646 31.2176 48.0985 31.3166C48.2325 31.4155 48.3511 31.5728 48.4543 31.7884C48.5545 31.9927 48.6594 32.2623 48.7687 32.5972C49.026 33.7047 49.2926 34.6344 49.5685 35.3865C49.8556 36.1358 50.1311 36.7912 50.3948 37.3529C50.6585 37.9147 50.9021 38.421 51.1256 38.8721C51.3604 39.3202 51.5542 39.7969 51.7068 40.3022C51.753 40.484 51.7437 40.6375 51.6788 40.7628C51.611 40.8768 51.5232 40.9595 51.4154 41.0111C51.3105 41.0741 51.2012 41.0958 51.0874 41.0764C50.985 41.054 50.9166 40.9989 50.8821 40.9109ZM47.707 32.5588C47.342 32.2646 47.0077 32.1864 46.7041 32.324C46.4006 32.4616 46.1331 32.7412 45.9017 33.1628C45.6788 33.5701 45.4946 34.0825 45.3493 34.6998C45.201 35.3058 45.1027 35.9414 45.0541 36.6067C45.0056 37.272 45.0082 37.9242 45.0619 38.5635C45.124 39.1886 45.2427 39.7267 45.4179 40.1779C45.7068 40.6486 45.9778 40.9062 46.231 40.9506C46.4841 40.9951 46.7196 40.899 46.9375 40.6622C47.1526 40.4141 47.3473 40.0623 47.5217 39.6068C47.6961 39.1514 47.852 38.6704 47.9892 38.164C48.1236 37.6462 48.231 37.1412 48.3115 36.6492C48.4004 36.1429 48.4684 35.7206 48.5154 35.3822L47.707 32.5588ZM51.3556 32.3567L49.9225 33.2833C49.7889 33.281 49.6708 33.2445 49.5682 33.1739C49.4543 33.1061 49.3673 33.0254 49.3072 32.9319C49.2471 32.8383 49.2169 32.7432 49.2165 32.6466C49.2048 32.5528 49.2329 32.4732 49.3009 32.4075L51.0568 31.1812L49.7971 26.3686C49.7936 26.2123 49.84 26.0857 49.9363 25.9886C50.0325 25.8916 50.1389 25.8344 50.2553 25.8169C50.3803 25.7851 50.5039 25.796 50.6264 25.8495C50.7459 25.8916 50.8372 25.9652 50.9001 26.0701C50.9669 26.428 51.0451 26.8071 51.1348 27.2075C51.2216 27.5965 51.3099 27.9912 51.3996 28.3916C51.4977 28.7778 51.6001 29.1568 51.7068 29.5287C51.8105 29.8893 51.9184 30.2186 52.0304 30.5166L54.3982 28.772C54.5457 28.6862 54.6749 28.6714 54.786 28.7278C54.8942 28.7729 54.9755 28.855 55.03 28.9741C55.0929 29.0791 55.1161 29.1941 55.0996 29.3192C55.083 29.4443 55.0237 29.544 54.9217 29.6183L52.3293 31.6921C52.3581 31.8056 52.4331 32.0768 52.5542 32.5055C52.6724 32.9228 52.8108 33.4197 52.9694 33.996C53.128 34.5724 53.2967 35.1885 53.4755 35.8443C53.6543 36.5001 53.8173 37.1177 53.9646 37.6969C54.1232 38.2733 54.2574 38.7772 54.3671 39.2088C54.4853 39.6262 54.5588 39.8916 54.5877 40.0052C54.6602 40.3858 54.6 40.6006 54.4069 40.6497C54.2138 40.6988 53.9806 40.6613 53.7073 40.5373L51.3556 32.3567ZM64.0987 29.1173L62.6656 30.0439C62.532 30.0415 62.4139 30.0051 62.3113 29.9344C62.1974 29.8666 62.1104 29.786 62.0503 29.6924C61.9903 29.5989 61.96 29.5038 61.9597 29.4071C61.9479 29.3134 61.976 29.2337 62.044 29.1681L63.7999 27.9418L62.5402 23.1292C62.5367 22.9729 62.5831 22.8462 62.6794 22.7492C62.7756 22.6522 62.882 22.5949 62.9985 22.5774C63.1234 22.5456 63.2471 22.5565 63.3695 22.61C63.489 22.6522 63.5803 22.7257 63.6432 22.8306C63.71 23.1885 63.7883 23.5676 63.878 23.968C63.9648 24.3571 64.053 24.7518 64.1427 25.1522C64.2409 25.5384 64.3433 25.9174 64.4499 26.2893C64.5537 26.6498 64.6615 26.9791 64.7736 27.2771L67.1414 25.5326C67.2888 25.4467 67.4181 25.432 67.5291 25.4884C67.6373 25.5334 67.7187 25.6155 67.7731 25.7347C67.8361 25.8396 67.8593 25.9546 67.8427 26.0797C67.8262 26.2049 67.7669 26.3046 67.6648 26.3789L65.0724 28.4526C65.1013 28.5662 65.1762 28.8373 65.2973 29.266C65.4155 29.6834 65.5539 30.1802 65.7125 30.7566C65.8711 31.3329 66.0398 31.949 66.2186 32.6048C66.3974 33.2607 66.5605 33.8782 66.7077 34.4575C66.8663 35.0338 67.0005 35.5378 67.1102 35.9694C67.2284 36.3867 67.3019 36.6522 67.3308 36.7657C67.4034 37.1463 67.3431 37.3611 67.15 37.4102C66.9569 37.4593 66.7237 37.4219 66.4504 37.2979L64.0987 29.1173ZM76.1042 34.4629C76.0401 34.0681 75.9443 33.5725 75.8169 32.9761C75.6895 32.3798 75.5349 31.748 75.3532 31.0808C75.1829 30.4107 74.9955 29.7449 74.7911 29.0835C74.5838 28.4107 74.3711 27.8118 74.153 27.2869C73.9463 26.759 73.7357 26.3349 73.5212 26.0146C73.3153 25.6801 73.1228 25.5174 72.9438 25.5266C72.5514 25.5054 72.208 25.629 71.9135 25.8974C71.6274 26.1514 71.3858 26.5091 71.1887 26.9703C70.9887 27.4202 70.8316 27.9438 70.7174 28.5411C70.6004 29.1271 70.509 29.7428 70.4434 30.3882C70.3862 31.0194 70.3475 31.652 70.3272 32.2859C70.3155 32.9055 70.3206 33.4725 70.3425 33.9869C70.3644 34.5013 70.3918 34.9417 70.4245 35.3082C70.4657 35.6605 70.5049 35.8863 70.5423 35.9856C70.4628 36.0058 70.3649 36.0489 70.2486 36.1147C70.1408 36.1663 70.0316 36.2122 69.9209 36.2524C69.8131 36.304 69.7109 36.33 69.6142 36.3304C69.5261 36.3165 69.4675 36.2528 69.4387 36.1392L65.5848 22.192C65.5588 22.0898 65.5884 22.0157 65.6734 21.9699C65.7556 21.9128 65.855 21.8754 65.9714 21.8579C66.0879 21.8404 66.203 21.8414 66.3168 21.8608C66.4305 21.8802 66.5102 21.9084 66.5559 21.9451L69.3781 32.6904C69.3972 32.48 69.403 32.146 69.3955 31.6884C69.3993 31.228 69.4186 30.7092 69.4533 30.1321C69.4879 29.555 69.5594 28.9564 69.6678 28.3364C69.7733 27.705 69.9458 27.123 70.1853 26.5906C70.4333 26.0439 70.7682 25.5779 71.1902 25.1925C71.6235 24.8042 72.1711 24.5562 72.8329 24.4484C73.0662 24.51 73.2855 24.6115 73.4907 24.7528C73.7043 24.8798 73.9141 25.0865 74.1198 25.3728C74.3341 25.6448 74.5473 26.0077 74.7594 26.4616C74.9829 26.9127 75.2196 27.4873 75.4697 28.1855C75.7197 28.8837 75.9888 29.7282 76.2769 30.719C76.5764 31.7069 76.9022 32.8695 77.2543 34.2068C77.2404 34.295 77.191 34.3861 77.1061 34.4802C77.0241 34.5857 76.9235 34.6657 76.8044 34.7202C76.6966 34.7718 76.5787 34.7836 76.4507 34.7557C76.3227 34.7278 76.2072 34.6302 76.1042 34.4629ZM77.436 29.4993C77.3738 29.5877 77.2391 29.6522 77.0318 29.6928C76.8329 29.7192 76.6396 29.7199 76.4519 29.6951C76.2756 29.6674 76.1446 29.6039 76.059 29.5048C75.9704 29.3943 76.0025 29.235 76.1551 29.0269C76.2173 28.9386 76.2909 28.8715 76.376 28.8257C76.4696 28.7656 76.5589 28.7127 76.644 28.6669C76.7375 28.6068 76.8055 28.5412 76.8479 28.4699C76.9016 28.3958 76.9182 28.2949 76.8978 28.167C76.7792 27.6531 76.6862 27.1205 76.6186 26.5694C76.5624 26.0154 76.5831 25.5023 76.6808 25.0301C76.7784 24.5579 76.9828 24.1492 77.2941 23.8041C77.6167 23.456 78.0976 23.231 78.7367 23.129C78.9638 23.0713 79.2338 23.0631 79.5466 23.1045C79.8565 23.1345 80.1652 23.2072 80.4726 23.3225C80.7772 23.4265 81.0577 23.5788 81.3143 23.7796C81.568 23.969 81.7537 24.1999 81.8713 24.4723C81.9797 24.5657 81.9703 24.7192 81.8433 24.9329C81.7162 25.1466 81.5268 25.4003 81.275 25.694C81.0203 25.9764 80.7273 26.2746 80.396 26.5885C80.0647 26.9025 79.7419 27.2022 79.4276 27.4877C79.1246 27.7703 78.8555 28.02 78.6205 28.237C78.3854 28.4539 78.2354 28.6009 78.1703 28.6779C78.3511 29.1035 78.5433 29.5504 78.7469 30.0185C78.9506 30.4867 79.1782 30.9065 79.4298 31.2778C79.6814 31.6491 79.9497 31.9437 80.2348 32.1614C80.5283 32.3649 80.8455 32.4233 81.1862 32.3367C81.6946 32.2437 82.1017 32.0616 82.4076 31.7904C82.7249 31.5163 82.9652 31.2013 83.1287 30.8453C83.2921 30.4894 83.3972 30.1181 83.444 29.7313C83.5021 29.3417 83.5249 28.9793 83.5122 28.6439C83.5108 28.3057 83.4941 28.0258 83.4619 27.8042C83.4383 27.5684 83.4349 27.4363 83.4518 27.4078C83.5595 27.3079 83.7014 27.2718 83.8778 27.2995C84.0512 27.3159 84.1839 27.4575 84.2759 27.7243C84.3999 28.1643 84.4318 28.6943 84.3718 29.3141C84.3117 29.934 84.1606 30.5286 83.9184 31.098C83.6876 31.6645 83.3598 32.159 82.9352 32.5813C82.519 32.9894 82.0211 33.2187 81.4414 33.2693C80.8593 33.4052 80.3575 33.3575 79.9359 33.1261C79.5115 32.8833 79.1393 32.5608 78.8193 32.1585C78.5079 31.7419 78.2418 31.2896 78.021 30.8016C77.8002 30.3136 77.6052 29.8795 77.436 29.4993ZM80.9684 24.7019C80.4779 24.2945 80.0279 24.0703 79.6185 24.0293C79.2091 23.9883 78.8128 24.0467 78.4297 24.2046C78.1999 24.2993 78.0186 24.4663 77.886 24.7055C77.7505 24.9335 77.6635 25.2095 77.6249 25.5337C77.5836 25.8465 77.5863 26.1904 77.6333 26.5654C77.6774 26.929 77.7641 27.2939 77.8934 27.66L80.9684 24.7019ZM85.8106 30.9072C86.0697 31.0227 86.354 31.0471 86.6635 30.9806C86.9844 30.9111 87.3037 30.7876 87.6213 30.6101C87.9474 30.4184 88.2634 30.1869 88.5693 29.9157C88.8836 29.6302 89.1596 29.3364 89.3971 29.0342C89.6461 28.7291 89.8466 28.4241 89.9989 28.1194C90.1597 27.8005 90.2509 27.5173 90.2727 27.2699C90.2915 27.0112 90.231 26.7969 90.0911 26.6269C89.9511 26.4569 89.7077 26.3555 89.3608 26.3228C88.8162 26.6064 88.2644 26.8615 87.7054 27.0882C87.1464 27.315 86.6239 27.4478 86.1381 27.4867C85.6636 27.5227 85.2468 27.4291 84.8878 27.206C84.5288 26.9829 84.2827 26.5618 84.1495 25.9427C84.0334 25.3434 84.0524 24.7522 84.2064 24.1689C84.3689 23.5714 84.6254 23.0346 84.976 22.5586C85.3379 22.0797 85.7669 21.6744 86.263 21.3427C86.7704 21.0081 87.3124 20.7857 87.8889 20.6754C88.0054 20.6579 88.1105 20.6433 88.2042 20.6316C88.3065 20.6056 88.4016 20.5995 88.4898 20.6134C88.578 20.6272 88.6478 20.6639 88.6991 20.7234C88.7619 20.78 88.8049 20.8779 88.8282 21.017C88.8602 21.1903 88.8323 21.3425 88.7448 21.4736C88.6572 21.6046 88.5139 21.6834 88.3151 21.7097C87.6103 21.7438 87.0156 21.9252 86.5309 22.254C86.0462 22.5828 85.6725 22.9679 85.4099 23.4095C85.1445 23.8398 84.9928 24.2894 84.9548 24.7586C84.9169 25.2277 84.9938 25.6253 85.1855 25.9514C85.5053 26.3054 85.8499 26.4959 86.2195 26.5228C86.5976 26.5356 86.9754 26.4758 87.3529 26.3436C87.7417 26.2084 88.1305 26.0491 88.5191 25.8657C88.9049 25.6709 89.2668 25.5487 89.6048 25.499C89.94 25.438 90.2443 25.4936 90.5179 25.6659C90.7885 25.8269 91.0103 26.1997 91.1831 26.7846C91.267 27.1623 91.2345 27.5575 91.0855 27.9702C90.9336 28.3715 90.7092 28.7732 90.4124 29.1751C90.124 29.5628 89.7844 29.9393 89.3936 30.3047C89 30.6587 88.5962 30.9729 88.1823 31.2474C87.7798 31.519 87.387 31.7337 87.0039 31.8916C86.6322 32.0465 86.3184 32.1202 86.0626 32.1127C85.7436 31.952 85.551 31.7652 85.4848 31.5522C85.4157 31.328 85.5243 31.113 85.8106 30.9072ZM92.2576 25.7315C92.1954 25.8199 92.0606 25.8844 91.8533 25.925C91.6545 25.9513 91.4612 25.9521 91.2735 25.9273C91.0972 25.8995 90.9662 25.8361 90.8805 25.737C90.792 25.6265 90.824 25.4672 90.9767 25.2591C91.0389 25.1707 91.1125 25.1037 91.1976 25.0578C91.2911 24.9978 91.3805 24.9449 91.4655 24.899C91.5591 24.839 91.6271 24.7733 91.6694 24.7021C91.7231 24.628 91.7398 24.527 91.7194 24.3992C91.6008 23.8853 91.5077 23.3527 91.4402 22.8016C91.384 22.2476 91.4047 21.7345 91.5023 21.2623C91.5999 20.7901 91.8044 20.3814 92.1156 20.0362C92.4383 19.6882 92.9191 19.4632 93.5582 19.3612C93.7854 19.3034 94.0554 19.2953 94.3682 19.3367C94.6781 19.3667 94.9868 19.4394 95.2942 19.5547C95.5987 19.6586 95.8793 19.811 96.1359 20.0118C96.3896 20.2012 96.5753 20.4321 96.6929 20.7045C96.8012 20.7979 96.7919 20.9514 96.6648 21.1651C96.5378 21.3787 96.3484 21.6325 96.0966 21.9262C95.8419 22.2086 95.5489 22.5068 95.2176 22.8207C94.8863 23.1347 94.5635 23.4344 94.2491 23.7199C93.9461 24.0024 93.6771 24.2522 93.442 24.4691C93.207 24.6861 93.0569 24.8331 92.9919 24.9101C93.1726 25.3357 93.3648 25.7826 93.5685 26.2507C93.7721 26.7189 93.9997 27.1386 94.2513 27.51C94.5029 27.8813 94.7713 28.1758 95.0563 28.3936C95.3499 28.597 95.667 28.6555 96.0078 28.5689C96.5162 28.4759 96.9233 28.2938 97.2292 28.0226C97.5464 27.7485 97.7868 27.4334 97.9502 27.0775C98.1137 26.7216 98.2188 26.3503 98.2656 25.9635C98.3237 25.5739 98.3464 25.2114 98.3337 24.8761C98.3324 24.5379 98.3156 24.258 98.2835 24.0364C98.2598 23.8006 98.2565 23.6685 98.2734 23.64C98.381 23.5401 98.523 23.504 98.6993 23.5317C98.8728 23.5481 99.0055 23.6897 99.0975 23.9565C99.2214 24.3965 99.2534 24.9265 99.1933 25.5463C99.1332 26.1662 98.9821 26.7608 98.7399 27.3302C98.5091 27.8967 98.1814 28.3911 97.7567 28.8135C97.3405 29.2216 96.8426 29.4509 96.263 29.5015C95.6809 29.6374 95.179 29.5897 94.7575 29.3583C94.333 29.1155 93.9608 28.793 93.6409 28.3906C93.3294 27.9741 93.0633 27.5218 92.8425 27.0338C92.6218 26.5458 92.4268 26.1117 92.2576 25.7315ZM95.7899 20.9341C95.2995 20.5267 94.8495 20.3025 94.4401 20.2615C94.0306 20.2205 93.6344 20.2789 93.2513 20.4368C93.0214 20.5315 92.8402 20.6985 92.7075 20.9377C92.572 21.1656 92.485 21.4417 92.4465 21.7659C92.4051 22.0787 92.4079 22.4226 92.4549 22.7976C92.4989 23.1612 92.5856 23.5261 92.715 23.8922L95.7899 20.9341Z" fill="black"/>
<path d="M18.8038 8.12747C18.2766 6.45499 18.2197 4.66567 17.9235 2.9399C17.8117 2.28803 17.7812 2.06118 18.6252 1.92824C20.6998 1.60144 22.8703 1.07608 24.943 0.99329" stroke="#8484FF" stroke-width="1.5" stroke-linecap="round"/>
<path d="M18.5 2.5C20.5 4 21.9551 5.36461 22.6604 6.07733C24.0576 7.48927 25.3534 9.19338 26.1692 11.0132C26.644 12.0724 26.7729 13.2718 26.5 14.5C26 16 25.2601 16.7811 24.5 17C23 17.5 21.076 17.0892 21 15C20.943 13.4324 21.686 12.511 23 12C24 11.6111 25.0753 11.7202 26.0252 11.7202C26.9158 11.7202 28.3711 11.9356 29.5 12.5C31.5 13.5 32.2297 14.2132 33.658 15.8181C34.981 17.3045 36 19 37 21C37.7718 22.5435 38.1711 23.6842 38.5 25" stroke="#8484FF" stroke-width="1.5" stroke-linecap="round"/>
</svg>
