<svg width="144" height="139" viewBox="0 0 144 139" fill="none" xmlns="http://www.w3.org/2000/svg">
<path d="M50.0414 98.8696C50.0802 98.7229 50.164 98.6556 50.2928 98.6676C50.4263 98.6697 50.5592 98.7051 50.6917 98.7739C50.8289 98.8326 50.9453 98.903 51.041 98.9849C51.1341 99.0595 51.1646 99.0984 51.1325 99.1016L57.6567 104.571C57.6393 104.453 57.5946 104.27 57.5224 104.022C57.4551 103.764 57.3658 103.468 57.2548 103.135C57.1411 102.794 57.0095 102.426 56.8601 102.031C56.718 101.634 56.5686 101.239 56.4118 100.847C56.2623 100.453 56.1082 100.068 55.9493 99.6936C55.7904 99.3189 55.6423 98.9861 55.505 98.695C55.365 98.3966 55.2411 98.1546 55.1333 97.9692C55.0229 97.7764 54.934 97.6671 54.8667 97.6414C54.8246 97.5237 54.8072 97.4055 54.8145 97.2867C54.8192 97.1606 54.8877 97.0738 55.0201 97.0265C55.1452 96.9817 55.2745 97.0184 55.408 97.1366C55.5416 97.2548 55.6633 97.3979 55.7732 97.5661C55.8831 97.7342 55.977 97.9039 56.0549 98.0752C56.1401 98.2438 56.1919 98.3539 56.2103 98.4054C56.2703 98.5499 56.3582 98.7839 56.474 99.1076C56.5945 99.4213 56.7284 99.7841 56.8757 100.196C57.0305 100.605 57.1894 101.038 57.3525 101.494C57.5204 101.94 57.678 102.369 57.8253 102.781C57.98 103.19 58.1153 103.557 58.231 103.881C58.3468 104.204 58.4347 104.438 58.4947 104.583C58.5757 104.786 58.6659 104.957 58.7653 105.096C58.8721 105.232 58.961 105.399 59.032 105.598C59.0899 105.76 59.0708 105.903 58.9747 106.029C58.8859 106.152 58.768 106.24 58.6209 106.293C58.5399 106.322 58.4624 106.337 58.3883 106.338C58.3216 106.337 58.2606 106.318 58.2054 106.279C58.1502 106.241 58.1045 106.183 58.0682 106.104C58.0366 106.016 58.0168 105.903 58.0089 105.765C57.8212 105.658 57.5599 105.461 57.225 105.174C56.8875 104.88 56.5121 104.549 56.0989 104.183C55.6904 103.806 55.2592 103.413 54.8055 103.003C54.3591 102.59 53.9306 102.204 53.52 101.844C53.1141 101.475 52.744 101.16 52.4096 100.897C52.0753 100.635 51.8195 100.465 51.6424 100.388C51.7766 100.879 51.9643 101.438 52.2053 102.066C52.4436 102.686 52.6996 103.32 52.9732 103.969C53.2442 104.611 53.5099 105.237 53.7703 105.85C54.0381 106.459 54.2575 107.003 54.4285 107.481C54.4838 107.636 54.4739 107.747 54.3987 107.815C54.3263 107.891 54.2383 107.935 54.1347 107.947C54.0312 107.959 53.9371 107.951 53.8525 107.924C53.7653 107.888 53.7384 107.848 53.772 107.803L50.0414 98.8696ZM61.0909 105.334C60.7835 105.403 60.4986 105.372 60.2363 105.242C59.9814 105.109 59.7474 104.919 59.5345 104.671C59.3215 104.424 59.1361 104.138 58.9783 103.812C58.8252 103.477 58.6968 103.142 58.5931 102.805C58.4336 102.29 58.3519 101.771 58.348 101.25C58.3514 100.726 58.414 100.252 58.5357 99.8263C58.6621 99.3911 58.8396 99.0289 59.068 98.7398C59.3012 98.4406 59.5692 98.2618 59.8718 98.2034C60.1892 98.1396 60.4833 98.1962 60.754 98.3732C61.0321 98.5475 61.2858 98.7928 61.5151 99.1091C61.7444 99.4253 61.945 99.7892 62.1171 100.201C62.2865 100.605 62.4249 101.003 62.5323 101.396C62.6508 101.843 62.6999 102.282 62.6796 102.713C62.6593 103.143 62.5801 103.536 62.4421 103.893C62.3114 104.246 62.1266 104.553 61.8876 104.813C61.6533 105.063 61.3878 105.237 61.0909 105.334ZM59.9865 98.8718C59.7332 98.9292 59.5328 99.088 59.3852 99.3482C59.2424 99.5984 59.1404 99.9046 59.079 100.267C59.0225 100.619 59.0074 101.006 59.0339 101.428C59.0577 101.842 59.1171 102.24 59.2118 102.621C59.2771 102.897 59.3635 103.173 59.4708 103.45C59.5782 103.727 59.702 103.968 59.8425 104.175C59.9902 104.38 60.1566 104.532 60.3417 104.632C60.5314 104.721 60.7403 104.725 60.9684 104.644C61.1549 104.585 61.3238 104.455 61.475 104.251C61.6336 104.045 61.7618 103.8 61.8594 103.516C61.9543 103.225 62.0167 102.912 62.0465 102.578C62.0837 102.241 62.0704 101.914 62.0066 101.597C61.945 101.262 61.8402 100.934 61.6924 100.614C61.5493 100.283 61.3823 99.9904 61.1914 99.7351C61.0079 99.4772 60.8094 99.2702 60.5959 99.1143C60.3872 98.9483 60.1841 98.8675 59.9865 98.8718ZM64.8157 103.952C64.7489 103.835 64.6318 103.624 64.4646 103.319C64.302 103.003 64.1113 102.644 63.8925 102.241C63.6811 101.836 63.453 101.407 63.2084 100.955C62.9712 100.501 62.7432 100.072 62.5244 99.6691C62.3055 99.2661 62.1125 98.912 61.9452 98.6067C61.7753 98.2941 61.657 98.0792 61.5902 97.9621C61.5649 97.8218 61.5711 97.7117 61.6089 97.6318C61.6441 97.5445 61.6948 97.4891 61.761 97.4654C61.8272 97.4417 61.9013 97.4401 61.9833 97.4605C62.0653 97.481 62.1378 97.5214 62.2009 97.5818L64.6659 102.351C64.659 102.262 64.6466 102.088 64.6286 101.829C64.6106 101.57 64.5868 101.271 64.5572 100.933C64.5323 100.585 64.5045 100.218 64.4739 99.8305C64.4506 99.4406 64.4278 99.0753 64.4055 98.7348C64.3807 98.3869 64.3592 98.0834 64.3412 97.8244C64.3233 97.5653 64.3108 97.3913 64.3039 97.3025C64.3318 97.2179 64.3745 97.1404 64.4323 97.0699C64.4875 96.9921 64.5505 96.9364 64.6214 96.9027C64.6971 96.8591 64.7796 96.8461 64.8689 96.864C64.9556 96.8744 65.0432 96.9219 65.1315 97.0065L68.5218 101.544L67.2002 95.8309C67.2033 95.7469 67.2214 95.6699 67.2545 95.5999C67.2949 95.5274 67.3458 95.4843 67.4073 95.4706C67.4735 95.4469 67.5505 95.465 67.6383 95.5249C67.7308 95.5748 67.8357 95.6824 67.953 95.8479C67.9614 95.8947 67.9851 96.019 68.0241 96.2207C68.0678 96.4125 68.12 96.6511 68.1806 96.9364C68.2411 97.2218 68.3099 97.5415 68.3868 97.8957C68.4637 98.2498 68.5432 98.6114 68.6254 98.9802C68.7075 99.3491 68.7871 99.7106 68.864 100.065C68.9409 100.419 69.0096 100.739 69.0702 101.024C69.1381 101.307 69.1953 101.548 69.2416 101.747C69.2853 101.939 69.3114 102.058 69.3198 102.105C69.3104 102.241 69.2634 102.353 69.1789 102.441C69.1017 102.527 69.0103 102.585 68.9046 102.614C68.809 102.648 68.7115 102.654 68.6122 102.632C68.5202 102.606 68.4474 102.554 68.3938 102.473L65.0145 97.932C65.1031 98.5973 65.1696 99.2124 65.2141 99.7773C65.2632 100.332 65.3016 100.845 65.3291 101.317C65.364 101.786 65.3881 102.213 65.4015 102.598C65.4222 102.98 65.447 103.328 65.4761 103.641C65.4609 103.738 65.4255 103.813 65.3698 103.866C65.3167 103.927 65.2571 103.969 65.1909 103.992C65.1247 104.016 65.0569 104.024 64.9875 104.015C64.9182 104.007 64.8609 103.986 64.8157 103.952ZM77.3917 103.237C77.1316 102.302 76.9084 101.527 76.722 100.913C76.5357 100.299 76.3699 99.7779 76.2247 99.3486C76.0841 98.9093 75.951 98.5255 75.8252 98.1971C75.6995 97.8687 75.5634 97.5232 75.4172 97.1607C75.2683 96.7908 75.0973 96.3707 74.9042 95.9005C74.7158 95.4202 74.4827 94.8149 74.2048 94.0846C74.1906 93.9984 74.195 93.918 74.2181 93.8434C74.2386 93.7614 74.2706 93.7001 74.3142 93.6597C74.3625 93.6092 74.4251 93.5868 74.5018 93.5926C74.5785 93.5983 74.6684 93.6408 74.7714 93.7201L75.2514 95.1664C75.3858 94.7533 75.56 94.359 75.7743 93.9837C75.9959 93.6058 76.2346 93.2756 76.4903 92.9933C76.7509 92.701 77.0201 92.4677 77.298 92.2937C77.5733 92.1122 77.8318 92.0115 78.0735 91.9914C78.3226 91.9686 78.5428 92.0392 78.7342 92.2031C78.9303 92.357 79.0757 92.6244 79.1705 93.0054C79.2569 93.3395 79.2826 93.7245 79.2476 94.1602C79.2099 94.5885 79.1318 95.0313 79.0133 95.4885C78.8995 95.9358 78.756 96.3813 78.5828 96.8249C78.4096 97.2685 78.2292 97.6691 78.0418 98.0265C77.8544 98.384 77.6682 98.687 77.4834 98.9357C77.3032 99.1744 77.1433 99.3187 77.0035 99.3687C77.033 99.4743 77.0733 99.6217 77.1243 99.8109C77.178 100.007 77.2396 100.226 77.3091 100.467C77.3812 100.715 77.4523 100.971 77.5223 101.237C77.5997 101.499 77.6731 101.751 77.7426 101.992C77.8121 102.232 77.8737 102.451 77.9274 102.648C77.9811 102.844 78.0251 102.99 78.0593 103.086C78.0356 103.136 78.0033 103.185 77.9624 103.232C77.9214 103.28 77.8728 103.318 77.8166 103.347C77.7604 103.375 77.6963 103.382 77.6243 103.366C77.5549 103.357 77.4774 103.315 77.3917 103.237ZM76.7234 98.7595C76.9319 98.577 77.1541 98.2818 77.3898 97.8739C77.6229 97.4586 77.8327 96.9895 78.019 96.4665C78.21 95.9335 78.3548 95.3756 78.4533 94.7928C78.5518 94.2099 78.5707 93.6597 78.51 93.1421C78.3817 92.9224 78.2271 92.8035 78.0463 92.7852C77.8655 92.7669 77.6764 92.818 77.4788 92.9384C77.286 93.0488 77.0909 93.2224 76.8934 93.459C76.6933 93.6882 76.511 93.9442 76.3467 94.227C76.1871 94.4998 76.05 94.7895 75.9356 95.0959C75.8212 95.4023 75.7496 95.6893 75.7209 95.9568L76.7234 98.7595ZM78.3163 88.8428C78.35 88.7976 78.3836 88.7524 78.4172 88.7072C78.4555 88.652 78.4991 88.6115 78.548 88.5857C78.5942 88.5526 78.6397 88.5405 78.6843 88.5494C78.7364 88.5557 78.7902 88.5903 78.846 88.6534L82.1683 97.7328C82.1579 97.8195 82.1272 97.8845 82.0762 97.9276C82.0279 97.9781 81.9717 98.0065 81.9076 98.0128C81.8461 98.0265 81.783 98.0242 81.7184 98.0058C81.6611 97.9848 81.6159 97.9512 81.5827 97.905L78.3163 88.8428ZM86.6111 96.1312C86.4529 96.0136 86.3143 95.835 86.1955 95.5954C86.0839 95.3532 85.9758 95.0973 85.8711 94.8277C85.7711 94.5482 85.6737 94.276 85.579 94.0112C85.489 93.7364 85.3877 93.5113 85.2752 93.3358C85.2005 94.2171 85.085 94.9264 84.9286 95.4636C84.777 95.9907 84.6053 96.3923 84.4137 96.6683C84.2267 96.9343 84.0276 97.0968 83.8164 97.1558C83.6025 97.2074 83.3997 97.197 83.2078 97.1245C83.0207 97.0421 82.8538 96.9234 82.7071 96.7685C82.5577 96.6062 82.4491 96.4417 82.3813 96.2752C82.2298 96.0141 82.1064 95.6807 82.0111 95.275C81.9205 94.8594 81.859 94.4209 81.8267 93.9595C81.8018 93.4954 81.8103 93.0319 81.8521 92.5689C81.8986 92.0959 81.987 91.6702 82.1171 91.2917C82.2546 90.9107 82.4344 90.6016 82.6566 90.3645C82.8762 90.12 83.1502 89.9929 83.4786 89.9833C83.6205 89.916 83.7445 89.8799 83.8506 89.8751C83.9615 89.8604 84.0645 89.8816 84.1597 89.9388C84.2548 89.9961 84.3434 90.093 84.4255 90.2296C84.5049 90.3588 84.5914 90.5311 84.6851 90.7466C84.9256 91.4654 85.1611 92.0657 85.3915 92.5475C85.6293 93.0266 85.8533 93.4443 86.0637 93.8005C86.2741 94.1567 86.4677 94.4774 86.6444 94.7627C86.8284 95.0454 86.987 95.3496 87.1202 95.6753C87.1623 95.793 87.1657 95.8955 87.1306 95.9828C87.0928 96.0627 87.0397 96.1231 86.9714 96.1641C86.9057 96.2125 86.8345 96.2338 86.7578 96.2281C86.6884 96.2197 86.6396 96.1874 86.6111 96.1312ZM83.978 90.7879C83.7173 90.6157 83.4905 90.5848 83.2977 90.6952C83.1048 90.8057 82.9449 91.0081 82.8179 91.3024C82.6956 91.5868 82.6056 91.9384 82.548 92.3573C82.4878 92.7688 82.4625 93.1969 82.4722 93.6415C82.4819 94.086 82.5247 94.5188 82.6005 94.9397C82.6811 95.3506 82.7938 95.7003 82.9384 95.9888C83.1598 96.2829 83.3559 96.4368 83.5267 96.4504C83.6975 96.464 83.8478 96.3853 83.9775 96.2145C84.1046 96.0363 84.2117 95.7905 84.2988 95.4773C84.3859 95.164 84.459 94.835 84.5182 94.4902C84.5748 94.1381 84.6143 93.7962 84.6367 93.4646C84.6639 93.123 84.6824 92.8384 84.6923 92.6109L83.978 90.7879ZM90.042 95.0409L85.6182 90.363C85.5278 90.2958 85.4815 90.2128 85.4794 90.114C85.4746 90.0078 85.4998 89.9158 85.5549 89.838C85.61 89.7602 85.6881 89.7116 85.789 89.6921C85.8946 89.6626 86.0076 89.6886 86.128 89.77L89.8948 93.8987L88.8932 88.0714C88.9295 88.0336 88.9744 87.9967 89.028 87.961C89.0889 87.9226 89.1501 87.8965 89.2116 87.8829C89.2804 87.8665 89.3472 87.8675 89.4118 87.8859C89.4765 87.9043 89.5306 87.9513 89.5743 88.0269C89.6428 88.3343 89.7218 88.7292 89.8114 89.2116C89.9009 89.694 89.9884 90.1937 90.0738 90.7108C90.1566 91.2205 90.2327 91.7119 90.3023 92.1848C90.3767 92.6477 90.4378 93.0159 90.4858 93.2891C90.5116 93.4541 90.5498 93.6769 90.6004 93.9575C90.6484 94.2308 90.6982 94.5324 90.7498 94.8624C90.8088 95.1898 90.8645 95.5308 90.9167 95.8855C90.9788 96.2449 91.0358 96.5897 91.0874 96.9197C91.1465 97.247 91.1913 97.5463 91.2219 97.8175C91.2625 98.0933 91.292 98.3151 91.3105 98.4827C91.3274 98.5763 91.3069 98.6583 91.2491 98.7287C91.1914 98.7992 91.117 98.8465 91.0261 98.8707C90.9352 98.8949 90.8401 98.8958 90.7408 98.8732C90.6488 98.848 90.582 98.7889 90.5404 98.6959L90.042 95.0409ZM89.9429 87.4221C89.9791 87.3843 90.0241 87.3475 90.0776 87.3117C90.1312 87.2759 90.1838 87.2489 90.2353 87.2304C90.2941 87.2094 90.3532 87.2007 90.4126 87.2043C90.472 87.208 90.5269 87.234 90.5774 87.2823C90.7484 87.7604 90.9376 88.2777 91.1449 88.8342C91.357 89.3806 91.573 89.9381 91.793 90.5066C92.0176 91.0651 92.236 91.6176 92.448 92.164C92.6601 92.7105 92.8577 93.2165 93.0408 93.682C93.0876 93.7897 93.0885 93.8848 93.0433 93.9673C92.9982 94.0499 92.9351 94.1056 92.8542 94.1346C92.7806 94.1609 92.7002 94.1564 92.613 94.1213C92.5284 94.0935 92.465 94.0207 92.4229 93.903L89.9429 87.4221ZM89.0053 85.2185C88.9711 85.1229 88.9819 85.0485 89.0375 84.9954C89.0906 84.935 89.1576 84.8903 89.2385 84.8613C89.4003 84.8034 89.5194 84.8231 89.5956 84.9203C89.6766 85.0075 89.7421 85.121 89.7921 85.2607C89.7795 85.3648 89.743 85.4484 89.6826 85.5115C89.6222 85.5745 89.5476 85.6095 89.4588 85.6164C89.3773 85.6206 89.2927 85.5928 89.2049 85.533C89.1245 85.4705 89.058 85.3657 89.0053 85.2185ZM91.2608 87.1748C91.2418 87.0986 91.2502 87.0292 91.2859 86.9666C91.3216 86.9041 91.3713 86.8573 91.4348 86.8262C91.4958 86.7879 91.5646 86.7715 91.6413 86.7773C91.7154 86.7757 91.7838 86.7927 91.8463 86.8284L93.392 91.2539C93.3423 90.6743 93.2805 90.1072 93.2067 89.5529C93.1376 88.9885 93.1126 88.4664 93.1318 87.9866C93.1484 87.4994 93.2367 87.0737 93.3968 86.7094C93.5543 86.3378 93.8398 86.0573 94.2533 85.8679C94.4734 85.7642 94.697 85.7631 94.9241 85.8644C95.1486 85.9584 95.3683 86.1204 95.5834 86.3504C95.8058 86.5779 96.0232 86.861 96.2357 87.1999C96.4455 87.5314 96.6436 87.8879 96.8298 88.2693C97.0208 88.6408 97.1983 89.0212 97.3625 89.4105C97.5266 89.7998 97.6729 90.1624 97.8013 90.4981C97.9297 90.8339 98.0362 91.1318 98.121 91.3919C98.2131 91.6493 98.2765 91.8382 98.3112 91.9586C98.3045 92.102 98.2415 92.2158 98.1222 92.3C98.013 92.3889 97.8805 92.3781 97.7249 92.2679C97.6676 92.1307 97.5784 91.893 97.4573 91.5546C97.3337 91.2089 97.1855 90.8179 97.0129 90.3818C96.8477 89.9431 96.6612 89.4912 96.4534 89.0263C96.2503 88.5513 96.0359 88.126 95.8103 87.7503C95.5894 87.3647 95.3604 87.0608 95.1232 86.8386C94.8909 86.6065 94.6614 86.5101 94.4349 86.5497C94.2405 86.586 94.0958 86.7498 94.0008 87.041C93.9132 87.3295 93.8556 87.6903 93.8279 88.1234C93.8077 88.5538 93.8118 89.0294 93.8405 89.5502C93.8764 90.0683 93.9208 90.5752 93.9736 91.0707C94.0338 91.5636 94.0955 92.0145 94.1588 92.4233C94.222 92.8322 94.2795 93.1435 94.3311 93.3574C94.3301 93.4241 94.303 93.4877 94.25 93.5482C94.1969 93.6086 94.1299 93.6533 94.049 93.6823C93.9781 93.716 93.8969 93.7325 93.8055 93.7321C93.7214 93.729 93.6465 93.6935 93.5807 93.6258L91.2608 87.1748ZM100.494 94.5131C101.028 94.289 101.45 94.0055 101.758 93.6627C102.07 93.3273 102.292 92.9493 102.423 92.5288C102.555 92.1084 102.604 91.6551 102.572 91.169C102.539 90.6829 102.449 90.1758 102.301 89.6477C102.205 89.3088 102.112 89.0143 102.023 88.7642C101.938 88.5041 101.851 88.2737 101.763 88.073C101.679 87.8623 101.596 87.6639 101.513 87.4779C101.43 87.2919 101.344 87.0986 101.255 86.8979C101.167 86.6972 101.073 86.4818 100.974 86.2516C100.88 86.0115 100.778 85.737 100.667 85.428C100.685 86.5915 100.653 87.5448 100.57 88.288C100.488 89.0311 100.368 89.6132 100.212 90.0342C100.063 90.4526 99.8896 90.7344 99.6926 90.8795C99.5029 91.022 99.3114 91.0781 99.118 91.0477C98.922 91.01 98.7356 90.9065 98.5589 90.7374C98.3797 90.5609 98.2322 90.3689 98.1164 90.1614C97.9996 89.7883 97.9248 89.3587 97.8919 88.8726C97.8565 88.3792 97.8654 87.8823 97.9188 87.382C97.9695 86.8743 98.0652 86.3879 98.2058 85.9227C98.3438 85.4502 98.5315 85.047 98.7688 84.7132C99.0062 84.3794 99.2851 84.1385 99.6056 83.9907C99.9335 83.8402 100.313 83.8332 100.743 83.9696C100.748 83.9597 100.784 84.0379 100.852 84.2045C100.927 84.3684 101.024 84.5912 101.141 84.8728C101.266 85.1518 101.404 85.4799 101.555 85.8572C101.711 86.2245 101.874 86.6101 102.044 87.0142C102.213 87.4182 102.379 87.8236 102.541 88.2302C102.71 88.6343 102.869 89.0089 103.018 89.3541C103.27 90.0356 103.392 90.7014 103.384 91.3515C103.375 92.0015 103.262 92.5897 103.044 93.1158C102.833 93.6393 102.529 94.0759 102.131 94.4256C101.741 94.7726 101.286 94.9852 100.766 95.0632C100.744 95.0711 100.702 95.0696 100.64 95.0585C100.585 95.0449 100.534 95.0176 100.486 94.9766C100.446 94.933 100.42 94.8718 100.408 94.793C100.399 94.7215 100.428 94.6282 100.494 94.5131ZM98.7052 89.9632C98.8808 90.1991 99.0349 90.2933 99.1673 90.246C99.297 90.1913 99.41 90.043 99.506 89.8012C99.6068 89.5494 99.6912 89.2288 99.7594 88.8394C99.8275 88.4499 99.8851 88.0311 99.9322 87.5828C99.984 87.1245 100.027 86.6652 100.062 86.2048C100.093 85.737 100.126 85.3064 100.159 84.9127C100.128 84.8245 100.077 84.7514 100.006 84.6937C99.9407 84.6259 99.8432 84.6317 99.714 84.7111C99.5017 84.8368 99.3182 85.0311 99.1633 85.294C99.0131 85.5468 98.8884 85.8362 98.7892 86.162C98.6875 86.4806 98.6109 86.8232 98.5596 87.1901C98.513 87.5469 98.4898 87.8996 98.4899 88.248C98.4875 88.5891 98.5031 88.9112 98.5369 89.2144C98.5781 89.515 98.6341 89.7646 98.7052 89.9632ZM104.404 89.891C104.235 89.9516 104.095 89.9435 103.985 89.8668C103.879 89.7802 103.812 89.6717 103.782 89.5414C103.752 89.411 103.767 89.281 103.829 89.1511C103.887 89.0139 104.003 88.9188 104.175 88.8656C104.317 88.823 104.431 88.8526 104.518 88.9545C104.608 89.0464 104.667 89.1625 104.692 89.3028C104.715 89.4358 104.703 89.5645 104.656 89.6891C104.616 89.8111 104.533 89.8784 104.404 89.891ZM106.026 89.3109C105.857 89.3714 105.718 89.3633 105.607 89.2866C105.501 89.2 105.434 89.0915 105.404 88.9612C105.374 88.8308 105.389 88.7008 105.451 88.5709C105.509 88.4337 105.625 88.3386 105.797 88.2854C105.939 88.2428 106.053 88.2724 106.14 88.3743C106.231 88.4662 106.289 88.5823 106.314 88.7227C106.337 88.8556 106.325 88.9844 106.278 89.1089C106.239 89.2309 106.155 89.2982 106.026 89.3109ZM30.5054 134.006C30.497 133.959 30.5803 133.867 30.7552 133.73C30.9375 133.59 31.1636 133.422 31.4337 133.226C31.7011 133.022 31.9976 132.796 32.3233 132.547C32.6464 132.29 32.9495 132.024 33.2326 131.749C33.5231 131.47 33.7715 131.191 33.9779 130.909C34.1817 130.621 34.3053 130.34 34.3488 130.067C34.3067 129.95 34.1929 129.887 34.0074 129.878C33.8218 129.87 33.5888 129.891 33.3082 129.942C33.0276 129.992 32.7128 130.063 32.3639 130.155C32.015 130.247 31.6511 130.331 31.2723 130.409C30.9007 130.483 30.5313 130.541 30.164 130.581C29.7967 130.621 29.4556 130.619 29.1408 130.574C28.8234 130.521 28.5456 130.417 28.3074 130.262C28.0667 130.099 27.8884 129.856 27.7726 129.532C27.6595 129.216 27.6149 128.871 27.6389 128.497C27.6676 128.114 27.7444 127.725 27.8693 127.332C27.9942 126.939 28.1587 126.552 28.363 126.172C28.5746 125.79 28.809 125.436 29.0664 125.112C29.3237 124.787 29.5932 124.508 29.8748 124.275C30.1563 124.041 30.4369 123.875 30.7164 123.775C30.79 123.748 30.8672 123.721 30.9481 123.692C31.0264 123.655 31.0976 123.634 31.1617 123.628C31.2332 123.619 31.2965 123.634 31.3517 123.672C31.4116 123.7 31.4587 123.762 31.4929 123.858C31.5771 124.093 31.5604 124.29 31.4428 124.448C31.3251 124.607 31.156 124.725 30.9353 124.804L30.4055 124.819C30.2216 124.885 30.0317 125.015 29.8358 125.21C29.6446 125.394 29.4642 125.621 29.2946 125.889C29.1223 126.149 28.9643 126.438 28.8205 126.755C28.6814 127.062 28.5683 127.372 28.4812 127.686C28.3988 127.989 28.3472 128.285 28.3263 128.575C28.3102 128.855 28.3376 129.094 28.4086 129.292C28.4981 129.542 28.6527 129.719 28.8724 129.823C29.0895 129.92 29.3476 129.969 29.6466 129.97C29.9456 129.97 30.2735 129.936 30.6303 129.867C30.9918 129.787 31.3557 129.703 31.722 129.613C32.0882 129.523 32.4484 129.44 32.8026 129.363C33.1641 129.284 33.4918 129.237 33.7855 129.223C34.0767 129.202 34.3281 129.233 34.54 129.314C34.7492 129.389 34.8945 129.54 34.9761 129.768C35.055 129.989 35.0457 130.241 34.9481 130.525C34.8505 130.809 34.6951 131.105 34.4819 131.414C34.266 131.715 34.0021 132.021 33.6901 132.332C33.3828 132.632 33.064 132.912 32.7335 133.172C32.4005 133.424 32.0656 133.647 31.7288 133.842C31.3994 134.035 31.1046 134.173 30.8445 134.258C30.771 134.284 30.6992 134.281 30.6293 134.248C30.5594 134.215 30.5181 134.134 30.5054 134.006ZM40.7941 130.55C40.7267 130.292 40.6319 129.969 40.5098 129.581C40.3877 129.193 40.2453 128.784 40.0827 128.352C39.9275 127.918 39.7612 127.488 39.5839 127.062C39.404 126.629 39.2251 126.245 39.0473 125.91C38.8769 125.573 38.7104 125.304 38.5479 125.105C38.3902 124.896 38.2522 124.8 38.1339 124.818C37.8722 124.828 37.6521 124.932 37.4735 125.129C37.2996 125.315 37.1618 125.568 37.06 125.887C36.9556 126.198 36.8843 126.555 36.8461 126.959C36.8053 127.355 36.7835 127.769 36.7805 128.202C36.7823 128.624 36.7964 129.047 36.8229 129.469C36.8541 129.881 36.8932 130.257 36.9401 130.597C36.9871 130.937 37.0329 131.227 37.0777 131.468C37.1272 131.7 37.1675 131.847 37.1986 131.911C37.1471 131.929 37.0848 131.964 37.0118 132.015C36.9435 132.056 36.8739 132.093 36.8029 132.127C36.7346 132.168 36.6684 132.191 36.6043 132.198C36.5449 132.194 36.5021 132.156 36.4758 132.082L33.0399 123.068C33.0163 123.002 33.0312 122.951 33.0848 122.915C33.1357 122.872 33.1993 122.841 33.2755 122.822C33.3517 122.803 33.4282 122.796 33.5049 122.802C33.5816 122.808 33.6363 122.821 33.6689 122.843L36.2185 129.797C36.2179 129.656 36.2007 129.434 36.1669 129.131C36.1405 128.825 36.1206 128.479 36.1073 128.094C36.0939 127.709 36.1037 127.307 36.1366 126.889C36.1669 126.463 36.2448 126.066 36.3702 125.698C36.5003 125.319 36.6933 124.989 36.9491 124.706C37.2122 124.422 37.56 124.222 37.9925 124.109C38.1512 124.135 38.3031 124.189 38.4482 124.27C38.598 124.341 38.7502 124.465 38.9048 124.642C39.0641 124.809 39.2284 125.036 39.3978 125.324C39.5745 125.609 39.7678 125.976 39.9777 126.423C40.1876 126.871 40.4194 127.415 40.673 128.054C40.934 128.691 41.2234 129.442 41.5412 130.307C41.5376 130.367 41.5106 130.43 41.4601 130.498C41.4124 130.573 41.3506 130.633 41.275 130.676C41.2067 130.717 41.1292 130.733 41.0425 130.722C40.9557 130.712 40.8729 130.654 40.7941 130.55ZM39.709 123.445C39.7453 123.408 39.7902 123.371 39.8438 123.335C39.8974 123.299 39.9499 123.272 40.0014 123.254C40.0603 123.233 40.1194 123.224 40.1788 123.228C40.2381 123.231 40.2931 123.257 40.3435 123.306C40.5146 123.784 40.7038 124.301 40.9111 124.857C41.1231 125.404 41.3391 125.961 41.5591 126.53C41.7838 127.088 42.0021 127.641 42.2142 128.187C42.4262 128.734 42.6238 129.24 42.8069 129.705C42.8538 129.813 42.8546 129.908 42.8094 129.991C42.7643 130.073 42.7013 130.129 42.6203 130.158C42.5468 130.184 42.4664 130.18 42.3791 130.145C42.2945 130.117 42.2311 130.044 42.189 129.926L39.709 123.445ZM38.7715 121.242C38.7373 121.146 38.748 121.072 38.8037 121.019C38.8567 120.958 38.9237 120.914 39.0046 120.885C39.1665 120.827 39.2855 120.846 39.3618 120.944C39.4427 121.031 39.5082 121.144 39.5582 121.284C39.5456 121.388 39.5092 121.472 39.4488 121.535C39.3884 121.598 39.3137 121.633 39.2249 121.64C39.1435 121.644 39.0589 121.616 38.9711 121.556C38.8906 121.494 38.8241 121.389 38.7715 121.242ZM41.0269 123.198C41.008 123.122 41.0164 123.053 41.0521 122.99C41.0878 122.927 41.1374 122.881 41.201 122.85C41.2619 122.811 41.3308 122.795 41.4075 122.801C41.4816 122.799 41.5499 122.816 41.6125 122.852L43.1581 127.277C43.1084 126.698 43.0467 126.131 42.9728 125.576C42.9037 125.012 42.8787 124.49 42.8979 124.01C42.9145 123.523 43.0029 123.097 43.163 122.733C43.3204 122.361 43.6059 122.081 44.0194 121.891C44.2396 121.788 44.4632 121.786 44.6903 121.888C44.9147 121.982 45.1345 122.144 45.3495 122.374C45.5719 122.601 45.7894 122.884 46.0018 123.223C46.2117 123.555 46.4097 123.911 46.5959 124.293C46.7869 124.664 46.9644 125.044 47.1286 125.434C47.2928 125.823 47.439 126.186 47.5674 126.521C47.6958 126.857 47.8024 127.155 47.8871 127.415C47.9792 127.673 48.0426 127.862 48.0774 127.982C48.0706 128.125 48.0076 128.239 47.8884 128.323C47.7791 128.412 47.6467 128.401 47.491 128.291C47.4337 128.154 47.3445 127.916 47.2235 127.578C47.0998 127.232 46.9517 126.841 46.7791 126.405C46.6139 125.966 46.4273 125.515 46.2195 125.05C46.0164 124.575 45.8021 124.149 45.5764 123.774C45.3555 123.388 45.1265 123.084 44.8894 122.862C44.657 122.63 44.4276 122.533 44.2011 122.573C44.0066 122.609 43.8619 122.773 43.767 123.064C43.6793 123.353 43.6217 123.714 43.5941 124.147C43.5738 124.577 43.578 125.053 43.6066 125.573C43.6426 126.092 43.687 126.598 43.7398 127.094C43.7999 127.587 43.8616 128.038 43.9249 128.447C43.9882 128.855 44.0456 129.167 44.0972 129.381C44.0962 129.447 44.0692 129.511 44.0161 129.571C43.9631 129.632 43.8961 129.677 43.8152 129.706C43.7442 129.739 43.663 129.756 43.5716 129.755C43.4875 129.752 43.4126 129.717 43.3469 129.649L41.0269 123.198ZM46.2523 121.105C46.2885 121.067 46.3334 121.03 46.387 120.995C46.4406 120.959 46.4931 120.932 46.5446 120.913C46.6035 120.892 46.6626 120.884 46.722 120.887C46.7814 120.891 46.8363 120.917 46.8868 120.965C47.0578 121.443 47.247 121.961 47.4543 122.517C47.6664 123.063 47.8824 123.621 48.1023 124.189C48.327 124.748 48.5454 125.3 48.7574 125.847C48.9695 126.393 49.167 126.899 49.3502 127.365C49.397 127.473 49.3978 127.568 49.3527 127.65C49.3075 127.733 49.2445 127.788 49.1636 127.817C49.09 127.844 49.0096 127.839 48.9223 127.804C48.8377 127.776 48.7744 127.704 48.7323 127.586L46.2523 121.105ZM45.3147 118.901C45.2805 118.806 45.2912 118.731 45.3469 118.678C45.4 118.618 45.4669 118.573 45.5479 118.544C45.7097 118.486 45.8287 118.506 45.905 118.603C45.986 118.69 46.0514 118.804 46.1014 118.944C46.0889 119.048 46.0524 119.131 45.992 119.194C45.9316 119.257 45.857 119.292 45.7682 119.299C45.6867 119.303 45.6021 119.276 45.5143 119.216C45.4339 119.153 45.3673 119.048 45.3147 118.901ZM51.6619 130.035C52.1958 129.811 52.6171 129.528 52.9259 129.185C53.2374 128.849 53.459 128.471 53.5907 128.051C53.7224 127.63 53.7718 127.177 53.739 126.691C53.7062 126.205 53.6161 125.698 53.4687 125.17C53.3723 124.831 53.2794 124.536 53.19 124.286C53.1052 124.026 53.0187 123.796 52.9303 123.595C52.8466 123.384 52.7632 123.186 52.6801 123C52.597 122.814 52.5112 122.621 52.4228 122.42C52.3345 122.219 52.2408 122.004 52.1419 121.774C52.0477 121.534 51.9454 121.259 51.8348 120.95C51.8528 122.114 51.8204 123.067 51.7377 123.81C51.655 124.553 51.5355 125.135 51.3791 125.556C51.2301 125.975 51.057 126.256 50.86 126.402C50.6704 126.544 50.4789 126.6 50.2855 126.57C50.0894 126.532 49.9031 126.429 49.7264 126.259C49.5471 126.083 49.3996 125.891 49.2839 125.683C49.1671 125.31 49.0922 124.881 49.0594 124.395C49.0239 123.901 49.0329 123.404 49.0863 122.904C49.137 122.396 49.2327 121.91 49.3733 121.445C49.5112 120.972 49.6989 120.569 49.9363 120.235C50.1737 119.901 50.4526 119.661 50.7731 119.513C51.101 119.362 51.4801 119.355 51.9106 119.492C51.9153 119.482 51.9516 119.56 52.0195 119.727C52.0947 119.89 52.191 120.113 52.3083 120.395C52.433 120.674 52.5711 121.002 52.7227 121.379C52.8789 121.747 53.0418 122.132 53.2112 122.536C53.3806 122.94 53.5463 123.346 53.7084 123.752C53.8778 124.156 54.0367 124.531 54.1851 124.876C54.4372 125.558 54.5591 126.223 54.551 126.874C54.543 127.524 54.4297 128.112 54.2114 128.638C54.0004 129.161 53.696 129.598 53.2984 129.948C52.9081 130.295 52.4531 130.507 51.9334 130.585C51.9113 130.593 51.8693 130.592 51.8073 130.581C51.7526 130.567 51.7013 130.54 51.6535 130.499C51.613 130.455 51.587 130.394 51.5754 130.315C51.5664 130.244 51.5953 130.15 51.6619 130.035ZM49.8727 125.485C50.0483 125.721 50.2023 125.815 50.3347 125.768C50.4645 125.713 50.5774 125.565 50.6735 125.323C50.7743 125.072 50.8587 124.751 50.9268 124.361C50.995 123.972 51.0526 123.553 51.0996 123.105C51.1514 122.647 51.1946 122.187 51.229 121.727C51.2609 121.259 51.2935 120.828 51.3269 120.435C51.2954 120.347 51.2444 120.273 51.1739 120.216C51.1082 120.148 51.0107 120.154 50.8815 120.233C50.6692 120.359 50.4856 120.553 50.3307 120.816C50.1806 121.069 50.0559 121.358 49.9567 121.684C49.8549 122.003 49.7784 122.345 49.727 122.712C49.6804 123.069 49.6572 123.422 49.6574 123.77C49.6549 124.111 49.6706 124.433 49.7044 124.736C49.7455 125.037 49.8016 125.287 49.8727 125.485ZM58.7765 124.142C58.6183 124.025 58.4797 123.846 58.3608 123.607C58.2493 123.364 58.1412 123.108 58.0365 122.839C57.9365 122.559 57.8391 122.287 57.7444 122.022C57.6544 121.748 57.5531 121.522 57.4406 121.347C57.3658 122.228 57.2503 122.938 57.094 123.475C56.9424 124.002 56.7707 124.404 56.579 124.68C56.3921 124.946 56.193 125.108 55.9817 125.167C55.7679 125.219 55.565 125.208 55.3732 125.136C55.186 125.053 55.0191 124.935 54.8724 124.78C54.7231 124.617 54.6145 124.453 54.5466 124.286C54.3951 124.025 54.2717 123.692 54.1764 123.286C54.0858 122.871 54.0244 122.432 53.9921 121.971C53.9672 121.507 53.9756 121.043 54.0174 120.58C54.064 120.107 54.1523 119.681 54.2825 119.303C54.42 118.922 54.5998 118.613 54.822 118.376C55.0415 118.131 55.3155 118.004 55.644 117.994C55.7858 117.927 55.9098 117.891 56.016 117.886C56.1269 117.872 56.2299 117.893 56.325 117.95C56.4202 118.007 56.5088 118.104 56.5908 118.241C56.6703 118.37 56.7568 118.542 56.8504 118.758C57.091 119.477 57.3264 120.077 57.5568 120.559C57.7946 121.038 58.0187 121.455 58.2291 121.812C58.4395 122.168 58.633 122.489 58.8097 122.774C58.9938 123.057 59.1524 123.361 59.2855 123.687C59.3276 123.804 59.3311 123.907 59.2959 123.994C59.2581 124.074 59.2051 124.134 59.1368 124.175C59.0711 124.224 58.9999 124.245 58.9232 124.239C58.8538 124.231 58.8049 124.199 58.7765 124.142ZM56.1434 118.799C55.8826 118.627 55.6558 118.596 55.463 118.706C55.2702 118.817 55.1103 119.019 54.9833 119.314C54.861 119.598 54.771 119.95 54.7134 120.368C54.6532 120.78 54.6279 121.208 54.6376 121.653C54.6472 122.097 54.69 122.53 54.7659 122.951C54.8465 123.362 54.9591 123.711 55.1038 124C55.3252 124.294 55.5213 124.448 55.6921 124.462C55.8629 124.475 56.0132 124.397 56.1429 124.226C56.27 124.047 56.3771 123.802 56.4641 123.488C56.5512 123.175 56.6244 122.846 56.6836 122.501C56.7402 122.149 56.7797 121.807 56.8021 121.476C56.8293 121.134 56.8478 120.85 56.8577 120.622L56.1434 118.799ZM59.9942 123.719C59.9269 123.577 59.828 123.347 59.6975 123.029C59.5717 122.7 59.4265 122.329 59.2618 121.915C59.1018 121.491 58.9326 121.041 58.7543 120.566C58.5759 120.09 58.3967 119.636 58.2168 119.202C58.0415 118.759 57.8671 118.353 57.6935 117.983C57.5273 117.611 57.3813 117.319 57.2556 117.107C57.1898 116.923 57.2082 116.8 57.3106 116.739C57.4178 116.667 57.5502 116.62 57.7078 116.597C57.9714 117.125 58.1944 117.609 58.377 118.05C58.5669 118.488 58.7287 118.882 58.8624 119.233C59.0008 119.573 59.1197 119.871 59.2191 120.126C59.3233 120.371 59.4214 120.564 59.5134 120.705C59.357 119.989 59.2411 119.375 59.1657 118.863C59.0903 118.351 59.0501 117.925 59.0452 117.587C59.0451 117.238 59.0825 116.972 59.1576 116.787C59.23 116.596 59.3358 116.462 59.4751 116.388C59.6022 116.326 59.7654 116.388 59.9647 116.573C60.1613 116.752 60.3693 116.997 60.5886 117.309C60.8152 117.618 61.0377 117.961 61.256 118.339C61.479 118.708 61.6731 119.053 61.8382 119.376C61.8226 118.543 61.8181 117.881 61.8247 117.389C61.8386 116.895 61.8686 116.515 61.9148 116.249C61.9582 115.977 62.0209 115.792 62.1029 115.697C62.1922 115.598 62.3043 115.529 62.4394 115.489C62.6186 115.433 62.7859 115.461 62.9416 115.571C63.1019 115.671 63.2549 115.832 63.4006 116.054C63.5436 116.268 63.6828 116.53 63.818 116.838C63.9579 117.136 64.0971 117.456 64.2354 117.796C64.3812 118.134 64.5332 118.478 64.6916 118.828C64.8547 119.168 65.0272 119.488 65.2092 119.788C65.3911 120.088 65.591 120.357 65.8087 120.594C66.0237 120.824 66.2621 120.992 66.5239 121.097C66.505 121.253 66.4686 121.395 66.4145 121.522C66.3578 121.642 66.2711 121.69 66.1545 121.665C65.8911 121.602 65.6341 121.428 65.3833 121.144C65.1372 120.851 64.8974 120.505 64.6638 120.107C64.4303 119.71 64.2136 119.289 64.0137 118.846C63.8111 118.396 63.6267 117.985 63.4605 117.613C63.2942 117.241 63.148 116.937 63.0217 116.7C62.9028 116.46 62.8127 116.347 62.7512 116.361C62.5273 116.408 62.4264 116.821 62.4483 117.602C62.4776 118.379 62.558 119.521 62.6896 121.025C62.687 121.134 62.6679 121.22 62.6322 121.282C62.5939 121.337 62.5489 121.374 62.4975 121.393C62.446 121.411 62.3892 121.415 62.3272 121.404C62.2625 121.385 62.2026 121.357 62.1474 121.319C61.8445 120.796 61.5641 120.291 61.3064 119.802C61.056 119.311 60.8303 118.877 60.6294 118.501C60.4284 118.125 60.2514 117.827 60.0984 117.608C59.9527 117.387 59.8405 117.282 59.7617 117.293C59.6902 117.302 59.6503 117.399 59.642 117.585C59.6384 117.761 59.6572 117.999 59.6983 118.299C59.7368 118.592 59.7914 118.942 59.862 119.348C59.9373 119.744 60.0195 120.171 60.1086 120.629C60.1976 121.087 60.2882 121.561 60.3804 122.05C60.47 122.533 60.5509 123.014 60.6232 123.494C60.6148 123.564 60.5864 123.624 60.5381 123.674C60.4924 123.732 60.4365 123.773 60.3703 123.796C60.3114 123.817 60.2473 123.824 60.1779 123.815C60.1086 123.807 60.0473 123.775 59.9942 123.719ZM64.624 114.533C64.6603 114.496 64.7052 114.459 64.7588 114.423C64.8124 114.387 64.8649 114.36 64.9164 114.342C64.9753 114.321 65.0344 114.312 65.0938 114.316C65.1531 114.319 65.2081 114.345 65.2585 114.394C65.4296 114.872 65.6188 115.389 65.8261 115.945C66.0381 116.492 66.2541 117.049 66.4741 117.618C66.6988 118.176 66.9171 118.729 67.1292 119.275C67.3412 119.822 67.5388 120.328 67.7219 120.793C67.7688 120.901 67.7696 120.996 67.7244 121.079C67.6793 121.161 67.6163 121.217 67.5353 121.246C67.4618 121.272 67.3814 121.268 67.2941 121.233C67.2095 121.205 67.1461 121.132 67.104 121.014L64.624 114.533ZM63.6865 112.33C63.6523 112.234 63.663 112.16 63.7187 112.107C63.7717 112.046 63.8387 112.002 63.9196 111.973C64.0815 111.915 64.2005 111.934 64.2768 112.032C64.3577 112.119 64.4232 112.232 64.4732 112.372C64.4606 112.476 64.4242 112.56 64.3638 112.623C64.3034 112.686 64.2287 112.721 64.1399 112.728C64.0585 112.732 63.9739 112.704 63.8861 112.644C63.8056 112.582 63.7391 112.477 63.6865 112.33ZM72.5955 115.142C72.3193 114.486 72.1371 113.837 72.0491 113.197C71.9683 112.554 71.9583 111.922 72.019 111.303C72.077 110.677 72.192 110.059 72.3641 109.45C72.5362 108.841 72.7419 108.244 72.9813 107.661C73.1284 107.608 73.2348 107.616 73.3005 107.684C73.3662 107.751 73.4231 107.864 73.471 108.021C73.261 108.594 73.0758 109.166 72.9153 109.738C72.7595 110.3 72.6557 110.868 72.6039 111.443C72.5569 112.007 72.5719 112.582 72.6489 113.169C72.726 113.755 72.8984 114.353 73.1661 114.963C73.2909 115.358 73.4882 115.735 73.7579 116.095C74.0251 116.448 74.3432 116.757 74.7122 117.023C75.0786 117.282 75.4857 117.481 75.9336 117.62C76.3814 117.758 76.8433 117.809 77.3194 117.771C77.3599 117.815 77.3994 117.867 77.4378 117.928C77.4835 117.986 77.5046 118.045 77.5009 118.104C77.4999 118.171 77.4679 118.232 77.4048 118.288C77.3518 118.349 77.2491 118.398 77.0967 118.436C76.6206 118.473 76.1434 118.403 75.665 118.226C75.1941 118.046 74.7538 117.801 74.3443 117.491C73.9421 117.179 73.5846 116.817 73.2717 116.406C72.9588 115.995 72.7334 115.574 72.5955 115.142ZM74.4109 108.631C74.3867 108.54 74.3798 108.451 74.3903 108.364C74.4007 108.278 74.4251 108.207 74.4635 108.151C74.5065 108.086 74.5588 108.047 74.6203 108.033C74.6791 108.012 74.7498 108.024 74.8324 108.069C74.8618 108.059 74.8944 108.08 74.9301 108.134C74.9706 108.177 75.0209 108.271 75.0808 108.416C75.1382 108.553 75.2116 108.747 75.3011 108.997C75.3979 109.244 75.516 109.563 75.6555 109.953C75.7949 110.343 75.9633 110.813 76.1607 111.365C76.3627 111.907 76.599 112.544 76.8695 113.277C76.8805 113.215 76.9117 113.059 76.9631 112.808C77.0192 112.547 77.0926 112.231 77.1833 111.858C77.2714 111.478 77.3737 111.068 77.4901 110.628C77.6113 110.178 77.7375 109.731 77.8687 109.286C78.0072 108.838 78.1499 108.413 78.2969 108.012C78.4512 107.609 78.6045 107.272 78.7567 107.001C78.9064 106.724 79.0566 106.529 79.2073 106.417C79.3628 106.295 79.5087 106.297 79.6448 106.422C79.2996 107.475 78.9897 108.395 78.7152 109.182C78.4408 109.969 78.2115 110.673 78.0273 111.295C77.8479 111.907 77.7105 112.462 77.6151 112.961C77.527 113.457 77.4894 113.943 77.5023 114.42L82.9228 114.995C82.9528 115.125 82.9508 115.259 82.9167 115.396C82.89 115.53 82.7931 115.618 82.626 115.661L77.6193 115.199C77.6835 115.309 77.7421 115.45 77.7953 115.622C77.8532 115.784 77.9064 115.956 77.9548 116.137C78.0106 116.317 78.0564 116.491 78.0922 116.661C78.128 116.83 78.1607 116.968 78.1902 117.074C78.2601 117.223 78.2418 117.346 78.1352 117.442C78.0359 117.535 77.909 117.552 77.7544 117.491L74.4109 108.631ZM81.8827 112.679C81.847 112.741 81.7616 112.793 81.6266 112.833C81.4963 112.863 81.3681 112.875 81.2419 112.871C81.1232 112.863 81.0322 112.83 80.9691 112.769C80.9034 112.701 80.9146 112.594 81.0029 112.446C81.0386 112.383 81.0832 112.334 81.1368 112.298C81.1951 112.253 81.2511 112.212 81.3046 112.176C81.363 112.13 81.4039 112.083 81.4276 112.033C81.4585 111.98 81.4632 111.912 81.4416 111.828C81.3306 111.495 81.2353 111.147 81.1558 110.786C81.0836 110.422 81.065 110.08 81.1001 109.76C81.1351 109.441 81.2451 109.157 81.43 108.908C81.6222 108.657 81.9272 108.477 82.3449 108.369C82.492 108.316 82.6707 108.294 82.8809 108.302C83.0885 108.302 83.2979 108.331 83.5092 108.388C83.7179 108.438 83.9137 108.521 84.0966 108.639C84.2769 108.748 84.4147 108.89 84.5099 109.063C84.5877 109.118 84.5911 109.221 84.5203 109.371C84.4494 109.52 84.3397 109.701 84.191 109.912C84.0398 110.115 83.8641 110.331 83.664 110.561C83.4639 110.79 83.2685 111.009 83.0778 111.218C82.8945 111.425 82.7317 111.608 82.5894 111.766C82.447 111.925 82.3567 112.032 82.3183 112.087C82.4651 112.358 82.6208 112.643 82.7854 112.941C82.9501 113.239 83.1276 113.503 83.3179 113.734C83.5083 113.964 83.7049 114.143 83.9078 114.269C84.1155 114.386 84.3296 114.405 84.5503 114.326C84.8819 114.232 85.1406 114.086 85.3265 113.886C85.5198 113.684 85.6595 113.46 85.7456 113.214C85.8317 112.967 85.878 112.714 85.8847 112.455C85.8988 112.192 85.8911 111.95 85.8615 111.729C85.8393 111.504 85.8106 111.319 85.7753 111.174C85.7448 111.019 85.7342 110.932 85.7437 110.912C85.8088 110.839 85.9007 110.806 86.0195 110.813C86.1357 110.813 86.2327 110.899 86.3105 111.07C86.4205 111.354 86.4751 111.704 86.4742 112.119C86.4734 112.534 86.4105 112.939 86.2856 113.332C86.1681 113.722 85.9817 114.071 85.7265 114.378C85.4759 114.675 85.1599 114.859 84.7784 114.929C84.4006 115.056 84.0645 115.055 83.7702 114.928C83.4732 114.794 83.2059 114.603 82.9682 114.357C82.7353 114.1 82.5302 113.816 82.3529 113.506C82.1757 113.196 82.0189 112.92 81.8827 112.679ZM83.9251 109.272C83.5739 109.033 83.2612 108.912 82.9868 108.911C82.7125 108.91 82.4532 108.973 82.2089 109.102C82.0623 109.179 81.9525 109.302 81.8796 109.469C81.804 109.629 81.7636 109.817 81.7584 110.035C81.7507 110.245 81.7742 110.473 81.8289 110.719C81.8811 110.958 81.9616 111.194 82.0705 111.429L83.9251 109.272ZM85.3509 107.344C85.332 107.267 85.3403 107.198 85.376 107.135C85.4118 107.073 85.4614 107.026 85.525 106.995C85.5859 106.957 85.6547 106.94 85.7315 106.946C85.8056 106.944 85.8739 106.961 85.9365 106.997L87.4821 111.423C87.4324 110.843 87.3706 110.276 87.2968 109.722C87.2277 109.157 87.2027 108.635 87.2219 108.155C87.2385 107.668 87.3269 107.242 87.487 106.878C87.6444 106.507 87.9299 106.226 88.3434 106.037C88.5636 105.933 88.7872 105.932 89.0142 106.033C89.2387 106.127 89.4584 106.289 89.6735 106.519C89.8959 106.747 90.1133 107.03 90.3258 107.369C90.5357 107.7 90.7337 108.057 90.9199 108.438C91.1109 108.81 91.2884 109.19 91.4526 109.579C91.6167 109.969 91.763 110.331 91.8914 110.667C92.0198 111.003 92.1264 111.301 92.2111 111.561C92.3032 111.818 92.3666 112.007 92.4014 112.127C92.3946 112.271 92.3316 112.385 92.2123 112.469C92.1031 112.558 91.9706 112.547 91.815 112.437C91.7577 112.299 91.6685 112.062 91.5474 111.723C91.4238 111.378 91.2757 110.987 91.1031 110.551C90.9378 110.112 90.7513 109.66 90.5435 109.195C90.3404 108.72 90.1261 108.295 89.9004 107.919C89.6795 107.533 89.4505 107.23 89.2134 107.007C88.981 106.775 88.7515 106.679 88.5251 106.718C88.3306 106.755 88.1859 106.919 88.0909 107.21C88.0033 107.498 87.9457 107.859 87.9181 108.292C87.8978 108.723 87.9019 109.198 87.9306 109.719C87.9666 110.237 88.011 110.744 88.0638 111.239C88.1239 111.732 88.1856 112.183 88.2489 112.592C88.3121 113.001 88.3696 113.312 88.4212 113.526C88.4202 113.593 88.3931 113.656 88.3401 113.717C88.287 113.777 88.2201 113.822 88.1391 113.851C88.0682 113.885 87.987 113.901 87.8956 113.901C87.8115 113.898 87.7366 113.862 87.6709 113.795L85.3509 107.344ZM92.8479 111.184C93.0271 111.244 93.2173 111.242 93.4186 111.179C93.6272 111.112 93.8313 111.01 94.0309 110.872C94.2353 110.725 94.4304 110.551 94.6164 110.352C94.807 110.143 94.9717 109.93 95.1103 109.715C95.2563 109.496 95.3702 109.281 95.4521 109.07C95.5387 108.848 95.5815 108.654 95.5803 108.489C95.5766 108.316 95.5229 108.177 95.4193 108.073C95.3157 107.969 95.1478 107.917 94.9155 107.917C94.5719 108.14 94.2218 108.344 93.865 108.53C93.5083 108.715 93.1699 108.836 92.8499 108.893C92.5372 108.947 92.2547 108.911 92.0024 108.785C91.7501 108.66 91.5603 108.396 91.4329 107.993C91.3181 107.603 91.2935 107.209 91.359 106.812C91.4292 106.406 91.5657 106.033 91.7684 105.695C91.9784 105.355 92.2376 105.059 92.546 104.807C92.8617 104.553 93.2074 104.371 93.5831 104.262C93.6593 104.243 93.7281 104.227 93.7896 104.213C93.8558 104.189 93.9186 104.179 93.978 104.183C94.0374 104.187 94.086 104.207 94.1238 104.243C94.1691 104.276 94.2038 104.339 94.228 104.43C94.2601 104.543 94.2512 104.645 94.2013 104.738C94.1515 104.83 94.0614 104.892 93.931 104.922C93.4655 104.989 93.0822 105.146 92.7812 105.395C92.4802 105.644 92.2564 105.923 92.11 106.233C91.9609 106.535 91.8885 106.843 91.8928 107.157C91.8972 107.47 91.9733 107.729 92.121 107.934C92.3555 108.149 92.5963 108.253 92.8433 108.248C93.095 108.233 93.3419 108.169 93.5842 108.058C93.8337 107.943 94.0817 107.813 94.3281 107.667C94.5719 107.513 94.8044 107.41 95.0256 107.355C95.2442 107.294 95.4497 107.311 95.6421 107.409C95.8318 107.498 96.0025 107.732 96.154 108.109C96.2335 108.355 96.2368 108.619 96.1639 108.902C96.0883 109.178 95.9647 109.459 95.793 109.744C95.626 110.02 95.4243 110.291 95.188 110.558C94.949 110.818 94.7008 111.052 94.4434 111.26C94.1933 111.466 93.9462 111.633 93.7019 111.762C93.4649 111.888 93.2613 111.957 93.091 111.968C92.8692 111.881 92.7296 111.769 92.6723 111.632C92.6123 111.488 92.6708 111.338 92.8479 111.184ZM101.813 108.724C101.745 108.466 101.65 108.143 101.528 107.755C101.406 107.367 101.264 106.958 101.101 106.526C100.946 106.092 100.78 105.662 100.602 105.236C100.423 104.803 100.244 104.418 100.066 104.084C99.8954 103.747 99.729 103.478 99.5665 103.279C99.4087 103.07 99.2707 102.974 99.1525 102.992C98.8908 103.002 98.6707 103.106 98.4921 103.303C98.3182 103.489 98.1804 103.742 98.0786 104.06C97.9742 104.372 97.9029 104.729 97.8647 105.133C97.8239 105.529 97.802 105.943 97.7991 106.376C97.8009 106.798 97.815 107.22 97.8415 107.642C97.8727 108.054 97.9118 108.43 97.9587 108.77C98.0057 109.11 98.0515 109.401 98.0963 109.642C98.1458 109.873 98.1861 110.021 98.2171 110.084C98.1656 110.103 98.1034 110.138 98.0304 110.189C97.9621 110.23 97.8925 110.267 97.8215 110.301C97.7532 110.342 97.687 110.365 97.6229 110.372C97.5635 110.368 97.5207 110.329 97.4944 110.256L94.0585 101.242C94.0348 101.176 94.0498 101.125 94.1034 101.089C94.1543 101.046 94.2179 101.015 94.2941 100.996C94.3703 100.977 94.4467 100.97 94.5235 100.976C94.6002 100.982 94.6549 100.995 94.6875 101.017L97.237 107.971C97.2365 107.83 97.2193 107.608 97.1855 107.305C97.1591 106.999 97.1392 106.653 97.1258 106.268C97.1125 105.883 97.1223 105.481 97.1552 105.063C97.1855 104.637 97.2633 104.24 97.3887 103.872C97.5189 103.493 97.7119 103.163 97.9677 102.88C98.2308 102.595 98.5786 102.396 99.0111 102.283C99.1698 102.309 99.3217 102.363 99.4668 102.444C99.6166 102.515 99.7688 102.639 99.9234 102.816C100.083 102.983 100.247 103.21 100.416 103.498C100.593 103.783 100.786 104.15 100.996 104.597C101.206 105.045 101.438 105.589 101.692 106.228C101.953 106.865 102.242 107.616 102.56 108.481C102.556 108.541 102.529 108.604 102.479 108.672C102.431 108.747 102.369 108.807 102.294 108.85C102.225 108.891 102.148 108.907 102.061 108.896C101.974 108.886 101.892 108.828 101.813 108.724ZM100.728 101.619C100.764 101.581 100.809 101.545 100.862 101.509C100.916 101.473 100.968 101.446 101.02 101.428C101.079 101.407 101.138 101.398 101.197 101.402C101.257 101.405 101.312 101.431 101.362 101.479C101.533 101.958 101.722 102.475 101.93 103.031C102.142 103.578 102.358 104.135 102.578 104.704C102.802 105.262 103.021 105.815 103.233 106.361C103.445 106.908 103.642 107.414 103.826 107.879C103.872 107.987 103.873 108.082 103.828 108.165C103.783 108.247 103.72 108.303 103.639 108.332C103.565 108.358 103.485 108.354 103.398 108.318C103.313 108.291 103.25 108.218 103.208 108.1L100.728 101.619ZM99.7901 99.4157C99.7558 99.3201 99.7666 99.2457 99.8223 99.1926C99.8753 99.1321 99.9423 99.0874 100.023 99.0585C100.185 99.0006 100.304 99.0203 100.38 99.1174C100.461 99.2046 100.527 99.3181 100.577 99.4579C100.564 99.5619 100.528 99.6455 100.467 99.7086C100.407 99.7717 100.332 99.8067 100.244 99.8136C100.162 99.8178 100.077 99.79 99.9896 99.7301C99.9092 99.6676 99.8427 99.5628 99.7901 99.4157ZM111.862 101.084L106.85 97.8238C106.816 97.7282 106.841 97.6362 106.926 97.5479C107.007 97.4522 107.089 97.3899 107.17 97.361L111.816 100.155C111.824 100.085 111.828 99.9345 111.828 99.7022C111.835 99.4673 111.839 99.188 111.84 98.8643C111.84 98.5406 111.838 98.1885 111.835 97.808C111.829 97.4202 111.817 97.0386 111.799 96.6634C111.788 96.2856 111.771 95.935 111.747 95.6119C111.72 95.2813 111.688 95.0065 111.651 94.7874C111.684 94.7174 111.732 94.6793 111.797 94.673C111.868 94.664 111.937 94.6724 112.005 94.6981C112.079 94.7212 112.147 94.7593 112.207 94.8123C112.265 94.858 112.302 94.9029 112.318 94.9471C112.337 95.8115 112.354 96.5438 112.369 97.144C112.385 97.7441 112.401 98.2528 112.417 98.6701C112.431 99.08 112.442 99.4121 112.45 99.6665C112.465 99.9182 112.479 100.129 112.49 100.299C112.508 100.467 112.523 100.611 112.533 100.732C112.54 100.846 112.546 100.968 112.552 101.099C112.564 101.227 112.574 101.381 112.58 101.561C112.594 101.739 112.604 101.976 112.611 102.272C112.617 102.569 112.623 102.944 112.628 103.399C112.63 103.846 112.635 104.405 112.642 105.074C112.532 105.114 112.418 105.154 112.3 105.196C112.19 105.236 112.115 105.2 112.075 105.09L111.862 101.084ZM116.155 103.693C115.848 103.761 115.563 103.73 115.301 103.6C115.046 103.467 114.812 103.277 114.599 103.03C114.386 102.782 114.201 102.496 114.043 102.171C113.89 101.836 113.761 101.5 113.658 101.164C113.498 100.648 113.416 100.13 113.413 99.6085C113.416 99.0845 113.479 98.6099 113.6 98.1847C113.727 97.7495 113.904 97.3873 114.133 97.0982C114.366 96.799 114.634 96.6202 114.936 96.5618C115.254 96.498 115.548 96.5546 115.819 96.7316C116.097 96.9059 116.35 97.1512 116.58 97.4675C116.809 97.7837 117.01 98.1476 117.182 98.559C117.351 98.963 117.489 99.3616 117.597 99.7546C117.715 100.202 117.764 100.641 117.744 101.071C117.724 101.501 117.645 101.895 117.507 102.251C117.376 102.605 117.191 102.912 116.952 103.171C116.718 103.421 116.452 103.595 116.155 103.693ZM115.051 97.2302C114.798 97.2876 114.597 97.4464 114.45 97.7066C114.307 97.9568 114.205 98.263 114.144 98.6251C114.087 98.9772 114.072 99.3643 114.098 99.7863C114.122 100.201 114.182 100.599 114.276 100.98C114.342 101.255 114.428 101.531 114.535 101.808C114.643 102.085 114.767 102.327 114.907 102.534C115.055 102.738 115.221 102.89 115.406 102.99C115.596 103.08 115.805 103.084 116.033 103.002C116.219 102.944 116.388 102.813 116.54 102.61C116.698 102.403 116.826 102.158 116.924 101.875C117.019 101.583 117.081 101.271 117.111 100.936C117.148 100.6 117.135 100.272 117.071 99.9551C117.01 99.6203 116.905 99.2927 116.757 98.9722C116.614 98.6418 116.447 98.3489 116.256 98.0935C116.072 97.8356 115.874 97.6286 115.66 97.4727C115.452 97.3067 115.249 97.2259 115.051 97.2302ZM116.754 96.1108C116.735 96.0346 116.743 95.9652 116.779 95.9026C116.815 95.8401 116.864 95.7933 116.928 95.7622C116.989 95.7238 117.058 95.7075 117.135 95.7133C117.209 95.7117 117.277 95.7287 117.34 95.7644L118.885 100.19C118.835 99.6103 118.774 99.0432 118.7 98.4889C118.631 97.9245 118.606 97.4024 118.625 96.9226C118.642 96.4354 118.73 96.0097 118.89 95.6454C119.047 95.2738 119.333 94.9933 119.746 94.8039C119.967 94.7002 120.19 94.6991 120.417 94.8004C120.642 94.8944 120.861 95.0564 121.077 95.2864C121.299 95.5139 121.516 95.797 121.729 96.1359C121.939 96.4674 122.137 96.8239 122.323 97.2053C122.514 97.5768 122.691 97.9572 122.856 98.3465C123.02 98.7358 123.166 99.0984 123.294 99.4341C123.423 99.7699 123.529 100.068 123.614 100.328C123.706 100.585 123.77 100.774 123.804 100.895C123.798 101.038 123.735 101.152 123.615 101.236C123.506 101.325 123.374 101.314 123.218 101.204C123.161 101.067 123.072 100.829 122.95 100.491C122.827 100.145 122.679 99.7539 122.506 99.3178C122.341 98.8791 122.154 98.4272 121.947 97.9623C121.743 97.4873 121.529 97.062 121.303 96.6863C121.083 96.3007 120.854 95.9968 120.616 95.7746C120.384 95.5425 120.155 95.4461 119.928 95.4857C119.734 95.522 119.589 95.6858 119.494 95.977C119.406 96.2655 119.349 96.6263 119.321 97.0594C119.301 97.4898 119.305 97.9654 119.334 98.4862C119.37 99.0043 119.414 99.5112 119.467 100.007C119.527 100.5 119.589 100.951 119.652 101.359C119.715 101.768 119.773 102.08 119.824 102.293C119.823 102.36 119.796 102.424 119.743 102.484C119.69 102.545 119.623 102.589 119.542 102.618C119.471 102.652 119.39 102.669 119.299 102.668C119.215 102.665 119.14 102.63 119.074 102.562L116.754 96.1108ZM123.636 97.7439C123.6 97.8064 123.515 97.8577 123.38 97.8977C123.249 97.9277 123.121 97.9404 122.995 97.9357C122.876 97.9284 122.785 97.8946 122.722 97.8342C122.656 97.7664 122.668 97.6587 122.756 97.511C122.792 97.4484 122.836 97.3992 122.89 97.3635C122.948 97.3177 123.004 97.277 123.058 97.2412C123.116 97.1955 123.157 97.1476 123.181 97.0977C123.212 97.0451 123.216 96.9771 123.195 96.8935C123.084 96.5599 122.988 96.2123 122.909 95.8507C122.837 95.4866 122.818 95.1447 122.853 94.8252C122.888 94.5057 122.998 94.2216 123.183 93.9729C123.375 93.7216 123.68 93.542 124.098 93.4341C124.245 93.3814 124.424 93.359 124.634 93.3668C124.842 93.3672 125.051 93.396 125.262 93.4532C125.471 93.503 125.667 93.5865 125.85 93.7036C126.03 93.8133 126.168 93.9549 126.263 94.1283C126.341 94.1834 126.344 94.2859 126.273 94.4357C126.202 94.5855 126.093 94.7658 125.944 94.9766C125.793 95.1801 125.617 95.3964 125.417 95.6256C125.217 95.8549 125.022 96.0741 124.831 96.2834C124.648 96.49 124.485 96.6727 124.342 96.8315C124.2 96.9902 124.11 97.0972 124.071 97.1524C124.218 97.4235 124.374 97.708 124.538 98.0059C124.703 98.3038 124.881 98.5681 125.071 98.7987C125.261 99.0293 125.458 99.2079 125.661 99.3344C125.868 99.451 126.083 99.4698 126.303 99.3909C126.635 99.2972 126.894 99.1507 127.08 98.9514C127.273 98.7495 127.413 98.5253 127.499 98.2788C127.585 98.0323 127.631 97.7792 127.638 97.5196C127.652 97.2574 127.644 97.0154 127.615 96.7936C127.592 96.5692 127.564 96.3845 127.528 96.2395C127.498 96.0845 127.487 95.997 127.497 95.977C127.562 95.9039 127.654 95.871 127.773 95.8783C127.889 95.8783 127.986 95.9639 128.064 96.1352C128.174 96.4194 128.228 96.7691 128.227 97.1843C128.226 97.5994 128.164 98.0036 128.039 98.3968C127.921 98.7873 127.735 99.1361 127.479 99.4431C127.229 99.7401 126.913 99.9237 126.531 99.9938C126.154 100.121 125.818 100.121 125.523 99.9935C125.226 99.8591 124.959 99.6685 124.721 99.4216C124.488 99.1647 124.283 98.8813 124.106 98.5713C123.929 98.2614 123.772 97.9855 123.636 97.7439ZM125.678 94.3374C125.327 94.098 125.014 93.9775 124.74 93.9761C124.466 93.9746 124.206 94.0384 123.962 94.1672C123.815 94.2446 123.706 94.3668 123.633 94.5339C123.557 94.6937 123.517 94.8824 123.511 95.1C123.504 95.3102 123.527 95.5383 123.582 95.7842C123.634 96.0228 123.715 96.2595 123.824 96.4943L125.678 94.3374ZM129.43 98.8076C129.392 98.7466 129.383 98.6171 129.403 98.419C129.431 98.2182 129.475 97.9701 129.535 97.6747C129.603 97.3767 129.683 97.0451 129.777 96.6798C129.878 96.3119 129.983 95.934 130.093 95.5461C130.201 95.1508 130.306 94.7606 130.409 94.3753C130.519 93.9874 130.617 93.6245 130.704 93.2866C130.79 92.9486 130.862 92.6493 130.918 92.3886C130.971 92.1205 130.998 91.9161 130.997 91.7753L127.833 92.882C127.809 92.9072 127.75 92.9159 127.656 92.9081C127.567 92.8903 127.481 92.8588 127.398 92.8136C127.313 92.7611 127.249 92.697 127.205 92.6214C127.161 92.5457 127.177 92.4614 127.251 92.3683C127.526 92.2783 127.845 92.1725 128.208 92.051C128.579 91.9268 128.954 91.7926 129.334 91.6484C129.721 91.5016 130.098 91.35 130.465 91.1938C130.83 91.0301 131.147 90.8713 131.415 90.7172C131.55 90.6772 131.655 90.6811 131.73 90.7288C131.81 90.7666 131.862 90.8644 131.885 91.022L130.216 97.8045L133.668 96.495C133.757 96.4634 133.827 96.4631 133.88 96.4941C133.93 96.5177 133.964 96.5677 133.983 96.6438C133.999 96.7127 133.998 96.8004 133.978 96.9071C133.958 97.0138 133.927 97.1245 133.885 97.239L129.43 98.8076ZM135.503 89.4791C135.494 89.4324 135.499 89.3767 135.517 89.312C135.541 89.2374 135.578 89.1785 135.628 89.1354C135.687 89.0896 135.761 89.0757 135.85 89.0935C135.944 89.1013 136.057 89.1607 136.187 89.2715C136.361 89.8484 136.526 90.428 136.685 91.0102C136.848 91.5824 137.028 92.1444 137.226 92.6961C137.428 93.2378 137.658 93.7653 137.916 94.2786C138.182 94.7893 138.497 95.2655 138.863 95.7073C138.889 95.7562 138.886 95.8069 138.855 95.8595C138.827 95.9194 138.778 95.9699 138.71 96.0109C138.644 96.0593 138.574 96.0929 138.497 96.1119C138.421 96.1309 138.35 96.1188 138.285 96.0757L137.24 94.3712C137.245 94.4773 137.21 94.6474 137.136 94.8813C137.07 95.1125 136.978 95.3567 136.863 95.6137C136.752 95.8608 136.628 96.0921 136.489 96.3076C136.348 96.5158 136.208 96.6485 136.071 96.7059C135.733 96.8516 135.418 96.8276 135.125 96.6338C134.831 96.44 134.56 96.1469 134.312 95.7545C134.069 95.3521 133.845 94.8887 133.641 94.3643C133.436 93.8399 133.252 93.325 133.088 92.8195C132.924 92.314 132.78 91.8551 132.658 91.4426C132.535 91.0301 132.429 90.7322 132.338 90.5488C132.339 90.4821 132.36 90.4248 132.401 90.3769C132.449 90.3265 132.507 90.2894 132.573 90.2657C132.639 90.242 132.707 90.2344 132.776 90.2427C132.853 90.2485 132.917 90.2755 132.967 90.3238C133.071 90.5687 133.187 90.88 133.314 91.2578C133.44 91.6356 133.576 92.0391 133.722 92.4684C133.864 92.8903 134.016 93.3133 134.176 93.7373C134.343 94.1587 134.512 94.5381 134.682 94.8754C134.85 95.2053 135.02 95.4722 135.193 95.676C135.37 95.8699 135.548 95.9512 135.728 95.9201C135.853 95.8754 135.964 95.7902 136.06 95.6646C136.156 95.5389 136.244 95.3912 136.324 95.2214C136.402 95.0443 136.468 94.8587 136.524 94.6648C136.576 94.4635 136.616 94.2748 136.645 94.0987C136.67 93.9153 136.687 93.7519 136.693 93.6084C136.7 93.4649 136.695 93.3588 136.679 93.2899C136.655 93.199 136.616 93.0553 136.562 92.8588C136.506 92.6549 136.438 92.4303 136.358 92.1849C136.284 91.9295 136.2 91.6608 136.107 91.3786C136.022 91.0938 135.94 90.8287 135.86 90.5833C135.785 90.328 135.714 90.1047 135.645 89.9134C135.582 89.7122 135.534 89.5674 135.503 89.4791ZM139.329 90.0519C139.157 89.6158 138.953 89.1866 138.719 88.7641C138.485 88.3417 138.212 87.9498 137.9 87.5884C137.593 87.217 137.244 86.8898 136.852 86.6067C136.465 86.3137 136.034 86.0821 135.558 85.9121C135.523 85.8832 135.497 85.8343 135.481 85.7655C135.465 85.6967 135.461 85.6276 135.469 85.5582C135.485 85.4862 135.509 85.4276 135.543 85.3824C135.577 85.3372 135.629 85.3224 135.702 85.3382C136.227 85.5318 136.71 85.7907 137.149 86.1147C137.589 86.4387 137.987 86.8106 138.345 87.2303C138.707 87.6401 139.026 88.0903 139.301 88.581C139.573 89.0643 139.803 89.5671 139.99 90.0894C140.079 90.3395 140.152 90.6369 140.209 90.9817C140.264 91.319 140.301 91.679 140.322 92.0616C140.35 92.4415 140.36 92.828 140.351 93.2211C140.342 93.6142 140.319 93.9916 140.283 94.3531C140.253 94.7121 140.209 95.0392 140.148 95.3346C140.088 95.63 140.017 95.8712 139.934 96.0584C139.899 96.1209 139.846 96.1604 139.778 96.1767C139.716 96.1904 139.652 96.1844 139.584 96.1587C139.527 96.1377 139.477 96.1017 139.434 96.0507C139.401 96.0045 139.393 95.9491 139.412 95.8844C139.455 95.8192 139.496 95.6676 139.535 95.4295C139.577 95.1988 139.613 94.9163 139.643 94.5821C139.673 94.2478 139.694 93.8791 139.708 93.4761C139.721 93.073 139.717 92.6678 139.696 92.2605C139.68 91.8433 139.641 91.4462 139.581 91.0695C139.526 90.6827 139.442 90.3435 139.329 90.0519Z" fill="white"/>
<path d="M74.1636 44.5233C73.1727 44.5233 72.6367 44.6317 71.4864 44.8812C61.6892 47.0059 51.8181 49.7258 42.6337 53.7875C33.5363 57.8106 24.5417 64.1087 17.4655 71.1362C15.0942 73.4911 11.415 77.0819 11.5147 80.7714C11.6138 84.4384 15.9267 85.6465 18.8703 86.1126C22.3556 86.6643 25.8972 86.6313 29.3936 86.2053C38.8008 85.0593 48.084 82.54 57.2125 80.069C65.7641 77.7541 74.6051 75.5249 82.8844 72.329C89.1325 69.9171 95.8359 66.1046 98.868 59.7913C100.858 55.6472 102.251 49.1593 97.4631 46.4848C93.0205 44.0031 87.3654 43.5642 82.3807 43.145C78.7119 42.8364 75.6178 43.4024 72.2551 44.5233" stroke="#8484FF" stroke-width="2" stroke-linecap="round"/>
<path d="M54.5838 59.848C49.9899 61.9601 45.4566 64.118 41.6576 67.5201C40.71 68.3686 39.1643 69.7297 39.0107 71.1124C38.894 72.1622 43.1411 71.9459 43.6876 71.9084C47.9806 71.6138 52.3318 70.0982 56.2655 68.4256C59.1378 67.2043 62.2912 65.6096 64.7137 63.6094C65.7004 62.7947 66.8984 61.603 66.7238 60.2062C66.1539 55.647 58.6958 58.9524 56.0167 58.9524" stroke="#8484FF" stroke-width="2" stroke-linecap="round"/>
<path d="M8.35138 27.7063C13.1029 22.7388 17.5314 17.4102 23.2879 13.5227C25.5615 11.9873 27.7083 11.5664 29.9326 13.3816C35.4141 17.855 39.1667 23.8674 44.2479 28.6945C45.1076 29.5113 47.5542 30.5024 45.942 31.6404C43.265 33.5301 39.6476 34.3603 36.5867 35.3675C29.704 37.6321 22.8448 39.9747 15.9373 42.1628C11.0812 43.701 6.28813 45.4243 1.44313 46.9816C0.690488 47.2235 1.11949 44.9656 1.14195 44.7228C1.64371 39.2991 3.56739 34.11 5.7349 29.1557C6.8287 26.6556 7.89239 24.0152 9.3302 21.6827C9.5151 21.3828 9.73843 20.9139 10.0455 20.7604" stroke="#8484FF" stroke-width="2" stroke-linecap="round"/>
<path d="M2.5914 51.7628C2.5914 58.1039 2.266 64.5111 3.26905 70.7934C3.41885 71.7316 3.71506 72.6454 4.11611 73.4475" stroke="#8484FF" stroke-width="2" stroke-linecap="round"/>
<path d="M3.94666 72.9393C7.19225 69.6937 11.4277 67.1039 15.3914 64.8452C18.7112 62.9533 22.3382 61.7739 25.622 59.8193C26.9919 59.0038 28.4651 58.3974 29.829 57.5604C30.293 57.2758 30.5756 56.8451 31.1373 56.8451C33.9819 56.8451 36.9732 55.3935 39.3538 53.9651" stroke="#8484FF" stroke-width="2" stroke-linecap="round"/>
<path d="M1.74426 74.6334C1.89305 75.2285 2.26274 75.7915 2.5725 76.3087C3.71461 78.2157 4.93929 80.0738 6.0925 81.9746C8.75413 86.3615 11.4392 90.7302 14.1678 95.0758C15.123 96.597 16.247 97.9289 17.3302 99.2829C17.8341 99.9128 18.0095 99.8589 18.8643 100.403C19.2559 100.652 21.2966 102.743 21.8102 102.511C26.3947 100.444 30.9906 98.3937 35.589 96.3558C43.7955 92.7188 52.2787 89.9366 60.8314 87.2452C64.6042 86.0579 68.7636 85.1423 72.3702 83.4805C72.7932 83.2856 73.0522 83.0722 73.1985 82.6334C73.3857 82.0717 74.2609 82.1165 74.742 82.0122C87.2069 79.3115 99.5771 75.6261 111.448 70.944C114.215 69.8525 117.972 68.556 119.9 66.0781C120.435 65.3893 118.918 63.6019 118.648 63.1416C115.598 57.9525 112.754 52.6262 109.914 47.3204C108.545 44.7643 107.184 42.1581 105.961 39.5275C105.507 38.5507 105.153 38.7971 104.201 38.3792C101.981 37.4046 99.7052 36.1089 98.0079 34.351C97.6711 34.0021 96.7965 33.4512 96.615 33.0428C96.5264 32.8434 96.4339 32.6738 96.2668 32.5345C96.0589 32.3613 95.5919 32.6002 95.4103 32.6663C93.8783 33.2234 92.3695 33.8477 90.8456 34.4263C86.4227 36.1056 81.9216 37.5619 77.5467 39.3675C75.7262 40.1188 73.8087 40.7411 72.0502 41.6357C70.6343 42.3561 69.3598 43.2257 67.9091 43.8851C67.4298 44.103 66.8316 44.445 66.4596 44.8169" stroke="#8484FF" stroke-width="2" stroke-linecap="round"/>
<path d="M3.25818 61.0774C6.89541 60.4236 10.494 59.3525 14.0379 58.323C19.4058 56.7637 24.6001 54.7255 29.6006 52.2253C31.3758 51.3376 33.0344 50.2448 34.8 49.3459C35.1078 49.1892 35.4555 48.9771 35.8114 48.9771" stroke="#8484FF" stroke-width="2" stroke-linecap="round"/>
<path d="M27.8872 54.01C27.8872 57.8492 27.5689 61.8306 28.4821 65.5928C28.7281 66.6062 29.2248 67.548 29.4696 68.5495C29.5299 68.7961 29.7076 68.9637 29.7076 69.2158" stroke="#8484FF" stroke-width="2" stroke-linecap="round"/>
<path d="M27.3518 71.1432C26.9301 71.0964 27.9599 70.5299 28.3394 70.3401C29.2116 69.904 30.1555 69.5089 31.1414 69.4359C32.1832 69.3587 31.5713 70.1378 31.3734 70.8755C31.2392 71.3756 31.3243 72.3758 30.6595 72.1427C29.7805 71.8344 28.9463 70.6579 27.9943 70.6078C27.3018 70.5714 28.1567 70.6954 28.4762 70.709C28.9441 70.7289 29.6129 70.5884 30.0765 70.7209C30.2996 70.7846 29.84 70.9457 29.8147 70.9529C29.6016 71.0138 29.0631 71.0936 29.2198 71.2503C29.4698 71.5003 30.4787 71.1361 30.7785 71.0362" stroke="#8484FF" stroke-width="2" stroke-linecap="round"/>
<path d="M40.8847 12.5575C40.5714 12.5184 41.6828 11.5919 41.7217 11.5569C43.2476 10.1836 44.7927 8.83916 46.2906 7.43482C46.9744 6.79378 47.731 6.21274 48.3989 5.55943C48.535 5.42629 48.7359 5.23781 48.8142 5.08114" stroke="#8484FF" stroke-width="2" stroke-linecap="round"/>
<path d="M47.115 18.5613C47.3464 18.5381 47.5686 18.4039 47.7821 18.3221C48.8294 17.921 49.9222 17.7077 51.0294 17.5481C52.4383 17.345 53.8645 17.2896 55.271 17.0887" stroke="#8484FF" stroke-width="2" stroke-linecap="round"/>
<path d="M50.9665 25.1314C47.7147 25.1314 57.4378 24.3385 60.6896 24.3385C61.858 24.3385 63.0265 24.3385 64.1949 24.3385C64.3915 24.3385 64.5857 24.4003 64.6732 24.2252" stroke="#8484FF" stroke-width="2" stroke-linecap="round"/>
<path d="M72.2629 9.499C72.1628 9.99944 71.3841 9.94581 71.0168 9.97729C69.9407 10.0695 69.1768 10.0253 68.3736 9.2221C68.3289 9.17741 67.6655 8.3671 67.5744 8.5676C67.2609 9.25721 68.1815 11.0023 68.4114 11.6261C68.8601 12.8441 69.5537 13.989 70.1987 15.1126C70.3804 15.4292 71.0042 16.1811 71.0042 16.5726C71.0042 16.7225 69.6134 16.1353 69.519 16.0943C68.7471 15.7591 67.8544 15.4585 67.008 15.3958C66.1074 15.3291 65.7634 16.3218 65.806 17.0887C65.8643 18.1385 68.5693 18.0387 69.2484 17.8124C69.5542 17.7105 69.8993 17.4441 70.1672 17.2586C70.3515 17.131 70.7677 17.1251 70.4252 17.0635C69.4642 16.8905 68.4736 16.8718 67.5177 16.6859C67.2949 16.6426 66.6961 16.6033 66.5989 16.409" stroke="#8484FF" stroke-width="2" stroke-linecap="round"/>
<path d="M85.1759 2.34949C83.1551 2.44134 81.5623 2.86346 79.9116 1.42807C79.8192 1.34775 79.276 0.658571 79.4026 1.21544C79.5988 2.07895 80.4522 2.92567 80.8781 3.68973C81.445 4.70677 82.026 5.74569 82.5019 6.80836C82.5532 6.92298 83.4096 8.47154 83.2944 8.58676C83.1827 8.69843 81.9842 8.24954 81.8124 8.20659C81.2748 8.07218 80.7436 8.00487 80.1887 8.03262C79.7773 8.05319 79.6982 9.56304 79.9116 9.8239C80.4321 10.4601 82.2805 10.1605 82.9658 9.94633C83.0663 9.91493 83.4181 9.88834 83.1398 9.88834C82.6477 9.88834 82.0799 9.77862 81.6062 9.65637C80.1276 9.2748 81.8816 9.51807 82.0444 9.19244" stroke="#8484FF" stroke-width="2" stroke-linecap="round"/>
</svg>
