<svg width="83" height="84" viewBox="0 0 83 84" fill="none" xmlns="http://www.w3.org/2000/svg">
<circle cx="41.4999" cy="41.5281" r="41.4999" fill="#1C1C1C"/>
<circle cx="41.4999" cy="41.5281" r="38.0416" stroke="white" stroke-width="0.628787"/>
<path d="M65.6066 30.3125L74.7545 31.76L74.9359 32.6048L65.8057 31.2394L65.6066 30.3125ZM67.0478 37.0235L74.8124 32.0299L75.0064 32.9333L67.2594 38.009L67.0478 37.0235ZM69.3685 31.1984L70.3158 35.6098L69.4711 35.7912L68.5237 31.3798L69.3685 31.1984Z" fill="white"/>
<path d="M65.4334 52.9191L71.7321 58.8332L71.0339 59.5768L62.3401 58.2121L62.4212 58.0907L67.74 63.0848L67.0993 63.7671L60.8007 57.853L61.4989 57.1095L70.1926 58.4742L70.1116 58.5956L64.7927 53.6015L65.4334 52.9191Z" fill="white"/>
<path d="M67.593 42.5006L76.0847 44.0943L75.8965 45.0968L67.8351 48.6264L67.8381 48.4804L75.0089 49.8263L74.8363 50.7462L66.3445 49.1525L66.5327 48.15L74.5941 44.6204L74.5911 44.7664L67.4203 43.4205L67.593 42.5006Z" fill="white"/>
<path d="M54.462 63.3657C54.9948 63.0898 55.5347 62.9319 56.0815 62.892C56.625 62.8629 57.1521 62.9413 57.6628 63.1273C58.1772 63.3205 58.6518 63.6108 59.0866 63.9982C59.5143 64.3894 59.8772 64.8726 60.1751 65.4481C60.5687 66.2083 60.7618 66.9641 60.7545 67.7156C60.7472 68.4671 60.5565 69.1514 60.1823 69.7685C59.801 70.3893 59.2587 70.8818 58.5554 71.2459C57.8379 71.6174 57.1192 71.7778 56.3993 71.7271C55.6723 71.6801 54.9998 71.4427 54.3819 71.0149C53.7641 70.5871 53.2565 69.9895 52.8593 69.2223C52.5613 68.6468 52.3797 68.0698 52.3142 67.491C52.2417 66.916 52.2769 66.3663 52.4198 65.8418C52.5627 65.3174 52.8064 64.8399 53.151 64.4093C53.4993 63.9857 53.9363 63.6378 54.462 63.3657ZM54.8809 64.1487C54.3339 64.4319 53.9242 64.8152 53.652 65.2985C53.3763 65.7926 53.2462 66.3419 53.2619 66.9463C53.2776 67.5508 53.4454 68.1621 53.7654 68.7801C54.0818 69.3911 54.4785 69.8704 54.9557 70.2179C55.4258 70.569 55.9385 70.7676 56.4937 70.8134C57.0419 70.8629 57.593 70.7442 58.1471 70.4573C58.7013 70.1704 59.1163 69.7889 59.3923 69.3127C59.6682 68.8365 59.7985 68.3051 59.7831 67.7185C59.7713 67.1391 59.6055 66.5403 59.2855 65.9222C58.9618 65.297 58.5612 64.8017 58.0838 64.4364C57.6029 64.0817 57.0847 63.8726 56.5292 63.8088C55.9774 63.7522 55.428 63.8655 54.8809 64.1487Z" fill="white"/>
<path d="M45.561 66.7544L46.4892 74.4748L49.432 74.121L49.5351 74.9789L42.6726 75.8039L42.5694 74.9461L45.5122 74.5923L44.5841 66.8719L45.561 66.7544Z" fill="white"/>
<path d="M39.0275 66.8961L33.4908 74.3206L32.6586 74.0883L38.1144 66.6412L39.0275 66.8961ZM32.4164 65.0501L33.2249 74.2464L32.335 73.9979L31.4455 64.779L32.4164 65.0501ZM36.4934 69.8141L32.1476 68.6007L32.38 67.7685L36.7257 68.982L36.4934 69.8141Z" fill="white"/>
<path d="M26.5842 61.6036L21.3714 67.3735L23.5707 69.3605L22.9915 70.0016L17.8627 65.3679L18.4419 64.7268L20.6412 66.7138L25.8541 60.9439L26.5842 61.6036Z" fill="white"/>
<path d="M20.8982 55.5271L13.747 60.3759L13.1948 59.5615L20.3459 54.7127L20.8982 55.5271Z" fill="white"/>
<path d="M17.7363 47.276C17.8426 47.8665 17.8341 48.4289 17.7108 48.9632C17.5782 49.4911 17.3477 49.9715 17.0192 50.4045C16.6829 50.839 16.2654 51.2068 15.7669 51.5079C15.2669 51.8011 14.6981 52.0051 14.0603 52.1199C13.2179 52.2716 12.4387 52.233 11.7228 52.0042C11.007 51.7754 10.4095 51.3912 9.93026 50.8516C9.44965 50.3041 9.13919 49.6406 8.99886 48.8611C8.85571 48.0659 8.91458 47.3319 9.1755 46.659C9.43499 45.9783 9.8603 45.4058 10.4514 44.9418C11.0426 44.4777 11.7633 44.1691 12.6136 44.016C13.2514 43.9012 13.8564 43.898 14.4286 44.0063C14.9994 44.1068 15.5143 44.3026 15.9732 44.5939C16.432 44.8853 16.8164 45.2591 17.1261 45.7154C17.428 46.1732 17.6314 46.6934 17.7363 47.276ZM16.8644 47.4451C16.7553 46.8389 16.51 46.3344 16.1286 45.9316C15.7379 45.5223 15.2515 45.236 14.6693 45.0725C14.0872 44.9091 13.4536 44.889 12.7686 45.0123C12.0915 45.1342 11.5165 45.3719 11.0436 45.7252C10.5693 46.0707 10.2283 46.502 10.0206 47.019C9.81153 47.5281 9.76226 48.0897 9.87282 48.7038C9.98337 49.3179 10.2254 49.8271 10.5989 50.2313C10.9725 50.6355 11.4417 50.9168 12.0067 51.0752C12.5639 51.2351 13.1849 51.2533 13.8699 51.13C14.5628 51.0053 15.1542 50.7687 15.6443 50.4204C16.125 50.0656 16.4778 49.6322 16.7027 49.1203C16.9196 48.6098 16.9736 48.0514 16.8644 47.4451Z" fill="white"/>
<path d="M16.2244 39.0744L7.76983 37.2941L7.98 36.296L16.1171 32.9447L16.111 33.0906L8.97152 31.5872L9.16438 30.6713L17.619 32.4516L17.4088 33.4497L9.27167 36.801L9.27785 36.6551L16.4173 38.1585L16.2244 39.0744Z" fill="white"/>
<path d="M30.2575 18.8948C29.3296 19.2884 28.4925 19.374 27.7465 19.1517C27.0078 18.9262 26.411 18.4103 25.956 17.604L26.8398 17.2291C27.1801 17.806 27.6073 18.1679 28.1215 18.3148C28.6357 18.4617 29.2315 18.3915 29.9091 18.1041C30.4836 17.8604 30.8691 17.5709 31.0658 17.2355C31.2667 16.8896 31.2781 16.5067 31.1 16.0869C30.9469 15.726 30.7257 15.481 30.4362 15.3517C30.1468 15.2225 29.7625 15.1769 29.2834 15.2151L27.7498 15.318C26.9723 15.3698 26.3512 15.2986 25.8866 15.1046C25.4188 14.9033 25.0756 14.5449 24.857 14.0293C24.6758 13.6022 24.6264 13.1886 24.7088 12.7887C24.788 12.3814 24.9853 12.0066 25.3007 11.6643C25.6161 11.322 26.0315 11.0415 26.5471 10.8228C27.3425 10.4855 28.0686 10.4251 28.7254 10.6419C29.379 10.8513 29.9051 11.3233 30.3036 12.0581L29.4198 12.4329C29.0898 11.9211 28.7191 11.6004 28.3078 11.4707C27.9039 11.3379 27.4221 11.3902 26.8623 11.6276C26.3321 11.8525 25.9649 12.1342 25.7609 12.4728C25.5569 12.8113 25.5377 13.1758 25.7033 13.5661C25.8438 13.8975 26.0594 14.1189 26.35 14.2303C26.6405 14.3417 27.0343 14.3789 27.5313 14.3419L29.1673 14.2345C29.8765 14.1857 30.4639 14.2798 30.9294 14.5169C31.3918 14.7466 31.7417 15.1413 31.9791 15.701C32.2603 16.3639 32.2506 16.9762 31.9502 17.5382C31.654 18.0896 31.0898 18.5418 30.2575 18.8948Z" fill="white"/>
<path d="M37.7544 16.6909L37.6472 8.05154L38.6311 8.03933L38.7383 16.6787L37.7544 16.6909ZM38.2584 16.6846L38.2477 15.8207L43.5272 15.7552L43.538 16.6191L38.2584 16.6846ZM38.2079 12.6169L38.1972 11.753L43.0448 11.6929L43.0555 12.5568L38.2079 12.6169ZM38.1619 8.90922L38.1512 8.04529L43.3348 7.98097L43.3455 8.84491L38.1619 8.90922Z" fill="white"/>
<path d="M49.222 16.8252L52.6108 8.87754L53.5159 9.26349L50.1271 17.2112L49.222 16.8252ZM49.6856 17.0229L50.0245 16.2281L54.8814 18.2991L54.5425 19.0938L49.6856 17.0229ZM51.2812 13.2809L51.62 12.4861L56.0796 14.3876L55.7407 15.1824L51.2812 13.2809ZM52.7355 9.86999L53.0744 9.07522L57.843 11.1085L57.5041 11.9033L52.7355 9.86999Z" fill="white"/>
<path d="M29.467 54.4056V48.171L48.7944 28.8802C49.0878 28.5868 49.4179 28.3667 49.7846 28.22C50.1514 28.0733 50.5181 28 50.8849 28C51.2761 28 51.6492 28.0733 52.0042 28.22C52.3592 28.3667 52.6707 28.5868 52.9386 28.8802L54.9924 30.934C55.2858 31.2029 55.5059 31.5149 55.6526 31.8699C55.7993 32.2249 55.8726 32.5975 55.8726 32.9877C55.8726 33.3545 55.7993 33.7212 55.6526 34.088C55.5059 34.4547 55.2858 34.7848 54.9924 35.0782L35.7016 54.4056H29.467ZM32.4009 51.4717H34.4547L48.8678 37.0953L47.8409 36.0317L46.7773 35.0048L32.4009 49.4179V51.4717ZM47.8409 36.0317L46.7773 35.0048L48.8678 37.0953L47.8409 36.0317ZM44.1368 54.4056C45.946 54.4056 47.6208 53.9533 49.1612 53.0487C50.7015 52.144 51.4717 50.8849 51.4717 49.2712C51.4717 48.391 51.2394 47.6331 50.7748 46.9974C50.3103 46.3617 49.6868 45.8116 48.9044 45.347L46.7407 47.5108C47.303 47.7553 47.7431 48.0243 48.0609 48.3177C48.3788 48.6111 48.5377 48.9289 48.5377 49.2712C48.5377 49.8335 48.0913 50.3411 47.1984 50.7939C46.3055 51.2467 45.2849 51.4726 44.1368 51.4717C43.7211 51.4717 43.373 51.6125 43.0923 51.8941C42.8116 52.1758 42.6708 52.524 42.6698 52.9386C42.6688 53.3533 42.8096 53.702 43.0923 53.9846C43.3749 54.2672 43.7231 54.4076 44.1368 54.4056ZM30.3105 43.1832L32.511 40.9828C32.022 40.7872 31.6366 40.5857 31.355 40.3784C31.0733 40.171 30.933 39.9569 30.934 39.7358C30.934 39.4424 31.154 39.149 31.5941 38.8556C32.0342 38.5622 32.9633 38.1099 34.3814 37.4987C36.5329 36.5696 37.9632 35.7261 38.6723 34.9681C39.3813 34.2102 39.7358 33.3545 39.7358 32.4009C39.7358 31.0562 39.1979 29.9868 38.1222 29.1927C37.0464 28.3985 35.6283 28.001 33.8679 28C32.7677 28 31.7833 28.1956 30.9149 28.5868C30.0464 28.978 29.3804 29.4548 28.9169 30.0171C28.6479 30.3349 28.5379 30.6895 28.5868 31.0807C28.6357 31.4718 28.8191 31.7897 29.1369 32.0342C29.4548 32.3031 29.8093 32.4132 30.2005 32.3643C30.5917 32.3154 30.9217 32.1564 31.1907 31.8875C31.533 31.5452 31.9119 31.3007 32.3276 31.154C32.7432 31.0073 33.2567 30.934 33.8679 30.934C34.8704 30.934 35.6102 31.0807 36.0875 31.3741C36.5647 31.6674 36.8029 32.0097 36.8019 32.4009C36.8019 32.7432 36.5882 33.0547 36.1608 33.3354C35.7334 33.6161 34.7491 34.1114 33.2078 34.8215C31.2518 35.6772 29.8948 36.4537 29.1369 37.151C28.379 37.8483 28 38.7099 28 39.7358C28 40.5182 28.2078 41.1847 28.6235 41.7353C29.0391 42.2859 29.6015 42.7686 30.3105 43.1832Z" fill="#8484FF"/>
<path d="M48.8678 37.0953L34.4547 51.4717H32.4009V49.4179L46.7773 35.0048M48.8678 37.0953L47.8409 36.0317L46.7773 35.0048M48.8678 37.0953L46.7773 35.0048M52.9386 33.0244L50.8482 30.934M29.467 54.4056V48.171L48.7944 28.8802C49.0878 28.5868 49.4179 28.3667 49.7846 28.22C50.1514 28.0733 50.5181 28 50.8849 28C51.2761 28 51.6492 28.0733 52.0042 28.22C52.3592 28.3667 52.6707 28.5868 52.9386 28.8802L54.9924 30.934C55.2858 31.2029 55.5059 31.5149 55.6526 31.8699C55.7993 32.2249 55.8726 32.5975 55.8726 32.9877C55.8726 33.3545 55.7993 33.7212 55.6526 34.088C55.5059 34.4547 55.2858 34.7848 54.9924 35.0782L35.7016 54.4056H29.467ZM44.1368 54.4056C45.946 54.4056 47.6208 53.9533 49.1612 53.0487C50.7015 52.144 51.4717 50.8849 51.4717 49.2712C51.4717 48.391 51.2394 47.6331 50.7748 46.9974C50.3103 46.3617 49.6868 45.8116 48.9044 45.347L46.7407 47.5108C47.303 47.7553 47.7431 48.0243 48.0609 48.3177C48.3788 48.6111 48.5377 48.9289 48.5377 49.2712C48.5377 49.8335 48.0913 50.3411 47.1984 50.7939C46.3055 51.2467 45.2849 51.4726 44.1368 51.4717C43.7211 51.4717 43.373 51.6125 43.0923 51.8942C42.8116 52.1758 42.6708 52.524 42.6698 52.9386C42.6688 53.3533 42.8096 53.702 43.0923 53.9846C43.3749 54.2672 43.7231 54.4076 44.1368 54.4056ZM30.3105 43.1832L32.511 40.9828C32.022 40.7872 31.6366 40.5857 31.355 40.3784C31.0733 40.171 30.933 39.9569 30.934 39.7358C30.934 39.4424 31.154 39.149 31.5941 38.8556C32.0342 38.5622 32.9633 38.1099 34.3814 37.4987C36.5329 36.5696 37.9632 35.7261 38.6723 34.9681C39.3813 34.2102 39.7358 33.3545 39.7358 32.4009C39.7358 31.0562 39.1979 29.9868 38.1222 29.1927C37.0464 28.3985 35.6283 28.001 33.8679 28C32.7677 28 31.7833 28.1956 30.9149 28.5868C30.0464 28.978 29.3804 29.4548 28.9169 30.0171C28.6479 30.3349 28.5379 30.6895 28.5868 31.0807C28.6357 31.4718 28.8191 31.7897 29.1369 32.0342C29.4548 32.3031 29.8093 32.4132 30.2005 32.3643C30.5917 32.3154 30.9217 32.1564 31.1907 31.8875C31.533 31.5452 31.9119 31.3007 32.3276 31.154C32.7432 31.0073 33.2567 30.934 33.8679 30.934C34.8704 30.934 35.6102 31.0807 36.0875 31.3741C36.5647 31.6674 36.8029 32.0097 36.8019 32.4009C36.8019 32.7432 36.5882 33.0547 36.1608 33.3354C35.7334 33.6161 34.7491 34.1114 33.2078 34.8215C31.2518 35.6772 29.8948 36.4537 29.1369 37.151C28.379 37.8483 28 38.7099 28 39.7358C28 40.5182 28.2078 41.1847 28.6235 41.7353C29.0391 42.2859 29.6015 42.7686 30.3105 43.1832Z" stroke="#1C1C1C" stroke-width="1.31779"/>
<circle cx="18" cy="23" r="1" fill="white"/>
<circle cx="65" cy="22" r="1" fill="white"/>
</svg>
