<svg width="36" height="29" viewBox="0 0 36 29" fill="none" xmlns="http://www.w3.org/2000/svg">
<path d="M9.02842 2.52673C9.02842 5.81272 9.78423 9.85902 7.68229 12.6227C6.37309 14.344 4.39664 15.2275 2.70909 16.5115C2.55861 16.626 0.647738 17.6707 1.6995 17.6707C4.91519 17.6707 8.18682 15.3929 11.3841 17.3341C12.7186 18.1443 13.7367 19.1235 14.6747 20.3629C15.1097 20.9378 16.1366 22.823 15.9086 22.1391C14.615 18.2583 16.9661 13.8453 19.7787 11.314C20.945 10.2643 23.9136 10.267 21.1062 10.267C16.2792 10.267 12.9011 9.66313 10.0754 5.42465C9.20506 4.11914 8.69188 2.73048 8.69188 1.1806" stroke="#8484FF" stroke-width="2" stroke-linecap="round"/>
<path d="M25.4824 19.316C25.4824 21.68 25.8758 24.4122 24.2826 26.3759C24.0989 26.6024 22.902 27.362 22.8753 27.5757C22.8551 27.7374 23.1841 27.4714 23.3367 27.4142C24.005 27.1635 24.7122 27.0151 25.3901 26.7912C27.5076 26.092 30.4396 24.9729 32.5884 26.2144C32.8188 26.3475 34.1376 27.0506 33.9035 26.8604C32.7672 25.9372 32.2067 24.8422 32.1385 23.3766C32.0775 22.0654 32.6291 20.8126 33.8804 20.262C34.2268 20.1096 35.2625 19.7313 34.8841 19.7313C32.4855 19.7313 30.0628 20.4961 27.6857 20.3427C25.315 20.1898 25.0671 18.2671 25.0671 16.409" stroke="#8484FF" stroke-width="2" stroke-linecap="round"/>
</svg>
