<svg width="114" height="187" viewBox="0 0 114 187" fill="none" xmlns="http://www.w3.org/2000/svg">
<rect x="21.4043" y="147.404" width="18.1915" height="18.1915" fill="#8484FF"/>
<rect x="21.4043" y="166.809" width="18.1915" height="18.1915" fill="#8484FF"/>
<rect x="2" y="166.809" width="18.1915" height="18.1915" fill="#8484FF"/>
<rect x="40.8085" y="166.809" width="18.1915" height="18.1915" fill="#8484FF"/>
<rect x="2" y="147.404" width="18.1915" height="18.1915" fill="#C2C2FF"/>
<rect x="2" y="128" width="18.1915" height="18.1915" fill="#C2C2FF"/>
<rect x="22" y="40" width="18.1915" height="18.1915" fill="#8484FF"/>
<rect x="43" y="20" width="18.1915" height="18.1915" fill="#8484FF"/>
<rect x="22" y="20" width="18.1915" height="18.1915" fill="#8484FF"/>
<rect x="43" width="18.1915" height="18.1915" fill="#8484FF"/>
<rect x="2" y="108.596" width="18.1915" height="18.1915" fill="#C2C2FF"/>
<rect x="2" y="89.1915" width="18.1915" height="18.1915" fill="#C2C2FF"/>
<rect x="41" y="147.404" width="18.1915" height="18.1915" fill="#5252A3"/>
<rect x="61" y="167" width="18.1915" height="18.1915" fill="#5252A3"/>
<rect x="41" y="128" width="18.1915" height="18.1915" fill="#5252A3"/>
<rect x="61" y="147" width="18.1915" height="18.1915" fill="#5252A3"/>
<rect x="99.8573" y="138" width="15" height="15" transform="rotate(27.2037 99.8573 138)" fill="#8484FF"/>
<path d="M81.4849 137.154C81.3804 137.034 81.6703 137.037 81.7418 137.029C82.4031 136.958 83.0782 136.914 83.7425 136.889C84.6589 136.855 85.7286 136.76 86.6074 137.076C87.2839 137.32 87.875 137.895 88.2656 138.485C89.0107 139.612 88.8167 140.704 87.8296 141.622C87.2662 142.146 86.5664 142.504 85.8133 142.658C85.2302 142.777 84.3851 142.969 83.9527 142.428C83.0095 141.249 84.3721 140.214 85.354 139.789C86.8811 139.128 88.7324 139.022 90.3753 139.232C91.3591 139.358 92.4017 139.72 93.2479 140.237C93.5273 140.407 93.9179 140.682 94.0264 141.007" stroke="#8484FF" stroke-width="1.5" stroke-linecap="round"/>
</svg>
