<svg width="1200" height="56" viewBox="0 0 1200 56" fill="none" xmlns="http://www.w3.org/2000/svg">
<path d="M-166.69 39L-166.21 36.84H-159.22C-157.84 36.84 -156.57 36.57 -155.41 36.03C-154.25 35.49 -153.24 34.75 -152.38 33.81C-151.52 32.87 -150.86 31.8 -150.4 30.6C-149.92 29.4 -149.68 28.14 -149.68 26.82C-149.68 25.42 -149.95 24.18 -150.49 23.1C-151.03 22 -151.79 21.14 -152.77 20.52C-153.73 19.88 -154.87 19.56 -156.19 19.56H-162.28L-161.8 17.4H-155.95C-154.19 17.4 -152.66 17.8 -151.36 18.6C-150.04 19.4 -149.01 20.5 -148.27 21.9C-147.53 23.28 -147.16 24.86 -147.16 26.64C-147.16 28.26 -147.47 29.82 -148.09 31.32C-148.69 32.8 -149.54 34.12 -150.64 35.28C-151.74 36.42 -153.04 37.33 -154.54 38.01C-156.02 38.67 -157.63 39 -159.37 39H-166.69ZM-168.16 39L-163.21 17.4H-160.75L-165.7 39H-168.16ZM-145.631 39L-140.651 17.4H-138.191L-143.171 39H-145.631ZM-144.371 39L-143.891 36.84H-130.691L-131.171 39H-144.371ZM-142.031 28.83L-141.551 26.67H-129.431L-129.911 28.83H-142.031ZM-139.901 19.56L-139.391 17.4H-126.431L-126.941 19.56H-139.901ZM-119.54 39.27C-120.76 39.27 -121.86 39.1 -122.84 38.76C-123.82 38.42 -124.66 37.93 -125.36 37.29C-126.04 36.65 -126.57 35.89 -126.95 35.01C-127.31 34.11 -127.49 33.11 -127.49 32.01H-125.09C-125.09 32.81 -124.96 33.53 -124.7 34.17C-124.44 34.79 -124.07 35.32 -123.59 35.76C-123.09 36.2 -122.49 36.54 -121.79 36.78C-121.07 37 -120.26 37.11 -119.36 37.11C-117.84 37.11 -116.67 36.78 -115.85 36.12C-115.01 35.46 -114.59 34.55 -114.59 33.39C-114.59 32.61 -114.8 31.95 -115.22 31.41C-115.62 30.87 -116.26 30.38 -117.14 29.94L-120.41 28.29C-121.87 27.55 -122.93 26.77 -123.59 25.95C-124.23 25.13 -124.55 24.15 -124.55 23.01C-124.55 21.81 -124.24 20.76 -123.62 19.86C-123 18.96 -122.14 18.26 -121.04 17.76C-119.94 17.24 -118.68 16.98 -117.26 16.98C-116.18 16.98 -115.22 17.13 -114.38 17.43C-113.54 17.71 -112.83 18.14 -112.25 18.72C-111.65 19.28 -111.19 19.97 -110.87 20.79C-110.55 21.59 -110.38 22.52 -110.36 23.58H-112.73C-112.75 22.6 -112.94 21.78 -113.3 21.12C-113.66 20.46 -114.19 19.97 -114.89 19.65C-115.59 19.31 -116.46 19.14 -117.5 19.14C-118.46 19.14 -119.29 19.28 -119.99 19.56C-120.67 19.84 -121.2 20.24 -121.58 20.76C-121.94 21.28 -122.12 21.92 -122.12 22.68C-122.12 23.36 -121.92 23.96 -121.52 24.48C-121.1 25 -120.42 25.49 -119.48 25.95L-116 27.69C-114.7 28.33 -113.74 29.08 -113.12 29.94C-112.5 30.8 -112.19 31.84 -112.19 33.06C-112.19 34.3 -112.49 35.39 -113.09 36.33C-113.69 37.25 -114.54 37.97 -115.64 38.49C-116.74 39.01 -118.04 39.27 -119.54 39.27ZM-99.3618 39L-95.0418 20.13L-94.4418 20.37C-94.8018 20.87 -95.3818 21.35 -96.1818 21.81C-96.9618 22.25 -97.8418 22.62 -98.8218 22.92C-99.7818 23.2 -100.732 23.35 -101.672 23.37L-101.162 21.09C-100.202 21.03 -99.2518 20.85 -98.3118 20.55C-97.3718 20.25 -96.5018 19.84 -95.7018 19.32C-94.9018 18.78 -94.2518 18.14 -93.7518 17.4H-91.9818L-96.9618 39H-99.3618ZM-85.2053 39.3C-86.3653 39.3 -87.3953 39.13 -88.2953 38.79C-89.1753 38.43 -89.9153 37.96 -90.5153 37.38C-91.0953 36.78 -91.5253 36.11 -91.8053 35.37C-92.0653 34.63 -92.1453 33.87 -92.0453 33.09H-89.5253C-89.5653 33.79 -89.4253 34.45 -89.1053 35.07C-88.7853 35.69 -88.2953 36.19 -87.6353 36.57C-86.9753 36.95 -86.1553 37.14 -85.1753 37.14C-84.5353 37.14 -83.9453 37.04 -83.4053 36.84C-82.8453 36.64 -82.3553 36.36 -81.9353 36C-81.4953 35.62 -81.1253 35.18 -80.8253 34.68C-80.5053 34.18 -80.2653 33.64 -80.1053 33.06C-79.9453 32.46 -79.8653 31.84 -79.8653 31.2C-79.8653 29.78 -80.2453 28.71 -81.0053 27.99C-81.7653 27.27 -82.8053 26.91 -84.1253 26.91C-84.9253 26.91 -85.6753 27.06 -86.3753 27.36C-87.0553 27.64 -87.6153 28.1 -88.0553 28.74H-90.2453L-86.6753 17.4H-75.2453L-75.7253 19.56H-85.6853L-84.6353 18.66L-87.3353 27.36L-87.6653 26.67C-87.2053 26.13 -86.6053 25.71 -85.8653 25.41C-85.1053 25.09 -84.2553 24.93 -83.3153 24.93C-82.0953 24.93 -81.0253 25.19 -80.1053 25.71C-79.1853 26.23 -78.4753 26.97 -77.9753 27.93C-77.4553 28.87 -77.1953 29.99 -77.1953 31.29C-77.1953 32.21 -77.3253 33.07 -77.5853 33.87C-77.8453 34.67 -78.2153 35.41 -78.6953 36.09C-79.1553 36.75 -79.7153 37.32 -80.3753 37.8C-81.0353 38.28 -81.7753 38.65 -82.5953 38.91C-83.3953 39.17 -84.2653 39.3 -85.2053 39.3ZM-72.7738 39C-71.7138 35.6 -70.1538 32.24 -68.0938 28.92C-66.0338 25.58 -63.3738 22.17 -60.1138 18.69L-59.8438 19.56H-72.4738L-71.9938 17.4H-57.4138L-57.8338 19.2C-59.9738 21.54 -61.8238 23.8 -63.3838 25.98C-64.9438 28.16 -66.2538 30.32 -67.3138 32.46C-68.3738 34.58 -69.2438 36.76 -69.9238 39H-72.7738ZM-57.7614 39L-57.2814 36.96H-50.5014C-49.4214 36.96 -48.4914 36.78 -47.7114 36.42C-46.9114 36.04 -46.3014 35.5 -45.8814 34.8C-45.4414 34.1 -45.2214 33.28 -45.2214 32.34C-45.2214 31.2 -45.5414 30.31 -46.1814 29.67C-46.8214 29.01 -47.7014 28.68 -48.8214 28.68H-55.4214L-54.9714 26.7H-48.6414C-47.5614 26.7 -46.6314 26.53 -45.8514 26.19C-45.0714 25.85 -44.4714 25.38 -44.0514 24.78C-43.6314 24.16 -43.4214 23.42 -43.4214 22.56C-43.4214 21.6 -43.7114 20.84 -44.2914 20.28C-44.8714 19.72 -45.6614 19.44 -46.6614 19.44H-53.3214L-52.8414 17.4H-46.2414C-44.6414 17.4 -43.3614 17.86 -42.4014 18.78C-41.4214 19.7 -40.9314 20.9 -40.9314 22.38C-40.9314 23.26 -41.1114 24.07 -41.4714 24.81C-41.8314 25.53 -42.3214 26.15 -42.9414 26.67C-43.5614 27.19 -44.2714 27.58 -45.0714 27.84C-45.8714 28.1 -46.7214 28.19 -47.6214 28.11L-47.2914 27.51C-45.8714 27.65 -44.7514 28.18 -43.9314 29.1C-43.1114 30.02 -42.7014 31.19 -42.7014 32.61C-42.7014 33.89 -43.0414 35.01 -43.7214 35.97C-44.3814 36.93 -45.3114 37.68 -46.5114 38.22C-47.7114 38.74 -49.1114 39 -50.7114 39H-57.7614ZM-59.3514 39L-54.4014 17.4H-51.9414L-56.8914 39H-59.3514ZM-32.8333 31.86L-32.3533 29.82H-19.5733L-20.0533 31.86H-32.8333ZM-2.4693 39.27C-3.6893 39.27 -4.7893 39.1 -5.7693 38.76C-6.7493 38.42 -7.5893 37.93 -8.2893 37.29C-8.9693 36.65 -9.4993 35.89 -9.8793 35.01C-10.2393 34.11 -10.4193 33.11 -10.4193 32.01H-8.0193C-8.0193 32.81 -7.8893 33.53 -7.6293 34.17C-7.3693 34.79 -6.9993 35.32 -6.5193 35.76C-6.0193 36.2 -5.4193 36.54 -4.7193 36.78C-3.9993 37 -3.1893 37.11 -2.2893 37.11C-0.769297 37.11 0.400703 36.78 1.2207 36.12C2.0607 35.46 2.4807 34.55 2.4807 33.39C2.4807 32.61 2.2707 31.95 1.8507 31.41C1.4507 30.87 0.810704 30.38 -0.069296 29.94L-3.3393 28.29C-4.7993 27.55 -5.8593 26.77 -6.5193 25.95C-7.1593 25.13 -7.4793 24.15 -7.4793 23.01C-7.4793 21.81 -7.1693 20.76 -6.5493 19.86C-5.9293 18.96 -5.0693 18.26 -3.9693 17.76C-2.8693 17.24 -1.6093 16.98 -0.189296 16.98C0.890704 16.98 1.8507 17.13 2.6907 17.43C3.5307 17.71 4.2407 18.14 4.8207 18.72C5.4207 19.28 5.8807 19.97 6.2007 20.79C6.5207 21.59 6.6907 22.52 6.7107 23.58H4.3407C4.3207 22.6 4.1307 21.78 3.7707 21.12C3.4107 20.46 2.8807 19.97 2.1807 19.65C1.4807 19.31 0.610704 19.14 -0.429297 19.14C-1.3893 19.14 -2.2193 19.28 -2.9193 19.56C-3.5993 19.84 -4.1293 20.24 -4.5093 20.76C-4.8693 21.28 -5.0493 21.92 -5.0493 22.68C-5.0493 23.36 -4.8493 23.96 -4.4493 24.48C-4.0293 25 -3.3493 25.49 -2.4093 25.95L1.0707 27.69C2.3707 28.33 3.3307 29.08 3.9507 29.94C4.5707 30.8 4.8807 31.84 4.8807 33.06C4.8807 34.3 4.5807 35.39 3.9807 36.33C3.3807 37.25 2.5307 37.97 1.4307 38.49C0.330703 39.01 -0.969297 39.27 -2.4693 39.27ZM14.3441 39.3C13.0441 39.3 11.9041 39.02 10.9241 38.46C9.94406 37.9 9.18406 37.12 8.64406 36.12C8.10406 35.1 7.83406 33.92 7.83406 32.58C7.83406 31.56 7.97406 30.59 8.25406 29.67C8.55406 28.75 8.96406 27.91 9.48406 27.15C10.0041 26.39 10.6241 25.73 11.3441 25.17C12.0641 24.61 12.8541 24.18 13.7141 23.88C14.5741 23.56 15.4841 23.4 16.4441 23.4C17.6841 23.4 18.7641 23.65 19.6841 24.15C20.6241 24.65 21.3441 25.35 21.8441 26.25C22.3641 27.15 22.6241 28.2 22.6241 29.4C22.6241 29.86 22.5741 30.32 22.4741 30.78C22.3941 31.22 22.2541 31.65 22.0541 32.07H9.66406L10.1141 30.06H21.0041L19.9841 31.68C20.1641 30.94 20.2441 30.21 20.2241 29.49C20.2241 28.75 20.0841 28.08 19.8041 27.48C19.5441 26.86 19.1341 26.37 18.5741 26.01C18.0141 25.63 17.2641 25.44 16.3241 25.44C15.6641 25.44 15.0341 25.56 14.4341 25.8C13.8341 26.04 13.2841 26.38 12.7841 26.82C12.2841 27.24 11.8441 27.75 11.4641 28.35C11.0841 28.93 10.7941 29.58 10.5941 30.3C10.3941 31 10.2941 31.74 10.2941 32.52C10.2941 34 10.6841 35.16 11.4641 36C12.2441 36.84 13.3141 37.26 14.6741 37.26C15.5941 37.26 16.3941 37.06 17.0741 36.66C17.7541 36.24 18.3341 35.61 18.8141 34.77H21.0941C20.3541 36.29 19.4141 37.43 18.2741 38.19C17.1341 38.93 15.8241 39.3 14.3441 39.3ZM30.7384 39.33C29.5184 39.33 28.4584 39.06 27.5584 38.52C26.6584 37.96 25.9584 37.19 25.4584 36.21C24.9584 35.21 24.7084 34.05 24.7084 32.73C24.7084 31.69 24.8484 30.71 25.1284 29.79C25.4284 28.87 25.8384 28.02 26.3584 27.24C26.8984 26.46 27.5284 25.79 28.2484 25.23C28.9684 24.67 29.7584 24.24 30.6184 23.94C31.4784 23.62 32.3884 23.46 33.3484 23.46C34.1684 23.46 34.9184 23.59 35.5984 23.85C36.2784 24.11 36.8684 24.48 37.3684 24.96C37.8684 25.42 38.2584 25.98 38.5384 26.64C38.8184 27.28 38.9584 27.99 38.9584 28.77H36.7384C36.7184 28.09 36.5584 27.51 36.2584 27.03C35.9584 26.55 35.5484 26.18 35.0284 25.92C34.5084 25.64 33.8884 25.5 33.1684 25.5C32.4884 25.5 31.8484 25.62 31.2484 25.86C30.6484 26.1 30.0984 26.45 29.5984 26.91C29.0984 27.35 28.6684 27.87 28.3084 28.47C27.9484 29.07 27.6684 29.74 27.4684 30.48C27.2684 31.22 27.1684 32 27.1684 32.82C27.1684 34.24 27.4984 35.35 28.1584 36.15C28.8184 36.93 29.7484 37.32 30.9484 37.32C32.0284 37.32 32.9884 37.02 33.8284 36.42C34.6684 35.82 35.2784 35 35.6584 33.96H37.8784C37.3384 35.6 36.4184 36.91 35.1184 37.89C33.8384 38.85 32.3784 39.33 30.7384 39.33ZM46.3159 39.27C44.6159 39.27 43.4659 38.84 42.8659 37.98C42.2659 37.1 42.1359 35.93 42.4759 34.47L45.7759 20.13L48.3859 19.23L44.7859 34.83C44.6059 35.65 44.6859 36.26 45.0259 36.66C45.3859 37.04 46.0559 37.23 47.0359 37.23C47.4359 37.23 47.7759 37.21 48.0559 37.17C48.3559 37.11 48.6059 37.04 48.8059 36.96L48.3559 39C48.1359 39.08 47.8559 39.14 47.5159 39.18C47.1759 39.24 46.7759 39.27 46.3159 39.27ZM41.3359 25.74L41.7859 23.7H51.8659L51.4159 25.74H41.3359ZM51.4745 39L54.9845 23.7H57.3845L53.8745 39H51.4745ZM55.5245 20.22L56.1245 17.4H58.8845L58.2845 20.22H55.5245ZM65.6722 39.3C64.3922 39.3 63.2622 39.02 62.2822 38.46C61.3022 37.88 60.5322 37.08 59.9722 36.06C59.4322 35.04 59.1622 33.86 59.1622 32.52C59.1622 31.26 59.3822 30.08 59.8222 28.98C60.2822 27.88 60.9022 26.91 61.6822 26.07C62.4822 25.23 63.4022 24.58 64.4422 24.12C65.4822 23.64 66.6022 23.4 67.8022 23.4C69.1222 23.4 70.2722 23.68 71.2522 24.24C72.2322 24.8 72.9922 25.59 73.5322 26.61C74.0722 27.61 74.3422 28.78 74.3422 30.12C74.3422 31.38 74.1122 32.57 73.6522 33.69C73.1922 34.79 72.5622 35.76 71.7622 36.6C70.9622 37.44 70.0422 38.1 69.0022 38.58C67.9622 39.06 66.8522 39.3 65.6722 39.3ZM65.7922 37.26C66.6122 37.26 67.3922 37.08 68.1322 36.72C68.8722 36.34 69.5222 35.83 70.0822 35.19C70.6422 34.53 71.0822 33.77 71.4022 32.91C71.7222 32.05 71.8822 31.13 71.8822 30.15C71.8822 28.71 71.5022 27.57 70.7422 26.73C70.0022 25.87 68.9822 25.44 67.6822 25.44C66.8422 25.44 66.0522 25.62 65.3122 25.98C64.5922 26.34 63.9522 26.84 63.3922 27.48C62.8522 28.12 62.4222 28.87 62.1022 29.73C61.7822 30.57 61.6222 31.48 61.6222 32.46C61.6222 33.92 62.0022 35.09 62.7622 35.97C63.5222 36.83 64.5322 37.26 65.7922 37.26ZM76.1717 39L79.6817 23.7H81.9317L81.1217 27.3H81.2717L78.5717 39H76.1717ZM87.0917 39L89.2517 29.61C89.5717 28.25 89.4717 27.22 88.9517 26.52C88.4317 25.8 87.5717 25.44 86.3717 25.44C84.9517 25.44 83.7117 25.9 82.6517 26.82C81.6117 27.72 80.9017 28.96 80.5217 30.54L80.9717 26.79C81.7317 25.71 82.6417 24.88 83.7017 24.3C84.7817 23.7 85.9117 23.4 87.0917 23.4C88.8917 23.4 90.2117 23.95 91.0517 25.05C91.8917 26.15 92.1017 27.63 91.6817 29.49L89.4917 39H87.0917ZM98.9066 39L99.3866 36.9C102.047 35.1 104.297 33.5 106.137 32.1C107.997 30.7 109.487 29.44 110.607 28.32C111.747 27.18 112.577 26.14 113.097 25.2C113.617 24.26 113.877 23.37 113.877 22.53C113.877 21.51 113.547 20.72 112.887 20.16C112.247 19.58 111.337 19.29 110.157 19.29C108.877 19.29 107.777 19.67 106.857 20.43C105.937 21.17 105.247 22.25 104.787 23.67H102.267C102.847 21.59 103.847 19.99 105.267 18.87C106.687 17.73 108.397 17.16 110.397 17.16C111.657 17.16 112.737 17.38 113.637 17.82C114.557 18.24 115.267 18.84 115.767 19.62C116.267 20.4 116.517 21.32 116.517 22.38C116.517 23.44 116.247 24.52 115.707 25.62C115.167 26.72 114.317 27.89 113.157 29.13C111.997 30.35 110.467 31.69 108.567 33.15C106.687 34.61 104.397 36.23 101.697 38.01L101.397 36.84H113.727L113.217 39H98.9066ZM124.11 31.86L124.59 29.82H137.37L136.89 31.86H124.11ZM154.474 39.27C153.254 39.27 152.154 39.1 151.174 38.76C150.194 38.42 149.354 37.93 148.654 37.29C147.974 36.65 147.444 35.89 147.064 35.01C146.704 34.11 146.524 33.11 146.524 32.01H148.924C148.924 32.81 149.054 33.53 149.314 34.17C149.574 34.79 149.944 35.32 150.424 35.76C150.924 36.2 151.524 36.54 152.224 36.78C152.944 37 153.754 37.11 154.654 37.11C156.174 37.11 157.344 36.78 158.164 36.12C159.004 35.46 159.424 34.55 159.424 33.39C159.424 32.61 159.214 31.95 158.794 31.41C158.394 30.87 157.754 30.38 156.874 29.94L153.604 28.29C152.144 27.55 151.084 26.77 150.424 25.95C149.784 25.13 149.464 24.15 149.464 23.01C149.464 21.81 149.774 20.76 150.394 19.86C151.014 18.96 151.874 18.26 152.974 17.76C154.074 17.24 155.334 16.98 156.754 16.98C157.834 16.98 158.794 17.13 159.634 17.43C160.474 17.71 161.184 18.14 161.764 18.72C162.364 19.28 162.824 19.97 163.144 20.79C163.464 21.59 163.634 22.52 163.654 23.58H161.284C161.264 22.6 161.074 21.78 160.714 21.12C160.354 20.46 159.824 19.97 159.124 19.65C158.424 19.31 157.554 19.14 156.514 19.14C155.554 19.14 154.724 19.28 154.024 19.56C153.344 19.84 152.814 20.24 152.434 20.76C152.074 21.28 151.894 21.92 151.894 22.68C151.894 23.36 152.094 23.96 152.494 24.48C152.914 25 153.594 25.49 154.534 25.95L158.014 27.69C159.314 28.33 160.274 29.08 160.894 29.94C161.514 30.8 161.824 31.84 161.824 33.06C161.824 34.3 161.524 35.39 160.924 36.33C160.324 37.25 159.474 37.97 158.374 38.49C157.274 39.01 155.974 39.27 154.474 39.27ZM172.366 39.27C171.346 39.27 170.456 39.08 169.696 38.7C168.936 38.3 168.346 37.75 167.926 37.05C167.506 36.35 167.286 35.55 167.266 34.65L167.746 34.62L165.286 45.15H162.886L167.836 23.7H170.086L169.366 26.76L169.216 26.64C169.796 25.6 170.586 24.8 171.586 24.24C172.606 23.68 173.726 23.4 174.946 23.4C176.726 23.4 178.126 23.97 179.146 25.11C180.166 26.23 180.676 27.77 180.676 29.73C180.676 31.05 180.456 32.29 180.016 33.45C179.596 34.59 178.996 35.6 178.216 36.48C177.456 37.34 176.576 38.02 175.576 38.52C174.576 39.02 173.506 39.27 172.366 39.27ZM172.276 37.17C173.116 37.17 173.896 36.99 174.616 36.63C175.336 36.25 175.966 35.74 176.506 35.1C177.046 34.44 177.466 33.68 177.766 32.82C178.066 31.96 178.216 31.05 178.216 30.09C178.216 28.67 177.866 27.55 177.166 26.73C176.486 25.91 175.526 25.5 174.286 25.5C173.626 25.5 172.986 25.62 172.366 25.86C171.766 26.1 171.216 26.44 170.716 26.88C170.216 27.3 169.776 27.81 169.396 28.41C169.016 28.99 168.726 29.63 168.526 30.33C168.326 31.03 168.226 31.76 168.226 32.52C168.226 33.96 168.596 35.1 169.336 35.94C170.076 36.76 171.056 37.17 172.276 37.17ZM182.489 39L186.029 23.7H188.279L187.379 27.6H187.529L184.889 39H182.489ZM186.839 30.51L187.259 26.85C187.779 25.83 188.519 25 189.479 24.36C190.459 23.72 191.539 23.4 192.719 23.4C193.059 23.4 193.349 23.43 193.589 23.49C193.829 23.53 194.019 23.58 194.159 23.64L193.619 25.95C193.459 25.89 193.209 25.84 192.869 25.8C192.549 25.74 192.239 25.71 191.939 25.71C190.639 25.71 189.549 26.12 188.669 26.94C187.789 27.76 187.179 28.95 186.839 30.51ZM193.506 39L197.016 23.7H199.416L195.906 39H193.506ZM197.556 20.22L198.156 17.4H200.916L200.316 20.22H197.556ZM200.742 39L204.252 23.7H206.502L205.692 27.3H205.842L203.142 39H200.742ZM211.662 39L213.822 29.61C214.142 28.25 214.042 27.22 213.522 26.52C213.002 25.8 212.142 25.44 210.942 25.44C209.522 25.44 208.282 25.9 207.222 26.82C206.182 27.72 205.472 28.96 205.092 30.54L205.542 26.79C206.302 25.71 207.212 24.88 208.272 24.3C209.352 23.7 210.482 23.4 211.662 23.4C213.462 23.4 214.782 23.95 215.622 25.05C216.462 26.15 216.672 27.63 216.252 29.49L214.062 39H211.662ZM224.341 45.45C223.061 45.45 221.931 45.26 220.951 44.88C219.991 44.5 219.231 43.96 218.671 43.26C218.111 42.56 217.791 41.74 217.711 40.8H219.931C220.131 41.76 220.631 42.43 221.431 42.81C222.251 43.21 223.231 43.41 224.371 43.41C225.671 43.41 226.791 43.03 227.731 42.27C228.691 41.51 229.341 40.39 229.681 38.91L230.371 35.94L230.521 36.33C229.921 37.29 229.131 38.03 228.151 38.55C227.191 39.05 226.121 39.3 224.941 39.3C223.161 39.3 221.761 38.73 220.741 37.59C219.721 36.45 219.211 34.91 219.211 32.97C219.211 31.65 219.421 30.42 219.841 29.28C220.281 28.12 220.881 27.11 221.641 26.25C222.421 25.37 223.311 24.68 224.311 24.18C225.311 23.68 226.381 23.43 227.521 23.43C228.501 23.43 229.361 23.61 230.101 23.97C230.841 24.33 231.431 24.83 231.871 25.47C232.311 26.11 232.561 26.85 232.621 27.69L232.321 27.99L233.341 23.7H235.591L232.021 39.15C231.561 41.15 230.651 42.7 229.291 43.8C227.951 44.9 226.301 45.45 224.341 45.45ZM225.601 37.2C226.261 37.2 226.891 37.08 227.491 36.84C228.111 36.6 228.671 36.27 229.171 35.85C229.671 35.41 230.111 34.9 230.491 34.32C230.871 33.72 231.161 33.07 231.361 32.37C231.561 31.67 231.661 30.94 231.661 30.18C231.661 28.74 231.291 27.61 230.551 26.79C229.831 25.95 228.851 25.53 227.611 25.53C226.491 25.53 225.481 25.85 224.581 26.49C223.681 27.13 222.971 27.99 222.451 29.07C221.931 30.13 221.671 31.31 221.671 32.61C221.671 34.01 222.021 35.13 222.721 35.97C223.421 36.79 224.381 37.2 225.601 37.2ZM241.67 39L242.15 36.9C244.81 35.1 247.06 33.5 248.9 32.1C250.76 30.7 252.25 29.44 253.37 28.32C254.51 27.18 255.34 26.14 255.86 25.2C256.38 24.26 256.64 23.37 256.64 22.53C256.64 21.51 256.31 20.72 255.65 20.16C255.01 19.58 254.1 19.29 252.92 19.29C251.64 19.29 250.54 19.67 249.62 20.43C248.7 21.17 248.01 22.25 247.55 23.67H245.03C245.61 21.59 246.61 19.99 248.03 18.87C249.45 17.73 251.16 17.16 253.16 17.16C254.42 17.16 255.5 17.38 256.4 17.82C257.32 18.24 258.03 18.84 258.53 19.62C259.03 20.4 259.28 21.32 259.28 22.38C259.28 23.44 259.01 24.52 258.47 25.62C257.93 26.72 257.08 27.89 255.92 29.13C254.76 30.35 253.23 31.69 251.33 33.15C249.45 34.61 247.16 36.23 244.46 38.01L244.16 36.84H256.49L255.98 39H241.67ZM268.118 39.27C266.638 39.27 265.368 38.91 264.308 38.19C263.248 37.45 262.438 36.44 261.878 35.16C261.318 33.88 261.038 32.42 261.038 30.78C261.038 29.84 261.128 28.85 261.308 27.81C261.508 26.77 261.798 25.74 262.178 24.72C262.558 23.7 263.028 22.74 263.588 21.84C264.168 20.92 264.838 20.11 265.598 19.41C266.358 18.71 267.208 18.16 268.148 17.76C269.108 17.34 270.148 17.13 271.268 17.13C272.748 17.13 274.018 17.48 275.078 18.18C276.138 18.88 276.958 19.86 277.538 21.12C278.118 22.38 278.408 23.84 278.408 25.5C278.408 26.44 278.308 27.43 278.108 28.47C277.908 29.51 277.618 30.55 277.238 31.59C276.858 32.61 276.378 33.58 275.798 34.5C275.218 35.42 274.548 36.24 273.788 36.96C273.028 37.68 272.168 38.25 271.208 38.67C270.268 39.07 269.238 39.27 268.118 39.27ZM268.208 37.11C269.108 37.11 269.918 36.92 270.638 36.54C271.358 36.14 271.998 35.61 272.558 34.95C273.118 34.27 273.598 33.51 273.998 32.67C274.418 31.83 274.758 30.96 275.018 30.06C275.278 29.16 275.468 28.29 275.588 27.45C275.728 26.59 275.798 25.81 275.798 25.11C275.798 23.27 275.388 21.84 274.568 20.82C273.748 19.8 272.628 19.29 271.208 19.29C270.308 19.29 269.488 19.49 268.748 19.89C268.028 20.27 267.388 20.79 266.828 21.45C266.288 22.09 265.818 22.82 265.418 23.64C265.018 24.46 264.688 25.32 264.428 26.22C264.168 27.1 263.978 27.96 263.858 28.8C263.738 29.64 263.678 30.41 263.678 31.11C263.678 32.93 264.068 34.39 264.848 35.49C265.628 36.57 266.748 37.11 268.208 37.11ZM278.233 39L278.713 36.9C281.373 35.1 283.623 33.5 285.463 32.1C287.323 30.7 288.813 29.44 289.933 28.32C291.073 27.18 291.903 26.14 292.423 25.2C292.943 24.26 293.203 23.37 293.203 22.53C293.203 21.51 292.873 20.72 292.213 20.16C291.573 19.58 290.663 19.29 289.483 19.29C288.203 19.29 287.103 19.67 286.183 20.43C285.263 21.17 284.573 22.25 284.113 23.67H281.593C282.173 21.59 283.173 19.99 284.593 18.87C286.013 17.73 287.723 17.16 289.723 17.16C290.983 17.16 292.063 17.38 292.963 17.82C293.883 18.24 294.593 18.84 295.093 19.62C295.593 20.4 295.843 21.32 295.843 22.38C295.843 23.44 295.573 24.52 295.033 25.62C294.493 26.72 293.643 27.89 292.483 29.13C291.323 30.35 289.793 31.69 287.893 33.15C286.013 34.61 283.723 36.23 281.023 38.01L280.723 36.84H293.053L292.543 39H278.233ZM302.89 39.3C301.73 39.3 300.7 39.13 299.8 38.79C298.92 38.43 298.18 37.96 297.58 37.38C297 36.78 296.57 36.11 296.29 35.37C296.03 34.63 295.95 33.87 296.05 33.09H298.57C298.53 33.79 298.67 34.45 298.99 35.07C299.31 35.69 299.8 36.19 300.46 36.57C301.12 36.95 301.94 37.14 302.92 37.14C303.56 37.14 304.15 37.04 304.69 36.84C305.25 36.64 305.74 36.36 306.16 36C306.6 35.62 306.97 35.18 307.27 34.68C307.59 34.18 307.83 33.64 307.99 33.06C308.15 32.46 308.23 31.84 308.23 31.2C308.23 29.78 307.85 28.71 307.09 27.99C306.33 27.27 305.29 26.91 303.97 26.91C303.17 26.91 302.42 27.06 301.72 27.36C301.04 27.64 300.48 28.1 300.04 28.74H297.85L301.42 17.4H312.85L312.37 19.56H302.41L303.46 18.66L300.76 27.36L300.43 26.67C300.89 26.13 301.49 25.71 302.23 25.41C302.99 25.09 303.84 24.93 304.78 24.93C306 24.93 307.07 25.19 307.99 25.71C308.91 26.23 309.62 26.97 310.12 27.93C310.64 28.87 310.9 29.99 310.9 31.29C310.9 32.21 310.77 33.07 310.51 33.87C310.25 34.67 309.88 35.41 309.4 36.09C308.94 36.75 308.38 37.32 307.72 37.8C307.06 38.28 306.32 38.65 305.5 38.91C304.7 39.17 303.83 39.3 302.89 39.3ZM320.663 31.86L321.143 29.82H333.923L333.443 31.86H320.663ZM344.277 39L344.757 36.84H351.747C353.127 36.84 354.397 36.57 355.557 36.03C356.717 35.49 357.727 34.75 358.587 33.81C359.447 32.87 360.107 31.8 360.567 30.6C361.047 29.4 361.287 28.14 361.287 26.82C361.287 25.42 361.017 24.18 360.477 23.1C359.937 22 359.177 21.14 358.197 20.52C357.237 19.88 356.097 19.56 354.777 19.56H348.687L349.167 17.4H355.017C356.777 17.4 358.307 17.8 359.607 18.6C360.927 19.4 361.957 20.5 362.697 21.9C363.437 23.28 363.807 24.86 363.807 26.64C363.807 28.26 363.497 29.82 362.877 31.32C362.277 32.8 361.427 34.12 360.327 35.28C359.227 36.42 357.927 37.33 356.427 38.01C354.947 38.67 353.337 39 351.597 39H344.277ZM342.807 39L347.757 17.4H350.217L345.267 39H342.807ZM365.335 39L370.315 17.4H372.775L367.795 39H365.335ZM366.595 39L367.075 36.84H380.275L379.795 39H366.595ZM368.935 28.83L369.415 26.67H381.535L381.055 28.83H368.935ZM371.065 19.56L371.575 17.4H384.535L384.025 19.56H371.065ZM391.427 39.27C390.207 39.27 389.107 39.1 388.127 38.76C387.147 38.42 386.307 37.93 385.607 37.29C384.927 36.65 384.397 35.89 384.017 35.01C383.657 34.11 383.477 33.11 383.477 32.01H385.877C385.877 32.81 386.007 33.53 386.267 34.17C386.527 34.79 386.897 35.32 387.377 35.76C387.877 36.2 388.477 36.54 389.177 36.78C389.897 37 390.707 37.11 391.607 37.11C393.127 37.11 394.297 36.78 395.117 36.12C395.957 35.46 396.377 34.55 396.377 33.39C396.377 32.61 396.167 31.95 395.747 31.41C395.347 30.87 394.707 30.38 393.827 29.94L390.557 28.29C389.097 27.55 388.037 26.77 387.377 25.95C386.737 25.13 386.417 24.15 386.417 23.01C386.417 21.81 386.727 20.76 387.347 19.86C387.967 18.96 388.827 18.26 389.927 17.76C391.027 17.24 392.287 16.98 393.707 16.98C394.787 16.98 395.747 17.13 396.587 17.43C397.427 17.71 398.137 18.14 398.717 18.72C399.317 19.28 399.777 19.97 400.097 20.79C400.417 21.59 400.587 22.52 400.607 23.58H398.237C398.217 22.6 398.027 21.78 397.667 21.12C397.307 20.46 396.777 19.97 396.077 19.65C395.377 19.31 394.507 19.14 393.467 19.14C392.507 19.14 391.677 19.28 390.977 19.56C390.297 19.84 389.767 20.24 389.387 20.76C389.027 21.28 388.847 21.92 388.847 22.68C388.847 23.36 389.047 23.96 389.447 24.48C389.867 25 390.547 25.49 391.487 25.95L394.967 27.69C396.267 28.33 397.227 29.08 397.847 29.94C398.467 30.8 398.777 31.84 398.777 33.06C398.777 34.3 398.477 35.39 397.877 36.33C397.277 37.25 396.427 37.97 395.327 38.49C394.227 39.01 392.927 39.27 391.427 39.27ZM411.605 39L415.925 20.13L416.525 20.37C416.165 20.87 415.585 21.35 414.785 21.81C414.005 22.25 413.125 22.62 412.145 22.92C411.185 23.2 410.235 23.35 409.295 23.37L409.805 21.09C410.765 21.03 411.715 20.85 412.655 20.55C413.595 20.25 414.465 19.84 415.265 19.32C416.065 18.78 416.715 18.14 417.215 17.4H418.985L414.005 39H411.605ZM425.761 39.3C424.601 39.3 423.571 39.13 422.671 38.79C421.791 38.43 421.051 37.96 420.451 37.38C419.871 36.78 419.441 36.11 419.161 35.37C418.901 34.63 418.821 33.87 418.921 33.09H421.441C421.401 33.79 421.541 34.45 421.861 35.07C422.181 35.69 422.671 36.19 423.331 36.57C423.991 36.95 424.811 37.14 425.791 37.14C426.431 37.14 427.021 37.04 427.561 36.84C428.121 36.64 428.611 36.36 429.031 36C429.471 35.62 429.841 35.18 430.141 34.68C430.461 34.18 430.701 33.64 430.861 33.06C431.021 32.46 431.101 31.84 431.101 31.2C431.101 29.78 430.721 28.71 429.961 27.99C429.201 27.27 428.161 26.91 426.841 26.91C426.041 26.91 425.291 27.06 424.591 27.36C423.911 27.64 423.351 28.1 422.911 28.74H420.721L424.291 17.4H435.721L435.241 19.56H425.281L426.331 18.66L423.631 27.36L423.301 26.67C423.761 26.13 424.361 25.71 425.101 25.41C425.861 25.09 426.711 24.93 427.651 24.93C428.871 24.93 429.941 25.19 430.861 25.71C431.781 26.23 432.491 26.97 432.991 27.93C433.511 28.87 433.771 29.99 433.771 31.29C433.771 32.21 433.641 33.07 433.381 33.87C433.121 34.67 432.751 35.41 432.271 36.09C431.811 36.75 431.251 37.32 430.591 37.8C429.931 38.28 429.191 38.65 428.371 38.91C427.571 39.17 426.701 39.3 425.761 39.3ZM438.193 39C439.253 35.6 440.813 32.24 442.873 28.92C444.933 25.58 447.593 22.17 450.853 18.69L451.123 19.56H438.493L438.973 17.4H453.553L453.133 19.2C450.993 21.54 449.143 23.8 447.583 25.98C446.023 28.16 444.713 30.32 443.653 32.46C442.593 34.58 441.723 36.76 441.043 39H438.193ZM453.205 39L453.685 36.96H460.465C461.545 36.96 462.475 36.78 463.255 36.42C464.055 36.04 464.665 35.5 465.085 34.8C465.525 34.1 465.745 33.28 465.745 32.34C465.745 31.2 465.425 30.31 464.785 29.67C464.145 29.01 463.265 28.68 462.145 28.68H455.545L455.995 26.7H462.325C463.405 26.7 464.335 26.53 465.115 26.19C465.895 25.85 466.495 25.38 466.915 24.78C467.335 24.16 467.545 23.42 467.545 22.56C467.545 21.6 467.255 20.84 466.675 20.28C466.095 19.72 465.305 19.44 464.305 19.44H457.645L458.125 17.4H464.725C466.325 17.4 467.605 17.86 468.565 18.78C469.545 19.7 470.035 20.9 470.035 22.38C470.035 23.26 469.855 24.07 469.495 24.81C469.135 25.53 468.645 26.15 468.025 26.67C467.405 27.19 466.695 27.58 465.895 27.84C465.095 28.1 464.245 28.19 463.345 28.11L463.675 27.51C465.095 27.65 466.215 28.18 467.035 29.1C467.855 30.02 468.265 31.19 468.265 32.61C468.265 33.89 467.925 35.01 467.245 35.97C466.585 36.93 465.655 37.68 464.455 38.22C463.255 38.74 461.855 39 460.255 39H453.205ZM451.615 39L456.565 17.4H459.025L454.075 39H451.615ZM478.134 31.86L478.614 29.82H491.394L490.914 31.86H478.134ZM508.498 39.27C507.278 39.27 506.178 39.1 505.198 38.76C504.218 38.42 503.378 37.93 502.678 37.29C501.998 36.65 501.468 35.89 501.088 35.01C500.728 34.11 500.548 33.11 500.548 32.01H502.948C502.948 32.81 503.078 33.53 503.338 34.17C503.598 34.79 503.968 35.32 504.448 35.76C504.948 36.2 505.548 36.54 506.248 36.78C506.968 37 507.778 37.11 508.678 37.11C510.198 37.11 511.368 36.78 512.188 36.12C513.028 35.46 513.448 34.55 513.448 33.39C513.448 32.61 513.238 31.95 512.818 31.41C512.418 30.87 511.778 30.38 510.898 29.94L507.628 28.29C506.168 27.55 505.108 26.77 504.448 25.95C503.808 25.13 503.488 24.15 503.488 23.01C503.488 21.81 503.798 20.76 504.418 19.86C505.038 18.96 505.898 18.26 506.998 17.76C508.098 17.24 509.358 16.98 510.778 16.98C511.858 16.98 512.818 17.13 513.658 17.43C514.498 17.71 515.208 18.14 515.788 18.72C516.388 19.28 516.848 19.97 517.168 20.79C517.488 21.59 517.658 22.52 517.678 23.58H515.308C515.288 22.6 515.098 21.78 514.738 21.12C514.378 20.46 513.848 19.97 513.148 19.65C512.448 19.31 511.578 19.14 510.538 19.14C509.578 19.14 508.748 19.28 508.048 19.56C507.368 19.84 506.838 20.24 506.458 20.76C506.098 21.28 505.918 21.92 505.918 22.68C505.918 23.36 506.118 23.96 506.518 24.48C506.938 25 507.618 25.49 508.558 25.95L512.038 27.69C513.338 28.33 514.298 29.08 514.918 29.94C515.538 30.8 515.848 31.84 515.848 33.06C515.848 34.3 515.548 35.39 514.948 36.33C514.348 37.25 513.498 37.97 512.398 38.49C511.298 39.01 509.998 39.27 508.498 39.27ZM525.311 39.3C524.011 39.3 522.871 39.02 521.891 38.46C520.911 37.9 520.151 37.12 519.611 36.12C519.071 35.1 518.801 33.92 518.801 32.58C518.801 31.56 518.941 30.59 519.221 29.67C519.521 28.75 519.931 27.91 520.451 27.15C520.971 26.39 521.591 25.73 522.311 25.17C523.031 24.61 523.821 24.18 524.681 23.88C525.541 23.56 526.451 23.4 527.411 23.4C528.651 23.4 529.731 23.65 530.651 24.15C531.591 24.65 532.311 25.35 532.811 26.25C533.331 27.15 533.591 28.2 533.591 29.4C533.591 29.86 533.541 30.32 533.441 30.78C533.361 31.22 533.221 31.65 533.021 32.07H520.631L521.081 30.06H531.971L530.951 31.68C531.131 30.94 531.211 30.21 531.191 29.49C531.191 28.75 531.051 28.08 530.771 27.48C530.511 26.86 530.101 26.37 529.541 26.01C528.981 25.63 528.231 25.44 527.291 25.44C526.631 25.44 526.001 25.56 525.401 25.8C524.801 26.04 524.251 26.38 523.751 26.82C523.251 27.24 522.811 27.75 522.431 28.35C522.051 28.93 521.761 29.58 521.561 30.3C521.361 31 521.261 31.74 521.261 32.52C521.261 34 521.651 35.16 522.431 36C523.211 36.84 524.281 37.26 525.641 37.26C526.561 37.26 527.361 37.06 528.041 36.66C528.721 36.24 529.301 35.61 529.781 34.77H532.061C531.321 36.29 530.381 37.43 529.241 38.19C528.101 38.93 526.791 39.3 525.311 39.3ZM541.705 39.33C540.485 39.33 539.425 39.06 538.525 38.52C537.625 37.96 536.925 37.19 536.425 36.21C535.925 35.21 535.675 34.05 535.675 32.73C535.675 31.69 535.815 30.71 536.095 29.79C536.395 28.87 536.805 28.02 537.325 27.24C537.865 26.46 538.495 25.79 539.215 25.23C539.935 24.67 540.725 24.24 541.585 23.94C542.445 23.62 543.355 23.46 544.315 23.46C545.135 23.46 545.885 23.59 546.565 23.85C547.245 24.11 547.835 24.48 548.335 24.96C548.835 25.42 549.225 25.98 549.505 26.64C549.785 27.28 549.925 27.99 549.925 28.77H547.705C547.685 28.09 547.525 27.51 547.225 27.03C546.925 26.55 546.515 26.18 545.995 25.92C545.475 25.64 544.855 25.5 544.135 25.5C543.455 25.5 542.815 25.62 542.215 25.86C541.615 26.1 541.065 26.45 540.565 26.91C540.065 27.35 539.635 27.87 539.275 28.47C538.915 29.07 538.635 29.74 538.435 30.48C538.235 31.22 538.135 32 538.135 32.82C538.135 34.24 538.465 35.35 539.125 36.15C539.785 36.93 540.715 37.32 541.915 37.32C542.995 37.32 543.955 37.02 544.795 36.42C545.635 35.82 546.245 35 546.625 33.96H548.845C548.305 35.6 547.385 36.91 546.085 37.89C544.805 38.85 543.345 39.33 541.705 39.33ZM557.283 39.27C555.583 39.27 554.433 38.84 553.833 37.98C553.233 37.1 553.103 35.93 553.443 34.47L556.743 20.13L559.353 19.23L555.753 34.83C555.573 35.65 555.653 36.26 555.993 36.66C556.353 37.04 557.023 37.23 558.003 37.23C558.403 37.23 558.743 37.21 559.023 37.17C559.323 37.11 559.573 37.04 559.773 36.96L559.323 39C559.103 39.08 558.823 39.14 558.483 39.18C558.143 39.24 557.743 39.27 557.283 39.27ZM552.303 25.74L552.753 23.7H562.833L562.383 25.74H552.303ZM562.441 39L565.951 23.7H568.351L564.841 39H562.441ZM566.491 20.22L567.091 17.4H569.851L569.251 20.22H566.491ZM576.639 39.3C575.359 39.3 574.229 39.02 573.249 38.46C572.269 37.88 571.499 37.08 570.939 36.06C570.399 35.04 570.129 33.86 570.129 32.52C570.129 31.26 570.349 30.08 570.789 28.98C571.249 27.88 571.869 26.91 572.649 26.07C573.449 25.23 574.369 24.58 575.409 24.12C576.449 23.64 577.569 23.4 578.769 23.4C580.089 23.4 581.239 23.68 582.219 24.24C583.199 24.8 583.959 25.59 584.499 26.61C585.039 27.61 585.309 28.78 585.309 30.12C585.309 31.38 585.079 32.57 584.619 33.69C584.159 34.79 583.529 35.76 582.729 36.6C581.929 37.44 581.009 38.1 579.969 38.58C578.929 39.06 577.819 39.3 576.639 39.3ZM576.759 37.26C577.579 37.26 578.359 37.08 579.099 36.72C579.839 36.34 580.489 35.83 581.049 35.19C581.609 34.53 582.049 33.77 582.369 32.91C582.689 32.05 582.849 31.13 582.849 30.15C582.849 28.71 582.469 27.57 581.709 26.73C580.969 25.87 579.949 25.44 578.649 25.44C577.809 25.44 577.019 25.62 576.279 25.98C575.559 26.34 574.919 26.84 574.359 27.48C573.819 28.12 573.389 28.87 573.069 29.73C572.749 30.57 572.589 31.48 572.589 32.46C572.589 33.92 572.969 35.09 573.729 35.97C574.489 36.83 575.499 37.26 576.759 37.26ZM587.139 39L590.649 23.7H592.899L592.089 27.3H592.239L589.539 39H587.139ZM598.059 39L600.219 29.61C600.539 28.25 600.439 27.22 599.919 26.52C599.399 25.8 598.539 25.44 597.339 25.44C595.919 25.44 594.679 25.9 593.619 26.82C592.579 27.72 591.869 28.96 591.489 30.54L591.939 26.79C592.699 25.71 593.609 24.88 594.669 24.3C595.749 23.7 596.879 23.4 598.059 23.4C599.859 23.4 601.179 23.95 602.019 25.05C602.859 26.15 603.069 27.63 602.649 29.49L600.459 39H598.059ZM609.873 39L610.353 36.9C613.013 35.1 615.263 33.5 617.103 32.1C618.963 30.7 620.453 29.44 621.573 28.32C622.713 27.18 623.543 26.14 624.063 25.2C624.583 24.26 624.843 23.37 624.843 22.53C624.843 21.51 624.513 20.72 623.853 20.16C623.213 19.58 622.303 19.29 621.123 19.29C619.843 19.29 618.743 19.67 617.823 20.43C616.903 21.17 616.213 22.25 615.753 23.67H613.233C613.813 21.59 614.813 19.99 616.233 18.87C617.653 17.73 619.363 17.16 621.363 17.16C622.623 17.16 623.703 17.38 624.603 17.82C625.523 18.24 626.233 18.84 626.733 19.62C627.233 20.4 627.483 21.32 627.483 22.38C627.483 23.44 627.213 24.52 626.673 25.62C626.133 26.72 625.283 27.89 624.123 29.13C622.963 30.35 621.433 31.69 619.533 33.15C617.653 34.61 615.363 36.23 612.663 38.01L612.363 36.84H624.693L624.183 39H609.873ZM635.077 31.86L635.557 29.82H648.337L647.857 31.86H635.077ZM658.691 39L659.171 36.84H666.161C667.541 36.84 668.811 36.57 669.971 36.03C671.131 35.49 672.141 34.75 673.001 33.81C673.861 32.87 674.521 31.8 674.981 30.6C675.461 29.4 675.701 28.14 675.701 26.82C675.701 25.42 675.431 24.18 674.891 23.1C674.351 22 673.591 21.14 672.611 20.52C671.651 19.88 670.511 19.56 669.191 19.56H663.101L663.581 17.4H669.431C671.191 17.4 672.721 17.8 674.021 18.6C675.341 19.4 676.371 20.5 677.111 21.9C677.851 23.28 678.221 24.86 678.221 26.64C678.221 28.26 677.911 29.82 677.291 31.32C676.691 32.8 675.841 34.12 674.741 35.28C673.641 36.42 672.341 37.33 670.841 38.01C669.361 38.67 667.751 39 666.011 39H658.691ZM657.221 39L662.171 17.4H664.631L659.681 39H657.221ZM679.749 39L684.729 17.4H687.189L682.209 39H679.749ZM681.009 39L681.489 36.84H694.689L694.209 39H681.009ZM683.349 28.83L683.829 26.67H695.949L695.469 28.83H683.349ZM685.479 19.56L685.989 17.4H698.949L698.439 19.56H685.479ZM705.841 39.27C704.621 39.27 703.521 39.1 702.541 38.76C701.561 38.42 700.721 37.93 700.021 37.29C699.341 36.65 698.811 35.89 698.431 35.01C698.071 34.11 697.891 33.11 697.891 32.01H700.291C700.291 32.81 700.421 33.53 700.681 34.17C700.941 34.79 701.311 35.32 701.791 35.76C702.291 36.2 702.891 36.54 703.591 36.78C704.311 37 705.121 37.11 706.021 37.11C707.541 37.11 708.711 36.78 709.531 36.12C710.371 35.46 710.791 34.55 710.791 33.39C710.791 32.61 710.581 31.95 710.161 31.41C709.761 30.87 709.121 30.38 708.241 29.94L704.971 28.29C703.511 27.55 702.451 26.77 701.791 25.95C701.151 25.13 700.831 24.15 700.831 23.01C700.831 21.81 701.141 20.76 701.761 19.86C702.381 18.96 703.241 18.26 704.341 17.76C705.441 17.24 706.701 16.98 708.121 16.98C709.201 16.98 710.161 17.13 711.001 17.43C711.841 17.71 712.551 18.14 713.131 18.72C713.731 19.28 714.191 19.97 714.511 20.79C714.831 21.59 715.001 22.52 715.021 23.58H712.651C712.631 22.6 712.441 21.78 712.081 21.12C711.721 20.46 711.191 19.97 710.491 19.65C709.791 19.31 708.921 19.14 707.881 19.14C706.921 19.14 706.091 19.28 705.391 19.56C704.711 19.84 704.181 20.24 703.801 20.76C703.441 21.28 703.261 21.92 703.261 22.68C703.261 23.36 703.461 23.96 703.861 24.48C704.281 25 704.961 25.49 705.901 25.95L709.381 27.69C710.681 28.33 711.641 29.08 712.261 29.94C712.881 30.8 713.191 31.84 713.191 33.06C713.191 34.3 712.891 35.39 712.291 36.33C711.691 37.25 710.841 37.97 709.741 38.49C708.641 39.01 707.341 39.27 705.841 39.27ZM726.019 39L730.339 20.13L730.939 20.37C730.579 20.87 729.999 21.35 729.199 21.81C728.419 22.25 727.539 22.62 726.559 22.92C725.599 23.2 724.649 23.35 723.709 23.37L724.219 21.09C725.179 21.03 726.129 20.85 727.069 20.55C728.009 20.25 728.879 19.84 729.679 19.32C730.479 18.78 731.129 18.14 731.629 17.4H733.399L728.419 39H726.019ZM740.176 39.3C739.016 39.3 737.986 39.13 737.086 38.79C736.206 38.43 735.466 37.96 734.866 37.38C734.286 36.78 733.856 36.11 733.576 35.37C733.316 34.63 733.236 33.87 733.336 33.09H735.856C735.816 33.79 735.956 34.45 736.276 35.07C736.596 35.69 737.086 36.19 737.746 36.57C738.406 36.95 739.226 37.14 740.206 37.14C740.846 37.14 741.436 37.04 741.976 36.84C742.536 36.64 743.026 36.36 743.446 36C743.886 35.62 744.256 35.18 744.556 34.68C744.876 34.18 745.116 33.64 745.276 33.06C745.436 32.46 745.516 31.84 745.516 31.2C745.516 29.78 745.136 28.71 744.376 27.99C743.616 27.27 742.576 26.91 741.256 26.91C740.456 26.91 739.706 27.06 739.006 27.36C738.326 27.64 737.766 28.1 737.326 28.74H735.136L738.706 17.4H750.136L749.656 19.56H739.696L740.746 18.66L738.046 27.36L737.716 26.67C738.176 26.13 738.776 25.71 739.516 25.41C740.276 25.09 741.126 24.93 742.066 24.93C743.286 24.93 744.356 25.19 745.276 25.71C746.196 26.23 746.906 26.97 747.406 27.93C747.926 28.87 748.186 29.99 748.186 31.29C748.186 32.21 748.056 33.07 747.796 33.87C747.536 34.67 747.166 35.41 746.686 36.09C746.226 36.75 745.666 37.32 745.006 37.8C744.346 38.28 743.606 38.65 742.786 38.91C741.986 39.17 741.116 39.3 740.176 39.3ZM752.607 39C753.667 35.6 755.227 32.24 757.287 28.92C759.347 25.58 762.007 22.17 765.267 18.69L765.537 19.56H752.907L753.387 17.4H767.967L767.547 19.2C765.407 21.54 763.557 23.8 761.997 25.98C760.437 28.16 759.127 30.32 758.067 32.46C757.007 34.58 756.137 36.76 755.457 39H752.607ZM767.619 39L768.099 36.96H774.879C775.959 36.96 776.889 36.78 777.669 36.42C778.469 36.04 779.079 35.5 779.499 34.8C779.939 34.1 780.159 33.28 780.159 32.34C780.159 31.2 779.839 30.31 779.199 29.67C778.559 29.01 777.679 28.68 776.559 28.68H769.959L770.409 26.7H776.739C777.819 26.7 778.749 26.53 779.529 26.19C780.309 25.85 780.909 25.38 781.329 24.78C781.749 24.16 781.959 23.42 781.959 22.56C781.959 21.6 781.669 20.84 781.089 20.28C780.509 19.72 779.719 19.44 778.719 19.44H772.059L772.539 17.4H779.139C780.739 17.4 782.019 17.86 782.979 18.78C783.959 19.7 784.449 20.9 784.449 22.38C784.449 23.26 784.269 24.07 783.909 24.81C783.549 25.53 783.059 26.15 782.439 26.67C781.819 27.19 781.109 27.58 780.309 27.84C779.509 28.1 778.659 28.19 777.759 28.11L778.089 27.51C779.509 27.65 780.629 28.18 781.449 29.1C782.269 30.02 782.679 31.19 782.679 32.61C782.679 33.89 782.339 35.01 781.659 35.97C780.999 36.93 780.069 37.68 778.869 38.22C777.669 38.74 776.269 39 774.669 39H767.619ZM766.029 39L770.979 17.4H773.439L768.489 39H766.029ZM792.548 31.86L793.028 29.82H805.808L805.328 31.86H792.548ZM822.912 39.27C821.692 39.27 820.592 39.1 819.612 38.76C818.632 38.42 817.792 37.93 817.092 37.29C816.412 36.65 815.882 35.89 815.502 35.01C815.142 34.11 814.962 33.11 814.962 32.01H817.362C817.362 32.81 817.492 33.53 817.752 34.17C818.012 34.79 818.382 35.32 818.862 35.76C819.362 36.2 819.962 36.54 820.662 36.78C821.382 37 822.192 37.11 823.092 37.11C824.612 37.11 825.782 36.78 826.602 36.12C827.442 35.46 827.862 34.55 827.862 33.39C827.862 32.61 827.652 31.95 827.232 31.41C826.832 30.87 826.192 30.38 825.312 29.94L822.042 28.29C820.582 27.55 819.522 26.77 818.862 25.95C818.222 25.13 817.902 24.15 817.902 23.01C817.902 21.81 818.212 20.76 818.832 19.86C819.452 18.96 820.312 18.26 821.412 17.76C822.512 17.24 823.772 16.98 825.192 16.98C826.272 16.98 827.232 17.13 828.072 17.43C828.912 17.71 829.622 18.14 830.202 18.72C830.802 19.28 831.262 19.97 831.582 20.79C831.902 21.59 832.072 22.52 832.092 23.58H829.722C829.702 22.6 829.512 21.78 829.152 21.12C828.792 20.46 828.262 19.97 827.562 19.65C826.862 19.31 825.992 19.14 824.952 19.14C823.992 19.14 823.162 19.28 822.462 19.56C821.782 19.84 821.252 20.24 820.872 20.76C820.512 21.28 820.332 21.92 820.332 22.68C820.332 23.36 820.532 23.96 820.932 24.48C821.352 25 822.032 25.49 822.972 25.95L826.452 27.69C827.752 28.33 828.712 29.08 829.332 29.94C829.952 30.8 830.262 31.84 830.262 33.06C830.262 34.3 829.962 35.39 829.362 36.33C828.762 37.25 827.912 37.97 826.812 38.49C825.712 39.01 824.412 39.27 822.912 39.27ZM839.725 39.3C838.425 39.3 837.285 39.02 836.305 38.46C835.325 37.9 834.565 37.12 834.025 36.12C833.485 35.1 833.215 33.92 833.215 32.58C833.215 31.56 833.355 30.59 833.635 29.67C833.935 28.75 834.345 27.91 834.865 27.15C835.385 26.39 836.005 25.73 836.725 25.17C837.445 24.61 838.235 24.18 839.095 23.88C839.955 23.56 840.865 23.4 841.825 23.4C843.065 23.4 844.145 23.65 845.065 24.15C846.005 24.65 846.725 25.35 847.225 26.25C847.745 27.15 848.005 28.2 848.005 29.4C848.005 29.86 847.955 30.32 847.855 30.78C847.775 31.22 847.635 31.65 847.435 32.07H835.045L835.495 30.06H846.385L845.365 31.68C845.545 30.94 845.625 30.21 845.605 29.49C845.605 28.75 845.465 28.08 845.185 27.48C844.925 26.86 844.515 26.37 843.955 26.01C843.395 25.63 842.645 25.44 841.705 25.44C841.045 25.44 840.415 25.56 839.815 25.8C839.215 26.04 838.665 26.38 838.165 26.82C837.665 27.24 837.225 27.75 836.845 28.35C836.465 28.93 836.175 29.58 835.975 30.3C835.775 31 835.675 31.74 835.675 32.52C835.675 34 836.065 35.16 836.845 36C837.625 36.84 838.695 37.26 840.055 37.26C840.975 37.26 841.775 37.06 842.455 36.66C843.135 36.24 843.715 35.61 844.195 34.77H846.475C845.735 36.29 844.795 37.43 843.655 38.19C842.515 38.93 841.205 39.3 839.725 39.3ZM856.119 39.33C854.899 39.33 853.839 39.06 852.939 38.52C852.039 37.96 851.339 37.19 850.839 36.21C850.339 35.21 850.089 34.05 850.089 32.73C850.089 31.69 850.229 30.71 850.509 29.79C850.809 28.87 851.219 28.02 851.739 27.24C852.279 26.46 852.909 25.79 853.629 25.23C854.349 24.67 855.139 24.24 855.999 23.94C856.859 23.62 857.769 23.46 858.729 23.46C859.549 23.46 860.299 23.59 860.979 23.85C861.659 24.11 862.249 24.48 862.749 24.96C863.249 25.42 863.639 25.98 863.919 26.64C864.199 27.28 864.339 27.99 864.339 28.77H862.119C862.099 28.09 861.939 27.51 861.639 27.03C861.339 26.55 860.929 26.18 860.409 25.92C859.889 25.64 859.269 25.5 858.549 25.5C857.869 25.5 857.229 25.62 856.629 25.86C856.029 26.1 855.479 26.45 854.979 26.91C854.479 27.35 854.049 27.87 853.689 28.47C853.329 29.07 853.049 29.74 852.849 30.48C852.649 31.22 852.549 32 852.549 32.82C852.549 34.24 852.879 35.35 853.539 36.15C854.199 36.93 855.129 37.32 856.329 37.32C857.409 37.32 858.369 37.02 859.209 36.42C860.049 35.82 860.659 35 861.039 33.96H863.259C862.719 35.6 861.799 36.91 860.499 37.89C859.219 38.85 857.759 39.33 856.119 39.33ZM871.697 39.27C869.997 39.27 868.847 38.84 868.247 37.98C867.647 37.1 867.517 35.93 867.857 34.47L871.157 20.13L873.767 19.23L870.167 34.83C869.987 35.65 870.067 36.26 870.407 36.66C870.767 37.04 871.437 37.23 872.417 37.23C872.817 37.23 873.157 37.21 873.437 37.17C873.737 37.11 873.987 37.04 874.187 36.96L873.737 39C873.517 39.08 873.237 39.14 872.897 39.18C872.557 39.24 872.157 39.27 871.697 39.27ZM866.717 25.74L867.167 23.7H877.247L876.797 25.74H866.717ZM876.855 39L880.365 23.7H882.765L879.255 39H876.855ZM880.905 20.22L881.505 17.4H884.265L883.665 20.22H880.905ZM891.053 39.3C889.773 39.3 888.643 39.02 887.663 38.46C886.683 37.88 885.913 37.08 885.353 36.06C884.813 35.04 884.543 33.86 884.543 32.52C884.543 31.26 884.763 30.08 885.203 28.98C885.663 27.88 886.283 26.91 887.063 26.07C887.863 25.23 888.783 24.58 889.823 24.12C890.863 23.64 891.983 23.4 893.183 23.4C894.503 23.4 895.653 23.68 896.633 24.24C897.613 24.8 898.373 25.59 898.913 26.61C899.453 27.61 899.723 28.78 899.723 30.12C899.723 31.38 899.493 32.57 899.033 33.69C898.573 34.79 897.943 35.76 897.143 36.6C896.343 37.44 895.423 38.1 894.383 38.58C893.343 39.06 892.233 39.3 891.053 39.3ZM891.173 37.26C891.993 37.26 892.773 37.08 893.513 36.72C894.253 36.34 894.903 35.83 895.463 35.19C896.023 34.53 896.463 33.77 896.783 32.91C897.103 32.05 897.263 31.13 897.263 30.15C897.263 28.71 896.883 27.57 896.123 26.73C895.383 25.87 894.363 25.44 893.063 25.44C892.223 25.44 891.433 25.62 890.693 25.98C889.973 26.34 889.333 26.84 888.773 27.48C888.233 28.12 887.803 28.87 887.483 29.73C887.163 30.57 887.003 31.48 887.003 32.46C887.003 33.92 887.383 35.09 888.143 35.97C888.903 36.83 889.913 37.26 891.173 37.26ZM901.553 39L905.063 23.7H907.313L906.503 27.3H906.653L903.953 39H901.553ZM912.473 39L914.633 29.61C914.953 28.25 914.853 27.22 914.333 26.52C913.813 25.8 912.953 25.44 911.753 25.44C910.333 25.44 909.093 25.9 908.033 26.82C906.993 27.72 906.283 28.96 905.903 30.54L906.353 26.79C907.113 25.71 908.023 24.88 909.083 24.3C910.163 23.7 911.293 23.4 912.473 23.4C914.273 23.4 915.593 23.95 916.433 25.05C917.273 26.15 917.483 27.63 917.063 29.49L914.873 39H912.473ZM924.287 39L924.767 36.9C927.427 35.1 929.677 33.5 931.517 32.1C933.377 30.7 934.867 29.44 935.987 28.32C937.127 27.18 937.957 26.14 938.477 25.2C938.997 24.26 939.257 23.37 939.257 22.53C939.257 21.51 938.927 20.72 938.267 20.16C937.627 19.58 936.717 19.29 935.537 19.29C934.257 19.29 933.157 19.67 932.237 20.43C931.317 21.17 930.627 22.25 930.167 23.67H927.647C928.227 21.59 929.227 19.99 930.647 18.87C932.067 17.73 933.777 17.16 935.777 17.16C937.037 17.16 938.117 17.38 939.017 17.82C939.937 18.24 940.647 18.84 941.147 19.62C941.647 20.4 941.897 21.32 941.897 22.38C941.897 23.44 941.627 24.52 941.087 25.62C940.547 26.72 939.697 27.89 938.537 29.13C937.377 30.35 935.847 31.69 933.947 33.15C932.067 34.61 929.777 36.23 927.077 38.01L926.777 36.84H939.107L938.597 39H924.287ZM949.491 31.86L949.971 29.82H962.751L962.271 31.86H949.491ZM979.855 39.27C978.635 39.27 977.535 39.1 976.555 38.76C975.575 38.42 974.735 37.93 974.035 37.29C973.355 36.65 972.825 35.89 972.445 35.01C972.085 34.11 971.905 33.11 971.905 32.01H974.305C974.305 32.81 974.435 33.53 974.695 34.17C974.955 34.79 975.325 35.32 975.805 35.76C976.305 36.2 976.905 36.54 977.605 36.78C978.325 37 979.135 37.11 980.035 37.11C981.555 37.11 982.725 36.78 983.545 36.12C984.385 35.46 984.805 34.55 984.805 33.39C984.805 32.61 984.595 31.95 984.175 31.41C983.775 30.87 983.135 30.38 982.255 29.94L978.985 28.29C977.525 27.55 976.465 26.77 975.805 25.95C975.165 25.13 974.845 24.15 974.845 23.01C974.845 21.81 975.155 20.76 975.775 19.86C976.395 18.96 977.255 18.26 978.355 17.76C979.455 17.24 980.715 16.98 982.135 16.98C983.215 16.98 984.175 17.13 985.015 17.43C985.855 17.71 986.565 18.14 987.145 18.72C987.745 19.28 988.205 19.97 988.525 20.79C988.845 21.59 989.015 22.52 989.035 23.58H986.665C986.645 22.6 986.455 21.78 986.095 21.12C985.735 20.46 985.205 19.97 984.505 19.65C983.805 19.31 982.935 19.14 981.895 19.14C980.935 19.14 980.105 19.28 979.405 19.56C978.725 19.84 978.195 20.24 977.815 20.76C977.455 21.28 977.275 21.92 977.275 22.68C977.275 23.36 977.475 23.96 977.875 24.48C978.295 25 978.975 25.49 979.915 25.95L983.395 27.69C984.695 28.33 985.655 29.08 986.275 29.94C986.895 30.8 987.205 31.84 987.205 33.06C987.205 34.3 986.905 35.39 986.305 36.33C985.705 37.25 984.855 37.97 983.755 38.49C982.655 39.01 981.355 39.27 979.855 39.27ZM997.747 39.27C996.727 39.27 995.837 39.08 995.077 38.7C994.317 38.3 993.727 37.75 993.307 37.05C992.887 36.35 992.667 35.55 992.647 34.65L993.127 34.62L990.667 45.15H988.267L993.217 23.7H995.467L994.747 26.76L994.597 26.64C995.177 25.6 995.967 24.8 996.967 24.24C997.987 23.68 999.107 23.4 1000.33 23.4C1002.11 23.4 1003.51 23.97 1004.53 25.11C1005.55 26.23 1006.06 27.77 1006.06 29.73C1006.06 31.05 1005.84 32.29 1005.4 33.45C1004.98 34.59 1004.38 35.6 1003.6 36.48C1002.84 37.34 1001.96 38.02 1000.96 38.52C999.957 39.02 998.887 39.27 997.747 39.27ZM997.657 37.17C998.497 37.17 999.277 36.99 999.997 36.63C1000.72 36.25 1001.35 35.74 1001.89 35.1C1002.43 34.44 1002.85 33.68 1003.15 32.82C1003.45 31.96 1003.6 31.05 1003.6 30.09C1003.6 28.67 1003.25 27.55 1002.55 26.73C1001.87 25.91 1000.91 25.5 999.667 25.5C999.007 25.5 998.367 25.62 997.747 25.86C997.147 26.1 996.597 26.44 996.097 26.88C995.597 27.3 995.157 27.81 994.777 28.41C994.397 28.99 994.107 29.63 993.907 30.33C993.707 31.03 993.607 31.76 993.607 32.52C993.607 33.96 993.977 35.1 994.717 35.94C995.457 36.76 996.437 37.17 997.657 37.17ZM1007.87 39L1011.41 23.7H1013.66L1012.76 27.6H1012.91L1010.27 39H1007.87ZM1012.22 30.51L1012.64 26.85C1013.16 25.83 1013.9 25 1014.86 24.36C1015.84 23.72 1016.92 23.4 1018.1 23.4C1018.44 23.4 1018.73 23.43 1018.97 23.49C1019.21 23.53 1019.4 23.58 1019.54 23.64L1019 25.95C1018.84 25.89 1018.59 25.84 1018.25 25.8C1017.93 25.74 1017.62 25.71 1017.32 25.71C1016.02 25.71 1014.93 26.12 1014.05 26.94C1013.17 27.76 1012.56 28.95 1012.22 30.51ZM1018.89 39L1022.4 23.7H1024.8L1021.29 39H1018.89ZM1022.94 20.22L1023.54 17.4H1026.3L1025.7 20.22H1022.94ZM1026.12 39L1029.63 23.7H1031.88L1031.07 27.3H1031.22L1028.52 39H1026.12ZM1037.04 39L1039.2 29.61C1039.52 28.25 1039.42 27.22 1038.9 26.52C1038.38 25.8 1037.52 25.44 1036.32 25.44C1034.9 25.44 1033.66 25.9 1032.6 26.82C1031.56 27.72 1030.85 28.96 1030.47 30.54L1030.92 26.79C1031.68 25.71 1032.59 24.88 1033.65 24.3C1034.73 23.7 1035.86 23.4 1037.04 23.4C1038.84 23.4 1040.16 23.95 1041 25.05C1041.84 26.15 1042.05 27.63 1041.63 29.49L1039.44 39H1037.04ZM1049.72 45.45C1048.44 45.45 1047.31 45.26 1046.33 44.88C1045.37 44.5 1044.61 43.96 1044.05 43.26C1043.49 42.56 1043.17 41.74 1043.09 40.8H1045.31C1045.51 41.76 1046.01 42.43 1046.81 42.81C1047.63 43.21 1048.61 43.41 1049.75 43.41C1051.05 43.41 1052.17 43.03 1053.11 42.27C1054.07 41.51 1054.72 40.39 1055.06 38.91L1055.75 35.94L1055.9 36.33C1055.3 37.29 1054.51 38.03 1053.53 38.55C1052.57 39.05 1051.5 39.3 1050.32 39.3C1048.54 39.3 1047.14 38.73 1046.12 37.59C1045.1 36.45 1044.59 34.91 1044.59 32.97C1044.59 31.65 1044.8 30.42 1045.22 29.28C1045.66 28.12 1046.26 27.11 1047.02 26.25C1047.8 25.37 1048.69 24.68 1049.69 24.18C1050.69 23.68 1051.76 23.43 1052.9 23.43C1053.88 23.43 1054.74 23.61 1055.48 23.97C1056.22 24.33 1056.81 24.83 1057.25 25.47C1057.69 26.11 1057.94 26.85 1058 27.69L1057.7 27.99L1058.72 23.7H1060.97L1057.4 39.15C1056.94 41.15 1056.03 42.7 1054.67 43.8C1053.33 44.9 1051.68 45.45 1049.72 45.45ZM1050.98 37.2C1051.64 37.2 1052.27 37.08 1052.87 36.84C1053.49 36.6 1054.05 36.27 1054.55 35.85C1055.05 35.41 1055.49 34.9 1055.87 34.32C1056.25 33.72 1056.54 33.07 1056.74 32.37C1056.94 31.67 1057.04 30.94 1057.04 30.18C1057.04 28.74 1056.67 27.61 1055.93 26.79C1055.21 25.95 1054.23 25.53 1052.99 25.53C1051.87 25.53 1050.86 25.85 1049.96 26.49C1049.06 27.13 1048.35 27.99 1047.83 29.07C1047.31 30.13 1047.05 31.31 1047.05 32.61C1047.05 34.01 1047.4 35.13 1048.1 35.97C1048.8 36.79 1049.76 37.2 1050.98 37.2ZM1067.05 39L1067.53 36.9C1070.19 35.1 1072.44 33.5 1074.28 32.1C1076.14 30.7 1077.63 29.44 1078.75 28.32C1079.89 27.18 1080.72 26.14 1081.24 25.2C1081.76 24.26 1082.02 23.37 1082.02 22.53C1082.02 21.51 1081.69 20.72 1081.03 20.16C1080.39 19.58 1079.48 19.29 1078.3 19.29C1077.02 19.29 1075.92 19.67 1075 20.43C1074.08 21.17 1073.39 22.25 1072.93 23.67H1070.41C1070.99 21.59 1071.99 19.99 1073.41 18.87C1074.83 17.73 1076.54 17.16 1078.54 17.16C1079.8 17.16 1080.88 17.38 1081.78 17.82C1082.7 18.24 1083.41 18.84 1083.91 19.62C1084.41 20.4 1084.66 21.32 1084.66 22.38C1084.66 23.44 1084.39 24.52 1083.85 25.62C1083.31 26.72 1082.46 27.89 1081.3 29.13C1080.14 30.35 1078.61 31.69 1076.71 33.15C1074.83 34.61 1072.54 36.23 1069.84 38.01L1069.54 36.84H1081.87L1081.36 39H1067.05ZM1093.5 39.27C1092.02 39.27 1090.75 38.91 1089.69 38.19C1088.63 37.45 1087.82 36.44 1087.26 35.16C1086.7 33.88 1086.42 32.42 1086.42 30.78C1086.42 29.84 1086.51 28.85 1086.69 27.81C1086.89 26.77 1087.18 25.74 1087.56 24.72C1087.94 23.7 1088.41 22.74 1088.97 21.84C1089.55 20.92 1090.22 20.11 1090.98 19.41C1091.74 18.71 1092.59 18.16 1093.53 17.76C1094.49 17.34 1095.53 17.13 1096.65 17.13C1098.13 17.13 1099.4 17.48 1100.46 18.18C1101.52 18.88 1102.34 19.86 1102.92 21.12C1103.5 22.38 1103.79 23.84 1103.79 25.5C1103.79 26.44 1103.69 27.43 1103.49 28.47C1103.29 29.51 1103 30.55 1102.62 31.59C1102.24 32.61 1101.76 33.58 1101.18 34.5C1100.6 35.42 1099.93 36.24 1099.17 36.96C1098.41 37.68 1097.55 38.25 1096.59 38.67C1095.65 39.07 1094.62 39.27 1093.5 39.27ZM1093.59 37.11C1094.49 37.11 1095.3 36.92 1096.02 36.54C1096.74 36.14 1097.38 35.61 1097.94 34.95C1098.5 34.27 1098.98 33.51 1099.38 32.67C1099.8 31.83 1100.14 30.96 1100.4 30.06C1100.66 29.16 1100.85 28.29 1100.97 27.45C1101.11 26.59 1101.18 25.81 1101.18 25.11C1101.18 23.27 1100.77 21.84 1099.95 20.82C1099.13 19.8 1098.01 19.29 1096.59 19.29C1095.69 19.29 1094.87 19.49 1094.13 19.89C1093.41 20.27 1092.77 20.79 1092.21 21.45C1091.67 22.09 1091.2 22.82 1090.8 23.64C1090.4 24.46 1090.07 25.32 1089.81 26.22C1089.55 27.1 1089.36 27.96 1089.24 28.8C1089.12 29.64 1089.06 30.41 1089.06 31.11C1089.06 32.93 1089.45 34.39 1090.23 35.49C1091.01 36.57 1092.13 37.11 1093.59 37.11ZM1103.61 39L1104.09 36.9C1106.75 35.1 1109 33.5 1110.84 32.1C1112.7 30.7 1114.19 29.44 1115.31 28.32C1116.45 27.18 1117.28 26.14 1117.8 25.2C1118.32 24.26 1118.58 23.37 1118.58 22.53C1118.58 21.51 1118.25 20.72 1117.59 20.16C1116.95 19.58 1116.04 19.29 1114.86 19.29C1113.58 19.29 1112.48 19.67 1111.56 20.43C1110.64 21.17 1109.95 22.25 1109.49 23.67H1106.97C1107.55 21.59 1108.55 19.99 1109.97 18.87C1111.39 17.73 1113.1 17.16 1115.1 17.16C1116.36 17.16 1117.44 17.38 1118.34 17.82C1119.26 18.24 1119.97 18.84 1120.47 19.62C1120.97 20.4 1121.22 21.32 1121.22 22.38C1121.22 23.44 1120.95 24.52 1120.41 25.62C1119.87 26.72 1119.02 27.89 1117.86 29.13C1116.7 30.35 1115.17 31.69 1113.27 33.15C1111.39 34.61 1109.1 36.23 1106.4 38.01L1106.1 36.84H1118.43L1117.92 39H1103.61ZM1128.27 39.3C1127.11 39.3 1126.08 39.13 1125.18 38.79C1124.3 38.43 1123.56 37.96 1122.96 37.38C1122.38 36.78 1121.95 36.11 1121.67 35.37C1121.41 34.63 1121.33 33.87 1121.43 33.09H1123.95C1123.91 33.79 1124.05 34.45 1124.37 35.07C1124.69 35.69 1125.18 36.19 1125.84 36.57C1126.5 36.95 1127.32 37.14 1128.3 37.14C1128.94 37.14 1129.53 37.04 1130.07 36.84C1130.63 36.64 1131.12 36.36 1131.54 36C1131.98 35.62 1132.35 35.18 1132.65 34.68C1132.97 34.18 1133.21 33.64 1133.37 33.06C1133.53 32.46 1133.61 31.84 1133.61 31.2C1133.61 29.78 1133.23 28.71 1132.47 27.99C1131.71 27.27 1130.67 26.91 1129.35 26.91C1128.55 26.91 1127.8 27.06 1127.1 27.36C1126.42 27.64 1125.86 28.1 1125.42 28.74H1123.23L1126.8 17.4H1138.23L1137.75 19.56H1127.79L1128.84 18.66L1126.14 27.36L1125.81 26.67C1126.27 26.13 1126.87 25.71 1127.61 25.41C1128.37 25.09 1129.22 24.93 1130.16 24.93C1131.38 24.93 1132.45 25.19 1133.37 25.71C1134.29 26.23 1135 26.97 1135.5 27.93C1136.02 28.87 1136.28 29.99 1136.28 31.29C1136.28 32.21 1136.15 33.07 1135.89 33.87C1135.63 34.67 1135.26 35.41 1134.78 36.09C1134.32 36.75 1133.76 37.32 1133.1 37.8C1132.44 38.28 1131.7 38.65 1130.88 38.91C1130.08 39.17 1129.21 39.3 1128.27 39.3ZM1146.04 31.86L1146.52 29.82H1159.3L1158.82 31.86H1146.04ZM1169.66 39L1170.14 36.84H1177.13C1178.51 36.84 1179.78 36.57 1180.94 36.03C1182.1 35.49 1183.11 34.75 1183.97 33.81C1184.83 32.87 1185.49 31.8 1185.95 30.6C1186.43 29.4 1186.67 28.14 1186.67 26.82C1186.67 25.42 1186.4 24.18 1185.86 23.1C1185.32 22 1184.56 21.14 1183.58 20.52C1182.62 19.88 1181.48 19.56 1180.16 19.56H1174.07L1174.55 17.4H1180.4C1182.16 17.4 1183.69 17.8 1184.99 18.6C1186.31 19.4 1187.34 20.5 1188.08 21.9C1188.82 23.28 1189.19 24.86 1189.19 26.64C1189.19 28.26 1188.88 29.82 1188.26 31.32C1187.66 32.8 1186.81 34.12 1185.71 35.28C1184.61 36.42 1183.31 37.33 1181.81 38.01C1180.33 38.67 1178.72 39 1176.98 39H1169.66ZM1168.19 39L1173.14 17.4H1175.6L1170.65 39H1168.19ZM1190.72 39L1195.7 17.4H1198.16L1193.18 39H1190.72ZM1191.98 39L1192.46 36.84H1205.66L1205.18 39H1191.98ZM1194.32 28.83L1194.8 26.67H1206.92L1206.44 28.83H1194.32ZM1196.45 19.56L1196.96 17.4H1209.92L1209.41 19.56H1196.45ZM1216.81 39.27C1215.59 39.27 1214.49 39.1 1213.51 38.76C1212.53 38.42 1211.69 37.93 1210.99 37.29C1210.31 36.65 1209.78 35.89 1209.4 35.01C1209.04 34.11 1208.86 33.11 1208.86 32.01H1211.26C1211.26 32.81 1211.39 33.53 1211.65 34.17C1211.91 34.79 1212.28 35.32 1212.76 35.76C1213.26 36.2 1213.86 36.54 1214.56 36.78C1215.28 37 1216.09 37.11 1216.99 37.11C1218.51 37.11 1219.68 36.78 1220.5 36.12C1221.34 35.46 1221.76 34.55 1221.76 33.39C1221.76 32.61 1221.55 31.95 1221.13 31.41C1220.73 30.87 1220.09 30.38 1219.21 29.94L1215.94 28.29C1214.48 27.55 1213.42 26.77 1212.76 25.95C1212.12 25.13 1211.8 24.15 1211.8 23.01C1211.8 21.81 1212.11 20.76 1212.73 19.86C1213.35 18.96 1214.21 18.26 1215.31 17.76C1216.41 17.24 1217.67 16.98 1219.09 16.98C1220.17 16.98 1221.13 17.13 1221.97 17.43C1222.81 17.71 1223.52 18.14 1224.1 18.72C1224.7 19.28 1225.16 19.97 1225.48 20.79C1225.8 21.59 1225.97 22.52 1225.99 23.58H1223.62C1223.6 22.6 1223.41 21.78 1223.05 21.12C1222.69 20.46 1222.16 19.97 1221.46 19.65C1220.76 19.31 1219.89 19.14 1218.85 19.14C1217.89 19.14 1217.06 19.28 1216.36 19.56C1215.68 19.84 1215.15 20.24 1214.77 20.76C1214.41 21.28 1214.23 21.92 1214.23 22.68C1214.23 23.36 1214.43 23.96 1214.83 24.48C1215.25 25 1215.93 25.49 1216.87 25.95L1220.35 27.69C1221.65 28.33 1222.61 29.08 1223.23 29.94C1223.85 30.8 1224.16 31.84 1224.16 33.06C1224.16 34.3 1223.86 35.39 1223.26 36.33C1222.66 37.25 1221.81 37.97 1220.71 38.49C1219.61 39.01 1218.31 39.27 1216.81 39.27ZM1236.99 39L1241.31 20.13L1241.91 20.37C1241.55 20.87 1240.97 21.35 1240.17 21.81C1239.39 22.25 1238.51 22.62 1237.53 22.92C1236.57 23.2 1235.62 23.35 1234.68 23.37L1235.19 21.09C1236.15 21.03 1237.1 20.85 1238.04 20.55C1238.98 20.25 1239.85 19.84 1240.65 19.32C1241.45 18.78 1242.1 18.14 1242.6 17.4H1244.37L1239.39 39H1236.99ZM1251.14 39.3C1249.98 39.3 1248.95 39.13 1248.05 38.79C1247.17 38.43 1246.43 37.96 1245.83 37.38C1245.25 36.78 1244.82 36.11 1244.54 35.37C1244.28 34.63 1244.2 33.87 1244.3 33.09H1246.82C1246.78 33.79 1246.92 34.45 1247.24 35.07C1247.56 35.69 1248.05 36.19 1248.71 36.57C1249.37 36.95 1250.19 37.14 1251.17 37.14C1251.81 37.14 1252.4 37.04 1252.94 36.84C1253.5 36.64 1253.99 36.36 1254.41 36C1254.85 35.62 1255.22 35.18 1255.52 34.68C1255.84 34.18 1256.08 33.64 1256.24 33.06C1256.4 32.46 1256.48 31.84 1256.48 31.2C1256.48 29.78 1256.1 28.71 1255.34 27.99C1254.58 27.27 1253.54 26.91 1252.22 26.91C1251.42 26.91 1250.67 27.06 1249.97 27.36C1249.29 27.64 1248.73 28.1 1248.29 28.74H1246.1L1249.67 17.4H1261.1L1260.62 19.56H1250.66L1251.71 18.66L1249.01 27.36L1248.68 26.67C1249.14 26.13 1249.74 25.71 1250.48 25.41C1251.24 25.09 1252.09 24.93 1253.03 24.93C1254.25 24.93 1255.32 25.19 1256.24 25.71C1257.16 26.23 1257.87 26.97 1258.37 27.93C1258.89 28.87 1259.15 29.99 1259.15 31.29C1259.15 32.21 1259.02 33.07 1258.76 33.87C1258.5 34.67 1258.13 35.41 1257.65 36.09C1257.19 36.75 1256.63 37.32 1255.97 37.8C1255.31 38.28 1254.57 38.65 1253.75 38.91C1252.95 39.17 1252.08 39.3 1251.14 39.3ZM1263.57 39C1264.63 35.6 1266.19 32.24 1268.25 28.92C1270.31 25.58 1272.97 22.17 1276.23 18.69L1276.5 19.56H1263.87L1264.35 17.4H1278.93L1278.51 19.2C1276.37 21.54 1274.52 23.8 1272.96 25.98C1271.4 28.16 1270.09 30.32 1269.03 32.46C1267.97 34.58 1267.1 36.76 1266.42 39H1263.57ZM1278.59 39L1279.07 36.96H1285.85C1286.93 36.96 1287.86 36.78 1288.64 36.42C1289.44 36.04 1290.05 35.5 1290.47 34.8C1290.91 34.1 1291.13 33.28 1291.13 32.34C1291.13 31.2 1290.81 30.31 1290.17 29.67C1289.53 29.01 1288.65 28.68 1287.53 28.68H1280.93L1281.38 26.7H1287.71C1288.79 26.7 1289.72 26.53 1290.5 26.19C1291.28 25.85 1291.88 25.38 1292.3 24.78C1292.72 24.16 1292.93 23.42 1292.93 22.56C1292.93 21.6 1292.64 20.84 1292.06 20.28C1291.48 19.72 1290.69 19.44 1289.69 19.44H1283.03L1283.51 17.4H1290.11C1291.71 17.4 1292.99 17.86 1293.95 18.78C1294.93 19.7 1295.42 20.9 1295.42 22.38C1295.42 23.26 1295.24 24.07 1294.88 24.81C1294.52 25.53 1294.03 26.15 1293.41 26.67C1292.79 27.19 1292.08 27.58 1291.28 27.84C1290.48 28.1 1289.63 28.19 1288.73 28.11L1289.06 27.51C1290.48 27.65 1291.6 28.18 1292.42 29.1C1293.24 30.02 1293.65 31.19 1293.65 32.61C1293.65 33.89 1293.31 35.01 1292.63 35.97C1291.97 36.93 1291.04 37.68 1289.84 38.22C1288.64 38.74 1287.24 39 1285.64 39H1278.59ZM1277 39L1281.95 17.4H1284.41L1279.46 39H1277ZM1303.51 31.86L1303.99 29.82H1316.77L1316.29 31.86H1303.51ZM1333.88 39.27C1332.66 39.27 1331.56 39.1 1330.58 38.76C1329.6 38.42 1328.76 37.93 1328.06 37.29C1327.38 36.65 1326.85 35.89 1326.47 35.01C1326.11 34.11 1325.93 33.11 1325.93 32.01H1328.33C1328.33 32.81 1328.46 33.53 1328.72 34.17C1328.98 34.79 1329.35 35.32 1329.83 35.76C1330.33 36.2 1330.93 36.54 1331.63 36.78C1332.35 37 1333.16 37.11 1334.06 37.11C1335.58 37.11 1336.75 36.78 1337.57 36.12C1338.41 35.46 1338.83 34.55 1338.83 33.39C1338.83 32.61 1338.62 31.95 1338.2 31.41C1337.8 30.87 1337.16 30.38 1336.28 29.94L1333.01 28.29C1331.55 27.55 1330.49 26.77 1329.83 25.95C1329.19 25.13 1328.87 24.15 1328.87 23.01C1328.87 21.81 1329.18 20.76 1329.8 19.86C1330.42 18.96 1331.28 18.26 1332.38 17.76C1333.48 17.24 1334.74 16.98 1336.16 16.98C1337.24 16.98 1338.2 17.13 1339.04 17.43C1339.88 17.71 1340.59 18.14 1341.17 18.72C1341.77 19.28 1342.23 19.97 1342.55 20.79C1342.87 21.59 1343.04 22.52 1343.06 23.58H1340.69C1340.67 22.6 1340.48 21.78 1340.12 21.12C1339.76 20.46 1339.23 19.97 1338.53 19.65C1337.83 19.31 1336.96 19.14 1335.92 19.14C1334.96 19.14 1334.13 19.28 1333.43 19.56C1332.75 19.84 1332.22 20.24 1331.84 20.76C1331.48 21.28 1331.3 21.92 1331.3 22.68C1331.3 23.36 1331.5 23.96 1331.9 24.48C1332.32 25 1333 25.49 1333.94 25.95L1337.42 27.69C1338.72 28.33 1339.68 29.08 1340.3 29.94C1340.92 30.8 1341.23 31.84 1341.23 33.06C1341.23 34.3 1340.93 35.39 1340.33 36.33C1339.73 37.25 1338.88 37.97 1337.78 38.49C1336.68 39.01 1335.38 39.27 1333.88 39.27ZM1350.69 39.3C1349.39 39.3 1348.25 39.02 1347.27 38.46C1346.29 37.9 1345.53 37.12 1344.99 36.12C1344.45 35.1 1344.18 33.92 1344.18 32.58C1344.18 31.56 1344.32 30.59 1344.6 29.67C1344.9 28.75 1345.31 27.91 1345.83 27.15C1346.35 26.39 1346.97 25.73 1347.69 25.17C1348.41 24.61 1349.2 24.18 1350.06 23.88C1350.92 23.56 1351.83 23.4 1352.79 23.4C1354.03 23.4 1355.11 23.65 1356.03 24.15C1356.97 24.65 1357.69 25.35 1358.19 26.25C1358.71 27.15 1358.97 28.2 1358.97 29.4C1358.97 29.86 1358.92 30.32 1358.82 30.78C1358.74 31.22 1358.6 31.65 1358.4 32.07H1346.01L1346.46 30.06H1357.35L1356.33 31.68C1356.51 30.94 1356.59 30.21 1356.57 29.49C1356.57 28.75 1356.43 28.08 1356.15 27.48C1355.89 26.86 1355.48 26.37 1354.92 26.01C1354.36 25.63 1353.61 25.44 1352.67 25.44C1352.01 25.44 1351.38 25.56 1350.78 25.8C1350.18 26.04 1349.63 26.38 1349.13 26.82C1348.63 27.24 1348.19 27.75 1347.81 28.35C1347.43 28.93 1347.14 29.58 1346.94 30.3C1346.74 31 1346.64 31.74 1346.64 32.52C1346.64 34 1347.03 35.16 1347.81 36C1348.59 36.84 1349.66 37.26 1351.02 37.26C1351.94 37.26 1352.74 37.06 1353.42 36.66C1354.1 36.24 1354.68 35.61 1355.16 34.77H1357.44C1356.7 36.29 1355.76 37.43 1354.62 38.19C1353.48 38.93 1352.17 39.3 1350.69 39.3ZM1367.09 39.33C1365.87 39.33 1364.81 39.06 1363.91 38.52C1363.01 37.96 1362.31 37.19 1361.81 36.21C1361.31 35.21 1361.06 34.05 1361.06 32.73C1361.06 31.69 1361.2 30.71 1361.48 29.79C1361.78 28.87 1362.19 28.02 1362.71 27.24C1363.25 26.46 1363.88 25.79 1364.6 25.23C1365.32 24.67 1366.11 24.24 1366.97 23.94C1367.83 23.62 1368.74 23.46 1369.7 23.46C1370.52 23.46 1371.27 23.59 1371.95 23.85C1372.63 24.11 1373.22 24.48 1373.72 24.96C1374.22 25.42 1374.61 25.98 1374.89 26.64C1375.17 27.28 1375.31 27.99 1375.31 28.77H1373.09C1373.07 28.09 1372.91 27.51 1372.61 27.03C1372.31 26.55 1371.9 26.18 1371.38 25.92C1370.86 25.64 1370.24 25.5 1369.52 25.5C1368.84 25.5 1368.2 25.62 1367.6 25.86C1367 26.1 1366.45 26.45 1365.95 26.91C1365.45 27.35 1365.02 27.87 1364.66 28.47C1364.3 29.07 1364.02 29.74 1363.82 30.48C1363.62 31.22 1363.52 32 1363.52 32.82C1363.52 34.24 1363.85 35.35 1364.51 36.15C1365.17 36.93 1366.1 37.32 1367.3 37.32C1368.38 37.32 1369.34 37.02 1370.18 36.42C1371.02 35.82 1371.63 35 1372.01 33.96H1374.23C1373.69 35.6 1372.77 36.91 1371.47 37.89C1370.19 38.85 1368.73 39.33 1367.09 39.33ZM1382.66 39.27C1380.96 39.27 1379.81 38.84 1379.21 37.98C1378.61 37.1 1378.48 35.93 1378.82 34.47L1382.12 20.13L1384.73 19.23L1381.13 34.83C1380.95 35.65 1381.03 36.26 1381.37 36.66C1381.73 37.04 1382.4 37.23 1383.38 37.23C1383.78 37.23 1384.12 37.21 1384.4 37.17C1384.7 37.11 1384.95 37.04 1385.15 36.96L1384.7 39C1384.48 39.08 1384.2 39.14 1383.86 39.18C1383.52 39.24 1383.12 39.27 1382.66 39.27ZM1377.68 25.74L1378.13 23.7H1388.21L1387.76 25.74H1377.68ZM1387.82 39L1391.33 23.7H1393.73L1390.22 39H1387.82ZM1391.87 20.22L1392.47 17.4H1395.23L1394.63 20.22H1391.87ZM1402.02 39.3C1400.74 39.3 1399.61 39.02 1398.63 38.46C1397.65 37.88 1396.88 37.08 1396.32 36.06C1395.78 35.04 1395.51 33.86 1395.51 32.52C1395.51 31.26 1395.73 30.08 1396.17 28.98C1396.63 27.88 1397.25 26.91 1398.03 26.07C1398.83 25.23 1399.75 24.58 1400.79 24.12C1401.83 23.64 1402.95 23.4 1404.15 23.4C1405.47 23.4 1406.62 23.68 1407.6 24.24C1408.58 24.8 1409.34 25.59 1409.88 26.61C1410.42 27.61 1410.69 28.78 1410.69 30.12C1410.69 31.38 1410.46 32.57 1410 33.69C1409.54 34.79 1408.91 35.76 1408.11 36.6C1407.31 37.44 1406.39 38.1 1405.35 38.58C1404.31 39.06 1403.2 39.3 1402.02 39.3ZM1402.14 37.26C1402.96 37.26 1403.74 37.08 1404.48 36.72C1405.22 36.34 1405.87 35.83 1406.43 35.19C1406.99 34.53 1407.43 33.77 1407.75 32.91C1408.07 32.05 1408.23 31.13 1408.23 30.15C1408.23 28.71 1407.85 27.57 1407.09 26.73C1406.35 25.87 1405.33 25.44 1404.03 25.44C1403.19 25.44 1402.4 25.62 1401.66 25.98C1400.94 26.34 1400.3 26.84 1399.74 27.48C1399.2 28.12 1398.77 28.87 1398.45 29.73C1398.13 30.57 1397.97 31.48 1397.97 32.46C1397.97 33.92 1398.35 35.09 1399.11 35.97C1399.87 36.83 1400.88 37.26 1402.14 37.26ZM1412.52 39L1416.03 23.7H1418.28L1417.47 27.3H1417.62L1414.92 39H1412.52ZM1423.44 39L1425.6 29.61C1425.92 28.25 1425.82 27.22 1425.3 26.52C1424.78 25.8 1423.92 25.44 1422.72 25.44C1421.3 25.44 1420.06 25.9 1419 26.82C1417.96 27.72 1417.25 28.96 1416.87 30.54L1417.32 26.79C1418.08 25.71 1418.99 24.88 1420.05 24.3C1421.13 23.7 1422.26 23.4 1423.44 23.4C1425.24 23.4 1426.56 23.95 1427.4 25.05C1428.24 26.15 1428.45 27.63 1428.03 29.49L1425.84 39H1423.44ZM1435.25 39L1435.73 36.9C1438.39 35.1 1440.64 33.5 1442.48 32.1C1444.34 30.7 1445.83 29.44 1446.95 28.32C1448.09 27.18 1448.92 26.14 1449.44 25.2C1449.96 24.26 1450.22 23.37 1450.22 22.53C1450.22 21.51 1449.89 20.72 1449.23 20.16C1448.59 19.58 1447.68 19.29 1446.5 19.29C1445.22 19.29 1444.12 19.67 1443.2 20.43C1442.28 21.17 1441.59 22.25 1441.13 23.67H1438.61C1439.19 21.59 1440.19 19.99 1441.61 18.87C1443.03 17.73 1444.74 17.16 1446.74 17.16C1448 17.16 1449.08 17.38 1449.98 17.82C1450.9 18.24 1451.61 18.84 1452.11 19.62C1452.61 20.4 1452.86 21.32 1452.86 22.38C1452.86 23.44 1452.59 24.52 1452.05 25.62C1451.51 26.72 1450.66 27.89 1449.5 29.13C1448.34 30.35 1446.81 31.69 1444.91 33.15C1443.03 34.61 1440.74 36.23 1438.04 38.01L1437.74 36.84H1450.07L1449.56 39H1435.25ZM1460.46 31.86L1460.94 29.82H1473.72L1473.24 31.86H1460.46ZM1490.82 39.27C1489.6 39.27 1488.5 39.1 1487.52 38.76C1486.54 38.42 1485.7 37.93 1485 37.29C1484.32 36.65 1483.79 35.89 1483.41 35.01C1483.05 34.11 1482.87 33.11 1482.87 32.01H1485.27C1485.27 32.81 1485.4 33.53 1485.66 34.17C1485.92 34.79 1486.29 35.32 1486.77 35.76C1487.27 36.2 1487.87 36.54 1488.57 36.78C1489.29 37 1490.1 37.11 1491 37.11C1492.52 37.11 1493.69 36.78 1494.51 36.12C1495.35 35.46 1495.77 34.55 1495.77 33.39C1495.77 32.61 1495.56 31.95 1495.14 31.41C1494.74 30.87 1494.1 30.38 1493.22 29.94L1489.95 28.29C1488.49 27.55 1487.43 26.77 1486.77 25.95C1486.13 25.13 1485.81 24.15 1485.81 23.01C1485.81 21.81 1486.12 20.76 1486.74 19.86C1487.36 18.96 1488.22 18.26 1489.32 17.76C1490.42 17.24 1491.68 16.98 1493.1 16.98C1494.18 16.98 1495.14 17.13 1495.98 17.43C1496.82 17.71 1497.53 18.14 1498.11 18.72C1498.71 19.28 1499.17 19.97 1499.49 20.79C1499.81 21.59 1499.98 22.52 1500 23.58H1497.63C1497.61 22.6 1497.42 21.78 1497.06 21.12C1496.7 20.46 1496.17 19.97 1495.47 19.65C1494.77 19.31 1493.9 19.14 1492.86 19.14C1491.9 19.14 1491.07 19.28 1490.37 19.56C1489.69 19.84 1489.16 20.24 1488.78 20.76C1488.42 21.28 1488.24 21.92 1488.24 22.68C1488.24 23.36 1488.44 23.96 1488.84 24.48C1489.26 25 1489.94 25.49 1490.88 25.95L1494.36 27.69C1495.66 28.33 1496.62 29.08 1497.24 29.94C1497.86 30.8 1498.17 31.84 1498.17 33.06C1498.17 34.3 1497.87 35.39 1497.27 36.33C1496.67 37.25 1495.82 37.97 1494.72 38.49C1493.62 39.01 1492.32 39.27 1490.82 39.27ZM1508.71 39.27C1507.69 39.27 1506.8 39.08 1506.04 38.7C1505.28 38.3 1504.69 37.75 1504.27 37.05C1503.85 36.35 1503.63 35.55 1503.61 34.65L1504.09 34.62L1501.63 45.15H1499.23L1504.18 23.7H1506.43L1505.71 26.76L1505.56 26.64C1506.14 25.6 1506.93 24.8 1507.93 24.24C1508.95 23.68 1510.07 23.4 1511.29 23.4C1513.07 23.4 1514.47 23.97 1515.49 25.11C1516.51 26.23 1517.02 27.77 1517.02 29.73C1517.02 31.05 1516.8 32.29 1516.36 33.45C1515.94 34.59 1515.34 35.6 1514.56 36.48C1513.8 37.34 1512.92 38.02 1511.92 38.52C1510.92 39.02 1509.85 39.27 1508.71 39.27ZM1508.62 37.17C1509.46 37.17 1510.24 36.99 1510.96 36.63C1511.68 36.25 1512.31 35.74 1512.85 35.1C1513.39 34.44 1513.81 33.68 1514.11 32.82C1514.41 31.96 1514.56 31.05 1514.56 30.09C1514.56 28.67 1514.21 27.55 1513.51 26.73C1512.83 25.91 1511.87 25.5 1510.63 25.5C1509.97 25.5 1509.33 25.62 1508.71 25.86C1508.11 26.1 1507.56 26.44 1507.06 26.88C1506.56 27.3 1506.12 27.81 1505.74 28.41C1505.36 28.99 1505.07 29.63 1504.87 30.33C1504.67 31.03 1504.57 31.76 1504.57 32.52C1504.57 33.96 1504.94 35.1 1505.68 35.94C1506.42 36.76 1507.4 37.17 1508.62 37.17ZM1518.84 39L1522.38 23.7H1524.63L1523.73 27.6H1523.88L1521.24 39H1518.84ZM1523.19 30.51L1523.61 26.85C1524.13 25.83 1524.87 25 1525.83 24.36C1526.81 23.72 1527.89 23.4 1529.07 23.4C1529.41 23.4 1529.7 23.43 1529.94 23.49C1530.18 23.53 1530.37 23.58 1530.51 23.64L1529.97 25.95C1529.81 25.89 1529.56 25.84 1529.22 25.8C1528.9 25.74 1528.59 25.71 1528.29 25.71C1526.99 25.71 1525.9 26.12 1525.02 26.94C1524.14 27.76 1523.53 28.95 1523.19 30.51ZM1529.85 39L1533.36 23.7H1535.76L1532.25 39H1529.85ZM1533.9 20.22L1534.5 17.4H1537.26L1536.66 20.22H1533.9ZM1537.09 39L1540.6 23.7H1542.85L1542.04 27.3H1542.19L1539.49 39H1537.09ZM1548.01 39L1550.17 29.61C1550.49 28.25 1550.39 27.22 1549.87 26.52C1549.35 25.8 1548.49 25.44 1547.29 25.44C1545.87 25.44 1544.63 25.9 1543.57 26.82C1542.53 27.72 1541.82 28.96 1541.44 30.54L1541.89 26.79C1542.65 25.71 1543.56 24.88 1544.62 24.3C1545.7 23.7 1546.83 23.4 1548.01 23.4C1549.81 23.4 1551.13 23.95 1551.97 25.05C1552.81 26.15 1553.02 27.63 1552.6 29.49L1550.41 39H1548.01ZM1560.69 45.45C1559.41 45.45 1558.28 45.26 1557.3 44.88C1556.34 44.5 1555.58 43.96 1555.02 43.26C1554.46 42.56 1554.14 41.74 1554.06 40.8H1556.28C1556.48 41.76 1556.98 42.43 1557.78 42.81C1558.6 43.21 1559.58 43.41 1560.72 43.41C1562.02 43.41 1563.14 43.03 1564.08 42.27C1565.04 41.51 1565.69 40.39 1566.03 38.91L1566.72 35.94L1566.87 36.33C1566.27 37.29 1565.48 38.03 1564.5 38.55C1563.54 39.05 1562.47 39.3 1561.29 39.3C1559.51 39.3 1558.11 38.73 1557.09 37.59C1556.07 36.45 1555.56 34.91 1555.56 32.97C1555.56 31.65 1555.77 30.42 1556.19 29.28C1556.63 28.12 1557.23 27.11 1557.99 26.25C1558.77 25.37 1559.66 24.68 1560.66 24.18C1561.66 23.68 1562.73 23.43 1563.87 23.43C1564.85 23.43 1565.71 23.61 1566.45 23.97C1567.19 24.33 1567.78 24.83 1568.22 25.47C1568.66 26.11 1568.91 26.85 1568.97 27.69L1568.67 27.99L1569.69 23.7H1571.94L1568.37 39.15C1567.91 41.15 1567 42.7 1565.64 43.8C1564.3 44.9 1562.65 45.45 1560.69 45.45ZM1561.95 37.2C1562.61 37.2 1563.24 37.08 1563.84 36.84C1564.46 36.6 1565.02 36.27 1565.52 35.85C1566.02 35.41 1566.46 34.9 1566.84 34.32C1567.22 33.72 1567.51 33.07 1567.71 32.37C1567.91 31.67 1568.01 30.94 1568.01 30.18C1568.01 28.74 1567.64 27.61 1566.9 26.79C1566.18 25.95 1565.2 25.53 1563.96 25.53C1562.84 25.53 1561.83 25.85 1560.93 26.49C1560.03 27.13 1559.32 27.99 1558.8 29.07C1558.28 30.13 1558.02 31.31 1558.02 32.61C1558.02 34.01 1558.37 35.13 1559.07 35.97C1559.77 36.79 1560.73 37.2 1561.95 37.2ZM1578.02 39L1578.5 36.9C1581.16 35.1 1583.41 33.5 1585.25 32.1C1587.11 30.7 1588.6 29.44 1589.72 28.32C1590.86 27.18 1591.69 26.14 1592.21 25.2C1592.73 24.26 1592.99 23.37 1592.99 22.53C1592.99 21.51 1592.66 20.72 1592 20.16C1591.36 19.58 1590.45 19.29 1589.27 19.29C1587.99 19.29 1586.89 19.67 1585.97 20.43C1585.05 21.17 1584.36 22.25 1583.9 23.67H1581.38C1581.96 21.59 1582.96 19.99 1584.38 18.87C1585.8 17.73 1587.51 17.16 1589.51 17.16C1590.77 17.16 1591.85 17.38 1592.75 17.82C1593.67 18.24 1594.38 18.84 1594.88 19.62C1595.38 20.4 1595.63 21.32 1595.63 22.38C1595.63 23.44 1595.36 24.52 1594.82 25.62C1594.28 26.72 1593.43 27.89 1592.27 29.13C1591.11 30.35 1589.58 31.69 1587.68 33.15C1585.8 34.61 1583.51 36.23 1580.81 38.01L1580.51 36.84H1592.84L1592.33 39H1578.02ZM1604.47 39.27C1602.99 39.27 1601.72 38.91 1600.66 38.19C1599.6 37.45 1598.79 36.44 1598.23 35.16C1597.67 33.88 1597.39 32.42 1597.39 30.78C1597.39 29.84 1597.48 28.85 1597.66 27.81C1597.86 26.77 1598.15 25.74 1598.53 24.72C1598.91 23.7 1599.38 22.74 1599.94 21.84C1600.52 20.92 1601.19 20.11 1601.95 19.41C1602.71 18.71 1603.56 18.16 1604.5 17.76C1605.46 17.34 1606.5 17.13 1607.62 17.13C1609.1 17.13 1610.37 17.48 1611.43 18.18C1612.49 18.88 1613.31 19.86 1613.89 21.12C1614.47 22.38 1614.76 23.84 1614.76 25.5C1614.76 26.44 1614.66 27.43 1614.46 28.47C1614.26 29.51 1613.97 30.55 1613.59 31.59C1613.21 32.61 1612.73 33.58 1612.15 34.5C1611.57 35.42 1610.9 36.24 1610.14 36.96C1609.38 37.68 1608.52 38.25 1607.56 38.67C1606.62 39.07 1605.59 39.27 1604.47 39.27ZM1604.56 37.11C1605.46 37.11 1606.27 36.92 1606.99 36.54C1607.71 36.14 1608.35 35.61 1608.91 34.95C1609.47 34.27 1609.95 33.51 1610.35 32.67C1610.77 31.83 1611.11 30.96 1611.37 30.06C1611.63 29.16 1611.82 28.29 1611.94 27.45C1612.08 26.59 1612.15 25.81 1612.15 25.11C1612.15 23.27 1611.74 21.84 1610.92 20.82C1610.1 19.8 1608.98 19.29 1607.56 19.29C1606.66 19.29 1605.84 19.49 1605.1 19.89C1604.38 20.27 1603.74 20.79 1603.18 21.45C1602.64 22.09 1602.17 22.82 1601.77 23.64C1601.37 24.46 1601.04 25.32 1600.78 26.22C1600.52 27.1 1600.33 27.96 1600.21 28.8C1600.09 29.64 1600.03 30.41 1600.03 31.11C1600.03 32.93 1600.42 34.39 1601.2 35.49C1601.98 36.57 1603.1 37.11 1604.56 37.11ZM1614.58 39L1615.06 36.9C1617.72 35.1 1619.97 33.5 1621.81 32.1C1623.67 30.7 1625.16 29.44 1626.28 28.32C1627.42 27.18 1628.25 26.14 1628.77 25.2C1629.29 24.26 1629.55 23.37 1629.55 22.53C1629.55 21.51 1629.22 20.72 1628.56 20.16C1627.92 19.58 1627.01 19.29 1625.83 19.29C1624.55 19.29 1623.45 19.67 1622.53 20.43C1621.61 21.17 1620.92 22.25 1620.46 23.67H1617.94C1618.52 21.59 1619.52 19.99 1620.94 18.87C1622.36 17.73 1624.07 17.16 1626.07 17.16C1627.33 17.16 1628.41 17.38 1629.31 17.82C1630.23 18.24 1630.94 18.84 1631.44 19.62C1631.94 20.4 1632.19 21.32 1632.19 22.38C1632.19 23.44 1631.92 24.52 1631.38 25.62C1630.84 26.72 1629.99 27.89 1628.83 29.13C1627.67 30.35 1626.14 31.69 1624.24 33.15C1622.36 34.61 1620.07 36.23 1617.37 38.01L1617.07 36.84H1629.4L1628.89 39H1614.58ZM1639.24 39.3C1638.08 39.3 1637.05 39.13 1636.15 38.79C1635.27 38.43 1634.53 37.96 1633.93 37.38C1633.35 36.78 1632.92 36.11 1632.64 35.37C1632.38 34.63 1632.3 33.87 1632.4 33.09H1634.92C1634.88 33.79 1635.02 34.45 1635.34 35.07C1635.66 35.69 1636.15 36.19 1636.81 36.57C1637.47 36.95 1638.29 37.14 1639.27 37.14C1639.91 37.14 1640.5 37.04 1641.04 36.84C1641.6 36.64 1642.09 36.36 1642.51 36C1642.95 35.62 1643.32 35.18 1643.62 34.68C1643.94 34.18 1644.18 33.64 1644.34 33.06C1644.5 32.46 1644.58 31.84 1644.58 31.2C1644.58 29.78 1644.2 28.71 1643.44 27.99C1642.68 27.27 1641.64 26.91 1640.32 26.91C1639.52 26.91 1638.77 27.06 1638.07 27.36C1637.39 27.64 1636.83 28.1 1636.39 28.74H1634.2L1637.77 17.4H1649.2L1648.72 19.56H1638.76L1639.81 18.66L1637.11 27.36L1636.78 26.67C1637.24 26.13 1637.84 25.71 1638.58 25.41C1639.34 25.09 1640.19 24.93 1641.13 24.93C1642.35 24.93 1643.42 25.19 1644.34 25.71C1645.26 26.23 1645.97 26.97 1646.47 27.93C1646.99 28.87 1647.25 29.99 1647.25 31.29C1647.25 32.21 1647.12 33.07 1646.86 33.87C1646.6 34.67 1646.23 35.41 1645.75 36.09C1645.29 36.75 1644.73 37.32 1644.07 37.8C1643.41 38.28 1642.67 38.65 1641.85 38.91C1641.05 39.17 1640.18 39.3 1639.24 39.3Z" fill="#AFAFAF"/>
</svg>
