<svg width="83" height="83" viewBox="0 0 83 83" fill="none" xmlns="http://www.w3.org/2000/svg">
<circle cx="41.4999" cy="41.4999" r="41.4999" fill="white"/>
<circle cx="41.5" cy="41.4999" r="38.0416" stroke="black" stroke-width="0.628787"/>
<path d="M65.6067 30.2843L74.7546 31.7319L74.936 32.5766L65.8058 31.2112L65.6067 30.2843ZM67.0479 36.9953L74.8125 32.0017L75.0065 32.9051L67.2596 37.9809L67.0479 36.9953ZM69.3686 31.1702L70.3159 35.5817L69.4712 35.7631L68.5238 31.3516L69.3686 31.1702Z" fill="black"/>
<path d="M65.4334 52.8909L71.7321 58.805L71.0339 59.5486L62.3401 58.1839L62.4212 58.0625L67.74 63.0566L67.0993 63.739L60.8007 57.8249L61.4989 57.0813L70.1926 58.446L70.1116 58.5674L64.7927 53.5733L65.4334 52.8909Z" fill="black"/>
<path d="M67.593 42.4724L76.0847 44.0662L75.8965 45.0687L67.8351 48.5982L67.8381 48.4523L75.0089 49.7981L74.8363 50.7181L66.3445 49.1243L66.5327 48.1218L74.5941 44.5923L74.5911 44.7382L67.4203 43.3924L67.593 42.4724Z" fill="black"/>
<path d="M54.462 63.3375C54.9948 63.0616 55.5347 62.9038 56.0815 62.8639C56.625 62.8347 57.1521 62.9132 57.6628 63.0992C58.1772 63.2923 58.6518 63.5826 59.0866 63.9701C59.5143 64.3612 59.8772 64.8445 60.1751 65.4199C60.5687 66.1801 60.7618 66.9359 60.7545 67.6874C60.7472 68.4389 60.5565 69.1232 60.1823 69.7404C59.801 70.3612 59.2587 70.8536 58.5554 71.2178C57.8379 71.5893 57.1192 71.7497 56.3993 71.699C55.6723 71.652 54.9998 71.4146 54.3819 70.9868C53.7641 70.5589 53.2565 69.9614 52.8593 69.1941C52.5613 68.6187 52.3797 68.0416 52.3142 67.4629C52.2417 66.8878 52.2769 66.3381 52.4198 65.8137C52.5627 65.2893 52.8064 64.8117 53.151 64.3811C53.4993 63.9576 53.9363 63.6097 54.462 63.3375ZM54.8809 64.1206C54.3339 64.4038 53.9242 64.7871 53.652 65.2703C53.3763 65.7644 53.2462 66.3137 53.2619 66.9182C53.2776 67.5226 53.4454 68.1339 53.7654 68.752C54.0818 69.363 54.4785 69.8422 54.9557 70.1897C55.4258 70.5409 55.9385 70.7394 56.4937 70.7852C57.0419 70.8348 57.593 70.7161 58.1471 70.4292C58.7013 70.1423 59.1163 69.7607 59.3923 69.2846C59.6682 68.8084 59.7985 68.277 59.7831 67.6904C59.7713 67.1109 59.6055 66.5121 59.2855 65.8941C58.9618 65.2689 58.5612 64.7736 58.0838 64.4082C57.6029 64.0536 57.0847 63.8444 56.5292 63.7807C55.9774 63.7241 55.428 63.8374 54.8809 64.1206Z" fill="black"/>
<path d="M45.5609 66.7262L46.4891 74.4467L49.4319 74.0929L49.535 74.9507L42.6724 75.7757L42.5693 74.9179L45.5121 74.5641L44.584 66.8437L45.5609 66.7262Z" fill="black"/>
<path d="M39.0275 66.868L33.4908 74.2925L32.6586 74.0601L38.1144 66.613L39.0275 66.868ZM32.4164 65.022L33.2249 74.2183L32.335 73.9698L31.4455 64.7509L32.4164 65.022ZM36.4934 69.786L32.1476 68.5725L32.38 67.7403L36.7257 68.9538L36.4934 69.786Z" fill="black"/>
<path d="M26.5842 61.5754L21.3714 67.3453L23.5707 69.3323L22.9915 69.9735L17.8627 65.3398L18.4419 64.6987L20.6412 66.6857L25.8541 60.9158L26.5842 61.5754Z" fill="black"/>
<path d="M20.8982 55.499L13.747 60.3477L13.1948 59.5333L20.3459 54.6845L20.8982 55.499Z" fill="black"/>
<path d="M17.7363 47.2479C17.8426 47.8384 17.8341 48.4008 17.7108 48.9351C17.5782 49.4629 17.3477 49.9433 17.0192 50.3764C16.6829 50.8109 16.2654 51.1786 15.7669 51.4797C15.2669 51.7729 14.6981 51.977 14.0603 52.0918C13.2179 52.2434 12.4387 52.2049 11.7228 51.9761C11.007 51.7473 10.4095 51.3631 9.93026 50.8234C9.44965 50.2759 9.13919 49.6124 8.99886 48.833C8.85571 48.0378 8.91458 47.3037 9.1755 46.6308C9.43499 45.9501 9.8603 45.3777 10.4514 44.9136C11.0426 44.4495 11.7633 44.141 12.6136 43.9879C13.2514 43.8731 13.8564 43.8698 14.4286 43.9782C14.9994 44.0786 15.5143 44.2745 15.9732 44.5658C16.432 44.8571 16.8163 45.2309 17.1261 45.6873C17.428 46.145 17.6314 46.6652 17.7363 47.2479ZM16.8644 47.417C16.7553 46.8107 16.51 46.3062 16.1286 45.9034C15.7379 45.4942 15.2515 45.2078 14.6693 45.0444C14.0872 44.8809 13.4536 44.8609 12.7686 44.9842C12.0915 45.1061 11.5165 45.3437 11.0436 45.6971C10.5693 46.0426 10.2283 46.4738 10.0206 46.9908C9.81153 47.4999 9.76226 48.0615 9.87282 48.6756C9.98337 49.2898 10.2254 49.7989 10.5989 50.2032C10.9725 50.6074 11.4417 50.8887 12.0067 51.0471C12.5639 51.2069 13.1849 51.2252 13.8699 51.1018C14.5628 50.9771 15.1542 50.7406 15.6443 50.3922C16.125 50.0375 16.4778 49.6041 16.7027 49.0922C16.9196 48.5816 16.9736 48.0233 16.8644 47.417Z" fill="black"/>
<path d="M16.2244 39.0462L7.76983 37.2659L7.98 36.2678L16.1171 32.9166L16.111 33.0624L8.97152 31.5591L9.16438 30.6432L17.619 32.4234L17.4088 33.4216L9.27167 36.7728L9.27785 36.627L16.4173 38.1303L16.2244 39.0462Z" fill="black"/>
<path d="M25.3603 21.9212L20.8703 14.5395L21.7109 14.0281L26.201 21.4098L25.3603 21.9212ZM30.3019 18.9154L25.8119 11.5337L26.6526 11.0223L31.1426 18.404L30.3019 18.9154ZM23.2278 17.4456L28.1079 14.4772L28.5569 15.2153L23.6768 18.1837L23.2278 17.4456Z" fill="black"/>
<path d="M37.0202 16.935L34.9537 8.5458L35.9091 8.31044L37.9757 16.6996L37.0202 16.935Z" fill="black"/>
<path d="M43.3781 16.62L43.5147 15.7669L45.8015 16.1331C46.5125 16.2469 47.1474 16.2027 47.7064 16.0005C48.2667 15.7905 48.7268 15.4469 49.0867 14.9698C49.4467 14.4927 49.6817 13.9105 49.7917 13.2233C49.9005 12.5439 49.8571 11.9293 49.6616 11.3795C49.466 10.8297 49.1337 10.3754 48.6645 10.0167C48.2032 9.65933 47.6131 9.42307 46.8943 9.30798L44.6074 8.94184L44.744 8.0887L47.0308 8.45484C47.9235 8.59776 48.6731 8.90007 49.2798 9.36178C49.8877 9.81559 50.3221 10.3915 50.583 11.0895C50.8531 11.7809 50.9198 12.5532 50.7832 13.4063C50.6467 14.2595 50.3409 14.9802 49.8659 15.5685C49.3922 16.1489 48.7945 16.5677 48.0727 16.8248C47.3602 17.0753 46.5615 17.1297 45.6768 16.9881L43.3781 16.62ZM42.7975 16.5271L44.1634 7.99574L45.135 8.15131L43.7691 16.6827L42.7975 16.5271Z" fill="black"/>
<path d="M52.8915 19.2576L57.3584 11.8619L58.2007 12.3707L53.7338 19.7664L52.8915 19.2576ZM53.3229 19.5182L53.7696 18.7786L58.2892 21.5084L57.8425 22.248L53.3229 19.5182ZM55.4261 16.0361L55.8728 15.2965L60.0226 17.8029L59.5759 18.5425L55.4261 16.0361ZM57.3431 12.8621L57.7898 12.1225L62.2272 14.8026L61.7806 15.5422L57.3431 12.8621Z" fill="black"/>
<path d="M29.467 54.3775V48.1428L48.7944 28.852C49.0878 28.5586 49.4179 28.3386 49.7846 28.1919C50.1514 28.0452 50.5181 27.9718 50.8849 27.9718C51.2761 27.9718 51.6492 28.0452 52.0042 28.1919C52.3592 28.3386 52.6707 28.5586 52.9386 28.852L54.9924 30.9058C55.2858 31.1748 55.5059 31.4867 55.6526 31.8417C55.7992 32.1967 55.8726 32.5694 55.8726 32.9596C55.8726 33.3263 55.7992 33.6931 55.6526 34.0598C55.5059 34.4266 55.2858 34.7566 54.9924 35.05L35.7016 54.3775H29.467ZM32.4009 51.4435H34.4547L48.8678 37.0671L47.8409 36.0036L46.7773 34.9767L32.4009 49.3897V51.4435ZM47.8409 36.0036L46.7773 34.9767L48.8678 37.0671L47.8409 36.0036ZM44.1368 54.3775C45.946 54.3775 47.6208 53.9251 49.1612 53.0205C50.7015 52.1159 51.4717 50.8567 51.4717 49.243C51.4717 48.3629 51.2394 47.6049 50.7748 46.9692C50.3103 46.3335 49.6868 45.7834 48.9044 45.3189L46.7407 47.4827C47.303 47.7272 47.7431 47.9961 48.0609 48.2895C48.3788 48.5829 48.5377 48.9007 48.5377 49.243C48.5377 49.8054 48.0913 50.313 47.1984 50.7658C46.3055 51.2186 45.2849 51.4445 44.1368 51.4435C43.7211 51.4435 43.373 51.5843 43.0923 51.866C42.8116 52.1477 42.6708 52.4958 42.6698 52.9105C42.6688 53.3252 42.8096 53.6738 43.0923 53.9564C43.3749 54.2391 43.7231 54.3794 44.1368 54.3775ZM30.3105 43.1551L32.511 40.9546C32.022 40.759 31.6366 40.5575 31.355 40.3502C31.0733 40.1429 30.933 39.9287 30.934 39.7077C30.934 39.4143 31.154 39.1209 31.5941 38.8275C32.0342 38.5341 32.9633 38.0818 34.3814 37.4705C36.5329 36.5414 37.9632 35.6979 38.6723 34.94C39.3813 34.1821 39.7358 33.3263 39.7358 32.3728C39.7358 31.0281 39.1979 29.9586 38.1222 29.1645C37.0464 28.3704 35.6283 27.9728 33.8679 27.9718C32.7677 27.9718 31.7833 28.1674 30.9149 28.5586C30.0464 28.9498 29.3804 29.4266 28.9169 29.9889C28.6479 30.3068 28.5379 30.6613 28.5868 31.0525C28.6357 31.4437 28.8191 31.7615 29.1369 32.006C29.4548 32.275 29.8093 32.385 30.2005 32.3361C30.5917 32.2872 30.9217 32.1283 31.1907 31.8593C31.533 31.517 31.9119 31.2725 32.3276 31.1259C32.7432 30.9792 33.2567 30.9058 33.8679 30.9058C34.8704 30.9058 35.6102 31.0525 36.0875 31.3459C36.5647 31.6393 36.8029 31.9816 36.8019 32.3728C36.8019 32.7151 36.5882 33.0266 36.1608 33.3072C35.7334 33.5879 34.7491 34.0833 33.2078 34.7933C31.2518 35.649 29.8948 36.4256 29.1369 37.1229C28.379 37.8202 28 38.6818 28 39.7077C28 40.4901 28.2078 41.1566 28.6235 41.7072C29.0391 42.2578 29.6015 42.7404 30.3105 43.1551Z" fill="#8484FF"/>
<path d="M48.8678 37.0671L34.4547 51.4435H32.4009V49.3897L46.7773 34.9767M48.8678 37.0671L47.8409 36.0036L46.7773 34.9767M48.8678 37.0671L46.7773 34.9767M52.9386 32.9962L50.8482 30.9058M29.467 54.3775V48.1428L48.7944 28.852C49.0878 28.5586 49.4179 28.3386 49.7846 28.1919C50.1514 28.0452 50.5181 27.9718 50.8849 27.9718C51.2761 27.9718 51.6492 28.0452 52.0042 28.1919C52.3592 28.3386 52.6707 28.5586 52.9386 28.852L54.9924 30.9058C55.2858 31.1748 55.5059 31.4867 55.6526 31.8417C55.7992 32.1967 55.8726 32.5694 55.8726 32.9596C55.8726 33.3263 55.7992 33.6931 55.6526 34.0598C55.5059 34.4266 55.2858 34.7566 54.9924 35.05L35.7016 54.3775H29.467ZM44.1368 54.3775C45.946 54.3775 47.6208 53.9251 49.1612 53.0205C50.7015 52.1159 51.4717 50.8567 51.4717 49.243C51.4717 48.3629 51.2394 47.6049 50.7748 46.9692C50.3103 46.3335 49.6868 45.7834 48.9044 45.3189L46.7407 47.4827C47.303 47.7272 47.7431 47.9961 48.0609 48.2895C48.3788 48.5829 48.5377 48.9007 48.5377 49.243C48.5377 49.8054 48.0913 50.313 47.1984 50.7658C46.3055 51.2186 45.2849 51.4445 44.1368 51.4435C43.7211 51.4435 43.373 51.5843 43.0923 51.866C42.8116 52.1477 42.6708 52.4958 42.6698 52.9105C42.6688 53.3252 42.8096 53.6738 43.0923 53.9564C43.3749 54.2391 43.7231 54.3794 44.1368 54.3775ZM30.3105 43.1551L32.511 40.9546C32.022 40.759 31.6366 40.5575 31.355 40.3502C31.0733 40.1429 30.933 39.9287 30.934 39.7077C30.934 39.4143 31.154 39.1209 31.5941 38.8275C32.0342 38.5341 32.9633 38.0818 34.3814 37.4705C36.5329 36.5414 37.9632 35.6979 38.6723 34.94C39.3813 34.1821 39.7358 33.3263 39.7358 32.3728C39.7358 31.0281 39.1979 29.9586 38.1222 29.1645C37.0464 28.3704 35.6283 27.9728 33.8679 27.9718C32.7677 27.9718 31.7833 28.1674 30.9149 28.5586C30.0464 28.9498 29.3804 29.4266 28.9169 29.9889C28.6479 30.3068 28.5379 30.6613 28.5868 31.0525C28.6357 31.4437 28.8191 31.7615 29.1369 32.006C29.4548 32.275 29.8093 32.385 30.2005 32.3361C30.5917 32.2872 30.9217 32.1283 31.1907 31.8593C31.533 31.517 31.9119 31.2725 32.3276 31.1259C32.7432 30.9792 33.2567 30.9058 33.8679 30.9058C34.8704 30.9058 35.6102 31.0525 36.0875 31.3459C36.5647 31.6393 36.8029 31.9816 36.8019 32.3728C36.8019 32.7151 36.5882 33.0266 36.1608 33.3072C35.7334 33.5879 34.7491 34.0833 33.2078 34.7933C31.2518 35.649 29.8948 36.4256 29.1369 37.1229C28.379 37.8202 28 38.6818 28 39.7077C28 40.4901 28.2078 41.1566 28.6235 41.7072C29.0391 42.2578 29.6015 42.7404 30.3105 43.1551Z" stroke="white" stroke-width="1.31779"/>
<circle cx="17" cy="23.9718" r="1" fill="black"/>
<circle cx="67" cy="23.9718" r="1" fill="black"/>
</svg>
