<svg width="533" height="267" viewBox="0 0 533 267" fill="none" xmlns="http://www.w3.org/2000/svg">
<rect x="2.5" y="2.5" width="478" height="262" rx="17.5" fill="#0F0F0F" stroke="#F7F7F7" stroke-width="5"/>
<path d="M518 83.5C524.904 83.5 530.5 89.0964 530.5 96V162C530.5 168.904 524.904 174.5 518 174.5H485.5V83.5H518Z" fill="#383838" stroke="#F7F7F7" stroke-width="5"/>
<line x1="507.5" y1="86" x2="507.5" y2="175" stroke="white" stroke-width="5"/>
<mask id="mask0_122_75" style="mask-type:alpha" maskUnits="userSpaceOnUse" x="13" y="12" width="146" height="243">
<rect x="13" y="12" width="146" height="243" rx="10" fill="#00EC1C"/>
</mask>
<g mask="url(#mask0_122_75)">
<path d="M59.4301 65.1392C25.0616 65.1392 -6.34307 77.8152 -17 84.1531V173H530V100.056C481.544 100.056 456.068 24 381.636 24C307.204 24 296.713 100.056 217.785 100.056C138.858 100.056 102.391 65.1392 59.4301 65.1392Z" fill="#002905"/>
<path d="M65.4301 73.4594C31.0616 73.4594 -0.343075 89.6234 -11 97.7053V211H536V117.984C487.544 117.984 462.068 21 387.636 21C313.204 21 302.713 117.984 223.785 117.984C144.858 117.984 108.391 73.4594 65.4301 73.4594Z" fill="#055E0F"/>
<path d="M75.4301 103.459C41.0616 103.459 9.65693 119.623 -1 127.705V241H546V147.984C497.544 147.984 472.068 51 397.636 51C323.204 51 312.713 147.984 233.785 147.984C154.858 147.984 118.391 103.459 75.4301 103.459Z" fill="#26CB3A"/>
<path d="M69.4301 108.049C35.0616 108.049 3.65693 125.319 -7 133.954V255H540V155.619C491.544 155.619 466.068 52 391.636 52C317.204 52 306.713 155.619 227.785 155.619C148.858 155.619 112.391 108.049 69.4301 108.049Z" fill="#00DC1A"/>
<path d="M89 128.5C54.6 128.5 23.1667 146.833 12.5 156V255H560V179C511.5 179 486 69 411.5 69C337 69 326.5 179 247.5 179C168.5 179 132 128.5 89 128.5Z" fill="#00EC1C"/>
<path d="M442.57 227.153C476.938 227.153 508.343 233.363 519 236.468V270H-28V244.258C20.4557 244.258 45.9324 207 120.364 207C194.796 207 205.287 244.258 284.215 244.258C363.142 244.258 399.609 227.153 442.57 227.153Z" fill="#09FF26"/>
<path d="M102.5 196C80.5 195.5 68.5 199 45.5 210.5C37.5 214.5 42.2 191.8 67 185C98 176.5 124.5 196.5 102.5 196Z" fill="#09FF26"/>
</g>
</svg>
