<svg width="172" height="172" viewBox="0 0 172 172" fill="none" xmlns="http://www.w3.org/2000/svg">
<g filter="url(#filter0_i_160_248)">
<path d="M29.9542 171.714H0.571411V118.074L29.9542 171.714ZM8.56067 74.3291C19.793 68.1763 28.3728 70.5102 34.2999 81.3301L65.2902 137.905C71.2171 148.725 68.5645 157.211 57.3322 163.364L42.09 171.714H40.0011L0.571411 99.7314V78.7051L8.56067 74.3291ZM125.503 0.286133C124.422 0.837438 123.325 1.41643 122.211 2.02637C114.482 6.26 109.47 11.4174 107.174 17.498C104.925 23.4191 105.579 29.6261 109.135 36.1182L114.045 45.083C119.182 54.4606 127.377 59.1488 138.63 59.1475L162.134 59.1338C166.318 59.1263 169.606 59.7904 172 61.124V101.354C171.897 101.411 171.794 101.468 171.691 101.525C164.477 105.477 157.238 108.036 149.973 109.202L154.036 116.622C159.383 115.776 165.371 113.725 172 110.472V171.714H58.5988L61.1427 170.32C69.2835 165.861 74.2579 160.39 76.0656 153.907C77.8732 147.424 76.8582 140.678 73.0197 133.671L42.0294 77.0967C38.1909 70.0893 33.0527 65.6019 26.6163 63.6348C20.1801 61.6678 12.8918 62.9147 4.7511 67.374L0.571411 69.6631V0.286133H125.503ZM47.8781 43.749L104.271 146.696L146.933 123.326L143.123 116.37L108.189 135.507L85.4962 94.0801L115.947 77.4004L112.138 70.4443L81.6866 87.125L59.4171 46.4717L94.3507 27.335L90.5411 20.3799L47.8781 43.749ZM172 51.8965C169.246 51.0636 166.219 50.6525 162.921 50.6641L139.332 50.5234C131.183 50.5662 125.246 47.1869 121.521 40.3857L116.693 31.5752C111.839 22.7129 115.183 15.1201 126.725 8.79785C134.556 4.50789 141.425 1.88443 147.331 0.926758L146.981 0.286133H172V51.8965Z" fill="white" fill-opacity="0.5"/>
</g>
<defs>
<filter id="filter0_i_160_248" x="-7.42859" y="-3.71387" width="179.429" height="175.428" filterUnits="userSpaceOnUse" color-interpolation-filters="sRGB">
<feFlood flood-opacity="0" result="BackgroundImageFix"/>
<feBlend mode="normal" in="SourceGraphic" in2="BackgroundImageFix" result="shape"/>
<feColorMatrix in="SourceAlpha" type="matrix" values="0 0 0 0 0 0 0 0 0 0 0 0 0 0 0 0 0 0 127 0" result="hardAlpha"/>
<feOffset dx="-8" dy="-4"/>
<feGaussianBlur stdDeviation="10"/>
<feComposite in2="hardAlpha" operator="arithmetic" k2="-1" k3="1"/>
<feColorMatrix type="matrix" values="0 0 0 0 0 0 0 0 0 0 0 0 0 0 0 0 0 0 0.25 0"/>
<feBlend mode="normal" in2="shape" result="effect1_innerShadow_160_248"/>
</filter>
</defs>
</svg>
