<svg width="289" height="305" viewBox="0 0 289 305" fill="none" xmlns="http://www.w3.org/2000/svg">
<path d="M237.395 304.379H53.4286L89.2482 121.427H0L148.143 0L289 121.427H201.571L237.395 304.379Z" fill="url(#paint0_linear_67_23)"/>
<path d="M120.51 280.607C120.41 280.301 120.279 280.027 120.115 279.785C119.955 279.54 119.762 279.331 119.538 279.158C119.318 278.986 119.066 278.854 118.785 278.763C118.503 278.672 118.194 278.627 117.858 278.627C117.308 278.627 116.807 278.769 116.356 279.054C115.904 279.338 115.546 279.758 115.279 280.312C115.013 280.866 114.88 281.545 114.88 282.35C114.88 283.156 115.015 283.835 115.284 284.389C115.553 284.943 115.918 285.362 116.378 285.647C116.838 285.931 117.356 286.074 117.931 286.074C118.464 286.074 118.933 285.96 119.339 285.733C119.747 285.503 120.065 285.179 120.292 284.761C120.522 284.341 120.637 283.846 120.637 283.277L120.982 283.349H118.185V282.35H121.727V283.349C121.727 284.115 121.564 284.781 121.237 285.347C120.913 285.913 120.465 286.352 119.893 286.664C119.324 286.973 118.67 287.127 117.931 287.127C117.108 287.127 116.384 286.933 115.761 286.546C115.14 286.158 114.656 285.608 114.308 284.893C113.963 284.179 113.79 283.331 113.79 282.35C113.79 281.615 113.888 280.953 114.085 280.366C114.285 279.776 114.567 279.273 114.93 278.859C115.293 278.444 115.723 278.126 116.219 277.905C116.716 277.684 117.262 277.574 117.858 277.574C118.349 277.574 118.806 277.648 119.23 277.796C119.657 277.941 120.036 278.149 120.369 278.418C120.705 278.685 120.985 279.004 121.209 279.376C121.433 279.746 121.588 280.156 121.673 280.607H120.51ZM131.502 282.35C131.502 283.331 131.325 284.179 130.971 284.893C130.616 285.608 130.131 286.158 129.513 286.546C128.896 286.933 128.19 287.127 127.397 287.127C126.604 287.127 125.899 286.933 125.281 286.546C124.664 286.158 124.178 285.608 123.824 284.893C123.47 284.179 123.292 283.331 123.292 282.35C123.292 281.37 123.47 280.522 123.824 279.808C124.178 279.093 124.664 278.542 125.281 278.155C125.899 277.767 126.604 277.574 127.397 277.574C128.19 277.574 128.896 277.767 129.513 278.155C130.131 278.542 130.616 279.093 130.971 279.808C131.325 280.522 131.502 281.37 131.502 282.35ZM130.412 282.35C130.412 281.545 130.277 280.866 130.008 280.312C129.742 279.758 129.38 279.338 128.923 279.054C128.469 278.769 127.96 278.627 127.397 278.627C126.834 278.627 126.324 278.769 125.867 279.054C125.413 279.338 125.051 279.758 124.782 280.312C124.515 280.866 124.382 281.545 124.382 282.35C124.382 283.156 124.515 283.835 124.782 284.389C125.051 284.943 125.413 285.362 125.867 285.647C126.324 285.931 126.834 286.074 127.397 286.074C127.96 286.074 128.469 285.931 128.923 285.647C129.38 285.362 129.742 284.943 130.008 284.389C130.277 283.835 130.412 283.156 130.412 282.35ZM134.521 277.701V287H133.395V277.701H134.521ZM144.153 277.701V287H143.063L137.996 279.699H137.905V287H136.779V277.701H137.869L142.954 285.02H143.045V277.701H144.153ZM152.763 280.607C152.663 280.301 152.532 280.027 152.368 279.785C152.208 279.54 152.016 279.331 151.792 279.158C151.571 278.986 151.319 278.854 151.038 278.763C150.756 278.672 150.448 278.627 150.112 278.627C149.561 278.627 149.06 278.769 148.609 279.054C148.158 279.338 147.799 279.758 147.533 280.312C147.266 280.866 147.133 281.545 147.133 282.35C147.133 283.156 147.268 283.835 147.537 284.389C147.807 284.943 148.171 285.362 148.631 285.647C149.092 285.931 149.609 286.074 150.184 286.074C150.717 286.074 151.186 285.96 151.592 285.733C152.001 285.503 152.318 285.179 152.545 284.761C152.775 284.341 152.891 283.846 152.891 283.277L153.236 283.349H150.439V282.35H153.98V283.349C153.98 284.115 153.817 284.781 153.49 285.347C153.166 285.913 152.718 286.352 152.146 286.664C151.577 286.973 150.923 287.127 150.184 287.127C149.361 287.127 148.637 286.933 148.014 286.546C147.393 286.158 146.909 285.608 146.561 284.893C146.216 284.179 146.043 283.331 146.043 282.35C146.043 281.615 146.142 280.953 146.338 280.366C146.538 279.776 146.82 279.273 147.183 278.859C147.546 278.444 147.976 278.126 148.472 277.905C148.969 277.684 149.515 277.574 150.112 277.574C150.602 277.574 151.059 277.648 151.483 277.796C151.91 277.941 152.29 278.149 152.623 278.418C152.959 278.685 153.239 279.004 153.463 279.376C153.687 279.746 153.841 280.156 153.926 280.607H152.763ZM165.608 277.701H166.734V283.858C166.734 284.494 166.584 285.061 166.284 285.561C165.988 286.057 165.568 286.449 165.026 286.737C164.485 287.021 163.849 287.163 163.119 287.163C162.39 287.163 161.754 287.021 161.212 286.737C160.67 286.449 160.25 286.057 159.95 285.561C159.653 285.061 159.505 284.494 159.505 283.858V277.701H160.631V283.767C160.631 284.221 160.731 284.625 160.931 284.979C161.131 285.331 161.415 285.608 161.784 285.81C162.157 286.01 162.602 286.11 163.119 286.11C163.637 286.11 164.082 286.01 164.454 285.81C164.827 285.608 165.111 285.331 165.308 284.979C165.508 284.625 165.608 284.221 165.608 283.767V277.701ZM168.982 287V277.701H172.125C172.854 277.701 173.45 277.832 173.914 278.096C174.38 278.356 174.725 278.709 174.949 279.154C175.173 279.599 175.285 280.095 175.285 280.643C175.285 281.191 175.173 281.689 174.949 282.137C174.728 282.585 174.386 282.942 173.923 283.209C173.46 283.472 172.866 283.604 172.143 283.604H169.891V282.605H172.106C172.606 282.605 173.007 282.518 173.31 282.346C173.612 282.173 173.832 281.94 173.968 281.647C174.107 281.35 174.177 281.015 174.177 280.643C174.177 280.271 174.107 279.938 173.968 279.644C173.832 279.351 173.611 279.121 173.305 278.954C172.999 278.784 172.594 278.7 172.088 278.7H170.109V287H168.982Z" fill="black"/>
<defs>
<linearGradient id="paint0_linear_67_23" x1="144.5" y1="0" x2="144.5" y2="304.379" gradientUnits="userSpaceOnUse">
<stop stop-color="white" stop-opacity="0.2"/>
<stop offset="1" stop-color="white"/>
</linearGradient>
</defs>
</svg>
