<svg width="351" height="266" viewBox="0 0 351 266" fill="none" xmlns="http://www.w3.org/2000/svg">
<path d="M0 33.4545L0 122.091L306.295 122.091L351 77.7726L306.295 33.4545L0 33.4545Z" fill="white" fill-opacity="0.5"/>
<path d="M25.4912 75.1294V97.3333H22.8025V75.1294H25.4912ZM33.094 87.3155V97.3333H30.5353V80.6804H33.0072V83.2824H33.2241C33.6144 82.4367 34.207 81.7573 35.0021 81.2441C35.7972 80.7237 36.8235 80.4635 38.0812 80.4635C39.2087 80.4635 40.1953 80.6948 41.041 81.1574C41.8866 81.6127 42.5443 82.3066 43.0141 83.239C43.484 84.1642 43.7189 85.3351 43.7189 86.7517V97.3333H41.1602V86.9252C41.1602 85.617 40.8205 84.5978 40.1411 83.8678C39.4617 83.1306 38.5293 82.762 37.3439 82.762C36.5272 82.762 35.7972 82.9391 35.1539 83.2932C34.5178 83.6474 34.0155 84.1642 33.6469 84.8436C33.2783 85.523 33.094 86.347 33.094 87.3155ZM55.6366 80.6804V82.8487H47.0066V80.6804H55.6366ZM49.5219 76.6906H52.0805V92.5629C52.0805 93.2857 52.1853 93.8278 52.395 94.1892C52.6118 94.5433 52.8864 94.7818 53.2189 94.9047C53.5586 95.0204 53.9164 95.0782 54.2923 95.0782C54.5741 95.0782 54.8054 95.0637 54.9861 95.0348C55.1668 94.9987 55.3114 94.9698 55.4198 94.9481L55.9402 97.2465C55.7667 97.3116 55.5246 97.3766 55.2138 97.4417C54.903 97.5139 54.5091 97.5501 54.0321 97.5501C53.3093 97.5501 52.6009 97.3947 51.9071 97.0839C51.2204 96.7731 50.6494 96.2997 50.1941 95.6636C49.746 95.0276 49.5219 94.2253 49.5219 93.2568V76.6906ZM66.2886 97.6802C64.684 97.6802 63.2999 97.326 62.1362 96.6177C60.9798 95.9021 60.0872 94.9047 59.4583 93.6254C58.8367 92.3388 58.5259 90.8427 58.5259 89.1369C58.5259 87.4311 58.8367 85.9278 59.4583 84.6267C60.0872 83.3185 60.9617 82.2994 62.082 81.5694C63.2096 80.8321 64.525 80.4635 66.0284 80.4635C66.8958 80.4635 67.7523 80.6081 68.5979 80.8972C69.4436 81.1863 70.2133 81.6561 70.9072 82.3066C71.6011 82.9499 72.154 83.8028 72.566 84.8653C72.978 85.9278 73.184 87.236 73.184 88.79V89.8741H60.3474V87.6624H70.5819C70.5819 86.7228 70.394 85.8844 70.0182 85.1472C69.6496 84.4099 69.1219 83.8281 68.4353 83.4016C67.7559 82.9752 66.9536 82.762 66.0284 82.762C65.0093 82.762 64.1275 83.0149 63.383 83.5209C62.6458 84.0196 62.0784 84.6701 61.6809 85.4724C61.2834 86.2747 61.0846 87.1348 61.0846 88.0527V89.5272C61.0846 90.7848 61.3014 91.851 61.7351 92.7255C62.176 93.5929 62.7867 94.2542 63.5673 94.7096C64.348 95.1577 65.255 95.3817 66.2886 95.3817C66.9608 95.3817 67.5679 95.2878 68.11 95.0999C68.6593 94.9047 69.1328 94.6156 69.5303 94.2325C69.9278 93.8422 70.235 93.358 70.4518 92.7797L72.9238 93.4736C72.6636 94.312 72.2263 95.0493 71.6119 95.6853C70.9975 96.3141 70.2386 96.8056 69.3351 97.1598C68.4317 97.5067 67.4162 97.6802 66.2886 97.6802ZM77.0761 97.3333V80.6804H79.5481V83.1956H79.7215C80.0251 82.3717 80.5744 81.7031 81.3695 81.1899C82.1645 80.6767 83.0608 80.4202 84.0582 80.4202C84.2461 80.4202 84.481 80.4238 84.7629 80.431C85.0448 80.4382 85.258 80.4491 85.4026 80.4635V83.0655C85.3159 83.0439 85.1171 83.0113 84.8063 82.968C84.5027 82.9174 84.1811 82.8921 83.8414 82.8921C83.0319 82.8921 82.3091 83.0619 81.673 83.4016C81.0442 83.7341 80.5455 84.1967 80.1769 84.7894C79.8155 85.3748 79.6348 86.0434 79.6348 86.7951V97.3333H77.0761ZM93.336 97.7236C92.2808 97.7236 91.3231 97.5248 90.463 97.1273C89.6029 96.7225 88.9198 96.1407 88.4139 95.3817C87.9079 94.6156 87.655 93.6904 87.655 92.6063C87.655 91.6522 87.8429 90.8788 88.2187 90.2861C88.5946 89.6862 89.0969 89.2164 89.7257 88.8767C90.3545 88.537 91.0484 88.284 91.8073 88.1178C92.5735 87.9443 93.3433 87.807 94.1166 87.7058C95.1285 87.5757 95.9489 87.4781 96.5777 87.4131C97.2137 87.3408 97.6763 87.2215 97.9654 87.0553C98.2618 86.8891 98.41 86.5999 98.41 86.188V86.1012C98.41 85.0315 98.1172 84.2003 97.5318 83.6076C96.9535 83.0149 96.0754 82.7186 94.8972 82.7186C93.6757 82.7186 92.718 82.986 92.0242 83.5209C91.3303 84.0558 90.8424 84.6267 90.5605 85.2339L88.132 84.3665C88.5657 83.3547 89.1439 82.5668 89.8667 82.0031C90.5967 81.4321 91.3917 81.0345 92.2519 80.8105C93.1192 80.5792 93.9721 80.4635 94.8105 80.4635C95.3454 80.4635 95.9597 80.5286 96.6536 80.6587C97.3547 80.7815 98.0305 81.0381 98.681 81.4284C99.3387 81.8187 99.8844 82.4078 100.318 83.1956C100.752 83.9835 100.969 85.0387 100.969 86.3614V97.3333H98.41V95.0782H98.2799C98.1064 95.4396 97.8173 95.8263 97.4125 96.2382C97.0078 96.6502 96.4693 97.0008 95.7971 97.2899C95.1249 97.579 94.3046 97.7236 93.336 97.7236ZM93.7263 95.4251C94.7382 95.4251 95.5911 95.2263 96.285 94.8288C96.9861 94.4313 97.5137 93.9181 97.8679 93.2893C98.2293 92.6605 98.41 91.9991 98.41 91.3053V88.9634C98.3015 89.0935 98.063 89.2128 97.6944 89.3212C97.333 89.4224 96.9138 89.5128 96.4368 89.5923C95.9669 89.6645 95.508 89.7296 95.0599 89.7874C94.619 89.838 94.2612 89.8814 93.9865 89.9175C93.3216 90.0042 92.7 90.1452 92.1218 90.3403C91.5508 90.5283 91.0882 90.8138 90.734 91.1968C90.3871 91.5727 90.2136 92.0859 90.2136 92.7364C90.2136 93.6254 90.5425 94.2976 91.2002 94.7529C91.8652 95.201 92.7072 95.4251 93.7263 95.4251ZM112.404 97.6802C110.843 97.6802 109.498 97.3116 108.371 96.5743C107.243 95.8371 106.376 94.8216 105.769 93.5278C105.162 92.234 104.858 90.7559 104.858 89.0935C104.858 87.4022 105.169 85.9097 105.79 84.6159C106.419 83.3149 107.294 82.2994 108.414 81.5694C109.542 80.8321 110.857 80.4635 112.361 80.4635C113.531 80.4635 114.587 80.6804 115.526 81.114C116.466 81.5477 117.236 82.1548 117.836 82.9354C118.436 83.716 118.808 84.6267 118.952 85.6676H116.394C116.199 84.9086 115.765 84.2364 115.093 83.651C114.428 83.0583 113.531 82.762 112.404 82.762C111.406 82.762 110.532 83.0222 109.78 83.5426C109.036 84.0558 108.454 84.7821 108.035 85.7218C107.623 86.6542 107.417 87.7492 107.417 89.0068C107.417 90.2934 107.619 91.4137 108.024 92.3677C108.436 93.3218 109.014 94.0627 109.759 94.5903C110.51 95.1179 111.392 95.3817 112.404 95.3817C113.069 95.3817 113.672 95.2661 114.214 95.0348C114.757 94.8035 115.216 94.471 115.591 94.0374C115.967 93.6037 116.235 93.0833 116.394 92.4762H118.952C118.808 93.4591 118.45 94.3445 117.879 95.1324C117.315 95.913 116.567 96.5346 115.635 96.9972C114.71 97.4525 113.633 97.6802 112.404 97.6802ZM129.935 80.6804V82.8487H121.305V80.6804H129.935ZM123.82 76.6906H126.379V92.5629C126.379 93.2857 126.484 93.8278 126.693 94.1892C126.91 94.5433 127.185 94.7818 127.517 94.9047C127.857 95.0204 128.215 95.0782 128.591 95.0782C128.872 95.0782 129.104 95.0637 129.284 95.0348C129.465 94.9987 129.61 94.9698 129.718 94.9481L130.239 97.2465C130.065 97.3116 129.823 97.3766 129.512 97.4417C129.201 97.5139 128.807 97.5501 128.33 97.5501C127.608 97.5501 126.899 97.3947 126.205 97.0839C125.519 96.7731 124.948 96.2997 124.492 95.6636C124.044 95.0276 123.82 94.2253 123.82 93.2568V76.6906ZM133.784 97.3333V80.6804H136.342V97.3333H133.784ZM135.085 77.9049C134.586 77.9049 134.156 77.735 133.795 77.3953C133.44 77.0556 133.263 76.6472 133.263 76.1702C133.263 75.6932 133.44 75.2848 133.795 74.9451C134.156 74.6054 134.586 74.4355 135.085 74.4355C135.584 74.4355 136.01 74.6054 136.364 74.9451C136.726 75.2848 136.906 75.6932 136.906 76.1702C136.906 76.6472 136.726 77.0556 136.364 77.3953C136.01 77.735 135.584 77.9049 135.085 77.9049ZM154.646 80.6804L148.488 97.3333H145.886L139.728 80.6804H142.503L147.1 93.9506H147.274L151.87 80.6804H154.646ZM164.409 97.6802C162.804 97.6802 161.42 97.326 160.257 96.6177C159.1 95.9021 158.207 94.9047 157.579 93.6254C156.957 92.3388 156.646 90.8427 156.646 89.1369C156.646 87.4311 156.957 85.9278 157.579 84.6267C158.207 83.3185 159.082 82.2994 160.202 81.5694C161.33 80.8321 162.645 80.4635 164.149 80.4635C165.016 80.4635 165.873 80.6081 166.718 80.8972C167.564 81.1863 168.334 81.6561 169.028 82.3066C169.721 82.9499 170.274 83.8028 170.686 84.8653C171.098 85.9278 171.304 87.236 171.304 88.79V89.8741H158.468V87.6624H168.702C168.702 86.7228 168.514 85.8844 168.139 85.1472C167.77 84.4099 167.242 83.8281 166.556 83.4016C165.876 82.9752 165.074 82.762 164.149 82.762C163.13 82.762 162.248 83.0149 161.503 83.5209C160.766 84.0196 160.199 84.6701 159.801 85.4724C159.404 86.2747 159.205 87.1348 159.205 88.0527V89.5272C159.205 90.7848 159.422 91.851 159.855 92.7255C160.296 93.5929 160.907 94.2542 161.688 94.7096C162.468 95.1577 163.375 95.3817 164.409 95.3817C165.081 95.3817 165.688 95.2878 166.23 95.0999C166.78 94.9047 167.253 94.6156 167.651 94.2325C168.048 93.8422 168.355 93.358 168.572 92.7797L171.044 93.4736C170.784 94.312 170.347 95.0493 169.732 95.6853C169.118 96.3141 168.359 96.8056 167.455 97.1598C166.552 97.5067 165.536 97.6802 164.409 97.6802ZM184.13 75.1294H187.339L194.885 93.5603H195.145L202.691 75.1294H205.9V97.3333H203.385V80.4635H203.168L196.229 97.3333H193.801L186.862 80.4635H186.645V97.3333H184.13V75.1294ZM217.926 97.6802C216.322 97.6802 214.938 97.326 213.774 96.6177C212.618 95.9021 211.725 94.9047 211.096 93.6254C210.475 92.3388 210.164 90.8427 210.164 89.1369C210.164 87.4311 210.475 85.9278 211.096 84.6267C211.725 83.3185 212.6 82.2994 213.72 81.5694C214.847 80.8321 216.163 80.4635 217.666 80.4635C218.534 80.4635 219.39 80.6081 220.236 80.8972C221.081 81.1863 221.851 81.6561 222.545 82.3066C223.239 82.9499 223.792 83.8028 224.204 84.8653C224.616 85.9278 224.822 87.236 224.822 88.79V89.8741H211.985V87.6624H222.22C222.22 86.7228 222.032 85.8844 221.656 85.1472C221.287 84.4099 220.76 83.8281 220.073 83.4016C219.394 82.9752 218.591 82.762 217.666 82.762C216.647 82.762 215.765 83.0149 215.021 83.5209C214.284 84.0196 213.716 84.6701 213.319 85.4724C212.921 86.2747 212.722 87.1348 212.722 88.0527V89.5272C212.722 90.7848 212.939 91.851 213.373 92.7255C213.814 93.5929 214.425 94.2542 215.205 94.7096C215.986 95.1577 216.893 95.3817 217.926 95.3817C218.599 95.3817 219.206 95.2878 219.748 95.0999C220.297 94.9047 220.771 94.6156 221.168 94.2325C221.566 93.8422 221.873 93.358 222.09 92.7797L224.562 93.4736C224.301 94.312 223.864 95.0493 223.25 95.6853C222.635 96.3141 221.876 96.8056 220.973 97.1598C220.069 97.5067 219.054 97.6802 217.926 97.6802ZM235.002 97.6802C233.614 97.6802 232.389 97.3296 231.327 96.6285C230.264 95.9202 229.433 94.9228 228.833 93.6362C228.233 92.3424 227.933 90.8138 227.933 89.0502C227.933 87.301 228.233 85.7832 228.833 84.4966C229.433 83.2101 230.268 82.2163 231.338 81.5152C232.407 80.8141 233.643 80.4635 235.046 80.4635C236.13 80.4635 236.986 80.6442 237.615 81.0056C238.251 81.3598 238.735 81.7645 239.068 82.2199C239.408 82.668 239.671 83.0366 239.859 83.3257H240.076V75.1294H242.635V97.3333H240.163V94.7746H239.859C239.671 95.0782 239.404 95.4612 239.057 95.9238C238.71 96.3792 238.215 96.7876 237.572 97.1489C236.928 97.5031 236.072 97.6802 235.002 97.6802ZM235.349 95.3817C236.375 95.3817 237.243 95.1143 237.951 94.5795C238.659 94.0374 239.198 93.2893 239.567 92.3352C239.935 91.3739 240.119 90.2644 240.119 89.0068C240.119 87.7636 239.939 86.6758 239.577 85.7434C239.216 84.8038 238.681 84.0738 237.973 83.5534C237.264 83.0258 236.39 82.762 235.349 82.762C234.265 82.762 233.361 83.0402 232.639 83.5968C231.923 84.1461 231.385 84.8942 231.023 85.841C230.669 86.7806 230.492 87.8359 230.492 89.0068C230.492 90.1922 230.673 91.2691 231.034 92.2376C231.403 93.1989 231.945 93.9651 232.66 94.5361C233.383 95.0999 234.279 95.3817 235.349 95.3817ZM247.676 97.3333V80.6804H250.235V97.3333H247.676ZM248.977 77.9049C248.478 77.9049 248.048 77.735 247.687 77.3953C247.333 77.0556 247.156 76.6472 247.156 76.1702C247.156 75.6932 247.333 75.2848 247.687 74.9451C248.048 74.6054 248.478 74.4355 248.977 74.4355C249.476 74.4355 249.902 74.6054 250.256 74.9451C250.618 75.2848 250.799 75.6932 250.799 76.1702C250.799 76.6472 250.618 77.0556 250.256 77.3953C249.902 77.735 249.476 77.9049 248.977 77.9049ZM259.822 97.7236C258.766 97.7236 257.809 97.5248 256.949 97.1273C256.088 96.7225 255.405 96.1407 254.899 95.3817C254.393 94.6156 254.141 93.6904 254.141 92.6063C254.141 91.6522 254.328 90.8788 254.704 90.2861C255.08 89.6862 255.582 89.2164 256.211 88.8767C256.84 88.537 257.534 88.284 258.293 88.1178C259.059 87.9443 259.829 87.807 260.602 87.7058C261.614 87.5757 262.434 87.4781 263.063 87.4131C263.699 87.3408 264.162 87.2215 264.451 87.0553C264.747 86.8891 264.896 86.5999 264.896 86.188V86.1012C264.896 85.0315 264.603 84.2003 264.017 83.6076C263.439 83.0149 262.561 82.7186 261.383 82.7186C260.161 82.7186 259.204 82.986 258.51 83.5209C257.816 84.0558 257.328 84.6267 257.046 85.2339L254.618 84.3665C255.051 83.3547 255.629 82.5668 256.352 82.0031C257.082 81.4321 257.877 81.0345 258.737 80.8105C259.605 80.5792 260.458 80.4635 261.296 80.4635C261.831 80.4635 262.445 80.5286 263.139 80.6587C263.84 80.7815 264.516 81.0381 265.167 81.4284C265.824 81.8187 266.37 82.4078 266.804 83.1956C267.237 83.9835 267.454 85.0387 267.454 86.3614V97.3333H264.896V95.0782H264.765C264.592 95.4396 264.303 95.8263 263.898 96.2382C263.493 96.6502 262.955 97.0008 262.283 97.2899C261.61 97.579 260.79 97.7236 259.822 97.7236ZM260.212 95.4251C261.224 95.4251 262.077 95.2263 262.771 94.8288C263.472 94.4313 263.999 93.9181 264.353 93.2893C264.715 92.6605 264.896 91.9991 264.896 91.3053V88.9634C264.787 89.0935 264.549 89.2128 264.18 89.3212C263.819 89.4224 263.399 89.5128 262.922 89.5923C262.452 89.6645 261.994 89.7296 261.545 89.7874C261.105 89.838 260.747 89.8814 260.472 89.9175C259.807 90.0042 259.186 90.1452 258.607 90.3403C258.036 90.5283 257.574 90.8138 257.22 91.1968C256.873 91.5727 256.699 92.0859 256.699 92.7364C256.699 93.6254 257.028 94.2976 257.686 94.7529C258.351 95.201 259.193 95.4251 260.212 95.4251ZM283.747 75.1294V97.3333H281.058V75.1294H283.747ZM291.826 75.1294V97.3333H289.138V75.1294H291.826ZM299.906 75.1294V97.3333H297.217V75.1294H299.906Z" fill="black"/>
<path d="M130.704 64.3636L128.301 55.5746H129.382L131.219 62.7329H131.305L133.176 55.5746H134.377L136.248 62.7329H136.334L138.171 55.5746H139.252L136.849 64.3636H135.751L133.811 57.3599H133.742L131.802 64.3636H130.704ZM142.591 64.501C141.956 64.501 141.408 64.3608 140.948 64.0804C140.49 63.7972 140.137 63.4023 139.888 62.8959C139.642 62.3867 139.519 61.7945 139.519 61.1193C139.519 60.4441 139.642 59.849 139.888 59.334C140.137 58.8161 140.483 58.4127 140.926 58.1238C141.372 57.832 141.893 57.686 142.488 57.686C142.832 57.686 143.171 57.7433 143.505 57.8577C143.84 57.9721 144.145 58.1581 144.419 58.4156C144.694 58.6702 144.913 59.0078 145.076 59.4284C145.239 59.849 145.321 60.3668 145.321 60.9819V61.4111H140.24V60.5356H144.291C144.291 60.1637 144.216 59.8318 144.068 59.54C143.922 59.2482 143.713 59.0178 143.441 58.849C143.172 58.6802 142.854 58.5958 142.488 58.5958C142.085 58.5958 141.736 58.696 141.441 58.8963C141.149 59.0937 140.925 59.3512 140.767 59.6687C140.61 59.9863 140.531 60.3268 140.531 60.6901V61.2738C140.531 61.7716 140.617 62.1936 140.789 62.5398C140.963 62.8831 141.205 63.1449 141.514 63.3251C141.823 63.5025 142.182 63.5912 142.591 63.5912C142.857 63.5912 143.098 63.554 143.312 63.4796C143.53 63.4023 143.717 63.2879 143.874 63.1363C144.032 62.9818 144.153 62.7901 144.239 62.5612L145.218 62.8359C145.115 63.1677 144.942 63.4596 144.698 63.7113C144.455 63.9602 144.155 64.1548 143.797 64.295C143.44 64.4323 143.038 64.501 142.591 64.501ZM147.874 55.5746V64.3636H146.861V55.5746H147.874ZM152.407 64.501C151.789 64.501 151.257 64.3551 150.811 64.0632C150.364 63.7714 150.021 63.3694 149.781 62.8573C149.54 62.3452 149.42 61.7601 149.42 61.1021C149.42 60.4326 149.543 59.8418 149.789 59.3297C150.038 58.8147 150.384 58.4127 150.828 58.1238C151.274 57.832 151.795 57.686 152.39 57.686C152.853 57.686 153.271 57.7719 153.643 57.9435C154.015 58.1152 154.32 58.3555 154.557 58.6645C154.795 58.9735 154.942 59.334 154.999 59.746H153.986C153.909 59.4456 153.737 59.1795 153.471 58.9478C153.208 58.7132 152.853 58.5958 152.407 58.5958C152.012 58.5958 151.666 58.6988 151.368 58.9048C151.074 59.108 150.843 59.3955 150.678 59.7674C150.514 60.1365 150.433 60.5699 150.433 61.0678C150.433 61.577 150.513 62.0205 150.673 62.3981C150.836 62.7758 151.065 63.069 151.36 63.2779C151.657 63.4867 152.006 63.5912 152.407 63.5912C152.67 63.5912 152.909 63.5454 153.124 63.4538C153.338 63.3623 153.52 63.2307 153.669 63.059C153.818 62.8874 153.923 62.6814 153.986 62.441H154.999C154.942 62.8301 154.8 63.1806 154.574 63.4925C154.351 63.8015 154.055 64.0475 153.686 64.2306C153.32 64.4109 152.893 64.501 152.407 64.501ZM159.158 64.501C158.562 64.501 158.04 64.3594 157.591 64.0761C157.145 63.7929 156.796 63.3966 156.544 62.8874C156.295 62.3781 156.171 61.783 156.171 61.1021C156.171 60.4155 156.295 59.8161 156.544 59.3039C156.796 58.7918 157.145 58.3941 157.591 58.1109C158.04 57.8277 158.562 57.686 159.158 57.686C159.753 57.686 160.273 57.8277 160.72 58.1109C161.169 58.3941 161.518 58.7918 161.767 59.3039C162.019 59.8161 162.144 60.4155 162.144 61.1021C162.144 61.783 162.019 62.3781 161.767 62.8874C161.518 63.3966 161.169 63.7929 160.72 64.0761C160.273 64.3594 159.753 64.501 159.158 64.501ZM159.158 63.5912C159.61 63.5912 159.982 63.4753 160.273 63.2436C160.565 63.0118 160.781 62.7071 160.921 62.3295C161.062 61.9518 161.132 61.5427 161.132 61.1021C161.132 60.6615 161.062 60.2509 160.921 59.8704C160.781 59.4899 160.565 59.1824 160.273 58.9478C159.982 58.7132 159.61 58.5958 159.158 58.5958C158.706 58.5958 158.334 58.7132 158.042 58.9478C157.75 59.1824 157.534 59.4899 157.394 59.8704C157.254 60.2509 157.183 60.6615 157.183 61.1021C157.183 61.5427 157.254 61.9518 157.394 62.3295C157.534 62.7071 157.75 63.0118 158.042 63.2436C158.334 63.4753 158.706 63.5912 159.158 63.5912ZM163.691 64.3636V57.7719H164.669V58.8018H164.755C164.892 58.4499 165.114 58.1767 165.42 57.9822C165.726 57.7848 166.094 57.686 166.523 57.686C166.958 57.686 167.32 57.7848 167.609 57.9822C167.9 58.1767 168.128 58.4499 168.291 58.8018H168.36C168.528 58.4614 168.782 58.191 169.119 57.9907C169.457 57.7876 169.862 57.686 170.334 57.686C170.923 57.686 171.405 57.8706 171.78 58.2397C172.155 58.6059 172.342 59.1766 172.342 59.952V64.3636H171.329V59.952C171.329 59.4656 171.196 59.118 170.93 58.9091C170.664 58.7003 170.351 58.5958 169.99 58.5958C169.527 58.5958 169.168 58.736 168.913 59.0164C168.659 59.2939 168.531 59.6458 168.531 60.0721V64.3636H167.501V59.849C167.501 59.4742 167.38 59.1723 167.137 58.9435C166.893 58.7117 166.58 58.5958 166.197 58.5958C165.934 58.5958 165.687 58.6659 165.459 58.8061C165.233 58.9463 165.049 59.1409 164.909 59.3898C164.772 59.6358 164.703 59.9205 164.703 60.2438V64.3636H163.691ZM176.958 64.501C176.323 64.501 175.775 64.3608 175.314 64.0804C174.856 63.7972 174.503 63.4023 174.254 62.8959C174.008 62.3867 173.885 61.7945 173.885 61.1193C173.885 60.4441 174.008 59.849 174.254 59.334C174.503 58.8161 174.849 58.4127 175.293 58.1238C175.739 57.832 176.26 57.686 176.855 57.686C177.198 57.686 177.537 57.7433 177.872 57.8577C178.207 57.9721 178.511 58.1581 178.786 58.4156C179.061 58.6702 179.279 59.0078 179.443 59.4284C179.606 59.849 179.687 60.3668 179.687 60.9819V61.4111H174.606V60.5356H178.657C178.657 60.1637 178.583 59.8318 178.434 59.54C178.288 59.2482 178.079 59.0178 177.807 58.849C177.539 58.6802 177.221 58.5958 176.855 58.5958C176.451 58.5958 176.102 58.696 175.808 58.8963C175.516 59.0937 175.291 59.3512 175.134 59.6687C174.976 59.9863 174.898 60.3268 174.898 60.6901V61.2738C174.898 61.7716 174.984 62.1936 175.155 62.5398C175.33 62.8831 175.572 63.1449 175.881 63.3251C176.19 63.5025 176.549 63.5912 176.958 63.5912C177.224 63.5912 177.464 63.554 177.679 63.4796C177.896 63.4023 178.084 63.2879 178.241 63.1363C178.398 62.9818 178.52 62.7901 178.606 62.5612L179.584 62.8359C179.481 63.1677 179.308 63.4596 179.065 63.7113C178.822 63.9602 178.521 64.1548 178.164 64.295C177.806 64.4323 177.404 64.501 176.958 64.501ZM187.493 57.7719V58.6302H184.077V57.7719H187.493ZM185.073 56.1926H186.086V62.4754C186.086 62.7615 186.127 62.9761 186.21 63.1191C186.296 63.2593 186.405 63.3537 186.536 63.4023C186.671 63.4481 186.812 63.471 186.961 63.471C187.073 63.471 187.164 63.4653 187.236 63.4538C187.307 63.4395 187.365 63.4281 187.408 63.4195L187.614 64.3293C187.545 64.3551 187.449 64.3808 187.326 64.4066C187.203 64.4352 187.047 64.4495 186.858 64.4495C186.572 64.4495 186.292 64.388 186.017 64.2649C185.745 64.1419 185.519 63.9545 185.339 63.7028C185.162 63.451 185.073 63.1334 185.073 62.75V56.1926ZM191.624 64.501C191.029 64.501 190.507 64.3594 190.058 64.0761C189.611 63.7929 189.262 63.3966 189.01 62.8874C188.762 62.3781 188.637 61.783 188.637 61.1021C188.637 60.4155 188.762 59.8161 189.01 59.3039C189.262 58.7918 189.611 58.3941 190.058 58.1109C190.507 57.8277 191.029 57.686 191.624 57.686C192.219 57.686 192.74 57.8277 193.186 58.1109C193.635 58.3941 193.984 58.7918 194.233 59.3039C194.485 59.8161 194.611 60.4155 194.611 61.1021C194.611 61.783 194.485 62.3781 194.233 62.8874C193.984 63.3966 193.635 63.7929 193.186 64.0761C192.74 64.3594 192.219 64.501 191.624 64.501ZM191.624 63.5912C192.076 63.5912 192.448 63.4753 192.74 63.2436C193.032 63.0118 193.248 62.7071 193.388 62.3295C193.528 61.9518 193.598 61.5427 193.598 61.1021C193.598 60.6615 193.528 60.2509 193.388 59.8704C193.248 59.4899 193.032 59.1824 192.74 58.9478C192.448 58.7132 192.076 58.5958 191.624 58.5958C191.172 58.5958 190.8 58.7132 190.508 58.9478C190.216 59.1824 190 59.4899 189.86 59.8704C189.72 60.2509 189.65 60.6615 189.65 61.1021C189.65 61.5427 189.72 61.9518 189.86 62.3295C190 62.7071 190.216 63.0118 190.508 63.2436C190.8 63.4753 191.172 63.5912 191.624 63.5912Z" fill="black"/>
<path d="M166.341 123.864V122.091H162.796V123.864H166.341ZM162.796 264C162.796 264.979 163.589 265.773 164.568 265.773C165.547 265.773 166.341 264.979 166.341 264H162.796ZM166.341 2C166.341 1.02095 165.547 0.227273 164.568 0.227273C163.589 0.227273 162.796 1.02095 162.796 2H166.341ZM162.796 31.6637V33.4365H166.341V31.6637H162.796ZM127.636 262.227C126.657 262.227 125.864 263.021 125.864 264C125.864 264.979 126.657 265.773 127.636 265.773V262.227ZM201.5 265.773C202.479 265.773 203.273 264.979 203.273 264C203.273 263.021 202.479 262.227 201.5 262.227V265.773ZM162.796 123.864V264H166.341V123.864H162.796ZM162.796 2V31.6637H166.341V2H162.796ZM127.636 265.773H201.5V262.227H127.636V265.773Z" fill="black"/>
</svg>
