<svg width="452" height="276" viewBox="0 0 452 276" fill="none" xmlns="http://www.w3.org/2000/svg">
<path d="M289.055 232.437C263.242 234.546 239.068 227.329 221.965 213.099C207.398 229.916 184.716 240.961 158.903 243.07C116.386 246.543 78.9241 223.683 68.7886 190.5C51.971 186.505 37.1182 178.282 26.1752 166.908C15.2321 155.533 8.70898 141.538 7.45989 126.755C5.8771 107.381 13.5008 88.0539 28.6538 73.0253C43.8069 57.9967 65.248 48.4974 88.2605 46.6174C93.9004 46.1566 99.1513 46.2791 105.068 46.5311C119.918 33.1844 139.914 24.0134 162.691 22.1526C188.505 20.0436 212.678 27.2607 229.781 41.4898C244.349 24.6733 267.03 13.6283 292.844 11.5193C335.36 8.04583 372.822 30.9067 382.958 64.089C399.775 68.0842 414.628 76.3074 425.571 87.6816C436.514 99.0559 443.037 113.051 444.286 127.835C445.869 147.208 438.245 166.535 423.092 181.564C407.939 196.593 386.498 206.092 363.486 207.972L346.678 208.058C331.828 221.405 311.832 230.576 289.055 232.437Z" fill="white" fill-opacity="0.5"/>
<path d="M97.5109 102.201V100.181C97.5109 99.5675 97.6194 98.9167 97.8363 98.2285C98.0607 97.5327 98.3824 96.8632 98.8013 96.2199C99.2277 95.5691 99.7401 95.0043 100.339 94.5255L101.775 95.6925C101.304 96.3658 100.892 97.0689 100.541 97.8021C100.196 98.5277 100.024 99.3057 100.024 100.136V102.201H97.5109ZM103.256 102.201V100.181C103.256 99.5675 103.365 98.9167 103.581 98.2285C103.806 97.5327 104.128 96.8632 104.547 96.2199C104.973 95.5691 105.485 95.0043 106.084 94.5255L107.52 95.6925C107.049 96.3658 106.637 97.0689 106.286 97.8021C105.942 98.5277 105.77 99.3057 105.77 100.136V102.201H103.256ZM117.894 118H110.802V95.0192H118.208C120.437 95.0192 122.345 95.4793 123.931 96.3994C125.517 97.3121 126.732 98.6249 127.578 100.338C128.423 102.044 128.846 104.086 128.846 106.465C128.846 108.859 128.419 110.919 127.567 112.648C126.714 114.368 125.472 115.692 123.841 116.62C122.21 117.54 120.228 118 117.894 118ZM113.585 115.531H117.714C119.615 115.531 121.189 115.165 122.439 114.432C123.688 113.699 124.619 112.655 125.233 111.301C125.846 109.947 126.153 108.335 126.153 106.465C126.153 104.61 125.85 103.012 125.244 101.673C124.638 100.327 123.733 99.2945 122.528 98.5763C121.324 97.8507 119.824 97.4879 118.029 97.4879H113.585V115.531ZM140.157 118.359C138.601 118.359 137.235 117.989 136.061 117.248C134.894 116.508 133.981 115.472 133.323 114.14C132.672 112.808 132.347 111.252 132.347 109.472C132.347 107.677 132.672 106.109 133.323 104.77C133.981 103.431 134.894 102.391 136.061 101.651C137.235 100.91 138.601 100.54 140.157 100.54C141.713 100.54 143.074 100.91 144.241 101.651C145.416 102.391 146.328 103.431 146.979 104.77C147.637 106.109 147.966 107.677 147.966 109.472C147.966 111.252 147.637 112.808 146.979 114.14C146.328 115.472 145.416 116.508 144.241 117.248C143.074 117.989 141.713 118.359 140.157 118.359ZM140.157 115.98C141.339 115.98 142.311 115.677 143.074 115.071C143.837 114.465 144.402 113.669 144.768 112.681C145.135 111.694 145.318 110.624 145.318 109.472C145.318 108.32 145.135 107.246 144.768 106.252C144.402 105.257 143.837 104.452 143.074 103.839C142.311 103.226 141.339 102.919 140.157 102.919C138.975 102.919 138.002 103.226 137.239 103.839C136.476 104.452 135.911 105.257 135.545 106.252C135.178 107.246 134.995 108.32 134.995 109.472C134.995 110.624 135.178 111.694 135.545 112.681C135.911 113.669 136.476 114.465 137.239 115.071C138.002 115.677 138.975 115.98 140.157 115.98ZM164.801 118L159.549 100.764H162.332L166.058 113.96H166.237L169.918 100.764H172.745L176.381 113.916H176.561L180.286 100.764H183.069L177.817 118H175.214L171.444 104.759H171.174L167.404 118H164.801ZM189.218 107.632V118H186.57V95.0192H189.218V103.457H189.442C189.846 102.567 190.452 101.86 191.26 101.337C192.076 100.806 193.16 100.54 194.514 100.54C195.689 100.54 196.717 100.776 197.6 101.247C198.483 101.711 199.167 102.425 199.654 103.39C200.147 104.348 200.394 105.567 200.394 107.048V118H197.746V107.228C197.746 105.859 197.391 104.8 196.68 104.052C195.977 103.297 195.001 102.919 193.751 102.919C192.884 102.919 192.106 103.102 191.417 103.469C190.737 103.835 190.198 104.37 189.801 105.073C189.412 105.777 189.218 106.629 189.218 107.632ZM210.311 118.404C209.219 118.404 208.227 118.198 207.337 117.787C206.447 117.368 205.74 116.766 205.216 115.98C204.693 115.187 204.431 114.23 204.431 113.108C204.431 112.12 204.625 111.32 205.014 110.706C205.403 110.085 205.923 109.599 206.574 109.248C207.225 108.896 207.943 108.634 208.729 108.462C209.522 108.283 210.318 108.14 211.119 108.036C212.166 107.901 213.015 107.8 213.666 107.733C214.324 107.658 214.803 107.534 215.102 107.362C215.409 107.19 215.562 106.891 215.562 106.465V106.375C215.562 105.268 215.259 104.408 214.653 103.794C214.055 103.181 213.146 102.874 211.927 102.874C210.662 102.874 209.671 103.151 208.953 103.704C208.235 104.258 207.73 104.849 207.438 105.477L204.925 104.58C205.374 103.532 205.972 102.717 206.72 102.133C207.476 101.542 208.298 101.131 209.189 100.899C210.086 100.66 210.969 100.54 211.837 100.54C212.39 100.54 213.026 100.607 213.744 100.742C214.47 100.869 215.17 101.135 215.843 101.539C216.524 101.943 217.088 102.552 217.537 103.368C217.986 104.183 218.21 105.275 218.21 106.644V118H215.562V115.666H215.428C215.248 116.04 214.949 116.44 214.53 116.867C214.111 117.293 213.554 117.656 212.858 117.955C212.162 118.254 211.313 118.404 210.311 118.404ZM210.715 116.025C211.762 116.025 212.645 115.819 213.363 115.408C214.089 114.996 214.635 114.465 215.001 113.815C215.375 113.164 215.562 112.479 215.562 111.761V109.337C215.45 109.472 215.203 109.595 214.822 109.708C214.448 109.812 214.014 109.906 213.52 109.988C213.034 110.063 212.559 110.13 212.095 110.19C211.639 110.242 211.268 110.287 210.984 110.325C210.296 110.415 209.653 110.56 209.054 110.762C208.463 110.957 207.984 111.252 207.618 111.649C207.259 112.038 207.079 112.569 207.079 113.242C207.079 114.162 207.42 114.858 208.1 115.329C208.788 115.793 209.66 116.025 210.715 116.025ZM230.54 100.764V103.009H221.608V100.764H230.54ZM224.211 96.6351H226.859V113.063C226.859 113.811 226.968 114.372 227.185 114.746C227.409 115.112 227.693 115.359 228.037 115.486C228.389 115.606 228.759 115.666 229.148 115.666C229.44 115.666 229.679 115.651 229.866 115.621C230.053 115.584 230.203 115.554 230.315 115.531L230.854 117.91C230.674 117.978 230.424 118.045 230.102 118.112C229.78 118.187 229.373 118.224 228.879 118.224C228.131 118.224 227.398 118.064 226.68 117.742C225.969 117.42 225.378 116.93 224.907 116.272C224.443 115.614 224.211 114.783 224.211 113.781V96.6351ZM245.116 124.463C244.667 124.463 244.267 124.426 243.915 124.351C243.564 124.284 243.32 124.216 243.186 124.149L243.859 121.815C244.502 121.98 245.071 122.04 245.565 121.995C246.058 121.95 246.496 121.729 246.878 121.333C247.267 120.944 247.622 120.312 247.944 119.436L248.437 118.09L242.064 100.764H244.936L249.694 114.499H249.874L254.631 100.764H257.504L250.188 120.514C249.859 121.404 249.451 122.141 248.965 122.724C248.478 123.315 247.914 123.753 247.27 124.037C246.634 124.321 245.916 124.463 245.116 124.463ZM267.384 118.359C265.828 118.359 264.463 117.989 263.288 117.248C262.121 116.508 261.209 115.472 260.55 114.14C259.9 112.808 259.574 111.252 259.574 109.472C259.574 107.677 259.9 106.109 260.55 104.77C261.209 103.431 262.121 102.391 263.288 101.651C264.463 100.91 265.828 100.54 267.384 100.54C268.94 100.54 270.302 100.91 271.469 101.651C272.643 102.391 273.556 103.431 274.206 104.77C274.865 106.109 275.194 107.677 275.194 109.472C275.194 111.252 274.865 112.808 274.206 114.14C273.556 115.472 272.643 116.508 271.469 117.248C270.302 117.989 268.94 118.359 267.384 118.359ZM267.384 115.98C268.566 115.98 269.538 115.677 270.302 115.071C271.065 114.465 271.629 113.669 271.996 112.681C272.362 111.694 272.546 110.624 272.546 109.472C272.546 108.32 272.362 107.246 271.996 106.252C271.629 105.257 271.065 104.452 270.302 103.839C269.538 103.226 268.566 102.919 267.384 102.919C266.202 102.919 265.23 103.226 264.467 103.839C263.704 104.452 263.139 105.257 262.772 106.252C262.406 107.246 262.222 108.32 262.222 109.472C262.222 110.624 262.406 111.694 262.772 112.681C263.139 113.669 263.704 114.465 264.467 115.071C265.23 115.677 266.202 115.98 267.384 115.98ZM290.098 110.953V100.764H292.746V118H290.098V115.083H289.919C289.515 115.958 288.886 116.702 288.034 117.316C287.181 117.921 286.104 118.224 284.802 118.224C283.725 118.224 282.767 117.989 281.929 117.517C281.092 117.039 280.433 116.321 279.954 115.363C279.476 114.398 279.236 113.182 279.236 111.716V100.764H281.884V111.537C281.884 112.793 282.236 113.796 282.939 114.544C283.65 115.292 284.555 115.666 285.655 115.666C286.313 115.666 286.983 115.498 287.663 115.161C288.352 114.824 288.928 114.308 289.391 113.613C289.863 112.917 290.098 112.03 290.098 110.953ZM309.132 95.0192V118H306.484V95.0192H309.132ZM320.984 118.359C319.428 118.359 318.063 117.989 316.889 117.248C315.722 116.508 314.809 115.472 314.151 114.14C313.5 112.808 313.174 111.252 313.174 109.472C313.174 107.677 313.5 106.109 314.151 104.77C314.809 103.431 315.722 102.391 316.889 101.651C318.063 100.91 319.428 100.54 320.984 100.54C322.54 100.54 323.902 100.91 325.069 101.651C326.243 102.391 327.156 103.431 327.807 104.77C328.465 106.109 328.794 107.677 328.794 109.472C328.794 111.252 328.465 112.808 327.807 114.14C327.156 115.472 326.243 116.508 325.069 117.248C323.902 117.989 322.54 118.359 320.984 118.359ZM320.984 115.98C322.166 115.98 323.139 115.677 323.902 115.071C324.665 114.465 325.23 113.669 325.596 112.681C325.963 111.694 326.146 110.624 326.146 109.472C326.146 108.32 325.963 107.246 325.596 106.252C325.23 105.257 324.665 104.452 323.902 103.839C323.139 103.226 322.166 102.919 320.984 102.919C319.802 102.919 318.83 103.226 318.067 103.839C317.304 104.452 316.739 105.257 316.372 106.252C316.006 107.246 315.823 108.32 315.823 109.472C315.823 110.624 316.006 111.694 316.372 112.681C316.739 113.669 317.304 114.465 318.067 115.071C318.83 115.677 319.802 115.98 320.984 115.98ZM346.313 100.764L339.94 118H337.246L330.873 100.764H333.746L338.503 114.499H338.683L343.441 100.764H346.313ZM356.418 118.359C354.757 118.359 353.324 117.993 352.12 117.259C350.923 116.519 349.999 115.486 349.348 114.162C348.705 112.831 348.383 111.282 348.383 109.517C348.383 107.751 348.705 106.195 349.348 104.849C349.999 103.495 350.904 102.44 352.064 101.685C353.231 100.922 354.592 100.54 356.148 100.54C357.046 100.54 357.933 100.69 358.808 100.989C359.683 101.288 360.48 101.774 361.198 102.448C361.916 103.113 362.488 103.996 362.915 105.096C363.341 106.195 363.554 107.549 363.554 109.158V110.28H350.269V107.991H360.861C360.861 107.018 360.667 106.151 360.278 105.388C359.896 104.624 359.35 104.022 358.639 103.581C357.936 103.14 357.106 102.919 356.148 102.919C355.094 102.919 354.181 103.181 353.41 103.704C352.647 104.221 352.06 104.894 351.649 105.724C351.237 106.554 351.032 107.445 351.032 108.395V109.921C351.032 111.222 351.256 112.326 351.705 113.231C352.161 114.129 352.793 114.813 353.601 115.284C354.409 115.748 355.348 115.98 356.418 115.98C357.113 115.98 357.742 115.883 358.303 115.688C358.871 115.486 359.361 115.187 359.773 114.791C360.184 114.387 360.502 113.886 360.727 113.287L363.285 114.005C363.016 114.873 362.563 115.636 361.927 116.294C361.291 116.945 360.506 117.454 359.571 117.82C358.636 118.18 357.585 118.359 356.418 118.359ZM371.533 114.858L371.353 116.07C371.226 116.923 371.031 117.835 370.769 118.808C370.515 119.78 370.25 120.697 369.973 121.557C369.696 122.417 369.468 123.102 369.288 123.611H367.268C367.366 123.132 367.493 122.5 367.65 121.714C367.807 120.929 367.964 120.05 368.121 119.077C368.286 118.112 368.421 117.125 368.525 116.115L368.66 114.858H371.533ZM103.572 133.019V156H100.924V133.019H103.572ZM115.424 156.359C113.868 156.359 112.503 155.989 111.328 155.248C110.161 154.508 109.249 153.472 108.59 152.14C107.939 150.808 107.614 149.252 107.614 147.472C107.614 145.677 107.939 144.109 108.59 142.77C109.249 141.431 110.161 140.391 111.328 139.651C112.503 138.91 113.868 138.54 115.424 138.54C116.98 138.54 118.341 138.91 119.508 139.651C120.683 140.391 121.596 141.431 122.246 142.77C122.905 144.109 123.234 145.677 123.234 147.472C123.234 149.252 122.905 150.808 122.246 152.14C121.596 153.472 120.683 154.508 119.508 155.248C118.341 155.989 116.98 156.359 115.424 156.359ZM115.424 153.98C116.606 153.98 117.578 153.677 118.341 153.071C119.104 152.465 119.669 151.669 120.036 150.681C120.402 149.694 120.586 148.624 120.586 147.472C120.586 146.32 120.402 145.246 120.036 144.252C119.669 143.257 119.104 142.452 118.341 141.839C117.578 141.226 116.606 140.919 115.424 140.919C114.242 140.919 113.27 141.226 112.506 141.839C111.743 142.452 111.179 143.257 110.812 144.252C110.446 145.246 110.262 146.32 110.262 147.472C110.262 148.624 110.446 149.694 110.812 150.681C111.179 151.669 111.743 152.465 112.506 153.071C113.27 153.677 114.242 153.98 115.424 153.98ZM140.753 138.764L134.379 156H131.686L125.313 138.764H128.185L132.943 152.499H133.122L137.88 138.764H140.753ZM150.857 156.359C149.197 156.359 147.764 155.993 146.56 155.259C145.363 154.519 144.439 153.486 143.788 152.162C143.145 150.831 142.823 149.282 142.823 147.517C142.823 145.751 143.145 144.195 143.788 142.849C144.439 141.495 145.344 140.44 146.504 139.685C147.671 138.922 149.032 138.54 150.588 138.54C151.486 138.54 152.372 138.69 153.247 138.989C154.123 139.288 154.919 139.774 155.638 140.448C156.356 141.113 156.928 141.996 157.354 143.096C157.781 144.195 157.994 145.549 157.994 147.158V148.28H144.708V145.991H155.301C155.301 145.018 155.106 144.151 154.717 143.388C154.336 142.624 153.79 142.022 153.079 141.581C152.376 141.14 151.546 140.919 150.588 140.919C149.533 140.919 148.621 141.181 147.85 141.704C147.087 142.221 146.5 142.894 146.088 143.724C145.677 144.554 145.471 145.445 145.471 146.395V147.921C145.471 149.222 145.696 150.326 146.144 151.231C146.601 152.129 147.233 152.813 148.041 153.284C148.849 153.748 149.788 153.98 150.857 153.98C151.553 153.98 152.181 153.883 152.742 153.688C153.311 153.486 153.801 153.187 154.212 152.791C154.624 152.387 154.942 151.886 155.166 151.287L157.725 152.005C157.455 152.873 157.003 153.636 156.367 154.294C155.731 154.945 154.946 155.454 154.01 155.82C153.075 156.18 152.024 156.359 150.857 156.359ZM174.814 156L169.563 138.764H172.346L176.071 151.96H176.251L179.931 138.764H182.759L186.394 151.916H186.574L190.299 138.764H193.082L187.831 156H185.227L181.457 142.759H181.188L177.418 156H174.814ZM199.231 145.632V156H196.583V133.019H199.231V141.457H199.456C199.86 140.567 200.466 139.86 201.274 139.337C202.089 138.806 203.174 138.54 204.528 138.54C205.702 138.54 206.731 138.776 207.614 139.247C208.496 139.711 209.181 140.425 209.667 141.39C210.161 142.348 210.408 143.567 210.408 145.048V156H207.759V145.228C207.759 143.859 207.404 142.8 206.693 142.052C205.99 141.297 205.014 140.919 203.765 140.919C202.897 140.919 202.119 141.102 201.431 141.469C200.75 141.835 200.211 142.37 199.815 143.073C199.426 143.777 199.231 144.629 199.231 145.632ZM220.324 156.404C219.232 156.404 218.241 156.198 217.351 155.787C216.46 155.368 215.754 154.766 215.23 153.98C214.706 153.187 214.444 152.23 214.444 151.108C214.444 150.12 214.639 149.32 215.028 148.706C215.417 148.085 215.937 147.599 216.588 147.248C217.238 146.896 217.957 146.634 218.742 146.462C219.535 146.283 220.332 146.14 221.132 146.036C222.179 145.901 223.029 145.8 223.679 145.733C224.338 145.658 224.816 145.534 225.116 145.362C225.422 145.19 225.576 144.891 225.576 144.465V144.375C225.576 143.268 225.273 142.408 224.667 141.794C224.068 141.181 223.159 140.874 221.94 140.874C220.676 140.874 219.685 141.151 218.966 141.704C218.248 142.258 217.743 142.849 217.452 143.477L214.938 142.58C215.387 141.532 215.985 140.717 216.733 140.133C217.489 139.542 218.312 139.131 219.202 138.899C220.1 138.66 220.983 138.54 221.85 138.54C222.404 138.54 223.04 138.607 223.758 138.742C224.484 138.869 225.183 139.135 225.856 139.539C226.537 139.943 227.102 140.552 227.551 141.368C227.999 142.183 228.224 143.275 228.224 144.644V156H225.576V153.666H225.441C225.262 154.04 224.962 154.44 224.543 154.867C224.124 155.293 223.567 155.656 222.871 155.955C222.176 156.254 221.327 156.404 220.324 156.404ZM220.728 154.025C221.775 154.025 222.658 153.819 223.376 153.408C224.102 152.996 224.648 152.465 225.015 151.815C225.389 151.164 225.576 150.479 225.576 149.761V147.337C225.463 147.472 225.217 147.595 224.835 147.708C224.461 147.812 224.027 147.906 223.533 147.988C223.047 148.063 222.572 148.13 222.108 148.19C221.652 148.242 221.282 148.287 220.998 148.325C220.309 148.415 219.666 148.56 219.067 148.762C218.476 148.957 217.998 149.252 217.631 149.649C217.272 150.038 217.093 150.569 217.093 151.242C217.093 152.162 217.433 152.858 218.114 153.329C218.802 153.793 219.673 154.025 220.728 154.025ZM240.553 138.764V141.009H231.621V138.764H240.553ZM234.224 134.635H236.873V151.063C236.873 151.811 236.981 152.372 237.198 152.746C237.422 153.112 237.707 153.359 238.051 153.486C238.402 153.606 238.773 153.666 239.162 153.666C239.453 153.666 239.693 153.651 239.88 153.621C240.067 153.584 240.216 153.554 240.329 153.531L240.867 155.91C240.688 155.978 240.437 156.045 240.115 156.112C239.794 156.187 239.386 156.224 238.892 156.224C238.144 156.224 237.411 156.064 236.693 155.742C235.982 155.42 235.391 154.93 234.92 154.272C234.456 153.614 234.224 152.783 234.224 151.781V134.635ZM255.129 162.463C254.68 162.463 254.28 162.426 253.929 162.351C253.577 162.284 253.334 162.216 253.199 162.149L253.872 159.815C254.516 159.98 255.084 160.04 255.578 159.995C256.072 159.95 256.509 159.729 256.891 159.333C257.28 158.944 257.635 158.312 257.957 157.436L258.451 156.09L252.077 138.764H254.95L259.707 152.499H259.887L264.645 138.764H267.517L260.201 158.514C259.872 159.404 259.464 160.141 258.978 160.724C258.492 161.315 257.927 161.753 257.284 162.037C256.648 162.321 255.93 162.463 255.129 162.463ZM277.397 156.359C275.841 156.359 274.476 155.989 273.302 155.248C272.135 154.508 271.222 153.472 270.564 152.14C269.913 150.808 269.588 149.252 269.588 147.472C269.588 145.677 269.913 144.109 270.564 142.77C271.222 141.431 272.135 140.391 273.302 139.651C274.476 138.91 275.841 138.54 277.397 138.54C278.953 138.54 280.315 138.91 281.482 139.651C282.656 140.391 283.569 141.431 284.22 142.77C284.878 144.109 285.207 145.677 285.207 147.472C285.207 149.252 284.878 150.808 284.22 152.14C283.569 153.472 282.656 154.508 281.482 155.248C280.315 155.989 278.953 156.359 277.397 156.359ZM277.397 153.98C278.579 153.98 279.552 153.677 280.315 153.071C281.078 152.465 281.643 151.669 282.009 150.681C282.376 149.694 282.559 148.624 282.559 147.472C282.559 146.32 282.376 145.246 282.009 144.252C281.643 143.257 281.078 142.452 280.315 141.839C279.552 141.226 278.579 140.919 277.397 140.919C276.216 140.919 275.243 141.226 274.48 141.839C273.717 142.452 273.152 143.257 272.786 144.252C272.419 145.246 272.236 146.32 272.236 147.472C272.236 148.624 272.419 149.694 272.786 150.681C273.152 151.669 273.717 152.465 274.48 153.071C275.243 153.677 276.216 153.98 277.397 153.98ZM300.112 148.953V138.764H302.76V156H300.112V153.083H299.932C299.528 153.958 298.9 154.702 298.047 155.316C297.194 155.921 296.117 156.224 294.815 156.224C293.738 156.224 292.781 155.989 291.943 155.517C291.105 155.039 290.447 154.321 289.968 153.363C289.489 152.398 289.25 151.182 289.25 149.716V138.764H291.898V149.537C291.898 150.793 292.249 151.796 292.953 152.544C293.663 153.292 294.569 153.666 295.668 153.666C296.326 153.666 296.996 153.498 297.677 153.161C298.365 152.824 298.941 152.308 299.405 151.613C299.876 150.917 300.112 150.03 300.112 148.953ZM323.006 156.359C321.569 156.359 320.301 155.996 319.202 155.271C318.102 154.538 317.242 153.505 316.621 152.174C316 150.835 315.689 149.252 315.689 147.427C315.689 145.617 316 144.046 316.621 142.714C317.242 141.383 318.106 140.354 319.213 139.628C320.32 138.903 321.599 138.54 323.05 138.54C324.173 138.54 325.059 138.727 325.71 139.101C326.368 139.468 326.869 139.887 327.213 140.358C327.565 140.822 327.838 141.203 328.033 141.502H328.257V133.019H330.905V156H328.347V153.352H328.033C327.838 153.666 327.561 154.062 327.202 154.541C326.843 155.013 326.331 155.435 325.665 155.809C324.999 156.176 324.113 156.359 323.006 156.359ZM323.365 153.98C324.427 153.98 325.325 153.703 326.058 153.15C326.791 152.589 327.348 151.815 327.73 150.827C328.111 149.832 328.302 148.684 328.302 147.382C328.302 146.096 328.115 144.97 327.741 144.005C327.367 143.032 326.813 142.277 326.08 141.738C325.347 141.192 324.442 140.919 323.365 140.919C322.243 140.919 321.307 141.207 320.559 141.783C319.819 142.351 319.261 143.126 318.887 144.106C318.521 145.078 318.338 146.17 318.338 147.382C318.338 148.609 318.525 149.724 318.899 150.726C319.28 151.721 319.841 152.514 320.582 153.105C321.33 153.688 322.257 153.98 323.365 153.98ZM343.125 156.359C341.569 156.359 340.204 155.989 339.029 155.248C337.862 154.508 336.95 153.472 336.291 152.14C335.64 150.808 335.315 149.252 335.315 147.472C335.315 145.677 335.64 144.109 336.291 142.77C336.95 141.431 337.862 140.391 339.029 139.651C340.204 138.91 341.569 138.54 343.125 138.54C344.681 138.54 346.042 138.91 347.209 139.651C348.384 140.391 349.297 141.431 349.947 142.77C350.606 144.109 350.935 145.677 350.935 147.472C350.935 149.252 350.606 150.808 349.947 152.14C349.297 153.472 348.384 154.508 347.209 155.248C346.042 155.989 344.681 156.359 343.125 156.359ZM343.125 153.98C344.307 153.98 345.279 153.677 346.042 153.071C346.805 152.465 347.37 151.669 347.737 150.681C348.103 149.694 348.287 148.624 348.287 147.472C348.287 146.32 348.103 145.246 347.737 144.252C347.37 143.257 346.805 142.452 346.042 141.839C345.279 141.226 344.307 140.919 343.125 140.919C341.943 140.919 340.97 141.226 340.207 141.839C339.444 142.452 338.88 143.257 338.513 144.252C338.147 145.246 337.963 146.32 337.963 147.472C337.963 148.624 338.147 149.694 338.513 150.681C338.88 151.669 339.444 152.465 340.207 153.071C340.97 153.677 341.943 153.98 343.125 153.98ZM356.907 156.18C356.354 156.18 355.879 155.981 355.482 155.585C355.086 155.188 354.887 154.713 354.887 154.16C354.887 153.606 355.086 153.131 355.482 152.735C355.879 152.338 356.354 152.14 356.907 152.14C357.461 152.14 357.936 152.338 358.332 152.735C358.729 153.131 358.927 153.606 358.927 154.16C358.927 154.526 358.834 154.863 358.647 155.17C358.467 155.476 358.224 155.723 357.917 155.91C357.618 156.09 357.281 156.18 356.907 156.18ZM364.223 133.019V135.039C364.223 135.652 364.111 136.307 363.887 137.003C363.67 137.691 363.348 138.36 362.922 139.011C362.503 139.655 361.994 140.216 361.396 140.694L359.959 139.527C360.431 138.854 360.838 138.155 361.182 137.429C361.534 136.696 361.71 135.914 361.71 135.084V133.019H364.223ZM369.969 133.019V135.039C369.969 135.652 369.856 136.307 369.632 137.003C369.415 137.691 369.093 138.36 368.667 139.011C368.248 139.655 367.739 140.216 367.141 140.694L365.705 139.527C366.176 138.854 366.584 138.155 366.928 137.429C367.279 136.696 367.455 135.914 367.455 135.084V133.019H369.969Z" fill="black"/>
<circle cx="66" cy="255" r="21" fill="white" fill-opacity="0.4"/>
<circle cx="14.5" cy="257.5" r="10.5" fill="white" fill-opacity="0.3"/>
</svg>
